<?xml version="1.0" encoding="utf-8" standalone="no"?>
<!DOCTYPE svg PUBLIC "-//W3C//DTD SVG 1.1//EN"
  "http://www.w3.org/Graphics/SVG/1.1/DTD/svg11.dtd">
<svg xmlns:xlink="http://www.w3.org/1999/xlink" width="212.598425pt" height="42.519685pt" viewBox="0 0 212.598425 42.519685" xmlns="http://www.w3.org/2000/svg" version="1.1">
 <metadata>
  <rdf:RDF xmlns:dc="http://purl.org/dc/elements/1.1/" xmlns:cc="http://creativecommons.org/ns#" xmlns:rdf="http://www.w3.org/1999/02/22-rdf-syntax-ns#">
   <cc:Work>
    <dc:type rdf:resource="http://purl.org/dc/dcmitype/StillImage"/>
    <dc:date>2026-06-01T17:59:33.386898</dc:date>
    <dc:format>image/svg+xml</dc:format>
    <dc:creator>
     <cc:Agent>
      <dc:title>Matplotlib v3.10.8, https://matplotlib.org/</dc:title>
     </cc:Agent>
    </dc:creator>
   </cc:Work>
  </rdf:RDF>
 </metadata>
 <defs>
  <style type="text/css">*{stroke-linejoin: round; stroke-linecap: butt}</style>
 </defs>
 <g id="figure_1">
  <g id="patch_1">
   <path d="M 0 42.519685 
L 212.598425 42.519685 
L 212.598425 0 
L 0 0 
z
" style="fill: #ffffff"/>
  </g>
  <g id="axes_1">
   <g id="patch_2">
    <path d="M 2.125984 42.094488 
L 210.472441 42.094488 
L 210.472441 0.425197 
L 2.125984 0.425197 
z
" style="fill: #eaeaf2"/>
   </g>
   <g id="matplotlib.axis_1">
    <g id="xtick_1">
     <g id="line2d_1">
      <path d="M 3.157402 42.094488 
L 3.157402 0.425197 
" clip-path="url(#p10bca95000)" style="fill: none; stroke: #ffffff; stroke-width: 0.9; stroke-linecap: square"/>
     </g>
    </g>
    <g id="xtick_2">
     <g id="line2d_2">
      <path d="M 47.59727 42.094488 
L 47.59727 0.425197 
" clip-path="url(#p10bca95000)" style="fill: none; stroke: #ffffff; stroke-width: 0.9; stroke-linecap: square"/>
     </g>
    </g>
    <g id="xtick_3">
     <g id="line2d_3">
      <path d="M 92.037138 42.094488 
L 92.037138 0.425197 
" clip-path="url(#p10bca95000)" style="fill: none; stroke: #ffffff; stroke-width: 0.9; stroke-linecap: square"/>
     </g>
    </g>
    <g id="xtick_4">
     <g id="line2d_4">
      <path d="M 136.477006 42.094488 
L 136.477006 0.425197 
" clip-path="url(#p10bca95000)" style="fill: none; stroke: #ffffff; stroke-width: 0.9; stroke-linecap: square"/>
     </g>
    </g>
    <g id="xtick_5">
     <g id="line2d_5">
      <path d="M 180.916874 42.094488 
L 180.916874 0.425197 
" clip-path="url(#p10bca95000)" style="fill: none; stroke: #ffffff; stroke-width: 0.9; stroke-linecap: square"/>
     </g>
    </g>
    <g id="xtick_6">
     <g id="line2d_6">
      <path d="M 25.377336 42.094488 
L 25.377336 0.425197 
" clip-path="url(#p10bca95000)" style="fill: none; stroke: #ffffff; stroke-opacity: 0.9; stroke-width: 0.55; stroke-linecap: square"/>
     </g>
    </g>
    <g id="xtick_7">
     <g id="line2d_7">
      <path d="M 69.817204 42.094488 
L 69.817204 0.425197 
" clip-path="url(#p10bca95000)" style="fill: none; stroke: #ffffff; stroke-opacity: 0.9; stroke-width: 0.55; stroke-linecap: square"/>
     </g>
    </g>
    <g id="xtick_8">
     <g id="line2d_8">
      <path d="M 114.257072 42.094488 
L 114.257072 0.425197 
" clip-path="url(#p10bca95000)" style="fill: none; stroke: #ffffff; stroke-opacity: 0.9; stroke-width: 0.55; stroke-linecap: square"/>
     </g>
    </g>
    <g id="xtick_9">
     <g id="line2d_9">
      <path d="M 158.69694 42.094488 
L 158.69694 0.425197 
" clip-path="url(#p10bca95000)" style="fill: none; stroke: #ffffff; stroke-opacity: 0.9; stroke-width: 0.55; stroke-linecap: square"/>
     </g>
    </g>
    <g id="xtick_10">
     <g id="line2d_10">
      <path d="M 203.136808 42.094488 
L 203.136808 0.425197 
" clip-path="url(#p10bca95000)" style="fill: none; stroke: #ffffff; stroke-opacity: 0.9; stroke-width: 0.55; stroke-linecap: square"/>
     </g>
    </g>
   </g>
   <g id="matplotlib.axis_2">
    <g id="ytick_1">
     <g id="line2d_11">
      <path d="M 2.125984 31.354506 
L 210.472441 31.354506 
" clip-path="url(#p10bca95000)" style="fill: none; stroke: #ffffff; stroke-width: 0.9; stroke-linecap: square"/>
     </g>
    </g>
    <g id="ytick_2">
     <g id="line2d_12">
      <path d="M 2.125984 16.2906 
L 210.472441 16.2906 
" clip-path="url(#p10bca95000)" style="fill: none; stroke: #ffffff; stroke-width: 0.9; stroke-linecap: square"/>
     </g>
    </g>
    <g id="ytick_3">
     <g id="line2d_13">
      <path d="M 2.125984 1.226694 
L 210.472441 1.226694 
" clip-path="url(#p10bca95000)" style="fill: none; stroke: #ffffff; stroke-width: 0.9; stroke-linecap: square"/>
     </g>
    </g>
    <g id="ytick_4">
     <g id="line2d_14">
      <path d="M 2.125984 38.886459 
L 210.472441 38.886459 
" clip-path="url(#p10bca95000)" style="fill: none; stroke: #ffffff; stroke-opacity: 0.9; stroke-width: 0.55; stroke-linecap: square"/>
     </g>
    </g>
    <g id="ytick_5">
     <g id="line2d_15">
      <path d="M 2.125984 23.822553 
L 210.472441 23.822553 
" clip-path="url(#p10bca95000)" style="fill: none; stroke: #ffffff; stroke-opacity: 0.9; stroke-width: 0.55; stroke-linecap: square"/>
     </g>
    </g>
    <g id="ytick_6">
     <g id="line2d_16">
      <path d="M 2.125984 8.758647 
L 210.472441 8.758647 
" clip-path="url(#p10bca95000)" style="fill: none; stroke: #ffffff; stroke-opacity: 0.9; stroke-width: 0.55; stroke-linecap: square"/>
     </g>
    </g>
   </g>
   <g id="line2d_17">
    <path d="M 3.157402 10.173948 
L 3.231543 10.125949 
L 3.602245 7.759485 
L 3.725813 5.722803 
L 3.898807 5.434298 
L 3.972948 5.434298 
L 4.640213 7.189024 
L 5.25805 2.872568 
L 5.381618 2.872568 
L 5.579326 5.668686 
L 5.702894 5.668686 
L 5.826461 4.76698 
L 6.073596 4.713294 
L 6.24659 4.45719 
L 6.370158 4.221509 
L 6.740861 4.233228 
L 6.864428 3.121089 
L 6.987995 3.121089 
L 7.235131 4.932862 
L 7.432838 4.932862 
L 7.605833 4.239864 
L 8.223671 3.988671 
L 8.347238 6.341692 
L 8.470806 6.341692 
L 8.594374 5.280309 
L 9.039217 5.193878 
L 9.212211 5.136487 
L 9.335779 5.136487 
L 9.459346 5.472732 
L 9.582913 5.472732 
L 9.830049 5.214385 
L 9.953616 5.214385 
L 10.200751 4.844276 
L 10.447886 3.635796 
L 10.571454 3.692841 
L 10.769161 6.589007 
L 10.942156 6.659065 
L 11.263432 6.331179 
L 11.312859 6.435534 
L 11.436426 6.568067 
L 11.683561 7.289587 
L 12.424966 7.336207 
L 12.499107 7.257187 
L 12.548534 7.336207 
L 12.746242 7.40187 
L 12.919236 7.664782 
L 13.042804 7.856946 
L 13.660641 6.52162 
L 13.907777 3.690688 
L 13.981917 3.690688 
L 14.105485 5.41422 
L 14.229053 12.929307 
L 14.35262 12.929307 
L 14.649182 9.323685 
L 15.019884 9.051984 
L 15.143452 8.792002 
L 15.26702 8.792002 
L 15.464727 9.109805 
L 15.884857 9.102998 
L 16.181419 10.922784 
L 16.304987 6.136258 
L 16.428554 5.814317 
L 16.626262 4.202636 
L 16.74983 2.319256 
L 16.873397 2.319256 
L 17.046392 4.320781 
L 17.169959 4.374895 
L 17.2441 4.656852 
L 17.417095 5.656106 
L 17.491235 5.67446 
L 17.614802 5.837498 
L 17.985505 5.79941 
L 18.109072 6.166762 
L 18.356207 6.166762 
L 18.776337 6.651223 
L 18.974045 5.991057 
L 19.147039 5.991057 
L 19.270607 6.629594 
L 19.468315 6.629594 
L 19.591882 6.402099 
L 19.71545 6.337383 
L 19.764877 5.98692 
L 19.839018 5.998899 
L 20.086153 5.998899 
L 20.20972 12.711119 
L 20.333288 12.711119 
L 20.580423 10.039087 
L 20.753418 10.083811 
L 21.000552 10.446166 
L 21.12412 10.495111 
L 21.247687 11.259632 
L 21.371255 11.259632 
L 21.494823 10.380244 
L 21.816098 10.380244 
L 21.939666 6.722057 
L 22.359795 6.640452 
L 22.557503 6.970578 
L 22.730498 6.970578 
L 22.854065 7.209016 
L 22.977633 7.209016 
L 23.1012 7.83075 
L 23.224768 7.83075 
L 23.298908 8.137782 
L 23.348336 8.056952 
L 23.471903 8.056952 
L 23.59547 8.512804 
L 23.719038 10.183857 
L 23.842605 10.183857 
L 23.966173 9.40348 
L 24.089741 9.40348 
L 24.163881 9.890785 
L 24.287449 13.641866 
L 24.411016 13.641866 
L 24.584011 11.208618 
L 24.831146 10.94519 
L 24.954713 10.865394 
L 25.325416 10.237025 
L 25.523123 10.127328 
L 25.572551 10.127328 
L 25.646691 10.529925 
L 25.819686 12.088351 
L 25.943254 12.088351 
L 26.066821 11.42741 
L 26.190388 11.42741 
L 26.313956 11.858271 
L 26.437523 11.858271 
L 26.635231 9.725162 
L 26.882366 9.739897 
L 27.055361 10.620751 
L 27.178929 10.913737 
L 27.253069 10.913737 
L 27.426064 11.856375 
L 27.549631 11.549602 
L 27.747339 11.455933 
L 27.870907 10.472534 
L 28.043901 10.472534 
L 28.216896 10.610151 
L 28.464031 10.701494 
L 28.587598 10.960959 
L 28.785306 11.360626 
L 29.032441 11.472478 
L 29.279577 10.932177 
L 29.403144 10.821618 
L 29.897414 10.785081 
L 30.020982 10.463142 
L 30.638819 10.255294 
L 30.762387 9.868208 
L 30.885954 9.868208 
L 31.009521 9.545578 
L 31.256657 13.494856 
L 31.429651 18.633828 
L 31.553219 19.431869 
L 31.676786 19.431869 
L 31.923921 16.305021 
L 31.998062 16.305021 
L 32.121629 16.964842 
L 32.171057 16.964842 
L 32.245197 17.17493 
L 32.368764 16.592233 
L 32.492332 12.9898 
L 32.541759 12.9898 
L 32.863034 14.651977 
L 33.036029 18.552567 
L 33.11017 18.572645 
L 33.530299 21.785321 
L 33.604439 21.873389 
L 33.728007 22.126908 
L 33.851575 22.126908 
L 33.975142 21.765932 
L 34.024569 21.747491 
L 34.395272 19.162408 
L 34.518839 19.162408 
L 34.716547 19.728044 
L 34.765975 19.728044 
L 34.889542 19.839895 
L 35.013109 19.723735 
L 35.136677 17.952291 
L 35.210818 17.933161 
L 35.334385 17.805108 
L 35.457952 17.952291 
L 35.50738 18.565493 
L 35.754514 25.638773 
L 36.125217 25.741405 
L 36.248785 26.231727 
L 36.372352 26.231727 
L 36.619487 21.252777 
L 36.693628 21.252777 
L 36.743055 21.46433 
L 36.817195 22.416102 
L 36.99019 26.798223 
L 37.113757 26.798223 
L 37.5586 18.104644 
L 37.731595 12.982303 
L 37.929303 13.072697 
L 38.225865 14.94841 
L 38.423573 16.406015 
L 38.720135 17.806056 
L 39.041411 18.169014 
L 39.164978 18.094217 
L 39.288546 17.168468 
L 39.412113 17.044121 
L 39.585108 16.166025 
L 39.782816 13.622822 
L 39.832242 13.487962 
L 40.029951 6.206919 
L 40.153518 5.949953 
L 40.252373 5.539342 
L 40.326513 5.492205 
L 40.499507 4.932862 
L 40.746642 4.918385 
L 40.87021 4.655042 
L 40.94435 4.655042 
L 40.993778 4.84824 
L 41.240912 4.415828 
L 41.438621 4.415828 
L 41.735183 6.677678 
L 41.85875 6.694136 
L 41.982317 7.149988 
L 42.180026 9.175555 
L 42.229453 9.348847 
L 42.476588 20.002416 
L 42.797863 32.845623 
L 42.921431 34.057982 
L 43.044998 33.446245 
L 43.217993 34.320548 
L 43.415701 30.808251 
L 43.662836 21.775497 
L 43.786403 21.775497 
L 43.959398 13.730278 
L 44.577235 13.834461 
L 44.651376 14.307719 
L 44.947938 32.720416 
L 45.022078 32.720416 
L 45.071506 31.440325 
L 45.195073 26.615624 
L 45.31864 26.615624 
L 45.516349 33.643839 
L 45.639916 33.895634 
L 46.010619 34.032734 
L 46.060046 33.971206 
L 46.257754 28.234372 
L 46.430748 23.592009 
L 46.504889 23.323066 
L 46.677883 19.736316 
L 46.801451 19.736316 
L 46.925019 33.361451 
L 47.048586 33.361451 
L 47.172153 17.221032 
L 47.246294 17.221032 
L 47.369862 15.630119 
L 47.419289 15.630119 
L 47.542856 13.728641 
L 47.913558 13.807834 
L 48.037126 13.957515 
L 48.234834 14.583557 
L 48.654963 14.59002 
L 48.778532 14.325815 
L 48.852672 14.325815 
L 48.976239 14.46102 
L 49.025666 14.325815 
L 49.099807 14.46102 
L 49.149234 14.800883 
L 49.223375 14.696701 
L 49.346942 14.551242 
L 49.717644 15.366174 
L 49.841212 15.418739 
L 49.890639 15.677687 
L 50.261342 14.493162 
L 50.508476 14.385619 
L 50.582617 15.320589 
L 50.706185 34.029631 
L 50.953319 34.029631 
L 51.126314 33.705796 
L 51.200455 33.581018 
L 51.94186 28.203608 
L 52.114855 17.690844 
L 52.312562 14.060922 
L 52.361989 14.060922 
L 52.43613 14.183114 
L 52.559698 13.645916 
L 52.609124 13.645916 
L 52.905686 3.024661 
L 53.276389 4.625226 
L 53.35053 4.625226 
L 53.523524 5.695658 
L 53.647092 5.769077 
L 53.770659 5.695658 
L 54.091935 4.70011 
L 54.141361 4.626778 
L 54.215502 4.70011 
L 54.33907 4.963969 
L 54.388497 4.920538 
L 54.512064 4.626778 
L 54.709773 5.364584 
L 54.759199 4.754484 
L 54.956907 5.393968 
L 55.129902 5.393968 
L 55.253469 5.614829 
L 55.32761 5.614829 
L 55.500604 7.063644 
L 55.624172 10.725622 
L 55.82188 10.878837 
L 56.24201 10.283731 
L 56.563285 9.197787 
L 56.686853 8.384579 
L 56.81042 8.384579 
L 56.859847 8.531331 
L 56.983415 12.208475 
L 57.30469 12.208475 
L 57.477685 12.505511 
L 57.922528 12.876569 
L 58.046096 13.82817 
L 58.169663 13.941056 
L 58.836928 13.846439 
L 58.911068 13.773106 
L 59.084063 13.17576 
L 59.7019 13.23091 
L 59.949035 13.369561 
L 60.072602 13.356377 
L 60.319738 13.046587 
L 60.443305 13.116473 
L 60.517446 13.230996 
L 60.641014 13.736655 
L 60.69044 13.736655 
L 61.061143 14.360715 
L 61.308278 15.161945 
L 62.000256 15.098867 
L 62.049683 14.864737 
L 62.173251 9.254575 
L 62.296818 9.087745 
L 62.618094 9.122387 
L 62.865229 9.910605 
L 63.038223 9.910605 
L 63.285358 8.847066 
L 63.408926 8.820956 
L 63.853769 7.966471 
L 63.977337 8.400952 
L 64.150331 9.475263 
L 64.273899 13.84506 
L 64.397466 13.84506 
L 64.471606 12.483279 
L 64.595174 4.472184 
L 64.768169 4.472184 
L 65.015304 6.011998 
L 65.311866 4.587224 
L 65.435433 4.587224 
L 65.559 5.680923 
L 65.633141 5.680923 
L 65.929703 6.61055 
L 66.127412 7.619973 
L 66.423974 7.619973 
L 66.621681 7.388858 
L 66.671108 7.356802 
L 66.868817 6.931197 
L 66.918243 6.891472 
L 67.288946 6.178913 
L 67.363086 6.178913 
L 67.536081 6.841578 
L 68.648189 6.936971 
L 68.845897 7.022625 
L 69.018892 7.300618 
L 69.587302 7.5849 
L 69.760297 7.406782 
L 70.20514 6.934299 
L 70.995972 7.045117 
L 71.490241 7.233575 
L 71.860944 7.384807 
L 72.108079 7.263736 
L 72.552922 7.292259 
L 72.725917 7.010648 
L 72.973052 6.88768 
L 73.09662 6.88768 
L 73.294328 7.097682 
L 73.417895 7.285279 
L 73.541463 7.505104 
L 73.912165 7.394029 
L 73.961592 7.212205 
L 74.1593 6.210365 
L 74.455862 6.16547 
L 74.530002 6.056893 
L 74.702997 5.170352 
L 74.900705 4.773442 
L 75.271408 4.426685 
L 75.394976 4.123359 
L 75.691538 5.468422 
L 76.012813 5.92617 
L 76.06224 5.92617 
L 76.309375 5.248769 
L 76.55651 3.958855 
L 76.680077 3.557982 
L 76.754218 3.557982 
L 76.803645 4.13525 
L 76.877786 3.557982 
L 77.05078 4.653835 
L 77.174348 4.562321 
L 77.248488 4.44754 
L 77.297915 4.562321 
L 77.594477 4.658145 
L 77.668618 4.886931 
L 77.718045 4.708814 
L 77.96518 4.708814 
L 78.162888 5.841634 
L 78.410023 7.590157 
L 78.657158 8.295477 
L 78.780725 8.295477 
L 78.904293 8.460066 
L 78.95372 8.460066 
L 79.077288 8.983477 
L 79.769266 9.03811 
L 79.94226 8.739264 
L 80.807233 8.836036 
L 81.054368 8.821042 
L 81.252076 8.362347 
L 81.42507 8.043251 
L 81.672205 8.135972 
L 82.042908 8.513837 
L 82.117049 8.484453 
L 82.290043 8.728751 
L 82.487751 8.853873 
L 82.660746 8.860768 
L 82.784313 9.076974 
L 83.105589 9.076974 
L 83.723426 10.487787 
L 83.772854 10.460815 
L 84.143556 9.200287 
L 84.341264 8.73711 
L 84.514259 6.217259 
L 84.761393 5.876189 
L 84.884961 5.958743 
L 85.008529 6.269738 
L 85.206236 6.251642 
L 85.329804 6.073007 
L 85.379231 6.073007 
L 85.576939 6.278958 
L 85.824074 6.39486 
L 85.997069 6.281199 
L 86.565479 4.977585 
L 86.689047 4.935618 
L 86.985609 5.203959 
L 87.232744 6.223464 
L 87.430452 6.368147 
L 87.55402 6.668975 
L 87.850582 6.653205 
L 88.097716 6.054308 
L 88.418992 6.054308 
L 88.542559 5.655932 
L 88.715554 5.655932 
L 88.913262 5.857834 
L 89.03683 5.82216 
L 89.283965 5.726422 
L 89.580527 5.731592 
L 89.753521 6.232081 
L 90.000657 6.44148 
L 90.569067 6.22355 
L 90.692634 5.849475 
L 90.93977 5.862919 
L 91.063337 6.02251 
L 91.681175 5.952107 
L 92.224872 5.35097 
L 92.299013 5.424043 
L 92.42258 5.330892 
L 92.669715 5.572173 
L 92.719142 5.630167 
L 92.966277 6.466383 
L 93.040418 6.466383 
L 93.163985 6.223033 
L 93.213412 6.223033 
L 93.534688 4.474252 
L 93.658255 4.474252 
L 93.90539 12.797291 
L 93.954817 12.797291 
L 94.152525 11.804155 
L 94.201952 11.758742 
L 94.276093 11.506516 
L 94.39966 4.96354 
L 94.523228 4.96354 
L 94.696222 6.433983 
L 94.81979 6.725245 
L 95.437627 4.731476 
L 95.635336 4.780681 
L 95.684762 4.878057 
L 95.80833 5.399916 
L 96.006038 5.346316 
L 96.179032 5.179486 
L 96.3026 5.273242 
L 96.376741 5.346316 
L 96.426168 5.273242 
L 96.500308 5.183709 
L 96.623875 5.442485 
L 96.79687 4.963452 
L 97.044005 5.27893 
L 97.241713 6.960237 
L 97.488848 9.21011 
L 97.612416 9.21011 
L 97.859551 8.162341 
L 97.983118 7.630658 
L 98.106686 7.630658 
L 98.27968 9.79703 
L 98.600956 23.948677 
L 98.77395 34.163026 
L 99.218793 36.296651 
L 99.268221 36.296651 
L 99.713064 34.602936 
L 99.762491 33.292944 
L 100.133193 14.499625 
L 100.380328 14.499625 
L 100.578036 14.964869 
L 100.701604 21.230889 
L 100.874598 34.10374 
L 101.121734 34.072717 
L 101.195874 33.959918 
L 101.368868 29.821837 
L 101.492436 29.65225 
L 101.616003 29.65225 
L 101.813711 31.426624 
L 101.937279 31.426624 
L 102.406835 15.691646 
L 102.480976 15.702159 
L 102.653971 16.031769 
L 102.777538 16.295801 
L 102.901106 24.431501 
L 103.098814 32.769792 
L 103.271808 32.769792 
L 103.395376 31.400255 
L 103.469516 31.34071 
L 103.840219 29.561081 
L 104.383916 8.70807 
L 104.705191 7.969142 
L 104.754619 7.969142 
L 104.878186 8.209908 
L 105.075894 9.282408 
L 105.248889 9.216228 
L 105.496024 8.426115 
L 105.570164 8.357779 
L 105.866726 7.217979 
L 105.940867 7.217979 
L 106.360996 14.304962 
L 106.435137 14.304962 
L 106.855266 5.697984 
L 107.225969 5.02093 
L 107.349537 5.659896 
L 107.473104 5.768474 
L 107.596671 6.006137 
L 107.79438 6.835804 
L 107.967374 7.096992 
L 108.090942 7.634966 
L 108.214509 8.588808 
L 108.338076 8.588808 
L 108.461644 8.08582 
L 108.708779 8.08582 
L 108.906487 7.559049 
L 109.079481 6.71861 
L 109.27719 6.71861 
L 109.400757 7.358784 
L 109.524325 7.358784 
L 109.697319 5.842496 
L 109.77146 5.842496 
L 109.944455 5.521073 
L 110.018595 5.521073 
L 110.142162 5.006108 
L 110.26573 5.006108 
L 110.562292 6.225015 
L 110.932994 10.164124 
L 111.130703 10.905292 
L 111.377837 10.905292 
L 111.427265 11.124945 
L 111.550832 10.8666 
L 111.624973 10.839628 
L 111.797967 5.296594 
L 112.539373 5.074357 
L 112.786507 4.752761 
L 113.033642 4.184627 
L 113.15721 4.184627 
L 113.280778 5.035579 
L 113.404345 5.035579 
L 113.602053 4.40092 
L 113.65148 4.154036 
L 113.775048 4.407986 
L 113.898615 4.407986 
L 114.022183 4.251841 
L 114.392885 5.12649 
L 114.516453 5.460668 
L 114.64002 5.564418 
L 114.689447 5.573639 
L 114.813015 6.257761 
L 114.887155 6.261121 
L 115.06015 6.82486 
L 115.307285 6.855192 
L 115.430853 7.21367 
L 115.55442 6.869928 
L 115.677987 7.711832 
L 115.801555 14.716176 
L 116.04869 14.754695 
L 116.419392 8.990284 
L 116.617101 8.52504 
L 116.740668 5.218178 
L 116.864235 3.304636 
L 117.03723 3.321267 
L 117.284365 7.005994 
L 117.5315 7.097078 
L 117.976343 5.676356 
L 118.025771 5.676356 
L 118.223478 6.078436 
L 118.470614 6.362546 
L 118.643608 6.765229 
L 119.088451 6.720075 
L 119.508581 22.768633 
L 119.632148 23.685076 
L 119.953424 23.685076 
L 120.076991 24.166089 
L 120.200558 22.294513 
L 120.249986 22.294513 
L 120.324126 21.870459 
L 120.373553 20.626993 
L 120.620688 7.039774 
L 120.744256 6.378402 
L 120.867823 6.665269 
L 121.065532 6.665269 
L 121.189099 9.684403 
L 121.362094 13.454527 
L 121.436234 13.593264 
L 121.609228 16.923393 
L 121.732796 17.11573 
L 121.856363 18.266389 
L 121.979931 18.266389 
L 122.054071 18.402455 
L 122.103499 18.933449 
L 122.177639 18.921298 
L 122.548342 18.921298 
L 122.795476 18.142301 
L 122.919044 18.096199 
L 122.968471 18.142301 
L 123.289747 19.11622 
L 123.339174 19.11622 
L 123.536881 18.027261 
L 124.154719 18.107315 
L 124.327714 18.870629 
L 124.525422 18.870629 
L 124.698417 18.020539 
L 124.896124 18.020539 
L 125.069119 18.449936 
L 125.439822 29.549705 
L 125.513962 29.549705 
L 125.563389 29.181233 
L 125.761097 25.930811 
L 125.810524 25.876954 
L 126.008232 17.175017 
L 126.131799 16.82981 
L 126.181227 16.82981 
L 126.551929 18.109469 
L 126.675497 16.314069 
L 126.922632 7.147317 
L 126.972059 6.99617 
L 127.095626 6.001139 
L 127.219194 6.001139 
L 127.342761 6.291454 
L 127.466329 6.291454 
L 127.787604 5.517109 
L 127.837031 5.517109 
L 127.960599 13.63411 
L 128.084166 14.150369 
L 128.207734 16.332768 
L 128.405442 16.386885 
L 128.578436 16.673925 
L 128.652577 16.827225 
L 128.899712 24.406769 
L 138.414412 14.701096 
L 138.587406 15.345923 
L 139.032249 26.601578 
L 139.378238 26.779782 
L 139.452379 26.779782 
L 139.748941 28.652048 
L 140.070216 24.276563 
L 140.193784 24.297416 
L 140.243211 24.983261 
L 140.490346 34.466525 
L 140.73748 37.311245 
L 140.811621 37.311245 
L 140.935189 37.46601 
L 140.984616 37.370964 
L 141.182324 36.168773 
L 141.355318 22.377497 
L 141.553026 22.377497 
L 141.726021 35.617097 
L 141.849588 35.617097 
L 141.973156 33.92295 
L 142.170864 33.996972 
L 142.590993 37.217748 
L 142.714561 37.207062 
L 142.788702 37.029893 
L 142.961696 35.036296 
L 143.159404 34.950814 
L 143.208831 34.950814 
L 143.406539 36.034344 
L 143.530107 36.272954 
L 143.579534 36.272954 
L 144.073804 37.226538 
L 144.147944 37.156307 
L 144.271512 37.226538 
L 144.395079 36.134648 
L 144.518647 36.140164 
L 144.568074 36.339824 
L 144.691641 37.167682 
L 144.765782 37.279704 
L 144.938777 38.901726 
L 145.136484 38.901726 
L 145.260052 37.410687 
L 145.309479 37.410687 
L 145.433047 34.233256 
L 145.556614 25.428256 
L 145.630754 25.428256 
L 145.803749 36.874782 
L 145.87789 36.874782 
L 146.050884 37.297372 
L 146.372159 37.232741 
L 146.619295 34.875067 
L 146.668721 34.515729 
L 146.792289 31.640762 
L 146.989997 31.640762 
L 147.607835 40.181126 
L 147.780829 39.869874 
L 147.85497 39.869874 
L 147.978538 40.200429 
L 148.102105 38.901814 
L 148.151532 38.901814 
L 148.34924 37.559766 
L 148.472808 37.422062 
L 148.522234 37.422062 
L 148.596375 36.950355 
L 148.719943 35.751698 
L 148.84351 35.751698 
L 148.967077 38.836324 
L 149.090645 38.836324 
L 149.140072 38.592973 
L 149.387207 32.329795 
L 149.510775 32.329795 
L 149.634342 27.967927 
L 149.75791 27.967927 
L 149.832051 28.682122 
L 149.955618 30.770336 
L 150.079185 30.770336 
L 150.32632 15.096023 
L 150.449888 13.617134 
L 150.499315 13.617134 
L 150.944158 14.522288 
L 150.993585 14.297551 
L 151.117152 7.824028 
L 151.24072 7.824028 
L 151.314861 11.398801 
L 151.438428 24.627973 
L 151.537282 24.627973 
L 151.66085 24.962235 
L 151.73499 24.962235 
L 151.784417 26.013796 
L 151.907985 32.05439 
L 151.982125 32.05439 
L 152.105693 32.940155 
L 152.155119 32.940155 
L 152.352828 25.491505 
L 152.476395 25.388529 
L 152.599963 22.223077 
L 152.772957 22.292273 
L 152.970665 35.436996 
L 153.094233 38.072407 
L 153.341368 38.870446 
L 153.464936 38.870446 
L 153.514362 38.644073 
L 153.885065 25.260478 
L 154.008632 30.18152 
L 154.082773 30.657191 
L 154.206341 32.853809 
L 154.379335 33.527332 
L 154.502903 34.538823 
L 154.62647 34.538823 
L 154.700611 32.851914 
L 154.873605 19.381545 
L 154.947746 19.186795 
L 155.071313 13.296573 
L 155.19488 13.296573 
L 155.244308 13.506317 
L 155.565583 34.927116 
L 155.689151 35.380898 
L 155.738578 34.927116 
L 155.862145 29.907148 
L 155.936286 29.907148 
L 155.985713 28.397322 
L 156.183421 13.247024 
L 156.430556 13.256159 
L 156.479983 14.181649 
L 156.677691 35.291108 
L 156.850685 35.640104 
L 156.974253 35.640104 
L 157.097821 34.691434 
L 157.419096 34.691434 
L 158.036934 29.449659 
L 158.284069 14.618112 
L 158.407636 14.618112 
L 158.531204 15.549031 
L 158.654772 34.876791 
L 158.827766 38.21821 
L 159.149041 40.101419 
L 159.322036 40.14485 
L 159.396177 40.14485 
L 159.445603 39.050115 
L 159.643311 26.073944 
L 159.692739 25.951752 
L 159.939873 23.30497 
L 160.137582 15.124633 
L 160.310576 14.062214 
L 160.384716 13.998016 
L 160.434144 13.396533 
L 160.557711 10.346637 
L 160.681278 10.346637 
L 160.804846 11.479113 
L 160.928414 11.479113 
L 161.175549 3.597018 
L 161.373257 3.597018 
L 161.620392 5.13709 
L 161.793386 5.13709 
L 162.040521 4.560683 
L 162.238229 5.540634 
L 162.411224 5.85861 
L 162.534791 5.912641 
L 162.7325 6.719558 
L 162.856067 6.885784 
L 162.905494 7.53492 
L 163.152629 17.476964 
L 163.523332 20.018789 
L 163.597472 20.476708 
L 163.894034 26.003714 
L 163.943461 26.003714 
L 164.067029 25.174046 
L 164.264737 19.000663 
L 164.388304 18.734046 
L 164.511872 18.734046 
L 165.006142 27.602728 
L 165.055569 27.602728 
L 165.253277 24.720178 
L 165.376844 24.634091 
L 165.549839 24.464418 
L 165.747547 24.557571 
L 165.796974 24.494578 
L 165.920542 25.026348 
L 165.994682 25.026348 
L 166.11825 25.199381 
L 166.167676 25.199381 
L 166.661947 28.920131 
L 166.785514 28.920131 
L 167.032649 25.385083 
L 167.156217 25.385083 
L 167.279784 25.643773 
L 167.403352 25.643773 
L 167.650487 22.487367 
L 167.724627 22.462118 
L 167.848195 21.463812 
L 167.897622 21.463812 
L 168.09533 20.329957 
L 168.268324 18.085082 
L 168.391892 18.085082 
L 168.51546 18.535074 
L 168.639027 20.924115 
L 168.886162 20.924115 
L 169.133297 18.643479 
L 169.256865 18.643479 
L 169.503999 23.249475 
L 169.874702 29.390803 
L 169.99827 29.325743 
L 170.245405 23.628202 
L 170.49254 23.625444 
L 170.56668 23.861987 
L 170.813816 28.659546 
L 170.937383 28.659546 
L 171.06095 27.774986 
L 171.110378 27.774986 
L 171.308085 20.828119 
L 171.357512 20.828119 
L 171.678788 25.084686 
L 171.925923 25.084686 
L 171.97535 24.24959 
L 172.173058 18.727411 
L 172.420193 18.356784 
L 172.54376 18.356784 
L 172.914463 22.815942 
L 173.161598 27.866932 
L 173.334593 27.866932 
L 173.705296 23.3241 
L 173.95243 23.946006 
L 174.199565 26.932997 
L 174.323133 26.932997 
L 174.446701 25.068141 
L 174.891544 17.591056 
L 175.138678 17.569341 
L 175.188106 17.709457 
L 175.311673 22.229022 
L 175.558808 31.546662 
L 175.756516 31.960548 
L 175.929511 31.865586 
L 176.176646 31.819743 
L 176.670916 32.0481 
L 176.84391 31.750201 
L 177.214613 31.69574 
L 177.412321 29.056024 
L 177.585315 24.870117 
L 177.906591 24.488891 
L 178.450288 24.558087 
L 178.647996 24.600571 
L 179.142266 24.305775 
L 179.315261 24.384795 
L 179.562396 25.563373 
L 179.883671 30.738883 
L 180.130807 31.06358 
L 180.303801 30.889427 
L 180.501509 29.66104 
L 180.625076 28.696858 
L 180.798071 27.111288 
L 181.045206 26.189933 
L 181.168774 26.189933 
L 181.242914 26.303679 
L 181.292341 26.851564 
L 181.490049 30.529399 
L 181.737184 30.554561 
L 181.984319 29.72024 
L 182.157314 27.269673 
L 182.231455 27.136277 
L 182.404449 26.326601 
L 182.602157 26.326601 
L 182.725724 26.572537 
L 182.849292 26.572537 
L 182.97286 25.517271 
L 183.096427 24.246574 
L 183.219994 21.049152 
L 183.343562 21.049152 
L 183.837832 25.878505 
L 183.887259 25.878505 
L 183.961399 24.909843 
L 184.134394 20.722731 
L 184.332102 20.382695 
L 184.505097 19.838344 
L 184.702805 19.831623 
L 184.875799 17.835527 
L 184.999367 17.835527 
L 185.370069 18.948098 
L 185.617204 21.611339 
L 185.691345 21.699752 
L 185.814912 23.368134 
L 185.93848 23.459046 
L 185.987907 23.572965 
L 186.062048 23.528931 
L 186.235042 23.572965 
L 186.35861 24.446839 
L 186.482177 24.446839 
L 186.679885 20.150719 
L 186.852879 20.110476 
L 186.92702 20.110476 
L 187.100015 23.459821 
L 187.223582 23.459821 
L 187.470717 20.991761 
L 187.91556 17.675419 
L 188.088555 17.626128 
L 188.33569 17.604327 
L 188.879387 16.443241 
L 189.002954 16.642558 
L 189.126522 17.900071 
L 189.25009 19.602146 
L 189.8185 20.331163 
L 189.867927 20.199578 
L 190.065635 18.508705 
L 190.189203 18.249844 
L 190.312771 18.277591 
L 190.362197 18.508705 
L 190.436338 18.43477 
L 190.485765 18.277591 
L 190.7329 18.603409 
L 191.103602 22.945718 
L 191.177743 22.599994 
L 191.350738 23.603384 
L 191.424878 23.534877 
L 191.548445 21.978691 
L 191.845008 17.698169 
L 191.919148 17.698169 
L 192.092143 18.194004 
L 192.21571 18.194004 
L 192.462845 17.618029 
L 192.78412 17.692223 
L 193.204251 27.391778 
L 193.327818 28.843351 
L 193.525526 28.843351 
L 193.649094 26.965138 
L 193.822088 27.017962 
L 193.945656 27.818073 
L 194.19279 32.195109 
L 194.439925 32.613304 
L 194.563493 33.363951 
L 194.687061 33.363951 
L 194.884769 32.346426 
L 194.934195 32.310752 
L 195.057763 31.127779 
L 195.255471 22.067449 
L 195.379038 21.426328 
L 195.552033 19.618174 
L 195.996876 17.182514 
L 196.169871 16.716839 
L 196.540574 18.497761 
L 196.861849 28.090205 
L 196.985417 28.376039 
L 197.108984 28.376039 
L 197.356119 27.195219 
L 197.529113 27.195219 
L 197.726822 27.986626 
L 197.973956 28.052547 
L 198.023384 28.43903 
L 198.221092 32.597619 
L 198.344659 32.597619 
L 198.591794 25.392753 
L 198.764789 18.632535 
L 198.83893 18.632535 
L 198.962497 18.448816 
L 199.209632 19.660743 
L 199.259059 20.090139 
L 199.382626 23.241116 
L 199.456767 23.401052 
L 199.629761 24.7082 
L 199.876897 26.579431 
L 199.951037 26.579431 
L 200.000464 26.005696 
L 200.371167 17.146407 
L 200.494734 17.146407 
L 200.741869 18.684238 
L 200.865436 18.684238 
L 200.989004 18.260012 
L 201.285566 18.336792 
L 201.532701 19.433937 
L 201.853977 26.714463 
L 201.977544 26.714463 
L 202.101112 27.032871 
L 202.224679 27.048899 
L 202.348247 27.322668 
L 202.471815 27.353776 
L 202.595382 27.529568 
L 202.768377 27.478984 
L 202.891944 25.245053 
L 203.015511 25.245053 
L 203.139079 27.122318 
L 203.509782 27.182897 
L 203.70749 27.865813 
L 203.954625 27.854351 
L 204.127619 27.528792 
L 204.572462 27.338178 
L 204.819597 27.606951 
L 205.066733 27.512333 
L 205.363295 26.997454 
L 205.610429 25.776391 
L 205.733997 24.130069 
L 206.055272 24.187374 
L 206.17884 25.235144 
L 206.302408 25.235144 
L 206.425975 20.747893 
L 206.59897 20.851558 
L 206.969672 23.887323 
L 207.043813 24.196766 
L 207.093239 23.962637 
L 207.290948 23.887323 
L 207.414515 23.105308 
L 207.58751 23.023531 
L 207.785218 23.037319 
L 207.958213 23.434918 
L 208.032353 23.446982 
L 208.15592 23.858196 
L 208.57605 23.910416 
L 208.823185 23.276619 
L 209.07032 24.353601 
L 209.144461 24.353601 
L 209.193888 24.117574 
L 209.441023 21.038638 
L 209.441023 21.038638 
" clip-path="url(#p10bca95000)" style="fill: none; stroke: #5c80b5; stroke-width: 0.5; stroke-linecap: square"/>
   </g>
  </g>
 </g>
 <defs>
  <clipPath id="p10bca95000">
   <rect x="2.125984" y="0.425197" width="208.346457" height="41.669291"/>
  </clipPath>
 </defs>
</svg>
