<?xml version="1.0" encoding="utf-8" standalone="no"?>
<!DOCTYPE svg PUBLIC "-//W3C//DTD SVG 1.1//EN"
  "http://www.w3.org/Graphics/SVG/1.1/DTD/svg11.dtd">
<svg xmlns:xlink="http://www.w3.org/1999/xlink" width="212.598425pt" height="42.519685pt" viewBox="0 0 212.598425 42.519685" xmlns="http://www.w3.org/2000/svg" version="1.1">
 <metadata>
  <rdf:RDF xmlns:dc="http://purl.org/dc/elements/1.1/" xmlns:cc="http://creativecommons.org/ns#" xmlns:rdf="http://www.w3.org/1999/02/22-rdf-syntax-ns#">
   <cc:Work>
    <dc:type rdf:resource="http://purl.org/dc/dcmitype/StillImage"/>
    <dc:date>2026-06-01T17:59:33.835188</dc:date>
    <dc:format>image/svg+xml</dc:format>
    <dc:creator>
     <cc:Agent>
      <dc:title>Matplotlib v3.10.8, https://matplotlib.org/</dc:title>
     </cc:Agent>
    </dc:creator>
   </cc:Work>
  </rdf:RDF>
 </metadata>
 <defs>
  <style type="text/css">*{stroke-linejoin: round; stroke-linecap: butt}</style>
 </defs>
 <g id="figure_1">
  <g id="patch_1">
   <path d="M 0 42.519685 
L 212.598425 42.519685 
L 212.598425 0 
L 0 0 
z
" style="fill: #ffffff"/>
  </g>
  <g id="axes_1">
   <g id="patch_2">
    <path d="M 2.125984 42.094488 
L 210.472441 42.094488 
L 210.472441 0.425197 
L 2.125984 0.425197 
z
" style="fill: #eaeaf2"/>
   </g>
   <g id="matplotlib.axis_1">
    <g id="xtick_1">
     <g id="line2d_1">
      <path d="M 3.157402 42.094488 
L 3.157402 0.425197 
" clip-path="url(#pfcf2072dff)" style="fill: none; stroke: #ffffff; stroke-width: 0.9; stroke-linecap: square"/>
     </g>
    </g>
    <g id="xtick_2">
     <g id="line2d_2">
      <path d="M 47.59727 42.094488 
L 47.59727 0.425197 
" clip-path="url(#pfcf2072dff)" style="fill: none; stroke: #ffffff; stroke-width: 0.9; stroke-linecap: square"/>
     </g>
    </g>
    <g id="xtick_3">
     <g id="line2d_3">
      <path d="M 92.037138 42.094488 
L 92.037138 0.425197 
" clip-path="url(#pfcf2072dff)" style="fill: none; stroke: #ffffff; stroke-width: 0.9; stroke-linecap: square"/>
     </g>
    </g>
    <g id="xtick_4">
     <g id="line2d_4">
      <path d="M 136.477006 42.094488 
L 136.477006 0.425197 
" clip-path="url(#pfcf2072dff)" style="fill: none; stroke: #ffffff; stroke-width: 0.9; stroke-linecap: square"/>
     </g>
    </g>
    <g id="xtick_5">
     <g id="line2d_5">
      <path d="M 180.916874 42.094488 
L 180.916874 0.425197 
" clip-path="url(#pfcf2072dff)" style="fill: none; stroke: #ffffff; stroke-width: 0.9; stroke-linecap: square"/>
     </g>
    </g>
    <g id="xtick_6">
     <g id="line2d_6">
      <path d="M 25.377336 42.094488 
L 25.377336 0.425197 
" clip-path="url(#pfcf2072dff)" style="fill: none; stroke: #ffffff; stroke-opacity: 0.9; stroke-width: 0.55; stroke-linecap: square"/>
     </g>
    </g>
    <g id="xtick_7">
     <g id="line2d_7">
      <path d="M 69.817204 42.094488 
L 69.817204 0.425197 
" clip-path="url(#pfcf2072dff)" style="fill: none; stroke: #ffffff; stroke-opacity: 0.9; stroke-width: 0.55; stroke-linecap: square"/>
     </g>
    </g>
    <g id="xtick_8">
     <g id="line2d_8">
      <path d="M 114.257072 42.094488 
L 114.257072 0.425197 
" clip-path="url(#pfcf2072dff)" style="fill: none; stroke: #ffffff; stroke-opacity: 0.9; stroke-width: 0.55; stroke-linecap: square"/>
     </g>
    </g>
    <g id="xtick_9">
     <g id="line2d_9">
      <path d="M 158.69694 42.094488 
L 158.69694 0.425197 
" clip-path="url(#pfcf2072dff)" style="fill: none; stroke: #ffffff; stroke-opacity: 0.9; stroke-width: 0.55; stroke-linecap: square"/>
     </g>
    </g>
    <g id="xtick_10">
     <g id="line2d_10">
      <path d="M 203.136808 42.094488 
L 203.136808 0.425197 
" clip-path="url(#pfcf2072dff)" style="fill: none; stroke: #ffffff; stroke-opacity: 0.9; stroke-width: 0.55; stroke-linecap: square"/>
     </g>
    </g>
   </g>
   <g id="matplotlib.axis_2">
    <g id="ytick_1">
     <g id="line2d_11">
      <path d="M 2.125984 37.581899 
L 210.472441 37.581899 
" clip-path="url(#pfcf2072dff)" style="fill: none; stroke: #ffffff; stroke-width: 0.9; stroke-linecap: square"/>
     </g>
    </g>
    <g id="ytick_2">
     <g id="line2d_12">
      <path d="M 2.125984 26.609806 
L 210.472441 26.609806 
" clip-path="url(#pfcf2072dff)" style="fill: none; stroke: #ffffff; stroke-width: 0.9; stroke-linecap: square"/>
     </g>
    </g>
    <g id="ytick_3">
     <g id="line2d_13">
      <path d="M 2.125984 15.637712 
L 210.472441 15.637712 
" clip-path="url(#pfcf2072dff)" style="fill: none; stroke: #ffffff; stroke-width: 0.9; stroke-linecap: square"/>
     </g>
    </g>
    <g id="ytick_4">
     <g id="line2d_14">
      <path d="M 2.125984 4.665618 
L 210.472441 4.665618 
" clip-path="url(#pfcf2072dff)" style="fill: none; stroke: #ffffff; stroke-width: 0.9; stroke-linecap: square"/>
     </g>
    </g>
    <g id="ytick_5">
     <g id="line2d_15">
      <path d="M 2.125984 32.095852 
L 210.472441 32.095852 
" clip-path="url(#pfcf2072dff)" style="fill: none; stroke: #ffffff; stroke-opacity: 0.9; stroke-width: 0.55; stroke-linecap: square"/>
     </g>
    </g>
    <g id="ytick_6">
     <g id="line2d_16">
      <path d="M 2.125984 21.123759 
L 210.472441 21.123759 
" clip-path="url(#pfcf2072dff)" style="fill: none; stroke: #ffffff; stroke-opacity: 0.9; stroke-width: 0.55; stroke-linecap: square"/>
     </g>
    </g>
    <g id="ytick_7">
     <g id="line2d_17">
      <path d="M 2.125984 10.151665 
L 210.472441 10.151665 
" clip-path="url(#pfcf2072dff)" style="fill: none; stroke: #ffffff; stroke-opacity: 0.9; stroke-width: 0.55; stroke-linecap: square"/>
     </g>
    </g>
   </g>
   <g id="line2d_18">
    <path d="M 3.157402 6.824409 
L 3.231543 6.786131 
L 3.404538 6.33639 
L 3.528105 5.985365 
L 3.602245 5.49968 
L 3.77524 3.072597 
L 3.898807 2.843729 
L 4.096515 2.567222 
L 4.26951 2.639594 
L 4.467218 3.505759 
L 4.640213 4.465701 
L 4.83792 4.546283 
L 4.961488 3.979158 
L 5.134482 3.979158 
L 5.25805 3.506027 
L 5.381618 3.506027 
L 5.505185 4.054428 
L 5.999456 4.054428 
L 6.197163 4.182489 
L 6.320731 4.182489 
L 6.444299 2.849309 
L 6.617293 2.849309 
L 6.864428 4.020898 
L 6.938569 4.140963 
L 6.987995 4.020898 
L 7.062136 4.020898 
L 7.111563 3.80276 
L 7.235131 4.140963 
L 7.358698 3.477486 
L 7.556406 3.723413 
L 7.803541 3.760001 
L 7.976536 4.252124 
L 8.297811 4.302554 
L 8.470806 3.77953 
L 8.668514 3.653616 
L 9.335779 3.653616 
L 9.459346 3.431831 
L 9.780622 3.484299 
L 10.077184 4.459532 
L 10.200751 4.459532 
L 10.324318 4.248047 
L 10.522027 4.248047 
L 10.645594 4.694622 
L 10.769161 4.694622 
L 10.892729 4.405399 
L 11.930697 4.405399 
L 12.177831 4.17825 
L 13.364079 4.249173 
L 13.413507 4.371708 
L 13.611215 7.644247 
L 13.734782 8.016733 
L 13.85835 8.016733 
L 14.35262 13.355298 
L 14.525615 13.273858 
L 14.723322 13.273858 
L 14.84689 13.456426 
L 14.970458 13.456426 
L 15.26702 12.570465 
L 15.687149 12.553029 
L 15.76129 12.214128 
L 15.934284 9.887529 
L 16.057852 9.702011 
L 16.181419 8.517118 
L 16.304987 2.396511 
L 19.71545 2.396511 
L 19.839018 3.10763 
L 19.888445 3.10763 
L 20.086153 3.998258 
L 20.20972 9.678995 
L 20.456856 10.067736 
L 20.753418 13.594626 
L 20.876985 13.519786 
L 21.074693 13.382122 
L 21.12412 13.382122 
L 21.247687 13.852785 
L 21.445395 13.801872 
L 21.61839 12.922082 
L 21.816098 10.475898 
L 21.939666 3.795089 
L 22.483362 2.588038 
L 22.60693 2.588038 
L 22.730498 2.918516 
L 23.546043 2.817173 
L 23.719038 3.487304 
L 23.793179 3.487304 
L 23.966173 3.806462 
L 24.040313 3.806462 
L 24.163881 5.004499 
L 24.287449 8.775492 
L 24.411016 8.775492 
L 24.707578 7.213285 
L 25.07828 6.791442 
L 25.696118 6.521963 
L 25.943254 6.971488 
L 26.017394 7.008023 
L 26.561091 12.207797 
L 26.635231 12.207797 
L 26.684659 12.030648 
L 26.808226 11.259765 
L 27.005934 11.259765 
L 27.253069 13.122461 
L 27.426064 14.46814 
L 27.500204 14.372484 
L 27.673198 14.351185 
L 27.870907 13.58631 
L 27.96976 13.58631 
L 28.216896 14.860315 
L 28.464031 14.844596 
L 28.711166 14.489385 
L 28.785306 14.489385 
L 29.081868 15.005435 
L 29.329003 15.08784 
L 29.452571 15.249592 
L 29.650279 15.119171 
L 29.946841 14.835583 
L 30.144549 14.547111 
L 30.441111 13.838944 
L 30.564678 13.602352 
L 30.688246 12.082527 
L 30.811814 10.735238 
L 30.935381 10.735238 
L 31.182516 15.547076 
L 31.429651 23.122324 
L 31.676786 23.124309 
L 31.874495 21.078295 
L 31.998062 21.078295 
L 32.121629 22.689109 
L 32.294624 22.664216 
L 32.6159 12.222819 
L 32.739467 12.222819 
L 32.986602 15.60829 
L 33.159596 15.752767 
L 33.283164 16.135499 
L 33.530299 17.0985 
L 33.851575 17.602855 
L 34.148137 16.176755 
L 34.345845 14.636545 
L 34.518839 14.646362 
L 34.765975 14.925123 
L 35.013109 14.925123 
L 35.210818 13.470536 
L 35.383812 13.478369 
L 35.50738 16.967006 
L 35.754514 27.795587 
L 35.878082 28.21979 
L 36.00165 28.21979 
L 36.125217 28.379451 
L 36.446493 26.767564 
L 36.57006 25.30053 
L 36.743055 25.30053 
L 36.817195 25.748929 
L 37.06433 28.885737 
L 37.187898 28.885737 
L 37.48446 22.487978 
L 37.731595 11.050051 
L 37.855162 11.050051 
L 38.423573 13.561364 
L 38.473 13.57719 
L 38.670708 14.90141 
L 38.794275 15.015253 
L 38.917843 14.672811 
L 39.090837 13.897046 
L 39.337973 13.339632 
L 39.53568 12.937747 
L 39.782816 10.546501 
L 39.832242 10.275358 
L 40.029951 5.639436 
L 40.202945 4.942481 
L 40.37594 4.307223 
L 40.573648 4.307223 
L 40.746642 5.075531 
L 40.820783 5.075531 
L 40.87021 4.942374 
L 40.94435 5.075531 
L 41.117345 6.71188 
L 41.315053 6.71188 
L 41.735183 5.679029 
L 41.809323 5.737506 
L 41.982317 6.027747 
L 42.303593 14.973139 
L 42.723722 32.279361 
L 42.970858 34.294902 
L 43.044998 33.956591 
L 43.094425 34.106272 
L 43.217993 34.294902 
L 43.34156 33.771342 
L 43.465128 30.400893 
L 43.539268 30.400893 
L 43.662836 28.966156 
L 44.033539 12.175286 
L 44.280673 12.22974 
L 44.404241 12.422126 
L 44.577235 12.45276 
L 44.700803 19.888519 
L 44.898511 33.17133 
L 45.022078 33.17133 
L 45.269214 29.371689 
L 45.31864 29.371689 
L 45.565776 34.530798 
L 45.936478 34.886759 
L 46.010619 34.442275 
L 46.134186 30.219397 
L 46.257754 27.166123 
L 46.801451 27.166123 
L 46.999159 34.663686 
L 47.122726 34.663686 
L 47.172153 34.005413 
L 47.295721 18.644291 
L 50.582617 18.644291 
L 50.755612 34.516848 
L 50.879179 34.516848 
L 51.076887 33.689471 
L 51.324022 33.314144 
L 51.44759 33.155182 
L 51.818293 32.592618 
L 51.867719 32.592618 
L 51.94186 31.875222 
L 51.991287 29.166695 
L 52.188995 12.49482 
L 52.559698 12.503243 
L 52.609124 11.88601 
L 52.85626 2.89153 
L 52.979827 2.319256 
L 55.451178 2.319256 
L 55.624172 6.535053 
L 55.994874 6.429364 
L 56.24201 6.286497 
L 56.563285 5.857251 
L 56.686853 5.857251 
L 56.81042 5.990301 
L 56.859847 6.796914 
L 56.983415 10.731107 
L 57.23055 10.939909 
L 57.848387 10.913353 
L 57.922528 11.141952 
L 58.095522 11.980916 
L 58.342658 11.980916 
L 58.540365 11.448503 
L 58.911068 11.266954 
L 59.084063 11.028806 
L 60.443305 11.017915 
L 60.69044 11.594428 
L 60.764581 11.604514 
L 60.937576 11.9057 
L 61.308278 12.273679 
L 62.049683 12.337575 
L 62.247391 6.391327 
L 62.494526 6.22303 
L 62.66752 6.323944 
L 62.914656 6.427004 
L 63.161791 6.408763 
L 63.285358 6.408763 
L 63.408926 6.81038 
L 63.730201 6.738169 
L 63.977337 6.116644 
L 64.100904 6.116644 
L 64.150331 6.353075 
L 64.273899 10.425307 
L 64.397466 10.425307 
L 64.471606 8.691745 
L 64.644601 2.374461 
L 76.06224 2.374461 
L 76.185808 3.518044 
L 76.680077 3.518044 
L 76.927213 7.010437 
L 77.001353 7.010437 
L 77.174348 3.952923 
L 77.248488 3.952923 
L 77.421482 2.972434 
L 77.54505 3.745892 
L 77.718045 3.746321 
L 78.45945 4.698539 
L 78.53359 4.635662 
L 78.780725 3.992946 
L 79.44799 3.993804 
L 79.571557 4.269722 
L 81.004941 4.332867 
L 81.177936 3.930766 
L 81.375643 3.827064 
L 81.548638 3.781784 
L 81.622779 3.781784 
L 81.795773 4.047346 
L 82.166475 4.047346 
L 82.413611 4.358833 
L 82.537178 4.390432 
L 82.858454 4.467955 
L 82.982021 4.467955 
L 83.525718 4.430348 
L 83.599859 4.450787 
L 83.723426 4.592958 
L 83.772854 4.585929 
L 83.970561 4.445368 
L 84.267123 4.29177 
L 84.464831 4.168057 
L 85.082669 4.168057 
L 85.206236 3.632048 
L 88.171857 3.632048 
L 88.418992 4.073848 
L 90.569067 4.073848 
L 90.692634 3.561715 
L 90.93977 3.561715 
L 91.112764 3.859682 
L 93.213412 3.923524 
L 93.41112 2.976832 
L 93.534688 2.800864 
L 93.658255 2.976832 
L 93.83125 7.963352 
L 93.90539 7.963352 
L 94.028957 8.177144 
L 94.201952 8.177144 
L 94.325519 8.030307 
L 94.449087 3.20452 
L 94.523228 3.20452 
L 94.646795 3.04325 
L 94.89393 3.813759 
L 95.066925 2.427466 
L 95.264633 2.361103 
L 95.437627 2.604401 
L 95.635336 3.037027 
L 95.80833 2.941424 
L 96.055465 2.923345 
L 96.129605 3.276408 
L 96.179032 3.265947 
L 96.673303 3.353932 
L 96.79687 4.92703 
L 97.118146 4.945485 
L 97.29114 4.65519 
L 97.735983 4.666671 
L 97.859551 3.830604 
L 98.032545 3.830604 
L 98.230254 9.860705 
L 98.77395 33.313983 
L 98.848091 33.530457 
L 98.971659 34.741693 
L 99.021085 34.078108 
L 99.095226 34.238947 
L 99.268221 35.119864 
L 99.342361 35.119864 
L 99.515355 35.260371 
L 99.638923 35.242023 
L 99.762491 32.483012 
L 99.886058 24.619831 
L 100.083766 14.741375 
L 100.25676 13.916521 
L 100.380328 13.916521 
L 100.578036 14.48166 
L 100.998166 33.863403 
L 101.566577 30.361621 
L 101.739571 30.392577 
L 101.863139 30.759859 
L 101.986706 30.759859 
L 102.036133 30.217466 
L 102.406835 15.175449 
L 102.530403 15.37202 
L 102.728111 15.727874 
L 102.777538 16.522738 
L 103.024673 32.576523 
L 103.222381 33.282866 
L 103.345949 33.282866 
L 103.469516 32.784144 
L 103.642511 32.677384 
L 103.716652 32.560804 
L 103.889646 30.49585 
L 104.013214 25.176548 
L 104.136781 12.876158 
L 104.260348 12.876158 
L 104.383916 12.260374 
L 104.507483 12.260374 
L 104.754619 11.844593 
L 105.001753 12.030166 
L 105.125321 12.427276 
L 105.372456 12.427276 
L 105.693732 11.901783 
L 105.743158 11.855538 
L 106.188001 9.465472 
L 106.608132 14.262986 
L 106.731699 14.262986 
L 106.978834 13.023049 
L 107.102401 11.729946 
L 107.225969 11.729946 
L 107.547244 13.017952 
L 107.720239 13.017952 
L 107.843806 12.826264 
L 108.28865 11.248821 
L 108.659352 11.274894 
L 108.955914 11.79808 
L 109.27719 11.978824 
L 109.524325 11.978824 
L 109.697319 13.263611 
L 109.820887 13.404869 
L 109.944455 13.021547 
L 110.142162 12.624436 
L 110.315157 12.624436 
L 110.636432 14.171353 
L 110.809427 15.075555 
L 111.056562 15.630554 
L 111.25427 15.591176 
L 111.303697 15.508449 
L 111.624973 9.847346 
L 111.797967 2.976511 
L 111.921535 2.629401 
L 112.045102 2.629401 
L 112.16867 2.820606 
L 112.910075 2.783858 
L 113.15721 2.671946 
L 113.404345 2.671946 
L 113.527912 2.951295 
L 114.14575 2.951295 
L 114.392885 3.262943 
L 114.565879 3.262943 
L 114.763588 3.654903 
L 115.257858 3.95067 
L 115.381425 4.147026 
L 115.55442 4.12723 
L 115.677987 4.766029 
L 115.801555 9.165413 
L 116.12283 11.379993 
L 116.172258 11.403384 
L 116.419392 17.257516 
L 116.617101 17.257516 
L 116.740668 8.239591 
L 116.913663 3.218629 
L 117.03723 3.218629 
L 117.160797 4.750524 
L 117.358506 6.008863 
L 117.5315 5.976995 
L 117.729208 5.673128 
L 117.778635 5.783966 
L 117.976343 5.656872 
L 118.149338 5.80961 
L 118.272905 5.916479 
L 118.470614 6.550772 
L 118.717748 6.751259 
L 118.767176 6.682052 
L 119.01431 6.781785 
L 119.137878 14.906292 
L 119.335586 25.658799 
L 119.459153 25.658799 
L 119.632148 26.052154 
L 119.706289 26.052154 
L 119.879283 26.774162 
L 120.002851 26.774162 
L 120.200558 26.076027 
L 120.324126 25.541092 
L 120.447694 16.952145 
L 120.620688 7.247888 
L 121.065532 7.312375 
L 121.362094 11.054719 
L 121.436234 11.09871 
L 121.609228 12.568856 
L 121.856363 13.91416 
L 121.979931 13.91416 
L 122.350633 14.49475 
L 122.548342 14.493892 
L 122.844904 13.576546 
L 122.919044 13.576546 
L 122.968471 14.003271 
L 123.339174 20.252474 
L 123.536881 13.403421 
L 123.660449 13.403421 
L 123.833444 13.643715 
L 124.327714 13.780735 
L 124.525422 14.130741 
L 124.698417 14.0309 
L 124.821984 13.817323 
L 125.019692 13.912014 
L 125.069119 14.569054 
L 125.439822 29.659622 
L 125.563389 29.659622 
L 125.686956 28.355791 
L 125.810524 23.473887 
L 126.008232 11.92732 
L 126.255367 11.774688 
L 126.304794 11.92732 
L 126.428361 13.783149 
L 126.551929 13.783149 
L 126.848492 9.81285 
L 126.972059 6.467509 
L 127.046199 6.467509 
L 127.095626 5.952853 
L 127.169767 6.467509 
L 127.219194 6.322764 
L 127.293335 6.322764 
L 127.589897 4.766888 
L 127.713464 4.406473 
L 127.837031 4.406473 
L 127.960599 9.302701 
L 128.084166 9.590582 
L 128.331302 11.921687 
L 128.405442 11.927213 
L 128.52901 13.684971 
L 128.825572 26.501089 
L 128.899712 26.501089 
L 138.463838 11.788476 
L 138.587406 14.519858 
L 138.834541 26.423566 
L 139.452379 27.718923 
L 139.501805 27.979282 
L 139.699513 30.169611 
L 139.823081 30.169611 
L 139.946649 28.537124 
L 140.070216 28.39254 
L 140.119643 28.39254 
L 140.193784 28.537124 
L 140.243211 29.306236 
L 140.564486 39.434053 
L 140.688054 39.825477 
L 140.861048 39.760508 
L 141.182324 36.21248 
L 141.305892 28.624089 
L 141.553026 28.624089 
L 141.726021 33.052282 
L 141.800161 33.052282 
L 141.849588 33.219185 
L 141.923729 33.17031 
L 142.170864 33.219185 
L 142.541567 35.079359 
L 142.912269 35.759952 
L 143.208831 35.767623 
L 143.332398 36.229702 
L 143.455966 36.229702 
L 143.653674 35.652761 
L 143.777241 35.540955 
L 143.950236 35.460052 
L 144.147944 35.49031 
L 144.320939 36.074119 
L 144.444506 36.197674 
L 144.642215 36.914051 
L 144.815209 37.525435 
L 145.012917 37.525435 
L 145.136484 37.525435 
L 145.507187 36.043165 
L 146.495727 35.977391 
L 146.742862 34.59523 
L 146.792289 34.59523 
L 146.989997 33.453203 
L 147.039424 33.453203 
L 147.162992 33.594782 
L 147.410127 36.222675 
L 147.533695 37.018452 
L 147.731402 36.963729 
L 147.904397 36.594355 
L 148.027964 36.594355 
L 148.225672 39.019508 
L 148.2751 39.019508 
L 148.34924 39.308997 
L 148.472808 38.775189 
L 148.522234 38.775189 
L 148.596375 38.566012 
L 148.719943 36.567959 
L 148.84351 36.567959 
L 148.967077 36.762169 
L 149.263639 36.762169 
L 149.387207 35.769876 
L 149.584915 29.781782 
L 149.75791 29.781782 
L 149.881477 30.149279 
L 150.005045 30.149279 
L 150.079185 29.047971 
L 150.32632 13.811959 
L 150.449888 13.679231 
L 150.499315 13.353366 
L 150.573456 13.376972 
L 150.622882 13.353366 
L 150.74645 12.810277 
L 151.24072 9.92385 
L 151.487855 25.536586 
L 151.611423 26.194217 
L 151.66085 26.194217 
L 151.73499 27.083128 
L 151.907985 32.48296 
L 151.982125 32.48296 
L 152.105693 32.852171 
L 152.22926 32.852171 
L 152.352828 29.242179 
L 152.402255 29.242179 
L 152.599963 24.3393 
L 152.64939 24.3393 
L 152.772957 25.432883 
L 152.896525 34.185405 
L 153.14366 35.089875 
L 153.2178 35.033006 
L 153.464936 34.961706 
L 153.514362 34.825493 
L 153.588503 32.219542 
L 153.71207 24.131034 
L 153.885065 24.131034 
L 154.008632 31.324729 
L 154.082773 31.376124 
L 154.255768 31.823398 
L 154.379335 31.895234 
L 154.502903 32.498142 
L 154.700611 32.475555 
L 154.873605 24.151797 
L 155.318448 24.151797 
L 155.491443 33.095685 
L 155.565583 33.095685 
L 155.689151 33.629977 
L 155.738578 33.095685 
L 155.862145 27.928691 
L 155.936286 27.928691 
L 155.985713 27.291716 
L 156.10928 14.035729 
L 156.479983 14.035729 
L 156.677691 33.896772 
L 156.801259 34.123709 
L 156.924826 33.33115 
L 157.097821 29.943963 
L 157.221388 29.943963 
L 157.419096 30.094611 
L 157.468523 30.094611 
L 157.666231 28.618993 
L 157.913366 28.386532 
L 157.962793 28.324568 
L 158.036934 27.958627 
L 158.160501 21.465802 
L 158.531204 21.465802 
L 158.704198 34.689115 
L 158.778339 35.045988 
L 159.074901 39.143436 
L 159.322036 40.200429 
L 159.445603 39.063393 
L 159.643311 28.860682 
L 159.692739 28.860682 
L 159.816306 28.617759 
L 159.890447 28.617759 
L 159.939873 27.423424 
L 160.063441 15.448523 
L 160.310576 12.472878 
L 160.384716 12.2806 
L 160.434144 12.472878 
L 160.631852 13.601332 
L 160.804846 13.659702 
L 160.878987 13.659702 
L 161.126121 4.040855 
L 161.299116 3.741011 
L 161.373257 3.741011 
L 161.422684 3.867407 
L 161.620392 5.133686 
L 161.793386 5.351072 
L 162.114662 8.021401 
L 162.164089 8.021401 
L 162.287657 9.428401 
L 162.534791 9.318581 
L 162.905494 8.871953 
L 163.029062 8.871953 
L 163.22677 19.44629 
L 163.473905 20.477372 
L 163.597472 21.055977 
L 163.819894 27.122559 
L 163.943461 27.122559 
L 164.017601 26.508975 
L 164.264737 17.036053 
L 164.388304 16.676175 
L 164.511872 16.676175 
L 164.882575 28.628489 
L 165.055569 28.628489 
L 165.302704 27.662913 
L 165.549839 27.552074 
L 165.747547 27.317521 
L 165.871114 27.305771 
L 166.11825 26.891332 
L 166.167676 26.891332 
L 166.241817 27.009843 
L 166.365385 27.722839 
L 166.414812 27.779761 
L 166.538379 28.469098 
L 166.736087 28.005516 
L 166.785514 28.005516 
L 166.909081 26.167338 
L 167.10679 26.167338 
L 167.230357 26.780655 
L 167.403352 26.780655 
L 167.526919 24.029584 
L 167.774055 24.048629 
L 167.897622 24.550248 
L 167.971762 24.550248 
L 168.09533 23.281234 
L 168.268324 18.229798 
L 168.391892 18.229798 
L 168.466032 18.611511 
L 168.762594 23.639502 
L 168.886162 23.065832 
L 169.207437 19.046337 
L 169.256865 19.046337 
L 169.454573 25.036577 
L 169.627567 26.976634 
L 169.825275 29.372386 
L 169.99827 29.297545 
L 170.319545 22.776235 
L 170.443113 22.776235 
L 170.56668 23.554468 
L 170.813816 27.612858 
L 171.48108 27.538286 
L 171.555221 27.479272 
L 171.728215 25.788683 
L 171.97535 25.788683 
L 172.173058 18.765001 
L 172.296626 18.357054 
L 172.420193 16.906866 
L 172.54376 16.906866 
L 172.790896 18.433396 
L 173.087458 26.543364 
L 173.211025 27.253732 
L 173.334593 27.253732 
L 173.408734 27.096218 
L 173.581728 25.90596 
L 173.828863 25.90596 
L 174.026571 26.80308 
L 174.273706 26.711983 
L 174.323133 26.66724 
L 174.446701 25.847482 
L 174.570268 21.785443 
L 174.767976 16.802626 
L 174.940971 16.568072 
L 175.138678 16.602783 
L 175.188106 16.738998 
L 175.558808 30.180556 
L 176.34964 30.865224 
L 176.84391 30.842425 
L 177.214613 30.756586 
L 177.412321 29.25849 
L 177.585315 25.999685 
L 177.832451 25.812825 
L 177.956018 25.397206 
L 178.203153 25.496618 
L 178.697423 25.57854 
L 178.944558 25.401873 
L 179.265834 25.250637 
L 179.438828 25.604989 
L 179.636537 27.8259 
L 179.809531 29.784197 
L 179.933099 30.603418 
L 180.056666 30.668065 
L 180.130807 30.749129 
L 180.180233 30.668065 
L 180.303801 30.590273 
L 180.550936 29.45742 
L 180.748644 27.492094 
L 180.995779 27.140157 
L 181.242914 27.248742 
L 181.663044 30.601272 
L 181.786612 30.586196 
L 181.860752 30.433994 
L 181.984319 29.319918 
L 182.157314 27.31296 
L 182.231455 27.274816 
L 182.404449 26.364767 
L 182.528017 25.37859 
L 182.651584 25.37859 
L 182.775151 26.738593 
L 182.898719 26.738593 
L 183.022287 25.803866 
L 183.269422 21.593487 
L 183.343562 21.593487 
L 183.516556 25.104067 
L 183.590697 25.19468 
L 183.714265 26.395561 
L 183.837832 26.395561 
L 183.961399 21.604163 
L 184.134394 16.515281 
L 184.257961 16.515281 
L 184.45567 17.494216 
L 184.579237 17.494216 
L 184.826373 16.37971 
L 184.999367 14.817449 
L 185.197075 14.902912 
L 185.814912 24.559851 
L 185.93848 24.559851 
L 186.062048 23.040778 
L 186.185615 23.040778 
L 186.482177 24.24858 
L 186.556317 24.24858 
L 186.679885 22.941206 
L 186.729312 22.823714 
L 186.852879 21.833191 
L 186.976447 21.833191 
L 187.174155 23.121358 
L 187.297723 23.121358 
L 187.470717 19.516946 
L 187.668425 15.93292 
L 187.791993 15.93292 
L 187.964987 16.639908 
L 188.088555 18.346753 
L 188.212122 18.346753 
L 188.582825 14.22967 
L 188.879387 14.279671 
L 189.077095 17.64438 
L 189.373657 21.523421 
L 189.447797 21.564248 
L 189.571365 21.907924 
L 189.8185 21.907924 
L 189.867927 21.358718 
L 190.065635 15.68195 
L 190.362197 15.68195 
L 190.436338 15.804163 
L 190.7329 17.715357 
L 190.930608 20.771691 
L 191.350738 24.197183 
L 191.548445 24.197183 
L 191.597872 22.723498 
L 191.795581 14.954522 
L 191.968575 14.540352 
L 192.092143 14.623025 
L 192.21571 15.067829 
L 192.586413 14.961229 
L 192.833548 17.169639 
L 193.080683 23.240245 
L 193.451385 26.487784 
L 193.525526 26.487784 
L 193.69852 24.952509 
L 193.822088 24.952509 
L 193.896228 25.161901 
L 194.019796 28.450589 
L 194.19279 31.369311 
L 194.390499 31.441684 
L 194.439925 31.441684 
L 194.637633 31.023651 
L 194.810628 30.888346 
L 195.008336 30.534211 
L 195.057763 29.58489 
L 195.255471 22.398062 
L 196.046303 15.32674 
L 196.244012 15.361182 
L 196.367579 16.448434 
L 196.540574 18.0093 
L 196.911276 27.896877 
L 197.108984 27.950741 
L 197.232551 27.879119 
L 197.405546 26.836127 
L 197.529113 26.836127 
L 197.652681 27.055552 
L 197.973956 27.102334 
L 198.023384 27.46865 
L 198.146951 30.502397 
L 198.344659 30.502397 
L 198.468227 28.39254 
L 198.517654 27.464841 
L 198.83893 14.660365 
L 198.962497 14.594323 
L 199.086064 14.918148 
L 199.753329 28.062706 
L 199.951037 28.062706 
L 200.074604 26.261278 
L 200.445307 13.079702 
L 200.568874 13.079702 
L 200.81601 14.957527 
L 201.359707 15.026251 
L 201.409134 15.17958 
L 201.779836 26.731136 
L 201.977544 26.801041 
L 202.101112 26.978083 
L 202.150539 26.815741 
L 202.348247 27.009522 
L 202.718949 27.068535 
L 203.015511 26.022218 
L 203.21322 26.865044 
L 203.509782 26.869498 
L 203.633349 27.395312 
L 204.078192 27.556796 
L 204.325327 27.244612 
L 204.498321 27.029425 
L 204.62189 27.029425 
L 204.819597 27.324227 
L 204.943165 27.324227 
L 205.116159 27.01038 
L 205.239727 26.986398 
L 205.363295 27.17991 
L 205.561002 26.741597 
L 206.302408 26.741597 
L 206.425975 24.221594 
L 206.549543 24.221594 
L 206.796677 26.141318 
L 206.920245 26.214443 
L 207.093239 26.699806 
L 207.290948 27.731262 
L 207.58751 27.653578 
L 207.834645 27.53083 
L 208.032353 27.574018 
L 208.328915 27.817423 
L 208.57605 27.781155 
L 208.773758 27.458242 
L 208.823185 27.354699 
L 208.897326 27.458242 
L 208.946752 27.354699 
L 209.07032 27.314946 
L 209.193888 24.633833 
L 209.391595 23.271415 
L 209.441023 22.188026 
L 209.441023 22.188026 
" clip-path="url(#pfcf2072dff)" style="fill: none; stroke: #5c80b5; stroke-width: 0.5; stroke-linecap: square"/>
   </g>
  </g>
 </g>
 <defs>
  <clipPath id="pfcf2072dff">
   <rect x="2.125984" y="0.425197" width="208.346457" height="41.669291"/>
  </clipPath>
 </defs>
</svg>
