<?xml version="1.0" encoding="utf-8" standalone="no"?>
<!DOCTYPE svg PUBLIC "-//W3C//DTD SVG 1.1//EN"
  "http://www.w3.org/Graphics/SVG/1.1/DTD/svg11.dtd">
<svg xmlns:xlink="http://www.w3.org/1999/xlink" width="212.598425pt" height="42.519685pt" viewBox="0 0 212.598425 42.519685" xmlns="http://www.w3.org/2000/svg" version="1.1">
 <metadata>
  <rdf:RDF xmlns:dc="http://purl.org/dc/elements/1.1/" xmlns:cc="http://creativecommons.org/ns#" xmlns:rdf="http://www.w3.org/1999/02/22-rdf-syntax-ns#">
   <cc:Work>
    <dc:type rdf:resource="http://purl.org/dc/dcmitype/StillImage"/>
    <dc:date>2026-06-01T17:59:35.477299</dc:date>
    <dc:format>image/svg+xml</dc:format>
    <dc:creator>
     <cc:Agent>
      <dc:title>Matplotlib v3.10.8, https://matplotlib.org/</dc:title>
     </cc:Agent>
    </dc:creator>
   </cc:Work>
  </rdf:RDF>
 </metadata>
 <defs>
  <style type="text/css">*{stroke-linejoin: round; stroke-linecap: butt}</style>
 </defs>
 <g id="figure_1">
  <g id="patch_1">
   <path d="M 0 42.519685 
L 212.598425 42.519685 
L 212.598425 0 
L 0 0 
z
" style="fill: #ffffff"/>
  </g>
  <g id="axes_1">
   <g id="patch_2">
    <path d="M 2.125984 42.094488 
L 210.472441 42.094488 
L 210.472441 0.425197 
L 2.125984 0.425197 
z
" style="fill: #eaeaf2"/>
   </g>
   <g id="matplotlib.axis_1">
    <g id="xtick_1">
     <g id="line2d_1">
      <path d="M 3.157402 42.094488 
L 3.157402 0.425197 
" clip-path="url(#p5c4de741d1)" style="fill: none; stroke: #ffffff; stroke-width: 0.9; stroke-linecap: square"/>
     </g>
    </g>
    <g id="xtick_2">
     <g id="line2d_2">
      <path d="M 47.59727 42.094488 
L 47.59727 0.425197 
" clip-path="url(#p5c4de741d1)" style="fill: none; stroke: #ffffff; stroke-width: 0.9; stroke-linecap: square"/>
     </g>
    </g>
    <g id="xtick_3">
     <g id="line2d_3">
      <path d="M 92.037138 42.094488 
L 92.037138 0.425197 
" clip-path="url(#p5c4de741d1)" style="fill: none; stroke: #ffffff; stroke-width: 0.9; stroke-linecap: square"/>
     </g>
    </g>
    <g id="xtick_4">
     <g id="line2d_4">
      <path d="M 136.477006 42.094488 
L 136.477006 0.425197 
" clip-path="url(#p5c4de741d1)" style="fill: none; stroke: #ffffff; stroke-width: 0.9; stroke-linecap: square"/>
     </g>
    </g>
    <g id="xtick_5">
     <g id="line2d_5">
      <path d="M 180.916874 42.094488 
L 180.916874 0.425197 
" clip-path="url(#p5c4de741d1)" style="fill: none; stroke: #ffffff; stroke-width: 0.9; stroke-linecap: square"/>
     </g>
    </g>
    <g id="xtick_6">
     <g id="line2d_6">
      <path d="M 25.377336 42.094488 
L 25.377336 0.425197 
" clip-path="url(#p5c4de741d1)" style="fill: none; stroke: #ffffff; stroke-opacity: 0.9; stroke-width: 0.55; stroke-linecap: square"/>
     </g>
    </g>
    <g id="xtick_7">
     <g id="line2d_7">
      <path d="M 69.817204 42.094488 
L 69.817204 0.425197 
" clip-path="url(#p5c4de741d1)" style="fill: none; stroke: #ffffff; stroke-opacity: 0.9; stroke-width: 0.55; stroke-linecap: square"/>
     </g>
    </g>
    <g id="xtick_8">
     <g id="line2d_8">
      <path d="M 114.257072 42.094488 
L 114.257072 0.425197 
" clip-path="url(#p5c4de741d1)" style="fill: none; stroke: #ffffff; stroke-opacity: 0.9; stroke-width: 0.55; stroke-linecap: square"/>
     </g>
    </g>
    <g id="xtick_9">
     <g id="line2d_9">
      <path d="M 158.69694 42.094488 
L 158.69694 0.425197 
" clip-path="url(#p5c4de741d1)" style="fill: none; stroke: #ffffff; stroke-opacity: 0.9; stroke-width: 0.55; stroke-linecap: square"/>
     </g>
    </g>
    <g id="xtick_10">
     <g id="line2d_10">
      <path d="M 203.136808 42.094488 
L 203.136808 0.425197 
" clip-path="url(#p5c4de741d1)" style="fill: none; stroke: #ffffff; stroke-opacity: 0.9; stroke-width: 0.55; stroke-linecap: square"/>
     </g>
    </g>
   </g>
   <g id="matplotlib.axis_2">
    <g id="ytick_1">
     <g id="line2d_11">
      <path d="M 2.125984 40.200429 
L 210.472441 40.200429 
" clip-path="url(#p5c4de741d1)" style="fill: none; stroke: #ffffff; stroke-width: 0.9; stroke-linecap: square"/>
     </g>
    </g>
    <g id="ytick_2">
     <g id="line2d_12">
      <path d="M 2.125984 28.237954 
L 210.472441 28.237954 
" clip-path="url(#p5c4de741d1)" style="fill: none; stroke: #ffffff; stroke-width: 0.9; stroke-linecap: square"/>
     </g>
    </g>
    <g id="ytick_3">
     <g id="line2d_13">
      <path d="M 2.125984 16.275478 
L 210.472441 16.275478 
" clip-path="url(#p5c4de741d1)" style="fill: none; stroke: #ffffff; stroke-width: 0.9; stroke-linecap: square"/>
     </g>
    </g>
    <g id="ytick_4">
     <g id="line2d_14">
      <path d="M 2.125984 4.313002 
L 210.472441 4.313002 
" clip-path="url(#p5c4de741d1)" style="fill: none; stroke: #ffffff; stroke-width: 0.9; stroke-linecap: square"/>
     </g>
    </g>
    <g id="ytick_5">
     <g id="line2d_15">
      <path d="M 2.125984 34.219192 
L 210.472441 34.219192 
" clip-path="url(#p5c4de741d1)" style="fill: none; stroke: #ffffff; stroke-opacity: 0.9; stroke-width: 0.55; stroke-linecap: square"/>
     </g>
    </g>
    <g id="ytick_6">
     <g id="line2d_16">
      <path d="M 2.125984 22.256716 
L 210.472441 22.256716 
" clip-path="url(#p5c4de741d1)" style="fill: none; stroke: #ffffff; stroke-opacity: 0.9; stroke-width: 0.55; stroke-linecap: square"/>
     </g>
    </g>
    <g id="ytick_7">
     <g id="line2d_17">
      <path d="M 2.125984 10.29424 
L 210.472441 10.29424 
" clip-path="url(#p5c4de741d1)" style="fill: none; stroke: #ffffff; stroke-opacity: 0.9; stroke-width: 0.55; stroke-linecap: square"/>
     </g>
    </g>
   </g>
   <g id="line2d_18">
    <path d="M 3.157402 40.200429 
L 19.839018 40.200429 
L 19.839018 38.206683 
L 19.888445 38.206683 
L 25.399556 38.206683 
L 25.399556 34.219192 
L 25.448983 34.219192 
L 36.495919 34.219192 
L 36.495919 24.250462 
L 36.57006 24.250462 
L 39.832242 24.250462 
L 39.832242 40.200429 
L 39.906383 40.200429 
L 42.056458 40.200429 
L 42.056458 18.269224 
L 42.105885 18.269224 
L 52.065427 18.269224 
L 52.065427 40.200429 
L 52.114855 40.200429 
L 57.601253 40.200429 
L 57.601253 34.219192 
L 57.675393 34.219192 
L 60.937576 34.219192 
L 60.937576 16.275478 
L 61.011716 16.275478 
L 63.161791 16.275478 
L 63.161791 40.200429 
L 63.235932 40.200429 
L 78.706585 40.200429 
L 78.706585 14.281732 
L 78.780725 14.281732 
L 93.163985 14.281732 
L 93.163985 40.200429 
L 93.213412 40.200429 
L 99.836631 40.200429 
L 99.836631 30.2317 
L 99.886058 30.2317 
L 103.14824 30.2317 
L 103.14824 34.219192 
L 103.222381 34.219192 
L 107.596671 34.219192 
L 107.596671 16.275478 
L 107.670812 16.275478 
L 110.932994 16.275478 
L 110.932994 36.212937 
L 111.007135 36.212937 
L 115.381425 36.212937 
L 115.381425 38.206683 
L 115.430853 38.206683 
L 118.717748 38.206683 
L 118.717748 40.200429 
L 118.767176 40.200429 
L 120.941964 40.200429 
L 120.941964 34.219192 
L 120.991391 34.219192 
L 123.166179 34.219192 
L 123.166179 30.2317 
L 123.215606 30.2317 
L 126.502502 30.2317 
L 126.502502 24.250462 
L 126.551929 24.250462 
L 139.25467 24.250462 
L 139.25467 18.269224 
L 139.328811 18.269224 
L 145.927316 18.269224 
L 145.927316 10.29424 
L 146.001457 10.29424 
L 149.263639 10.29424 
L 149.263639 20.26297 
L 149.33778 20.26297 
L 152.599963 20.26297 
L 152.599963 10.29424 
L 152.64939 10.29424 
L 160.384716 10.29424 
L 160.384716 32.225446 
L 160.434144 32.225446 
L 163.721039 32.225446 
L 163.721039 30.2317 
L 163.819894 30.2317 
L 170.368973 30.2317 
L 170.368973 6.306748 
L 170.443113 6.306748 
L 173.705296 6.306748 
L 173.705296 30.2317 
L 173.779436 30.2317 
L 183.714265 30.2317 
L 183.714265 4.313002 
L 183.763692 4.313002 
L 194.810628 4.313002 
L 194.810628 6.306748 
L 194.884769 6.306748 
L 199.259059 6.306748 
L 199.259059 8.300494 
L 199.333199 8.300494 
L 205.931705 8.300494 
L 205.931705 2.319256 
L 205.981132 2.319256 
L 209.268028 2.319256 
L 209.268028 22.256716 
L 209.317455 22.256716 
L 209.441023 22.256716 
L 209.441023 22.256716 
" clip-path="url(#p5c4de741d1)" style="fill: none; stroke: #5c80b5; stroke-width: 0.5; stroke-linecap: square"/>
   </g>
  </g>
 </g>
 <defs>
  <clipPath id="p5c4de741d1">
   <rect x="2.125984" y="0.425197" width="208.346457" height="41.669291"/>
  </clipPath>
 </defs>
</svg>
