<?xml version="1.0" encoding="utf-8" standalone="no"?>
<!DOCTYPE svg PUBLIC "-//W3C//DTD SVG 1.1//EN"
  "http://www.w3.org/Graphics/SVG/1.1/DTD/svg11.dtd">
<svg xmlns:xlink="http://www.w3.org/1999/xlink" width="212.598425pt" height="42.519685pt" viewBox="0 0 212.598425 42.519685" xmlns="http://www.w3.org/2000/svg" version="1.1">
 <metadata>
  <rdf:RDF xmlns:dc="http://purl.org/dc/elements/1.1/" xmlns:cc="http://creativecommons.org/ns#" xmlns:rdf="http://www.w3.org/1999/02/22-rdf-syntax-ns#">
   <cc:Work>
    <dc:type rdf:resource="http://purl.org/dc/dcmitype/StillImage"/>
    <dc:date>2026-06-01T17:59:35.275430</dc:date>
    <dc:format>image/svg+xml</dc:format>
    <dc:creator>
     <cc:Agent>
      <dc:title>Matplotlib v3.10.8, https://matplotlib.org/</dc:title>
     </cc:Agent>
    </dc:creator>
   </cc:Work>
  </rdf:RDF>
 </metadata>
 <defs>
  <style type="text/css">*{stroke-linejoin: round; stroke-linecap: butt}</style>
 </defs>
 <g id="figure_1">
  <g id="patch_1">
   <path d="M 0 42.519685 
L 212.598425 42.519685 
L 212.598425 0 
L 0 0 
z
" style="fill: #ffffff"/>
  </g>
  <g id="axes_1">
   <g id="patch_2">
    <path d="M 2.125984 42.094488 
L 210.472441 42.094488 
L 210.472441 0.425197 
L 2.125984 0.425197 
z
" style="fill: #eaeaf2"/>
   </g>
   <g id="matplotlib.axis_1">
    <g id="xtick_1">
     <g id="line2d_1">
      <path d="M 3.157402 42.094488 
L 3.157402 0.425197 
" clip-path="url(#pb5b7ccb66f)" style="fill: none; stroke: #ffffff; stroke-width: 0.9; stroke-linecap: square"/>
     </g>
    </g>
    <g id="xtick_2">
     <g id="line2d_2">
      <path d="M 47.59727 42.094488 
L 47.59727 0.425197 
" clip-path="url(#pb5b7ccb66f)" style="fill: none; stroke: #ffffff; stroke-width: 0.9; stroke-linecap: square"/>
     </g>
    </g>
    <g id="xtick_3">
     <g id="line2d_3">
      <path d="M 92.037138 42.094488 
L 92.037138 0.425197 
" clip-path="url(#pb5b7ccb66f)" style="fill: none; stroke: #ffffff; stroke-width: 0.9; stroke-linecap: square"/>
     </g>
    </g>
    <g id="xtick_4">
     <g id="line2d_4">
      <path d="M 136.477006 42.094488 
L 136.477006 0.425197 
" clip-path="url(#pb5b7ccb66f)" style="fill: none; stroke: #ffffff; stroke-width: 0.9; stroke-linecap: square"/>
     </g>
    </g>
    <g id="xtick_5">
     <g id="line2d_5">
      <path d="M 180.916874 42.094488 
L 180.916874 0.425197 
" clip-path="url(#pb5b7ccb66f)" style="fill: none; stroke: #ffffff; stroke-width: 0.9; stroke-linecap: square"/>
     </g>
    </g>
    <g id="xtick_6">
     <g id="line2d_6">
      <path d="M 25.377336 42.094488 
L 25.377336 0.425197 
" clip-path="url(#pb5b7ccb66f)" style="fill: none; stroke: #ffffff; stroke-opacity: 0.9; stroke-width: 0.55; stroke-linecap: square"/>
     </g>
    </g>
    <g id="xtick_7">
     <g id="line2d_7">
      <path d="M 69.817204 42.094488 
L 69.817204 0.425197 
" clip-path="url(#pb5b7ccb66f)" style="fill: none; stroke: #ffffff; stroke-opacity: 0.9; stroke-width: 0.55; stroke-linecap: square"/>
     </g>
    </g>
    <g id="xtick_8">
     <g id="line2d_8">
      <path d="M 114.257072 42.094488 
L 114.257072 0.425197 
" clip-path="url(#pb5b7ccb66f)" style="fill: none; stroke: #ffffff; stroke-opacity: 0.9; stroke-width: 0.55; stroke-linecap: square"/>
     </g>
    </g>
    <g id="xtick_9">
     <g id="line2d_9">
      <path d="M 158.69694 42.094488 
L 158.69694 0.425197 
" clip-path="url(#pb5b7ccb66f)" style="fill: none; stroke: #ffffff; stroke-opacity: 0.9; stroke-width: 0.55; stroke-linecap: square"/>
     </g>
    </g>
    <g id="xtick_10">
     <g id="line2d_10">
      <path d="M 203.136808 42.094488 
L 203.136808 0.425197 
" clip-path="url(#pb5b7ccb66f)" style="fill: none; stroke: #ffffff; stroke-opacity: 0.9; stroke-width: 0.55; stroke-linecap: square"/>
     </g>
    </g>
   </g>
   <g id="matplotlib.axis_2">
    <g id="ytick_1">
     <g id="line2d_11">
      <path d="M 2.125984 40.15078 
L 210.472441 40.15078 
" clip-path="url(#pb5b7ccb66f)" style="fill: none; stroke: #ffffff; stroke-width: 0.9; stroke-linecap: square"/>
     </g>
    </g>
    <g id="ytick_2">
     <g id="line2d_12">
      <path d="M 2.125984 28.389452 
L 210.472441 28.389452 
" clip-path="url(#pb5b7ccb66f)" style="fill: none; stroke: #ffffff; stroke-width: 0.9; stroke-linecap: square"/>
     </g>
    </g>
    <g id="ytick_3">
     <g id="line2d_13">
      <path d="M 2.125984 16.628123 
L 210.472441 16.628123 
" clip-path="url(#pb5b7ccb66f)" style="fill: none; stroke: #ffffff; stroke-width: 0.9; stroke-linecap: square"/>
     </g>
    </g>
    <g id="ytick_4">
     <g id="line2d_14">
      <path d="M 2.125984 4.866795 
L 210.472441 4.866795 
" clip-path="url(#pb5b7ccb66f)" style="fill: none; stroke: #ffffff; stroke-width: 0.9; stroke-linecap: square"/>
     </g>
    </g>
    <g id="ytick_5">
     <g id="line2d_15">
      <path d="M 2.125984 34.270116 
L 210.472441 34.270116 
" clip-path="url(#pb5b7ccb66f)" style="fill: none; stroke: #ffffff; stroke-opacity: 0.9; stroke-width: 0.55; stroke-linecap: square"/>
     </g>
    </g>
    <g id="ytick_6">
     <g id="line2d_16">
      <path d="M 2.125984 22.508787 
L 210.472441 22.508787 
" clip-path="url(#pb5b7ccb66f)" style="fill: none; stroke: #ffffff; stroke-opacity: 0.9; stroke-width: 0.55; stroke-linecap: square"/>
     </g>
    </g>
    <g id="ytick_7">
     <g id="line2d_17">
      <path d="M 2.125984 10.747459 
L 210.472441 10.747459 
" clip-path="url(#pb5b7ccb66f)" style="fill: none; stroke: #ffffff; stroke-opacity: 0.9; stroke-width: 0.55; stroke-linecap: square"/>
     </g>
    </g>
   </g>
   <g id="line2d_18">
    <path d="M 3.157402 11.020991 
L 3.231543 10.712292 
L 3.35511 11.329691 
L 3.404538 11.195744 
L 3.528105 10.713978 
L 3.725813 10.675612 
L 4.022375 9.946069 
L 4.145943 9.44208 
L 4.26951 9.44208 
L 4.887348 10.573526 
L 5.208623 10.573526 
L 5.332191 10.720242 
L 5.505185 10.720242 
L 5.628753 10.433917 
L 5.75232 10.433917 
L 5.950028 11.006205 
L 5.999456 11.006205 
L 6.197163 11.269945 
L 6.567866 17.051127 
L 6.740861 17.051127 
L 6.938569 11.881622 
L 7.235131 10.453009 
L 7.358698 10.546001 
L 7.803541 11.098294 
L 7.976536 11.396002 
L 8.100103 11.396002 
L 8.421379 10.582078 
L 8.717941 10.089894 
L 8.915649 10.335805 
L 9.088643 10.397238 
L 9.904189 10.436988 
L 10.769161 11.021503 
L 11.016297 10.709762 
L 11.263432 10.611289 
L 11.683561 10.633212 
L 11.807129 10.744032 
L 12.004837 11.258501 
L 12.37554 11.3689 
L 12.499107 11.501161 
L 12.548534 11.501161 
L 12.746242 11.372633 
L 12.919236 11.439004 
L 13.116945 11.551632 
L 13.413507 10.682961 
L 13.537074 10.787637 
L 13.660641 14.808109 
L 13.734782 14.903029 
L 13.907777 16.17288 
L 14.105485 17.126472 
L 14.229053 23.15188 
L 14.402047 23.15188 
L 14.525615 21.710318 
L 15.143452 21.630215 
L 15.687149 21.742601 
L 15.810716 19.876431 
L 15.934284 18.245753 
L 16.008425 18.245753 
L 16.057852 17.948226 
L 16.181419 16.649104 
L 16.304987 12.099889 
L 16.379127 11.942332 
L 16.552121 10.762583 
L 16.799257 10.818173 
L 16.873397 10.881894 
L 16.996965 11.171712 
L 17.120533 11.171712 
L 17.367667 10.414283 
L 17.491235 10.376038 
L 18.603343 11.118892 
L 19.394175 11.222906 
L 19.591882 11.222906 
L 19.71545 11.021382 
L 19.764877 11.09715 
L 19.962585 10.837144 
L 20.012013 10.837144 
L 20.382715 17.080036 
L 20.753418 21.748804 
L 20.876985 22.374575 
L 21.000552 22.48672 
L 21.074693 22.549237 
L 21.198261 22.791354 
L 21.247687 22.79304 
L 21.445395 23.401525 
L 21.568963 23.245896 
L 21.692531 23.140316 
L 21.816098 20.66018 
L 21.939666 12.763362 
L 22.557503 11.708827 
L 22.730498 11.708827 
L 22.854065 11.259705 
L 23.224768 11.347639 
L 23.348336 8.966578 
L 24.831146 8.945318 
L 24.954713 15.105877 
L 25.275989 15.397683 
L 25.572551 15.397683 
L 25.646691 18.71746 
L 25.819686 30.355953 
L 25.943254 30.355953 
L 26.140961 16.881344 
L 26.313956 16.881344 
L 26.635231 21.607991 
L 27.005934 21.70279 
L 27.178929 23.044493 
L 27.253069 23.044493 
L 27.302496 23.197352 
L 27.500204 24.34518 
L 27.623772 23.968092 
L 27.673198 23.968092 
L 27.920334 22.285859 
L 28.043901 22.285859 
L 28.216896 22.834959 
L 28.414603 22.88814 
L 28.711166 22.67427 
L 28.908874 22.746725 
L 29.081868 22.984445 
L 29.205436 22.92229 
L 29.403144 23.284924 
L 29.452571 23.284924 
L 29.699706 22.999021 
L 29.823273 22.904221 
L 30.070409 22.645481 
L 30.193976 22.451546 
L 30.317544 21.673519 
L 30.688246 21.676229 
L 30.811814 20.438902 
L 30.885954 20.438902 
L 31.009521 20.196965 
L 31.256657 20.196965 
L 31.627359 11.222605 
L 31.800354 12.687354 
L 31.923921 12.687354 
L 32.047489 13.931609 
L 32.368764 13.931609 
L 32.863034 19.405928 
L 32.986602 19.88161 
L 33.159596 19.801928 
L 33.406732 17.507235 
L 33.604439 17.507235 
L 33.777434 17.846741 
L 33.901001 17.90986 
L 34.395272 17.584086 
L 34.642407 17.645458 
L 34.840115 17.913835 
L 34.963682 17.846018 
L 35.08725 17.563367 
L 35.260244 17.45327 
L 35.383812 17.667442 
L 35.50738 18.293032 
L 35.630947 18.293032 
L 35.828655 17.69346 
L 36.00165 16.929707 
L 36.125217 16.011769 
L 36.446493 14.141684 
L 36.57006 14.141684 
L 36.619487 13.238924 
L 36.693628 13.640827 
L 36.817195 13.640827 
L 36.99019 13.238924 
L 37.237325 13.922032 
L 37.435033 14.808229 
L 37.48446 14.808229 
L 37.5586 14.578218 
L 37.682168 14.808229 
L 37.805736 14.46252 
L 38.05287 15.135931 
L 38.102298 15.275178 
L 38.670708 19.788076 
L 38.720135 19.577639 
L 38.96727 17.546383 
L 39.164978 17.346847 
L 39.337973 16.838461 
L 39.659248 16.418129 
L 40.079378 11.14991 
L 40.202945 11.14991 
L 40.326513 10.347068 
L 40.697216 10.454636 
L 40.94435 10.791732 
L 41.067918 11.97082 
L 41.117345 11.97082 
L 41.315053 13.194115 
L 41.735183 13.241815 
L 42.180026 13.611556 
L 42.303593 9.800798 
L 42.35302 9.800798 
L 42.600155 8.808961 
L 42.674296 8.808961 
L 42.797863 10.765353 
L 42.970858 10.765353 
L 43.044998 10.350802 
L 43.217993 9.023614 
L 43.34156 9.325718 
L 43.465128 9.407388 
L 43.712263 9.662936 
L 44.206533 13.537295 
L 44.280673 13.537295 
L 44.453668 12.181497 
L 44.577235 11.915169 
L 44.824371 11.032464 
L 44.898511 11.032464 
L 44.947938 10.776977 
L 45.145646 6.482166 
L 45.31864 6.482166 
L 45.639916 11.041981 
L 45.812911 11.118169 
L 46.010619 12.038336 
L 46.183614 12.077544 
L 46.307181 12.038336 
L 46.430748 11.609631 
L 46.752024 11.517 
L 46.999159 10.979343 
L 47.122726 10.6405 
L 47.172153 10.6405 
L 47.419289 11.255068 
L 47.740564 11.298674 
L 47.913558 11.564822 
L 48.160694 11.564822 
L 48.358401 12.061102 
L 49.025666 12.00003 
L 49.346942 11.678773 
L 49.470509 11.678773 
L 49.594077 11.795857 
L 49.767071 11.747674 
L 50.088347 11.681062 
L 50.211914 11.566388 
L 50.384909 10.203244 
L 50.508476 10.203244 
L 50.829752 11.137141 
L 51.002747 10.893217 
L 51.076887 10.789083 
L 51.324022 9.487974 
L 51.497017 9.487974 
L 51.744152 10.860152 
L 51.94186 13.358296 
L 52.312562 16.358503 
L 52.43613 17.786152 
L 52.485557 17.786152 
L 52.609124 17.155502 
L 52.732692 14.507932 
L 52.782119 14.507932 
L 53.029254 10.418619 
L 53.844799 10.348694 
L 54.017794 11.305177 
L 54.388497 14.146924 
L 54.586205 14.423612 
L 54.882767 14.431984 
L 55.080475 14.19047 
L 55.451178 14.187819 
L 55.574745 13.759958 
L 56.118442 13.659738 
L 56.365577 13.388351 
L 56.612712 12.435541 
L 56.686853 12.043515 
L 56.81042 10.234561 
L 56.983415 10.234561 
L 57.106982 18.16324 
L 57.79896 18.070669 
L 57.971955 25.952369 
L 58.095522 32.573192 
L 58.29323 32.573192 
L 58.540365 19.715501 
L 60.443305 19.715501 
L 60.566873 24.495932 
L 60.814008 35.163605 
L 61.011716 36.551986 
L 61.18471 36.551986 
L 61.308278 35.554969 
L 61.431845 35.554969 
L 61.753121 37.515095 
L 62.049683 37.448 
L 62.173251 31.172827 
L 62.543953 31.267265 
L 62.914656 31.322495 
L 63.161791 31.351163 
L 63.235932 31.000274 
L 63.408926 18.056034 
L 63.606634 12.242148 
L 64.150331 11.081068 
L 64.224471 11.081068 
L 64.348039 16.024176 
L 64.471606 16.024176 
L 64.644601 11.40058 
L 64.941163 10.376942 
L 65.386006 10.365498 
L 66.127412 11.938477 
L 66.547541 11.447979 
L 67.041811 11.38233 
L 67.288946 11.077094 
L 67.363086 11.077094 
L 67.536081 11.264404 
L 67.610222 11.264404 
L 67.783216 11.470926 
L 68.153918 11.371549 
L 68.401054 11.140333 
L 68.722329 11.630892 
L 68.771756 11.630892 
L 68.895323 11.337821 
L 69.266026 11.35577 
L 69.463735 11.177554 
L 70.081572 11.275666 
L 70.254566 11.33222 
L 70.452274 11.33222 
L 70.625269 11.09215 
L 70.822977 11.09215 
L 70.995972 11.288134 
L 71.366674 11.239047 
L 71.613809 11.239408 
L 71.811517 11.319452 
L 71.935085 11.319452 
L 72.058653 11.195442 
L 72.305787 11.181168 
L 72.429355 11.895414 
L 72.478782 11.895414 
L 72.602349 11.120819 
L 73.467322 11.183818 
L 73.714457 11.296143 
L 74.085159 11.338484 
L 74.282868 11.453098 
L 74.332295 11.453098 
L 74.530002 10.518417 
L 74.826565 10.377844 
L 75.320835 10.414042 
L 75.444402 11.028671 
L 75.938672 11.028671 
L 76.185808 10.069417 
L 76.259948 10.069417 
L 76.383515 9.704674 
L 76.680077 9.810556 
L 76.754218 9.908727 
L 76.803645 12.736079 
L 76.927213 25.876844 
L 77.12492 25.876844 
L 77.174348 25.462292 
L 77.792185 12.953141 
L 77.96518 12.860691 
L 78.088747 12.953141 
L 78.410023 13.304874 
L 78.904293 13.318727 
L 79.151428 13.754658 
L 79.44799 13.793746 
L 79.571557 14.111872 
L 80.139968 14.011953 
L 80.263536 13.806635 
L 80.510671 13.963288 
L 80.683665 14.335137 
L 80.9308 14.283462 
L 81.301503 13.498266 
L 81.548638 13.569577 
L 81.795773 13.840543 
L 82.166475 13.742974 
L 82.290043 14.119641 
L 82.734886 14.129337 
L 82.90788 14.010628 
L 83.155016 13.966059 
L 83.402151 13.44364 
L 83.476292 13.355225 
L 83.599859 12.64941 
L 83.723426 12.64941 
L 83.846994 13.484474 
L 83.970561 13.484474 
L 84.094129 13.201944 
L 84.267123 13.301501 
L 84.341264 13.337758 
L 84.637826 14.059353 
L 84.835534 13.98491 
L 85.008529 13.857528 
L 85.329804 13.949858 
L 85.502798 14.036586 
L 85.700507 14.141263 
L 85.824074 14.285088 
L 86.071209 14.073566 
L 86.244204 13.989367 
L 86.367772 14.051522 
L 86.565479 14.19866 
L 86.862041 14.352482 
L 87.109177 14.615499 
L 87.727014 14.648745 
L 87.974149 13.97172 
L 88.295425 13.830666 
L 88.468419 14.062544 
L 88.542559 14.063388 
L 88.591987 14.319056 
L 88.715554 14.063388 
L 88.913262 14.442163 
L 89.086257 14.385247 
L 89.283965 13.918961 
L 89.580527 13.902278 
L 89.753521 14.505703 
L 90.371359 14.463544 
L 90.865629 14.297735 
L 90.989196 14.439272 
L 91.112764 14.070013 
L 91.186905 14.070013 
L 91.310472 14.499801 
L 91.681175 14.427648 
L 92.051877 14.1671 
L 92.348439 14.257021 
L 92.595575 14.279607 
L 92.793282 14.124098 
L 93.089844 14.078445 
L 93.287552 13.656848 
L 93.41112 13.656848 
L 93.460547 14.163065 
L 93.707682 31.673745 
L 93.90539 31.673745 
L 94.152525 16.200103 
L 94.276093 15.144544 
L 94.39966 10.053396 
L 94.523228 10.053396 
L 94.696222 11.72539 
L 94.89393 11.679255 
L 95.190493 10.199087 
L 95.3882 10.299247 
L 95.511768 10.409705 
L 95.635336 10.409705 
L 95.88247 9.991421 
L 96.129605 9.943057 
L 96.179032 9.8064 
L 96.253173 9.89343 
L 96.426168 9.723947 
L 96.673303 9.73268 
L 96.747443 9.928422 
L 96.871011 10.994159 
L 97.167573 11.47219 
L 97.241713 11.47219 
L 97.414708 10.952362 
L 97.488848 10.952362 
L 97.661842 10.172527 
L 98.032545 9.370589 
L 98.156113 9.414073 
L 98.353821 10.366281 
L 98.477388 10.366281 
L 98.650383 12.370795 
L 99.095226 12.370373 
L 99.268221 11.795254 
L 99.342361 11.795254 
L 99.465929 10.915261 
L 99.638923 10.915261 
L 99.836631 12.95814 
L 100.009626 13.014574 
L 100.083766 13.064443 
L 100.207334 13.445326 
L 100.380328 12.875326 
L 100.751031 12.27178 
L 100.874598 12.825578 
L 101.121734 13.366367 
L 101.368868 13.366367 
L 101.492436 13.21158 
L 101.616003 13.21158 
L 101.739571 13.994968 
L 101.863139 13.994968 
L 102.110273 12.769445 
L 102.283268 12.846899 
L 102.530403 14.268946 
L 102.728111 14.268946 
L 103.14824 12.770349 
L 103.469516 10.083751 
L 103.518943 10.083751 
L 103.716652 11.963592 
L 103.963786 13.89764 
L 104.013214 13.991716 
L 104.260348 17.031191 
L 104.383916 17.327273 
L 104.507483 18.758294 
L 104.631051 25.673513 
L 104.754619 33.487637 
L 105.372456 33.420905 
L 105.446596 32.837474 
L 105.570164 19.972916 
L 105.743158 19.972916 
L 105.866726 19.73652 
L 105.940867 18.707522 
L 106.064434 14.5363 
L 106.237429 14.5363 
L 106.608132 21.402553 
L 106.805839 21.402553 
L 106.929407 21.571613 
L 106.978834 21.571613 
L 107.052975 21.795059 
L 107.300109 28.161419 
L 107.473104 32.651428 
L 107.79438 34.811814 
L 107.843806 34.811814 
L 108.090942 33.856716 
L 108.165082 33.752642 
L 108.214509 33.856716 
L 108.338076 34.399974 
L 108.535785 35.101513 
L 108.659352 35.101513 
L 108.708779 34.381606 
L 108.955914 25.330875 
L 109.203049 25.424048 
L 109.326617 25.753014 
L 109.573752 25.753014 
L 109.647893 26.09764 
L 109.944455 32.309332 
L 110.018595 32.309332 
L 110.191589 30.808145 
L 110.315157 30.808145 
L 110.438724 34.885594 
L 110.562292 34.885594 
L 110.636432 34.157315 
L 110.883568 19.207476 
L 110.932994 19.207476 
L 111.18013 33.649229 
L 111.303697 33.649229 
L 111.501405 19.983697 
L 111.624973 18.834001 
L 111.74854 18.834001 
L 111.797967 20.605974 
L 111.995675 29.700791 
L 112.119242 30.171715 
L 112.66294 30.245494 
L 113.15721 31.22366 
L 113.280778 31.000033 
L 113.404345 30.320057 
L 113.972755 10.674589 
L 114.14575 10.674589 
L 114.269317 15.939013 
L 114.442312 27.195058 
L 114.64002 27.104233 
L 114.763588 26.152568 
L 114.936582 26.200028 
L 115.134291 26.506349 
L 115.307285 26.471717 
L 115.677987 14.00575 
L 115.875696 14.00575 
L 115.999263 18.298091 
L 116.12283 18.597907 
L 116.246398 18.597907 
L 116.295825 18.298091 
L 116.493533 13.157195 
L 116.666528 12.51203 
L 116.790095 12.470352 
L 117.03723 11.808324 
L 117.482073 13.53609 
L 117.655068 13.278494 
L 118.272905 13.240851 
L 118.396473 13.872765 
L 118.52004 13.872765 
L 118.717748 13.334506 
L 119.212019 13.368234 
L 119.385013 11.98672 
L 119.459153 11.98672 
L 119.706289 10.353212 
L 119.879283 10.353212 
L 120.002851 10.600629 
L 120.126418 10.600629 
L 120.249986 11.550246 
L 120.373553 11.220136 
L 120.867823 11.269221 
L 121.189099 13.182671 
L 121.362094 18.011164 
L 121.436234 18.040616 
L 121.559801 19.013903 
L 121.683369 19.013903 
L 121.856363 17.163934 
L 122.054071 17.271983 
L 122.350633 18.502505 
L 122.548342 18.502505 
L 122.721336 18.05495 
L 122.919044 18.159626 
L 123.042612 18.506963 
L 123.339174 18.414934 
L 123.586309 18.335192 
L 123.784017 17.968703 
L 123.833444 17.968703 
L 124.031152 17.778322 
L 124.154719 17.968703 
L 124.327714 17.891491 
L 124.401855 18.092773 
L 124.451281 18.030136 
L 124.821984 17.476217 
L 125.019692 17.533434 
L 125.192686 18.351815 
L 125.390394 18.268338 
L 125.761097 17.589025 
L 125.934092 17.694003 
L 126.057659 17.884805 
L 126.181227 17.884805 
L 126.428361 17.043598 
L 126.675497 17.043598 
L 126.922632 15.328902 
L 127.046199 14.090972 
L 127.219194 14.183061 
L 127.293335 14.383019 
L 127.342761 14.294724 
L 127.540469 14.294724 
L 127.664037 14.139095 
L 127.787604 14.139095 
L 128.084166 19.75742 
L 128.331302 18.157157 
L 128.702004 16.177637 
L 128.899712 8.828174 
L 138.537979 11.361853 
L 138.958108 10.721145 
L 139.032249 10.768244 
L 139.205243 11.057038 
L 139.378238 11.227664 
L 139.575946 11.245673 
L 140.317351 7.357402 
L 140.490346 3.253755 
L 140.613913 3.253755 
L 140.73748 4.493493 
L 140.984616 4.53517 
L 141.231751 5.74383 
L 141.726021 11.274341 
L 141.800161 11.367634 
L 141.923729 11.826814 
L 142.096723 11.078058 
L 142.170864 11.053785 
L 142.467426 9.245976 
L 142.590993 7.519296 
L 142.665134 7.428712 
L 142.838129 6.629483 
L 142.961696 6.574736 
L 143.208831 6.987601 
L 143.406539 8.054543 
L 143.530107 8.451507 
L 143.653674 8.054543 
L 143.826669 8.451507 
L 144.024377 8.178734 
L 144.073804 8.178734 
L 144.691641 6.106402 
L 144.889349 6.106402 
L 145.012917 8.89039 
L 145.136484 8.89039 
L 145.309479 6.752771 
L 145.38362 6.752771 
L 145.556614 7.468704 
L 145.680182 7.468704 
L 145.927316 5.035787 
L 146.174452 5.084932 
L 146.248592 5.207438 
L 146.421587 6.441995 
L 146.668721 22.46293 
L 146.792289 22.46293 
L 147.162992 6.156392 
L 147.410127 4.676767 
L 147.533695 4.676767 
L 147.657262 5.657461 
L 147.904397 5.601089 
L 148.027964 4.653941 
L 148.2751 4.676647 
L 148.522234 5.453469 
L 148.84351 5.492136 
L 148.967077 5.64644 
L 149.214213 5.700525 
L 149.387207 6.862989 
L 149.584915 8.154943 
L 149.708482 8.154943 
L 149.832051 7.065236 
L 149.955618 7.065236 
L 150.128613 13.708463 
L 150.375747 19.32733 
L 150.499315 21.099183 
L 150.622882 21.099183 
L 150.74645 20.184437 
L 150.870018 19.511448 
L 150.944158 19.493741 
L 150.993585 19.338412 
L 151.117152 12.694883 
L 151.24072 12.694883 
L 151.314861 13.85825 
L 151.438428 17.871977 
L 151.537282 17.871977 
L 151.66085 16.987827 
L 151.982125 6.226076 
L 152.278687 6.226076 
L 152.402255 5.931681 
L 152.599963 6.010881 
L 152.772957 7.8794 
L 152.896525 7.8794 
L 152.970665 6.150129 
L 153.094233 2.319256 
L 153.2178 2.319256 
L 153.464936 4.638522 
L 153.514362 4.641353 
L 153.588503 5.066864 
L 153.761498 6.731992 
L 153.885065 6.832152 
L 154.008632 8.196501 
L 154.1322 8.196501 
L 154.255768 7.578258 
L 154.453475 7.464728 
L 154.577043 6.026238 
L 154.62647 6.026238 
L 154.700611 5.389988 
L 154.824178 6.152177 
L 154.873605 6.167294 
L 155.19488 7.358547 
L 155.318448 7.358547 
L 155.367875 7.186534 
L 155.491443 5.793999 
L 155.689151 5.89157 
L 155.862145 7.346501 
L 156.059854 8.068095 
L 156.10928 8.087006 
L 156.232848 8.621471 
L 156.356416 8.621471 
L 156.60355 5.08162 
L 156.677691 5.025427 
L 156.801259 4.746992 
L 156.850685 4.746992 
L 156.924826 5.025427 
L 157.097821 6.837271 
L 157.839226 6.802881 
L 157.913366 6.979349 
L 157.962793 6.869916 
L 158.08636 6.869916 
L 158.284069 7.839348 
L 158.407636 7.839348 
L 158.580631 7.221467 
L 159.074901 2.743441 
L 159.396177 2.772051 
L 159.445603 3.313563 
L 159.692739 10.850455 
L 159.766879 11.080226 
L 159.939873 12.22962 
L 160.014014 12.479989 
L 160.137582 13.448037 
L 160.187009 13.516215 
L 160.434144 16.384642 
L 160.928414 16.384642 
L 161.126121 11.593972 
L 161.422684 11.696239 
L 161.669819 11.708285 
L 161.793386 11.340351 
L 162.164089 11.340351 
L 162.287657 15.725204 
L 162.361797 15.725204 
L 162.608932 16.992645 
L 162.905494 13.353719 
L 163.029062 16.312187 
L 163.152629 16.312187 
L 163.276196 16.553642 
L 163.350337 16.562917 
L 163.399764 16.705477 
L 163.819894 19.594683 
L 164.017601 19.594683 
L 164.190596 17.684426 
L 164.388304 17.684426 
L 164.511872 17.644434 
L 164.635439 17.257469 
L 164.808434 15.209469 
L 164.882575 15.087688 
L 165.006142 14.785825 
L 165.129709 14.785825 
L 165.302704 15.186763 
L 165.426271 15.192425 
L 165.549839 15.557709 
L 165.796974 19.471155 
L 165.920542 19.660874 
L 166.044109 21.54975 
L 166.167676 21.54975 
L 166.538379 20.614768 
L 166.612519 20.638317 
L 166.736087 20.831108 
L 166.909081 20.916631 
L 167.156217 21.075754 
L 167.279784 20.978967 
L 167.477493 20.443539 
L 167.650487 19.766394 
L 167.774055 19.408759 
L 167.897622 19.408759 
L 168.021189 19.967797 
L 168.144757 19.967797 
L 168.342465 18.790517 
L 168.639027 18.771304 
L 169.00973 19.43532 
L 169.256865 19.495788 
L 169.454573 19.737002 
L 169.503999 19.771995 
L 169.701708 20.290981 
L 169.874702 20.244244 
L 169.99827 19.973759 
L 170.121837 19.727125 
L 170.368973 19.800603 
L 170.49254 20.263336 
L 170.56668 20.767687 
L 170.937383 31.937724 
L 171.06095 36.797115 
L 171.233945 37.681444 
L 171.357512 37.681444 
L 171.604648 34.816452 
L 171.728215 34.816452 
L 172.049491 36.996772 
L 172.173058 36.996772 
L 172.222485 36.350522 
L 172.54376 18.941087 
L 172.593188 18.434026 
L 172.716755 19.486453 
L 172.914463 17.807171 
L 173.087458 17.807171 
L 173.285166 17.233618 
L 173.45816 17.533976 
L 173.532301 17.533976 
L 173.705296 17.760073 
L 173.95243 17.706108 
L 174.150139 17.104308 
L 174.323133 16.673978 
L 175.138678 16.507267 
L 175.311673 17.508741 
L 175.385814 17.508741 
L 175.509381 17.863003 
L 175.632949 17.704422 
L 175.929511 18.084703 
L 176.127219 18.210399 
L 176.473208 18.181489 
L 176.596776 18.634405 
L 177.091045 18.52738 
L 177.214613 18.462213 
L 177.338181 18.190885 
L 177.585315 18.254907 
L 177.708883 18.428063 
L 177.906591 18.394095 
L 178.079586 18.242922 
L 178.203153 18.242922 
L 178.450288 18.768774 
L 178.647996 18.686382 
L 178.895132 18.401684 
L 179.389401 18.459563 
L 179.562396 18.501361 
L 179.685963 18.438664 
L 179.933099 17.94949 
L 180.180233 17.94949 
L 180.377942 18.067718 
L 180.674504 18.436917 
L 181.045206 17.393645 
L 181.242914 17.344739 
L 181.292341 17.393645 
L 181.415909 17.726164 
L 181.737184 17.816988 
L 181.984319 18.579718 
L 182.231455 18.613385 
L 182.404449 18.875017 
L 182.528017 18.613385 
L 182.725724 18.791601 
L 182.849292 18.742033 
L 183.022287 19.061965 
L 183.145854 19.207115 
L 183.516556 20.647532 
L 183.640124 20.647532 
L 183.837832 18.14463 
L 184.084967 18.164806 
L 184.134394 18.492929 
L 184.257961 23.852996 
L 184.505097 34.922453 
L 184.628664 34.922453 
L 184.702805 34.616133 
L 184.752232 33.847683 
L 185.073507 20.077111 
L 185.122935 20.072955 
L 185.370069 19.282039 
L 185.691345 18.581043 
L 185.740772 18.581043 
L 185.86434 19.025407 
L 185.987907 19.025407 
L 186.185615 18.456551 
L 186.235042 18.456551 
L 186.35861 17.984423 
L 186.556317 18.612723 
L 186.803453 19.836921 
L 186.92702 19.836921 
L 187.050588 19.953704 
L 187.100015 19.953704 
L 187.421291 24.251044 
L 187.668425 32.726293 
L 187.791993 33.787994 
L 187.84142 33.787994 
L 187.964987 33.937842 
L 188.039128 33.787994 
L 188.212122 29.927068 
L 188.459258 19.65449 
L 188.632252 18.911033 
L 188.75582 19.65449 
L 188.879387 18.910551 
L 189.002954 18.817619 
L 189.200663 17.374492 
L 189.447797 17.018302 
L 189.571365 17.018302 
L 189.744359 17.959428 
L 189.942068 17.959428 
L 190.065635 17.345823 
L 190.312771 17.345823 
L 190.683473 17.687498 
L 190.7329 17.577762 
L 191.350738 17.560055 
L 191.474305 17.788139 
L 191.672013 21.230962 
L 191.845008 24.71444 
L 192.042715 26.213158 
L 192.166283 26.213158 
L 192.289851 24.97059 
L 192.462845 22.748833 
L 192.536986 22.748833 
L 192.70998 22.37578 
L 192.78412 22.37578 
L 192.957115 19.422672 
L 193.154823 18.377592 
L 193.327818 18.308812 
L 193.525526 18.158121 
L 193.69852 18.227263 
L 193.822088 18.747935 
L 193.945656 18.747935 
L 194.143363 16.986984 
L 194.266931 16.061759 
L 194.390499 16.061759 
L 194.637633 16.595681 
L 194.810628 16.871045 
L 195.057763 18.730771 
L 195.304898 32.781401 
L 195.428466 38.902511 
L 195.873309 39.603145 
L 195.996876 39.603145 
L 196.169871 40.200429 
L 196.244012 40.200429 
L 196.540574 39.450165 
L 196.738281 36.379191 
L 196.861849 36.379191 
L 197.034843 37.201968 
L 197.281979 37.167638 
L 197.356119 36.783623 
L 197.405546 35.288701 
L 197.652681 18.33736 
L 197.899816 17.894141 
L 197.973956 17.894141 
L 198.023384 17.636063 
L 198.146951 17.894141 
L 198.221092 17.894141 
L 198.270518 18.211182 
L 198.344659 18.17101 
L 198.394086 17.924556 
L 198.641221 18.424811 
L 198.715361 18.424811 
L 198.888356 19.782234 
L 199.011924 20.155046 
L 199.135492 20.155046 
L 199.456767 19.107377 
L 199.580335 18.887785 
L 199.629761 18.887785 
L 199.753329 19.107377 
L 199.827469 19.030887 
L 199.951037 19.030887 
L 200.124031 18.764377 
L 200.247599 18.652714 
L 200.32174 18.764377 
L 200.445307 19.310888 
L 200.494734 19.310888 
L 200.692442 18.596281 
L 200.81601 17.823493 
L 200.989004 17.831985 
L 201.161998 19.328475 
L 201.285566 19.399966 
L 201.483274 21.226264 
L 201.73041 37.368258 
L 201.853977 37.531658 
L 202.274106 38.953886 
L 202.471815 38.998515 
L 202.718949 38.692314 
L 202.768377 38.468265 
L 202.891944 37.179926 
L 203.015511 37.179926 
L 203.21322 38.624679 
L 203.386214 38.695567 
L 203.70749 39.102409 
L 203.831057 39.132763 
L 203.954625 39.341453 
L 204.251187 39.29815 
L 204.498321 39.153241 
L 205.066733 38.979423 
L 205.1903 38.892755 
L 205.313867 38.145143 
L 205.486862 37.055374 
L 205.561002 37.039052 
L 205.733997 35.580266 
L 205.857564 35.580266 
L 205.931705 35.744748 
L 206.1047 37.41638 
L 206.302408 37.41638 
L 206.425975 33.389286 
L 206.722537 32.318187 
L 206.920245 32.332581 
L 207.093239 34.512962 
L 207.216807 34.616434 
L 207.290948 34.512962 
L 207.463942 33.285692 
L 208.403056 32.598489 
L 208.57605 32.784353 
L 208.699618 32.896557 
L 208.897326 33.021832 
L 208.946752 33.021832 
L 209.144461 27.758854 
L 209.441023 14.321345 
L 209.441023 14.321345 
" clip-path="url(#pb5b7ccb66f)" style="fill: none; stroke: #5c80b5; stroke-width: 0.5; stroke-linecap: square"/>
   </g>
  </g>
 </g>
 <defs>
  <clipPath id="pb5b7ccb66f">
   <rect x="2.125984" y="0.425197" width="208.346457" height="41.669291"/>
  </clipPath>
 </defs>
</svg>
