<?xml version="1.0" encoding="utf-8" standalone="no"?>
<!DOCTYPE svg PUBLIC "-//W3C//DTD SVG 1.1//EN"
  "http://www.w3.org/Graphics/SVG/1.1/DTD/svg11.dtd">
<svg xmlns:xlink="http://www.w3.org/1999/xlink" width="212.598425pt" height="42.519685pt" viewBox="0 0 212.598425 42.519685" xmlns="http://www.w3.org/2000/svg" version="1.1">
 <metadata>
  <rdf:RDF xmlns:dc="http://purl.org/dc/elements/1.1/" xmlns:cc="http://creativecommons.org/ns#" xmlns:rdf="http://www.w3.org/1999/02/22-rdf-syntax-ns#">
   <cc:Work>
    <dc:type rdf:resource="http://purl.org/dc/dcmitype/StillImage"/>
    <dc:date>2026-06-01T17:59:33.170376</dc:date>
    <dc:format>image/svg+xml</dc:format>
    <dc:creator>
     <cc:Agent>
      <dc:title>Matplotlib v3.10.8, https://matplotlib.org/</dc:title>
     </cc:Agent>
    </dc:creator>
   </cc:Work>
  </rdf:RDF>
 </metadata>
 <defs>
  <style type="text/css">*{stroke-linejoin: round; stroke-linecap: butt}</style>
 </defs>
 <g id="figure_1">
  <g id="patch_1">
   <path d="M 0 42.519685 
L 212.598425 42.519685 
L 212.598425 0 
L 0 0 
z
" style="fill: #ffffff"/>
  </g>
  <g id="axes_1">
   <g id="patch_2">
    <path d="M 2.125984 42.094488 
L 210.472441 42.094488 
L 210.472441 0.425197 
L 2.125984 0.425197 
z
" style="fill: #eaeaf2"/>
   </g>
   <g id="matplotlib.axis_1">
    <g id="xtick_1">
     <g id="line2d_1">
      <path d="M 3.157402 42.094488 
L 3.157402 0.425197 
" clip-path="url(#pf899f3d7ca)" style="fill: none; stroke: #ffffff; stroke-width: 0.9; stroke-linecap: square"/>
     </g>
    </g>
    <g id="xtick_2">
     <g id="line2d_2">
      <path d="M 47.59727 42.094488 
L 47.59727 0.425197 
" clip-path="url(#pf899f3d7ca)" style="fill: none; stroke: #ffffff; stroke-width: 0.9; stroke-linecap: square"/>
     </g>
    </g>
    <g id="xtick_3">
     <g id="line2d_3">
      <path d="M 92.037138 42.094488 
L 92.037138 0.425197 
" clip-path="url(#pf899f3d7ca)" style="fill: none; stroke: #ffffff; stroke-width: 0.9; stroke-linecap: square"/>
     </g>
    </g>
    <g id="xtick_4">
     <g id="line2d_4">
      <path d="M 136.477006 42.094488 
L 136.477006 0.425197 
" clip-path="url(#pf899f3d7ca)" style="fill: none; stroke: #ffffff; stroke-width: 0.9; stroke-linecap: square"/>
     </g>
    </g>
    <g id="xtick_5">
     <g id="line2d_5">
      <path d="M 180.916874 42.094488 
L 180.916874 0.425197 
" clip-path="url(#pf899f3d7ca)" style="fill: none; stroke: #ffffff; stroke-width: 0.9; stroke-linecap: square"/>
     </g>
    </g>
    <g id="xtick_6">
     <g id="line2d_6">
      <path d="M 25.377336 42.094488 
L 25.377336 0.425197 
" clip-path="url(#pf899f3d7ca)" style="fill: none; stroke: #ffffff; stroke-opacity: 0.9; stroke-width: 0.55; stroke-linecap: square"/>
     </g>
    </g>
    <g id="xtick_7">
     <g id="line2d_7">
      <path d="M 69.817204 42.094488 
L 69.817204 0.425197 
" clip-path="url(#pf899f3d7ca)" style="fill: none; stroke: #ffffff; stroke-opacity: 0.9; stroke-width: 0.55; stroke-linecap: square"/>
     </g>
    </g>
    <g id="xtick_8">
     <g id="line2d_8">
      <path d="M 114.257072 42.094488 
L 114.257072 0.425197 
" clip-path="url(#pf899f3d7ca)" style="fill: none; stroke: #ffffff; stroke-opacity: 0.9; stroke-width: 0.55; stroke-linecap: square"/>
     </g>
    </g>
    <g id="xtick_9">
     <g id="line2d_9">
      <path d="M 158.69694 42.094488 
L 158.69694 0.425197 
" clip-path="url(#pf899f3d7ca)" style="fill: none; stroke: #ffffff; stroke-opacity: 0.9; stroke-width: 0.55; stroke-linecap: square"/>
     </g>
    </g>
    <g id="xtick_10">
     <g id="line2d_10">
      <path d="M 203.136808 42.094488 
L 203.136808 0.425197 
" clip-path="url(#pf899f3d7ca)" style="fill: none; stroke: #ffffff; stroke-opacity: 0.9; stroke-width: 0.55; stroke-linecap: square"/>
     </g>
    </g>
   </g>
   <g id="matplotlib.axis_2">
    <g id="ytick_1">
     <g id="line2d_11">
      <path d="M 2.125984 30.092917 
L 210.472441 30.092917 
" clip-path="url(#pf899f3d7ca)" style="fill: none; stroke: #ffffff; stroke-width: 0.9; stroke-linecap: square"/>
     </g>
    </g>
    <g id="ytick_2">
     <g id="line2d_12">
      <path d="M 2.125984 16.326791 
L 210.472441 16.326791 
" clip-path="url(#pf899f3d7ca)" style="fill: none; stroke: #ffffff; stroke-width: 0.9; stroke-linecap: square"/>
     </g>
    </g>
    <g id="ytick_3">
     <g id="line2d_13">
      <path d="M 2.125984 2.560664 
L 210.472441 2.560664 
" clip-path="url(#pf899f3d7ca)" style="fill: none; stroke: #ffffff; stroke-width: 0.9; stroke-linecap: square"/>
     </g>
    </g>
    <g id="ytick_4">
     <g id="line2d_14">
      <path d="M 2.125984 36.975981 
L 210.472441 36.975981 
" clip-path="url(#pf899f3d7ca)" style="fill: none; stroke: #ffffff; stroke-opacity: 0.9; stroke-width: 0.55; stroke-linecap: square"/>
     </g>
    </g>
    <g id="ytick_5">
     <g id="line2d_15">
      <path d="M 2.125984 23.209854 
L 210.472441 23.209854 
" clip-path="url(#pf899f3d7ca)" style="fill: none; stroke: #ffffff; stroke-opacity: 0.9; stroke-width: 0.55; stroke-linecap: square"/>
     </g>
    </g>
    <g id="ytick_6">
     <g id="line2d_16">
      <path d="M 2.125984 9.443727 
L 210.472441 9.443727 
" clip-path="url(#pf899f3d7ca)" style="fill: none; stroke: #ffffff; stroke-opacity: 0.9; stroke-width: 0.55; stroke-linecap: square"/>
     </g>
    </g>
   </g>
   <g id="line2d_17">
    <path d="M 3.157402 14.978986 
L 3.231543 15.396039 
L 3.28097 15.087948 
L 3.404538 14.779858 
L 3.478678 14.779858 
L 3.651672 9.65092 
L 3.77524 9.543181 
L 3.972948 9.482255 
L 4.393077 10.628196 
L 4.467218 10.628196 
L 4.516645 10.514697 
L 4.640213 9.844647 
L 4.76378 9.844647 
L 4.887348 10.38204 
L 5.134482 12.469826 
L 5.25805 12.794481 
L 5.381618 12.794481 
L 5.505185 11.782637 
L 5.702894 11.782637 
L 5.826461 12.177148 
L 5.999456 12.272066 
L 6.073596 12.407172 
L 6.24659 16.512597 
L 6.493725 16.561713 
L 6.691433 15.883597 
L 6.740861 15.883309 
L 6.864428 15.211962 
L 7.062136 15.211962 
L 7.185704 16.016253 
L 7.309271 16.425744 
L 7.482266 16.880174 
L 7.803541 16.840421 
L 7.976536 16.661962 
L 8.050676 16.623792 
L 8.174243 15.609643 
L 8.594374 12.283301 
L 8.792081 12.283301 
L 9.039217 12.333138 
L 9.212211 12.371162 
L 9.459346 12.574828 
L 9.904189 12.493881 
L 10.077184 12.826169 
L 10.200751 13.14002 
L 10.522027 14.887884 
L 10.818589 11.36724 
L 10.892729 11.36724 
L 11.065723 11.778028 
L 11.263432 12.273939 
L 11.510567 12.173835 
L 11.634135 11.855374 
L 11.807129 11.953318 
L 12.128404 11.999265 
L 12.301399 12.039451 
L 12.499107 12.151078 
L 12.746242 12.082084 
L 12.993377 11.845147 
L 13.042804 11.760311 
L 13.166372 11.343618 
L 13.413507 11.393454 
L 13.734782 15.441986 
L 13.907777 16.839269 
L 14.229053 20.324769 
L 14.278479 20.324769 
L 14.525615 16.803115 
L 14.772749 16.213149 
L 15.094025 16.10109 
L 15.390587 16.134362 
L 15.563582 16.263129 
L 15.687149 16.263129 
L 15.810716 14.802039 
L 16.304987 6.175646 
L 16.552121 9.663018 
L 16.922824 9.72193 
L 17.169959 10.534862 
L 17.367667 11.60605 
L 17.491235 11.74922 
L 17.540662 11.74922 
L 17.787797 10.838056 
L 17.911364 10.838056 
L 18.109072 11.677202 
L 18.282067 11.833049 
L 18.603343 11.868481 
L 18.65277 11.868481 
L 18.72691 11.736401 
L 18.899905 10.763445 
L 19.097613 10.65081 
L 19.147039 10.65081 
L 19.270607 11.590637 
L 19.517742 11.598559 
L 19.64131 10.840503 
L 19.888445 10.933263 
L 20.012013 11.418516 
L 20.20972 13.878776 
L 20.70399 14.606151 
L 20.951125 14.6086 
L 21.247687 16.437267 
L 21.371255 16.437267 
L 21.568963 14.555019 
L 21.741957 13.289673 
L 21.989093 7.437104 
L 22.063233 7.334696 
L 22.236228 6.837775 
L 22.310368 6.837775 
L 22.433936 6.317809 
L 22.557503 6.317809 
L 22.977633 8.948462 
L 23.1012 8.999594 
L 23.422476 13.671077 
L 23.546043 13.812232 
L 23.59547 13.812232 
L 23.669611 13.460786 
L 23.719038 13.708527 
L 24.460443 13.73186 
L 24.707578 15.290318 
L 24.905286 15.494703 
L 25.028854 15.494703 
L 25.201848 15.255173 
L 25.572551 15.341738 
L 25.770259 10.892501 
L 25.819686 10.892501 
L 26.017394 11.853646 
L 26.190388 13.345702 
L 26.388097 13.345702 
L 26.561091 14.186866 
L 26.808226 15.009881 
L 27.178929 20.209108 
L 27.253069 20.223656 
L 27.426064 20.823418 
L 27.549631 20.823418 
L 27.623772 20.383823 
L 27.870907 16.408748 
L 27.96976 15.992775 
L 28.464031 13.54159 
L 28.661739 13.160473 
L 28.908874 13.205125 
L 29.081868 13.339365 
L 29.279577 13.339365 
L 29.452571 13.885834 
L 29.650279 13.885834 
L 29.897414 13.171564 
L 30.070409 13.082119 
L 30.564678 13.271237 
L 30.638819 13.341238 
L 31.058949 23.169457 
L 31.306083 34.729841 
L 31.429651 34.729841 
L 31.800354 30.888142 
L 31.923921 29.440159 
L 32.171057 17.669053 
L 32.368764 17.669053 
L 32.418191 17.23234 
L 32.541759 17.759363 
L 32.6159 17.759363 
L 32.788894 16.716839 
L 32.863034 16.653032 
L 33.036029 15.738554 
L 33.233737 14.849139 
L 33.406732 14.755372 
L 33.530299 14.858933 
L 33.604439 14.908193 
L 33.777434 15.352684 
L 34.024569 15.401512 
L 34.222277 14.846546 
L 34.395272 14.755372 
L 34.642407 14.788356 
L 34.963682 14.424956 
L 35.013109 14.424956 
L 35.260244 14.890333 
L 35.383812 15.134039 
L 35.50738 17.401581 
L 35.630947 17.401581 
L 35.952223 14.197237 
L 36.125217 14.197237 
L 36.322925 15.754974 
L 36.372352 15.873658 
L 36.57006 16.679534 
L 36.817195 17.07102 
L 36.940762 17.07102 
L 36.99019 16.882335 
L 37.113757 15.890367 
L 37.360893 15.999977 
L 37.48446 17.621954 
L 37.5586 17.621954 
L 37.805736 17.980169 
L 37.929303 19.123086 
L 37.97873 19.185309 
L 38.05287 19.526527 
L 38.176438 19.123086 
L 38.225865 19.112715 
L 38.300005 18.766743 
L 38.423573 17.859179 
L 38.670708 17.752162 
L 38.720135 17.752162 
L 39.214405 17.151536 
L 39.412113 16.974805 
L 39.53568 16.194856 
L 39.659248 16.079628 
L 39.832242 15.934297 
L 39.95581 15.934297 
L 40.079378 15.710899 
L 40.153518 15.710899 
L 40.252373 15.534312 
L 40.499507 13.881657 
L 40.623075 13.881657 
L 40.697216 14.32802 
L 40.820783 15.778164 
L 40.993778 15.778164 
L 41.117345 14.683498 
L 41.240912 14.683498 
L 41.438621 15.856231 
L 41.488047 16.366978 
L 41.685755 21.606679 
L 41.809323 21.879481 
L 41.982317 21.879481 
L 42.35302 14.956301 
L 42.476588 14.982083 
L 43.094425 19.05755 
L 43.168566 19.05755 
L 43.217993 19.17393 
L 43.292134 19.675459 
L 43.34156 21.025787 
L 43.465128 26.93064 
L 43.588696 26.93064 
L 43.909971 23.841668 
L 43.959398 23.841668 
L 44.157106 21.751434 
L 44.280673 21.592995 
L 44.700803 21.498076 
L 44.947938 17.655802 
L 45.022078 17.655802 
L 45.145646 18.601967 
L 45.269214 18.681043 
L 45.31864 18.844378 
L 45.565776 18.478385 
L 45.887052 18.478385 
L 46.183614 21.673511 
L 46.307181 22.029998 
L 46.504889 25.039318 
L 46.554316 25.199485 
L 46.677883 26.001903 
L 46.801451 26.001903 
L 46.925019 22.061685 
L 46.999159 22.061685 
L 47.122726 21.352745 
L 47.246294 23.020093 
L 47.369862 24.281263 
L 47.419289 24.281263 
L 47.666424 30.344699 
L 47.864132 30.297455 
L 48.111267 30.125909 
L 48.407829 30.548507 
L 48.729104 30.64645 
L 48.902099 31.517142 
L 49.025666 31.782454 
L 49.099807 31.782454 
L 49.396369 30.598921 
L 49.470509 30.598921 
L 49.767071 31.412573 
L 49.96478 31.412573 
L 50.211914 29.410488 
L 50.508476 24.408157 
L 50.582617 24.162866 
L 50.755612 19.087509 
L 50.879179 19.087509 
L 50.953319 18.585259 
L 51.002747 18.823205 
L 51.076887 18.609025 
L 51.200455 18.823205 
L 51.373449 18.609025 
L 51.44759 18.133998 
L 51.620584 15.615548 
L 51.694725 15.536329 
L 51.867719 8.858152 
L 51.991287 8.858152 
L 52.238422 12.558697 
L 52.361989 12.558697 
L 52.609124 14.018058 
L 52.782119 13.97283 
L 52.905686 12.647709 
L 53.103394 12.651887 
L 53.276389 13.034587 
L 53.647092 13.371773 
L 53.721232 13.255537 
L 54.017794 11.706297 
L 54.141361 11.584156 
L 54.264929 10.903448 
L 54.635632 4.262863 
L 55.080475 4.245148 
L 55.253469 4.416981 
L 55.32761 4.322927 
L 55.377037 3.964856 
L 55.500604 4.267904 
L 55.624172 3.603185 
L 55.74774 3.665407 
L 55.945448 4.294263 
L 56.192583 5.851568 
L 56.31615 6.053793 
L 56.365577 6.219865 
L 56.489145 7.8996 
L 56.686853 12.673204 
L 56.81042 13.348151 
L 56.933988 12.83798 
L 57.23055 12.936644 
L 57.551825 16.221071 
L 57.675393 16.377637 
L 57.79896 16.377637 
L 57.848387 15.755982 
L 58.046096 10.634102 
L 58.169663 10.434325 
L 58.342658 10.500294 
L 58.71336 17.255385 
L 59.084063 17.343246 
L 59.331197 17.426499 
L 59.949035 17.32409 
L 60.393878 17.196619 
L 60.641014 10.513112 
L 60.764581 10.513112 
L 60.888148 10.675152 
L 61.061143 10.57908 
L 61.308278 9.982057 
L 61.802548 9.912055 
L 62.420386 7.628814 
L 63.038223 6.89971 
L 63.408926 9.958147 
L 63.532494 14.042255 
L 63.656061 14.042255 
L 63.779628 12.63806 
L 63.977337 12.63806 
L 64.026763 12.770428 
L 64.150331 13.783857 
L 64.273899 13.783857 
L 64.397466 13.504717 
L 64.644601 10.967687 
L 64.768169 10.967687 
L 65.015304 11.543682 
L 65.509574 11.650413 
L 65.682568 11.675762 
L 65.929703 12.397665 
L 66.374546 12.614149 
L 66.498114 12.209699 
L 67.288946 11.514443 
L 67.536081 11.608786 
L 67.783216 11.697656 
L 68.401054 12.406595 
L 68.475194 12.406595 
L 68.598761 12.05515 
L 68.722329 12.05515 
L 68.845897 12.523263 
L 69.513161 12.422295 
L 69.883864 12.243548 
L 70.575842 11.932865 
L 70.748836 12.084677 
L 71.564382 12.170233 
L 71.860944 12.490568 
L 72.058653 12.588799 
L 72.231647 12.555815 
L 72.429355 12.45744 
L 73.912165 12.408036 
L 74.332295 11.700681 
L 74.57943 11.524958 
L 74.950133 10.462989 
L 75.0737 10.861677 
L 75.320835 11.44329 
L 75.518543 11.416356 
L 75.64211 11.286004 
L 75.765678 11.286004 
L 75.938672 11.626214 
L 76.136381 11.626214 
L 76.432943 10.470335 
L 76.507083 10.470335 
L 76.680077 11.694486 
L 76.803645 11.694486 
L 76.927213 11.412034 
L 77.001353 11.412034 
L 77.12492 10.561509 
L 77.248488 10.561509 
L 77.47091 8.778212 
L 77.594477 7.567167 
L 78.03932 7.286156 
L 78.088747 7.05253 
L 78.286456 7.323028 
L 78.53359 5.405347 
L 78.830152 3.804833 
L 79.027861 3.719708 
L 79.151428 3.803392 
L 79.324423 4.00677 
L 79.44799 4.048826 
L 79.571557 4.259983 
L 79.818693 4.155413 
L 80.510671 3.921356 
L 80.683665 4.795936 
L 81.054368 4.866659 
L 81.301503 5.066435 
L 81.42507 5.066435 
L 81.869913 4.557415 
L 82.166475 4.538114 
L 82.364184 4.719453 
L 82.660746 4.64614 
L 82.90788 4.358648 
L 83.105589 4.332433 
L 83.402151 2.904903 
L 83.476292 2.904903 
L 83.599859 3.285297 
L 83.896421 3.636888 
L 83.970561 3.336863 
L 84.143556 3.730798 
L 84.464831 3.786973 
L 84.761393 4.699289 
L 84.884961 4.903098 
L 85.008529 4.903098 
L 85.255664 4.706202 
L 85.453372 4.604513 
L 85.576939 4.496054 
L 85.700507 4.496054 
L 85.873501 4.956102 
L 86.441912 5.041373 
L 86.614906 5.400163 
L 86.862041 5.398146 
L 86.985609 4.899497 
L 87.183317 4.7775 
L 87.356311 4.935218 
L 87.727014 4.527024 
L 87.850582 4.552374 
L 88.04829 4.850814 
L 88.171857 4.850814 
L 88.295425 4.732848 
L 88.418992 4.732848 
L 88.542559 5.125632 
L 88.666127 5.125632 
L 88.962689 3.957221 
L 89.654667 4.063951 
L 90.000657 4.096071 
L 90.321932 3.976379 
L 90.618494 3.981131 
L 90.93977 4.038889 
L 91.483467 5.229048 
L 92.101304 5.142053 
L 92.472007 5.113677 
L 92.966277 5.213494 
L 93.163985 5.261601 
L 93.287552 8.899778 
L 93.460547 13.767004 
L 93.584114 13.767004 
L 93.707682 13.254384 
L 93.83125 11.251004 
L 93.954817 11.251004 
L 94.152525 14.247649 
L 94.201952 14.302382 
L 94.276093 14.777265 
L 94.39966 14.247649 
L 94.449087 14.247649 
L 94.943357 11.637305 
L 95.017498 11.583868 
L 95.141065 11.111577 
L 95.31406 11.209665 
L 95.437627 11.358453 
L 95.684762 11.947124 
L 95.88247 11.940211 
L 96.006038 11.648396 
L 96.549735 11.658622 
L 96.79687 10.961926 
L 96.920437 10.961926 
L 97.118146 12.890408 
L 97.29114 12.796354 
L 97.661842 11.83953 
L 97.78541 11.83953 
L 97.983118 12.542564 
L 98.032545 12.565609 
L 98.27968 17.62109 
L 98.403248 17.62109 
L 98.600956 16.372019 
L 98.650383 16.372019 
L 98.897518 17.485697 
L 99.021085 17.485697 
L 99.268221 16.795482 
L 99.342361 16.795482 
L 99.465929 16.923385 
L 99.515355 16.923385 
L 99.762491 18.046281 
L 99.960198 20.723457 
L 100.083766 20.723457 
L 100.207334 20.187071 
L 100.380328 20.014374 
L 100.578036 19.96785 
L 100.701604 18.315914 
L 100.825172 17.7271 
L 100.998166 17.765268 
L 101.245301 18.175192 
L 102.036133 18.186571 
L 102.110273 18.363158 
L 102.233841 21.238238 
L 102.604544 22.267079 
L 102.728111 22.158332 
L 102.777538 22.096253 
L 103.098814 17.687202 
L 103.222381 17.687202 
L 103.395376 15.792567 
L 103.518943 15.701825 
L 103.593084 15.438529 
L 103.889646 11.900169 
L 104.087354 7.561838 
L 104.631051 16.936924 
L 104.828759 21.502542 
L 104.952326 22.524181 
L 105.075894 22.524181 
L 105.125321 21.984914 
L 105.248889 18.24044 
L 105.496024 17.676255 
L 105.693732 15.796312 
L 105.743158 15.741147 
L 105.817299 15.037248 
L 106.064434 9.157745 
L 106.188001 9.157745 
L 106.311569 8.696976 
L 106.608132 10.748034 
L 106.731699 11.901033 
L 106.855266 11.901033 
L 107.423677 7.665831 
L 107.473104 7.665831 
L 107.670812 7.789557 
L 107.720239 7.789557 
L 107.843806 7.131318 
L 107.917947 7.117923 
L 108.165082 5.448702 
L 108.585212 5.538724 
L 108.708779 5.999924 
L 108.906487 6.837342 
L 109.153622 7.243089 
L 109.27719 7.56011 
L 109.450184 7.551756 
L 110.068022 3.640345 
L 110.191589 3.640345 
L 110.315157 2.319256 
L 110.438724 2.319256 
L 110.636432 3.462748 
L 110.68586 4.425909 
L 110.809427 9.814975 
L 110.883568 9.814975 
L 111.056562 11.860415 
L 111.18013 11.860415 
L 111.25427 12.47602 
L 111.427265 16.336155 
L 111.624973 16.444757 
L 111.674399 16.214733 
L 111.797967 14.085034 
L 111.995675 14.085034 
L 112.119242 14.815579 
L 112.292237 16.800235 
L 112.489945 17.560163 
L 112.613513 17.640102 
L 112.910075 16.984743 
L 113.15721 15.971314 
L 113.280778 15.70413 
L 113.354918 15.524086 
L 113.65148 12.527872 
L 113.898615 17.222401 
L 114.096323 17.138573 
L 114.14575 17.089889 
L 114.343458 11.936033 
L 114.442312 11.836938 
L 114.565879 12.073586 
L 114.689447 12.581453 
L 114.813015 13.166955 
L 114.936582 13.188705 
L 115.010722 13.314736 
L 115.06015 13.188705 
L 115.134291 13.166955 
L 115.257858 12.901211 
L 115.430853 13.299036 
L 115.62856 16.280125 
L 115.752128 16.280125 
L 115.925122 14.898687 
L 115.999263 14.898687 
L 116.04869 14.773808 
L 116.246398 14.984676 
L 116.369965 15.459126 
L 116.493533 15.459126 
L 116.617101 12.887528 
L 116.740668 12.887528 
L 116.913663 15.708883 
L 117.03723 15.708883 
L 117.482073 11.006721 
L 117.655068 11.006721 
L 117.852776 12.91187 
L 118.025771 15.149739 
L 118.272905 17.760227 
L 118.347046 17.768149 
L 118.52004 18.488612 
L 118.643608 18.604704 
L 118.767176 18.518139 
L 118.964883 18.604704 
L 119.137878 18.603408 
L 119.261445 16.948591 
L 119.582721 17.032131 
L 119.755715 18.133566 
L 119.829856 18.179801 
L 119.953424 18.383611 
L 120.002851 18.383611 
L 120.447694 20.127873 
L 120.49712 20.184478 
L 120.571261 21.001876 
L 120.744256 28.916304 
L 120.867823 28.916304 
L 121.189099 18.178361 
L 121.362094 16.924537 
L 121.485661 15.402953 
L 121.609228 15.402953 
L 121.732796 15.927672 
L 121.930504 15.844852 
L 122.054071 15.450916 
L 122.227066 15.450916 
L 122.350633 15.724295 
L 122.671909 15.753102 
L 122.844904 16.830627 
L 122.968471 17.029827 
L 123.092038 17.029827 
L 123.413314 15.372849 
L 123.586309 16.297121 
L 123.660449 16.297121 
L 123.907584 16.654615 
L 123.957012 16.654615 
L 124.154719 16.898755 
L 124.451281 16.898755 
L 124.574849 16.570787 
L 124.648989 16.545581 
L 124.896124 15.958351 
L 125.019692 15.958351 
L 125.14326 16.774309 
L 125.390394 16.904084 
L 125.513962 16.433234 
L 125.63753 15.037536 
L 125.761097 15.037536 
L 126.008232 16.952336 
L 126.255367 17.903398 
L 126.304794 17.903398 
L 126.428361 17.203965 
L 126.62607 15.545835 
L 127.095626 14.695165 
L 127.713464 11.995375 
L 127.837031 11.995375 
L 128.158307 11.229398 
L 128.281874 11.229398 
L 128.454869 17.814529 
L 128.578436 21.227291 
L 128.702004 21.227291 
L 128.825572 20.656192 
L 128.899712 20.656192 
L 138.463838 20.054415 
L 138.587406 20.891546 
L 138.710974 20.891546 
L 138.908681 17.939407 
L 139.131103 16.930731 
L 139.328811 16.930731 
L 139.501805 17.163491 
L 139.625373 17.163491 
L 139.823081 16.194136 
L 140.119643 16.194136 
L 140.243211 16.038867 
L 140.366778 16.038867 
L 140.490346 16.770996 
L 140.613913 18.14941 
L 140.935189 18.658285 
L 141.231751 21.863493 
L 141.429459 30.930199 
L 141.602454 30.930199 
L 141.800161 24.543118 
L 141.849588 24.072556 
L 142.047297 20.794322 
L 142.170864 20.191824 
L 142.343859 19.190206 
L 142.590993 18.789645 
L 143.085264 19.931265 
L 143.208831 19.873219 
L 143.530107 20.181021 
L 143.579534 20.309933 
L 143.826669 22.741098 
L 144.024377 22.741098 
L 144.197372 22.151419 
L 144.271512 22.134423 
L 144.444506 19.891367 
L 144.518647 19.738979 
L 144.691641 18.384474 
L 144.815209 18.384474 
L 145.012917 18.915531 
L 145.185911 19.270865 
L 145.507187 28.254465 
L 145.680182 33.21128 
L 145.803749 33.21128 
L 146.050884 25.025058 
L 146.298019 25.101829 
L 146.742862 34.580044 
L 146.86643 34.580044 
L 146.989997 34.27397 
L 147.039424 34.27397 
L 147.607835 18.015457 
L 147.904397 18.107207 
L 147.978538 18.212209 
L 148.027964 18.748739 
L 148.151532 22.637393 
L 148.2751 30.837585 
L 148.398667 30.870713 
L 148.596375 31.267817 
L 148.76937 32.780474 
L 149.016505 34.065552 
L 149.090645 34.065552 
L 149.214213 33.33227 
L 149.33778 34.518684 
L 149.461348 35.182398 
L 149.708482 35.182398 
L 149.832051 33.002573 
L 150.005045 19.21426 
L 150.32632 16.570356 
L 150.449888 17.171125 
L 150.573456 16.570356 
L 150.82059 19.161399 
L 151.24072 20.819384 
L 151.314861 20.819384 
L 151.537282 18.585547 
L 151.611423 18.550979 
L 151.66085 18.324844 
L 151.858557 18.585547 
L 151.982125 21.798677 
L 152.155119 31.479406 
L 152.278687 31.479406 
L 152.402255 26.443082 
L 152.525822 26.443082 
L 152.64939 27.76489 
L 152.847098 27.76489 
L 153.020093 17.288801 
L 153.341368 17.370181 
L 153.588503 17.832101 
L 153.761498 25.817251 
L 153.885065 25.817251 
L 154.082773 25.271647 
L 154.255768 21.268197 
L 154.329908 21.089018 
L 154.453475 19.212675 
L 154.62647 15.006712 
L 154.824178 15.006712 
L 155.071313 31.967827 
L 155.19488 35.815576 
L 155.318448 35.815576 
L 155.615011 30.251653 
L 155.738578 31.672412 
L 155.862145 34.928177 
L 155.985713 37.78194 
L 156.10928 37.78194 
L 156.306988 34.986941 
L 156.801259 19.228951 
L 156.850685 19.228951 
L 157.048393 20.420552 
L 157.221388 20.409749 
L 157.344955 20.050814 
L 157.715658 20.007315 
L 157.839226 20.2902 
L 157.962793 22.240144 
L 158.036934 23.313492 
L 158.284069 30.234944 
L 158.407636 30.585093 
L 158.531204 30.585093 
L 158.704198 28.149319 
L 158.901906 27.543508 
L 159.025474 27.543508 
L 159.272609 25.074894 
L 159.396177 25.115224 
L 159.445603 25.602207 
L 159.766879 40.200429 
L 159.890447 40.200429 
L 160.014014 36.471077 
L 160.261149 21.438878 
L 160.384716 19.584717 
L 160.508284 17.412671 
L 160.557711 17.245591 
L 160.928414 13.650768 
L 161.126121 13.610727 
L 161.249689 13.412391 
L 161.496824 13.412391 
L 161.669819 14.448578 
L 161.793386 14.573888 
L 162.040521 24.192825 
L 162.287657 32.161266 
L 162.411224 33.268176 
L 162.534791 33.268176 
L 162.7325 32.128138 
L 162.781927 32.047623 
L 162.905494 30.247475 
L 163.350337 23.427712 
L 163.399764 23.209643 
L 163.646899 19.779596 
L 163.819894 15.256901 
L 163.943461 15.256901 
L 164.141169 18.076528 
L 164.264737 18.539744 
L 164.388304 18.091652 
L 164.511872 18.004366 
L 164.561299 17.969366 
L 164.684866 17.568373 
L 164.808434 17.568373 
L 164.932001 18.136879 
L 165.302704 18.151714 
L 165.426271 18.356676 
L 165.549839 18.356676 
L 165.673407 18.047433 
L 165.871114 18.040663 
L 165.994682 17.883521 
L 166.044109 17.883521 
L 166.291244 16.645973 
L 166.488952 16.645973 
L 166.661947 16.867067 
L 166.859655 16.912582 
L 166.909081 17.07851 
L 167.032649 18.503591 
L 167.353925 18.525052 
L 167.650487 20.69609 
L 167.774055 20.680103 
L 167.897622 20.305468 
L 168.021189 20.34018 
L 168.144757 20.864899 
L 168.342465 22.205576 
L 168.466032 22.205576 
L 168.51546 22.022796 
L 168.639027 19.336977 
L 168.762594 19.336977 
L 169.00973 21.504414 
L 169.133297 21.929317 
L 169.207437 21.929317 
L 169.751135 17.936526 
L 169.874702 17.20771 
L 169.948843 17.312279 
L 170.121837 17.787306 
L 170.195978 17.787306 
L 170.319545 18.339248 
L 170.616107 18.720508 
L 170.690248 18.945347 
L 170.863242 21.473302 
L 170.98681 23.742428 
L 171.06095 23.742428 
L 171.357512 31.348332 
L 171.604648 29.666151 
L 171.678788 29.652179 
L 171.802355 28.711487 
L 171.851783 28.711487 
L 171.97535 29.627981 
L 172.098917 34.273106 
L 172.222485 34.273106 
L 172.54376 20.240508 
L 172.716755 17.008365 
L 172.840323 17.008365 
L 173.038031 14.883131 
L 173.161598 14.752491 
L 173.211025 14.752491 
L 173.408734 14.613065 
L 173.655868 14.729014 
L 173.779436 15.017947 
L 173.903003 14.729014 
L 174.323133 16.734555 
L 174.397273 16.734555 
L 174.520841 17.709095 
L 174.693835 22.645314 
L 174.940971 22.982356 
L 175.064538 22.804185 
L 175.262246 21.945737 
L 175.509381 18.04196 
L 175.558808 18.04196 
L 175.682376 18.413138 
L 175.756516 18.37468 
L 175.929511 18.37468 
L 176.127219 17.872575 
L 176.473208 17.980169 
L 176.794483 18.172599 
L 176.967478 18.13443 
L 177.214613 17.607406 
L 177.338181 17.372629 
L 177.461748 17.372629 
L 177.585315 18.576473 
L 177.708883 18.576473 
L 177.906591 18.397726 
L 178.32672 17.87099 
L 179.018699 17.981897 
L 179.191694 18.042392 
L 179.438828 17.980889 
L 179.685963 17.003613 
L 179.809531 17.047543 
L 180.007239 17.14203 
L 180.130807 17.040485 
L 180.303801 16.833939 
L 180.501509 16.898611 
L 180.550936 16.985896 
L 180.748644 17.94416 
L 180.921638 17.958275 
L 181.119347 17.745824 
L 181.168774 17.745824 
L 181.242914 17.589402 
L 181.366481 17.128922 
L 181.490049 17.128922 
L 181.613617 17.352176 
L 181.737184 17.352176 
L 181.860752 17.239685 
L 181.984319 17.239685 
L 182.157314 18.169719 
L 182.528017 18.090644 
L 182.651584 17.996733 
L 182.898719 15.739706 
L 182.97286 15.739706 
L 183.096427 16.073579 
L 183.145854 16.073579 
L 183.269422 17.98449 
L 183.392989 17.98449 
L 183.640124 15.610219 
L 183.887259 15.569601 
L 184.134394 15.156509 
L 184.257961 15.156509 
L 184.332102 15.298815 
L 184.628664 17.691234 
L 184.752232 17.7971 
L 184.875799 18.206159 
L 184.999367 18.206159 
L 185.122935 17.383144 
L 185.246502 17.383144 
L 185.44421 19.818342 
L 185.567778 19.818342 
L 185.617204 19.677908 
L 185.86434 17.971959 
L 186.185615 17.889715 
L 186.35861 15.894111 
L 186.482177 15.894111 
L 186.679885 16.720728 
L 186.852879 16.720728 
L 186.92702 16.407884 
L 187.223582 13.51912 
L 187.470717 13.456466 
L 187.668425 13.880216 
L 188.088555 20.226249 
L 188.212122 21.185377 
L 188.33569 21.185377 
L 188.508684 18.549827 
L 188.706392 18.549827 
L 188.82996 20.236907 
L 188.953528 20.298266 
L 189.077095 21.175726 
L 189.200663 21.175726 
L 189.32423 20.506685 
L 189.620792 20.615719 
L 189.8185 20.692202 
L 189.991495 20.615719 
L 190.189203 18.737792 
L 190.436338 18.760694 
L 190.683473 21.029387 
L 190.856467 21.029387 
L 191.177743 17.984058 
L 191.30131 17.875023 
L 191.424878 17.399132 
L 191.548445 17.399132 
L 191.72144 20.999284 
L 191.845008 20.999284 
L 191.968575 20.391313 
L 192.166283 20.398514 
L 192.536986 18.804768 
L 192.660553 18.650651 
L 192.70998 18.804768 
L 192.833548 19.874804 
L 192.957115 19.342883 
L 193.031256 19.342883 
L 193.204251 18.074656 
L 193.327818 17.898069 
L 193.401958 17.898069 
L 193.69852 19.412452 
L 193.772661 19.412452 
L 193.822088 19.268705 
L 194.19279 17.320777 
L 194.266931 17.290242 
L 194.439925 17.054889 
L 194.934195 16.555952 
L 195.057763 17.128347 
L 195.255471 22.323828 
L 195.304898 22.467863 
L 195.428466 26.015442 
L 195.626174 33.071279 
L 195.6756 33.166486 
L 195.799168 33.731103 
L 195.873309 33.738304 
L 196.046303 34.117549 
L 196.169871 34.138001 
L 196.417006 34.73949 
L 196.540574 34.73949 
L 196.614714 34.307963 
L 196.787708 27.02916 
L 197.108984 26.159621 
L 197.232551 25.631013 
L 197.281979 25.631013 
L 197.529113 26.751028 
L 197.603254 26.751028 
L 198.097524 20.396786 
L 198.344659 20.388144 
L 198.517654 20.811174 
L 198.641221 22.116995 
L 198.764789 22.116995 
L 198.888356 20.560265 
L 199.011924 20.560265 
L 199.580335 16.852232 
L 199.753329 12.963722 
L 199.951037 12.963722 
L 200.000464 13.195618 
L 200.371167 16.870524 
L 200.494734 16.539676 
L 200.568874 16.539676 
L 200.692442 18.016177 
L 200.865436 19.187037 
L 200.914864 19.188766 
L 201.038431 19.724863 
L 201.161998 19.802786 
L 201.656269 22.425085 
L 201.73041 22.425085 
L 201.977544 23.38162 
L 202.521241 24.616288 
L 202.768377 24.325193 
L 202.891944 23.374563 
L 202.966084 23.374563 
L 203.089652 23.492959 
L 203.386214 23.475963 
L 203.583922 23.342299 
L 203.831057 23.912822 
L 203.954625 23.912822 
L 204.127619 23.285118 
L 204.325327 23.057398 
L 204.745457 23.706419 
L 204.819597 23.706419 
L 204.943165 23.940332 
L 205.116159 23.371827 
L 205.1903 23.949694 
L 205.363295 23.134457 
L 205.610429 23.785927 
L 205.733997 26.36199 
L 205.857564 26.376681 
L 205.931705 26.539586 
L 206.055272 26.376681 
L 206.1047 26.376681 
L 206.302408 24.50034 
L 206.475402 18.792957 
L 206.59897 18.792957 
L 206.722537 19.033208 
L 207.043813 25.539984 
L 207.216807 25.539984 
L 207.414515 24.546287 
L 207.538083 24.607646 
L 207.711077 25.267469 
L 207.834645 26.663023 
L 208.032353 26.654525 
L 208.452482 25.875729 
L 208.57605 25.927293 
L 208.946752 26.184827 
L 209.07032 27.310747 
L 209.144461 27.280069 
L 209.317455 27.280069 
L 209.441023 21.373918 
L 209.441023 21.373918 
" clip-path="url(#pf899f3d7ca)" style="fill: none; stroke: #5c80b5; stroke-width: 0.5; stroke-linecap: square"/>
   </g>
  </g>
 </g>
 <defs>
  <clipPath id="pf899f3d7ca">
   <rect x="2.125984" y="0.425197" width="208.346457" height="41.669291"/>
  </clipPath>
 </defs>
</svg>
