<?xml version="1.0" encoding="utf-8" standalone="no"?>
<!DOCTYPE svg PUBLIC "-//W3C//DTD SVG 1.1//EN"
  "http://www.w3.org/Graphics/SVG/1.1/DTD/svg11.dtd">
<svg xmlns:xlink="http://www.w3.org/1999/xlink" width="212.598425pt" height="42.519685pt" viewBox="0 0 212.598425 42.519685" xmlns="http://www.w3.org/2000/svg" version="1.1">
 <metadata>
  <rdf:RDF xmlns:dc="http://purl.org/dc/elements/1.1/" xmlns:cc="http://creativecommons.org/ns#" xmlns:rdf="http://www.w3.org/1999/02/22-rdf-syntax-ns#">
   <cc:Work>
    <dc:type rdf:resource="http://purl.org/dc/dcmitype/StillImage"/>
    <dc:date>2026-06-01T17:59:32.496349</dc:date>
    <dc:format>image/svg+xml</dc:format>
    <dc:creator>
     <cc:Agent>
      <dc:title>Matplotlib v3.10.8, https://matplotlib.org/</dc:title>
     </cc:Agent>
    </dc:creator>
   </cc:Work>
  </rdf:RDF>
 </metadata>
 <defs>
  <style type="text/css">*{stroke-linejoin: round; stroke-linecap: butt}</style>
 </defs>
 <g id="figure_1">
  <g id="patch_1">
   <path d="M 0 42.519685 
L 212.598425 42.519685 
L 212.598425 0 
L 0 0 
z
" style="fill: #ffffff"/>
  </g>
  <g id="axes_1">
   <g id="patch_2">
    <path d="M 2.125984 42.094488 
L 210.472441 42.094488 
L 210.472441 0.425197 
L 2.125984 0.425197 
z
" style="fill: #eaeaf2"/>
   </g>
   <g id="matplotlib.axis_1">
    <g id="xtick_1">
     <g id="line2d_1">
      <path d="M 3.157402 42.094488 
L 3.157402 0.425197 
" clip-path="url(#pee35c5ae0f)" style="fill: none; stroke: #ffffff; stroke-width: 0.9; stroke-linecap: square"/>
     </g>
    </g>
    <g id="xtick_2">
     <g id="line2d_2">
      <path d="M 47.59727 42.094488 
L 47.59727 0.425197 
" clip-path="url(#pee35c5ae0f)" style="fill: none; stroke: #ffffff; stroke-width: 0.9; stroke-linecap: square"/>
     </g>
    </g>
    <g id="xtick_3">
     <g id="line2d_3">
      <path d="M 92.037138 42.094488 
L 92.037138 0.425197 
" clip-path="url(#pee35c5ae0f)" style="fill: none; stroke: #ffffff; stroke-width: 0.9; stroke-linecap: square"/>
     </g>
    </g>
    <g id="xtick_4">
     <g id="line2d_4">
      <path d="M 136.477006 42.094488 
L 136.477006 0.425197 
" clip-path="url(#pee35c5ae0f)" style="fill: none; stroke: #ffffff; stroke-width: 0.9; stroke-linecap: square"/>
     </g>
    </g>
    <g id="xtick_5">
     <g id="line2d_5">
      <path d="M 180.916874 42.094488 
L 180.916874 0.425197 
" clip-path="url(#pee35c5ae0f)" style="fill: none; stroke: #ffffff; stroke-width: 0.9; stroke-linecap: square"/>
     </g>
    </g>
    <g id="xtick_6">
     <g id="line2d_6">
      <path d="M 25.377336 42.094488 
L 25.377336 0.425197 
" clip-path="url(#pee35c5ae0f)" style="fill: none; stroke: #ffffff; stroke-opacity: 0.9; stroke-width: 0.55; stroke-linecap: square"/>
     </g>
    </g>
    <g id="xtick_7">
     <g id="line2d_7">
      <path d="M 69.817204 42.094488 
L 69.817204 0.425197 
" clip-path="url(#pee35c5ae0f)" style="fill: none; stroke: #ffffff; stroke-opacity: 0.9; stroke-width: 0.55; stroke-linecap: square"/>
     </g>
    </g>
    <g id="xtick_8">
     <g id="line2d_8">
      <path d="M 114.257072 42.094488 
L 114.257072 0.425197 
" clip-path="url(#pee35c5ae0f)" style="fill: none; stroke: #ffffff; stroke-opacity: 0.9; stroke-width: 0.55; stroke-linecap: square"/>
     </g>
    </g>
    <g id="xtick_9">
     <g id="line2d_9">
      <path d="M 158.69694 42.094488 
L 158.69694 0.425197 
" clip-path="url(#pee35c5ae0f)" style="fill: none; stroke: #ffffff; stroke-opacity: 0.9; stroke-width: 0.55; stroke-linecap: square"/>
     </g>
    </g>
    <g id="xtick_10">
     <g id="line2d_10">
      <path d="M 203.136808 42.094488 
L 203.136808 0.425197 
" clip-path="url(#pee35c5ae0f)" style="fill: none; stroke: #ffffff; stroke-opacity: 0.9; stroke-width: 0.55; stroke-linecap: square"/>
     </g>
    </g>
   </g>
   <g id="matplotlib.axis_2">
    <g id="ytick_1">
     <g id="line2d_11">
      <path d="M 2.125984 31.910403 
L 210.472441 31.910403 
" clip-path="url(#pee35c5ae0f)" style="fill: none; stroke: #ffffff; stroke-width: 0.9; stroke-linecap: square"/>
     </g>
    </g>
    <g id="ytick_2">
     <g id="line2d_12">
      <path d="M 2.125984 19.219043 
L 210.472441 19.219043 
" clip-path="url(#pee35c5ae0f)" style="fill: none; stroke: #ffffff; stroke-width: 0.9; stroke-linecap: square"/>
     </g>
    </g>
    <g id="ytick_3">
     <g id="line2d_13">
      <path d="M 2.125984 6.527683 
L 210.472441 6.527683 
" clip-path="url(#pee35c5ae0f)" style="fill: none; stroke: #ffffff; stroke-width: 0.9; stroke-linecap: square"/>
     </g>
    </g>
    <g id="ytick_4">
     <g id="line2d_14">
      <path d="M 2.125984 38.256083 
L 210.472441 38.256083 
" clip-path="url(#pee35c5ae0f)" style="fill: none; stroke: #ffffff; stroke-opacity: 0.9; stroke-width: 0.55; stroke-linecap: square"/>
     </g>
    </g>
    <g id="ytick_5">
     <g id="line2d_15">
      <path d="M 2.125984 25.564723 
L 210.472441 25.564723 
" clip-path="url(#pee35c5ae0f)" style="fill: none; stroke: #ffffff; stroke-opacity: 0.9; stroke-width: 0.55; stroke-linecap: square"/>
     </g>
    </g>
    <g id="ytick_6">
     <g id="line2d_16">
      <path d="M 2.125984 12.873363 
L 210.472441 12.873363 
" clip-path="url(#pee35c5ae0f)" style="fill: none; stroke: #ffffff; stroke-opacity: 0.9; stroke-width: 0.55; stroke-linecap: square"/>
     </g>
    </g>
   </g>
   <g id="line2d_17">
    <path d="M 3.157402 23.96564 
L 6.123023 23.96564 
L 6.24659 29.377237 
L 6.444299 29.377237 
L 6.567866 23.96564 
L 13.289939 23.96564 
L 13.413507 29.377237 
L 13.537074 29.377237 
L 13.660641 34.788832 
L 13.907777 34.788832 
L 14.031344 40.200429 
L 14.525615 40.200429 
L 14.649182 34.788832 
L 15.687149 34.788832 
L 15.810716 29.377237 
L 16.428554 29.377237 
L 16.552121 23.96564 
L 19.517742 23.96564 
L 19.64131 29.377237 
L 21.494823 29.377237 
L 21.61839 23.96564 
L 23.546043 23.96564 
L 23.669611 29.377237 
L 24.831146 29.377237 
L 24.954713 23.96564 
L 25.325416 23.96564 
L 25.448983 29.377237 
L 26.758799 29.377237 
L 26.882366 34.788832 
L 26.931793 34.788832 
L 27.055361 40.200429 
L 27.623772 40.200429 
L 27.747339 34.788832 
L 27.796766 34.788832 
L 27.96976 29.377237 
L 30.885954 29.377237 
L 31.058949 40.200429 
L 31.998062 40.200429 
L 32.121629 13.142448 
L 33.036029 13.142448 
L 33.159596 18.554044 
L 36.446493 18.554044 
L 36.57006 13.142448 
L 38.917843 13.142448 
L 39.041411 18.554044 
L 40.37594 18.554044 
L 40.499507 23.96564 
L 41.240912 23.96564 
L 41.36448 29.377237 
L 41.611615 29.377237 
L 41.735183 34.788832 
L 41.932891 34.788832 
L 42.180026 18.554044 
L 42.674296 18.554044 
L 42.797863 13.142448 
L 42.970858 13.142448 
L 43.094425 7.730852 
L 43.662836 7.730852 
L 43.786403 2.319256 
L 44.082965 2.319256 
L 44.206533 7.730852 
L 44.330101 7.730852 
L 44.453668 2.319256 
L 44.774944 2.319256 
L 44.898511 7.730852 
L 45.565776 7.730852 
L 45.689343 2.319256 
L 46.925019 2.319256 
L 47.048586 7.730852 
L 47.172153 7.730852 
L 47.295721 2.319256 
L 50.755612 2.319256 
L 50.879179 7.730852 
L 51.324022 7.730852 
L 51.44759 13.142448 
L 51.744152 13.142448 
L 51.991287 23.96564 
L 55.698312 23.96564 
L 55.82188 29.377237 
L 57.848387 29.377237 
L 57.971955 34.788832 
L 58.29323 34.788832 
L 58.416798 29.377237 
L 63.112363 29.377237 
L 63.235932 23.96564 
L 63.779628 23.96564 
L 63.903196 29.377237 
L 64.471606 29.377237 
L 64.595174 23.96564 
L 74.406435 23.96564 
L 74.530002 18.554044 
L 74.900705 18.554044 
L 75.024273 23.96564 
L 75.691538 23.96564 
L 75.815105 18.554044 
L 76.55651 18.554044 
L 76.680077 23.96564 
L 76.754218 23.96564 
L 76.877786 29.377237 
L 77.174348 29.377237 
L 77.347342 23.96564 
L 77.421482 23.96564 
L 77.54505 18.554044 
L 77.915753 18.554044 
L 78.03932 23.96564 
L 83.155016 23.96564 
L 83.278583 29.377237 
L 83.970561 29.377237 
L 84.094129 23.96564 
L 92.966277 23.96564 
L 93.089844 29.377237 
L 93.460547 29.377237 
L 93.584114 34.788832 
L 93.83125 34.788832 
L 94.078385 23.96564 
L 95.141065 23.96564 
L 95.264633 18.554044 
L 96.549735 18.554044 
L 96.673303 23.96564 
L 97.488848 23.96564 
L 97.612416 18.554044 
L 98.724523 18.554044 
L 98.848091 13.142448 
L 103.271808 13.142448 
L 103.395376 18.554044 
L 104.136781 18.554044 
L 104.383916 29.377237 
L 105.001753 29.377237 
L 105.125321 40.200429 
L 105.693732 40.200429 
L 105.990294 18.554044 
L 106.237429 18.554044 
L 106.360996 23.96564 
L 106.558704 23.96564 
L 106.682272 29.377237 
L 107.843806 29.377237 
L 107.967374 23.96564 
L 108.041514 23.96564 
L 108.165082 18.554044 
L 109.524325 18.554044 
L 109.697319 29.377237 
L 111.501405 29.377237 
L 111.624973 34.788832 
L 111.74854 34.788832 
L 111.872108 40.200429 
L 112.045102 40.200429 
L 112.292237 29.377237 
L 112.860648 29.377237 
L 112.984216 23.96564 
L 114.022183 23.96564 
L 114.14575 29.377237 
L 114.64002 29.377237 
L 114.763588 34.788832 
L 115.999263 34.788832 
L 116.12283 29.377237 
L 116.617101 29.377237 
L 116.740668 23.96564 
L 117.407933 23.96564 
L 117.5315 18.554044 
L 117.778635 18.554044 
L 117.902202 13.142448 
L 120.373553 13.142448 
L 120.49712 7.730852 
L 121.114958 7.730852 
L 121.238526 13.142448 
L 121.362094 13.142448 
L 121.485661 18.554044 
L 128.331302 18.554044 
L 128.454869 13.142448 
L 128.702004 13.142448 
L 128.825572 7.730852 
L 128.899712 7.730852 
L 138.587406 13.142448 
L 140.984616 13.142448 
L 141.108183 7.730852 
L 142.096723 7.730852 
L 142.220291 13.142448 
L 143.332398 13.142448 
L 143.455966 7.730852 
L 144.444506 7.730852 
L 144.568074 13.142448 
L 144.889349 13.142448 
L 145.012917 7.730852 
L 146.545154 7.730852 
L 146.668721 13.142448 
L 151.611423 13.142448 
L 151.73499 7.730852 
L 152.847098 7.730852 
L 152.970665 13.142448 
L 153.464936 13.142448 
L 153.588503 7.730852 
L 153.63793 7.730852 
L 153.761498 2.319256 
L 154.082773 2.319256 
L 154.206341 7.730852 
L 155.367875 7.730852 
L 155.491443 13.142448 
L 156.801259 13.142448 
L 156.924826 7.730852 
L 160.261149 7.730852 
L 160.434144 18.554044 
L 160.508284 18.554044 
L 160.631852 23.96564 
L 161.249689 23.96564 
L 161.373257 29.377237 
L 161.669819 29.377237 
L 161.916954 40.200429 
L 163.22677 40.200429 
L 163.350337 7.730852 
L 163.646899 7.730852 
L 163.819894 13.142448 
L 164.511872 13.142448 
L 164.635439 18.554044 
L 165.302704 18.554044 
L 165.426271 13.142448 
L 166.291244 13.142448 
L 166.414812 18.554044 
L 166.859655 18.554044 
L 166.983222 13.142448 
L 170.616107 13.142448 
L 170.739675 7.730852 
L 170.937383 7.730852 
L 171.110378 18.554044 
L 171.431653 18.554044 
L 171.555221 13.142448 
L 172.222485 13.142448 
L 172.346053 7.730852 
L 172.46962 7.730852 
L 172.593188 13.142448 
L 172.716755 13.142448 
L 172.840323 18.554044 
L 174.520841 18.554044 
L 174.644409 13.142448 
L 174.817403 13.142448 
L 174.940971 7.730852 
L 175.262246 7.730852 
L 175.385814 13.142448 
L 176.003652 13.142448 
L 176.127219 18.554044 
L 177.535889 18.554044 
L 177.659456 13.142448 
L 179.562396 13.142448 
L 179.685963 18.554044 
L 182.107887 18.554044 
L 182.231455 13.142448 
L 183.516556 13.142448 
L 183.640124 18.554044 
L 184.38153 18.554044 
L 184.505097 13.142448 
L 185.814912 13.142448 
L 185.93848 18.554044 
L 186.605745 18.554044 
L 186.729312 13.142448 
L 186.852879 18.554044 
L 187.964987 18.554044 
L 188.088555 13.142448 
L 188.162696 13.142448 
L 188.286263 7.730852 
L 188.459258 7.730852 
L 188.582825 13.142448 
L 190.065635 13.142448 
L 190.189203 18.554044 
L 190.362197 18.554044 
L 190.485765 13.142448 
L 190.856467 13.142448 
L 190.980035 18.554044 
L 191.350738 18.554044 
L 191.474305 13.142448 
L 192.21571 13.142448 
L 192.339277 7.730852 
L 192.462845 7.730852 
L 192.586413 13.142448 
L 193.822088 13.142448 
L 193.945656 18.554044 
L 195.057763 18.554044 
L 195.304898 7.730852 
L 195.428466 7.730852 
L 195.6756 18.554044 
L 196.540574 18.554044 
L 196.664141 13.142448 
L 197.603254 13.142448 
L 197.726822 7.730852 
L 197.776249 7.730852 
L 197.899816 2.319256 
L 198.023384 2.319256 
L 198.146951 7.730852 
L 198.517654 7.730852 
L 198.641221 2.319256 
L 198.83893 2.319256 
L 199.011924 13.142448 
L 199.259059 13.142448 
L 199.382626 18.554044 
L 200.124031 18.554044 
L 200.247599 13.142448 
L 200.371167 13.142448 
L 200.494734 18.554044 
L 201.285566 18.554044 
L 201.409134 13.142448 
L 201.606841 13.142448 
L 201.73041 2.319256 
L 201.853977 2.319256 
L 201.977544 7.730852 
L 202.768377 7.730852 
L 202.891944 2.319256 
L 205.931705 2.319256 
L 206.055272 13.142448 
L 206.425975 13.142448 
L 206.549543 7.730852 
L 206.67311 7.730852 
L 206.796677 13.142448 
L 207.414515 13.142448 
L 207.538083 7.730852 
L 207.711077 7.730852 
L 207.834645 13.142448 
L 209.441023 13.142448 
L 209.441023 13.142448 
" clip-path="url(#pee35c5ae0f)" style="fill: none; stroke: #5c80b5; stroke-width: 0.5; stroke-linecap: square"/>
   </g>
  </g>
 </g>
 <defs>
  <clipPath id="pee35c5ae0f">
   <rect x="2.125984" y="0.425197" width="208.346457" height="41.669291"/>
  </clipPath>
 </defs>
</svg>
