<?xml version="1.0" encoding="utf-8" standalone="no"?>
<!DOCTYPE svg PUBLIC "-//W3C//DTD SVG 1.1//EN"
  "http://www.w3.org/Graphics/SVG/1.1/DTD/svg11.dtd">
<svg xmlns:xlink="http://www.w3.org/1999/xlink" width="212.598425pt" height="42.519685pt" viewBox="0 0 212.598425 42.519685" xmlns="http://www.w3.org/2000/svg" version="1.1">
 <metadata>
  <rdf:RDF xmlns:dc="http://purl.org/dc/elements/1.1/" xmlns:cc="http://creativecommons.org/ns#" xmlns:rdf="http://www.w3.org/1999/02/22-rdf-syntax-ns#">
   <cc:Work>
    <dc:type rdf:resource="http://purl.org/dc/dcmitype/StillImage"/>
    <dc:date>2026-06-01T17:59:34.533626</dc:date>
    <dc:format>image/svg+xml</dc:format>
    <dc:creator>
     <cc:Agent>
      <dc:title>Matplotlib v3.10.8, https://matplotlib.org/</dc:title>
     </cc:Agent>
    </dc:creator>
   </cc:Work>
  </rdf:RDF>
 </metadata>
 <defs>
  <style type="text/css">*{stroke-linejoin: round; stroke-linecap: butt}</style>
 </defs>
 <g id="figure_1">
  <g id="patch_1">
   <path d="M 0 42.519685 
L 212.598425 42.519685 
L 212.598425 0 
L 0 0 
z
" style="fill: #ffffff"/>
  </g>
  <g id="axes_1">
   <g id="patch_2">
    <path d="M 2.125984 42.094488 
L 210.472441 42.094488 
L 210.472441 0.425197 
L 2.125984 0.425197 
z
" style="fill: #eaeaf2"/>
   </g>
   <g id="matplotlib.axis_1">
    <g id="xtick_1">
     <g id="line2d_1">
      <path d="M 3.157402 42.094488 
L 3.157402 0.425197 
" clip-path="url(#pe27159e137)" style="fill: none; stroke: #ffffff; stroke-width: 0.9; stroke-linecap: square"/>
     </g>
    </g>
    <g id="xtick_2">
     <g id="line2d_2">
      <path d="M 47.59727 42.094488 
L 47.59727 0.425197 
" clip-path="url(#pe27159e137)" style="fill: none; stroke: #ffffff; stroke-width: 0.9; stroke-linecap: square"/>
     </g>
    </g>
    <g id="xtick_3">
     <g id="line2d_3">
      <path d="M 92.037138 42.094488 
L 92.037138 0.425197 
" clip-path="url(#pe27159e137)" style="fill: none; stroke: #ffffff; stroke-width: 0.9; stroke-linecap: square"/>
     </g>
    </g>
    <g id="xtick_4">
     <g id="line2d_4">
      <path d="M 136.477006 42.094488 
L 136.477006 0.425197 
" clip-path="url(#pe27159e137)" style="fill: none; stroke: #ffffff; stroke-width: 0.9; stroke-linecap: square"/>
     </g>
    </g>
    <g id="xtick_5">
     <g id="line2d_5">
      <path d="M 180.916874 42.094488 
L 180.916874 0.425197 
" clip-path="url(#pe27159e137)" style="fill: none; stroke: #ffffff; stroke-width: 0.9; stroke-linecap: square"/>
     </g>
    </g>
    <g id="xtick_6">
     <g id="line2d_6">
      <path d="M 25.377336 42.094488 
L 25.377336 0.425197 
" clip-path="url(#pe27159e137)" style="fill: none; stroke: #ffffff; stroke-opacity: 0.9; stroke-width: 0.55; stroke-linecap: square"/>
     </g>
    </g>
    <g id="xtick_7">
     <g id="line2d_7">
      <path d="M 69.817204 42.094488 
L 69.817204 0.425197 
" clip-path="url(#pe27159e137)" style="fill: none; stroke: #ffffff; stroke-opacity: 0.9; stroke-width: 0.55; stroke-linecap: square"/>
     </g>
    </g>
    <g id="xtick_8">
     <g id="line2d_8">
      <path d="M 114.257072 42.094488 
L 114.257072 0.425197 
" clip-path="url(#pe27159e137)" style="fill: none; stroke: #ffffff; stroke-opacity: 0.9; stroke-width: 0.55; stroke-linecap: square"/>
     </g>
    </g>
    <g id="xtick_9">
     <g id="line2d_9">
      <path d="M 158.69694 42.094488 
L 158.69694 0.425197 
" clip-path="url(#pe27159e137)" style="fill: none; stroke: #ffffff; stroke-opacity: 0.9; stroke-width: 0.55; stroke-linecap: square"/>
     </g>
    </g>
    <g id="xtick_10">
     <g id="line2d_10">
      <path d="M 203.136808 42.094488 
L 203.136808 0.425197 
" clip-path="url(#pe27159e137)" style="fill: none; stroke: #ffffff; stroke-opacity: 0.9; stroke-width: 0.55; stroke-linecap: square"/>
     </g>
    </g>
   </g>
   <g id="matplotlib.axis_2">
    <g id="ytick_1">
     <g id="line2d_11">
      <path d="M 2.125984 36.166792 
L 210.472441 36.166792 
" clip-path="url(#pe27159e137)" style="fill: none; stroke: #ffffff; stroke-width: 0.9; stroke-linecap: square"/>
     </g>
    </g>
    <g id="ytick_2">
     <g id="line2d_12">
      <path d="M 2.125984 25.289827 
L 210.472441 25.289827 
" clip-path="url(#pe27159e137)" style="fill: none; stroke: #ffffff; stroke-width: 0.9; stroke-linecap: square"/>
     </g>
    </g>
    <g id="ytick_3">
     <g id="line2d_13">
      <path d="M 2.125984 14.412861 
L 210.472441 14.412861 
" clip-path="url(#pe27159e137)" style="fill: none; stroke: #ffffff; stroke-width: 0.9; stroke-linecap: square"/>
     </g>
    </g>
    <g id="ytick_4">
     <g id="line2d_14">
      <path d="M 2.125984 3.535895 
L 210.472441 3.535895 
" clip-path="url(#pe27159e137)" style="fill: none; stroke: #ffffff; stroke-width: 0.9; stroke-linecap: square"/>
     </g>
    </g>
    <g id="ytick_5">
     <g id="line2d_15">
      <path d="M 2.125984 41.605275 
L 210.472441 41.605275 
" clip-path="url(#pe27159e137)" style="fill: none; stroke: #ffffff; stroke-opacity: 0.9; stroke-width: 0.55; stroke-linecap: square"/>
     </g>
    </g>
    <g id="ytick_6">
     <g id="line2d_16">
      <path d="M 2.125984 30.728309 
L 210.472441 30.728309 
" clip-path="url(#pe27159e137)" style="fill: none; stroke: #ffffff; stroke-opacity: 0.9; stroke-width: 0.55; stroke-linecap: square"/>
     </g>
    </g>
    <g id="ytick_7">
     <g id="line2d_17">
      <path d="M 2.125984 19.851344 
L 210.472441 19.851344 
" clip-path="url(#pe27159e137)" style="fill: none; stroke: #ffffff; stroke-opacity: 0.9; stroke-width: 0.55; stroke-linecap: square"/>
     </g>
    </g>
    <g id="ytick_8">
     <g id="line2d_18">
      <path d="M 2.125984 8.974378 
L 210.472441 8.974378 
" clip-path="url(#pe27159e137)" style="fill: none; stroke: #ffffff; stroke-opacity: 0.9; stroke-width: 0.55; stroke-linecap: square"/>
     </g>
    </g>
   </g>
   <g id="line2d_19">
    <path d="M 3.157402 31.570848 
L 3.528105 30.963917 
L 3.77524 28.633471 
L 3.898807 28.633471 
L 4.220083 31.916134 
L 4.393077 31.916134 
L 4.590786 31.240837 
L 4.714353 30.148069 
L 5.010915 29.381679 
L 5.25805 29.101851 
L 5.505185 29.674781 
L 5.628753 30.357169 
L 5.75232 30.357169 
L 6.197163 27.048505 
L 6.320731 26.953592 
L 6.740861 27.638162 
L 6.815001 27.638162 
L 6.987995 25.785005 
L 7.111563 25.785005 
L 7.309271 28.275639 
L 7.605833 29.28513 
L 8.050676 29.214037 
L 8.223671 28.955665 
L 8.347238 28.620379 
L 8.470806 28.620379 
L 8.594374 28.838205 
L 8.717941 28.838205 
L 8.915649 28.248729 
L 9.582913 28.201273 
L 9.706481 28.032358 
L 9.904189 28.142362 
L 10.151324 28.463464 
L 10.324318 28.540557 
L 10.447886 28.300731 
L 10.522027 28.300731 
L 10.818589 29.547867 
L 11.139864 29.640779 
L 11.312859 30.816639 
L 11.436426 30.816639 
L 11.559994 30.227345 
L 11.881269 30.051522 
L 12.004837 29.715508 
L 12.177831 29.463136 
L 12.251972 29.457136 
L 12.424966 28.985483 
L 12.622674 28.886025 
L 12.919236 28.869478 
L 13.240512 29.67569 
L 13.289939 30.012975 
L 13.413507 31.419207 
L 13.537074 31.419207 
L 13.660641 23.567835 
L 13.734782 23.334372 
L 13.784209 22.74326 
L 13.981917 19.388231 
L 14.105485 18.791119 
L 14.229053 15.760283 
L 14.35262 15.760283 
L 14.525615 17.050693 
L 14.723322 17.159787 
L 14.896317 17.918906 
L 15.019884 18.156732 
L 15.464727 17.841266 
L 15.563582 17.841266 
L 15.76129 20.579364 
L 15.810716 20.608638 
L 15.934284 23.447466 
L 16.057852 23.447466 
L 16.181419 23.282915 
L 16.304987 23.282915 
L 16.626262 28.604197 
L 16.873397 28.736746 
L 17.2441 29.768056 
L 17.367667 29.768056 
L 17.417095 29.632961 
L 17.540662 29.826968 
L 17.787797 29.632961 
L 17.985505 29.073487 
L 18.405634 28.998029 
L 18.65277 28.83275 
L 19.097613 28.93439 
L 19.468315 29.072577 
L 19.517742 29.089305 
L 19.839018 29.906425 
L 20.012013 28.775294 
L 20.259147 27.723256 
L 20.333288 27.512703 
L 20.753418 18.56511 
L 20.876985 18.895122 
L 21.000552 19.964797 
L 21.198261 23.227277 
L 21.321828 23.262733 
L 21.61839 27.658345 
L 21.741957 27.658345 
L 21.939666 26.171382 
L 22.11266 25.791914 
L 22.433936 25.119708 
L 22.483362 25.119708 
L 22.804638 27.331787 
L 23.051774 27.303423 
L 23.175341 27.515067 
L 23.224768 27.515067 
L 23.348336 28.881297 
L 23.546043 28.786748 
L 23.916746 25.824279 
L 24.040313 25.824279 
L 24.460443 28.249092 
L 25.201848 28.143634 
L 25.275989 27.989811 
L 25.448983 27.408154 
L 25.572551 27.227056 
L 25.819686 22.830899 
L 25.893826 22.837627 
L 26.066821 26.623035 
L 26.190388 27.90308 
L 26.313956 27.90308 
L 26.511664 20.955741 
L 26.635231 20.045891 
L 26.684659 20.045891 
L 26.758799 19.913704 
L 26.808226 20.045891 
L 26.931793 20.368084 
L 27.005934 20.368084 
L 27.178929 18.939487 
L 27.253069 18.939487 
L 27.426064 17.611985 
L 27.796766 21.756861 
L 27.96976 22.029416 
L 28.043901 22.029416 
L 28.216896 20.498998 
L 28.414603 20.498998 
L 28.587598 21.786498 
L 28.661739 21.786498 
L 28.834734 22.045417 
L 29.081868 22.045417 
L 29.403144 22.051053 
L 29.452571 22.162876 
L 29.576139 23.009997 
L 29.773846 23.175093 
L 30.638819 23.830935 
L 30.885954 21.185568 
L 30.935381 21.185568 
L 31.058949 15.079167 
L 31.182516 14.701517 
L 31.306083 2.319256 
L 31.429651 2.319256 
L 31.553219 3.720396 
L 31.750927 8.919311 
L 31.923921 10.531186 
L 32.171057 22.61471 
L 32.294624 23.646565 
L 32.368764 24.265496 
L 32.418191 24.189493 
L 32.788894 24.189493 
L 32.863034 24.318771 
L 33.159596 25.573906 
L 33.728007 28.266548 
L 33.851575 28.266548 
L 34.518839 26.192837 
L 34.716547 26.291205 
L 34.765975 26.468666 
L 35.013109 28.565832 
L 35.383812 28.565832 
L 35.58152 32.958716 
L 35.705087 32.958716 
L 35.828655 33.59292 
L 35.878082 33.487826 
L 35.952223 33.487826 
L 36.07579 34.127849 
L 36.199357 34.127849 
L 36.322925 34.015845 
L 36.372352 33.421278 
L 36.57006 26.376299 
L 36.743055 26.474848 
L 36.866622 30.08534 
L 37.06433 30.08534 
L 37.311465 25.161346 
L 37.360893 25.161346 
L 37.48446 26.311933 
L 37.731595 26.311933 
L 37.855162 25.653909 
L 38.102298 25.573361 
L 38.225865 25.496267 
L 38.349432 23.754024 
L 38.547141 23.754024 
L 38.96727 27.577615 
L 39.288546 27.60507 
L 39.708675 26.189565 
L 39.906383 26.847407 
L 40.153518 27.61107 
L 40.252373 27.644344 
L 40.499507 28.999665 
L 40.697216 28.999665 
L 40.87021 26.698492 
L 41.067918 26.600307 
L 41.117345 26.600307 
L 41.240912 22.955268 
L 41.438621 19.026582 
L 41.611615 18.521654 
L 41.85875 18.728752 
L 41.982317 19.038764 
L 42.229453 27.415973 
L 42.476588 40.200429 
L 42.550728 40.200429 
L 42.797863 33.803291 
L 42.84729 33.799655 
L 43.539268 18.492926 
L 43.588696 18.492926 
L 43.662836 19.324228 
L 43.786403 21.445759 
L 44.330101 21.397757 
L 44.453668 20.980469 
L 44.577235 20.942286 
L 44.700803 20.12153 
L 44.774944 20.477724 
L 44.947938 23.427284 
L 45.145646 24.768423 
L 45.195073 24.768423 
L 45.269214 24.209494 
L 45.31864 24.725876 
L 45.516349 23.181821 
L 45.639916 20.12753 
L 45.763483 20.12753 
L 45.936478 19.871521 
L 46.010619 19.871521 
L 46.257754 16.353577 
L 46.381321 16.074294 
L 46.554316 15.674462 
L 46.801451 15.623005 
L 46.925019 18.247826 
L 47.048586 18.247826 
L 47.172153 16.323757 
L 47.419289 16.125932 
L 47.789991 13.130553 
L 47.864132 13.114552 
L 48.037126 12.675991 
L 48.284261 12.762903 
L 48.481969 12.906727 
L 48.778532 12.80145 
L 49.272801 12.690355 
L 49.594077 12.385435 
L 49.96478 12.489075 
L 50.014206 12.607078 
L 50.261342 14.972255 
L 50.582617 16.81923 
L 50.829752 21.012834 
L 50.879179 21.476123 
L 51.076887 24.680602 
L 51.200455 25.832097 
L 51.324022 27.267422 
L 51.373449 27.368698 
L 51.497017 28.920936 
L 51.620584 27.90908 
L 51.744152 29.284584 
L 51.991287 39.859326 
L 52.114855 39.859326 
L 52.312562 29.562777 
L 52.43613 28.674926 
L 52.485557 28.630742 
L 52.732692 27.587069 
L 52.85626 27.587069 
L 53.103394 28.625834 
L 53.226962 29.888242 
L 53.276389 29.89697 
L 53.474097 30.680453 
L 53.597665 30.680453 
L 53.770659 30.218618 
L 53.968367 30.146979 
L 54.388497 23.071635 
L 54.512064 23.071635 
L 54.709773 26.551214 
L 55.129902 26.583215 
L 55.204042 26.418846 
L 55.32761 26.600125 
L 55.451178 26.686128 
L 55.698312 29.500046 
L 55.994874 30.558267 
L 56.118442 30.558267 
L 56.365577 28.976574 
L 56.439717 28.976574 
L 56.736279 27.637071 
L 56.983415 26.653218 
L 57.181122 25.3999 
L 57.428258 25.17571 
L 57.601253 25.125527 
L 57.79896 24.810606 
L 58.095522 20.193896 
L 58.21909 20.193896 
L 58.416798 20.340629 
L 58.466225 20.340629 
L 58.589792 24.245677 
L 60.393878 24.245677 
L 60.517446 20.783917 
L 60.69044 20.783917 
L 60.888148 23.678384 
L 61.061143 23.600745 
L 61.308278 22.942903 
L 61.431845 22.906175 
L 61.555413 23.272551 
L 61.926115 23.25746 
L 62.247391 24.173129 
L 62.296818 23.835117 
L 62.494526 24.173129 
L 62.66752 24.124763 
L 62.865229 24.423502 
L 63.112363 24.455866 
L 63.235932 24.315861 
L 63.408926 24.315861 
L 63.532494 25.550633 
L 63.730201 25.515541 
L 63.853769 24.848789 
L 63.903196 24.848789 
L 64.471606 26.265022 
L 64.644601 28.412009 
L 65.015304 29.842422 
L 65.064731 29.82624 
L 65.138871 29.747146 
L 65.188298 29.82624 
L 65.682568 29.639689 
L 65.806136 29.54223 
L 65.929703 29.239492 
L 66.127412 29.309131 
L 66.621681 30.183526 
L 66.794676 30.183526 
L 66.918243 29.490046 
L 67.363086 29.506592 
L 67.536081 29.195491 
L 67.733789 29.195491 
L 67.906784 29.48932 
L 68.228059 29.521684 
L 68.475194 29.846969 
L 68.845897 29.744238 
L 69.142459 29.579868 
L 69.340167 29.682781 
L 69.834437 29.663144 
L 70.081572 29.586232 
L 70.254566 29.4435 
L 70.822977 29.611141 
L 71.070112 29.29604 
L 71.243107 29.383498 
L 71.490241 29.463864 
L 71.68795 29.495501 
L 71.984512 29.829876 
L 72.429355 29.929334 
L 72.552922 30.041703 
L 72.923625 29.932426 
L 73.17076 29.938608 
L 73.343754 30.067522 
L 73.59089 30.060976 
L 74.035733 29.867514 
L 74.085159 29.828423 
L 74.282868 29.487683 
L 74.702997 28.950572 
L 74.777138 28.950572 
L 74.950133 29.18749 
L 75.024273 29.222764 
L 75.14784 29.783875 
L 75.197267 29.614597 
L 75.271408 29.614597 
L 75.394976 29.808966 
L 75.56797 29.832605 
L 75.691538 30.01861 
L 75.815105 30.01861 
L 76.012813 29.492047 
L 76.259948 29.56314 
L 76.507083 29.960063 
L 76.680077 29.89097 
L 76.927213 25.447175 
L 77.001353 25.447175 
L 77.12492 24.637509 
L 77.174348 24.637509 
L 77.347342 24.011305 
L 77.421482 24.011305 
L 77.54505 25.737912 
L 77.718045 28.545831 
L 78.212315 29.516774 
L 78.410023 29.287312 
L 78.583018 28.24982 
L 78.95372 27.703073 
L 79.077288 27.856716 
L 79.274995 27.626525 
L 79.44799 27.626525 
L 79.695125 28.029994 
L 79.769266 28.029994 
L 79.94226 27.715983 
L 80.065828 27.557978 
L 80.510671 27.685982 
L 80.757806 28.439463 
L 81.004941 28.434918 
L 81.252076 27.634162 
L 81.42507 27.574705 
L 81.499211 27.574705 
L 81.672205 28.214728 
L 81.869913 28.298004 
L 81.919341 28.298004 
L 82.042908 27.82526 
L 82.166475 27.82526 
L 82.364184 28.321278 
L 82.413611 28.321278 
L 82.487751 28.476919 
L 82.734886 28.034176 
L 83.155016 28.071451 
L 83.402151 29.674235 
L 83.525718 29.674235 
L 83.772854 28.623106 
L 83.896421 27.496703 
L 84.019988 27.496703 
L 84.341264 27.828533 
L 84.464831 27.809804 
L 84.637826 26.052651 
L 84.884961 25.536814 
L 85.082669 25.533905 
L 85.206236 25.425538 
L 85.329804 25.606817 
L 85.453372 25.393718 
L 85.576939 25.644454 
L 85.700507 25.644454 
L 85.873501 26.404481 
L 85.947641 26.413573 
L 86.194777 26.995957 
L 86.491339 27.016504 
L 86.689047 27.544523 
L 86.862041 27.540704 
L 87.109177 25.936465 
L 87.183317 25.925555 
L 87.356311 25.119527 
L 87.55402 24.788242 
L 87.677587 24.959885 
L 87.801154 24.927883 
L 87.974149 25.499359 
L 88.171857 27.251421 
L 88.295425 27.251421 
L 88.418992 26.895772 
L 88.666127 26.81486 
L 88.789695 26.479394 
L 88.962689 25.52445 
L 89.086257 25.52445 
L 89.283965 27.030322 
L 89.580527 27.044686 
L 89.753521 25.610635 
L 90.124224 25.72173 
L 90.93977 25.853007 
L 91.186905 27.089597 
L 91.434039 27.111598 
L 91.557607 27.325424 
L 91.607034 27.325424 
L 91.854169 26.79395 
L 92.224872 26.903772 
L 92.348439 27.258512 
L 92.595575 27.27324 
L 92.719142 26.781222 
L 92.966277 26.733766 
L 93.163985 26.72122 
L 93.460547 22.282334 
L 93.584114 20.206624 
L 93.658255 20.206624 
L 93.781823 19.570055 
L 94.028957 21.676312 
L 94.152525 26.753221 
L 94.201952 26.808678 
L 94.39966 27.481066 
L 94.449087 27.549977 
L 94.572655 29.05585 
L 94.696222 31.360295 
L 94.89393 31.360295 
L 95.066925 30.816093 
L 95.190493 30.723181 
L 95.3882 30.780274 
L 95.758903 30.433716 
L 95.88247 30.433716 
L 96.006038 30.999918 
L 96.179032 30.997737 
L 96.549735 30.4819 
L 96.79687 30.447717 
L 97.044005 29.497319 
L 97.414708 29.349133 
L 97.612416 30.276802 
L 97.661842 30.276802 
L 97.859551 30.009337 
L 97.908978 30.009337 
L 98.032545 30.81464 
L 98.353821 39.84187 
L 98.403248 39.84187 
L 99.021085 32.462516 
L 99.144653 34.648595 
L 99.342361 34.648595 
L 99.465929 33.22618 
L 99.638923 31.006283 
L 99.886058 29.429317 
L 99.960198 29.091305 
L 100.133193 25.898645 
L 100.503896 25.898645 
L 100.578036 26.110107 
L 100.825172 31.303203 
L 100.948739 32.608704 
L 101.072306 33.797837 
L 101.195874 33.797837 
L 101.492436 30.885006 
L 101.863139 36.303018 
L 101.937279 36.303018 
L 102.159701 29.85606 
L 102.283268 29.565867 
L 102.530403 29.616959 
L 102.777538 30.237528 
L 103.14824 33.249999 
L 103.222381 33.249454 
L 103.395376 30.344986 
L 103.593084 30.39026 
L 104.013214 38.770924 
L 104.136781 38.770924 
L 104.334489 30.67718 
L 104.458057 26.124835 
L 104.631051 16.539947 
L 104.705191 15.858105 
L 104.878186 12.226884 
L 105.075894 11.097207 
L 105.248889 11.097207 
L 105.446596 15.203535 
L 105.693732 15.203535 
L 106.113861 33.438369 
L 106.311569 33.590558 
L 106.558704 33.571465 
L 106.608132 31.734309 
L 106.731699 23.08109 
L 106.929407 23.08109 
L 107.225969 24.30677 
L 107.300109 24.387501 
L 107.670812 28.6862 
L 107.843806 32.426515 
L 107.917947 32.457425 
L 108.041514 33.234544 
L 108.214509 35.592628 
L 108.338076 36.042098 
L 108.461644 36.042098 
L 108.659352 35.329165 
L 108.708779 35.096248 
L 108.782919 33.753654 
L 108.955914 24.805515 
L 109.203049 24.885336 
L 109.27719 24.978976 
L 109.400757 25.927919 
L 109.524325 25.927919 
L 109.573752 25.147891 
L 109.697319 21.162476 
L 109.820887 21.162476 
L 110.142162 23.537289 
L 110.389298 23.537289 
L 110.512865 25.675546 
L 110.562292 25.847371 
L 110.68586 26.514849 
L 111.18013 24.202403 
L 111.377837 20.792099 
L 111.501405 20.792099 
L 111.674399 19.968615 
L 111.797967 20.792099 
L 111.921535 19.968615 
L 112.119242 21.201932 
L 112.292237 23.150365 
L 112.366378 23.204912 
L 112.489945 23.784388 
L 112.613513 23.996395 
L 112.786507 24.672783 
L 112.910075 24.808061 
L 113.404345 26.748312 
L 113.65148 24.23004 
L 113.725621 24.23004 
L 113.849188 24.666601 
L 114.14575 24.666601 
L 114.269317 21.053381 
L 114.392885 21.053381 
L 114.516453 20.265898 
L 114.565879 20.265898 
L 114.64002 20.129167 
L 114.763588 19.281136 
L 114.887155 19.281136 
L 115.134291 19.688969 
L 115.257858 19.370776 
L 115.430853 19.370776 
L 115.62856 22.603618 
L 115.752128 22.709077 
L 116.12283 22.128329 
L 116.419392 22.20415 
L 116.666528 25.519177 
L 116.790095 25.521723 
L 117.03723 25.877917 
L 117.407933 30.977736 
L 117.60564 30.977736 
L 117.852776 28.824204 
L 118.099911 24.34259 
L 118.396473 23.924756 
L 118.52004 23.924756 
L 118.717748 22.512343 
L 118.964883 22.498888 
L 119.01431 22.843263 
L 119.137878 29.249311 
L 119.212019 29.418953 
L 119.335586 30.795548 
L 119.459153 30.795548 
L 119.755715 26.11938 
L 119.829856 26.11938 
L 119.953424 26.500485 
L 120.076991 26.500485 
L 120.200558 25.192802 
L 120.249986 25.192802 
L 120.49712 24.688057 
L 120.867823 12.97582 
L 121.065532 19.545145 
L 121.312666 24.114764 
L 121.362094 24.148765 
L 121.806937 27.632162 
L 121.930504 28.542921 
L 122.301206 28.442373 
L 122.474201 28.99621 
L 122.597769 28.99621 
L 122.795476 27.539977 
L 122.968471 27.539977 
L 123.092038 30.611359 
L 123.215606 30.611359 
L 123.413314 30.208799 
L 123.586309 26.641581 
L 123.709876 26.641581 
L 123.833444 27.25833 
L 123.957012 27.25833 
L 124.204146 26.682491 
L 124.451281 26.764131 
L 124.698417 27.923263 
L 124.821984 28.229638 
L 125.019692 29.103124 
L 125.192686 35.874457 
L 125.390394 36.397204 
L 125.513962 36.204469 
L 125.686956 31.649942 
L 125.884665 30.049885 
L 126.057659 25.364626 
L 126.181227 25.206802 
L 126.304794 25.487903 
L 126.62607 28.694199 
L 126.675497 28.694199 
L 126.799064 28.146544 
L 126.848492 28.146544 
L 126.972059 28.694199 
L 127.046199 28.364006 
L 127.095626 28.378552 
L 127.219194 28.696746 
L 127.342761 28.782385 
L 127.540469 30.435352 
L 127.664037 30.695181 
L 127.713464 30.695181 
L 128.03474 31.86904 
L 128.084166 31.86904 
L 128.52901 30.330076 
L 128.652577 30.516992 
L 128.776145 30.516992 
L 128.899712 29.456773 
L 138.414412 27.605433 
L 138.537979 28.705291 
L 138.785114 35.810817 
L 138.958108 37.134138 
L 139.25467 37.291961 
L 139.501805 38.255632 
L 139.625373 38.205267 
L 139.699513 38.014351 
L 139.823081 35.683904 
L 139.996075 33.796382 
L 140.119643 33.575647 
L 140.490346 26.17011 
L 140.613913 26.17011 
L 140.861048 28.441282 
L 141.058756 28.441282 
L 141.108183 27.896899 
L 141.355318 16.015565 
L 141.478886 14.232228 
L 141.602454 14.232228 
L 141.676594 14.366415 
L 141.849588 21.708132 
L 141.973156 28.786748 
L 142.047297 29.007847 
L 142.220291 34.210397 
L 142.343859 36.246107 
L 142.417999 36.246107 
L 142.541567 36.902129 
L 142.714561 36.979405 
L 142.788702 37.012679 
L 142.838129 37.157593 
L 143.085264 36.770306 
L 143.406539 33.982389 
L 143.826669 23.890028 
L 143.950236 23.890028 
L 144.073804 24.920428 
L 144.568074 32.980899 
L 144.642215 32.980899 
L 144.938777 30.873915 
L 145.012917 30.843005 
L 145.185911 29.887333 
L 145.309479 27.094688 
L 145.507187 16.683771 
L 145.803749 15.070076 
L 146.298019 16.769228 
L 146.421587 16.767228 
L 146.495727 16.42267 
L 146.668721 6.015206 
L 146.792289 6.015206 
L 147.039424 13.942763 
L 147.237133 15.509547 
L 147.484267 24.416047 
L 147.657262 24.396228 
L 148.151532 18.789846 
L 148.34924 13.767303 
L 148.472808 13.275285 
L 148.596375 13.275285 
L 148.84351 14.461146 
L 148.967077 16.543402 
L 149.140072 16.46449 
L 149.263639 15.327358 
L 149.510775 15.175717 
L 149.708482 15.175717 
L 149.832051 16.302484 
L 150.202753 27.107052 
L 150.32632 27.219601 
L 150.449888 27.219601 
L 150.622882 26.593398 
L 150.697023 26.593398 
L 150.74645 26.820497 
L 150.870018 29.679144 
L 150.993585 29.679144 
L 151.117152 28.800022 
L 151.24072 28.800022 
L 151.487855 37.674883 
L 151.611423 37.674883 
L 151.66085 37.481785 
L 152.155119 16.092841 
L 152.278687 16.092841 
L 152.402255 16.711771 
L 152.525822 16.092841 
L 152.64939 16.711771 
L 152.723531 16.711771 
L 152.772957 17.013055 
L 152.970665 19.5346 
L 153.14366 30.001882 
L 153.267227 31.489754 
L 153.390795 31.489754 
L 153.514362 27.992175 
L 153.835638 18.550019 
L 153.959205 18.106549 
L 154.082773 18.106549 
L 154.1322 18.792391 
L 154.329908 23.147638 
L 154.379335 23.298734 
L 154.700611 28.442191 
L 154.750037 28.442191 
L 154.824178 28.273094 
L 154.873605 26.758131 
L 155.071313 14.110406 
L 155.318448 14.100223 
L 155.565583 12.783995 
L 155.738578 13.874033 
L 155.985713 12.789632 
L 156.10928 12.789632 
L 156.183421 13.244739 
L 156.356416 16.7405 
L 156.479983 17.267609 
L 156.727118 25.216439 
L 156.850685 25.701002 
L 156.924826 25.57427 
L 156.974253 25.701002 
L 157.344955 26.396117 
L 157.468523 26.762312 
L 157.913366 24.595872 
L 158.333496 12.787268 
L 158.531204 12.784903 
L 158.704198 12.154881 
L 158.901906 10.307905 
L 158.951334 10.272087 
L 159.198468 6.649048 
L 159.322036 6.649048 
L 159.445603 6.370674 
L 159.816306 6.300127 
L 160.261149 22.258697 
L 160.434144 28.49692 
L 160.755419 35.369529 
L 160.804846 35.369529 
L 161.249689 28.87366 
L 161.299116 28.870206 
L 161.669819 26.096834 
L 161.916954 18.572929 
L 162.040521 18.004545 
L 162.361797 2.729635 
L 162.534791 2.729635 
L 162.658359 6.770869 
L 162.856067 11.251213 
L 162.905494 11.458493 
L 163.029062 12.668172 
L 163.473905 27.843624 
L 163.646899 27.843624 
L 163.721039 27.636344 
L 163.819894 25.996103 
L 163.943461 25.996103 
L 164.141169 27.923446 
L 164.388304 28.366916 
L 164.511872 31.226836 
L 164.808434 35.508625 
L 165.006142 35.508625 
L 165.426271 29.733873 
L 165.549839 29.733873 
L 165.796974 30.535721 
L 165.920542 30.532448 
L 166.044109 30.676271 
L 166.167676 30.531721 
L 166.291244 29.173126 
L 166.414812 29.173126 
L 166.661947 33.138359 
L 166.785514 33.138359 
L 166.909081 31.497209 
L 167.230357 28.856388 
L 167.279784 28.856388 
L 167.403352 29.412407 
L 167.60106 29.322768 
L 167.724627 27.38379 
L 167.848195 26.46212 
L 168.021189 26.46212 
L 168.342465 29.458409 
L 168.51546 29.458409 
L 168.639027 28.429099 
L 168.762594 28.429099 
L 168.886162 28.654744 
L 169.00973 28.654744 
L 169.207437 27.9409 
L 169.256865 27.9409 
L 169.380432 28.217273 
L 169.57814 29.293494 
L 169.825275 29.312404 
L 169.99827 30.596632 
L 170.245405 34.923695 
L 170.368973 35.16225 
L 170.49254 35.16225 
L 170.56668 34.796418 
L 170.616107 32.839257 
L 170.863242 11.415581 
L 171.110378 6.457042 
L 171.431653 6.457042 
L 171.678788 7.55708 
L 171.802355 7.55708 
L 171.97535 5.891565 
L 172.049491 5.891565 
L 172.222485 7.684357 
L 172.46962 17.908723 
L 173.211025 38.873291 
L 173.334593 38.873291 
L 173.828863 33.002172 
L 173.903003 33.002172 
L 174.075998 34.743144 
L 174.273706 38.212722 
L 174.397273 38.212722 
L 174.570268 34.890602 
L 174.817403 27.216511 
L 175.015111 25.727185 
L 175.138678 25.727185 
L 175.558808 32.191597 
L 175.929511 32.851257 
L 176.003652 32.851257 
L 176.226073 32.40306 
L 176.547348 31.837221 
L 176.670916 31.837221 
L 176.84391 32.286147 
L 176.918051 32.286147 
L 177.041619 32.411606 
L 177.165186 32.327785 
L 177.214613 32.26451 
L 177.461748 29.637688 
L 177.535889 29.637688 
L 177.708883 30.145161 
L 177.832451 30.182617 
L 178.153726 31.451026 
L 178.277294 31.414115 
L 178.400861 31.310658 
L 179.562396 31.383023 
L 179.685963 32.014318 
L 179.933099 35.676267 
L 180.180233 35.567718 
L 180.254374 35.432987 
L 180.427369 33.442915 
L 180.674504 30.461899 
L 180.798071 30.461899 
L 180.995779 30.939189 
L 181.168774 30.956099 
L 181.292341 31.377932 
L 181.366481 31.738309 
L 181.539476 34.847147 
L 181.663044 34.847147 
L 181.910179 31.510118 
L 182.033746 30.473355 
L 182.157314 30.473355 
L 182.355022 34.186578 
L 182.528017 34.375858 
L 182.602157 34.350765 
L 182.849292 33.829838 
L 183.145854 33.919842 
L 183.343562 30.483718 
L 183.640124 27.015958 
L 183.763692 27.015958 
L 183.837832 27.624344 
L 183.961399 29.534957 
L 184.084967 29.534957 
L 184.505097 21.163567 
L 184.628664 21.029744 
L 184.752232 21.291935 
L 185.197075 26.057924 
L 185.493637 32.67216 
L 185.86434 32.766891 
L 186.43275 38.548552 
L 186.482177 38.548552 
L 186.803453 31.131014 
L 186.852879 31.131014 
L 187.223582 35.66954 
L 187.34715 35.664995 
L 187.421291 35.3348 
L 187.470717 34.469679 
L 187.91556 16.880687 
L 188.088555 16.880687 
L 188.582825 23.460195 
L 188.706392 23.585108 
L 188.879387 25.58518 
L 189.002954 27.798167 
L 189.32423 32.63616 
L 189.373657 32.63616 
L 190.23863 26.829042 
L 190.362197 26.829042 
L 190.559905 26.180655 
L 190.683473 26.180655 
L 190.856467 29.732964 
L 190.930608 29.781511 
L 191.22717 34.154031 
L 191.30131 34.154031 
L 191.597872 28.186363 
L 191.672013 27.147417 
L 191.845008 21.953777 
L 191.919148 21.92214 
L 191.968575 21.731587 
L 192.092143 20.223534 
L 192.289851 20.223534 
L 192.339277 20.504271 
L 192.586413 24.999159 
L 192.78412 25.596271 
L 192.833548 25.74264 
L 193.154823 34.346584 
L 193.327818 34.346584 
L 193.401958 34.132212 
L 193.574953 28.918753 
L 193.69852 28.918753 
L 193.896228 33.302365 
L 194.019796 33.302365 
L 194.19279 29.965518 
L 194.266931 29.965518 
L 194.390499 29.704782 
L 194.687061 29.853515 
L 194.810628 30.843368 
L 194.934195 30.843368 
L 195.057763 28.687472 
L 195.304898 14.467509 
L 195.502606 5.234814 
L 195.873309 3.994953 
L 195.922736 3.994953 
L 196.491146 2.403986 
L 196.540574 2.403986 
L 196.664141 4.009134 
L 196.787708 4.812073 
L 196.985417 4.775889 
L 197.158411 4.466425 
L 197.281979 4.466425 
L 197.356119 4.741524 
L 197.405546 5.552462 
L 197.652681 15.486273 
L 197.850389 17.571803 
L 197.899816 17.571803 
L 198.097524 18.495653 
L 198.146951 18.495653 
L 198.394086 24.693693 
L 198.591794 24.776787 
L 198.641221 24.776787 
L 198.715361 24.401137 
L 198.888356 21.332119 
L 199.011924 21.332119 
L 199.086064 22.103237 
L 199.259059 30.229346 
L 199.382626 32.200689 
L 199.506194 32.200689 
L 199.580335 31.643942 
L 199.753329 28.581105 
L 200.000464 26.6694 
L 200.32174 26.6694 
L 200.445307 24.656601 
L 200.568874 24.656601 
L 200.741869 25.977194 
L 200.914864 26.268659 
L 200.989004 26.218111 
L 201.483274 23.649292 
L 201.903404 10.04826 
L 202.101112 10.04826 
L 202.224679 10.25554 
L 202.274106 10.27245 
L 202.595382 10.745195 
L 202.718949 10.577552 
L 202.842517 9.479694 
L 203.015511 9.53406 
L 203.262647 10.543732 
L 203.509782 10.605552 
L 203.633349 10.851562 
L 203.70749 10.851562 
L 203.756916 10.641919 
L 203.831057 10.688101 
L 204.004052 10.688101 
L 204.201759 11.14739 
L 204.374754 11.219757 
L 204.498321 11.207211 
L 204.69603 10.237177 
L 204.992592 10.32736 
L 205.066733 10.459729 
L 205.1903 10.836833 
L 205.313867 10.836833 
L 205.561002 9.693885 
L 205.610429 9.586245 
L 205.808138 7.647447 
L 206.055272 6.254307 
L 206.17884 6.254307 
L 206.302408 6.970513 
L 206.425975 10.094443 
L 206.475402 10.246813 
L 206.59897 11.797596 
L 206.722537 11.797596 
L 206.796677 11.515404 
L 206.969672 9.987531 
L 207.043813 9.534424 
L 207.216807 6.726142 
L 207.414515 6.618138 
L 207.58751 6.651411 
L 207.711077 6.536317 
L 208.032353 5.965569 
L 208.205347 5.965569 
L 208.403056 6.186303 
L 208.699618 6.186303 
L 209.144461 5.541737 
L 209.441023 15.737009 
L 209.441023 15.737009 
" clip-path="url(#pe27159e137)" style="fill: none; stroke: #5c80b5; stroke-width: 0.5; stroke-linecap: square"/>
   </g>
  </g>
 </g>
 <defs>
  <clipPath id="pe27159e137">
   <rect x="2.125984" y="0.425197" width="208.346457" height="41.669291"/>
  </clipPath>
 </defs>
</svg>
