<?xml version="1.0" encoding="utf-8" standalone="no"?>
<!DOCTYPE svg PUBLIC "-//W3C//DTD SVG 1.1//EN"
  "http://www.w3.org/Graphics/SVG/1.1/DTD/svg11.dtd">
<svg xmlns:xlink="http://www.w3.org/1999/xlink" width="212.598425pt" height="42.519685pt" viewBox="0 0 212.598425 42.519685" xmlns="http://www.w3.org/2000/svg" version="1.1">
 <metadata>
  <rdf:RDF xmlns:dc="http://purl.org/dc/elements/1.1/" xmlns:cc="http://creativecommons.org/ns#" xmlns:rdf="http://www.w3.org/1999/02/22-rdf-syntax-ns#">
   <cc:Work>
    <dc:type rdf:resource="http://purl.org/dc/dcmitype/StillImage"/>
    <dc:date>2026-06-01T17:59:32.949176</dc:date>
    <dc:format>image/svg+xml</dc:format>
    <dc:creator>
     <cc:Agent>
      <dc:title>Matplotlib v3.10.8, https://matplotlib.org/</dc:title>
     </cc:Agent>
    </dc:creator>
   </cc:Work>
  </rdf:RDF>
 </metadata>
 <defs>
  <style type="text/css">*{stroke-linejoin: round; stroke-linecap: butt}</style>
 </defs>
 <g id="figure_1">
  <g id="patch_1">
   <path d="M 0 42.519685 
L 212.598425 42.519685 
L 212.598425 0 
L 0 0 
z
" style="fill: #ffffff"/>
  </g>
  <g id="axes_1">
   <g id="patch_2">
    <path d="M 2.125984 42.094488 
L 210.472441 42.094488 
L 210.472441 0.425197 
L 2.125984 0.425197 
z
" style="fill: #eaeaf2"/>
   </g>
   <g id="matplotlib.axis_1">
    <g id="xtick_1">
     <g id="line2d_1">
      <path d="M 3.157402 42.094488 
L 3.157402 0.425197 
" clip-path="url(#p0c798bc84f)" style="fill: none; stroke: #ffffff; stroke-width: 0.9; stroke-linecap: square"/>
     </g>
    </g>
    <g id="xtick_2">
     <g id="line2d_2">
      <path d="M 47.59727 42.094488 
L 47.59727 0.425197 
" clip-path="url(#p0c798bc84f)" style="fill: none; stroke: #ffffff; stroke-width: 0.9; stroke-linecap: square"/>
     </g>
    </g>
    <g id="xtick_3">
     <g id="line2d_3">
      <path d="M 92.037138 42.094488 
L 92.037138 0.425197 
" clip-path="url(#p0c798bc84f)" style="fill: none; stroke: #ffffff; stroke-width: 0.9; stroke-linecap: square"/>
     </g>
    </g>
    <g id="xtick_4">
     <g id="line2d_4">
      <path d="M 136.477006 42.094488 
L 136.477006 0.425197 
" clip-path="url(#p0c798bc84f)" style="fill: none; stroke: #ffffff; stroke-width: 0.9; stroke-linecap: square"/>
     </g>
    </g>
    <g id="xtick_5">
     <g id="line2d_5">
      <path d="M 180.916874 42.094488 
L 180.916874 0.425197 
" clip-path="url(#p0c798bc84f)" style="fill: none; stroke: #ffffff; stroke-width: 0.9; stroke-linecap: square"/>
     </g>
    </g>
    <g id="xtick_6">
     <g id="line2d_6">
      <path d="M 25.377336 42.094488 
L 25.377336 0.425197 
" clip-path="url(#p0c798bc84f)" style="fill: none; stroke: #ffffff; stroke-opacity: 0.9; stroke-width: 0.55; stroke-linecap: square"/>
     </g>
    </g>
    <g id="xtick_7">
     <g id="line2d_7">
      <path d="M 69.817204 42.094488 
L 69.817204 0.425197 
" clip-path="url(#p0c798bc84f)" style="fill: none; stroke: #ffffff; stroke-opacity: 0.9; stroke-width: 0.55; stroke-linecap: square"/>
     </g>
    </g>
    <g id="xtick_8">
     <g id="line2d_8">
      <path d="M 114.257072 42.094488 
L 114.257072 0.425197 
" clip-path="url(#p0c798bc84f)" style="fill: none; stroke: #ffffff; stroke-opacity: 0.9; stroke-width: 0.55; stroke-linecap: square"/>
     </g>
    </g>
    <g id="xtick_9">
     <g id="line2d_9">
      <path d="M 158.69694 42.094488 
L 158.69694 0.425197 
" clip-path="url(#p0c798bc84f)" style="fill: none; stroke: #ffffff; stroke-opacity: 0.9; stroke-width: 0.55; stroke-linecap: square"/>
     </g>
    </g>
    <g id="xtick_10">
     <g id="line2d_10">
      <path d="M 203.136808 42.094488 
L 203.136808 0.425197 
" clip-path="url(#p0c798bc84f)" style="fill: none; stroke: #ffffff; stroke-opacity: 0.9; stroke-width: 0.55; stroke-linecap: square"/>
     </g>
    </g>
   </g>
   <g id="matplotlib.axis_2">
    <g id="ytick_1">
     <g id="line2d_11">
      <path d="M 2.125984 34.3982 
L 210.472441 34.3982 
" clip-path="url(#p0c798bc84f)" style="fill: none; stroke: #ffffff; stroke-width: 0.9; stroke-linecap: square"/>
     </g>
    </g>
    <g id="ytick_2">
     <g id="line2d_12">
      <path d="M 2.125984 18.792429 
L 210.472441 18.792429 
" clip-path="url(#p0c798bc84f)" style="fill: none; stroke: #ffffff; stroke-width: 0.9; stroke-linecap: square"/>
     </g>
    </g>
    <g id="ytick_3">
     <g id="line2d_13">
      <path d="M 2.125984 3.186659 
L 210.472441 3.186659 
" clip-path="url(#p0c798bc84f)" style="fill: none; stroke: #ffffff; stroke-width: 0.9; stroke-linecap: square"/>
     </g>
    </g>
    <g id="ytick_4">
     <g id="line2d_14">
      <path d="M 2.125984 26.595315 
L 210.472441 26.595315 
" clip-path="url(#p0c798bc84f)" style="fill: none; stroke: #ffffff; stroke-opacity: 0.9; stroke-width: 0.55; stroke-linecap: square"/>
     </g>
    </g>
    <g id="ytick_5">
     <g id="line2d_15">
      <path d="M 2.125984 10.989544 
L 210.472441 10.989544 
" clip-path="url(#p0c798bc84f)" style="fill: none; stroke: #ffffff; stroke-opacity: 0.9; stroke-width: 0.55; stroke-linecap: square"/>
     </g>
    </g>
   </g>
   <g id="line2d_16">
    <path d="M 3.157402 9.688958 
L 3.602245 8.028233 
L 3.77524 5.334664 
L 3.972948 5.425044 
L 4.022375 5.554185 
L 4.145943 6.659864 
L 4.343651 7.201959 
L 4.516645 8.130553 
L 4.590786 8.130553 
L 4.83792 6.742712 
L 4.961488 6.569668 
L 5.25805 5.671567 
L 5.381618 5.671567 
L 5.505185 6.423261 
L 5.628753 6.423261 
L 5.875888 5.426881 
L 5.950028 5.426881 
L 6.073596 5.595148 
L 6.197163 5.595148 
L 6.493725 4.78761 
L 6.740861 5.461048 
L 6.938569 5.466376 
L 7.111563 6.301285 
L 7.235131 8.485091 
L 7.432838 8.458272 
L 7.482266 8.113286 
L 7.605833 6.717912 
L 7.803541 6.612653 
L 8.223671 6.682826 
L 8.421379 6.793229 
L 8.470806 6.682826 
L 8.594374 5.418798 
L 8.717941 5.418798 
L 8.965076 5.831018 
L 9.335779 5.959605 
L 9.409919 5.959605 
L 9.533486 6.074234 
L 10.151324 6.173247 
L 10.274892 6.250032 
L 10.398459 6.173247 
L 10.695021 6.197678 
L 11.065723 6.179493 
L 11.436426 6.99291 
L 11.559994 7.443522 
L 11.683561 7.443522 
L 11.807129 7.250271 
L 12.054264 5.919377 
L 12.251972 5.20185 
L 12.499107 5.170438 
L 12.672102 5.341094 
L 12.919236 6.108402 
L 13.166372 6.140366 
L 13.240512 5.764335 
L 13.413507 6.23203 
L 13.537074 10.015298 
L 13.734782 10.015298 
L 13.85835 8.416755 
L 13.981917 8.471313 
L 14.031344 8.542404 
L 14.105485 10.45103 
L 14.229053 26.971394 
L 14.35262 26.971394 
L 14.525615 24.294539 
L 14.649182 23.767142 
L 14.723322 23.776143 
L 14.84689 24.325586 
L 14.970458 23.767142 
L 15.019884 23.767142 
L 15.217592 22.376546 
L 15.390587 22.303799 
L 15.934284 22.573285 
L 16.008425 22.797398 
L 16.131992 22.573285 
L 16.181419 22.573285 
L 16.304987 8.613129 
L 16.675689 5.972465 
L 16.799257 4.182324 
L 16.922824 4.182324 
L 17.169959 5.260266 
L 17.787797 7.062163 
L 17.911364 7.027811 
L 18.034932 6.601081 
L 18.1585 6.962782 
L 18.356207 7.011646 
L 18.479775 7.137297 
L 18.65277 7.13197 
L 18.899905 5.467479 
L 19.023472 5.467479 
L 19.22118 6.822804 
L 19.344748 7.750113 
L 19.468315 7.750113 
L 19.764877 5.790787 
L 20.086153 6.403973 
L 20.20972 25.676318 
L 20.333288 25.676318 
L 20.506282 24.895232 
L 20.62985 24.689674 
L 20.827558 24.985247 
L 21.198261 24.985247 
L 21.321828 24.714657 
L 21.371255 24.714657 
L 21.568963 22.987894 
L 21.61839 22.987894 
L 21.741957 22.550875 
L 21.816098 22.550875 
L 21.939666 7.488344 
L 22.063233 7.214634 
L 22.236228 7.299869 
L 22.483362 7.113047 
L 22.60693 7.179915 
L 22.928206 7.713006 
L 23.1012 8.349888 
L 23.298908 8.329682 
L 23.422476 8.159945 
L 23.471903 8.159945 
L 23.59547 8.622497 
L 23.719038 12.00861 
L 23.842605 12.00861 
L 23.966173 11.108119 
L 24.089741 11.108119 
L 24.163881 11.488742 
L 24.287449 27.363405 
L 24.411016 27.363405 
L 24.584011 24.852432 
L 24.831146 24.243288 
L 25.07828 23.076435 
L 25.325416 23.171225 
L 25.523123 25.044764 
L 25.572551 25.087381 
L 25.696118 25.469106 
L 25.819686 25.469106 
L 26.066821 24.442417 
L 26.190388 24.616746 
L 26.313956 25.449269 
L 26.437523 25.449269 
L 26.561091 23.653615 
L 26.635231 23.617611 
L 26.758799 23.011957 
L 26.882366 23.011957 
L 27.055361 24.205078 
L 27.426064 24.100186 
L 27.549631 23.962045 
L 27.673198 24.126273 
L 27.796766 23.870564 
L 28.043901 24.183771 
L 28.167469 24.456011 
L 28.291036 24.473278 
L 28.414603 24.723291 
L 28.538171 24.67002 
L 28.661739 24.028359 
L 28.834734 24.031482 
L 29.032441 24.94281 
L 29.279577 24.836265 
L 29.329003 24.764624 
L 29.650279 23.821883 
L 30.070409 23.236987 
L 30.193976 22.568509 
L 30.391684 22.653746 
L 30.441111 22.653746 
L 30.762387 23.149915 
L 30.935381 23.143669 
L 31.058949 21.860904 
L 31.182516 10.65714 
L 31.306083 10.65714 
L 31.503792 11.265366 
L 31.553219 11.265366 
L 31.627359 11.102241 
L 31.800354 8.35944 
L 32.047489 7.392636 
L 32.171057 7.694269 
L 32.245197 7.694269 
L 32.368764 10.449378 
L 32.492332 17.496597 
L 32.665326 17.872445 
L 32.863034 19.821853 
L 32.986602 25.151309 
L 33.604439 29.702253 
L 33.777434 29.702253 
L 34.148137 27.619111 
L 34.271704 27.179706 
L 34.518839 27.20175 
L 34.765975 27.676425 
L 35.013109 27.215343 
L 35.210818 25.982359 
L 35.50738 25.982359 
L 35.754514 26.375106 
L 35.878082 26.375106 
L 36.199357 22.984403 
L 36.248785 22.587062 
L 36.495919 16.308253 
L 36.57006 16.308253 
L 36.693628 20.856992 
L 37.06433 23.575727 
L 37.113757 23.575727 
L 37.311465 22.294432 
L 37.360893 22.268715 
L 37.5586 21.148889 
L 37.682168 18.802509 
L 37.855162 18.74593 
L 37.929303 18.74593 
L 38.102298 19.181479 
L 38.176438 19.257163 
L 38.547141 25.022904 
L 38.720135 25.097118 
L 38.917843 25.131102 
L 39.041411 25.322515 
L 39.090837 25.322515 
L 39.412113 24.784647 
L 39.46154 24.784647 
L 39.585108 23.815454 
L 39.782816 18.701843 
L 39.832242 18.576744 
L 40.029951 3.784985 
L 40.153518 3.784985 
L 40.252373 4.218697 
L 40.45008 4.327629 
L 40.573648 4.632018 
L 40.697216 6.049067 
L 41.067918 7.469054 
L 41.117345 7.469054 
L 41.36448 8.436043 
L 41.438621 7.91985 
L 41.611615 8.738778 
L 41.809323 8.663094 
L 41.982317 9.465305 
L 42.180026 8.635356 
L 42.303593 9.392744 
L 42.476588 9.392744 
L 42.550728 9.937961 
L 42.674296 12.649901 
L 42.797863 30.939644 
L 42.970858 33.197113 
L 43.044998 33.245427 
L 43.217993 35.411229 
L 43.415701 35.411229 
L 43.786403 29.395659 
L 43.959398 26.987741 
L 44.577235 25.374135 
L 44.651376 25.50842 
L 44.700803 25.970788 
L 44.898511 32.494651 
L 45.022078 32.494651 
L 45.071506 31.502313 
L 45.195073 17.60002 
L 45.31864 17.60002 
L 45.442208 32.617362 
L 45.565776 32.617362 
L 45.689343 32.31187 
L 45.812911 32.31187 
L 45.936478 34.442037 
L 46.060046 34.442037 
L 46.257754 31.355171 
L 46.381321 31.084949 
L 46.430748 31.169266 
L 46.677883 30.819323 
L 46.752024 30.819323 
L 46.925019 31.749019 
L 47.048586 31.749019 
L 47.246294 27.468846 
L 47.369862 27.330708 
L 47.419289 27.330708 
L 47.666424 28.775678 
L 48.111267 28.851729 
L 48.407829 29.114968 
L 48.605537 29.038551 
L 48.654963 29.029917 
L 48.778532 28.594182 
L 48.976239 28.415814 
L 49.025666 28.141184 
L 49.223375 28.554138 
L 49.346942 30.08912 
L 49.470509 30.08912 
L 49.643504 29.745606 
L 49.890639 29.824227 
L 50.137774 29.872908 
L 50.335482 29.875847 
L 50.384909 29.508817 
L 50.582617 30.235345 
L 50.706185 34.732831 
L 50.879179 34.732831 
L 50.953319 34.54399 
L 51.126314 33.360422 
L 51.200455 33.309354 
L 51.571157 30.659687 
L 51.694725 30.659687 
L 51.744152 30.486091 
L 52.188995 26.196001 
L 52.312562 26.196001 
L 52.485557 27.267147 
L 52.609124 27.267147 
L 52.85626 5.439004 
L 52.905686 5.439004 
L 53.103394 6.645536 
L 53.276389 7.290317 
L 53.35053 7.290317 
L 53.523524 7.591215 
L 53.647092 7.529676 
L 54.017794 6.666477 
L 54.091935 6.694399 
L 54.215502 6.376969 
L 54.33907 6.413158 
L 54.512064 6.084337 
L 54.759199 6.485901 
L 55.006335 6.501517 
L 55.253469 5.596251 
L 55.451178 5.497605 
L 55.500604 5.497605 
L 55.698312 7.108456 
L 55.82188 7.19608 
L 55.871307 7.108456 
L 55.945448 7.19608 
L 56.192583 7.355897 
L 56.489145 7.757461 
L 56.563285 7.757461 
L 56.736279 7.188548 
L 56.859847 7.188548 
L 56.983415 22.803461 
L 57.057555 22.803461 
L 57.181122 23.542663 
L 57.30469 23.542663 
L 57.477685 24.94171 
L 57.848387 24.897989 
L 57.971955 24.327972 
L 58.095522 23.572054 
L 58.29323 23.601444 
L 58.71336 25.965092 
L 58.787501 25.965092 
L 58.960495 25.49464 
L 59.084063 25.034477 
L 59.405338 24.926096 
L 59.528906 24.788138 
L 59.7019 24.71025 
L 60.072602 24.749928 
L 60.270311 24.269189 
L 60.566873 24.176604 
L 60.937576 22.535445 
L 61.135283 22.547201 
L 61.308278 23.086538 
L 61.431845 23.086538 
L 61.555413 22.42357 
L 61.802548 22.463434 
L 61.926115 22.827892 
L 62.000256 22.827892 
L 62.049683 22.463434 
L 62.173251 3.046702 
L 62.370958 2.345709 
L 62.618094 2.345709 
L 62.914656 3.445326 
L 63.112363 3.481883 
L 63.285358 4.285931 
L 63.359499 4.285931 
L 63.532494 4.127765 
L 63.730201 3.977868 
L 63.779628 3.977868 
L 64.150331 8.896392 
L 64.273899 25.358521 
L 64.471606 25.348785 
L 64.644601 7.973674 
L 64.768169 7.973674 
L 64.941163 8.503277 
L 65.015304 8.503277 
L 65.386006 7.338997 
L 65.633141 7.338997 
L 65.756709 6.808292 
L 65.880276 6.808292 
L 66.053271 7.31034 
L 66.250979 7.452155 
L 66.547541 8.515769 
L 66.671108 8.515769 
L 67.115951 4.747014 
L 67.165379 4.726071 
L 67.288946 4.510042 
L 67.486654 4.850619 
L 67.659649 6.609532 
L 67.733789 6.609532 
L 67.783216 6.735548 
L 67.857356 6.630288 
L 68.401054 6.283099 
L 68.722329 6.178942 
L 68.895323 6.582343 
L 69.142459 6.72122 
L 69.389594 7.177526 
L 69.636729 7.226757 
L 70.625269 6.475982 
L 70.872404 6.431342 
L 71.070112 6.23203 
L 71.613809 6.315982 
L 71.737377 6.552217 
L 71.811517 6.51015 
L 71.984512 6.611185 
L 72.429355 6.488842 
L 72.552922 6.611734 
L 72.923625 6.667947 
L 73.17076 6.948453 
L 73.294328 6.965354 
L 73.343754 7.170178 
L 73.417895 7.126825 
L 73.59089 7.195712 
L 73.838025 7.179915 
L 73.961592 6.592079 
L 74.1593 4.553763 
L 74.406435 4.283174 
L 74.57943 3.702138 
L 74.65357 3.702138 
L 74.777138 3.359172 
L 74.950133 3.702138 
L 75.0737 4.017547 
L 75.197267 5.273859 
L 75.271408 5.281024 
L 75.444402 5.897516 
L 75.518543 5.897516 
L 75.815105 4.547517 
L 75.889245 4.547517 
L 76.185808 5.554185 
L 76.680077 3.774513 
L 76.927213 5.725023 
L 77.001353 5.725023 
L 77.12492 7.404209 
L 77.248488 5.725023 
L 77.297915 5.725023 
L 77.421482 5.44176 
L 77.47091 5.433861 
L 77.668618 3.132304 
L 77.915753 3.10328 
L 77.96518 3.132304 
L 78.03932 3.714077 
L 78.212315 5.787297 
L 78.53359 7.977899 
L 78.657158 7.977899 
L 78.904293 7.554474 
L 78.95372 7.554474 
L 79.151428 7.80265 
L 79.324423 7.783731 
L 79.44799 7.470342 
L 79.818693 7.472362 
L 79.94226 7.26313 
L 80.387103 7.365082 
L 80.560098 7.473464 
L 80.807233 7.909564 
L 81.004941 7.820837 
L 81.054368 7.749929 
L 81.252076 4.929608 
L 81.42507 4.929608 
L 81.499211 5.188073 
L 81.795773 7.553555 
L 81.919341 7.553555 
L 82.042908 7.047651 
L 82.166475 7.047651 
L 82.290043 8.156822 
L 82.487751 8.089772 
L 82.611318 7.785751 
L 82.90788 7.732663 
L 83.155016 6.797822 
L 83.352724 6.797822 
L 83.525718 7.512959 
L 83.970561 9.18241 
L 84.341264 7.36894 
L 84.514259 5.269634 
L 84.711966 5.151149 
L 84.835534 5.198912 
L 85.008529 5.52369 
L 85.379231 5.536732 
L 85.576939 6.558279 
L 85.947641 6.454856 
L 85.997069 6.365947 
L 86.367772 4.805061 
L 86.614906 4.754178 
L 86.738474 4.754178 
L 87.183317 5.7974 
L 87.232744 5.7974 
L 87.479879 6.148265 
L 87.55402 6.19676 
L 87.677587 6.913919 
L 87.801154 6.913919 
L 87.924722 6.091685 
L 88.097716 5.274411 
L 88.344852 5.331541 
L 88.468419 5.57035 
L 88.542559 5.57035 
L 88.715554 5.302149 
L 89.086257 5.275881 
L 89.283965 4.935672 
L 89.456959 4.86054 
L 89.580527 4.935672 
L 89.753521 5.246488 
L 90.124224 5.690304 
L 90.247791 5.890535 
L 90.494926 5.88282 
L 90.692634 5.535079 
L 90.742062 5.535079 
L 91.063337 5.172092 
L 91.236332 5.182562 
L 91.359899 5.572185 
L 91.557607 5.506974 
L 91.730601 5.222791 
L 91.804742 5.188623 
L 91.977737 4.876337 
L 92.101304 4.794407 
L 92.299013 4.546782 
L 92.546147 4.521064 
L 92.669715 4.800654 
L 92.842709 5.58578 
L 92.966277 5.58578 
L 93.089844 4.035182 
L 93.213412 4.035182 
L 93.33698 4.641386 
L 93.658255 4.641386 
L 93.707682 7.811285 
L 93.83125 23.124382 
L 93.954817 23.124382 
L 94.201952 21.764095 
L 94.276093 21.2637 
L 94.39966 6.234235 
L 94.523228 6.234235 
L 94.770362 7.031669 
L 94.81979 7.031669 
L 94.89393 7.207102 
L 95.017498 6.855686 
L 95.066925 6.855686 
L 95.437627 4.887726 
L 95.635336 4.887726 
L 95.80833 6.31745 
L 95.931898 6.31745 
L 96.129605 5.119186 
L 96.3026 5.182747 
L 96.376741 5.354687 
L 96.426168 5.182747 
L 97.118146 7.686003 
L 97.488848 10.443132 
L 97.538275 10.443132 
L 98.032545 7.835533 
L 98.27968 7.808346 
L 98.526816 8.431451 
L 98.650383 17.225643 
L 98.848091 30.445864 
L 99.095226 31.761509 
L 99.391788 31.851524 
L 99.515355 30.798748 
L 99.589496 30.798748 
L 99.762491 29.939775 
L 99.836631 29.939775 
L 100.009626 27.549674 
L 100.207334 25.961235 
L 100.454469 25.803806 
L 100.578036 25.380748 
L 100.701604 25.380748 
L 100.874598 30.319663 
L 100.948739 31.030941 
L 101.072306 33.658013 
L 101.195874 33.658013 
L 101.368868 31.573221 
L 101.492436 30.842286 
L 101.616003 30.842286 
L 101.739571 32.297543 
L 101.937279 32.297543 
L 102.110273 27.344301 
L 102.159701 27.275414 
L 102.357409 26.67325 
L 102.480976 26.741954 
L 102.530403 26.817268 
L 102.604544 26.741954 
L 102.653971 26.67325 
L 102.901106 27.754866 
L 103.024673 29.799244 
L 103.14824 29.799244 
L 103.271808 28.318269 
L 103.345949 28.318269 
L 103.395376 27.297824 
L 103.469516 27.736862 
L 103.642511 28.755471 
L 103.716652 28.755471 
L 103.840219 28.412324 
L 103.889646 28.412324 
L 104.210921 22.256222 
L 104.334489 22.256222 
L 104.631051 23.124198 
L 105.075894 25.553057 
L 105.125321 25.553057 
L 105.199462 25.375421 
L 105.372456 24.129577 
L 105.693732 24.129577 
L 105.866726 20.764591 
L 105.990294 20.764591 
L 106.237429 26.35839 
L 106.435137 26.35839 
L 106.608132 25.039068 
L 106.805839 23.382661 
L 106.978834 22.208094 
L 107.102401 19.509013 
L 107.225969 19.087425 
L 107.547244 19.193603 
L 107.720239 19.403018 
L 107.917947 19.468049 
L 108.041514 19.896617 
L 108.165082 19.896617 
L 108.338076 19.073098 
L 108.535785 18.807286 
L 108.955914 19.433698 
L 109.030055 19.960178 
L 109.079481 19.664055 
L 109.153622 19.664055 
L 109.27719 19.993609 
L 109.400757 19.993609 
L 109.573752 20.662456 
L 109.77146 18.789283 
L 109.820887 18.786711 
L 109.895027 18.636446 
L 110.018595 18.139358 
L 110.142162 18.139358 
L 110.562292 16.379161 
L 110.809427 20.226355 
L 111.25427 20.325369 
L 111.377837 21.273253 
L 111.501405 23.23111 
L 111.624973 23.23111 
L 111.797967 6.367232 
L 111.921535 3.675867 
L 112.045102 3.675867 
L 112.16867 2.922521 
L 112.242811 2.922521 
L 112.366378 2.702451 
L 112.613513 2.702451 
L 112.73708 2.813587 
L 112.984216 2.324949 
L 113.107783 2.324949 
L 113.15721 2.508096 
L 113.280778 3.474351 
L 113.404345 3.474351 
L 113.602053 2.841143 
L 113.725621 2.853818 
L 113.898615 3.424936 
L 114.14575 4.517757 
L 114.269317 4.517757 
L 114.343458 4.295849 
L 114.442312 2.495789 
L 114.565879 2.495789 
L 114.689447 2.833427 
L 114.887155 4.556334 
L 115.06015 5.285066 
L 115.430853 5.986609 
L 115.55442 10.32134 
L 115.62856 10.445336 
L 115.677987 11.320475 
L 115.801555 26.780345 
L 115.925122 27.691122 
L 116.04869 27.782604 
L 116.12283 28.586652 
L 116.295825 26.9747 
L 116.493533 10.809794 
L 116.790095 4.774199 
L 116.987803 4.774199 
L 117.284365 7.563293 
L 117.407933 7.563293 
L 117.655068 4.198673 
L 117.902202 2.35379 
L 117.976343 2.35379 
L 118.099911 2.933726 
L 118.223478 2.933726 
L 118.396473 2.441599 
L 118.52004 2.441599 
L 118.643608 2.571841 
L 118.841316 3.105852 
L 119.01431 3.181902 
L 119.088451 3.355315 
L 119.137878 3.861035 
L 119.385013 9.543009 
L 119.459153 9.543009 
L 119.632148 8.296983 
L 119.953424 8.261346 
L 120.126418 10.04322 
L 120.324126 10.124048 
L 120.447694 8.306719 
L 120.571261 6.796169 
L 120.867823 6.733528 
L 120.991391 5.824955 
L 121.114958 5.824955 
L 121.559801 23.587851 
L 121.856363 26.851989 
L 122.350633 26.806798 
L 122.844904 26.300709 
L 122.968471 26.234761 
L 123.166179 24.975877 
L 123.339174 24.975877 
L 123.413314 25.123571 
L 123.536881 25.909248 
L 123.660449 26.019836 
L 123.784017 26.130053 
L 124.204146 26.148424 
L 124.278287 26.272236 
L 124.327714 26.160731 
L 124.525422 26.160731 
L 124.648989 25.767066 
L 124.896124 25.767066 
L 125.069119 26.248171 
L 125.192686 27.437068 
L 125.390394 29.279561 
L 125.563389 29.279561 
L 125.761097 27.687448 
L 125.810524 27.55941 
L 125.934092 26.118114 
L 126.057659 25.925598 
L 126.131799 25.939008 
L 126.304794 26.495061 
L 126.428361 26.127297 
L 126.502502 26.127297 
L 126.551929 25.985482 
L 126.675497 23.939635 
L 126.922632 6.902713 
L 127.219194 3.012901 
L 127.342761 4.684005 
L 127.540469 4.684005 
L 127.664037 4.52437 
L 127.787604 4.52437 
L 127.837031 7.711905 
L 127.960599 25.386995 
L 128.281874 27.161153 
L 128.331302 27.161153 
L 128.652577 24.890089 
L 128.825572 24.890089 
L 128.899712 25.559487 
L 138.414412 26.030673 
L 138.587406 25.405179 
L 138.661546 25.405179 
L 138.710974 25.55416 
L 138.908681 27.718493 
L 138.958108 27.741456 
L 139.131103 28.002309 
L 139.501805 27.983938 
L 139.625373 28.170391 
L 139.748941 28.170391 
L 139.823081 27.745866 
L 139.996075 25.550486 
L 140.119643 25.357968 
L 140.193784 25.357968 
L 140.243211 25.596961 
L 140.366778 25.271264 
L 140.440918 25.596961 
L 140.564486 26.375106 
L 140.811621 26.375106 
L 140.935189 26.91371 
L 140.984616 26.91371 
L 141.305892 29.715846 
L 141.429459 29.715846 
L 141.553026 33.116652 
L 141.676594 35.339588 
L 141.800161 35.339588 
L 141.849588 35.047324 
L 142.047297 32.510633 
L 142.096723 32.510633 
L 142.294431 33.124369 
L 142.467426 33.124369 
L 142.665134 29.969165 
L 142.788702 29.599747 
L 142.912269 27.838264 
L 142.961696 27.831837 
L 143.085264 27.630135 
L 143.208831 27.630135 
L 143.332398 29.302891 
L 143.406539 29.391985 
L 143.653674 34.278362 
L 143.826669 35.250677 
L 144.024377 36.238239 
L 144.073804 36.238239 
L 144.147944 35.962692 
L 144.320939 30.063586 
L 144.395079 29.721909 
L 144.518647 28.374847 
L 144.568074 28.224398 
L 144.691641 28.374847 
L 144.938777 29.893298 
L 145.260052 30.6325 
L 145.803749 30.67861 
L 146.050884 32.63114 
L 146.174452 32.69672 
L 146.248592 32.933323 
L 146.545154 35.523287 
L 146.668721 35.523287 
L 146.915857 31.975519 
L 147.039424 31.77639 
L 147.113565 31.975519 
L 147.237133 32.857639 
L 147.286559 32.860762 
L 147.410127 33.178926 
L 147.533695 33.178926 
L 147.607835 33.479827 
L 147.780829 32.95151 
L 147.85497 32.95151 
L 147.904397 33.479827 
L 148.151532 31.827091 
L 148.34924 29.418622 
L 148.645802 28.308899 
L 148.719943 28.308899 
L 148.84351 28.738571 
L 149.016505 32.723907 
L 149.33778 32.723907 
L 149.461348 32.464708 
L 149.584915 32.94655 
L 149.75791 30.67916 
L 150.128613 30.6066 
L 150.573456 23.769896 
L 150.697023 23.802043 
L 150.82059 24.330912 
L 150.870018 24.330912 
L 150.993585 23.802043 
L 151.117152 6.75998 
L 151.24072 6.75998 
L 151.314861 8.269796 
L 151.438428 25.143042 
L 151.537282 25.143042 
L 151.66085 25.626352 
L 151.73499 25.626352 
L 152.105693 30.609356 
L 152.155119 31.195903 
L 152.278687 34.384174 
L 152.402255 34.384174 
L 152.599963 32.432194 
L 152.723531 32.432194 
L 152.896525 34.033309 
L 153.341368 34.158408 
L 153.514362 35.633322 
L 153.63793 35.633322 
L 153.761498 33.864674 
L 153.835638 33.864674 
L 153.885065 33.718449 
L 153.959205 33.838221 
L 154.1322 33.838221 
L 154.329908 33.71 
L 154.453475 33.083771 
L 154.502903 33.036378 
L 154.700611 27.029991 
L 154.824178 27.029991 
L 154.873605 26.91261 
L 154.997173 25.599348 
L 155.244308 26.804042 
L 155.565583 38.440785 
L 155.689151 40.200429 
L 155.738578 40.015813 
L 156.10928 29.441215 
L 156.232848 29.371778 
L 156.356416 28.756388 
L 156.479983 28.756388 
L 156.727118 32.299012 
L 156.850685 32.299012 
L 157.171961 36.621619 
L 157.295529 35.920259 
L 157.344955 35.920259 
L 157.789798 35.130355 
L 157.839226 35.130355 
L 157.913366 35.003235 
L 158.333496 30.973261 
L 158.531204 32.276415 
L 158.654772 36.092751 
L 158.778339 36.092751 
L 159.322036 31.443713 
L 159.519744 31.443713 
L 159.569171 31.102219 
L 159.643311 31.162102 
L 159.766879 31.162102 
L 159.816306 30.908967 
L 159.939873 28.417281 
L 160.063441 27.949219 
L 160.434144 24.002642 
L 160.557711 9.709808 
L 160.681278 9.709808 
L 160.804846 9.939799 
L 160.928414 9.939799 
L 161.249689 3.927352 
L 161.299116 3.927352 
L 161.546252 6.625329 
L 161.991095 6.654537 
L 162.040521 5.566859 
L 162.114662 6.307162 
L 162.287657 5.380037 
L 162.781927 4.773834 
L 162.856067 5.173377 
L 162.905494 6.915389 
L 163.029062 19.604537 
L 163.103202 20.095746 
L 163.350337 23.351615 
L 163.523332 24.354793 
L 163.646899 24.544735 
L 163.943461 26.556418 
L 164.067029 26.742137 
L 164.190596 26.742137 
L 164.511872 24.774727 
L 164.759007 24.248798 
L 164.808434 24.226021 
L 164.932001 24.036809 
L 165.006142 24.036809 
L 165.302704 21.917298 
L 165.500412 21.537043 
L 165.549839 21.579844 
L 165.673407 21.889744 
L 165.747547 21.889744 
L 165.796974 22.147657 
L 166.044109 25.429062 
L 166.11825 25.444859 
L 166.365385 27.634175 
L 166.538379 29.134439 
L 166.736087 29.134439 
L 166.859655 28.571956 
L 167.032649 26.255152 
L 167.230357 26.305852 
L 167.353925 26.085416 
L 167.403352 26.085416 
L 167.526919 25.876184 
L 167.650487 25.876184 
L 167.774055 26.346817 
L 167.897622 26.346817 
L 168.09533 24.687286 
L 168.268324 23.977475 
L 168.391892 23.734995 
L 168.466032 23.788266 
L 168.639027 24.049669 
L 168.836735 24.049669 
L 169.08387 23.700459 
L 169.133297 23.700459 
L 169.380432 24.000989 
L 169.503999 24.025239 
L 169.825275 27.735393 
L 169.99827 27.734109 
L 170.195978 25.459002 
L 170.368973 25.270346 
L 170.56668 25.323434 
L 170.863242 28.860546 
L 170.937383 28.860546 
L 171.110378 24.495874 
L 171.233945 22.636663 
L 171.357512 22.636663 
L 171.48108 24.003009 
L 171.678788 27.25447 
L 171.802355 27.25447 
L 172.173058 23.867807 
L 172.54376 26.191777 
L 172.790896 25.712692 
L 173.161598 27.666508 
L 173.334593 27.666508 
L 173.45816 27.118352 
L 173.581728 26.328449 
L 173.655868 26.328449 
L 173.779436 25.840914 
L 173.95243 26.453547 
L 174.150139 27.863614 
L 174.323133 27.8142 
L 174.397273 27.502096 
L 174.693835 24.680306 
L 175.064538 23.315427 
L 175.188106 23.480756 
L 175.558808 29.116255 
L 175.682376 29.387945 
L 175.756516 29.387945 
L 175.880084 29.064451 
L 176.053078 29.064451 
L 176.226073 29.489346 
L 176.670916 29.632079 
L 176.84391 29.979636 
L 177.041619 29.979636 
L 177.338181 28.241115 
L 177.461748 27.390592 
L 177.659456 26.605099 
L 177.906591 26.355636 
L 177.956018 26.355636 
L 178.079586 26.150444 
L 178.277294 26.252029 
L 178.32672 26.375843 
L 178.400861 26.338736 
L 178.573856 26.252029 
L 178.895132 25.845321 
L 179.018699 25.723896 
L 179.191694 25.666765 
L 179.315261 25.682382 
L 179.562396 26.537128 
L 179.809531 28.208048 
L 180.007239 28.239095 
L 180.180233 28.786882 
L 180.303801 28.786882 
L 180.501509 27.960792 
L 180.921638 27.809057 
L 181.045206 27.47344 
L 181.242914 27.510913 
L 181.415909 28.744631 
L 181.613617 28.634597 
L 181.786612 28.557445 
L 181.984319 28.623206 
L 182.157314 28.001022 
L 182.404449 27.939482 
L 182.528017 28.037393 
L 182.651584 28.722774 
L 182.775151 28.722774 
L 182.898719 28.190415 
L 183.096427 24.809445 
L 183.219994 24.66212 
L 183.343562 24.66212 
L 183.516556 26.496165 
L 183.640124 26.816718 
L 183.837832 28.229725 
L 183.887259 28.229725 
L 184.084967 27.880884 
L 184.208535 27.80134 
L 184.45567 27.338605 
L 184.628664 25.961235 
L 184.702805 25.876367 
L 184.875799 24.520121 
L 184.999367 24.520121 
L 185.320642 25.396729 
L 185.617204 25.902084 
L 185.691345 26.120684 
L 185.93848 27.807953 
L 185.987907 27.807953 
L 186.35861 26.630633 
L 186.482177 26.568725 
L 186.852879 24.325032 
L 186.976447 25.658868 
L 187.100015 26.443444 
L 187.223582 26.443444 
L 187.594285 25.109058 
L 187.668425 25.398935 
L 187.791993 25.109058 
L 187.84142 25.182536 
L 188.039128 25.851384 
L 188.088555 25.851384 
L 188.212122 26.112787 
L 189.002954 23.619448 
L 189.077095 23.619448 
L 189.126522 23.756856 
L 189.200663 23.638368 
L 189.571365 23.638368 
L 189.991495 25.577304 
L 190.189203 26.294096 
L 190.436338 26.268562 
L 190.7329 25.438429 
L 190.80704 25.438429 
L 190.980035 26.430401 
L 191.103602 26.572399 
L 191.424878 25.788376 
L 191.597872 24.311256 
L 191.72144 23.983172 
L 191.845008 23.983172 
L 192.092143 26.164588 
L 192.21571 26.232925 
L 192.339277 25.979788 
L 192.413418 25.781026 
L 192.586413 24.000806 
L 192.78412 24.000806 
L 192.907688 25.897124 
L 192.957115 26.108744 
L 193.204251 30.163151 
L 193.327818 31.003938 
L 193.451385 31.003938 
L 193.649094 28.818662 
L 193.822088 28.876529 
L 193.945656 29.47116 
L 194.069223 29.47116 
L 194.266931 28.344906 
L 194.316358 28.344906 
L 194.810628 29.214167 
L 195.057763 29.214167 
L 195.255471 26.704664 
L 195.304898 26.473385 
L 195.502606 21.875231 
L 195.626174 21.279867 
L 195.799168 21.201059 
L 195.873309 21.164872 
L 195.996876 20.532765 
L 196.169871 20.478757 
L 196.293438 20.532765 
L 196.540574 22.968973 
L 196.787708 29.238597 
L 196.911276 29.420092 
L 197.034843 29.420092 
L 197.158411 28.870099 
L 197.356119 28.870099 
L 197.603254 31.903695 
L 197.776249 31.903695 
L 197.899816 31.48486 
L 197.973956 31.48486 
L 198.097524 30.95232 
L 198.146951 31.019921 
L 198.270518 31.459326 
L 198.517654 29.872541 
L 198.715361 26.619426 
L 198.764789 26.619426 
L 198.888356 26.095703 
L 199.259059 26.177448 
L 199.382626 27.488319 
L 199.456767 27.488319 
L 199.629761 27.971629 
L 199.703902 28.446491 
L 199.753329 28.411771 
L 200.000464 28.39285 
L 200.247599 25.556914 
L 200.371167 25.556914 
L 200.494734 26.446381 
L 200.568874 26.465487 
L 200.692442 26.864479 
L 200.865436 26.861539 
L 201.038431 26.10011 
L 201.161998 26.10011 
L 201.285566 25.898777 
L 201.359707 25.898777 
L 201.483274 26.08174 
L 201.532701 26.08174 
L 201.656269 25.668788 
L 201.779836 26.08174 
L 201.903404 24.65863 
L 201.977544 24.65863 
L 202.150539 25.327108 
L 202.274106 25.826033 
L 202.718949 25.961051 
L 203.015511 25.688995 
L 203.262647 26.448034 
L 203.386214 26.258459 
L 203.460354 26.387966 
L 203.583922 26.538599 
L 203.756916 27.143702 
L 203.880484 27.143702 
L 204.004052 26.761241 
L 204.325327 26.66884 
L 204.572462 26.272602 
L 204.819597 26.095334 
L 205.116159 26.407437 
L 205.1903 26.407437 
L 205.239727 26.289136 
L 206.055272 19.159435 
L 206.17884 19.068688 
L 206.302408 18.936793 
L 206.425975 6.254992 
L 206.475402 6.254992 
L 206.59897 5.288372 
L 206.796677 5.652646 
L 206.920245 5.57384 
L 207.093239 5.733289 
L 207.216807 7.150889 
L 207.414515 10.86619 
L 207.661651 10.808876 
L 207.711077 10.646854 
L 207.908785 9.240459 
L 208.032353 9.240459 
L 208.15592 9.966803 
L 208.279488 11.720203 
L 208.452482 11.870285 
L 208.65019 11.669318 
L 208.773758 11.082402 
L 208.946752 11.082402 
L 209.268028 15.620487 
L 209.441023 13.091511 
L 209.441023 13.091511 
" clip-path="url(#p0c798bc84f)" style="fill: none; stroke: #5c80b5; stroke-width: 0.5; stroke-linecap: square"/>
   </g>
  </g>
 </g>
 <defs>
  <clipPath id="p0c798bc84f">
   <rect x="2.125984" y="0.425197" width="208.346457" height="41.669291"/>
  </clipPath>
 </defs>
</svg>
