<?xml version="1.0" encoding="utf-8" standalone="no"?>
<!DOCTYPE svg PUBLIC "-//W3C//DTD SVG 1.1//EN"
  "http://www.w3.org/Graphics/SVG/1.1/DTD/svg11.dtd">
<svg xmlns:xlink="http://www.w3.org/1999/xlink" width="212.598425pt" height="42.519685pt" viewBox="0 0 212.598425 42.519685" xmlns="http://www.w3.org/2000/svg" version="1.1">
 <metadata>
  <rdf:RDF xmlns:dc="http://purl.org/dc/elements/1.1/" xmlns:cc="http://creativecommons.org/ns#" xmlns:rdf="http://www.w3.org/1999/02/22-rdf-syntax-ns#">
   <cc:Work>
    <dc:type rdf:resource="http://purl.org/dc/dcmitype/StillImage"/>
    <dc:date>2026-06-01T17:59:34.288307</dc:date>
    <dc:format>image/svg+xml</dc:format>
    <dc:creator>
     <cc:Agent>
      <dc:title>Matplotlib v3.10.8, https://matplotlib.org/</dc:title>
     </cc:Agent>
    </dc:creator>
   </cc:Work>
  </rdf:RDF>
 </metadata>
 <defs>
  <style type="text/css">*{stroke-linejoin: round; stroke-linecap: butt}</style>
 </defs>
 <g id="figure_1">
  <g id="patch_1">
   <path d="M 0 42.519685 
L 212.598425 42.519685 
L 212.598425 0 
L 0 0 
z
" style="fill: #ffffff"/>
  </g>
  <g id="axes_1">
   <g id="patch_2">
    <path d="M 2.125984 42.094488 
L 210.472441 42.094488 
L 210.472441 0.425197 
L 2.125984 0.425197 
z
" style="fill: #eaeaf2"/>
   </g>
   <g id="matplotlib.axis_1">
    <g id="xtick_1">
     <g id="line2d_1">
      <path d="M 3.157402 42.094488 
L 3.157402 0.425197 
" clip-path="url(#pb4b5bd78d8)" style="fill: none; stroke: #ffffff; stroke-width: 0.9; stroke-linecap: square"/>
     </g>
    </g>
    <g id="xtick_2">
     <g id="line2d_2">
      <path d="M 47.59727 42.094488 
L 47.59727 0.425197 
" clip-path="url(#pb4b5bd78d8)" style="fill: none; stroke: #ffffff; stroke-width: 0.9; stroke-linecap: square"/>
     </g>
    </g>
    <g id="xtick_3">
     <g id="line2d_3">
      <path d="M 92.037138 42.094488 
L 92.037138 0.425197 
" clip-path="url(#pb4b5bd78d8)" style="fill: none; stroke: #ffffff; stroke-width: 0.9; stroke-linecap: square"/>
     </g>
    </g>
    <g id="xtick_4">
     <g id="line2d_4">
      <path d="M 136.477006 42.094488 
L 136.477006 0.425197 
" clip-path="url(#pb4b5bd78d8)" style="fill: none; stroke: #ffffff; stroke-width: 0.9; stroke-linecap: square"/>
     </g>
    </g>
    <g id="xtick_5">
     <g id="line2d_5">
      <path d="M 180.916874 42.094488 
L 180.916874 0.425197 
" clip-path="url(#pb4b5bd78d8)" style="fill: none; stroke: #ffffff; stroke-width: 0.9; stroke-linecap: square"/>
     </g>
    </g>
    <g id="xtick_6">
     <g id="line2d_6">
      <path d="M 25.377336 42.094488 
L 25.377336 0.425197 
" clip-path="url(#pb4b5bd78d8)" style="fill: none; stroke: #ffffff; stroke-opacity: 0.9; stroke-width: 0.55; stroke-linecap: square"/>
     </g>
    </g>
    <g id="xtick_7">
     <g id="line2d_7">
      <path d="M 69.817204 42.094488 
L 69.817204 0.425197 
" clip-path="url(#pb4b5bd78d8)" style="fill: none; stroke: #ffffff; stroke-opacity: 0.9; stroke-width: 0.55; stroke-linecap: square"/>
     </g>
    </g>
    <g id="xtick_8">
     <g id="line2d_8">
      <path d="M 114.257072 42.094488 
L 114.257072 0.425197 
" clip-path="url(#pb4b5bd78d8)" style="fill: none; stroke: #ffffff; stroke-opacity: 0.9; stroke-width: 0.55; stroke-linecap: square"/>
     </g>
    </g>
    <g id="xtick_9">
     <g id="line2d_9">
      <path d="M 158.69694 42.094488 
L 158.69694 0.425197 
" clip-path="url(#pb4b5bd78d8)" style="fill: none; stroke: #ffffff; stroke-opacity: 0.9; stroke-width: 0.55; stroke-linecap: square"/>
     </g>
    </g>
    <g id="xtick_10">
     <g id="line2d_10">
      <path d="M 203.136808 42.094488 
L 203.136808 0.425197 
" clip-path="url(#pb4b5bd78d8)" style="fill: none; stroke: #ffffff; stroke-opacity: 0.9; stroke-width: 0.55; stroke-linecap: square"/>
     </g>
    </g>
   </g>
   <g id="matplotlib.axis_2">
    <g id="ytick_1">
     <g id="line2d_11">
      <path d="M 2.125984 38.973184 
L 210.472441 38.973184 
" clip-path="url(#pb4b5bd78d8)" style="fill: none; stroke: #ffffff; stroke-width: 0.9; stroke-linecap: square"/>
     </g>
    </g>
    <g id="ytick_2">
     <g id="line2d_12">
      <path d="M 2.125984 23.513253 
L 210.472441 23.513253 
" clip-path="url(#pb4b5bd78d8)" style="fill: none; stroke: #ffffff; stroke-width: 0.9; stroke-linecap: square"/>
     </g>
    </g>
    <g id="ytick_3">
     <g id="line2d_13">
      <path d="M 2.125984 8.053322 
L 210.472441 8.053322 
" clip-path="url(#pb4b5bd78d8)" style="fill: none; stroke: #ffffff; stroke-width: 0.9; stroke-linecap: square"/>
     </g>
    </g>
    <g id="ytick_4">
     <g id="line2d_14">
      <path d="M 2.125984 31.243218 
L 210.472441 31.243218 
" clip-path="url(#pb4b5bd78d8)" style="fill: none; stroke: #ffffff; stroke-opacity: 0.9; stroke-width: 0.55; stroke-linecap: square"/>
     </g>
    </g>
    <g id="ytick_5">
     <g id="line2d_15">
      <path d="M 2.125984 15.783287 
L 210.472441 15.783287 
" clip-path="url(#pb4b5bd78d8)" style="fill: none; stroke: #ffffff; stroke-opacity: 0.9; stroke-width: 0.55; stroke-linecap: square"/>
     </g>
    </g>
   </g>
   <g id="line2d_16">
    <path d="M 3.157402 8.902786 
L 3.35511 9.211929 
L 3.528105 10.49182 
L 3.725813 10.814881 
L 3.77524 10.749014 
L 3.898807 10.749014 
L 4.145943 11.094814 
L 4.590786 11.205767 
L 4.76378 11.927753 
L 4.83792 11.939123 
L 5.381618 13.289977 
L 5.455758 13.289977 
L 5.628753 11.095793 
L 5.75232 11.095793 
L 5.875888 11.262225 
L 5.999456 11.352204 
L 6.370158 13.693215 
L 6.567866 14.112722 
L 6.740861 14.194664 
L 6.938569 14.194664 
L 7.111563 12.884192 
L 7.309271 12.736972 
L 7.7294 12.810484 
L 7.852968 13.346434 
L 8.100103 13.30958 
L 8.347238 11.222235 
L 8.470806 10.96955 
L 8.594374 10.720001 
L 8.717941 10.720001 
L 8.965076 11.274379 
L 9.286351 10.965629 
L 9.459346 10.965629 
L 9.533486 11.046002 
L 9.706481 11.505501 
L 9.830049 11.765831 
L 9.953616 12.565444 
L 10.151324 12.647777 
L 10.398459 13.013573 
L 10.522027 13.013573 
L 10.645594 12.419792 
L 10.818589 10.442813 
L 11.065723 10.179149 
L 11.263432 10.287555 
L 11.510567 10.469473 
L 11.757702 11.128138 
L 11.881269 11.428263 
L 12.054264 11.052862 
L 12.424966 9.693383 
L 12.746242 9.7024 
L 12.919236 9.525579 
L 13.240512 9.257212 
L 13.413507 10.338719 
L 13.537074 18.107065 
L 13.660641 18.107065 
L 13.784209 17.780673 
L 13.907777 16.850502 
L 13.981917 16.850502 
L 14.105485 19.221897 
L 14.229053 35.204953 
L 14.772749 35.253175 
L 14.970458 34.426314 
L 15.26702 34.027 
L 15.514154 34.09914 
L 15.687149 34.380639 
L 15.810716 34.31438 
L 16.181419 31.636979 
L 16.304987 12.068307 
L 16.502695 10.873886 
L 16.675689 10.873886 
L 16.922824 12.133783 
L 16.996965 12.133783 
L 17.120533 11.768575 
L 17.169959 11.768575 
L 17.367667 10.620025 
L 17.614802 10.258738 
L 17.861938 10.332446 
L 17.985505 10.695694 
L 18.1585 10.75862 
L 18.479775 11.752305 
L 18.603343 11.660757 
L 18.899905 10.02546 
L 19.22118 10.792729 
L 19.394175 11.593715 
L 19.517742 11.593715 
L 19.591882 11.434733 
L 19.764877 8.948657 
L 19.888445 8.948657 
L 20.086153 11.797588 
L 20.20972 34.046799 
L 20.382715 34.046799 
L 21.247687 35.704442 
L 21.371255 35.66151 
L 21.692531 34.901495 
L 21.816098 33.977402 
L 21.939666 11.033652 
L 22.11266 11.033652 
L 22.310368 11.530593 
L 22.359795 11.530593 
L 22.804638 10.540436 
L 23.348336 9.723181 
L 23.422476 9.857657 
L 23.471903 9.723181 
L 23.546043 9.710045 
L 23.719038 9.488334 
L 23.842605 9.488334 
L 24.163881 11.542942 
L 24.287449 32.659285 
L 24.336875 32.669871 
L 24.534584 33.237578 
L 24.831146 34.22558 
L 25.028854 34.742123 
L 25.275989 34.721146 
L 25.448983 34.065421 
L 25.646691 34.065421 
L 25.893826 34.690957 
L 25.943254 34.690957 
L 26.017394 34.468463 
L 26.190388 33.1476 
L 26.388097 33.068598 
L 26.437523 33.1476 
L 26.561091 33.705506 
L 26.882366 33.705506 
L 27.129502 35.209853 
L 27.178929 35.209853 
L 27.302496 34.649398 
L 27.426064 35.370992 
L 27.500204 35.370992 
L 27.623772 35.906549 
L 27.747339 35.906549 
L 27.96976 35.09635 
L 28.340463 35.041462 
L 28.785306 33.969562 
L 28.834734 33.969562 
L 29.032441 34.12521 
L 29.650279 34.095217 
L 29.823273 33.825674 
L 30.193976 33.544171 
L 30.515252 32.860806 
L 30.762387 32.89021 
L 30.885954 33.312268 
L 30.935381 33.312268 
L 31.058949 32.15862 
L 31.182516 15.33204 
L 31.256657 15.201483 
L 31.553219 9.73004 
L 31.627359 9.73004 
L 31.750927 10.924069 
L 31.800354 10.924069 
L 31.874495 9.446971 
L 31.923921 10.978959 
L 32.047489 9.446971 
L 32.121629 9.446971 
L 32.368764 15.005059 
L 32.492332 26.766178 
L 32.788894 31.537591 
L 33.11017 35.059302 
L 33.159596 34.798188 
L 33.406732 30.412959 
L 33.604439 30.187128 
L 33.851575 29.675877 
L 34.024569 29.773699 
L 34.642407 30.771106 
L 34.716547 30.727979 
L 34.889542 29.975022 
L 35.08725 29.992861 
L 35.210818 30.964983 
L 35.260244 30.97792 
L 35.383812 31.310391 
L 35.58152 31.167681 
L 35.630947 31.167681 
L 35.828655 30.156547 
L 35.878082 30.108323 
L 36.00165 29.711556 
L 36.248785 23.102542 
L 36.322925 22.077492 
L 36.446493 17.422913 
L 36.57006 17.422913 
L 36.693628 26.390974 
L 36.866622 26.284529 
L 36.99019 24.667855 
L 37.113757 24.667855 
L 37.311465 27.717127 
L 37.682168 27.682039 
L 37.855162 27.596962 
L 37.97873 26.836357 
L 38.102298 26.836357 
L 38.176438 26.952801 
L 38.547141 35.369031 
L 38.596567 35.369031 
L 38.670708 35.176137 
L 38.96727 30.858733 
L 39.090837 30.755817 
L 39.214405 29.814276 
L 39.46154 29.814276 
L 39.585108 29.190504 
L 39.832242 23.767677 
L 40.029951 6.379271 
L 40.202945 6.379271 
L 40.37594 8.979436 
L 40.746642 11.260852 
L 40.87021 11.260852 
L 41.067918 10.984055 
L 41.191485 11.064428 
L 41.240912 11.101871 
L 41.438621 11.626452 
L 41.488047 11.726428 
L 41.735183 12.781471 
L 41.85875 12.781471 
L 41.982317 12.093595 
L 42.476588 2.772874 
L 42.550728 2.772874 
L 42.674296 3.252173 
L 42.84729 29.308514 
L 43.044998 31.374296 
L 43.217993 30.962631 
L 43.292134 31.101617 
L 43.34156 31.51485 
L 43.465128 34.039937 
L 43.662836 34.183431 
L 43.786403 34.048169 
L 43.959398 34.048169 
L 44.082965 35.549576 
L 44.206533 35.549576 
L 44.280673 35.431959 
L 44.453668 33.480462 
L 44.577235 33.480462 
L 44.774944 31.63345 
L 44.824371 31.63345 
L 44.898511 31.519165 
L 45.071506 25.840518 
L 45.195073 13.030236 
L 45.31864 13.030236 
L 45.516349 30.642315 
L 45.689343 31.192574 
L 45.812911 31.77087 
L 45.936478 34.259885 
L 46.060046 34.259885 
L 46.307181 33.246791 
L 46.430748 32.999792 
L 46.554316 33.246791 
L 46.677883 35.026957 
L 46.801451 35.026957 
L 46.925019 32.551467 
L 46.999159 32.551467 
L 47.048586 32.323876 
L 47.172153 31.421542 
L 47.295721 32.40817 
L 47.419289 32.40817 
L 47.542856 33.700605 
L 47.740564 33.991908 
L 47.789991 33.991908 
L 47.913558 33.69688 
L 48.111267 34.038368 
L 48.160694 34.048169 
L 48.284261 34.255964 
L 48.778532 34.20774 
L 48.902099 33.945644 
L 48.976239 33.763531 
L 49.025666 33.25287 
L 49.346942 34.880913 
L 49.594077 34.905416 
L 49.717644 34.585494 
L 49.890639 34.729577 
L 49.96478 34.729577 
L 50.088347 35.168099 
L 50.261342 35.187897 
L 50.384909 35.409218 
L 50.582617 35.409218 
L 51.002747 33.11741 
L 51.126314 33.114471 
L 51.324022 32.522455 
L 51.497017 30.439616 
L 51.867719 30.439616 
L 52.114855 32.316032 
L 52.43613 34.923059 
L 52.485557 34.923059 
L 52.609124 33.946626 
L 52.85626 12.587987 
L 52.905686 11.940887 
L 53.103394 12.722662 
L 53.152822 12.722662 
L 53.399956 12.477622 
L 53.474097 12.565444 
L 53.523524 12.477622 
L 53.597665 12.458803 
L 53.647092 12.273944 
L 53.844799 12.540353 
L 53.894227 12.540353 
L 54.017794 13.08336 
L 54.215502 14.688272 
L 54.388497 14.678863 
L 54.462637 14.405202 
L 54.635632 13.186277 
L 54.759199 12.667576 
L 54.83334 12.667576 
L 54.956907 12.98652 
L 55.006335 12.98652 
L 55.253469 12.274338 
L 55.574745 11.485114 
L 55.74774 10.466727 
L 55.945448 10.362635 
L 55.994874 10.362635 
L 56.439717 12.16005 
L 56.686853 12.590732 
L 56.81042 12.775982 
L 56.859847 14.275625 
L 56.983415 33.054878 
L 57.057555 33.197392 
L 57.181122 33.891149 
L 57.30469 33.906241 
L 57.428258 35.023036 
L 57.551825 35.065378 
L 57.72482 35.023036 
L 57.922528 35.328648 
L 58.095522 37.49323 
L 58.21909 37.742192 
L 58.29323 37.742192 
L 58.342658 37.49323 
L 58.466225 35.813241 
L 58.540365 35.755213 
L 58.71336 35.227887 
L 58.787501 35.14732 
L 58.911068 34.86131 
L 59.405338 34.784464 
L 59.578333 34.421416 
L 60.023176 34.33026 
L 60.319738 34.093847 
L 60.443305 34.093847 
L 61.18471 39.069914 
L 61.308278 39.157736 
L 61.753121 39.935787 
L 61.876689 39.935787 
L 62.049683 39.081087 
L 62.173251 19.140153 
L 62.370958 18.349753 
L 62.543953 18.339362 
L 62.741661 18.713391 
L 63.235932 18.84042 
L 63.532494 13.27998 
L 63.656061 13.025335 
L 63.730201 13.025335 
L 63.903196 11.359653 
L 64.026763 11.359653 
L 64.150331 12.396268 
L 64.273899 33.472622 
L 64.397466 33.472622 
L 64.471606 33.280314 
L 64.644601 12.362159 
L 64.891736 10.57082 
L 65.015304 10.213063 
L 65.188298 10.217963 
L 65.262438 10.448496 
L 65.435433 11.638998 
L 65.682568 12.112219 
L 65.756709 12.112219 
L 66.003843 11.630176 
L 66.176838 11.564506 
L 66.498114 11.658798 
L 66.671108 11.693691 
L 66.745249 11.658798 
L 66.868817 10.795276 
L 67.041811 9.892355 
L 67.288946 9.511073 
L 67.486654 9.511073 
L 67.610222 11.488641 
L 67.857356 11.430028 
L 68.104492 11.119513 
L 68.153918 11.119513 
L 68.475194 10.72353 
L 68.969464 10.789788 
L 69.142459 11.03816 
L 69.389594 10.849381 
L 69.760297 10.829779 
L 70.254566 11.179695 
L 70.501702 10.744896 
L 70.625269 10.267363 
L 70.69941 10.267363 
L 70.872404 10.899762 
L 71.193679 10.906427 
L 71.317247 10.718629 
L 71.613809 10.718629 
L 71.737377 10.461827 
L 71.984512 10.400861 
L 72.058653 10.268737 
L 72.108079 10.400861 
L 72.429355 10.50711 
L 72.602349 10.720981 
L 72.725917 10.720981 
L 72.800058 10.720981 
L 73.09662 11.213217 
L 73.17076 11.213217 
L 73.294328 10.734114 
L 73.541463 10.827426 
L 73.66503 10.979155 
L 73.714457 10.868789 
L 73.838025 10.868789 
L 74.035733 9.585566 
L 74.332295 9.416979 
L 74.57943 9.732198 
L 74.702997 10.53377 
L 74.950133 10.53377 
L 75.024273 10.651586 
L 75.197267 11.434341 
L 75.444402 12.471153 
L 75.56797 12.471153 
L 75.765678 10.177385 
L 75.938672 10.177385 
L 76.06224 9.236237 
L 76.185808 9.435014 
L 76.432943 9.027463 
L 76.55651 9.082548 
L 76.680077 10.583562 
L 76.927213 14.253865 
L 77.001353 14.253865 
L 77.248488 11.189692 
L 77.297915 11.189692 
L 77.718045 12.182202 
L 78.410023 12.184946 
L 78.45945 12.324914 
L 78.583018 11.999108 
L 78.657158 11.999108 
L 78.780725 11.627236 
L 78.95372 11.627236 
L 79.200855 12.141623 
L 79.274995 11.926969 
L 79.398563 12.141623 
L 79.44799 12.141623 
L 79.695125 13.128839 
L 79.892833 13.347415 
L 80.0164 13.284489 
L 80.189395 12.700118 
L 80.263536 12.700118 
L 80.43653 12.988088 
L 80.807233 13.88415 
L 80.9308 13.843179 
L 81.004941 13.723796 
L 81.252076 10.902506 
L 81.301503 10.902506 
L 81.42507 11.213804 
L 81.795773 13.397011 
L 81.919341 13.360745 
L 82.042908 11.249288 
L 82.166475 11.249288 
L 82.290043 12.896934 
L 82.487751 12.827734 
L 82.611318 12.577794 
L 82.784313 12.651697 
L 83.031448 12.759319 
L 83.105589 12.651697 
L 83.525718 8.188642 
L 83.723426 8.188642 
L 83.896421 10.933479 
L 84.143556 11.657425 
L 84.217697 11.57274 
L 84.390691 12.35373 
L 84.761393 13.041605 
L 84.884961 13.041605 
L 85.008529 13.343298 
L 85.132096 13.345651 
L 85.206236 13.123743 
L 85.329804 13.363882 
L 85.502798 13.206859 
L 85.626366 13.206859 
L 86.120636 13.252928 
L 86.318344 12.994362 
L 86.614906 12.893405 
L 86.812615 12.814013 
L 87.059749 12.814013 
L 87.55402 8.769682 
L 87.727014 8.684996 
L 87.801154 8.684996 
L 87.850582 8.823982 
L 88.171857 13.661066 
L 88.418992 13.588142 
L 88.542559 13.241557 
L 89.086257 13.175887 
L 89.283965 13.61343 
L 89.456959 13.708505 
L 89.654667 13.385053 
L 89.951229 12.657776 
L 90.074797 12.657776 
L 90.124224 12.441551 
L 90.198364 12.481347 
L 90.4455 12.512123 
L 90.569067 12.536039 
L 90.742062 13.010631 
L 90.989196 13.164517 
L 91.112764 13.79025 
L 91.186905 13.79025 
L 91.359899 13.078852 
L 91.557607 12.459783 
L 91.804742 12.396465 
L 91.854169 12.30923 
L 91.92831 12.459783 
L 92.051877 12.915556 
L 92.101304 12.915556 
L 92.299013 13.16687 
L 92.793282 13.112962 
L 92.966277 12.374117 
L 93.089844 10.743525 
L 93.213412 10.743525 
L 93.658255 15.969926 
L 93.83125 35.714245 
L 93.954817 35.714245 
L 94.276093 32.192143 
L 94.39966 12.269045 
L 94.523228 12.269045 
L 94.89393 13.726736 
L 95.017498 13.655185 
L 95.066925 13.502084 
L 95.190493 12.335106 
L 95.511768 12.226702 
L 95.684762 12.477818 
L 95.758903 12.477818 
L 95.88247 12.752459 
L 96.006038 12.434299 
L 96.129605 12.401169 
L 96.3026 12.196121 
L 96.79687 12.077718 
L 97.044005 13.060031 
L 97.167573 13.060031 
L 97.241713 12.541332 
L 97.488848 7.850097 
L 97.661842 7.850097 
L 97.908978 11.148331 
L 98.032545 11.148331 
L 98.403248 9.080979 
L 98.650383 9.030208 
L 98.848091 22.192563 
L 98.897518 22.686366 
L 99.021085 26.174358 
L 99.342361 26.174358 
L 99.465929 25.70251 
L 99.638923 25.712901 
L 99.762491 31.479762 
L 99.836631 31.479762 
L 100.083766 33.165243 
L 100.25676 33.424201 
L 100.380328 33.32697 
L 100.503896 32.474034 
L 100.578036 32.474034 
L 100.874598 30.209674 
L 100.998166 30.209674 
L 101.245301 31.448199 
L 101.368868 31.731859 
L 101.443009 31.731859 
L 101.492436 32.224289 
L 101.690144 31.614241 
L 101.813711 31.389392 
L 101.937279 31.614241 
L 102.036133 31.391157 
L 102.233841 31.835756 
L 102.357409 31.484073 
L 102.406835 31.484073 
L 102.530403 31.12318 
L 102.653971 31.12318 
L 102.851678 31.420364 
L 102.975246 31.420364 
L 103.098814 28.530464 
L 103.271808 25.849731 
L 103.395376 24.997384 
L 103.593084 25.777983 
L 103.716652 25.777983 
L 103.766078 25.897367 
L 104.013214 33.150541 
L 104.210921 33.320891 
L 104.334489 33.320891 
L 104.458057 33.996419 
L 104.507483 33.996419 
L 104.878186 38.811937 
L 105.001753 38.752734 
L 105.125321 38.364003 
L 105.248889 38.364003 
L 105.323029 37.11391 
L 105.372456 37.50754 
L 105.446596 37.661231 
L 105.570164 38.612572 
L 105.619591 38.612572 
L 105.743158 37.661231 
L 105.817299 37.661231 
L 105.990294 35.248277 
L 106.113861 34.536682 
L 106.435137 34.555696 
L 106.484564 34.859936 
L 106.929407 33.470857 
L 107.102401 34.31889 
L 107.176542 34.340255 
L 107.349537 35.696797 
L 107.473104 35.696797 
L 107.720239 34.756825 
L 107.967374 34.144813 
L 108.214509 34.144813 
L 108.412217 35.436466 
L 108.585212 35.500961 
L 108.708779 35.919686 
L 108.955914 34.107175 
L 109.030055 34.000535 
L 109.153622 33.381465 
L 109.27719 33.381465 
L 109.400757 33.89409 
L 109.450184 33.918592 
L 109.647893 34.957364 
L 109.77146 35.846759 
L 109.895027 35.846759 
L 109.944455 35.28572 
L 110.068022 36.390356 
L 110.191589 35.719733 
L 110.389298 37.825504 
L 110.512865 39.329068 
L 110.636432 39.329068 
L 110.883568 36.616773 
L 110.932994 36.616773 
L 111.056562 37.701221 
L 111.18013 40.113392 
L 111.303697 40.113392 
L 111.501405 35.665039 
L 111.624973 35.150653 
L 111.74854 17.687361 
L 111.797967 17.687361 
L 111.995675 17.134943 
L 112.045102 17.134943 
L 112.119242 17.303727 
L 112.292237 15.491022 
L 112.366378 15.688621 
L 112.489945 15.821334 
L 112.66294 15.858777 
L 112.860648 16.330037 
L 113.107783 16.244569 
L 113.404345 15.535129 
L 113.478485 15.515918 
L 113.602053 15.29303 
L 113.725621 15.191289 
L 113.972755 14.667492 
L 114.022183 14.447741 
L 114.14575 13.448175 
L 114.343458 13.459348 
L 114.516453 16.875593 
L 114.689447 16.875593 
L 114.813015 16.195364 
L 114.936582 16.195364 
L 115.134291 16.712888 
L 115.307285 16.712888 
L 115.504993 17.339601 
L 115.677987 18.632822 
L 115.801555 32.806701 
L 116.172258 34.518647 
L 116.246398 34.481596 
L 116.295825 33.496928 
L 116.493533 16.353169 
L 116.617101 14.719441 
L 116.666528 15.160511 
L 116.790095 14.665533 
L 116.864235 14.637303 
L 116.987803 13.601472 
L 117.03723 13.601472 
L 117.160797 12.025769 
L 117.482073 7.983595 
L 117.729208 8.07318 
L 117.778635 8.150809 
L 118.149338 11.092853 
L 118.347046 11.635469 
L 118.470614 12.077913 
L 119.088451 12.053017 
L 119.385013 7.854409 
L 119.582721 6.052093 
L 119.755715 2.319256 
L 119.953424 2.319256 
L 120.126418 5.86998 
L 120.324126 8.698325 
L 120.373553 8.698325 
L 120.571261 10.359303 
L 120.620688 10.359303 
L 120.694829 10.728234 
L 120.818396 12.06027 
L 121.065532 12.140055 
L 121.114958 13.206664 
L 121.436234 29.968359 
L 121.559801 31.596793 
L 121.683369 31.596793 
L 121.856363 30.011091 
L 122.054071 30.011091 
L 122.177639 30.916171 
L 122.227066 30.946165 
L 122.721336 32.425614 
L 122.968471 32.425614 
L 123.042612 32.564013 
L 123.166179 33.185042 
L 123.339174 33.185042 
L 123.586309 32.211156 
L 124.031152 32.313094 
L 124.154719 32.480111 
L 124.278287 32.480111 
L 124.525422 31.426049 
L 124.698417 31.106714 
L 125.192686 30.68054 
L 125.513962 29.629613 
L 125.563389 29.629613 
L 125.761097 30.685442 
L 126.131799 32.5548 
L 126.181227 32.5548 
L 126.378935 30.074608 
L 126.502502 30.074608 
L 126.62607 29.783108 
L 126.675497 29.783108 
L 127.046199 12.36804 
L 127.219194 8.003785 
L 127.342761 8.003785 
L 127.589897 11.844832 
L 127.787604 14.957424 
L 127.837031 18.950001 
L 127.960599 34.838374 
L 128.084166 34.838374 
L 128.578436 30.533516 
L 128.652577 30.533516 
L 128.825572 28.409513 
L 128.899712 28.409513 
L 138.537979 31.055157 
L 138.785114 29.62883 
L 139.032249 29.313024 
L 139.205243 28.950168 
L 139.328811 28.950168 
L 139.452379 27.841806 
L 139.501805 27.788288 
L 139.625373 27.431902 
L 139.699513 27.431902 
L 139.996075 28.875086 
L 140.070216 28.875086 
L 140.317351 27.300365 
L 140.490346 15.73116 
L 140.811621 15.055244 
L 140.984616 15.097782 
L 141.182324 25.689573 
L 141.231751 25.731131 
L 141.305892 26.221798 
L 141.553026 34.265568 
L 141.676594 34.265568 
L 141.800161 31.280397 
L 141.923729 31.223155 
L 142.096723 29.597466 
L 142.343859 26.071246 
L 142.417999 24.986211 
L 142.590993 18.117455 
L 142.788702 18.209 
L 142.961696 19.898208 
L 143.085264 19.898208 
L 143.208831 19.564561 
L 143.332398 19.564561 
L 143.579534 22.944931 
L 143.653674 22.944931 
L 143.777241 23.472453 
L 143.900809 23.545181 
L 144.024377 24.50907 
L 144.147944 24.50907 
L 144.320939 18.920988 
L 144.568074 18.813368 
L 144.815209 18.150192 
L 144.938777 18.150192 
L 145.185911 20.760158 
L 145.260052 20.910711 
L 145.556614 23.486763 
L 145.680182 23.486763 
L 145.803749 18.746128 
L 145.927316 18.746128 
L 146.125025 20.125015 
L 146.421587 20.697624 
L 146.668721 26.127311 
L 146.792289 26.127311 
L 147.286559 19.798427 
L 147.484267 15.624324 
L 147.657262 15.624324 
L 147.780829 17.04026 
L 147.978538 17.04026 
L 148.027964 16.745036 
L 148.2751 13.939234 
L 148.398667 13.459741 
L 148.522234 13.440726 
L 148.645802 13.68008 
L 148.719943 13.68008 
L 148.76937 13.866115 
L 148.892937 14.996826 
L 149.016505 15.01094 
L 149.140072 15.947971 
L 149.634342 27.935114 
L 149.708482 27.935114 
L 149.832051 23.200361 
L 149.955618 23.200361 
L 150.128613 28.603389 
L 150.32632 31.781453 
L 150.499315 34.806419 
L 150.622882 35.547616 
L 150.74645 35.547616 
L 150.993585 31.710295 
L 151.117152 11.091874 
L 151.314861 11.091874 
L 151.438428 27.508157 
L 151.487855 27.534231 
L 151.66085 29.280287 
L 151.784417 29.280287 
L 152.031552 24.812918 
L 152.105693 24.812918 
L 152.278687 29.405941 
L 152.352828 29.760563 
L 152.525822 32.399935 
L 152.772957 32.399935 
L 152.847098 31.777533 
L 152.970665 25.070308 
L 153.14366 17.954357 
L 153.267227 15.68921 
L 153.390795 15.68921 
L 153.464936 16.823646 
L 153.761498 29.224614 
L 154.008632 29.644514 
L 154.1322 29.644514 
L 154.379335 26.159068 
L 154.62647 20.195392 
L 154.700611 20.195392 
L 154.873605 30.243584 
L 154.997173 30.243584 
L 155.244308 28.967028 
L 155.442016 25.769945 
L 155.565583 25.769945 
L 155.689151 25.565093 
L 155.738578 25.769945 
L 156.232848 32.642623 
L 156.306988 32.219782 
L 156.677691 22.764191 
L 156.801259 21.375306 
L 156.924826 21.375306 
L 157.048393 24.700985 
L 157.295529 24.953866 
L 157.419096 25.48021 
L 157.468523 25.48021 
L 157.542664 25.159698 
L 157.789798 26.240422 
L 157.839226 26.313149 
L 158.333496 32.428751 
L 158.457063 31.802234 
L 158.531204 30.121459 
L 158.704198 20.588434 
L 158.827766 18.628706 
L 159.025474 13.544819 
L 159.198468 11.447867 
L 159.322036 11.447867 
L 159.445603 13.343494 
L 159.692739 32.126274 
L 159.816306 32.475603 
L 160.014014 34.396128 
L 160.063441 34.482379 
L 160.187009 35.390987 
L 160.310576 35.356878 
L 160.434144 33.01528 
L 160.557711 11.253207 
L 160.631852 11.253207 
L 160.755419 11.012088 
L 160.928414 11.253207 
L 161.249689 12.56466 
L 161.299116 12.56466 
L 161.620392 11.518438 
L 161.793386 11.518438 
L 161.867527 11.729957 
L 162.040521 16.502545 
L 162.164089 16.502545 
L 162.238229 16.36454 
L 162.411224 14.657495 
L 162.534791 14.001181 
L 162.7325 12.002636 
L 162.781927 12.002636 
L 162.856067 12.166324 
L 162.905494 12.674438 
L 163.029062 24.589638 
L 163.152629 25.274965 
L 163.473905 31.659524 
L 163.597472 31.839481 
L 163.721039 33.063305 
L 163.819894 33.063305 
L 164.017601 31.046531 
L 164.141169 30.985369 
L 164.314164 30.058533 
L 164.388304 30.333172 
L 164.561299 29.753505 
L 164.635439 29.625497 
L 164.808434 23.432659 
L 164.882575 23.410311 
L 165.006142 22.404668 
L 165.129709 22.404668 
L 165.253277 23.685148 
L 165.500412 23.953319 
L 165.747547 25.419441 
L 165.796974 25.545294 
L 166.167676 32.419538 
L 166.291244 32.602829 
L 166.488952 32.408365 
L 166.661947 30.37081 
L 166.859655 30.389236 
L 167.032649 31.328034 
L 167.10679 31.328034 
L 167.230357 31.598557 
L 167.403352 30.79914 
L 167.60106 30.661527 
L 167.650487 30.661527 
L 167.897622 32.482856 
L 168.09533 32.46051 
L 168.268324 30.192422 
L 168.391892 29.939346 
L 168.51546 30.264952 
L 168.713168 32.256635 
L 168.762594 32.256635 
L 169.08387 30.273187 
L 169.331005 30.273187 
L 169.454573 30.540768 
L 169.57814 30.197715 
L 169.825275 30.63016 
L 169.99827 30.63016 
L 170.195978 29.472986 
L 170.319545 29.472986 
L 170.49254 29.848777 
L 170.56668 29.848777 
L 170.739675 29.712143 
L 170.863242 29.712143 
L 170.937383 30.334936 
L 171.110378 37.731605 
L 171.233945 38.119356 
L 171.357512 38.107201 
L 171.48108 37.062744 
L 171.678788 32.777297 
L 171.802355 32.777297 
L 171.851783 33.435179 
L 171.97535 36.730863 
L 172.098917 36.730863 
L 172.420193 33.874486 
L 172.667328 33.814501 
L 172.840323 31.274126 
L 172.963891 31.201986 
L 173.211025 31.309605 
L 173.45816 33.546721 
L 173.581728 33.592591 
L 173.655868 33.755299 
L 174.026571 32.163326 
L 174.199565 30.23849 
L 174.520841 30.128318 
L 174.767976 29.80565 
L 175.064538 29.318121 
L 175.138678 29.318121 
L 175.262246 30.466473 
L 175.385814 30.466473 
L 175.632949 29.858385 
L 175.805943 30.10303 
L 175.929511 30.10303 
L 176.127219 30.2281 
L 176.176646 30.2281 
L 176.226073 29.868772 
L 176.300214 29.926014 
L 177.214613 29.921898 
L 177.461748 31.208848 
L 177.659456 31.688341 
L 177.832451 31.663053 
L 178.079586 31.420364 
L 178.203153 31.727743 
L 178.32672 31.956512 
L 178.450288 31.956512 
L 178.771564 31.54308 
L 178.820991 31.54308 
L 179.018699 31.187675 
L 179.636537 31.099265 
L 179.685963 30.952436 
L 180.007239 27.901203 
L 180.130807 27.901203 
L 180.254374 28.32757 
L 180.377942 28.439112 
L 180.674504 30.08519 
L 180.872212 30.427465 
L 181.415909 30.476276 
L 181.490049 30.013051 
L 181.613617 28.971927 
L 181.737184 28.971927 
L 181.860752 29.232454 
L 182.033746 31.393703 
L 182.355022 31.794589 
L 182.602157 32.611846 
L 183.022287 32.679475 
L 183.219994 33.622781 
L 183.343562 33.992691 
L 183.46713 33.992691 
L 183.961399 30.919112 
L 184.134394 30.919112 
L 184.505097 36.265091 
L 184.628664 36.265091 
L 184.94994 34.321437 
L 185.197075 34.242632 
L 185.370069 33.47752 
L 185.567778 33.47752 
L 185.691345 33.335201 
L 185.740772 33.47752 
L 185.93848 33.335201 
L 186.111474 33.244831 
L 186.235042 32.689474 
L 186.35861 32.689474 
L 186.482177 33.023707 
L 186.605745 35.284346 
L 186.803453 35.406279 
L 187.050588 35.0099 
L 187.100015 35.0099 
L 187.297723 36.787319 
L 187.421291 36.787319 
L 187.594285 35.097331 
L 187.717853 34.707031 
L 187.791993 34.707031 
L 187.964987 35.380989 
L 188.088555 35.380989 
L 188.212122 35.055186 
L 188.40983 34.278702 
L 188.459258 34.278702 
L 188.582825 33.860763 
L 188.75582 33.860763 
L 188.953528 32.508536 
L 189.126522 31.082013 
L 189.447797 30.980666 
L 189.571365 31.747347 
L 189.620792 31.747347 
L 189.8185 32.518143 
L 189.867927 32.518143 
L 189.942068 32.280944 
L 190.065635 31.63541 
L 190.23863 31.642862 
L 190.485765 32.292903 
L 190.930608 30.990857 
L 191.22717 31.438595 
L 191.350738 31.937887 
L 191.474305 32.55872 
L 191.597872 32.55872 
L 191.72144 30.653488 
L 191.845008 30.653488 
L 191.919148 31.272948 
L 192.092143 34.055617 
L 192.21571 34.109331 
L 192.339277 34.478263 
L 192.660553 34.566086 
L 192.78412 34.845822 
L 192.833548 34.845822 
L 192.957115 33.806462 
L 193.080683 32.257616 
L 193.278391 32.244089 
L 193.401958 32.086284 
L 193.451385 32.471291 
L 193.649094 31.767928 
L 193.822088 31.964352 
L 193.896228 31.928674 
L 193.945656 31.767928 
L 194.069223 30.871475 
L 194.266931 24.135433 
L 194.439925 24.194831 
L 194.637633 25.089323 
L 194.687061 25.210276 
L 195.552033 35.921841 
L 195.749741 36.56051 
L 196.046303 40.200429 
L 196.120444 40.200429 
L 196.293438 39.618607 
L 196.664141 33.452428 
L 196.787708 33.406753 
L 196.861849 33.228365 
L 196.985417 33.425375 
L 197.034843 33.425375 
L 197.232551 33.850962 
L 197.356119 33.850962 
L 197.652681 32.183321 
L 197.726822 32.183321 
L 197.899816 31.679127 
L 197.973956 31.679127 
L 198.221092 30.46373 
L 198.394086 30.46373 
L 198.962497 34.873268 
L 199.086064 34.873268 
L 199.209632 33.696685 
L 199.259059 33.695902 
L 199.580335 32.813758 
L 199.629761 32.813758 
L 199.876897 33.059581 
L 200.000464 32.811013 
L 200.124031 32.501478 
L 200.568874 34.08718 
L 200.618302 34.08718 
L 200.914864 32.381118 
L 201.161998 31.850263 
L 201.285566 31.697554 
L 201.532701 31.722841 
L 202.348247 36.396236 
L 202.471815 36.02809 
L 202.644809 35.948108 
L 202.768377 35.616227 
L 202.891944 34.03229 
L 203.015511 34.03229 
L 203.21322 36.689108 
L 203.336787 36.77791 
L 203.460354 36.734783 
L 203.633349 36.77791 
L 203.880484 36.725179 
L 204.498321 36.727529 
L 204.869024 36.196675 
L 204.943165 36.196675 
L 205.066733 36.474259 
L 205.239727 36.401529 
L 205.610429 31.375864 
L 205.931705 31.375864 
L 206.17884 27.051601 
L 206.302408 26.354904 
L 206.425975 8.518172 
L 206.722537 5.942904 
L 206.920245 5.942904 
L 207.093239 6.664104 
L 207.216807 6.926003 
L 207.414515 8.097488 
L 207.538083 8.935131 
L 207.711077 8.932976 
L 207.908785 7.41177 
L 207.958213 7.41177 
L 208.15592 7.785994 
L 208.452482 8.291168 
L 208.699618 8.225692 
L 208.823185 8.064554 
L 208.946752 8.064554 
L 209.144461 10.127594 
L 209.268028 10.127594 
L 209.441023 8.956108 
L 209.441023 8.956108 
" clip-path="url(#pb4b5bd78d8)" style="fill: none; stroke: #5c80b5; stroke-width: 0.5; stroke-linecap: square"/>
   </g>
  </g>
 </g>
 <defs>
  <clipPath id="pb4b5bd78d8">
   <rect x="2.125984" y="0.425197" width="208.346457" height="41.669291"/>
  </clipPath>
 </defs>
</svg>
