<?xml version="1.0" encoding="utf-8" standalone="no"?>
<!DOCTYPE svg PUBLIC "-//W3C//DTD SVG 1.1//EN"
  "http://www.w3.org/Graphics/SVG/1.1/DTD/svg11.dtd">
<svg xmlns:xlink="http://www.w3.org/1999/xlink" width="212.598425pt" height="42.519685pt" viewBox="0 0 212.598425 42.519685" xmlns="http://www.w3.org/2000/svg" version="1.1">
 <metadata>
  <rdf:RDF xmlns:dc="http://purl.org/dc/elements/1.1/" xmlns:cc="http://creativecommons.org/ns#" xmlns:rdf="http://www.w3.org/1999/02/22-rdf-syntax-ns#">
   <cc:Work>
    <dc:type rdf:resource="http://purl.org/dc/dcmitype/StillImage"/>
    <dc:date>2026-06-01T17:59:33.601943</dc:date>
    <dc:format>image/svg+xml</dc:format>
    <dc:creator>
     <cc:Agent>
      <dc:title>Matplotlib v3.10.8, https://matplotlib.org/</dc:title>
     </cc:Agent>
    </dc:creator>
   </cc:Work>
  </rdf:RDF>
 </metadata>
 <defs>
  <style type="text/css">*{stroke-linejoin: round; stroke-linecap: butt}</style>
 </defs>
 <g id="figure_1">
  <g id="patch_1">
   <path d="M 0 42.519685 
L 212.598425 42.519685 
L 212.598425 0 
L 0 0 
z
" style="fill: #ffffff"/>
  </g>
  <g id="axes_1">
   <g id="patch_2">
    <path d="M 2.125984 42.094488 
L 210.472441 42.094488 
L 210.472441 0.425197 
L 2.125984 0.425197 
z
" style="fill: #eaeaf2"/>
   </g>
   <g id="matplotlib.axis_1">
    <g id="xtick_1">
     <g id="line2d_1">
      <path d="M 3.157402 42.094488 
L 3.157402 0.425197 
" clip-path="url(#p5e0b6c1296)" style="fill: none; stroke: #ffffff; stroke-width: 0.9; stroke-linecap: square"/>
     </g>
    </g>
    <g id="xtick_2">
     <g id="line2d_2">
      <path d="M 47.59727 42.094488 
L 47.59727 0.425197 
" clip-path="url(#p5e0b6c1296)" style="fill: none; stroke: #ffffff; stroke-width: 0.9; stroke-linecap: square"/>
     </g>
    </g>
    <g id="xtick_3">
     <g id="line2d_3">
      <path d="M 92.037138 42.094488 
L 92.037138 0.425197 
" clip-path="url(#p5e0b6c1296)" style="fill: none; stroke: #ffffff; stroke-width: 0.9; stroke-linecap: square"/>
     </g>
    </g>
    <g id="xtick_4">
     <g id="line2d_4">
      <path d="M 136.477006 42.094488 
L 136.477006 0.425197 
" clip-path="url(#p5e0b6c1296)" style="fill: none; stroke: #ffffff; stroke-width: 0.9; stroke-linecap: square"/>
     </g>
    </g>
    <g id="xtick_5">
     <g id="line2d_5">
      <path d="M 180.916874 42.094488 
L 180.916874 0.425197 
" clip-path="url(#p5e0b6c1296)" style="fill: none; stroke: #ffffff; stroke-width: 0.9; stroke-linecap: square"/>
     </g>
    </g>
    <g id="xtick_6">
     <g id="line2d_6">
      <path d="M 25.377336 42.094488 
L 25.377336 0.425197 
" clip-path="url(#p5e0b6c1296)" style="fill: none; stroke: #ffffff; stroke-opacity: 0.9; stroke-width: 0.55; stroke-linecap: square"/>
     </g>
    </g>
    <g id="xtick_7">
     <g id="line2d_7">
      <path d="M 69.817204 42.094488 
L 69.817204 0.425197 
" clip-path="url(#p5e0b6c1296)" style="fill: none; stroke: #ffffff; stroke-opacity: 0.9; stroke-width: 0.55; stroke-linecap: square"/>
     </g>
    </g>
    <g id="xtick_8">
     <g id="line2d_8">
      <path d="M 114.257072 42.094488 
L 114.257072 0.425197 
" clip-path="url(#p5e0b6c1296)" style="fill: none; stroke: #ffffff; stroke-opacity: 0.9; stroke-width: 0.55; stroke-linecap: square"/>
     </g>
    </g>
    <g id="xtick_9">
     <g id="line2d_9">
      <path d="M 158.69694 42.094488 
L 158.69694 0.425197 
" clip-path="url(#p5e0b6c1296)" style="fill: none; stroke: #ffffff; stroke-opacity: 0.9; stroke-width: 0.55; stroke-linecap: square"/>
     </g>
    </g>
    <g id="xtick_10">
     <g id="line2d_10">
      <path d="M 203.136808 42.094488 
L 203.136808 0.425197 
" clip-path="url(#p5e0b6c1296)" style="fill: none; stroke: #ffffff; stroke-opacity: 0.9; stroke-width: 0.55; stroke-linecap: square"/>
     </g>
    </g>
   </g>
   <g id="matplotlib.axis_2">
    <g id="ytick_1">
     <g id="line2d_11">
      <path d="M 2.125984 40.048153 
L 210.472441 40.048153 
" clip-path="url(#p5e0b6c1296)" style="fill: none; stroke: #ffffff; stroke-width: 0.9; stroke-linecap: square"/>
     </g>
    </g>
    <g id="ytick_2">
     <g id="line2d_12">
      <path d="M 2.125984 28.483767 
L 210.472441 28.483767 
" clip-path="url(#p5e0b6c1296)" style="fill: none; stroke: #ffffff; stroke-width: 0.9; stroke-linecap: square"/>
     </g>
    </g>
    <g id="ytick_3">
     <g id="line2d_13">
      <path d="M 2.125984 16.919381 
L 210.472441 16.919381 
" clip-path="url(#p5e0b6c1296)" style="fill: none; stroke: #ffffff; stroke-width: 0.9; stroke-linecap: square"/>
     </g>
    </g>
    <g id="ytick_4">
     <g id="line2d_14">
      <path d="M 2.125984 5.354996 
L 210.472441 5.354996 
" clip-path="url(#p5e0b6c1296)" style="fill: none; stroke: #ffffff; stroke-width: 0.9; stroke-linecap: square"/>
     </g>
    </g>
    <g id="ytick_5">
     <g id="line2d_15">
      <path d="M 2.125984 34.26596 
L 210.472441 34.26596 
" clip-path="url(#p5e0b6c1296)" style="fill: none; stroke: #ffffff; stroke-opacity: 0.9; stroke-width: 0.55; stroke-linecap: square"/>
     </g>
    </g>
    <g id="ytick_6">
     <g id="line2d_16">
      <path d="M 2.125984 22.701574 
L 210.472441 22.701574 
" clip-path="url(#p5e0b6c1296)" style="fill: none; stroke: #ffffff; stroke-opacity: 0.9; stroke-width: 0.55; stroke-linecap: square"/>
     </g>
    </g>
    <g id="ytick_7">
     <g id="line2d_17">
      <path d="M 2.125984 11.137189 
L 210.472441 11.137189 
" clip-path="url(#p5e0b6c1296)" style="fill: none; stroke: #ffffff; stroke-opacity: 0.9; stroke-width: 0.55; stroke-linecap: square"/>
     </g>
    </g>
   </g>
   <g id="line2d_18">
    <path d="M 3.157402 14.012609 
L 3.28097 13.921112 
L 3.404538 13.759444 
L 3.972948 8.849157 
L 4.145943 8.751308 
L 4.343651 8.849157 
L 4.516645 10.19802 
L 4.887348 19.636321 
L 5.134482 19.636321 
L 5.25805 26.555821 
L 5.381618 26.555821 
L 5.628753 11.68641 
L 5.999456 11.68641 
L 6.123023 15.628479 
L 6.320731 15.628479 
L 6.444299 22.422128 
L 6.567866 23.330596 
L 6.691433 23.647421 
L 6.864428 28.337429 
L 6.938569 28.491445 
L 6.987995 29.831842 
L 7.062136 29.797654 
L 7.432838 29.797654 
L 7.556406 30.639696 
L 7.679974 30.706772 
L 7.852968 30.923307 
L 8.100103 30.98322 
L 8.174243 29.227337 
L 8.347238 18.907756 
L 8.421379 18.569766 
L 8.594374 16.324971 
L 9.335779 16.324971 
L 9.533486 16.902288 
L 9.830049 16.902288 
L 10.077184 18.961482 
L 10.200751 20.215429 
L 10.447886 26.014159 
L 10.571454 26.014159 
L 10.818589 11.41908 
L 11.930697 11.41908 
L 12.054264 9.515367 
L 13.289939 9.515367 
L 13.537074 22.192569 
L 13.85835 31.388775 
L 14.105485 34.672774 
L 14.154912 34.672774 
L 14.525615 33.038182 
L 14.723322 33.12447 
L 14.772749 33.126424 
L 15.094025 33.563238 
L 15.143452 33.563238 
L 15.34116 33.176895 
L 15.76129 33.129843 
L 15.810716 32.706868 
L 16.008425 25.136625 
L 16.181419 9.078553 
L 16.428554 9.185029 
L 16.552121 9.998742 
L 19.71545 9.998742 
L 19.839018 11.109744 
L 19.888445 11.109744 
L 20.012013 18.031524 
L 20.259147 27.525017 
L 20.62985 32.289916 
L 20.753418 32.684563 
L 21.000552 32.761081 
L 21.12412 33.893576 
L 21.321828 34.000539 
L 21.371255 34.000539 
L 21.568963 32.121086 
L 21.692531 31.262762 
L 21.816098 21.407997 
L 22.11266 9.564697 
L 22.1868 9.448289 
L 22.359795 8.808942 
L 22.681071 8.808942 
L 22.804638 9.018478 
L 23.1012 9.018478 
L 23.348336 14.973828 
L 23.546043 15.094306 
L 23.59547 15.094306 
L 23.669611 14.973828 
L 23.719038 15.062395 
L 23.916746 15.062395 
L 24.089741 18.464593 
L 24.460443 26.822989 
L 24.954713 27.825398 
L 25.201848 28.102496 
L 25.399556 28.612737 
L 25.572551 28.612737 
L 25.696118 22.88955 
L 25.819686 22.529744 
L 25.893826 22.529744 
L 26.017394 23.52043 
L 26.190388 28.476467 
L 26.264529 28.69821 
L 26.511664 30.60811 
L 26.635231 30.76864 
L 26.931793 31.855382 
L 27.178929 33.664341 
L 27.302496 33.633733 
L 27.500204 33.500557 
L 27.623772 33.440969 
L 27.96976 32.937566 
L 28.216896 32.895888 
L 28.661739 31.557281 
L 28.834734 31.557281 
L 29.032441 32.137365 
L 29.081868 32.137365 
L 29.329003 31.844148 
L 29.452571 31.844148 
L 29.650279 31.972767 
L 29.699706 31.972767 
L 29.823273 31.57633 
L 30.441111 31.469039 
L 30.638819 31.366958 
L 30.688246 31.366958 
L 31.133089 37.596804 
L 31.306083 37.596804 
L 31.429651 36.245336 
L 31.627359 33.650341 
L 31.676786 33.650341 
L 31.750927 33.462622 
L 31.874495 32.537384 
L 31.923921 32.537384 
L 32.047489 18.548438 
L 32.121629 18.548438 
L 32.245197 17.315983 
L 32.541759 19.306798 
L 32.739467 19.306798 
L 33.11017 17.363522 
L 33.283164 16.060245 
L 33.357305 16.008961 
L 33.604439 14.753061 
L 33.851575 14.507221 
L 33.901001 14.507221 
L 34.395272 15.942046 
L 34.59298 16.028823 
L 34.716547 15.8709 
L 34.765975 15.870574 
L 34.840115 15.731373 
L 35.08725 14.455122 
L 35.383812 14.53506 
L 35.457952 14.00333 
L 35.58152 12.44542 
L 35.705087 12.44542 
L 36.248785 11.410125 
L 36.322925 11.849706 
L 36.619487 17.121264 
L 36.743055 17.121264 
L 36.940762 14.302082 
L 37.06433 14.302082 
L 37.187898 16.027195 
L 37.360893 16.027195 
L 37.48446 15.666413 
L 37.608027 15.666413 
L 37.805736 17.539518 
L 38.102298 17.587546 
L 38.349432 18.174469 
L 38.423573 18.174469 
L 38.670708 17.117031 
L 38.917843 16.719617 
L 38.96727 16.719617 
L 39.090837 15.888157 
L 39.214405 15.888157 
L 39.412113 16.017589 
L 39.46154 16.017589 
L 39.659248 15.475602 
L 39.906383 15.187595 
L 40.153518 14.369321 
L 40.202945 14.337575 
L 40.37594 13.554794 
L 40.499507 13.554794 
L 40.623075 18.256687 
L 40.746642 26.541657 
L 40.87021 26.541657 
L 40.993778 25.49008 
L 41.117345 25.49008 
L 41.36448 32.011678 
L 41.438621 32.154135 
L 41.488047 32.638489 
L 41.735183 37.082168 
L 41.932891 37.082168 
L 42.056458 35.62927 
L 42.180026 32.926333 
L 42.35302 9.135373 
L 42.476588 8.464605 
L 42.600155 8.464605 
L 42.723722 9.252106 
L 42.970858 15.629943 
L 43.34156 17.776892 
L 43.465128 20.714435 
L 43.588696 20.714435 
L 43.83583 19.575431 
L 44.157106 17.993101 
L 44.206533 17.993101 
L 44.330101 18.418681 
L 44.651376 18.366908 
L 44.824371 18.012475 
L 44.898511 17.782428 
L 45.071506 16.456845 
L 45.195073 16.456845 
L 45.269214 16.79516 
L 45.31864 16.456845 
L 45.565776 17.654623 
L 45.936478 17.739935 
L 46.307181 18.535577 
L 46.999159 18.535577 
L 47.122726 18.921757 
L 47.246294 18.921757 
L 47.369862 18.453685 
L 50.632044 18.453685 
L 50.879179 17.077632 
L 51.126314 16.266523 
L 51.249881 16.121461 
L 51.373449 15.605848 
L 51.497017 15.635316 
L 51.694725 16.058455 
L 51.818293 16.058455 
L 51.867719 15.927394 
L 51.94186 15.026903 
L 52.065427 11.061065 
L 52.188995 11.061065 
L 52.361989 26.07505 
L 52.559698 26.07505 
L 52.782119 22.957115 
L 52.979827 17.258837 
L 55.451178 17.258837 
L 55.574745 3.000118 
L 55.698312 3.000118 
L 55.82188 3.742033 
L 56.365577 3.700844 
L 56.489145 6.82171 
L 56.859847 17.457626 
L 57.057555 22.122236 
L 57.23055 23.852884 
L 57.30469 23.899447 
L 57.428258 24.453483 
L 57.477685 24.45739 
L 57.79896 24.833964 
L 57.848387 24.525118 
L 58.095522 19.13357 
L 58.21909 18.497643 
L 58.342658 18.497643 
L 58.466225 22.583796 
L 58.589792 25.424957 
L 59.281771 26.307377 
L 59.825468 26.221251 
L 60.146743 26.155965 
L 60.319738 26.077818 
L 60.393878 25.985505 
L 60.641014 19.178668 
L 61.011716 19.161085 
L 61.308278 18.080529 
L 61.431845 18.080529 
L 61.555413 18.306995 
L 61.678981 18.306995 
L 61.802548 18.120905 
L 61.926115 16.537598 
L 62.296818 10.85609 
L 62.543953 9.934109 
L 62.618094 9.909687 
L 63.038223 8.763683 
L 63.408926 12.00942 
L 63.532494 16.025078 
L 63.656061 16.025078 
L 63.779628 14.294756 
L 63.903196 14.294756 
L 64.026763 15.483254 
L 64.273899 20.38361 
L 64.397466 20.38361 
L 64.521033 19.15962 
L 64.644601 13.484298 
L 76.06224 13.484298 
L 76.185808 12.535779 
L 76.630651 12.535779 
L 76.803645 22.928949 
L 76.927213 22.928949 
L 77.001353 22.579238 
L 77.594477 5.279916 
L 77.718045 5.137948 
L 77.792185 4.861827 
L 77.96518 3.271355 
L 78.088747 3.271355 
L 78.212315 3.429117 
L 78.45945 3.429117 
L 78.583018 3.082986 
L 78.706585 2.825262 
L 79.027861 2.825262 
L 79.151428 3.182788 
L 79.44799 3.182788 
L 79.571557 4.26139 
L 79.695125 4.26139 
L 80.189395 3.582646 
L 80.387103 3.517359 
L 80.510671 3.517359 
L 80.683665 4.348166 
L 81.054368 4.330585 
L 81.301503 4.147263 
L 81.499211 4.242016 
L 81.622779 4.394567 
L 82.537178 4.436246 
L 82.734886 3.79397 
L 83.105589 3.913796 
L 83.278583 3.996665 
L 83.402151 3.996665 
L 83.476292 3.798854 
L 83.599859 2.733927 
L 83.772854 2.49753 
L 83.896421 2.363376 
L 83.970561 2.49753 
L 84.019988 2.363376 
L 84.217697 2.319256 
L 84.390691 3.017864 
L 85.082669 3.017864 
L 85.206236 3.631649 
L 88.221284 3.631649 
L 88.418992 3.320198 
L 90.569067 3.320198 
L 90.692634 3.096499 
L 90.93977 3.096499 
L 91.112764 3.589645 
L 93.213412 3.699379 
L 93.460547 14.629163 
L 93.83125 18.325066 
L 93.954817 18.325066 
L 94.078385 21.717984 
L 94.201952 21.717984 
L 94.696222 12.671723 
L 95.017498 12.70168 
L 95.141065 13.571562 
L 95.264633 13.571562 
L 95.437627 13.357797 
L 95.80833 13.218595 
L 96.055465 13.218595 
L 96.253173 12.839253 
L 96.426168 12.807993 
L 96.623875 12.914958 
L 96.920437 19.929538 
L 96.994578 19.929538 
L 97.118146 20.064343 
L 97.29114 19.628018 
L 97.908978 12.773805 
L 97.983118 12.762407 
L 98.032545 12.601553 
L 98.27968 8.591106 
L 98.403248 8.591106 
L 98.600956 9.080019 
L 98.77395 12.053054 
L 99.021085 12.006979 
L 99.218793 11.293066 
L 99.268221 11.293066 
L 99.391788 11.531092 
L 99.836631 16.024102 
L 99.886058 16.243893 
L 100.009626 17.275932 
L 100.133193 17.275932 
L 100.330901 16.977668 
L 100.578036 16.977668 
L 100.627463 16.834397 
L 100.825172 13.023225 
L 100.948739 12.391531 
L 101.492436 12.317942 
L 101.739571 9.399936 
L 101.937279 9.399936 
L 101.986706 9.889011 
L 102.233841 15.643457 
L 102.406835 16.763901 
L 102.604544 16.97197 
L 102.653971 16.814371 
L 102.728111 16.763901 
L 102.901106 12.262587 
L 103.024673 11.80298 
L 103.098814 11.80298 
L 103.271808 12.441675 
L 103.593084 13.250181 
L 104.087354 4.864921 
L 104.136781 4.864921 
L 104.507483 32.852419 
L 104.581624 33.227853 
L 104.754619 37.074189 
L 104.878186 37.193692 
L 104.952326 37.074189 
L 105.372456 34.695567 
L 105.619591 34.695567 
L 105.817299 33.049415 
L 105.990294 30.501959 
L 106.188001 17.70607 
L 106.311569 17.70607 
L 106.360996 18.068156 
L 106.805839 33.19171 
L 106.929407 33.19171 
L 106.978834 32.988525 
L 107.300109 29.53944 
L 107.423677 29.414728 
L 107.473104 29.185332 
L 107.547244 29.414728 
L 107.843806 27.298226 
L 108.338076 19.507703 
L 108.535785 19.590409 
L 108.659352 20.529811 
L 108.832347 20.549022 
L 109.153622 22.875874 
L 109.27719 22.944578 
L 109.400757 23.573506 
L 109.524325 23.573506 
L 109.647893 24.350262 
L 109.697319 24.350262 
L 109.77146 23.934288 
L 109.895027 25.204026 
L 110.018595 23.861187 
L 110.142162 23.79818 
L 110.315157 21.653675 
L 110.438724 21.653675 
L 110.512865 21.888443 
L 110.68586 23.504638 
L 110.809427 29.560117 
L 110.932994 29.560117 
L 111.056562 25.985668 
L 111.25427 26.086772 
L 111.427265 29.699968 
L 111.550832 29.699968 
L 111.674399 26.35166 
L 111.797967 18.465895 
L 112.045102 18.465895 
L 112.292237 20.88457 
L 112.366378 21.103872 
L 112.489945 21.753476 
L 112.860648 21.753476 
L 113.107783 21.083196 
L 113.404345 21.083196 
L 113.527912 17.034651 
L 113.65148 17.034651 
L 113.775048 19.170853 
L 114.14575 19.170853 
L 114.392885 15.250439 
L 114.565879 15.250439 
L 114.887155 16.23624 
L 115.134291 16.129438 
L 115.257858 15.89239 
L 115.430853 17.07926 
L 115.925122 27.435472 
L 116.246398 31.626637 
L 116.369965 31.626637 
L 116.54296 26.378198 
L 116.666528 26.378198 
L 116.790095 27.697593 
L 116.913663 27.697593 
L 117.111371 22.847545 
L 117.358506 15.840943 
L 117.60564 12.111664 
L 117.778635 12.157413 
L 117.852776 12.521614 
L 118.149338 17.596826 
L 118.272905 18.022406 
L 118.470614 18.929247 
L 118.964883 18.872264 
L 119.01431 18.680639 
L 119.261445 13.692529 
L 119.385013 13.692529 
L 119.459153 13.949766 
L 119.706289 16.640167 
L 119.755715 16.640167 
L 119.879283 17.267466 
L 120.002851 17.267466 
L 120.126418 17.564753 
L 120.49712 17.480581 
L 120.620688 18.488363 
L 120.867823 18.488363 
L 120.991391 19.50054 
L 121.114958 19.50054 
L 121.312666 17.953702 
L 121.362094 17.808802 
L 121.609228 15.259393 
L 121.979931 13.55398 
L 122.103499 13.55398 
L 122.227066 13.817892 
L 122.350633 13.817892 
L 122.474201 13.565702 
L 122.597769 13.565702 
L 122.671909 13.790703 
L 122.844904 15.5474 
L 122.968471 15.5474 
L 123.042612 14.830232 
L 123.166179 13.267275 
L 123.289747 13.267275 
L 123.413314 14.577391 
L 123.462741 14.597415 
L 123.586309 15.572309 
L 123.660449 15.572309 
L 123.784017 15.70337 
L 124.204146 15.713464 
L 124.401855 15.624083 
L 124.574849 14.768527 
L 124.945551 14.586833 
L 125.019692 14.164998 
L 125.316254 9.746228 
L 125.439822 9.746228 
L 125.884665 12.974057 
L 126.057659 16.96041 
L 126.181227 17.230671 
L 126.304794 17.230671 
L 126.428361 14.943709 
L 126.62607 13.521906 
L 126.799064 13.33484 
L 126.848492 13.150216 
L 127.046199 13.475506 
L 127.169767 13.288603 
L 127.540469 13.398336 
L 127.589897 13.58996 
L 127.787604 15.848269 
L 127.960599 17.203808 
L 128.084166 17.203808 
L 128.281874 13.632127 
L 128.405442 13.632127 
L 128.52901 13.160636 
L 128.578436 13.160636 
L 128.776145 11.887966 
L 128.899712 11.887966 
L 138.414412 16.228751 
L 138.587406 15.936511 
L 138.834541 9.403192 
L 139.032249 8.377665 
L 139.131103 7.819721 
L 139.328811 7.819721 
L 139.452379 8.091448 
L 139.625373 8.091448 
L 139.823081 8.845574 
L 139.946649 10.041562 
L 140.070216 10.15048 
L 140.193784 11.878035 
L 140.613913 17.840387 
L 140.73748 17.840387 
L 140.935189 17.639156 
L 141.058756 17.686534 
L 141.182324 17.925373 
L 141.305892 22.468691 
L 141.602454 22.468691 
L 141.676594 21.252516 
L 141.849588 17.160338 
L 142.096723 14.176394 
L 142.343859 12.192906 
L 142.467426 11.942507 
L 142.541567 11.619496 
L 142.665134 10.646556 
L 142.788702 10.646556 
L 142.961696 13.034786 
L 143.208831 13.493904 
L 143.406539 14.434771 
L 143.703101 18.075319 
L 143.826669 18.266781 
L 143.900809 18.141907 
L 143.950236 18.141907 
L 144.024377 18.292667 
L 144.197372 17.849504 
L 144.271512 17.795452 
L 144.320939 17.487745 
L 144.642215 12.277566 
L 144.765782 11.921668 
L 144.889349 11.235596 
L 145.062344 11.265388 
L 145.136484 11.362911 
L 145.433047 20.023316 
L 145.556614 24.917973 
L 145.680182 24.917973 
L 145.87789 25.040893 
L 145.927316 25.040893 
L 146.125025 18.814629 
L 146.298019 18.814629 
L 146.495727 28.419159 
L 146.668721 28.419159 
L 146.792289 27.441985 
L 146.86643 27.441985 
L 147.039424 26.7761 
L 147.113565 26.7761 
L 147.162992 25.157301 
L 147.3607 14.983596 
L 147.607835 10.972334 
L 147.904397 10.997082 
L 148.027964 11.347444 
L 148.102105 12.868884 
L 148.34924 30.238863 
L 148.398667 30.238863 
L 148.472808 30.403298 
L 148.596375 30.238863 
L 148.645802 30.238863 
L 148.76937 30.792572 
L 148.967077 33.532466 
L 149.387207 33.532466 
L 149.510775 34.696381 
L 149.634342 34.696381 
L 150.202753 14.877283 
L 150.32632 14.877283 
L 150.449888 16.041522 
L 150.499315 15.47381 
L 150.622882 15.980307 
L 150.697023 15.980307 
L 150.870018 14.947127 
L 150.993585 15.623594 
L 151.117152 15.409827 
L 151.24072 15.409827 
L 151.438428 10.092032 
L 151.611423 10.092032 
L 151.784417 12.716171 
L 151.858557 14.17037 
L 151.982125 17.714537 
L 152.031552 17.890532 
L 152.155119 20.802515 
L 152.278687 20.802515 
L 152.402255 16.653517 
L 152.525822 16.653517 
L 152.599963 16.86354 
L 152.772957 18.31367 
L 152.896525 18.31367 
L 153.14366 10.831506 
L 153.267227 10.760684 
L 153.341368 10.831506 
L 153.588503 12.863185 
L 153.71207 16.142626 
L 153.761498 16.142626 
L 153.835638 16.586115 
L 153.959205 18.44473 
L 154.082773 18.44473 
L 154.577043 12.401299 
L 154.700611 6.844502 
L 154.824178 6.844502 
L 154.947746 12.380948 
L 155.318448 12.380948 
L 155.442016 28.632599 
L 155.491443 28.632599 
L 155.689151 29.302229 
L 155.985713 33.526117 
L 156.479983 33.526117 
L 156.677691 14.954779 
L 156.801259 14.954779 
L 156.850685 15.318329 
L 156.974253 17.572731 
L 157.097821 17.572731 
L 157.344955 15.661365 
L 157.468523 15.478044 
L 157.592091 14.62314 
L 157.962793 14.724406 
L 158.036934 14.764457 
L 158.160501 17.924233 
L 158.531204 17.924233 
L 158.704198 21.813226 
L 158.901906 24.372567 
L 159.025474 24.372567 
L 159.198468 22.765327 
L 159.396177 21.476702 
L 159.519744 21.476702 
L 159.692739 37.489839 
L 159.816306 40.200429 
L 159.939873 40.200429 
L 160.310576 17.877996 
L 160.631852 11.812749 
L 160.804846 10.655511 
L 160.878987 10.655511 
L 160.928414 10.921864 
L 161.422684 25.84663 
L 161.743959 26.88274 
L 162.114662 33.56226 
L 162.164089 33.56226 
L 162.287657 34.36295 
L 162.411224 34.36295 
L 162.534791 34.073802 
L 162.658359 34.050359 
L 162.856067 32.054497 
L 163.029062 32.054497 
L 163.152629 20.564815 
L 163.22677 20.493668 
L 163.894034 13.989003 
L 164.017601 14.015702 
L 164.067029 14.105573 
L 164.314164 16.55225 
L 164.388304 16.55225 
L 164.684866 11.134491 
L 164.808434 10.479841 
L 165.006142 10.551313 
L 165.055569 10.789176 
L 165.253277 14.027914 
L 165.302704 14.096293 
L 165.426271 14.804345 
L 165.549839 14.804345 
L 165.747547 14.683378 
L 165.871114 14.785622 
L 166.044109 15.418456 
L 166.11825 15.418456 
L 166.538379 13.876991 
L 166.661947 12.704122 
L 166.785514 12.704122 
L 167.156217 15.110749 
L 167.403352 15.110749 
L 167.526919 15.473323 
L 167.724627 16.710663 
L 167.848195 16.710663 
L 168.021189 16.356392 
L 168.09533 16.356392 
L 168.391892 16.845468 
L 168.51546 16.813069 
L 168.639027 14.809229 
L 168.836735 14.916682 
L 168.886162 15.006553 
L 169.133297 16.941362 
L 169.256865 16.941362 
L 169.454573 14.912123 
L 169.57814 14.635839 
L 169.751135 14.133738 
L 169.825275 14.00854 
L 170.245405 11.402147 
L 170.49254 11.402147 
L 170.616107 12.451119 
L 170.937383 18.747553 
L 171.48108 18.747553 
L 171.604648 23.042426 
L 171.728215 23.042426 
L 171.851783 20.753509 
L 171.97535 20.753509 
L 172.098917 35.998193 
L 172.222485 35.998193 
L 172.593188 16.076689 
L 172.667328 15.631409 
L 172.790896 14.542387 
L 172.840323 14.542387 
L 173.161598 6.455716 
L 173.334593 6.455716 
L 173.532301 9.692664 
L 173.705296 11.193102 
L 173.903003 11.246665 
L 174.273706 9.391958 
L 174.323133 9.391958 
L 174.446701 10.394692 
L 174.693835 16.772367 
L 174.891544 19.605551 
L 175.064538 19.605551 
L 175.262246 18.542903 
L 175.43524 13.595821 
L 175.756516 12.66049 
L 175.929511 12.870675 
L 176.053078 13.449946 
L 176.226073 13.597124 
L 176.34964 13.917856 
L 176.473208 14.59595 
L 176.670916 14.509825 
L 176.84391 13.923716 
L 176.967478 13.788097 
L 177.165186 13.662085 
L 177.214613 13.662085 
L 177.338181 13.878293 
L 177.461748 14.371276 
L 177.585315 14.371276 
L 177.906591 13.658503 
L 178.203153 13.114887 
L 178.524429 13.09014 
L 179.018699 13.182778 
L 179.191694 13.226899 
L 179.315261 13.170567 
L 179.512969 13.002712 
L 179.562396 12.765827 
L 179.760104 11.255946 
L 179.933099 10.849252 
L 180.180233 10.849252 
L 180.427369 11.907666 
L 180.798071 14.575112 
L 180.872212 14.515849 
L 180.995779 14.329271 
L 181.242914 14.107526 
L 181.663044 11.730205 
L 181.737184 11.738835 
L 181.860752 12.756221 
L 181.984319 14.455773 
L 182.157314 14.455773 
L 182.404449 12.110199 
L 182.528017 11.921179 
L 182.602157 11.596215 
L 182.725724 11.921179 
L 182.97286 10.545778 
L 183.145854 10.545778 
L 183.343562 14.379254 
L 183.46713 14.905123 
L 183.516556 14.905123 
L 183.640124 16.171769 
L 183.763692 16.171769 
L 184.010827 14.50315 
L 184.084967 14.50315 
L 184.579237 18.392469 
L 184.875799 18.602003 
L 184.94994 18.452382 
L 185.740772 12.930588 
L 185.86434 12.930588 
L 185.987907 12.603018 
L 186.111474 12.603018 
L 186.43275 8.242534 
L 186.482177 8.242534 
L 186.729312 12.893142 
L 186.803453 12.893142 
L 186.852879 12.739288 
L 186.92702 11.858335 
L 187.100015 6.161034 
L 187.297723 5.947593 
L 187.421291 6.161034 
L 187.791993 16.467265 
L 188.088555 18.687314 
L 188.286263 18.687314 
L 188.33569 18.564068 
L 188.508684 17.707699 
L 188.706392 17.725933 
L 188.82996 18.092251 
L 188.953528 18.092251 
L 189.002954 17.798708 
L 189.32423 14.204398 
L 189.497225 13.864292 
L 189.694933 14.329434 
L 189.867927 15.823197 
L 190.115062 17.158873 
L 190.312771 17.228229 
L 190.7329 17.218624 
L 190.930608 15.15894 
L 191.054176 14.7542 
L 191.22717 12.595529 
L 191.350738 12.595529 
L 191.72144 15.83671 
L 191.919148 16.086294 
L 192.042715 16.086294 
L 192.413418 18.608515 
L 192.462845 18.608515 
L 192.833548 17.612456 
L 193.204251 11.822843 
L 193.327818 11.822843 
L 193.451385 13.495369 
L 193.574953 15.133217 
L 193.69852 15.133217 
L 193.896228 12.790411 
L 194.019796 12.790411 
L 194.143363 14.38544 
L 194.266931 14.38544 
L 194.316358 14.579019 
L 194.390499 14.433794 
L 194.687061 14.433794 
L 194.810628 14.093037 
L 194.934195 14.093037 
L 195.057763 14.281894 
L 195.255471 18.102834 
L 195.304898 18.290714 
L 195.552033 31.266017 
L 195.922736 34.831023 
L 196.120444 34.917149 
L 196.491146 34.817184 
L 196.614714 32.897026 
L 196.738281 24.501511 
L 196.911276 22.708995 
L 197.034843 22.102862 
L 197.108984 22.265181 
L 197.281979 21.947054 
L 197.405546 20.847775 
L 197.850389 20.829703 
L 198.344659 17.436298 
L 198.468227 17.541472 
L 198.641221 18.682918 
L 198.764789 19.74931 
L 198.888356 19.74931 
L 199.086064 19.119243 
L 199.506194 13.21485 
L 199.629761 13.21485 
L 199.876897 18.58735 
L 200.000464 18.58735 
L 200.124031 16.612489 
L 200.32174 16.612489 
L 200.445307 17.038395 
L 200.494734 17.041 
L 200.618302 17.255906 
L 201.038431 17.113449 
L 201.236139 17.471627 
L 201.359707 17.111822 
L 201.483274 17.471627 
L 201.532701 17.787474 
L 201.656269 17.362546 
L 201.903404 19.825504 
L 202.397674 20.107161 
L 202.521241 20.467293 
L 202.718949 20.427893 
L 202.842517 19.776011 
L 203.015511 19.854321 
L 203.386214 20.18938 
L 203.831057 20.22243 
L 203.954625 20.464525 
L 204.004052 20.464525 
L 204.078192 20.610238 
L 204.127619 20.464525 
L 204.325327 20.553418 
L 204.62189 20.87415 
L 204.869024 20.640684 
L 205.1903 20.596562 
L 205.437435 20.288041 
L 205.561002 20.331186 
L 205.68457 20.718017 
L 206.302408 20.718017 
L 206.475402 16.821372 
L 206.59897 16.536296 
L 206.722537 16.536296 
L 207.16738 21.401322 
L 207.290948 22.682783 
L 207.414515 22.821659 
L 207.834645 22.829962 
L 208.15592 22.558398 
L 208.526623 22.457295 
L 208.699618 21.891537 
L 208.773758 21.891537 
L 208.897326 21.600273 
L 209.020893 22.087558 
L 209.144461 21.516265 
L 209.268028 20.050342 
L 209.317455 20.050342 
L 209.441023 14.552318 
L 209.441023 14.552318 
" clip-path="url(#p5e0b6c1296)" style="fill: none; stroke: #5c80b5; stroke-width: 0.5; stroke-linecap: square"/>
   </g>
  </g>
 </g>
 <defs>
  <clipPath id="p5e0b6c1296">
   <rect x="2.125984" y="0.425197" width="208.346457" height="41.669291"/>
  </clipPath>
 </defs>
</svg>
