<?xml version="1.0" encoding="utf-8" standalone="no"?>
<!DOCTYPE svg PUBLIC "-//W3C//DTD SVG 1.1//EN"
  "http://www.w3.org/Graphics/SVG/1.1/DTD/svg11.dtd">
<svg xmlns:xlink="http://www.w3.org/1999/xlink" width="212.598425pt" height="42.519685pt" viewBox="0 0 212.598425 42.519685" xmlns="http://www.w3.org/2000/svg" version="1.1">
 <metadata>
  <rdf:RDF xmlns:dc="http://purl.org/dc/elements/1.1/" xmlns:cc="http://creativecommons.org/ns#" xmlns:rdf="http://www.w3.org/1999/02/22-rdf-syntax-ns#">
   <cc:Work>
    <dc:type rdf:resource="http://purl.org/dc/dcmitype/StillImage"/>
    <dc:date>2026-06-01T17:59:34.792034</dc:date>
    <dc:format>image/svg+xml</dc:format>
    <dc:creator>
     <cc:Agent>
      <dc:title>Matplotlib v3.10.8, https://matplotlib.org/</dc:title>
     </cc:Agent>
    </dc:creator>
   </cc:Work>
  </rdf:RDF>
 </metadata>
 <defs>
  <style type="text/css">*{stroke-linejoin: round; stroke-linecap: butt}</style>
 </defs>
 <g id="figure_1">
  <g id="patch_1">
   <path d="M 0 42.519685 
L 212.598425 42.519685 
L 212.598425 0 
L 0 0 
z
" style="fill: #ffffff"/>
  </g>
  <g id="axes_1">
   <g id="patch_2">
    <path d="M 2.125984 42.094488 
L 210.472441 42.094488 
L 210.472441 0.425197 
L 2.125984 0.425197 
z
" style="fill: #eaeaf2"/>
   </g>
   <g id="matplotlib.axis_1">
    <g id="xtick_1">
     <g id="line2d_1">
      <path d="M 3.157402 42.094488 
L 3.157402 0.425197 
" clip-path="url(#p86933065f8)" style="fill: none; stroke: #ffffff; stroke-width: 0.9; stroke-linecap: square"/>
     </g>
    </g>
    <g id="xtick_2">
     <g id="line2d_2">
      <path d="M 47.59727 42.094488 
L 47.59727 0.425197 
" clip-path="url(#p86933065f8)" style="fill: none; stroke: #ffffff; stroke-width: 0.9; stroke-linecap: square"/>
     </g>
    </g>
    <g id="xtick_3">
     <g id="line2d_3">
      <path d="M 92.037138 42.094488 
L 92.037138 0.425197 
" clip-path="url(#p86933065f8)" style="fill: none; stroke: #ffffff; stroke-width: 0.9; stroke-linecap: square"/>
     </g>
    </g>
    <g id="xtick_4">
     <g id="line2d_4">
      <path d="M 136.477006 42.094488 
L 136.477006 0.425197 
" clip-path="url(#p86933065f8)" style="fill: none; stroke: #ffffff; stroke-width: 0.9; stroke-linecap: square"/>
     </g>
    </g>
    <g id="xtick_5">
     <g id="line2d_5">
      <path d="M 180.916874 42.094488 
L 180.916874 0.425197 
" clip-path="url(#p86933065f8)" style="fill: none; stroke: #ffffff; stroke-width: 0.9; stroke-linecap: square"/>
     </g>
    </g>
    <g id="xtick_6">
     <g id="line2d_6">
      <path d="M 25.377336 42.094488 
L 25.377336 0.425197 
" clip-path="url(#p86933065f8)" style="fill: none; stroke: #ffffff; stroke-opacity: 0.9; stroke-width: 0.55; stroke-linecap: square"/>
     </g>
    </g>
    <g id="xtick_7">
     <g id="line2d_7">
      <path d="M 69.817204 42.094488 
L 69.817204 0.425197 
" clip-path="url(#p86933065f8)" style="fill: none; stroke: #ffffff; stroke-opacity: 0.9; stroke-width: 0.55; stroke-linecap: square"/>
     </g>
    </g>
    <g id="xtick_8">
     <g id="line2d_8">
      <path d="M 114.257072 42.094488 
L 114.257072 0.425197 
" clip-path="url(#p86933065f8)" style="fill: none; stroke: #ffffff; stroke-opacity: 0.9; stroke-width: 0.55; stroke-linecap: square"/>
     </g>
    </g>
    <g id="xtick_9">
     <g id="line2d_9">
      <path d="M 158.69694 42.094488 
L 158.69694 0.425197 
" clip-path="url(#p86933065f8)" style="fill: none; stroke: #ffffff; stroke-opacity: 0.9; stroke-width: 0.55; stroke-linecap: square"/>
     </g>
    </g>
    <g id="xtick_10">
     <g id="line2d_10">
      <path d="M 203.136808 42.094488 
L 203.136808 0.425197 
" clip-path="url(#p86933065f8)" style="fill: none; stroke: #ffffff; stroke-opacity: 0.9; stroke-width: 0.55; stroke-linecap: square"/>
     </g>
    </g>
   </g>
   <g id="matplotlib.axis_2">
    <g id="ytick_1">
     <g id="line2d_11">
      <path d="M 2.125984 29.95394 
L 210.472441 29.95394 
" clip-path="url(#p86933065f8)" style="fill: none; stroke: #ffffff; stroke-width: 0.9; stroke-linecap: square"/>
     </g>
    </g>
    <g id="ytick_2">
     <g id="line2d_12">
      <path d="M 2.125984 16.315377 
L 210.472441 16.315377 
" clip-path="url(#p86933065f8)" style="fill: none; stroke: #ffffff; stroke-width: 0.9; stroke-linecap: square"/>
     </g>
    </g>
    <g id="ytick_3">
     <g id="line2d_13">
      <path d="M 2.125984 2.676814 
L 210.472441 2.676814 
" clip-path="url(#p86933065f8)" style="fill: none; stroke: #ffffff; stroke-width: 0.9; stroke-linecap: square"/>
     </g>
    </g>
    <g id="ytick_4">
     <g id="line2d_14">
      <path d="M 2.125984 36.773222 
L 210.472441 36.773222 
" clip-path="url(#p86933065f8)" style="fill: none; stroke: #ffffff; stroke-opacity: 0.9; stroke-width: 0.55; stroke-linecap: square"/>
     </g>
    </g>
    <g id="ytick_5">
     <g id="line2d_15">
      <path d="M 2.125984 23.134659 
L 210.472441 23.134659 
" clip-path="url(#p86933065f8)" style="fill: none; stroke: #ffffff; stroke-opacity: 0.9; stroke-width: 0.55; stroke-linecap: square"/>
     </g>
    </g>
    <g id="ytick_6">
     <g id="line2d_16">
      <path d="M 2.125984 9.496096 
L 210.472441 9.496096 
" clip-path="url(#p86933065f8)" style="fill: none; stroke: #ffffff; stroke-opacity: 0.9; stroke-width: 0.55; stroke-linecap: square"/>
     </g>
    </g>
   </g>
   <g id="line2d_17">
    <path d="M 3.157402 7.940703 
L 3.35511 8.25895 
L 3.478678 8.345801 
L 3.651672 9.349619 
L 3.898807 9.349619 
L 4.096515 8.414076 
L 4.26951 8.333162 
L 4.516645 8.620815 
L 4.887348 9.716272 
L 5.085056 10.02097 
L 5.25805 10.440193 
L 5.628753 10.088669 
L 5.75232 10.088669 
L 5.875888 10.597329 
L 6.073596 10.702278 
L 6.24659 10.714632 
L 6.493725 12.543106 
L 6.691433 12.543106 
L 6.740861 12.403876 
L 7.111563 9.579148 
L 7.358698 9.675096 
L 7.556406 10.192279 
L 7.852968 11.049302 
L 8.100103 11.067303 
L 8.174243 10.868895 
L 8.347238 10.144783 
L 8.470806 10.144783 
L 8.594374 9.785887 
L 8.717941 9.785887 
L 8.915649 10.019438 
L 9.459346 10.026141 
L 9.657054 10.152922 
L 9.904189 10.198886 
L 10.027756 10.329594 
L 10.447886 10.320784 
L 10.645594 10.574731 
L 10.892729 10.463653 
L 11.065723 10.048069 
L 11.189291 10.048069 
L 11.386999 9.926554 
L 11.559994 10.071912 
L 11.683561 10.125248 
L 12.054264 11.153676 
L 12.128404 11.153676 
L 12.251972 11.007073 
L 12.301399 11.007073 
L 12.37554 10.83519 
L 12.424966 10.974611 
L 12.548534 10.974611 
L 13.042804 9.928468 
L 13.289939 9.013609 
L 13.537074 9.013609 
L 13.734782 10.715685 
L 14.031344 10.715685 
L 14.105485 11.758954 
L 14.229053 20.152511 
L 14.35262 20.152511 
L 14.599755 18.269838 
L 14.723322 18.187487 
L 14.970458 17.771807 
L 15.143452 17.771807 
L 15.26702 18.463171 
L 15.514154 18.552321 
L 15.637722 18.653919 
L 16.131992 18.591102 
L 16.181419 18.22129 
L 16.304987 8.816349 
L 16.552121 7.838865 
L 16.675689 7.838865 
L 16.996965 9.616972 
L 17.417095 9.631431 
L 17.540662 9.513842 
L 17.664229 8.153426 
L 17.787797 8.153426 
L 18.1585 9.923297 
L 18.405634 10.173127 
L 18.603343 10.129462 
L 18.72691 9.844011 
L 18.974045 8.78226 
L 19.147039 8.78226 
L 19.344748 10.236805 
L 19.517742 10.236805 
L 19.64131 8.762247 
L 19.764877 7.578215 
L 19.888445 7.578215 
L 20.086153 9.315721 
L 20.20972 18.638023 
L 20.382715 18.638023 
L 20.580423 17.822654 
L 20.753418 17.822654 
L 20.951125 18.501091 
L 21.000552 18.519285 
L 21.247687 20.769855 
L 21.371255 20.769855 
L 21.494823 21.018823 
L 21.816098 21.018823 
L 21.939666 10.2911 
L 22.11266 10.048931 
L 22.1868 10.048931 
L 22.236228 9.9368 
L 22.433936 9.36743 
L 22.730498 9.36743 
L 22.977633 8.950314 
L 23.175341 8.832533 
L 23.59547 6.919121 
L 23.719038 4.885344 
L 23.966173 4.885344 
L 24.163881 7.748949 
L 24.287449 17.171891 
L 24.905286 17.171891 
L 25.07828 17.864979 
L 25.275989 17.961693 
L 25.325416 17.961693 
L 25.448983 17.057845 
L 25.572551 17.057845 
L 25.696118 22.202185 
L 25.819686 26.49563 
L 25.943254 26.49563 
L 26.140961 17.977493 
L 26.313956 17.915347 
L 26.388097 17.977493 
L 26.561091 18.953159 
L 26.684659 19.228555 
L 26.808226 19.285817 
L 27.005934 19.891287 
L 27.178929 20.332726 
L 27.302496 20.044977 
L 27.500204 20.547795 
L 27.623772 21.718996 
L 27.747339 21.718996 
L 27.920334 20.569724 
L 28.093328 19.721606 
L 28.167469 19.437209 
L 28.291036 18.374405 
L 28.414603 18.374405 
L 28.587598 19.101581 
L 28.834734 19.101581 
L 29.329003 18.375171 
L 29.403144 18.507985 
L 29.526711 19.167462 
L 29.650279 19.167462 
L 29.773846 19.00908 
L 30.144549 18.962447 
L 30.515252 18.555864 
L 30.762387 18.4693 
L 30.935381 18.063004 
L 31.058949 16.451514 
L 31.133089 16.302708 
L 31.429651 8.701058 
L 31.627359 8.549284 
L 31.750927 8.701058 
L 31.923921 10.814985 
L 31.998062 10.814985 
L 32.171057 11.133759 
L 32.294624 11.133759 
L 32.368764 12.110765 
L 32.541759 19.031296 
L 32.739467 21.792058 
L 32.863034 22.360854 
L 32.986602 23.390717 
L 33.11017 23.390717 
L 33.530299 19.921067 
L 33.728007 19.650363 
L 33.901001 19.379563 
L 34.024569 19.379563 
L 34.271704 19.620583 
L 34.518839 19.620583 
L 34.642407 19.721989 
L 34.840115 20.133168 
L 35.210818 20.130679 
L 35.383812 20.376678 
L 35.58152 20.42944 
L 35.630947 20.366049 
L 35.754514 19.708583 
L 35.878082 19.661375 
L 36.00165 19.551734 
L 36.248785 15.728454 
L 36.322925 15.261832 
L 36.446493 12.404068 
L 36.57006 12.404068 
L 36.693628 16.525342 
L 36.817195 16.525342 
L 36.99019 15.980965 
L 37.113757 15.980965 
L 37.237325 16.443374 
L 37.360893 18.329208 
L 37.48446 18.329208 
L 37.682168 17.016383 
L 37.731595 17.012552 
L 38.05287 16.294568 
L 38.102298 16.294568 
L 38.225865 18.350274 
L 38.423573 22.899868 
L 38.596567 22.899868 
L 38.720135 22.273427 
L 38.917843 20.050339 
L 39.164978 18.79133 
L 39.288546 18.949807 
L 39.412113 18.79133 
L 39.46154 18.79133 
L 39.585108 18.578079 
L 39.832242 15.28941 
L 40.029951 7.083249 
L 40.252373 7.083249 
L 40.37594 8.061595 
L 40.820783 8.462815 
L 40.87021 8.462815 
L 41.117345 7.377031 
L 41.240912 7.20486 
L 41.438621 7.21434 
L 41.488047 7.617858 
L 41.685755 10.459536 
L 41.85875 10.89609 
L 42.056458 10.459536 
L 42.303593 3.814976 
L 42.550728 2.319256 
L 42.674296 3.332554 
L 42.797863 15.049252 
L 42.921431 15.233871 
L 43.094425 15.231764 
L 43.168566 15.099428 
L 43.292134 14.703187 
L 43.83583 14.779793 
L 43.959398 15.140412 
L 44.082965 17.922433 
L 44.280673 17.843434 
L 44.453668 15.204761 
L 44.651376 15.204761 
L 44.774944 14.290955 
L 44.898511 15.441472 
L 45.31864 9.43647 
L 45.442208 15.148456 
L 45.812911 16.271299 
L 45.936478 17.38045 
L 46.060046 17.38045 
L 46.307181 16.304431 
L 46.875591 16.390133 
L 47.172153 14.431429 
L 47.246294 14.527282 
L 47.295721 14.431429 
L 47.419289 14.431429 
L 47.740564 15.499883 
L 47.913558 15.592959 
L 48.160694 16.011033 
L 48.284261 16.261915 
L 48.605537 16.239604 
L 48.778532 16.102385 
L 48.852672 16.239604 
L 48.902099 16.102385 
L 49.099807 15.666979 
L 49.223375 15.476519 
L 49.346942 15.476519 
L 49.519937 16.259904 
L 49.717644 16.620524 
L 50.261342 16.63326 
L 50.45905 15.934619 
L 50.508476 15.934619 
L 50.582617 16.144996 
L 50.706185 16.658731 
L 50.829752 16.658731 
L 51.002747 16.182533 
L 51.076887 15.955302 
L 51.249881 15.123368 
L 51.324022 15.123368 
L 51.44759 15.443291 
L 51.571157 15.393019 
L 51.818293 17.106585 
L 51.867719 16.222655 
L 51.991287 17.228867 
L 52.114855 17.228867 
L 52.361989 19.935527 
L 52.485557 19.863518 
L 52.609124 19.008506 
L 52.782119 10.985815 
L 52.979827 8.517589 
L 53.029254 8.554934 
L 53.152822 9.060912 
L 53.226962 9.060912 
L 53.523524 9.72307 
L 53.597665 9.72307 
L 53.770659 9.222933 
L 53.968367 9.696163 
L 54.017794 9.696163 
L 54.33907 12.176933 
L 54.882767 12.350731 
L 55.080475 12.325451 
L 55.204042 12.17789 
L 55.32761 12.17789 
L 55.451178 12.351976 
L 55.500604 12.351976 
L 55.698312 12.886107 
L 55.74774 12.802512 
L 55.871307 12.611477 
L 56.31615 12.543394 
L 56.686853 10.565539 
L 56.81042 10.565539 
L 56.859847 10.742114 
L 56.983415 20.611282 
L 57.181122 20.711827 
L 57.477685 20.248939 
L 57.72482 20.357527 
L 57.848387 20.63503 
L 57.922528 21.670064 
L 58.095522 30.985663 
L 58.29323 30.985663 
L 58.589792 21.343343 
L 60.443305 21.343343 
L 60.517446 22.01182 
L 60.937576 34.765565 
L 61.061143 35.479144 
L 61.431845 35.37659 
L 61.678981 37.652343 
L 61.926115 37.691604 
L 62.049683 37.221821 
L 62.173251 27.827223 
L 62.420386 27.918862 
L 62.988796 28.114876 
L 63.161791 28.060294 
L 63.235932 26.752545 
L 63.532494 12.933794 
L 63.606634 12.77771 
L 63.977337 10.19745 
L 64.100904 10.19745 
L 64.224471 10.431191 
L 64.273899 10.431191 
L 64.397466 14.201901 
L 64.521033 14.201901 
L 64.718742 9.172565 
L 64.941163 7.140223 
L 65.015304 7.140223 
L 65.138871 7.72185 
L 65.188298 7.140223 
L 65.682568 10.370673 
L 65.806136 10.452546 
L 65.929703 11.319239 
L 66.176838 11.319239 
L 66.423974 10.404188 
L 66.745249 10.088286 
L 66.868817 9.881261 
L 67.041811 9.822849 
L 67.165379 9.440301 
L 67.363086 9.540463 
L 67.536081 10.349415 
L 67.783216 10.915721 
L 68.153918 10.88776 
L 68.524621 10.502818 
L 68.845897 10.51766 
L 68.969464 10.63726 
L 69.093032 10.768925 
L 69.463735 10.671828 
L 69.636729 10.632568 
L 69.883864 10.633621 
L 70.081572 10.756669 
L 70.254566 10.893601 
L 70.328707 10.804835 
L 70.378134 10.882971 
L 70.501702 10.882971 
L 70.69941 10.755137 
L 70.822977 10.77199 
L 70.995972 11.024021 
L 71.243107 11.0561 
L 71.490241 10.899347 
L 71.68795 10.875599 
L 71.811517 10.633717 
L 71.935085 10.545908 
L 71.984512 10.397964 
L 72.058653 10.50502 
L 72.231647 10.545908 
L 72.478782 10.574635 
L 72.849484 10.665317 
L 72.923625 10.74173 
L 72.973052 10.665317 
L 73.17076 10.535853 
L 73.343754 10.443448 
L 73.541463 10.509712 
L 73.714457 10.631802 
L 73.912165 10.669147 
L 73.961592 10.631802 
L 74.085159 10.287269 
L 74.282868 10.287269 
L 74.455862 10.290812 
L 74.57943 10.11395 
L 74.702997 10.00268 
L 74.826565 8.620527 
L 74.950133 8.620527 
L 75.197267 9.399604 
L 75.271408 9.602034 
L 75.394976 10.608054 
L 75.56797 10.608054 
L 75.765678 10.183852 
L 75.938672 10.183852 
L 76.630651 7.718308 
L 76.754218 8.05269 
L 76.927213 12.815247 
L 77.05078 12.815247 
L 77.174348 11.88564 
L 77.347342 10.61763 
L 77.421482 10.61763 
L 77.668618 11.171391 
L 77.792185 11.091338 
L 77.915753 10.979399 
L 78.03932 10.979399 
L 78.162888 11.55212 
L 78.830152 12.654184 
L 78.904293 12.654184 
L 79.077288 13.170983 
L 79.44799 13.289722 
L 79.645698 13.660971 
L 79.769266 13.73432 
L 79.818693 13.791775 
L 79.892833 13.660971 
L 79.94226 13.768697 
L 80.139968 13.768697 
L 80.263536 13.390841 
L 80.881374 13.964807 
L 81.252076 13.189082 
L 81.375643 13.189082 
L 81.548638 13.519155 
L 81.919341 13.525954 
L 82.042908 12.73778 
L 82.166475 12.73778 
L 82.290043 13.232268 
L 83.155016 13.169164 
L 83.599859 10.130515 
L 83.723426 10.130515 
L 83.896421 11.852605 
L 84.094129 12.280829 
L 84.390691 12.798298 
L 84.514259 13.85957 
L 84.761393 13.85957 
L 85.206236 13.100028 
L 85.379231 13.016911 
L 85.502798 12.863987 
L 85.626366 12.863987 
L 85.873501 13.254388 
L 86.071209 13.177208 
L 86.244204 13.079727 
L 86.441912 13.154896 
L 86.614906 13.231789 
L 86.936182 12.836888 
L 87.479879 10.33352 
L 87.677587 10.247817 
L 87.801154 10.247817 
L 88.295425 13.301213 
L 88.418992 13.272581 
L 88.666127 12.938007 
L 89.086257 13.026678 
L 89.333392 13.202487 
L 89.704095 13.146278 
L 89.877089 12.997568 
L 90.198364 12.924506 
L 90.618494 12.643555 
L 90.93977 12.910334 
L 91.112764 13.559756 
L 91.236332 13.559756 
L 91.310472 13.292977 
L 91.359899 13.426845 
L 91.483467 13.391032 
L 91.557607 13.190422 
L 91.681175 13.391032 
L 91.730601 13.391032 
L 91.92831 12.680805 
L 92.101304 12.649397 
L 92.224872 12.793702 
L 92.42258 12.904971 
L 92.595575 12.838803 
L 92.842709 12.47464 
L 92.966277 12.370744 
L 93.460547 11.839964 
L 93.584114 15.977709 
L 93.83125 26.024027 
L 93.90539 26.024027 
L 94.152525 19.881711 
L 94.276093 18.730811 
L 94.39966 8.705177 
L 94.523228 8.705177 
L 94.696222 11.086455 
L 94.89393 11.029384 
L 95.066925 10.441055 
L 95.264633 9.35412 
L 95.3882 9.334777 
L 95.635336 9.093852 
L 95.88247 9.080542 
L 96.006038 9.242659 
L 96.129605 9.099119 
L 96.253173 9.034484 
L 96.426168 8.842683 
L 96.871011 8.795475 
L 97.044005 10.15771 
L 97.241713 10.15771 
L 97.538275 7.022251 
L 97.661842 7.022251 
L 97.735983 7.139171 
L 97.859551 7.457657 
L 98.032545 7.457657 
L 98.156113 7.157843 
L 98.27968 7.157843 
L 98.403248 6.603603 
L 98.526816 7.334898 
L 98.600956 7.334898 
L 98.650383 7.826704 
L 98.848091 13.548935 
L 98.897518 13.548935 
L 99.095226 14.602068 
L 99.218793 14.318149 
L 99.342361 14.318149 
L 99.465929 14.07148 
L 99.638923 14.073012 
L 99.762491 15.896124 
L 99.836631 15.896124 
L 99.960198 16.190768 
L 100.009626 16.190768 
L 100.330901 16.524289 
L 100.380328 16.483401 
L 100.503896 16.008447 
L 100.578036 16.008447 
L 100.751031 14.953686 
L 100.948739 15.621494 
L 100.998166 15.621494 
L 101.121734 16.317454 
L 101.195874 16.318508 
L 101.319441 16.706418 
L 101.492436 16.706418 
L 101.616003 16.873897 
L 101.863139 16.873897 
L 102.110273 15.844607 
L 102.283268 14.346589 
L 102.406835 14.346589 
L 102.777538 15.042932 
L 102.901106 15.796921 
L 103.024673 15.796921 
L 103.271808 14.71688 
L 103.518943 14.71688 
L 103.642511 13.944028 
L 103.766078 13.944028 
L 104.013214 17.67471 
L 104.136781 19.024497 
L 104.260348 19.024497 
L 104.383916 17.347605 
L 104.507483 17.347605 
L 104.754619 18.195339 
L 104.828759 19.952763 
L 104.952326 18.486632 
L 105.446596 18.486632 
L 105.570164 18.373639 
L 105.743158 18.373639 
L 105.940867 18.2391 
L 106.113861 17.272532 
L 106.188001 17.272532 
L 106.237429 17.483388 
L 106.435137 19.437304 
L 106.484564 19.437304 
L 106.731699 17.060239 
L 106.855266 15.612302 
L 106.978834 15.612302 
L 107.052975 16.344649 
L 107.300109 23.020043 
L 107.473104 25.382841 
L 107.720239 25.353443 
L 107.843806 25.072014 
L 107.967374 23.999826 
L 108.090942 23.999826 
L 108.28865 25.364742 
L 108.338076 25.367902 
L 108.461644 25.781954 
L 108.585212 25.781954 
L 108.708779 24.88864 
L 108.832347 22.242307 
L 109.030055 17.007956 
L 109.153622 17.007956 
L 109.27719 17.007956 
L 109.524325 19.095166 
L 109.820887 25.820832 
L 110.018595 25.820832 
L 110.142162 24.982481 
L 110.26573 24.982481 
L 110.636432 33.518525 
L 110.883568 20.865516 
L 110.932994 20.865516 
L 111.130703 33.971454 
L 111.303697 33.971454 
L 111.501405 19.922504 
L 111.624973 19.685985 
L 111.797967 19.685985 
L 112.119242 22.515884 
L 112.16867 22.269693 
L 112.539373 21.436418 
L 112.613513 21.436418 
L 112.66294 21.598821 
L 112.73708 21.485637 
L 113.033642 21.452122 
L 113.107783 21.342098 
L 113.280778 20.814861 
L 113.478485 20.665767 
L 113.527912 20.40416 
L 113.775048 11.953532 
L 114.219891 11.953532 
L 114.269317 12.286861 
L 114.565879 21.631762 
L 114.64002 21.631762 
L 114.813015 20.358676 
L 114.936582 20.358676 
L 115.183717 20.882274 
L 115.257858 20.882274 
L 115.307285 20.353314 
L 115.62856 12.670271 
L 115.752128 12.670271 
L 115.875696 18.261507 
L 116.04869 18.261507 
L 116.172258 19.204424 
L 116.369965 17.529639 
L 116.493533 11.347009 
L 116.617101 10.952491 
L 116.790095 11.191883 
L 116.864235 11.125811 
L 116.913663 11.191883 
L 117.03723 11.191883 
L 117.358506 8.24631 
L 117.407933 8.24631 
L 117.778635 9.477551 
L 118.149338 11.785767 
L 118.272905 11.869266 
L 118.52004 12.639438 
L 118.594181 12.639438 
L 118.767176 12.352934 
L 118.964883 12.277382 
L 119.01431 12.169751 
L 119.212019 11.14525 
L 119.385013 10.794301 
L 119.879283 7.749907 
L 120.249986 9.583458 
L 120.447694 8.882805 
L 120.620688 8.882805 
L 120.744256 8.361601 
L 120.991391 9.889879 
L 121.114958 11.352084 
L 121.436234 20.448591 
L 121.609228 20.448591 
L 121.856363 18.800043 
L 122.054071 18.800043 
L 122.227066 20.59778 
L 122.474201 20.926992 
L 122.671909 20.926992 
L 122.844904 20.613388 
L 123.042612 20.547221 
L 123.092038 20.547221 
L 123.215606 21.30006 
L 123.413314 21.238393 
L 123.586309 20.596631 
L 123.784017 20.508822 
L 124.031152 20.4326 
L 124.451281 20.643743 
L 124.574849 19.965403 
L 124.945551 19.965403 
L 125.069119 20.16812 
L 125.266827 20.593088 
L 125.390394 20.529027 
L 125.761097 19.988959 
L 125.884665 19.988959 
L 126.008232 20.337514 
L 126.131799 19.880466 
L 126.181227 19.880466 
L 126.502502 19.332642 
L 126.675497 19.332642 
L 126.848492 17.849753 
L 127.046199 11.260924 
L 127.095626 11.063952 
L 127.219194 7.613932 
L 127.342761 7.613932 
L 127.540469 10.252414 
L 127.664037 10.30125 
L 127.787604 10.88345 
L 128.084166 19.801467 
L 128.331302 16.190672 
L 128.52901 13.974191 
L 128.702004 13.790434 
L 128.899712 12.754729 
L 138.463838 14.467625 
L 138.834541 14.904563 
L 138.908681 14.904563 
L 138.958108 14.682504 
L 139.032249 14.781899 
L 139.205243 14.668619 
L 139.452379 14.646978 
L 139.748941 13.84693 
L 139.823081 14.01393 
L 139.946649 13.664705 
L 140.119643 13.669397 
L 140.317351 12.916366 
L 140.490346 8.381998 
L 140.73748 8.178419 
L 140.861048 7.746268 
L 140.984616 7.746268 
L 141.182324 9.575988 
L 141.355318 11.508934 
L 141.478886 13.924685 
L 141.676594 16.667637 
L 141.849588 17.214503 
L 141.923729 17.214503 
L 142.047297 16.664381 
L 142.096723 16.639197 
L 142.343859 14.356261 
L 142.417999 14.078566 
L 142.665134 10.151486 
L 143.332398 9.345981 
L 143.406539 9.393189 
L 144.073804 11.437595 
L 144.147944 11.437595 
L 144.271512 10.029397 
L 144.444506 8.496235 
L 144.568074 8.496235 
L 144.691641 8.320522 
L 144.815209 8.320522 
L 144.889349 8.658064 
L 145.012917 11.939552 
L 145.136484 11.939552 
L 145.260052 9.350577 
L 145.433047 9.456675 
L 145.556614 10.827145 
L 145.680182 10.827145 
L 145.803749 7.767144 
L 145.927316 7.767144 
L 146.125025 8.407277 
L 146.372159 8.511077 
L 146.495727 9.554443 
L 146.619295 13.629658 
L 146.792289 13.629658 
L 147.113565 9.343299 
L 147.286559 8.711592 
L 147.3607 8.692727 
L 147.484267 8.189909 
L 147.607835 8.189909 
L 147.731402 7.278497 
L 147.780829 7.478628 
L 147.85497 7.278497 
L 148.151532 4.694405 
L 148.472808 3.112505 
L 148.645802 3.584969 
L 148.76937 4.288972 
L 149.016505 5.679837 
L 149.140072 6.256294 
L 149.214213 6.03701 
L 149.387207 6.788797 
L 149.510775 11.053515 
L 149.708482 11.053515 
L 149.832051 8.861835 
L 149.955618 8.861835 
L 150.079185 13.425409 
L 150.202753 13.927366 
L 150.375747 18.064919 
L 150.573456 21.230349 
L 150.697023 21.230349 
L 150.870018 18.868988 
L 150.993585 17.474483 
L 151.117152 5.507668 
L 151.24072 5.507668 
L 151.314861 6.350039 
L 151.438428 14.66996 
L 151.537282 16.168361 
L 151.73499 16.168361 
L 151.858557 14.140712 
L 151.982125 8.90751 
L 152.105693 8.90751 
L 152.22926 9.428522 
L 152.278687 9.428522 
L 152.402255 10.653443 
L 152.599963 10.748242 
L 152.723531 11.698245 
L 152.970665 8.059201 
L 153.2178 6.068419 
L 153.341368 6.068419 
L 153.514362 7.678952 
L 153.63793 10.196874 
L 153.71207 10.388388 
L 153.959205 12.73146 
L 154.1322 12.859582 
L 154.329908 12.823003 
L 154.577043 10.001914 
L 154.700611 10.001914 
L 154.824178 11.567537 
L 154.947746 11.567537 
L 155.12074 10.681787 
L 155.244308 10.59934 
L 155.367875 10.465281 
L 155.491443 9.375187 
L 155.615011 9.375187 
L 155.689151 9.576467 
L 155.862145 10.472463 
L 155.936286 10.578082 
L 156.10928 12.81314 
L 156.232848 12.81314 
L 156.850685 9.80906 
L 156.974253 9.80906 
L 157.171961 11.176467 
L 157.295529 11.715002 
L 157.468523 11.739995 
L 157.715658 11.253934 
L 157.913366 12.214086 
L 158.160501 12.835548 
L 158.333496 12.536691 
L 158.407636 12.536691 
L 158.531204 11.196767 
L 158.704198 8.249088 
L 158.827766 7.289412 
L 159.074901 3.345098 
L 159.198468 2.420853 
L 159.322036 2.420853 
L 159.445603 4.938872 
L 159.692739 12.763539 
L 159.766879 13.096293 
L 160.014014 17.192288 
L 160.261149 18.633714 
L 160.384716 18.576068 
L 160.434144 18.576068 
L 160.557711 6.481609 
L 160.681278 6.481609 
L 160.755419 6.624286 
L 161.051981 9.885857 
L 161.299116 9.831659 
L 161.669819 7.932707 
L 161.867527 7.932707 
L 162.114662 10.397485 
L 162.164089 10.397485 
L 162.287657 11.860935 
L 162.361797 11.860935 
L 162.534791 11.322782 
L 162.658359 11.249912 
L 162.781927 10.37843 
L 162.905494 11.249912 
L 163.103202 16.304623 
L 163.22677 16.555697 
L 163.399764 19.368168 
L 163.597472 20.631774 
L 163.721039 22.33634 
L 163.894034 22.302921 
L 164.067029 20.692484 
L 164.264737 19.663386 
L 164.437732 19.673153 
L 164.561299 19.485949 
L 164.635439 19.485949 
L 164.759007 16.956726 
L 164.808434 16.895729 
L 164.882575 16.585286 
L 165.006142 15.498447 
L 165.129709 15.498447 
L 165.302704 16.372897 
L 165.426271 16.372897 
L 165.673407 16.978559 
L 166.167676 22.91471 
L 166.291244 22.817422 
L 166.414812 21.893943 
L 166.488952 21.834287 
L 166.661947 20.442942 
L 166.859655 20.353505 
L 166.983222 20.442942 
L 167.156217 21.561093 
L 167.279784 21.561093 
L 167.526919 20.099654 
L 167.724627 20.20987 
L 168.021189 20.644988 
L 168.09533 20.454145 
L 168.342465 18.539585 
L 168.466032 18.58392 
L 168.51546 18.668569 
L 168.713168 19.51458 
L 168.960303 19.542062 
L 169.133297 19.48796 
L 169.331005 19.48796 
L 169.503999 19.802904 
L 169.57814 19.802904 
L 169.751135 20.086056 
L 169.874702 20.086056 
L 169.99827 20.057138 
L 170.121837 19.551255 
L 170.245405 19.52406 
L 170.319545 19.347102 
L 170.49254 19.685889 
L 170.616107 19.52406 
L 170.690248 19.690006 
L 170.739675 20.341535 
L 171.308085 38.156502 
L 171.357512 38.156502 
L 171.431653 37.041128 
L 171.604648 29.931669 
L 171.802355 29.931669 
L 172.049491 34.518801 
L 172.098917 34.518801 
L 172.222485 30.634045 
L 172.46962 22.497498 
L 172.54376 22.102693 
L 172.716755 20.065469 
L 172.914463 19.996237 
L 173.087458 20.278815 
L 173.285166 21.263385 
L 173.45816 21.263385 
L 173.581728 20.852876 
L 173.655868 20.852876 
L 173.779436 19.934857 
L 173.95243 19.979862 
L 174.273706 18.972406 
L 174.446701 18.785297 
L 174.767976 17.185776 
L 174.940971 17.244284 
L 175.064538 17.563345 
L 175.138678 17.58039 
L 175.385814 20.782591 
L 175.43524 20.782591 
L 175.509381 21.171172 
L 175.632949 20.782591 
L 175.880084 21.022653 
L 176.003652 20.87356 
L 176.053078 20.87356 
L 176.300214 20.352452 
L 176.473208 20.352452 
L 176.670916 20.836694 
L 177.091045 20.762003 
L 177.214613 20.685111 
L 177.659456 21.17347 
L 177.956018 21.030314 
L 178.32672 21.514555 
L 178.697423 21.47338 
L 178.820991 21.304657 
L 179.389401 21.278132 
L 179.562396 21.744084 
L 179.685963 21.744084 
L 179.760104 21.448388 
L 179.933099 20.057329 
L 180.180233 19.817172 
L 180.501509 20.291646 
L 180.550936 20.495129 
L 180.674504 21.432875 
L 180.921638 21.432875 
L 181.168774 21.07417 
L 181.366481 21.017099 
L 181.613617 19.756462 
L 181.786612 19.756462 
L 181.910179 20.363655 
L 182.033746 21.124059 
L 182.404449 21.173853 
L 182.651584 21.750883 
L 183.145854 21.714591 
L 183.343562 22.595266 
L 183.46713 21.714591 
L 183.516556 21.742456 
L 183.590697 21.900838 
L 183.763692 21.252278 
L 183.961399 20.062022 
L 184.010827 20.062022 
L 184.134394 20.660214 
L 184.628664 29.090541 
L 184.702805 29.090541 
L 185.073507 23.26767 
L 185.122935 23.158699 
L 185.370069 21.386433 
L 185.617204 21.336831 
L 185.691345 21.336831 
L 185.86434 21.679927 
L 186.062048 21.590395 
L 186.309183 21.394859 
L 186.35861 21.394859 
L 186.556317 21.826531 
L 186.729312 21.827009 
L 186.976447 23.038141 
L 187.050588 23.160231 
L 187.223582 25.188167 
L 187.34715 25.755334 
L 187.791993 27.999393 
L 187.964987 26.599334 
L 188.33569 22.440236 
L 188.459258 22.440236 
L 188.706392 21.296517 
L 188.75582 21.246628 
L 189.077095 19.023827 
L 189.200663 19.023827 
L 189.32423 18.78568 
L 189.373657 18.78568 
L 189.497225 18.631511 
L 189.620792 18.631511 
L 189.867927 19.297021 
L 189.942068 19.297021 
L 190.065635 19.470628 
L 190.189203 19.534402 
L 190.312771 19.702838 
L 190.609333 19.667312 
L 190.683473 19.572034 
L 190.80704 19.168803 
L 190.930608 19.178666 
L 191.177743 20.298636 
L 191.350738 20.584853 
L 191.548445 20.298636 
L 191.672013 20.744767 
L 191.795581 20.744767 
L 191.919148 21.827297 
L 192.092143 23.282512 
L 192.339277 24.040044 
L 192.413418 24.079878 
L 192.536986 24.488185 
L 192.70998 24.4698 
L 192.78412 23.848339 
L 192.957115 21.785164 
L 193.204251 21.785164 
L 193.327818 22.269023 
L 193.451385 22.269023 
L 193.525526 22.124909 
L 193.649094 21.386433 
L 193.772661 21.3804 
L 193.945656 21.041134 
L 194.019796 21.011737 
L 194.266931 18.575781 
L 194.439925 17.948383 
L 194.637633 17.817484 
L 194.687061 17.817484 
L 194.884769 19.111923 
L 194.934195 19.229991 
L 195.181331 21.91884 
L 195.502606 36.04679 
L 195.799168 37.490228 
L 196.046303 40.200429 
L 196.169871 40.200429 
L 196.293438 38.874008 
L 196.787708 31.272359 
L 196.861849 31.272359 
L 197.034843 32.295137 
L 197.281979 32.237013 
L 197.405546 28.846363 
L 197.603254 21.239159 
L 197.776249 19.921929 
L 197.899816 19.921929 
L 198.023384 20.100707 
L 198.221092 19.701593 
L 198.344659 19.976894 
L 198.394086 19.976894 
L 198.764789 21.46639 
L 198.888356 23.31507 
L 199.011924 23.31507 
L 199.259059 21.739583 
L 199.333199 21.739583 
L 199.456767 22.358938 
L 199.753329 22.280034 
L 200.000464 22.069178 
L 200.124031 21.718804 
L 200.32174 21.718804 
L 200.618302 22.281854 
L 201.038431 20.070448 
L 201.161998 20.070448 
L 201.359707 19.846952 
L 201.409134 20.078779 
L 201.532701 20.990287 
L 201.779836 33.897818 
L 201.853977 34.248191 
L 202.026972 36.10434 
L 202.150539 37.015082 
L 202.644809 36.917219 
L 202.718949 36.540033 
L 203.015511 32.504173 
L 203.21322 36.616734 
L 204.004052 37.364978 
L 204.869024 37.34956 
L 205.239727 36.692573 
L 205.561002 33.425833 
L 205.857564 33.516994 
L 205.981132 33.873496 
L 206.302408 33.426885 
L 206.425975 22.835041 
L 206.475402 22.828242 
L 206.549543 22.660189 
L 206.722537 21.687492 
L 206.920245 21.687492 
L 207.16738 23.731228 
L 207.414515 19.875679 
L 207.538083 19.792754 
L 207.785218 20.037412 
L 207.908785 20.844163 
L 208.08178 20.774547 
L 208.328915 19.609092 
L 208.65019 19.687325 
L 208.699618 19.747556 
L 208.823185 20.417183 
L 208.946752 20.417183 
L 209.07032 19.205382 
L 209.441023 10.005936 
L 209.441023 10.005936 
" clip-path="url(#p86933065f8)" style="fill: none; stroke: #5c80b5; stroke-width: 0.5; stroke-linecap: square"/>
   </g>
  </g>
 </g>
 <defs>
  <clipPath id="p86933065f8">
   <rect x="2.125984" y="0.425197" width="208.346457" height="41.669291"/>
  </clipPath>
 </defs>
</svg>
