<?xml version="1.0" encoding="utf-8" standalone="no"?>
<!DOCTYPE svg PUBLIC "-//W3C//DTD SVG 1.1//EN"
  "http://www.w3.org/Graphics/SVG/1.1/DTD/svg11.dtd">
<svg xmlns:xlink="http://www.w3.org/1999/xlink" width="212.598425pt" height="42.519685pt" viewBox="0 0 212.598425 42.519685" xmlns="http://www.w3.org/2000/svg" version="1.1">
 <metadata>
  <rdf:RDF xmlns:dc="http://purl.org/dc/elements/1.1/" xmlns:cc="http://creativecommons.org/ns#" xmlns:rdf="http://www.w3.org/1999/02/22-rdf-syntax-ns#">
   <cc:Work>
    <dc:type rdf:resource="http://purl.org/dc/dcmitype/StillImage"/>
    <dc:date>2026-06-01T17:59:35.050594</dc:date>
    <dc:format>image/svg+xml</dc:format>
    <dc:creator>
     <cc:Agent>
      <dc:title>Matplotlib v3.10.8, https://matplotlib.org/</dc:title>
     </cc:Agent>
    </dc:creator>
   </cc:Work>
  </rdf:RDF>
 </metadata>
 <defs>
  <style type="text/css">*{stroke-linejoin: round; stroke-linecap: butt}</style>
 </defs>
 <g id="figure_1">
  <g id="patch_1">
   <path d="M 0 42.519685 
L 212.598425 42.519685 
L 212.598425 0 
L 0 0 
z
" style="fill: #ffffff"/>
  </g>
  <g id="axes_1">
   <g id="patch_2">
    <path d="M 2.125984 42.094488 
L 210.472441 42.094488 
L 210.472441 0.425197 
L 2.125984 0.425197 
z
" style="fill: #eaeaf2"/>
   </g>
   <g id="matplotlib.axis_1">
    <g id="xtick_1">
     <g id="line2d_1">
      <path d="M 3.157402 42.094488 
L 3.157402 0.425197 
" clip-path="url(#p8f26da4048)" style="fill: none; stroke: #ffffff; stroke-width: 0.9; stroke-linecap: square"/>
     </g>
    </g>
    <g id="xtick_2">
     <g id="line2d_2">
      <path d="M 47.59727 42.094488 
L 47.59727 0.425197 
" clip-path="url(#p8f26da4048)" style="fill: none; stroke: #ffffff; stroke-width: 0.9; stroke-linecap: square"/>
     </g>
    </g>
    <g id="xtick_3">
     <g id="line2d_3">
      <path d="M 92.037138 42.094488 
L 92.037138 0.425197 
" clip-path="url(#p8f26da4048)" style="fill: none; stroke: #ffffff; stroke-width: 0.9; stroke-linecap: square"/>
     </g>
    </g>
    <g id="xtick_4">
     <g id="line2d_4">
      <path d="M 136.477006 42.094488 
L 136.477006 0.425197 
" clip-path="url(#p8f26da4048)" style="fill: none; stroke: #ffffff; stroke-width: 0.9; stroke-linecap: square"/>
     </g>
    </g>
    <g id="xtick_5">
     <g id="line2d_5">
      <path d="M 180.916874 42.094488 
L 180.916874 0.425197 
" clip-path="url(#p8f26da4048)" style="fill: none; stroke: #ffffff; stroke-width: 0.9; stroke-linecap: square"/>
     </g>
    </g>
    <g id="xtick_6">
     <g id="line2d_6">
      <path d="M 25.377336 42.094488 
L 25.377336 0.425197 
" clip-path="url(#p8f26da4048)" style="fill: none; stroke: #ffffff; stroke-opacity: 0.9; stroke-width: 0.55; stroke-linecap: square"/>
     </g>
    </g>
    <g id="xtick_7">
     <g id="line2d_7">
      <path d="M 69.817204 42.094488 
L 69.817204 0.425197 
" clip-path="url(#p8f26da4048)" style="fill: none; stroke: #ffffff; stroke-opacity: 0.9; stroke-width: 0.55; stroke-linecap: square"/>
     </g>
    </g>
    <g id="xtick_8">
     <g id="line2d_8">
      <path d="M 114.257072 42.094488 
L 114.257072 0.425197 
" clip-path="url(#p8f26da4048)" style="fill: none; stroke: #ffffff; stroke-opacity: 0.9; stroke-width: 0.55; stroke-linecap: square"/>
     </g>
    </g>
    <g id="xtick_9">
     <g id="line2d_9">
      <path d="M 158.69694 42.094488 
L 158.69694 0.425197 
" clip-path="url(#p8f26da4048)" style="fill: none; stroke: #ffffff; stroke-opacity: 0.9; stroke-width: 0.55; stroke-linecap: square"/>
     </g>
    </g>
    <g id="xtick_10">
     <g id="line2d_10">
      <path d="M 203.136808 42.094488 
L 203.136808 0.425197 
" clip-path="url(#p8f26da4048)" style="fill: none; stroke: #ffffff; stroke-opacity: 0.9; stroke-width: 0.55; stroke-linecap: square"/>
     </g>
    </g>
   </g>
   <g id="matplotlib.axis_2">
    <g id="ytick_1">
     <g id="line2d_11">
      <path d="M 2.125984 38.238924 
L 210.472441 38.238924 
" clip-path="url(#p8f26da4048)" style="fill: none; stroke: #ffffff; stroke-width: 0.9; stroke-linecap: square"/>
     </g>
    </g>
    <g id="ytick_2">
     <g id="line2d_12">
      <path d="M 2.125984 26.192344 
L 210.472441 26.192344 
" clip-path="url(#p8f26da4048)" style="fill: none; stroke: #ffffff; stroke-width: 0.9; stroke-linecap: square"/>
     </g>
    </g>
    <g id="ytick_3">
     <g id="line2d_13">
      <path d="M 2.125984 14.145765 
L 210.472441 14.145765 
" clip-path="url(#p8f26da4048)" style="fill: none; stroke: #ffffff; stroke-width: 0.9; stroke-linecap: square"/>
     </g>
    </g>
    <g id="ytick_4">
     <g id="line2d_14">
      <path d="M 2.125984 2.099185 
L 210.472441 2.099185 
" clip-path="url(#p8f26da4048)" style="fill: none; stroke: #ffffff; stroke-width: 0.9; stroke-linecap: square"/>
     </g>
    </g>
    <g id="ytick_5">
     <g id="line2d_15">
      <path d="M 2.125984 32.215634 
L 210.472441 32.215634 
" clip-path="url(#p8f26da4048)" style="fill: none; stroke: #ffffff; stroke-opacity: 0.9; stroke-width: 0.55; stroke-linecap: square"/>
     </g>
    </g>
    <g id="ytick_6">
     <g id="line2d_16">
      <path d="M 2.125984 20.169055 
L 210.472441 20.169055 
" clip-path="url(#p8f26da4048)" style="fill: none; stroke: #ffffff; stroke-opacity: 0.9; stroke-width: 0.55; stroke-linecap: square"/>
     </g>
    </g>
    <g id="ytick_7">
     <g id="line2d_17">
      <path d="M 2.125984 8.122475 
L 210.472441 8.122475 
" clip-path="url(#p8f26da4048)" style="fill: none; stroke: #ffffff; stroke-opacity: 0.9; stroke-width: 0.55; stroke-linecap: square"/>
     </g>
    </g>
   </g>
   <g id="line2d_18">
    <path d="M 3.157402 30.157518 
L 3.404538 31.512024 
L 3.528105 31.589082 
L 3.651672 31.909346 
L 3.77524 34.335568 
L 3.898807 34.335568 
L 4.022375 32.419092 
L 4.220083 32.3312 
L 4.393077 32.3312 
L 4.467218 32.472369 
L 4.590786 33.187399 
L 4.714353 33.104473 
L 4.887348 32.915293 
L 5.085056 32.030801 
L 5.381618 31.741688 
L 5.455758 31.741688 
L 5.628753 32.921313 
L 5.875888 32.868638 
L 5.950028 32.70715 
L 6.197163 29.625799 
L 6.370158 21.322978 
L 6.493725 21.046207 
L 6.691433 22.048843 
L 6.938569 30.423152 
L 7.185704 30.461529 
L 7.7294 31.113047 
L 8.050676 31.070005 
L 8.223671 31.088365 
L 8.421379 31.232244 
L 8.470806 31.287929 
L 8.668514 31.667341 
L 9.582913 31.647927 
L 10.077184 30.994754 
L 10.324318 30.992647 
L 10.447886 31.52271 
L 10.645594 31.750718 
L 10.695021 31.911454 
L 10.942156 33.342264 
L 11.386999 33.814234 
L 11.683561 33.885421 
L 12.054264 33.615122 
L 12.251972 33.44927 
L 12.37554 33.427447 
L 12.548534 33.155643 
L 12.919236 33.235257 
L 13.166372 33.141195 
L 13.289939 31.622342 
L 13.537074 31.479216 
L 13.660641 27.354594 
L 13.784209 27.144043 
L 13.85835 27.198224 
L 13.981917 27.144043 
L 14.105485 26.438044 
L 14.402047 26.438044 
L 14.599755 25.431496 
L 14.723322 25.431496 
L 14.84689 25.824453 
L 14.970458 25.897446 
L 15.217592 26.814898 
L 15.390587 27.01702 
L 15.563582 27.032522 
L 15.637722 27.130799 
L 15.934284 31.344366 
L 16.131992 33.065042 
L 16.255559 33.065042 
L 16.304987 32.679458 
L 16.379127 32.942684 
L 16.502695 32.665462 
L 16.675689 32.459727 
L 17.046392 31.816187 
L 17.169959 32.179044 
L 17.293527 33.795872 
L 17.491235 33.709335 
L 17.664229 32.765394 
L 17.787797 32.765394 
L 17.985505 33.429856 
L 18.23264 33.319538 
L 18.529202 33.094238 
L 18.72691 33.060978 
L 18.850477 31.257829 
L 19.147039 31.233298 
L 19.270607 33.233151 
L 19.468315 33.233151 
L 19.517742 33.125091 
L 19.64131 32.351518 
L 19.71545 32.351518 
L 19.839018 32.060449 
L 19.888445 32.060449 
L 19.962585 31.802792 
L 20.13558 30.021014 
L 20.20972 30.021014 
L 20.382715 27.99678 
L 20.456856 27.99678 
L 20.62985 27.570261 
L 20.70399 27.570261 
L 21.494823 29.294095 
L 21.568963 29.294095 
L 21.989093 33.455289 
L 22.681071 34.636721 
L 22.730498 34.636721 
L 22.854065 35.428052 
L 22.977633 35.428052 
L 23.1012 35.269123 
L 23.175341 34.540098 
L 23.298908 31.717307 
L 23.422476 31.717307 
L 23.546043 29.001974 
L 24.831146 29.001974 
L 25.028854 30.890757 
L 25.275989 30.989788 
L 25.448983 31.062027 
L 25.696118 31.062027 
L 25.943254 32.045248 
L 26.264529 30.470711 
L 26.313956 30.470711 
L 26.511664 27.192203 
L 26.561091 27.02289 
L 26.758799 26.139301 
L 27.005934 26.73438 
L 27.178929 26.73438 
L 27.376636 25.410125 
L 27.549631 25.410125 
L 27.796766 27.32946 
L 27.96976 27.445045 
L 28.093328 28.00566 
L 28.414603 28.105141 
L 28.538171 28.580722 
L 28.661739 28.580722 
L 29.032441 27.538806 
L 29.156009 27.451215 
L 29.279577 26.880516 
L 29.452571 26.971118 
L 29.576139 27.382587 
L 29.773846 27.435714 
L 30.317544 28.552128 
L 30.688246 28.570188 
L 30.885954 27.619174 
L 31.009521 27.619174 
L 31.182516 26.125304 
L 31.256657 26.125304 
L 31.380224 9.113762 
L 31.503792 8.777692 
L 31.627359 8.777692 
L 31.676786 8.971388 
L 31.874495 11.778526 
L 31.923921 11.778526 
L 32.171057 17.233423 
L 32.245197 17.233423 
L 32.418191 26.151641 
L 32.492332 26.373028 
L 32.665326 27.405764 
L 32.912462 26.333747 
L 33.11017 24.588692 
L 33.233737 24.588692 
L 33.283164 24.894961 
L 33.480872 27.640244 
L 33.653867 27.640244 
L 33.851575 26.873894 
L 33.975142 26.832055 
L 34.222277 26.21124 
L 34.271704 26.114468 
L 34.469413 25.382132 
L 34.59298 25.290928 
L 34.889542 25.889018 
L 35.08725 28.323065 
L 35.383812 28.323065 
L 35.50738 29.853055 
L 35.878082 29.853055 
L 36.07579 32.617452 
L 36.248785 32.513457 
L 36.495919 21.68132 
L 36.693628 21.68132 
L 36.866622 27.427135 
L 36.99019 27.427135 
L 37.06433 27.294242 
L 37.311465 23.419302 
L 37.360893 23.419302 
L 37.48446 24.012876 
L 37.608027 24.012876 
L 37.805736 22.62827 
L 37.855162 22.62827 
L 38.176438 23.664166 
L 38.225865 23.664166 
L 38.349432 22.632936 
L 38.473 22.632936 
L 38.596567 22.848904 
L 38.96727 26.437894 
L 39.090837 26.654916 
L 39.288546 26.508479 
L 39.46154 26.508479 
L 39.659248 26.136291 
L 39.906383 23.378215 
L 39.95581 23.378215 
L 40.153518 24.444211 
L 40.202945 24.342322 
L 40.37594 24.608407 
L 40.499507 27.336383 
L 40.746642 27.336383 
L 40.94435 24.983155 
L 41.117345 25.060511 
L 41.36448 26.508629 
L 41.488047 26.508629 
L 41.735183 28.806624 
L 41.809323 28.806624 
L 41.982317 29.09393 
L 42.105885 28.762829 
L 42.229453 24.438342 
L 42.35302 24.438342 
L 42.476588 35.664338 
L 42.674296 35.664338 
L 43.094425 21.646554 
L 43.34156 19.269998 
L 43.539268 15.658132 
L 43.662836 15.658132 
L 43.83583 17.627283 
L 43.959398 17.627283 
L 44.082965 17.511548 
L 44.404241 15.914435 
L 44.527809 15.914435 
L 44.651376 15.792077 
L 44.700803 15.792077 
L 44.898511 17.589959 
L 45.071506 21.857857 
L 45.442208 21.857857 
L 45.689343 16.711337 
L 45.763483 16.711337 
L 45.887052 16.844981 
L 46.010619 16.844981 
L 46.257754 14.008343 
L 46.677883 13.500705 
L 46.801451 13.645938 
L 46.925019 15.307918 
L 47.048586 15.307918 
L 47.246294 13.234619 
L 47.419289 12.836847 
L 47.493429 12.823753 
L 47.616996 12.500177 
L 47.740564 12.496564 
L 47.864132 12.346215 
L 47.987699 12.346215 
L 48.111267 12.183522 
L 48.481969 12.257418 
L 48.654963 12.326649 
L 49.025666 11.892154 
L 49.099807 11.991785 
L 49.149234 11.892154 
L 49.890639 11.74993 
L 50.088347 12.135062 
L 50.261342 12.991561 
L 50.384909 13.719834 
L 50.755612 15.536979 
L 50.879179 16.937237 
L 51.076887 18.685002 
L 51.126314 18.848446 
L 51.497017 24.567321 
L 51.620584 24.338409 
L 51.694725 24.567321 
L 51.818293 28.568231 
L 51.991287 37.065951 
L 52.114855 37.065951 
L 52.312562 32.026286 
L 52.43613 31.4744 
L 52.559698 29.970446 
L 52.782119 29.970446 
L 52.85626 30.12215 
L 53.029254 31.028315 
L 53.597665 31.028315 
L 53.770659 31.578847 
L 54.017794 31.578847 
L 54.264929 30.367316 
L 54.33907 30.367316 
L 54.388497 30.645592 
L 54.709773 35.581412 
L 55.129902 35.618134 
L 55.451178 35.916125 
L 55.74774 37.545446 
L 55.994874 37.842535 
L 56.24201 37.736882 
L 56.365577 37.455748 
L 56.736279 31.054051 
L 56.983415 31.054051 
L 57.23055 28.780437 
L 57.971955 28.788714 
L 58.169663 30.208237 
L 58.29323 30.208237 
L 58.416798 28.104689 
L 58.540365 26.92687 
L 60.443305 26.92687 
L 60.814008 31.741688 
L 60.937576 31.741688 
L 61.135283 31.42323 
L 61.431845 31.352493 
L 61.629553 30.875557 
L 61.753121 30.719337 
L 61.802548 30.719337 
L 62.420386 31.800083 
L 62.741661 31.795267 
L 62.914656 32.155716 
L 62.988796 32.180398 
L 63.112363 32.432336 
L 63.235932 32.432336 
L 63.285358 32.186267 
L 63.483066 29.283561 
L 63.606634 29.283561 
L 63.779628 29.72543 
L 63.977337 29.642656 
L 64.100904 29.423677 
L 64.397466 29.423677 
L 64.521033 33.193569 
L 64.644601 33.193569 
L 64.768169 32.754257 
L 65.262438 32.677652 
L 65.386006 32.56282 
L 65.435433 32.56282 
L 65.559 32.371986 
L 65.682568 32.371986 
L 65.880276 33.230441 
L 66.127412 33.35626 
L 66.374546 33.30223 
L 66.498114 32.386734 
L 66.671108 32.386734 
L 66.918243 32.325782 
L 67.041811 31.339701 
L 67.288946 31.355655 
L 67.363086 31.508563 
L 67.486654 33.731157 
L 67.733789 33.623098 
L 68.475194 33.547847 
L 68.598761 32.696164 
L 68.771756 32.727017 
L 68.895323 33.46161 
L 69.389594 33.532346 
L 69.587302 33.61467 
L 70.872404 33.611058 
L 71.193679 33.570875 
L 72.305787 33.601426 
L 72.429355 32.817769 
L 72.478782 32.817769 
L 72.602349 33.601426 
L 72.800058 33.727244 
L 73.66503 33.782929 
L 73.912165 33.695789 
L 73.961592 33.695789 
L 74.085159 31.460102 
L 74.282868 31.556122 
L 74.332295 31.602326 
L 74.455862 33.869317 
L 74.57943 33.869317 
L 74.702997 32.464543 
L 74.950133 32.464543 
L 75.0737 32.911681 
L 75.197267 33.732813 
L 75.518543 33.732813 
L 75.64211 33.858179 
L 75.938672 33.858179 
L 76.06224 32.06391 
L 76.259948 32.06391 
L 76.383515 32.603305 
L 76.507083 32.603305 
L 76.630651 31.120573 
L 76.680077 31.120573 
L 76.803645 30.262116 
L 76.927213 30.262116 
L 77.297915 31.249551 
L 77.792185 36.352276 
L 77.915753 36.352276 
L 78.162888 35.964136 
L 78.286456 35.88437 
L 78.706585 36.473581 
L 78.780725 36.347762 
L 78.904293 36.347762 
L 79.151428 35.796327 
L 79.44799 35.766529 
L 79.645698 35.485543 
L 80.312962 35.195679 
L 80.510671 35.212235 
L 80.757806 35.576146 
L 81.054368 35.684957 
L 81.177936 35.871878 
L 81.375643 35.843133 
L 81.622779 35.48148 
L 81.919341 35.541078 
L 82.042908 35.788501 
L 82.611318 35.725291 
L 82.784313 35.523771 
L 83.105589 35.600376 
L 83.352724 36.614299 
L 83.649286 36.52746 
L 83.772854 36.432494 
L 84.019988 35.789404 
L 84.217697 35.849154 
L 84.390691 36.273866 
L 84.514259 36.273866 
L 84.761393 35.263706 
L 84.835534 35.212836 
L 84.959102 34.392457 
L 85.008529 34.392457 
L 85.206236 34.162191 
L 85.379231 34.47478 
L 85.502798 34.418795 
L 85.997069 34.884594 
L 86.120636 35.078288 
L 86.244204 35.599774 
L 86.318344 35.599774 
L 86.491339 35.805207 
L 86.936182 36.106057 
L 87.109177 35.823267 
L 87.850582 35.570426 
L 87.974149 35.924253 
L 88.097716 35.570426 
L 88.468419 35.510226 
L 88.839121 35.015078 
L 89.086257 35.095145 
L 89.333392 35.870976 
L 89.580527 35.870976 
L 89.753521 35.206966 
L 90.93977 35.292451 
L 91.483467 35.867665 
L 91.681175 35.847799 
L 91.92831 35.262953 
L 92.101304 35.329776 
L 92.224872 35.378688 
L 92.348439 35.948785 
L 92.595575 35.948785 
L 92.719142 35.335494 
L 93.163985 35.295912 
L 93.41112 28.410808 
L 93.584114 27.550395 
L 93.658255 27.550395 
L 94.028957 29.763809 
L 94.078385 29.733708 
L 94.152525 28.250675 
L 94.201952 29.291236 
L 94.276093 29.365132 
L 94.39966 29.733708 
L 94.523228 29.744695 
L 94.770362 30.733033 
L 94.81979 30.925072 
L 94.943357 30.733033 
L 95.017498 30.733033 
L 95.190493 31.211174 
L 95.437627 31.116809 
L 95.511768 31.037497 
L 95.635336 30.283036 
L 96.055465 30.268287 
L 96.253173 30.81024 
L 96.3026 30.81024 
L 96.871011 32.341434 
L 97.241713 29.307941 
L 97.414708 27.716698 
L 97.538275 27.406065 
L 97.661842 26.37965 
L 97.859551 26.395904 
L 97.983118 26.570184 
L 98.032545 27.473639 
L 98.230254 33.774049 
L 98.353821 33.774049 
L 98.650383 30.349557 
L 98.724523 30.349557 
L 98.77395 29.447606 
L 98.848091 29.590131 
L 99.021085 29.590131 
L 99.218793 32.317354 
L 99.391788 32.317354 
L 99.465929 31.993777 
L 99.836631 25.39974 
L 99.960198 24.811433 
L 100.133193 21.89789 
L 100.380328 21.947254 
L 100.751031 23.855302 
L 101.072306 30.269039 
L 101.245301 30.269039 
L 101.368868 27.906781 
L 101.492436 27.906781 
L 101.813711 32.303508 
L 101.937279 32.303508 
L 102.406835 24.075334 
L 102.480976 24.075334 
L 102.728111 24.934543 
L 102.901106 27.835443 
L 103.098814 29.255868 
L 103.222381 29.255868 
L 103.271808 28.977592 
L 103.469516 26.934847 
L 103.593084 26.934847 
L 103.766078 32.274913 
L 104.013214 39.699111 
L 104.136781 39.699111 
L 104.334489 32.342788 
L 104.383916 32.212606 
L 104.754619 26.455503 
L 105.248889 26.455503 
L 105.496024 26.80963 
L 105.743158 26.80963 
L 106.064434 32.481551 
L 106.237429 33.324052 
L 106.360996 33.324052 
L 106.608132 33.095593 
L 106.805839 30.621812 
L 106.978834 30.667866 
L 107.225969 33.410139 
L 107.349537 33.908145 
L 107.473104 33.908145 
L 107.670812 32.702034 
L 107.843806 32.702034 
L 107.967374 33.832444 
L 108.090942 34.270853 
L 108.28865 34.255652 
L 108.535785 32.963152 
L 108.585212 32.963152 
L 108.659352 32.78511 
L 108.832347 31.752977 
L 108.906487 31.551004 
L 109.079481 30.746277 
L 109.203049 30.844855 
L 109.326617 30.746277 
L 109.400757 30.844855 
L 109.524325 31.273631 
L 109.647893 30.507131 
L 109.697319 31.273631 
L 109.77146 30.95743 
L 109.895027 30.95743 
L 110.142162 33.597814 
L 110.26573 33.616325 
L 110.315157 33.723633 
L 110.438724 34.642137 
L 110.562292 36.901304 
L 110.68586 36.901304 
L 110.809427 34.79625 
L 110.932994 34.696468 
L 111.056562 33.526476 
L 111.18013 33.526476 
L 111.377837 28.87149 
L 111.501405 25.488987 
L 111.674399 25.488987 
L 111.872108 28.165341 
L 111.921535 28.165341 
L 112.16867 26.12124 
L 112.415805 26.077746 
L 112.66294 26.467693 
L 112.860648 27.228324 
L 113.033642 28.889249 
L 113.23135 29.240066 
L 113.354918 29.335633 
L 113.404345 29.429396 
L 113.527912 30.107853 
L 113.65148 30.107853 
L 113.972755 27.757935 
L 114.219891 27.757935 
L 114.392885 29.319982 
L 114.516453 29.319982 
L 114.64002 28.316744 
L 114.763588 27.820393 
L 114.887155 27.820393 
L 115.06015 28.19514 
L 115.134291 28.19514 
L 115.257858 28.005057 
L 115.307285 28.195441 
L 115.55442 27.294544 
L 115.875696 27.294544 
L 116.04869 26.306055 
L 116.12283 26.306055 
L 116.172258 26.540987 
L 116.369965 28.0779 
L 116.617101 29.209665 
L 116.666528 28.731825 
L 116.740668 29.041405 
L 116.864235 29.193712 
L 116.913663 29.041405 
L 117.284365 26.046442 
L 117.60564 26.147277 
L 117.655068 25.848684 
L 117.902202 22.139745 
L 118.223478 19.414629 
L 118.396473 19.31274 
L 118.52004 19.13545 
L 118.717748 18.044922 
L 118.964883 17.412669 
L 119.01431 17.412669 
L 119.137878 23.370991 
L 119.335586 24.277457 
L 119.459153 24.277457 
L 119.508581 24.121237 
L 119.632148 21.504331 
L 119.755715 21.504331 
L 119.879283 24.061488 
L 120.002851 24.061488 
L 120.249986 20.559638 
L 120.373553 20.559638 
L 120.49712 21.248932 
L 120.744256 21.248932 
L 120.867823 12.311899 
L 120.991391 12.311899 
L 121.436234 26.709247 
L 121.485661 26.709247 
L 121.609228 24.228995 
L 121.732796 24.228995 
L 121.856363 27.675461 
L 121.979931 29.05495 
L 122.103499 29.05495 
L 122.177639 28.908814 
L 122.301206 28.511342 
L 122.424774 28.511342 
L 122.548342 28.717077 
L 122.721336 28.694049 
L 122.844904 27.890677 
L 122.968471 27.890677 
L 123.092038 29.231338 
L 123.289747 29.532038 
L 123.413314 29.231338 
L 123.586309 25.968934 
L 123.709876 25.968934 
L 123.833444 26.936352 
L 123.957012 26.936352 
L 124.327714 25.257668 
L 124.525422 25.368587 
L 124.772557 27.833186 
L 124.945551 28.508933 
L 125.019692 28.521877 
L 125.192686 33.796023 
L 125.316254 34.156773 
L 125.390394 34.156773 
L 125.513962 33.930421 
L 125.686956 30.217869 
L 125.761097 30.212903 
L 125.810524 29.915362 
L 126.181227 23.776891 
L 126.304794 24.372122 
L 126.551929 29.016723 
L 126.799064 29.052994 
L 127.169767 22.550762 
L 127.219194 22.550762 
L 127.342761 22.730159 
L 127.589897 28.132682 
L 127.664037 28.243601 
L 127.787604 28.642879 
L 127.911172 28.569285 
L 128.03474 28.294019 
L 128.52901 15.800957 
L 128.578436 15.301145 
L 128.776145 16.742188 
L 128.899712 20.839269 
L 138.414412 22.092036 
L 138.958108 31.611656 
L 139.378238 32.401484 
L 139.575946 32.630847 
L 139.699513 32.630847 
L 139.946649 28.440757 
L 140.119643 27.918068 
L 140.366778 21.43796 
L 140.613913 19.825044 
L 140.688054 19.825044 
L 140.984616 23.041996 
L 141.058756 23.041996 
L 141.108183 22.648287 
L 141.355318 12.601764 
L 141.553026 11.557139 
L 141.676594 11.557139 
L 141.849588 18.507411 
L 142.096723 26.646488 
L 142.343859 31.924698 
L 142.467426 31.924698 
L 142.590993 31.664482 
L 142.714561 31.664482 
L 142.838129 32.191083 
L 142.961696 33.397046 
L 143.085264 33.397046 
L 143.777241 19.379864 
L 143.950236 19.379864 
L 144.073804 20.43382 
L 144.395079 26.026576 
L 144.444506 26.026576 
L 144.642215 26.150588 
L 144.765782 26.052461 
L 144.938777 25.08685 
L 145.136484 24.938907 
L 145.309479 22.216049 
L 145.507187 13.246509 
L 145.680182 11.375635 
L 145.754322 11.375635 
L 145.927316 12.776495 
L 146.001457 12.800726 
L 146.125025 13.46609 
L 146.298019 13.448632 
L 146.372159 13.0787 
L 146.668721 2.319256 
L 146.792289 2.327987 
L 146.915857 3.324148 
L 147.113565 10.946106 
L 147.286559 16.305134 
L 147.484267 21.008733 
L 147.607835 21.008733 
L 148.522234 8.691756 
L 148.596375 8.691756 
L 148.967077 11.457207 
L 149.090645 11.457207 
L 149.140072 11.286539 
L 149.263639 10.523049 
L 149.461348 10.523049 
L 149.584915 11.112861 
L 149.832051 11.112861 
L 149.955618 13.806071 
L 150.005045 13.806071 
L 150.128613 14.948371 
L 150.32632 14.288576 
L 150.499315 14.808255 
L 150.573456 14.808255 
L 150.74645 15.477983 
L 150.870018 17.863419 
L 150.993585 17.863419 
L 151.117152 17.04635 
L 151.24072 17.04635 
L 151.487855 25.131698 
L 151.66085 25.131698 
L 151.907985 17.069227 
L 151.982125 16.757088 
L 152.155119 10.006681 
L 152.352828 10.006681 
L 152.476395 12.197218 
L 152.599963 12.20655 
L 152.64939 12.70245 
L 152.772957 12.20655 
L 152.847098 12.20655 
L 152.896525 12.70245 
L 152.970665 14.726834 
L 153.14366 25.98293 
L 153.267227 28.073686 
L 153.390795 28.073686 
L 153.514362 24.916332 
L 153.835638 13.987875 
L 154.008632 14.03453 
L 154.1322 16.145003 
L 154.255768 17.319058 
L 154.329908 17.344192 
L 154.453475 19.254798 
L 154.750037 26.895115 
L 154.824178 26.895115 
L 154.873605 24.157207 
L 155.071313 8.990501 
L 155.244308 8.990501 
L 155.318448 9.157556 
L 155.367875 9.653907 
L 155.565583 12.713736 
L 155.615011 12.715543 
L 155.738578 13.498447 
L 155.862145 12.000966 
L 156.059854 7.980491 
L 156.183421 7.980491 
L 156.356416 11.24154 
L 156.479983 14.546986 
L 156.677691 22.332837 
L 156.850685 22.259393 
L 156.974253 21.734748 
L 157.048393 21.734748 
L 157.344955 23.949666 
L 157.468523 23.949666 
L 157.592091 23.004071 
L 157.962793 19.74844 
L 158.209928 12.088557 
L 158.407636 10.399789 
L 158.531204 10.399789 
L 158.654772 9.787703 
L 158.778339 9.831949 
L 158.827766 9.787703 
L 158.951334 9.418224 
L 159.322036 3.521607 
L 159.519744 3.521607 
L 159.890447 4.711315 
L 160.137582 14.183225 
L 160.310576 18.823914 
L 160.384716 19.419896 
L 160.508284 21.649865 
L 160.928414 21.649865 
L 161.126121 30.031549 
L 161.249689 30.571997 
L 161.422684 30.571997 
L 161.546252 30.278822 
L 161.669819 30.278822 
L 161.793386 28.157816 
L 162.164089 28.157816 
L 162.287657 11.724797 
L 162.361797 11.724797 
L 162.534791 10.076815 
L 162.658359 10.137315 
L 162.856067 10.855354 
L 163.152629 14.327707 
L 163.473905 26.585535 
L 163.597472 27.15503 
L 163.721039 27.15503 
L 163.819894 25.445342 
L 163.943461 25.445342 
L 164.437732 30.413821 
L 164.684866 34.683526 
L 164.808434 34.683526 
L 164.932001 33.559737 
L 165.055569 31.424885 
L 165.253277 27.873068 
L 165.500412 24.71135 
L 165.673407 22.07518 
L 165.796974 22.07518 
L 165.994682 22.391984 
L 166.365385 22.362938 
L 166.612519 24.772905 
L 166.785514 24.772905 
L 166.859655 24.177675 
L 166.983222 22.541431 
L 167.032649 22.491164 
L 167.156217 21.797506 
L 167.279784 21.797506 
L 167.403352 22.519609 
L 167.526919 22.519609 
L 168.021189 19.763339 
L 168.09533 19.763339 
L 168.342465 22.136735 
L 168.51546 22.136735 
L 168.762594 20.710741 
L 168.886162 20.838065 
L 169.00973 20.607197 
L 169.08387 20.710741 
L 169.207437 21.125672 
L 169.331005 21.195503 
L 169.57814 21.596136 
L 169.701708 21.596136 
L 169.874702 22.14411 
L 169.948843 22.14411 
L 170.245405 26.164585 
L 170.49254 26.064351 
L 170.616107 22.698705 
L 170.813816 9.296618 
L 170.937383 9.171704 
L 171.06095 9.171704 
L 171.184518 9.440497 
L 171.308085 9.440497 
L 171.431653 9.089982 
L 171.802355 9.142056 
L 172.173058 7.857382 
L 172.296626 7.857382 
L 172.346053 9.63058 
L 172.593188 27.532937 
L 172.914463 27.532937 
L 172.963891 28.013636 
L 173.285166 40.200429 
L 173.334593 40.200429 
L 173.903003 29.690665 
L 173.95243 29.690665 
L 174.075998 31.982038 
L 174.273706 36.471624 
L 174.397273 36.471624 
L 174.570268 32.503072 
L 174.817403 23.153217 
L 174.940971 22.320346 
L 175.064538 22.320346 
L 175.138678 22.576347 
L 175.43524 29.883457 
L 175.632949 31.565302 
L 175.756516 31.565302 
L 175.805943 31.431055 
L 176.053078 29.819645 
L 176.596776 29.126739 
L 176.720343 29.150519 
L 176.84391 29.667187 
L 176.967478 29.970596 
L 177.214613 29.868106 
L 177.412321 28.290106 
L 177.659456 28.364905 
L 177.783024 28.601491 
L 177.832451 28.601491 
L 177.906591 28.979249 
L 178.079586 30.67223 
L 178.203153 30.67223 
L 178.524429 29.870213 
L 178.573856 29.870213 
L 178.771564 30.300795 
L 178.944558 30.35633 
L 179.636537 30.389891 
L 179.685963 30.621512 
L 179.933099 33.3379 
L 180.130807 33.3379 
L 180.303801 32.537987 
L 180.625076 29.393576 
L 180.748644 29.393576 
L 180.995779 29.772538 
L 181.292341 29.857119 
L 181.663044 32.852986 
L 181.786612 32.025533 
L 181.984319 28.644535 
L 182.157314 28.689083 
L 182.404449 33.663131 
L 182.651584 33.556877 
L 182.775151 31.913861 
L 182.898719 31.913861 
L 183.022287 32.970376 
L 183.145854 32.970376 
L 183.46713 25.952379 
L 183.590697 24.204765 
L 183.714265 24.204765 
L 184.010827 29.534445 
L 184.084967 29.534445 
L 184.38153 18.803295 
L 184.579237 18.49793 
L 184.875799 18.50997 
L 185.320642 29.39147 
L 185.370069 29.567255 
L 185.617204 31.158499 
L 185.740772 31.222611 
L 185.86434 30.827998 
L 186.062048 31.278598 
L 186.35861 38.623483 
L 186.482177 38.623483 
L 186.803453 30.318554 
L 186.852879 30.318554 
L 186.976447 33.333986 
L 187.174155 37.782032 
L 187.297723 37.782032 
L 187.34715 37.590747 
L 187.84142 14.412138 
L 187.91556 14.405515 
L 188.162696 12.845425 
L 188.212122 12.845425 
L 188.286263 13.128216 
L 188.33569 13.825485 
L 188.508684 26.586739 
L 188.706392 26.499599 
L 188.75582 25.58907 
L 188.879387 22.056518 
L 189.002954 22.056518 
L 189.25009 30.281681 
L 189.447797 30.281681 
L 189.867927 25.272868 
L 189.942068 25.272868 
L 190.115062 25.9888 
L 190.23863 25.698936 
L 190.362197 25.698936 
L 190.559905 24.266771 
L 190.683473 24.266771 
L 190.7329 24.44075 
L 190.930608 27.043509 
L 191.054176 29.428643 
L 191.177743 31.678629 
L 191.30131 31.678629 
L 191.350738 31.267913 
L 191.845008 14.854759 
L 192.042715 14.387305 
L 192.092143 14.387305 
L 192.21571 13.669716 
L 192.339277 13.669716 
L 192.586413 17.382569 
L 192.660553 17.663403 
L 193.080683 31.113348 
L 193.204251 32.86307 
L 193.327818 32.86307 
L 193.401958 32.431133 
L 193.574953 26.931235 
L 193.772661 26.931235 
L 193.945656 29.408627 
L 194.069223 29.408627 
L 194.19279 27.797517 
L 194.316358 27.797517 
L 194.761201 28.476425 
L 194.810628 28.476425 
L 195.008336 27.436917 
L 195.057763 25.279189 
L 195.255471 12.392117 
L 195.502606 8.175841 
L 195.552033 8.099988 
L 195.749741 7.188555 
L 195.799168 7.188555 
L 195.922736 7.690926 
L 196.046303 8.152514 
L 196.614714 8.501523 
L 196.738281 9.747669 
L 196.985417 10.232583 
L 197.232551 10.574971 
L 197.405546 10.61937 
L 197.479687 10.795756 
L 197.850389 17.054327 
L 198.146951 17.039427 
L 198.221092 17.553538 
L 198.394086 21.516522 
L 198.641221 22.71827 
L 198.715361 22.71827 
L 198.888356 20.560692 
L 199.011924 19.854543 
L 199.135492 19.854543 
L 199.506194 32.166703 
L 199.580335 32.166703 
L 199.876897 24.419077 
L 200.074604 24.419077 
L 200.198172 25.62504 
L 200.32174 25.62504 
L 200.568874 23.533231 
L 200.618302 23.533231 
L 200.741869 24.020552 
L 200.865436 24.020552 
L 201.483274 15.950856 
L 201.656269 9.683707 
L 201.853977 9.721483 
L 202.274106 11.07027 
L 202.644809 10.961608 
L 202.842517 10.961608 
L 202.891944 11.034751 
L 202.966084 10.942344 
L 203.015511 11.012326 
L 203.21322 11.012326 
L 203.336787 10.863932 
L 203.70749 10.753766 
L 203.880484 10.655489 
L 204.004052 10.655489 
L 204.251187 11.083363 
L 204.448895 11.051156 
L 204.69603 10.753766 
L 204.869024 10.805389 
L 205.066733 10.875973 
L 205.610429 10.830822 
L 205.857564 11.287292 
L 205.931705 11.405133 
L 206.17884 12.628704 
L 206.351834 12.628704 
L 206.59897 10.15658 
L 206.67311 10.13581 
L 206.796677 9.653907 
L 206.969672 9.690931 
L 207.093239 10.613048 
L 207.16738 10.656694 
L 207.290948 11.276154 
L 207.414515 11.276154 
L 207.58751 10.835188 
L 208.032353 10.788232 
L 208.279488 10.426728 
L 208.946752 10.345609 
L 209.144461 8.025792 
L 209.193888 8.025792 
L 209.391595 7.912314 
L 209.441023 7.912314 
L 209.441023 7.912314 
" clip-path="url(#p8f26da4048)" style="fill: none; stroke: #5c80b5; stroke-width: 0.5; stroke-linecap: square"/>
   </g>
  </g>
 </g>
 <defs>
  <clipPath id="p8f26da4048">
   <rect x="2.125984" y="0.425197" width="208.346457" height="41.669291"/>
  </clipPath>
 </defs>
</svg>
