<?xml version="1.0" encoding="utf-8" standalone="no"?>
<!DOCTYPE svg PUBLIC "-//W3C//DTD SVG 1.1//EN"
  "http://www.w3.org/Graphics/SVG/1.1/DTD/svg11.dtd">
<svg xmlns:xlink="http://www.w3.org/1999/xlink" width="212.598425pt" height="42.519685pt" viewBox="0 0 212.598425 42.519685" xmlns="http://www.w3.org/2000/svg" version="1.1">
 <metadata>
  <rdf:RDF xmlns:dc="http://purl.org/dc/elements/1.1/" xmlns:cc="http://creativecommons.org/ns#" xmlns:rdf="http://www.w3.org/1999/02/22-rdf-syntax-ns#">
   <cc:Work>
    <dc:type rdf:resource="http://purl.org/dc/dcmitype/StillImage"/>
    <dc:date>2026-06-01T17:59:34.065026</dc:date>
    <dc:format>image/svg+xml</dc:format>
    <dc:creator>
     <cc:Agent>
      <dc:title>Matplotlib v3.10.8, https://matplotlib.org/</dc:title>
     </cc:Agent>
    </dc:creator>
   </cc:Work>
  </rdf:RDF>
 </metadata>
 <defs>
  <style type="text/css">*{stroke-linejoin: round; stroke-linecap: butt}</style>
 </defs>
 <g id="figure_1">
  <g id="patch_1">
   <path d="M 0 42.519685 
L 212.598425 42.519685 
L 212.598425 0 
L 0 0 
z
" style="fill: #ffffff"/>
  </g>
  <g id="axes_1">
   <g id="patch_2">
    <path d="M 2.125984 42.094488 
L 210.472441 42.094488 
L 210.472441 0.425197 
L 2.125984 0.425197 
z
" style="fill: #eaeaf2"/>
   </g>
   <g id="matplotlib.axis_1">
    <g id="xtick_1">
     <g id="line2d_1">
      <path d="M 3.157402 42.094488 
L 3.157402 0.425197 
" clip-path="url(#p04c2fd5df4)" style="fill: none; stroke: #ffffff; stroke-width: 0.9; stroke-linecap: square"/>
     </g>
    </g>
    <g id="xtick_2">
     <g id="line2d_2">
      <path d="M 47.59727 42.094488 
L 47.59727 0.425197 
" clip-path="url(#p04c2fd5df4)" style="fill: none; stroke: #ffffff; stroke-width: 0.9; stroke-linecap: square"/>
     </g>
    </g>
    <g id="xtick_3">
     <g id="line2d_3">
      <path d="M 92.037138 42.094488 
L 92.037138 0.425197 
" clip-path="url(#p04c2fd5df4)" style="fill: none; stroke: #ffffff; stroke-width: 0.9; stroke-linecap: square"/>
     </g>
    </g>
    <g id="xtick_4">
     <g id="line2d_4">
      <path d="M 136.477006 42.094488 
L 136.477006 0.425197 
" clip-path="url(#p04c2fd5df4)" style="fill: none; stroke: #ffffff; stroke-width: 0.9; stroke-linecap: square"/>
     </g>
    </g>
    <g id="xtick_5">
     <g id="line2d_5">
      <path d="M 180.916874 42.094488 
L 180.916874 0.425197 
" clip-path="url(#p04c2fd5df4)" style="fill: none; stroke: #ffffff; stroke-width: 0.9; stroke-linecap: square"/>
     </g>
    </g>
    <g id="xtick_6">
     <g id="line2d_6">
      <path d="M 25.377336 42.094488 
L 25.377336 0.425197 
" clip-path="url(#p04c2fd5df4)" style="fill: none; stroke: #ffffff; stroke-opacity: 0.9; stroke-width: 0.55; stroke-linecap: square"/>
     </g>
    </g>
    <g id="xtick_7">
     <g id="line2d_7">
      <path d="M 69.817204 42.094488 
L 69.817204 0.425197 
" clip-path="url(#p04c2fd5df4)" style="fill: none; stroke: #ffffff; stroke-opacity: 0.9; stroke-width: 0.55; stroke-linecap: square"/>
     </g>
    </g>
    <g id="xtick_8">
     <g id="line2d_8">
      <path d="M 114.257072 42.094488 
L 114.257072 0.425197 
" clip-path="url(#p04c2fd5df4)" style="fill: none; stroke: #ffffff; stroke-opacity: 0.9; stroke-width: 0.55; stroke-linecap: square"/>
     </g>
    </g>
    <g id="xtick_9">
     <g id="line2d_9">
      <path d="M 158.69694 42.094488 
L 158.69694 0.425197 
" clip-path="url(#p04c2fd5df4)" style="fill: none; stroke: #ffffff; stroke-opacity: 0.9; stroke-width: 0.55; stroke-linecap: square"/>
     </g>
    </g>
    <g id="xtick_10">
     <g id="line2d_10">
      <path d="M 203.136808 42.094488 
L 203.136808 0.425197 
" clip-path="url(#p04c2fd5df4)" style="fill: none; stroke: #ffffff; stroke-opacity: 0.9; stroke-width: 0.55; stroke-linecap: square"/>
     </g>
    </g>
   </g>
   <g id="matplotlib.axis_2">
    <g id="ytick_1">
     <g id="line2d_11">
      <path d="M 2.125984 36.423625 
L 210.472441 36.423625 
" clip-path="url(#p04c2fd5df4)" style="fill: none; stroke: #ffffff; stroke-width: 0.9; stroke-linecap: square"/>
     </g>
    </g>
    <g id="ytick_2">
     <g id="line2d_12">
      <path d="M 2.125984 23.572463 
L 210.472441 23.572463 
" clip-path="url(#p04c2fd5df4)" style="fill: none; stroke: #ffffff; stroke-width: 0.9; stroke-linecap: square"/>
     </g>
    </g>
    <g id="ytick_3">
     <g id="line2d_13">
      <path d="M 2.125984 10.721302 
L 210.472441 10.721302 
" clip-path="url(#p04c2fd5df4)" style="fill: none; stroke: #ffffff; stroke-width: 0.9; stroke-linecap: square"/>
     </g>
    </g>
    <g id="ytick_4">
     <g id="line2d_14">
      <path d="M 2.125984 29.998044 
L 210.472441 29.998044 
" clip-path="url(#p04c2fd5df4)" style="fill: none; stroke: #ffffff; stroke-opacity: 0.9; stroke-width: 0.55; stroke-linecap: square"/>
     </g>
    </g>
    <g id="ytick_5">
     <g id="line2d_15">
      <path d="M 2.125984 17.146883 
L 210.472441 17.146883 
" clip-path="url(#p04c2fd5df4)" style="fill: none; stroke: #ffffff; stroke-opacity: 0.9; stroke-width: 0.55; stroke-linecap: square"/>
     </g>
    </g>
    <g id="ytick_6">
     <g id="line2d_16">
      <path d="M 2.125984 4.295721 
L 210.472441 4.295721 
" clip-path="url(#p04c2fd5df4)" style="fill: none; stroke: #ffffff; stroke-opacity: 0.9; stroke-width: 0.55; stroke-linecap: square"/>
     </g>
    </g>
   </g>
   <g id="line2d_17">
    <path d="M 3.157402 34.201358 
L 3.231543 34.135725 
L 3.478678 32.325952 
L 3.77524 24.328063 
L 3.972948 24.328063 
L 4.096515 26.695159 
L 4.26951 29.597556 
L 4.516645 29.534759 
L 4.590786 29.441218 
L 4.961488 27.199279 
L 5.010915 27.199279 
L 5.208623 26.856948 
L 5.25805 26.904264 
L 5.455758 28.134038 
L 5.579326 28.728865 
L 5.702894 28.728865 
L 6.123023 25.712431 
L 6.197163 25.651378 
L 6.320731 25.283972 
L 6.370158 25.283972 
L 6.493725 24.88713 
L 6.815001 24.783994 
L 6.938569 24.061393 
L 7.062136 24.061393 
L 7.111563 24.27595 
L 7.358698 28.540256 
L 7.605833 28.53088 
L 8.174243 27.739812 
L 8.347238 27.141933 
L 8.594374 27.105084 
L 9.162784 26.116686 
L 9.335779 26.083324 
L 9.582913 26.083324 
L 9.830049 26.048002 
L 10.571454 27.392467 
L 10.645594 27.480775 
L 10.818589 28.109617 
L 11.139864 28.204249 
L 11.386999 29.53912 
L 11.436426 29.53912 
L 11.559994 28.826985 
L 11.634135 28.812594 
L 12.004837 27.495166 
L 12.177831 27.098107 
L 12.251972 27.088294 
L 12.424966 26.68949 
L 12.746242 26.68949 
L 12.919236 26.23661 
L 13.240512 26.22113 
L 13.289939 26.33364 
L 13.413507 28.032865 
L 13.537074 28.032865 
L 13.734782 23.610258 
L 13.784209 23.053154 
L 14.105485 13.488174 
L 14.229053 12.494761 
L 14.35262 12.494761 
L 14.599755 16.752526 
L 14.772749 16.837999 
L 14.896317 16.837999 
L 15.019884 16.582015 
L 15.217592 15.705037 
L 15.390587 15.464752 
L 15.563582 15.464752 
L 15.687149 16.041699 
L 15.810716 18.6626 
L 15.934284 22.391169 
L 16.057852 22.391169 
L 16.181419 19.513193 
L 16.304987 19.513193 
L 16.74983 23.983769 
L 16.873397 23.983769 
L 17.120533 25.840859 
L 17.417095 27.85494 
L 17.540662 27.85494 
L 17.664229 27.129505 
L 17.861938 27.01961 
L 17.985505 26.88246 
L 18.109072 26.755339 
L 18.23264 26.751196 
L 18.405634 26.457708 
L 18.603343 26.291558 
L 18.65277 26.291558 
L 18.72691 26.060212 
L 18.899905 24.695904 
L 19.023472 24.695904 
L 19.394175 26.481475 
L 19.591882 26.390768 
L 19.962585 26.15746 
L 20.086153 28.569474 
L 20.20972 28.569474 
L 20.333288 27.314843 
L 20.506282 18.643848 
L 20.70399 14.565316 
L 20.876985 14.67412 
L 21.000552 16.210466 
L 21.247687 20.237103 
L 21.494823 22.971169 
L 21.61839 25.682122 
L 21.741957 25.682122 
L 22.433936 18.708171 
L 22.557503 18.708171 
L 22.928206 22.059087 
L 23.1012 22.502372 
L 23.471903 29.488098 
L 23.719038 29.4543 
L 23.916746 27.333377 
L 24.089741 27.333377 
L 24.163881 27.480994 
L 24.287449 28.47506 
L 24.460443 28.391767 
L 24.707578 26.200415 
L 24.831146 26.200415 
L 24.954713 26.581557 
L 25.201848 26.581557 
L 25.523123 24.659273 
L 25.572551 24.421604 
L 25.696118 15.161452 
L 25.893826 15.161452 
L 26.017394 15.745593 
L 26.190388 27.289986 
L 26.313956 27.289986 
L 26.511664 17.165939 
L 26.684659 17.165939 
L 26.882366 19.004276 
L 27.005934 19.004276 
L 27.302496 15.936601 
L 27.426064 15.29315 
L 27.673198 18.393096 
L 27.870907 19.760674 
L 27.920334 19.760674 
L 28.216896 18.026344 
L 28.291036 18.026344 
L 28.538171 18.529156 
L 28.785306 18.601983 
L 28.834734 18.730848 
L 29.032441 19.38193 
L 29.205436 19.334397 
L 29.329003 18.501901 
L 29.452571 18.501901 
L 29.650279 20.717456 
L 29.823273 20.973659 
L 29.897414 20.983689 
L 30.317544 21.887921 
L 30.391684 21.887921 
L 30.564678 21.534906 
L 30.638819 21.461861 
L 30.935381 17.920811 
L 31.182516 2.319256 
L 31.380224 2.319256 
L 31.429651 2.762978 
L 31.676786 10.593845 
L 31.750927 10.738191 
L 31.923921 11.830596 
L 32.121629 21.99738 
L 32.245197 22.399019 
L 32.294624 23.418379 
L 32.739467 18.542893 
L 32.788894 18.542893 
L 33.159596 22.654131 
L 33.357305 25.762362 
L 33.406732 25.833009 
L 33.777434 28.025669 
L 33.851575 28.025669 
L 34.148137 25.933964 
L 34.395272 24.760446 
L 34.642407 24.744964 
L 34.716547 24.880371 
L 34.963682 26.810723 
L 35.136677 26.810723 
L 35.260244 26.202377 
L 35.383812 26.202377 
L 35.58152 32.408592 
L 35.828655 32.364329 
L 35.952223 32.243314 
L 36.00165 32.243314 
L 36.07579 32.364329 
L 36.199357 33.759599 
L 36.372352 33.759599 
L 36.57006 26.129332 
L 36.693628 26.129332 
L 36.743055 26.338001 
L 36.866622 29.996143 
L 36.99019 29.996143 
L 37.06433 29.446887 
L 37.237325 24.636379 
L 37.360893 24.636379 
L 37.5586 23.854687 
L 37.682168 23.680469 
L 37.805736 23.680469 
L 37.929303 24.24586 
L 38.05287 24.24586 
L 38.102298 24.046785 
L 38.225865 22.278003 
L 38.349432 19.698749 
L 38.473 19.698749 
L 38.596567 20.930267 
L 38.843703 24.47895 
L 39.090837 26.98843 
L 39.288546 26.98843 
L 39.53568 24.668867 
L 39.659248 24.668867 
L 40.029951 26.640866 
L 40.252373 27.011325 
L 40.326513 27.011325 
L 40.499507 27.562324 
L 40.697216 28.899158 
L 40.746642 28.958684 
L 40.94435 29.515571 
L 41.117345 29.499217 
L 41.191485 29.181527 
L 41.36448 19.782479 
L 41.735183 17.690555 
L 41.85875 17.690555 
L 41.932891 17.884615 
L 41.982317 18.38372 
L 42.476588 40.018362 
L 42.550728 40.018362 
L 42.84729 30.943548 
L 43.168566 23.642311 
L 43.34156 18.217352 
L 43.465128 16.305751 
L 43.588696 16.305751 
L 43.83583 20.207884 
L 43.909971 20.207884 
L 44.033539 20.500501 
L 44.157106 20.500501 
L 44.330101 22.487763 
L 44.404241 22.487763 
L 44.577235 22.981635 
L 44.774944 22.353229 
L 44.898511 22.981635 
L 45.022078 23.10701 
L 45.195073 23.10701 
L 45.516349 22.2695 
L 45.689343 19.563344 
L 45.812911 18.734118 
L 45.887052 18.689201 
L 46.010619 18.234141 
L 46.257754 13.936475 
L 46.554316 12.743332 
L 46.628457 12.743332 
L 46.801451 13.659121 
L 46.925019 16.719165 
L 46.999159 16.719165 
L 47.172153 18.523705 
L 47.419289 18.477261 
L 47.987699 13.856888 
L 48.234834 13.912926 
L 48.407829 14.304753 
L 48.654963 14.376925 
L 48.778532 14.146016 
L 48.852672 14.192241 
L 48.902099 14.50361 
L 48.976239 14.272482 
L 49.149234 14.192241 
L 49.396369 12.88637 
L 49.519937 12.911227 
L 49.643504 13.045979 
L 49.841212 12.924963 
L 50.014206 12.924963 
L 50.211914 14.199655 
L 50.582617 16.114743 
L 50.706185 19.384983 
L 50.879179 22.963319 
L 51.249881 26.925632 
L 51.373449 26.925632 
L 51.497017 27.150219 
L 51.694725 27.164828 
L 51.744152 27.467475 
L 51.991287 35.276101 
L 52.114855 35.276101 
L 52.312562 27.841858 
L 52.43613 27.841858 
L 52.609124 29.235383 
L 52.732692 29.235383 
L 52.979827 27.273415 
L 53.029254 27.273415 
L 53.523524 31.750532 
L 53.597665 31.750532 
L 53.770659 30.242533 
L 53.844799 30.242316 
L 54.091935 26.073294 
L 54.462637 16.338894 
L 54.635632 16.338894 
L 54.83334 17.644984 
L 55.006335 17.644984 
L 55.32761 17.018976 
L 55.377037 17.018976 
L 55.500604 17.551878 
L 55.74774 19.872532 
L 55.994874 21.1832 
L 56.118442 21.1832 
L 56.365577 20.617373 
L 56.439717 20.617373 
L 56.81042 27.078264 
L 56.933988 26.928467 
L 56.983415 26.928467 
L 57.106982 26.771257 
L 57.30469 23.852943 
L 57.601253 23.809551 
L 57.72482 23.537213 
L 57.79896 23.283191 
L 57.848387 21.749681 
L 58.046096 12.037521 
L 58.095522 12.037521 
L 58.169663 11.828416 
L 58.342658 12.153085 
L 58.589792 23.934273 
L 58.787501 24.018875 
L 59.034635 23.760491 
L 59.20763 23.774229 
L 59.578333 24.301243 
L 59.949035 24.358589 
L 60.146743 24.072296 
L 60.393878 23.968507 
L 60.566873 13.496242 
L 60.764581 13.496242 
L 60.888148 14.162151 
L 61.011716 14.162151 
L 61.061143 14.006685 
L 61.308278 12.431964 
L 61.382419 12.431964 
L 61.555413 13.500821 
L 61.678981 13.807392 
L 61.802548 13.807392 
L 62.247391 15.275488 
L 62.370958 14.812361 
L 62.618094 14.812361 
L 62.865229 14.204016 
L 62.988796 14.204016 
L 63.235932 15.110865 
L 63.285358 15.262842 
L 63.408926 17.19145 
L 63.532494 23.961747 
L 63.656061 23.961747 
L 63.730201 23.704454 
L 63.853769 22.534207 
L 63.977337 22.534207 
L 64.026763 22.800003 
L 64.348039 26.960083 
L 64.397466 26.960083 
L 64.595174 25.220303 
L 64.768169 25.243633 
L 64.941163 28.878008 
L 65.262438 28.808016 
L 65.559 27.218467 
L 65.756709 25.262603 
L 65.929703 25.065273 
L 66.053271 25.065273 
L 66.423974 25.969288 
L 66.547541 26.761881 
L 66.671108 26.761881 
L 67.115951 24.894107 
L 67.486654 24.216205 
L 67.536081 24.216205 
L 67.783216 24.707679 
L 67.980924 24.770476 
L 68.153918 24.813649 
L 68.401054 25.275904 
L 68.969464 25.354401 
L 69.093032 25.107138 
L 69.266026 25.150528 
L 69.587302 25.349821 
L 69.883864 25.252137 
L 70.378134 24.838506 
L 70.575842 24.934882 
L 70.748836 24.975875 
L 70.995972 24.900648 
L 71.243107 24.667995 
L 71.68795 24.753904 
L 71.984512 25.724641 
L 72.429355 25.830175 
L 72.602349 25.891227 
L 72.800058 25.801175 
L 73.838025 25.764107 
L 73.961592 25.637204 
L 74.1593 24.096935 
L 74.282868 23.971341 
L 74.455862 23.564251 
L 74.826565 22.752687 
L 75.444402 25.134611 
L 75.518543 25.134611 
L 75.64211 25.469092 
L 75.765678 25.469092 
L 75.938672 24.484401 
L 76.259948 24.064882 
L 76.432943 24.064882 
L 76.630651 26.016603 
L 76.754218 26.016603 
L 77.05078 20.907155 
L 77.297915 21.771703 
L 77.594477 21.333433 
L 77.668618 21.333433 
L 77.718045 21.113862 
L 77.96518 21.709342 
L 78.162888 23.265747 
L 78.335882 23.265747 
L 78.583018 20.032795 
L 78.706585 17.801758 
L 78.904293 17.669841 
L 79.200855 18.221931 
L 79.324423 18.59457 
L 79.44799 18.59457 
L 79.645698 17.995818 
L 79.818693 18.021547 
L 79.94226 18.153901 
L 80.189395 17.911216 
L 80.510671 17.896826 
L 80.634238 18.588246 
L 80.683665 18.613758 
L 80.807233 18.940825 
L 80.9308 18.940825 
L 81.004941 18.789284 
L 81.177936 17.33536 
L 81.42507 17.235713 
L 81.499211 17.235713 
L 81.746346 18.233269 
L 81.919341 18.414247 
L 82.042908 19.016269 
L 82.166475 19.016269 
L 82.364184 18.573419 
L 82.487751 18.680043 
L 82.611318 18.459818 
L 82.660746 18.419262 
L 82.784313 17.80939 
L 83.155016 17.861502 
L 83.352724 19.143171 
L 83.525718 20.851335 
L 83.649286 20.851335 
L 83.723426 20.175396 
L 83.846994 18.109856 
L 84.094129 18.128826 
L 84.143556 18.240465 
L 84.267123 18.994246 
L 84.390691 18.994246 
L 84.637826 16.547781 
L 84.835534 16.547781 
L 84.959102 16.7776 
L 85.082669 16.7776 
L 85.206236 16.501774 
L 85.453372 16.501774 
L 85.626366 16.996954 
L 85.873501 17.905111 
L 85.997069 17.905111 
L 86.120636 17.508924 
L 86.318344 17.497585 
L 86.689047 18.090668 
L 86.738474 18.090668 
L 86.985609 16.90145 
L 87.232744 16.934811 
L 87.356311 17.279976 
L 87.479879 17.935856 
L 87.603446 17.935856 
L 87.974149 17.363923 
L 88.344852 17.367849 
L 88.542559 17.753788 
L 88.666127 17.695788 
L 88.715554 17.625578 
L 88.962689 16.191496 
L 89.086257 16.191496 
L 89.283965 16.434616 
L 89.580527 16.33824 
L 89.753521 16.33824 
L 89.877089 16.382503 
L 90.321932 16.70521 
L 90.494926 16.70521 
L 90.692634 16.737044 
L 90.742062 16.669233 
L 90.816202 16.737044 
L 90.93977 16.747729 
L 91.112764 17.346262 
L 91.236332 17.455284 
L 91.359899 17.69448 
L 91.483467 17.926916 
L 91.607034 17.917976 
L 91.854169 17.40448 
L 92.101304 17.370901 
L 92.299013 17.515247 
L 92.546147 17.549916 
L 92.91685 17.397067 
L 92.966277 17.397067 
L 93.040418 17.204533 
L 93.163985 17.578916 
L 93.460547 17.578916 
L 93.534688 17.11012 
L 93.781823 11.760603 
L 93.954817 11.760603 
L 94.152525 26.097933 
L 94.276093 26.523557 
L 94.449087 26.544272 
L 94.770362 28.705316 
L 94.89393 28.705316 
L 95.264633 26.794151 
L 95.31406 26.794151 
L 95.561195 27.527655 
L 95.80833 27.719317 
L 95.88247 27.754422 
L 96.006038 28.262903 
L 96.129605 28.262903 
L 96.376741 27.693587 
L 96.673303 27.598302 
L 96.747443 27.749842 
L 96.871011 28.617662 
L 96.920437 28.617662 
L 97.241713 29.30494 
L 97.414708 30.688652 
L 97.612416 30.688652 
L 97.661842 30.566984 
L 97.859551 28.605233 
L 98.032545 28.605233 
L 98.353821 40.200429 
L 98.403248 40.200429 
L 98.650383 35.199786 
L 98.724523 34.77438 
L 98.897518 30.404541 
L 99.021085 30.404541 
L 99.218793 32.774908 
L 99.342361 32.774908 
L 99.713064 28.811068 
L 99.836631 28.811068 
L 99.960198 28.361241 
L 100.009626 28.361241 
L 100.133193 25.996325 
L 100.330901 26.033828 
L 100.578036 26.862618 
L 100.751031 30.164036 
L 100.874598 31.417142 
L 100.948739 31.543825 
L 101.072306 33.250245 
L 101.245301 33.202712 
L 101.368868 31.5689 
L 101.492436 31.5689 
L 101.739571 35.68777 
L 101.937279 35.68777 
L 102.233841 29.883413 
L 102.480976 31.237691 
L 102.851678 31.322946 
L 102.975246 33.356215 
L 103.14824 33.277937 
L 103.222381 33.252644 
L 103.395376 29.522767 
L 103.593084 29.522767 
L 103.963786 34.403921 
L 104.136781 33.243704 
L 104.334489 26.393603 
L 104.458057 24.677807 
L 104.705191 10.885807 
L 104.952326 9.256575 
L 105.125321 9.256575 
L 105.248889 12.303971 
L 105.446596 12.561265 
L 105.619591 14.293632 
L 105.693732 14.293632 
L 105.743158 14.428384 
L 105.866726 16.673375 
L 106.113861 33.016065 
L 106.237429 33.721004 
L 106.311569 33.667147 
L 106.435137 33.130102 
L 106.484564 33.130102 
L 106.608132 28.467647 
L 106.731699 20.594042 
L 107.052975 20.594042 
L 107.176542 18.354284 
L 107.349537 16.216571 
L 107.473104 16.216571 
L 107.967374 21.034057 
L 108.214509 21.713049 
L 108.28865 21.713049 
L 108.338076 21.52335 
L 108.535785 20.206794 
L 108.782919 20.291613 
L 109.203049 23.090439 
L 109.400757 23.048575 
L 109.450184 22.926687 
L 109.524325 22.382883 
L 109.77146 10.108476 
L 109.944455 10.108476 
L 110.068022 13.667625 
L 110.191589 13.667625 
L 110.438724 8.383305 
L 110.512865 8.309387 
L 110.562292 8.383305 
L 110.636432 8.631441 
L 110.68586 9.353823 
L 110.809427 18.271645 
L 110.932994 18.271645 
L 111.056562 10.894965 
L 111.18013 10.53301 
L 111.25427 10.53301 
L 111.303697 10.955581 
L 111.674399 17.944142 
L 111.872108 13.194686 
L 111.995675 13.194686 
L 112.045102 13.34034 
L 112.366378 19.145133 
L 112.539373 19.447562 
L 112.66294 19.584712 
L 112.860648 19.464787 
L 112.910075 19.464787 
L 112.984216 19.584712 
L 113.033642 19.464787 
L 113.23135 19.392396 
L 113.354918 19.31281 
L 113.602053 16.557375 
L 113.65148 16.557375 
L 113.898615 23.69486 
L 114.096323 23.693116 
L 114.14575 23.058387 
L 114.343458 14.885624 
L 114.516453 14.111129 
L 114.565879 14.111129 
L 114.689447 14.318489 
L 114.936582 14.429692 
L 115.06015 14.706173 
L 115.134291 14.706173 
L 115.257858 14.348798 
L 115.430853 15.495714 
L 115.677987 24.603235 
L 115.875696 24.551341 
L 116.12283 22.439575 
L 116.419392 22.429763 
L 116.493533 22.574545 
L 116.617101 23.192048 
L 116.666528 22.932357 
L 116.987803 24.280965 
L 117.03723 24.280965 
L 117.358506 30.058939 
L 117.407933 30.058939 
L 117.902202 21.067854 
L 117.976343 21.061967 
L 118.149338 20.717673 
L 118.223478 20.698268 
L 118.272905 20.475862 
L 118.470614 19.101524 
L 118.643608 19.150803 
L 119.01431 20.414155 
L 119.137878 27.223046 
L 119.385013 28.123572 
L 119.508581 28.123572 
L 119.706289 25.062002 
L 119.829856 25.062002 
L 119.953424 25.712431 
L 120.076991 25.712431 
L 120.249986 24.425311 
L 120.49712 22.536605 
L 120.571261 19.681306 
L 120.694829 12.440249 
L 120.818396 12.440249 
L 121.114958 19.213599 
L 121.238526 18.535698 
L 121.362094 18.535698 
L 121.436234 18.954562 
L 121.732796 27.904655 
L 121.856363 28.913985 
L 121.979931 28.913985 
L 122.054071 28.67806 
L 122.177639 27.177257 
L 122.301206 27.177257 
L 122.424774 28.197271 
L 122.548342 28.197271 
L 122.597769 28.059248 
L 122.721336 26.324919 
L 122.919044 26.352829 
L 122.968471 26.574798 
L 123.092038 28.110053 
L 123.166179 28.110053 
L 123.215606 28.43494 
L 123.413314 27.670911 
L 123.536881 25.916084 
L 123.709876 25.916084 
L 123.833444 26.311181 
L 124.401855 26.381828 
L 124.698417 27.120129 
L 124.945551 27.120129 
L 125.019692 27.301542 
L 125.192686 36.113611 
L 125.316254 36.395763 
L 125.390394 36.395763 
L 125.513962 36.040786 
L 125.686956 30.560224 
L 125.810524 30.367909 
L 125.884665 29.108481 
L 126.057659 24.995062 
L 126.181227 24.701138 
L 126.304794 25.044123 
L 126.502502 27.056678 
L 126.62607 27.056678 
L 126.724924 24.770258 
L 126.972059 24.648589 
L 127.046199 24.715965 
L 127.466329 27.363031 
L 127.664037 27.363031 
L 127.713464 27.592633 
L 127.837031 28.680895 
L 128.281874 28.729519 
L 128.454869 31.547532 
L 128.652577 35.576567 
L 128.776145 35.619087 
L 128.825572 35.576567 
L 128.899712 35.328869 
L 138.414412 28.746744 
L 138.587406 31.276938 
L 138.834541 36.607703 
L 139.032249 37.418395 
L 139.081676 37.418395 
L 139.205243 37.613544 
L 139.328811 37.564484 
L 139.452379 37.622702 
L 139.575946 37.914228 
L 139.699513 37.914228 
L 139.748941 37.695747 
L 139.946649 34.442734 
L 139.996075 34.372087 
L 140.119643 33.857065 
L 140.193784 32.862561 
L 140.366778 27.101377 
L 140.490346 27.101377 
L 140.613913 27.699911 
L 140.811621 29.68303 
L 140.984616 29.68303 
L 141.108183 26.444843 
L 141.429459 14.695053 
L 141.553026 14.695053 
L 141.676594 17.175315 
L 141.973156 29.206383 
L 142.343859 35.724838 
L 142.417999 35.724838 
L 142.590993 36.079379 
L 142.665134 36.079379 
L 142.912269 34.897793 
L 143.035836 33.608494 
L 143.159404 33.608494 
L 143.332398 33.182652 
L 143.826669 21.894681 
L 144.024377 21.894681 
L 144.073804 22.04862 
L 144.271512 23.886958 
L 144.568074 31.867403 
L 144.642215 31.867403 
L 144.815209 30.091863 
L 145.185911 28.029594 
L 145.309479 24.191785 
L 145.433047 16.99521 
L 145.556614 16.99521 
L 145.680182 16.381631 
L 145.803749 16.381631 
L 146.050884 15.789638 
L 146.125025 15.789638 
L 146.248592 16.252985 
L 146.372159 16.368112 
L 146.495727 16.802458 
L 146.545154 16.802458 
L 146.668721 17.137593 
L 146.792289 17.137593 
L 146.915857 17.576954 
L 147.039424 17.576954 
L 147.162992 17.391397 
L 147.286559 17.391397 
L 147.410127 21.745102 
L 147.607835 21.745102 
L 148.398667 14.40658 
L 148.76937 14.348361 
L 149.263639 16.841706 
L 149.33778 16.810744 
L 149.510775 15.472819 
L 149.634342 15.472819 
L 149.881477 17.269946 
L 149.955618 17.476653 
L 150.128613 23.885431 
L 150.32632 23.833536 
L 150.697023 22.883951 
L 151.117152 31.701253 
L 151.24072 34.104327 
L 151.364288 37.547041 
L 151.487855 37.547041 
L 151.537282 36.973364 
L 152.031552 17.64542 
L 152.22926 16.100789 
L 152.278687 16.100789 
L 152.352828 15.891466 
L 152.476395 14.250241 
L 152.970665 19.283592 
L 153.14366 24.596476 
L 153.267227 24.860965 
L 153.390795 24.860965 
L 153.514362 21.96162 
L 153.835638 14.97982 
L 154.008632 14.97982 
L 154.1322 16.431563 
L 154.329908 19.675855 
L 154.379335 19.85596 
L 154.62647 22.168981 
L 154.824178 22.168981 
L 155.071313 19.316735 
L 155.244308 19.316735 
L 155.367875 13.693573 
L 155.491443 10.764138 
L 155.615011 10.764138 
L 155.862145 12.330355 
L 155.936286 12.718911 
L 156.059854 14.730376 
L 156.10928 14.730376 
L 156.232848 16.923909 
L 156.356416 16.923909 
L 156.479983 17.459428 
L 156.554123 17.459428 
L 156.974253 22.562116 
L 157.171961 22.593515 
L 157.295529 22.442846 
L 157.468523 22.982289 
L 157.666231 22.982289 
L 157.913366 20.638741 
L 158.209928 11.531002 
L 158.407636 10.518837 
L 158.827766 6.283751 
L 159.025474 2.885737 
L 159.198468 2.885737 
L 159.272609 2.885737 
L 159.692739 8.958944 
L 159.766879 9.163907 
L 159.939873 12.298521 
L 160.014014 12.317927 
L 160.261149 21.819019 
L 160.434144 27.49473 
L 160.681278 34.007297 
L 160.804846 34.007297 
L 160.928414 31.218721 
L 161.126121 26.885512 
L 161.175549 26.859347 
L 161.620392 24.880588 
L 161.743959 21.723079 
L 161.916954 17.344082 
L 161.991095 17.308322 
L 162.040521 16.670976 
L 162.287657 5.925937 
L 162.411224 5.130727 
L 162.534791 5.130727 
L 162.608932 5.834359 
L 162.905494 13.230227 
L 162.979634 13.356911 
L 163.276196 20.402163 
L 163.523332 25.745137 
L 163.646899 25.745137 
L 163.770467 25.387107 
L 163.894034 25.862664 
L 164.141169 25.862664 
L 164.264737 25.740558 
L 164.388304 25.740558 
L 164.437732 26.08158 
L 164.808434 35.112568 
L 164.932001 35.846288 
L 165.055569 35.846288 
L 165.253277 31.246411 
L 165.426271 30.88533 
L 165.500412 30.757555 
L 165.796974 27.797813 
L 165.994682 26.863708 
L 166.044109 26.863708 
L 166.241817 26.500663 
L 166.291244 26.621242 
L 166.488952 30.324954 
L 166.661947 33.210343 
L 166.785514 33.210343 
L 166.859655 32.475095 
L 167.032649 29.577278 
L 167.156217 29.174985 
L 167.279784 29.174985 
L 167.403352 29.428571 
L 167.60106 29.359887 
L 167.897622 26.844738 
L 168.09533 27.279738 
L 168.268324 29.432932 
L 168.391892 29.691969 
L 168.466032 29.691969 
L 168.5896 28.49185 
L 168.713168 27.394647 
L 168.762594 27.394647 
L 168.836735 27.590015 
L 168.960303 28.49185 
L 169.00973 28.222782 
L 169.133297 28.830909 
L 169.380432 28.830909 
L 169.627567 28.878226 
L 169.701708 28.791444 
L 169.825275 27.97879 
L 169.948843 27.97879 
L 169.99827 28.293211 
L 170.245405 32.762915 
L 170.49254 32.812193 
L 170.616107 31.795231 
L 170.863242 24.474589 
L 170.98681 22.975094 
L 171.110378 18.045096 
L 171.308085 17.931495 
L 171.357512 17.931495 
L 171.555221 20.326937 
L 171.728215 20.326937 
L 171.97535 18.017187 
L 172.098917 18.017187 
L 172.222485 18.250713 
L 172.346053 18.250713 
L 172.46962 16.389045 
L 172.593188 16.389045 
L 172.790896 28.65582 
L 173.161598 36.170521 
L 173.285166 36.170521 
L 173.705296 32.262064 
L 173.903003 32.262064 
L 174.075998 33.790562 
L 174.199565 37.122724 
L 174.323133 37.122724 
L 174.520841 34.811665 
L 174.940971 24.560499 
L 175.138678 24.560499 
L 175.558808 30.661615 
L 175.880084 31.369607 
L 175.929511 31.369607 
L 176.176646 31.615126 
L 176.34964 31.533577 
L 176.596776 31.153524 
L 176.720343 31.162029 
L 176.918051 31.512427 
L 177.165186 31.45639 
L 177.214613 31.290457 
L 177.338181 29.570954 
L 177.535889 29.570954 
L 177.659456 30.336729 
L 178.030158 30.777615 
L 178.524429 30.910186 
L 178.697423 30.853713 
L 178.944558 30.769983 
L 179.142266 30.639812 
L 179.389401 30.639812 
L 179.562396 30.75821 
L 179.685963 31.499562 
L 179.933099 34.16102 
L 180.130807 34.550884 
L 180.254374 34.550884 
L 180.427369 32.311125 
L 180.674504 29.755638 
L 180.798071 29.755638 
L 181.415909 31.433277 
L 181.613617 33.16041 
L 181.786612 33.16041 
L 181.984319 30.568946 
L 182.157314 30.568946 
L 182.404449 32.143449 
L 182.725724 32.430832 
L 182.849292 33.167607 
L 183.022287 31.808751 
L 183.096427 31.746607 
L 183.343562 27.615963 
L 183.640124 27.1077 
L 183.763692 27.277121 
L 183.837832 27.566685 
L 183.961399 28.508639 
L 184.084967 28.508639 
L 184.257961 24.629401 
L 184.45567 24.085815 
L 184.875799 23.103086 
L 184.999367 21.19432 
L 185.197075 21.266711 
L 185.493637 31.238781 
L 185.617204 31.305284 
L 185.740772 31.785638 
L 185.814912 31.785638 
L 186.235042 36.097041 
L 186.35861 36.097041 
L 186.482177 35.925003 
L 186.729312 28.417061 
L 186.852879 28.417061 
L 187.174155 33.1482 
L 187.223582 33.1482 
L 187.544858 26.674445 
L 187.668425 22.479913 
L 187.791993 22.479913 
L 188.088555 23.912251 
L 188.162696 23.55989 
L 188.582825 17.760548 
L 188.632252 17.760548 
L 188.706392 18.239811 
L 188.879387 23.618544 
L 189.25009 30.95772 
L 189.373657 30.95772 
L 189.571365 29.611511 
L 189.867927 28.441699 
L 189.991495 28.339 
L 190.115062 25.696513 
L 190.312771 25.412618 
L 190.436338 25.525565 
L 190.485765 25.525565 
L 190.559905 25.696295 
L 190.7329 28.918346 
L 190.930608 30.817735 
L 191.22717 33.233237 
L 191.30131 33.233237 
L 191.474305 30.224871 
L 191.548445 30.224871 
L 191.672013 29.819962 
L 191.795581 29.819962 
L 191.968575 29.371443 
L 192.536986 18.253329 
L 192.586413 18.253329 
L 192.833548 24.75216 
L 193.080683 31.169878 
L 193.327818 33.259403 
L 193.401958 33.259403 
L 193.574953 30.156405 
L 193.69852 30.156405 
L 193.822088 34.174538 
L 193.945656 34.174538 
L 194.19279 30.930683 
L 194.266931 30.930683 
L 194.390499 30.364421 
L 194.439925 30.364421 
L 194.563493 29.988948 
L 194.687061 29.988948 
L 194.810628 30.486743 
L 194.934195 30.486743 
L 195.057763 29.682376 
L 195.181331 28.194872 
L 195.304898 25.023844 
L 195.6756 16.776947 
L 195.873309 15.608662 
L 196.046303 14.058798 
L 196.169871 13.898317 
L 196.293438 13.149332 
L 196.417006 12.56846 
L 196.540574 12.56846 
L 196.614714 13.363889 
L 196.787708 16.274352 
L 197.034843 16.797879 
L 197.158411 18.642975 
L 197.281979 18.642975 
L 197.529113 16.898616 
L 197.603254 16.898616 
L 198.221092 21.653959 
L 198.394086 25.120002 
L 198.591794 25.120002 
L 198.715361 22.639086 
L 198.83893 19.32393 
L 199.011924 19.32393 
L 199.086064 20.865072 
L 199.259059 30.580284 
L 199.382626 31.036435 
L 199.506194 31.036435 
L 199.827469 26.643265 
L 199.876897 26.597257 
L 200.000464 26.092483 
L 200.074604 26.092483 
L 200.32174 24.895633 
L 200.445307 21.861538 
L 200.568874 21.861538 
L 200.741869 25.761708 
L 200.989004 26.298971 
L 201.112572 27.109881 
L 201.236139 27.209963 
L 201.359707 27.661098 
L 201.409134 27.661098 
L 201.532701 27.843384 
L 201.656269 27.843384 
L 201.977544 23.799958 
L 202.768377 23.724732 
L 202.891944 22.917094 
L 203.015511 22.917094 
L 203.139079 24.039807 
L 203.386214 24.280747 
L 203.509782 24.585356 
L 203.954625 24.601055 
L 204.127619 26.007009 
L 204.498321 26.007009 
L 204.69603 24.466521 
L 204.992592 24.466521 
L 205.239727 24.790536 
L 205.313867 24.790536 
L 205.363295 24.669303 
L 205.610429 22.43674 
L 205.733997 18.583667 
L 206.17884 16.97057 
L 206.302408 18.086525 
L 206.67311 26.547325 
L 206.796677 26.547325 
L 206.920245 25.441836 
L 207.290948 18.455021 
L 207.661651 18.455021 
L 207.711077 18.323104 
L 207.908785 16.266067 
L 208.08178 16.266067 
L 208.328915 17.572157 
L 208.526623 17.758149 
L 208.699618 17.625142 
L 208.897326 15.580316 
L 209.020893 15.580316 
L 209.07032 15.766744 
L 209.441023 28.206211 
L 209.441023 28.206211 
" clip-path="url(#p04c2fd5df4)" style="fill: none; stroke: #5c80b5; stroke-width: 0.5; stroke-linecap: square"/>
   </g>
  </g>
 </g>
 <defs>
  <clipPath id="p04c2fd5df4">
   <rect x="2.125984" y="0.425197" width="208.346457" height="41.669291"/>
  </clipPath>
 </defs>
</svg>
