<?xml version="1.0" encoding="utf-8" standalone="no"?>
<!DOCTYPE svg PUBLIC "-//W3C//DTD SVG 1.1//EN"
  "http://www.w3.org/Graphics/SVG/1.1/DTD/svg11.dtd">
<svg xmlns:xlink="http://www.w3.org/1999/xlink" width="212.598425pt" height="42.519685pt" viewBox="0 0 212.598425 42.519685" xmlns="http://www.w3.org/2000/svg" version="1.1">
 <metadata>
  <rdf:RDF xmlns:dc="http://purl.org/dc/elements/1.1/" xmlns:cc="http://creativecommons.org/ns#" xmlns:rdf="http://www.w3.org/1999/02/22-rdf-syntax-ns#">
   <cc:Work>
    <dc:type rdf:resource="http://purl.org/dc/dcmitype/StillImage"/>
    <dc:date>2026-06-01T17:59:32.720262</dc:date>
    <dc:format>image/svg+xml</dc:format>
    <dc:creator>
     <cc:Agent>
      <dc:title>Matplotlib v3.10.8, https://matplotlib.org/</dc:title>
     </cc:Agent>
    </dc:creator>
   </cc:Work>
  </rdf:RDF>
 </metadata>
 <defs>
  <style type="text/css">*{stroke-linejoin: round; stroke-linecap: butt}</style>
 </defs>
 <g id="figure_1">
  <g id="patch_1">
   <path d="M 0 42.519685 
L 212.598425 42.519685 
L 212.598425 0 
L 0 0 
z
" style="fill: #ffffff"/>
  </g>
  <g id="axes_1">
   <g id="patch_2">
    <path d="M 2.125984 42.094488 
L 210.472441 42.094488 
L 210.472441 0.425197 
L 2.125984 0.425197 
z
" style="fill: #eaeaf2"/>
   </g>
   <g id="matplotlib.axis_1">
    <g id="xtick_1">
     <g id="line2d_1">
      <path d="M 3.157402 42.094488 
L 3.157402 0.425197 
" clip-path="url(#pa7d4e3220a)" style="fill: none; stroke: #ffffff; stroke-width: 0.9; stroke-linecap: square"/>
     </g>
    </g>
    <g id="xtick_2">
     <g id="line2d_2">
      <path d="M 47.59727 42.094488 
L 47.59727 0.425197 
" clip-path="url(#pa7d4e3220a)" style="fill: none; stroke: #ffffff; stroke-width: 0.9; stroke-linecap: square"/>
     </g>
    </g>
    <g id="xtick_3">
     <g id="line2d_3">
      <path d="M 92.037138 42.094488 
L 92.037138 0.425197 
" clip-path="url(#pa7d4e3220a)" style="fill: none; stroke: #ffffff; stroke-width: 0.9; stroke-linecap: square"/>
     </g>
    </g>
    <g id="xtick_4">
     <g id="line2d_4">
      <path d="M 136.477006 42.094488 
L 136.477006 0.425197 
" clip-path="url(#pa7d4e3220a)" style="fill: none; stroke: #ffffff; stroke-width: 0.9; stroke-linecap: square"/>
     </g>
    </g>
    <g id="xtick_5">
     <g id="line2d_5">
      <path d="M 180.916874 42.094488 
L 180.916874 0.425197 
" clip-path="url(#pa7d4e3220a)" style="fill: none; stroke: #ffffff; stroke-width: 0.9; stroke-linecap: square"/>
     </g>
    </g>
    <g id="xtick_6">
     <g id="line2d_6">
      <path d="M 25.377336 42.094488 
L 25.377336 0.425197 
" clip-path="url(#pa7d4e3220a)" style="fill: none; stroke: #ffffff; stroke-opacity: 0.9; stroke-width: 0.55; stroke-linecap: square"/>
     </g>
    </g>
    <g id="xtick_7">
     <g id="line2d_7">
      <path d="M 69.817204 42.094488 
L 69.817204 0.425197 
" clip-path="url(#pa7d4e3220a)" style="fill: none; stroke: #ffffff; stroke-opacity: 0.9; stroke-width: 0.55; stroke-linecap: square"/>
     </g>
    </g>
    <g id="xtick_8">
     <g id="line2d_8">
      <path d="M 114.257072 42.094488 
L 114.257072 0.425197 
" clip-path="url(#pa7d4e3220a)" style="fill: none; stroke: #ffffff; stroke-opacity: 0.9; stroke-width: 0.55; stroke-linecap: square"/>
     </g>
    </g>
    <g id="xtick_9">
     <g id="line2d_9">
      <path d="M 158.69694 42.094488 
L 158.69694 0.425197 
" clip-path="url(#pa7d4e3220a)" style="fill: none; stroke: #ffffff; stroke-opacity: 0.9; stroke-width: 0.55; stroke-linecap: square"/>
     </g>
    </g>
    <g id="xtick_10">
     <g id="line2d_10">
      <path d="M 203.136808 42.094488 
L 203.136808 0.425197 
" clip-path="url(#pa7d4e3220a)" style="fill: none; stroke: #ffffff; stroke-opacity: 0.9; stroke-width: 0.55; stroke-linecap: square"/>
     </g>
    </g>
   </g>
   <g id="matplotlib.axis_2">
    <g id="ytick_1">
     <g id="line2d_11">
      <path d="M 2.125984 32.441085 
L 210.472441 32.441085 
" clip-path="url(#pa7d4e3220a)" style="fill: none; stroke: #ffffff; stroke-width: 0.9; stroke-linecap: square"/>
     </g>
    </g>
    <g id="ytick_2">
     <g id="line2d_12">
      <path d="M 2.125984 21.296744 
L 210.472441 21.296744 
" clip-path="url(#pa7d4e3220a)" style="fill: none; stroke: #ffffff; stroke-width: 0.9; stroke-linecap: square"/>
     </g>
    </g>
    <g id="ytick_3">
     <g id="line2d_13">
      <path d="M 2.125984 10.152403 
L 210.472441 10.152403 
" clip-path="url(#pa7d4e3220a)" style="fill: none; stroke: #ffffff; stroke-width: 0.9; stroke-linecap: square"/>
     </g>
    </g>
    <g id="ytick_4">
     <g id="line2d_14">
      <path d="M 2.125984 38.013256 
L 210.472441 38.013256 
" clip-path="url(#pa7d4e3220a)" style="fill: none; stroke: #ffffff; stroke-opacity: 0.9; stroke-width: 0.55; stroke-linecap: square"/>
     </g>
    </g>
    <g id="ytick_5">
     <g id="line2d_15">
      <path d="M 2.125984 26.868915 
L 210.472441 26.868915 
" clip-path="url(#pa7d4e3220a)" style="fill: none; stroke: #ffffff; stroke-opacity: 0.9; stroke-width: 0.55; stroke-linecap: square"/>
     </g>
    </g>
    <g id="ytick_6">
     <g id="line2d_16">
      <path d="M 2.125984 15.724574 
L 210.472441 15.724574 
" clip-path="url(#pa7d4e3220a)" style="fill: none; stroke: #ffffff; stroke-opacity: 0.9; stroke-width: 0.55; stroke-linecap: square"/>
     </g>
    </g>
    <g id="ytick_7">
     <g id="line2d_17">
      <path d="M 2.125984 4.580233 
L 210.472441 4.580233 
" clip-path="url(#pa7d4e3220a)" style="fill: none; stroke: #ffffff; stroke-opacity: 0.9; stroke-width: 0.55; stroke-linecap: square"/>
     </g>
    </g>
   </g>
   <g id="line2d_18">
    <path d="M 3.157402 22.303052 
L 3.231543 22.268145 
L 3.478678 20.438329 
L 3.77524 13.815362 
L 3.972948 13.815362 
L 4.096515 15.946011 
L 4.26951 17.917151 
L 4.467218 17.917151 
L 4.76378 15.735181 
L 4.961488 15.273913 
L 5.134482 15.273913 
L 5.332191 15.859399 
L 5.455758 16.020758 
L 5.628753 17.466979 
L 5.75232 17.466979 
L 6.073596 16.65633 
L 6.123023 16.65633 
L 6.24659 17.642979 
L 6.370158 17.642979 
L 6.493725 17.186643 
L 6.567866 17.169844 
L 6.740861 16.822159 
L 6.987995 14.439377 
L 7.062136 14.439377 
L 7.111563 14.657604 
L 7.358698 17.967855 
L 7.556406 17.95121 
L 7.7294 17.728822 
L 8.050676 17.504583 
L 8.915649 15.951251 
L 9.088643 15.880358 
L 9.286351 15.750747 
L 9.657054 15.697731 
L 9.830049 15.608344 
L 9.904189 15.608344 
L 10.077184 16.005808 
L 10.274892 16.005808 
L 10.447886 15.749205 
L 10.571454 15.825493 
L 10.942156 17.815897 
L 11.016297 17.84148 
L 11.436426 19.132816 
L 11.683561 17.89465 
L 11.930697 17.691063 
L 12.177831 17.375589 
L 12.301399 17.343532 
L 12.424966 17.473914 
L 12.622674 17.375896 
L 12.795669 17.284352 
L 13.166372 16.675132 
L 13.289939 16.775154 
L 13.487647 21.135086 
L 13.611215 21.383675 
L 13.660641 21.383675 
L 13.784209 20.804817 
L 13.907777 19.956564 
L 13.981917 19.956564 
L 14.278479 19.176276 
L 14.525615 17.344303 
L 14.649182 17.030831 
L 14.84689 17.139021 
L 15.019884 17.227945 
L 15.143452 17.844254 
L 15.514154 17.75086 
L 15.563582 17.639589 
L 15.687149 15.992554 
L 15.810716 15.992554 
L 16.008425 15.511559 
L 16.057852 15.511559 
L 16.181419 12.357582 
L 16.304987 12.357582 
L 16.552121 14.224848 
L 16.626262 14.224848 
L 16.74983 13.47338 
L 16.873397 13.47338 
L 17.491235 17.897116 
L 17.540662 17.897116 
L 17.787797 16.783322 
L 18.23264 16.713045 
L 18.405634 16.639377 
L 18.65277 16.491581 
L 18.72691 16.484645 
L 19.023472 15.660434 
L 19.147039 15.689255 
L 19.344748 16.135265 
L 19.394175 16.139118 
L 19.64131 17.399476 
L 19.888445 19.824178 
L 19.962585 19.929594 
L 20.086153 21.486162 
L 20.20972 21.486162 
L 20.382715 20.847815 
L 20.62985 14.517205 
L 20.827558 14.517205 
L 21.494823 17.036534 
L 21.741957 16.302173 
L 22.11266 12.886044 
L 22.236228 12.709736 
L 22.433936 10.597118 
L 22.557503 10.597118 
L 22.854065 13.031221 
L 23.1012 13.212153 
L 23.422476 19.099527 
L 23.546043 20.151366 
L 23.842605 22.470499 
L 23.966173 22.597028 
L 24.460443 21.61716 
L 24.658151 20.045951 
L 25.152421 16.948842 
L 25.275989 16.948842 
L 25.572551 17.586265 
L 25.770259 12.89637 
L 25.819686 12.89637 
L 26.017394 13.752328 
L 26.190388 20.067681 
L 26.313956 20.067681 
L 26.511664 15.775405 
L 26.684659 15.881745 
L 27.055361 20.373909 
L 27.178929 20.373909 
L 27.302496 20.751338 
L 27.376636 20.751338 
L 27.500204 20.188816 
L 27.623772 20.188816 
L 27.747339 19.668676 
L 27.796766 19.662357 
L 28.043901 16.057591 
L 28.216896 14.928848 
L 28.414603 14.723411 
L 28.538171 14.431054 
L 28.785306 14.519054 
L 28.958301 14.769029 
L 29.081868 14.991881 
L 29.205436 14.991881 
L 29.329003 14.398843 
L 29.452571 14.398843 
L 29.576139 15.25172 
L 30.020982 15.346501 
L 30.391684 16.17888 
L 30.638819 16.209858 
L 30.811814 16.85591 
L 31.676786 31.995157 
L 31.750927 31.995157 
L 32.121629 28.329206 
L 32.294624 22.441371 
L 32.368764 22.054695 
L 32.665326 16.770376 
L 32.739467 16.668814 
L 32.863034 16.30695 
L 32.912462 16.30695 
L 33.777434 20.171555 
L 33.975142 20.111912 
L 34.024569 20.021292 
L 34.271704 18.567673 
L 34.59298 18.261599 
L 34.889542 18.685572 
L 34.963682 18.685572 
L 35.08725 18.829978 
L 35.383812 18.829978 
L 35.58152 24.482017 
L 35.754514 24.482017 
L 36.00165 23.8261 
L 36.125217 23.8261 
L 36.248785 25.7171 
L 36.372352 25.7171 
L 36.619487 22.829126 
L 36.743055 22.829126 
L 36.866622 24.716735 
L 36.99019 24.716735 
L 37.06433 24.558458 
L 37.237325 21.638583 
L 37.5586 21.638583 
L 37.682168 20.199604 
L 37.855162 20.199604 
L 38.102298 21.10303 
L 38.225865 21.10303 
L 38.423573 18.88284 
L 38.596567 18.898714 
L 39.090837 20.232123 
L 39.288546 20.232123 
L 39.585108 18.762013 
L 39.659248 18.685263 
L 39.708675 18.762013 
L 39.832242 18.817187 
L 40.153518 19.576823 
L 40.499507 17.404716 
L 40.623075 17.404716 
L 40.94435 19.376164 
L 41.117345 19.376164 
L 41.191485 18.866503 
L 41.36448 16.037094 
L 41.488047 16.037094 
L 41.735183 18.22754 
L 41.85875 18.776962 
L 41.932891 18.776962 
L 42.056458 19.240388 
L 42.180026 19.509012 
L 42.303593 22.882142 
L 42.42716 28.074916 
L 42.674296 28.074916 
L 42.723722 28.342923 
L 42.921431 27.130187 
L 42.970858 27.031398 
L 43.094425 26.579994 
L 43.168566 26.579994 
L 43.292134 27.952394 
L 43.465128 31.132263 
L 43.662836 31.035017 
L 44.206533 23.172188 
L 44.280673 23.172188 
L 44.577235 25.653604 
L 44.774944 25.755012 
L 44.898511 26.48737 
L 45.31864 26.454389 
L 45.392781 26.360533 
L 45.516349 25.550963 
L 45.763483 25.550963 
L 46.060046 26.536687 
L 46.183614 26.053535 
L 46.307181 26.053535 
L 46.504889 28.015581 
L 46.554316 28.062278 
L 46.752024 28.668107 
L 46.875591 28.742391 
L 46.999159 28.641291 
L 47.172153 27.951007 
L 47.246294 27.951007 
L 47.369862 28.70679 
L 47.616996 33.980629 
L 47.740564 33.980629 
L 47.913558 33.497168 
L 48.111267 33.447697 
L 48.160694 33.497168 
L 48.358401 34.457155 
L 48.531396 34.506933 
L 48.852672 34.840749 
L 49.149234 34.819634 
L 49.346942 33.619998 
L 49.470509 33.619998 
L 49.643504 34.263893 
L 49.841212 34.371313 
L 49.890639 34.371313 
L 50.088347 33.870436 
L 50.632044 27.701802 
L 50.706185 27.507308 
L 50.829752 26.667839 
L 50.953319 26.691728 
L 51.126314 27.235756 
L 51.373449 27.278754 
L 51.571157 24.218479 
L 51.991287 19.074097 
L 52.065427 18.85325 
L 52.114855 18.314769 
L 52.238422 15.884673 
L 52.361989 15.884673 
L 52.609124 19.125572 
L 52.782119 19.125572 
L 52.979827 17.35355 
L 53.103394 17.35355 
L 53.152822 17.539414 
L 53.474097 19.872571 
L 53.647092 19.872571 
L 53.721232 19.585145 
L 54.635632 8.03849 
L 54.83334 8.530735 
L 54.956907 8.586525 
L 55.253469 8.356122 
L 55.451178 8.398966 
L 55.698312 12.068153 
L 55.74774 12.22381 
L 56.069015 15.747664 
L 56.365577 15.819328 
L 56.563285 20.46268 
L 56.686853 22.308523 
L 56.81042 22.308523 
L 57.106982 20.824389 
L 57.30469 19.319296 
L 57.428258 19.323456 
L 57.601253 19.827415 
L 57.79896 19.827415 
L 58.169663 13.044322 
L 58.29323 13.044322 
L 58.342658 13.492643 
L 58.71336 20.906533 
L 58.836928 20.856908 
L 59.084063 20.490575 
L 59.20763 20.490575 
L 59.454765 20.880333 
L 59.77604 20.884032 
L 60.146743 20.65255 
L 60.393878 20.458673 
L 60.69044 12.461918 
L 61.135283 12.383782 
L 61.308278 11.971522 
L 61.431845 11.971522 
L 61.629553 12.377308 
L 61.802548 12.474863 
L 62.000256 12.739789 
L 62.123824 13.113057 
L 62.247391 13.047712 
L 62.420386 12.861385 
L 62.618094 12.248776 
L 62.741661 12.159544 
L 62.914656 11.588853 
L 63.038223 11.588853 
L 63.161791 11.855626 
L 63.359499 13.688833 
L 63.408926 14.634333 
L 63.532494 18.610671 
L 63.903196 18.610671 
L 64.150331 20.900368 
L 64.273899 20.900368 
L 64.397466 20.057047 
L 64.595174 15.56812 
L 64.768169 15.56812 
L 64.941163 17.949207 
L 65.064731 18.167589 
L 65.138871 18.167589 
L 65.262438 17.99313 
L 65.311866 17.972324 
L 65.509574 17.281424 
L 65.929703 15.65165 
L 66.003843 15.65165 
L 66.300406 16.603931 
L 66.374546 16.711812 
L 66.547541 17.298531 
L 66.671108 17.298531 
L 66.868817 16.71921 
L 67.115951 16.517164 
L 67.288946 16.229585 
L 67.536081 15.098375 
L 67.783216 15.189611 
L 68.277486 15.931216 
L 68.598761 16.647238 
L 68.722329 16.647238 
L 68.845897 16.175181 
L 69.883864 15.729016 
L 69.958004 15.72054 
L 70.130999 15.446368 
L 70.378134 15.415083 
L 70.625269 15.664904 
L 70.872404 15.748435 
L 71.564382 15.606186 
L 72.231647 16.35673 
L 72.552922 16.450278 
L 72.849484 16.43163 
L 73.343754 16.343475 
L 74.085159 16.321129 
L 74.455862 15.102691 
L 74.950133 13.019817 
L 75.197267 14.684266 
L 75.320835 14.819426 
L 75.56797 15.08435 
L 75.691538 15.462396 
L 76.06224 15.365611 
L 76.136381 15.283931 
L 76.383515 13.780378 
L 76.507083 13.780378 
L 76.803645 16.593605 
L 77.12492 16.133724 
L 77.174348 16.133724 
L 77.347342 14.430592 
L 77.47091 13.741078 
L 77.668618 12.708811 
L 77.841613 12.430786 
L 78.03932 12.430786 
L 78.212315 13.69022 
L 78.410023 13.69022 
L 78.904293 8.624592 
L 78.95372 8.624592 
L 79.151428 9.758112 
L 79.44799 9.849503 
L 79.571557 10.220152 
L 79.769266 10.220152 
L 79.94226 9.892502 
L 80.510671 9.73669 
L 80.634238 10.4897 
L 80.9308 10.464887 
L 81.301503 9.905139 
L 81.548638 9.841952 
L 81.993481 9.942897 
L 82.290043 10.296284 
L 82.611318 10.222926 
L 82.784313 10.090232 
L 83.031448 10.155731 
L 83.105589 10.186092 
L 83.278583 12.018219 
L 83.599859 14.513352 
L 83.723426 14.513352 
L 84.267123 10.062954 
L 84.390691 9.646533 
L 84.588399 8.468626 
L 85.379231 8.406518 
L 85.453372 8.345796 
L 85.749934 9.62696 
L 85.947641 9.62696 
L 86.244204 8.907856 
L 86.491339 9.016199 
L 86.738474 9.016199 
L 87.109177 8.074244 
L 87.356311 8.847443 
L 87.479879 9.272493 
L 87.727014 9.172319 
L 87.974149 9.010034 
L 88.171857 8.687471 
L 88.666127 8.662658 
L 88.715554 8.631989 
L 88.913262 7.821033 
L 89.086257 7.821033 
L 89.209824 8.215106 
L 89.580527 8.206168 
L 89.753521 7.989327 
L 90.93977 7.941088 
L 91.112764 9.020823 
L 91.434039 9.290063 
L 91.607034 9.290063 
L 91.804742 8.880577 
L 92.051877 8.76946 
L 92.224872 8.673293 
L 92.669715 8.730931 
L 92.966277 9.427688 
L 93.040418 9.427688 
L 93.089844 9.559612 
L 93.534688 18.566286 
L 93.584114 18.566286 
L 93.658255 18.44099 
L 93.83125 14.257057 
L 93.954817 14.257057 
L 94.152525 16.863154 
L 94.201952 16.955777 
L 94.276093 17.542804 
L 94.325519 17.257074 
L 94.39966 17.257074 
L 94.572655 17.66733 
L 94.646795 17.66733 
L 94.81979 17.102341 
L 94.943357 17.045473 
L 95.066925 15.31537 
L 95.31406 15.088049 
L 95.437627 15.12365 
L 95.684762 16.161619 
L 95.931898 16.483721 
L 96.179032 16.375686 
L 96.623875 16.289844 
L 96.871011 16.644772 
L 97.044005 17.636044 
L 97.118146 17.690293 
L 97.29114 18.796227 
L 97.414708 18.961131 
L 97.538275 18.961131 
L 97.859551 17.933949 
L 97.983118 17.933949 
L 98.032545 18.36085 
L 98.27968 27.077788 
L 99.095226 27.093969 
L 99.144653 27.394341 
L 99.465929 26.120729 
L 99.836631 26.107167 
L 100.25676 21.753861 
L 100.330901 21.753861 
L 100.578036 22.856559 
L 100.701604 25.241653 
L 100.751031 25.638039 
L 100.874598 27.535511 
L 100.948739 27.567721 
L 101.072306 28.15444 
L 101.195874 28.15444 
L 101.245301 27.975973 
L 101.368868 26.330326 
L 101.492436 26.330326 
L 101.863139 29.326952 
L 101.937279 29.221074 
L 102.110273 25.58903 
L 102.233841 25.45834 
L 102.283268 25.45834 
L 102.406835 25.846866 
L 102.530403 25.892946 
L 102.653971 26.31214 
L 102.777538 26.120575 
L 103.024673 28.104044 
L 103.14824 28.104044 
L 103.222381 27.6081 
L 103.395376 22.986478 
L 103.766078 23.024082 
L 103.840219 22.558807 
L 104.210921 16.216176 
L 104.334489 16.216176 
L 104.507483 17.180015 
L 104.581624 17.290363 
L 104.952326 24.231425 
L 105.075894 24.231425 
L 105.323029 20.344165 
L 105.496024 19.74635 
L 105.570164 19.74635 
L 105.866726 15.452379 
L 106.064434 14.528917 
L 106.311569 16.218026 
L 106.484564 16.283678 
L 106.558704 16.283678 
L 106.608132 15.434655 
L 106.731699 12.179887 
L 107.102401 10.89672 
L 107.349537 9.426918 
L 107.473104 9.426918 
L 107.720239 10.163128 
L 107.917947 10.061258 
L 108.090942 7.522202 
L 108.338076 5.761431 
L 108.585212 5.495735 
L 108.782919 6.194649 
L 109.079481 8.191834 
L 109.400757 8.491127 
L 109.77146 6.280338 
L 109.820887 6.734362 
L 109.895027 6.708163 
L 110.068022 5.541816 
L 110.191589 5.541816 
L 110.438724 2.319256 
L 110.512865 2.319256 
L 110.68586 3.541395 
L 110.809427 8.533201 
L 110.883568 8.533201 
L 111.007135 9.717888 
L 111.18013 9.717888 
L 111.674399 17.236422 
L 111.797967 18.254202 
L 112.045102 18.280864 
L 112.292237 19.28539 
L 112.539373 19.750511 
L 112.613513 19.750511 
L 112.910075 18.273929 
L 113.404345 15.43111 
L 113.527912 13.609002 
L 113.65148 13.609002 
L 113.898615 18.908885 
L 114.14575 18.908885 
L 114.392885 14.822354 
L 114.516453 14.822354 
L 114.64002 15.073562 
L 114.813015 17.015882 
L 114.936582 17.112051 
L 115.010722 17.188183 
L 115.06015 17.112051 
L 115.134291 17.112051 
L 115.257858 16.925879 
L 115.430853 17.800947 
L 115.677987 23.292089 
L 115.801555 23.292089 
L 116.172258 17.075371 
L 116.369965 16.721059 
L 116.740668 15.698502 
L 116.790095 15.764771 
L 116.864235 15.976527 
L 116.987803 16.48742 
L 117.03723 16.48742 
L 117.111371 16.819847 
L 117.234938 18.036436 
L 117.358506 18.036436 
L 117.407933 17.818671 
L 117.60564 15.224288 
L 117.778635 15.261121 
L 117.852776 15.444057 
L 118.025771 16.380772 
L 118.594181 19.806918 
L 119.01431 20.129019 
L 119.137878 25.082914 
L 119.335586 25.214991 
L 119.459153 25.082914 
L 119.508581 25.045772 
L 119.706289 25.238571 
L 119.829856 25.241191 
L 119.953424 25.738984 
L 120.249986 25.801401 
L 120.373553 25.09663 
L 120.49712 25.830837 
L 120.620688 25.830837 
L 120.744256 28.773985 
L 120.941964 28.773985 
L 120.991391 28.508906 
L 121.238526 17.362026 
L 121.362094 16.699483 
L 121.559801 16.744793 
L 121.856363 20.946757 
L 121.979931 20.946757 
L 122.177639 20.179569 
L 122.301206 20.179569 
L 122.474201 20.537888 
L 122.548342 20.537888 
L 122.844904 19.618126 
L 122.968471 20.187275 
L 123.166179 20.972186 
L 123.215606 21.281188 
L 123.413314 20.298084 
L 123.536881 19.387261 
L 123.709876 19.400823 
L 123.907584 19.75236 
L 124.080579 19.827415 
L 124.648989 20.34925 
L 124.698417 20.34925 
L 124.945551 20.006651 
L 125.019692 20.006651 
L 125.192686 26.442368 
L 125.439822 26.906873 
L 125.513962 26.906873 
L 125.686956 22.294653 
L 126.008232 19.998021 
L 126.304794 20.049958 
L 126.428361 20.461909 
L 126.551929 20.461909 
L 126.799064 17.244898 
L 126.972059 16.538586 
L 127.095626 16.538586 
L 127.342761 16.904303 
L 127.540469 15.878046 
L 127.713464 15.06524 
L 128.03474 14.892014 
L 128.207734 15.409072 
L 128.281874 15.409072 
L 128.454869 21.490169 
L 128.652577 29.181929 
L 128.702004 29.340668 
L 128.899712 31.70542 
L 138.463838 22.841763 
L 138.908681 29.039371 
L 139.032249 29.039371 
L 139.131103 28.533718 
L 139.328811 28.581648 
L 139.625373 29.220304 
L 139.699513 29.220304 
L 140.119643 25.57146 
L 140.366778 24.126626 
L 140.490346 24.126626 
L 140.613913 25.063187 
L 140.811621 26.400295 
L 140.984616 27.243154 
L 141.058756 27.243154 
L 141.231751 29.944648 
L 141.305892 29.944648 
L 141.478886 34.30905 
L 141.726021 35.881184 
L 141.800161 35.881184 
L 142.096723 31.401657 
L 142.170864 31.301636 
L 142.343859 30.610889 
L 142.665134 30.461243 
L 142.838129 30.490679 
L 143.159404 31.17557 
L 143.332398 31.17557 
L 143.406539 31.024228 
L 143.653674 29.181159 
L 143.703101 29.181159 
L 143.826669 30.071638 
L 144.024377 30.071638 
L 144.147944 29.891631 
L 144.271512 29.891631 
L 144.395079 31.489812 
L 144.568074 31.432788 
L 144.815209 30.687639 
L 145.062344 30.778876 
L 145.185911 30.903863 
L 145.309479 30.873811 
L 145.433047 31.491506 
L 145.680182 34.761841 
L 145.754322 34.761841 
L 145.803749 34.635928 
L 146.001457 31.678294 
L 146.298019 31.771072 
L 146.372159 32.091016 
L 146.742862 40.200429 
L 146.792289 40.200429 
L 147.780829 29.781593 
L 147.904397 29.781593 
L 147.978538 29.955897 
L 148.151532 31.548067 
L 148.34924 33.696902 
L 148.892937 34.343879 
L 149.214213 35.447039 
L 149.387207 35.541512 
L 149.584915 35.566325 
L 149.708482 35.87841 
L 149.75791 35.87841 
L 149.832051 35.566325 
L 150.499315 16.856989 
L 150.622882 16.856989 
L 150.697023 17.004632 
L 150.993585 23.283151 
L 151.067725 23.325533 
L 151.191293 25.537709 
L 151.364288 29.903498 
L 151.487855 29.903498 
L 151.858557 27.172723 
L 152.22926 36.34615 
L 152.278687 36.34615 
L 152.476395 33.045917 
L 152.599963 33.045917 
L 152.723531 33.628629 
L 152.772957 33.628629 
L 152.847098 33.045917 
L 153.020093 28.761655 
L 153.2178 28.284359 
L 153.464936 28.284359 
L 153.588503 27.995238 
L 153.71207 27.995238 
L 154.082773 32.115984 
L 154.329908 32.071135 
L 154.700611 27.881501 
L 154.824178 28.144576 
L 155.244308 38.523189 
L 155.318448 38.523189 
L 155.491443 33.99342 
L 155.615011 33.99342 
L 155.812718 36.255376 
L 155.985713 37.860954 
L 156.10928 38.067007 
L 156.232848 37.880373 
L 156.306988 37.880373 
L 156.60355 28.063512 
L 156.801259 28.019434 
L 156.850685 28.063512 
L 157.221388 29.107337 
L 157.344955 29.278405 
L 157.468523 29.54672 
L 157.592091 30.136367 
L 157.715658 30.136367 
L 157.962793 29.19395 
L 158.08636 29.05802 
L 158.209928 29.19395 
L 158.457063 31.771997 
L 158.531204 31.771997 
L 158.704198 28.851043 
L 158.827766 28.58134 
L 159.074901 26.677086 
L 159.149041 26.677086 
L 159.272609 27.246082 
L 159.322036 27.288772 
L 159.766879 37.0651 
L 159.816306 37.0651 
L 160.014014 34.927978 
L 160.310576 22.344895 
L 160.434144 20.722056 
L 160.557711 20.722056 
L 160.681278 21.110274 
L 160.804846 21.110274 
L 160.878987 20.747177 
L 161.126121 17.104499 
L 161.175549 17.104499 
L 161.249689 17.264933 
L 161.743959 20.563317 
L 161.867527 20.872011 
L 162.040521 26.765087 
L 162.238229 30.327162 
L 162.411224 31.207781 
L 162.485364 31.207781 
L 162.658359 31.684923 
L 162.7325 31.684923 
L 162.856067 31.153994 
L 163.029062 29.873292 
L 163.22677 28.594285 
L 163.399764 27.290621 
L 163.523332 25.960757 
L 163.646899 25.741604 
L 163.819894 22.807242 
L 163.894034 22.807242 
L 164.067029 22.121889 
L 164.141169 21.974709 
L 164.314164 20.62558 
L 164.437732 20.62558 
L 164.808434 27.509928 
L 164.932001 27.978286 
L 165.055569 27.978286 
L 165.179137 26.653044 
L 165.302704 26.653044 
L 165.500412 26.770789 
L 165.549839 26.770789 
L 165.747547 25.743145 
L 166.241817 23.996861 
L 166.414812 23.996861 
L 166.661947 26.349437 
L 166.785514 26.349437 
L 166.859655 26.213044 
L 167.032649 25.659307 
L 167.10679 25.342599 
L 167.230357 25.659307 
L 167.279784 25.659307 
L 167.403352 26.848001 
L 167.526919 26.848001 
L 167.897622 24.844805 
L 168.021189 24.954535 
L 168.144757 25.008938 
L 168.342465 26.152168 
L 168.466032 26.152168 
L 168.51546 25.963223 
L 168.639027 25.202045 
L 168.762594 25.202045 
L 168.960303 25.734053 
L 169.08387 26.180064 
L 169.133297 26.480589 
L 169.207437 26.280855 
L 169.331005 26.280855 
L 169.454573 26.581073 
L 169.57814 26.320309 
L 169.701708 26.6495 
L 169.948843 26.492148 
L 170.443113 27.744183 
L 170.56668 27.753431 
L 171.110378 35.471544 
L 171.48108 36.52847 
L 171.678788 36.667173 
L 172.098917 34.323228 
L 172.346053 33.701988 
L 172.54376 21.110274 
L 172.716755 21.081146 
L 172.790896 21.110274 
L 173.087458 25.341828 
L 173.285166 25.637885 
L 173.45816 25.161667 
L 173.655868 23.798668 
L 173.705296 23.798668 
L 173.828863 23.632223 
L 173.903003 23.682773 
L 174.199565 26.763546 
L 174.446701 26.69743 
L 174.891544 25.519524 
L 175.064538 25.224546 
L 175.385814 25.284343 
L 175.43524 25.37296 
L 175.558808 27.237914 
L 175.682376 27.39095 
L 176.003652 26.529906 
L 176.127219 26.313836 
L 176.34964 26.414781 
L 176.547348 26.573829 
L 176.670916 26.616827 
L 176.794483 26.922285 
L 177.041619 26.833822 
L 177.165186 26.375482 
L 177.214613 26.336491 
L 177.338181 24.724595 
L 177.461748 24.724595 
L 177.708883 25.529233 
L 178.079586 25.552042 
L 178.277294 25.360476 
L 179.389401 25.250438 
L 179.685963 25.15843 
L 179.933099 27.056982 
L 180.130807 26.972373 
L 180.872212 24.304167 
L 181.168774 24.167004 
L 181.366481 24.228188 
L 181.613617 26.242018 
L 181.737184 26.242018 
L 181.984319 24.79071 
L 182.107887 24.79071 
L 182.231455 25.870599 
L 182.404449 27.008743 
L 182.602157 27.008743 
L 182.651584 26.84646 
L 182.898719 25.158739 
L 183.096427 24.865457 
L 183.269422 22.900482 
L 183.343562 22.829897 
L 183.590697 21.651374 
L 183.763692 21.553511 
L 183.837832 21.703311 
L 183.887259 21.553511 
L 184.208535 19.241621 
L 184.38153 19.28015 
L 184.628664 20.343702 
L 184.752232 20.397335 
L 184.875799 20.29793 
L 185.122935 18.766945 
L 185.246502 18.766945 
L 185.567778 24.970564 
L 185.617204 24.970564 
L 185.740772 24.779768 
L 185.86434 24.779768 
L 186.062048 26.362844 
L 186.185615 26.360841 
L 186.43275 25.305457 
L 186.482177 25.284035 
L 186.556317 24.520238 
L 186.729312 21.865133 
L 186.852879 21.865133 
L 186.92702 22.261672 
L 187.100015 23.621897 
L 187.223582 23.621897 
L 187.668425 17.450335 
L 187.791993 17.450335 
L 188.088555 22.727256 
L 188.212122 22.727256 
L 188.33569 22.462947 
L 188.582825 18.51774 
L 188.706392 18.51774 
L 188.879387 20.90792 
L 188.953528 21.595584 
L 189.126522 25.294977 
L 189.32423 25.294977 
L 189.447797 25.579166 
L 189.620792 24.854514 
L 189.8185 24.779306 
L 189.991495 23.623747 
L 190.115062 20.848431 
L 190.312771 20.778617 
L 190.436338 20.844424 
L 190.485765 21.176081 
L 190.7329 24.678977 
L 190.980035 25.566067 
L 191.30131 25.566067 
L 191.424878 24.36381 
L 191.548445 24.36381 
L 191.672013 26.122424 
L 191.795581 26.122424 
L 191.968575 25.752701 
L 192.289851 24.599299 
L 192.660553 18.741207 
L 192.78412 19.478497 
L 192.957115 25.639734 
L 193.327818 26.680169 
L 193.401958 26.680169 
L 193.525526 26.100694 
L 193.649094 26.100694 
L 193.822088 27.543679 
L 193.945656 27.543679 
L 194.19279 25.004623 
L 194.390499 24.900595 
L 194.687061 24.885183 
L 194.810628 24.671425 
L 194.934195 24.671425 
L 195.057763 25.250592 
L 195.6756 34.384104 
L 195.922736 34.3203 
L 195.996876 34.212881 
L 196.169871 33.698752 
L 196.244012 33.698752 
L 196.491146 34.223978 
L 196.614714 34.223978 
L 196.787708 34.418471 
L 196.861849 34.485358 
L 196.911276 34.418471 
L 197.034843 34.418471 
L 197.281979 33.09246 
L 197.529113 32.670338 
L 197.850389 28.782923 
L 198.023384 28.174012 
L 198.097524 28.174012 
L 198.221092 28.497347 
L 198.344659 28.367582 
L 198.394086 28.546202 
L 198.517654 28.271722 
L 198.715361 25.839622 
L 198.888356 21.049861 
L 199.011924 21.049861 
L 199.086064 21.346533 
L 199.333199 25.012021 
L 199.382626 25.012021 
L 199.506194 24.487257 
L 199.753329 20.719128 
L 199.951037 20.63606 
L 200.000464 20.63606 
L 200.124031 20.823773 
L 200.247599 20.823773 
L 200.494734 18.517123 
L 200.618302 18.608052 
L 200.81601 21.298295 
L 200.989004 21.94743 
L 201.161998 23.001119 
L 201.236139 23.041343 
L 201.409134 24.094262 
L 201.656269 30.300346 
L 202.101112 32.640284 
L 202.150539 32.640284 
L 202.471815 33.371256 
L 202.521241 33.371256 
L 202.718949 33.048384 
L 202.891944 31.613412 
L 202.966084 31.613412 
L 203.015511 31.923955 
L 203.089652 31.839654 
L 203.262647 31.839654 
L 203.460354 31.721139 
L 203.633349 31.741174 
L 203.831057 32.537799 
L 203.954625 32.537799 
L 204.127619 31.061216 
L 204.325327 30.739114 
L 204.374754 30.786119 
L 204.498321 30.936844 
L 204.69603 31.881111 
L 204.745457 31.881111 
L 204.869024 32.075605 
L 204.943165 32.017041 
L 205.116159 31.498905 
L 205.239727 31.815767 
L 205.363295 31.402583 
L 205.437435 31.498905 
L 205.68457 32.723507 
L 206.055272 32.692993 
L 206.228267 32.140488 
L 206.302408 31.713433 
L 206.425975 29.269929 
L 206.59897 29.269929 
L 206.722537 29.71933 
L 206.969672 35.258094 
L 207.16738 35.258094 
L 207.216807 35.126325 
L 207.414515 32.190729 
L 207.538083 32.027521 
L 207.711077 32.30123 
L 207.908785 34.445134 
L 208.08178 34.3727 
L 208.205347 33.511654 
L 208.526623 33.354765 
L 208.699618 33.529533 
L 208.773758 33.845007 
L 208.946752 35.279978 
L 209.07032 35.373988 
L 209.193888 36.176624 
L 209.317455 36.176624 
L 209.441023 32.811816 
L 209.441023 32.811816 
" clip-path="url(#pa7d4e3220a)" style="fill: none; stroke: #5c80b5; stroke-width: 0.5; stroke-linecap: square"/>
   </g>
  </g>
 </g>
 <defs>
  <clipPath id="pa7d4e3220a">
   <rect x="2.125984" y="0.425197" width="208.346457" height="41.669291"/>
  </clipPath>
 </defs>
</svg>
