<?xml version="1.0" encoding="utf-8" standalone="no"?>
<!DOCTYPE svg PUBLIC "-//W3C//DTD SVG 1.1//EN"
  "http://www.w3.org/Graphics/SVG/1.1/DTD/svg11.dtd">
<svg xmlns:xlink="http://www.w3.org/1999/xlink" width="212.598425pt" height="42.519685pt" viewBox="0 0 212.598425 42.519685" xmlns="http://www.w3.org/2000/svg" version="1.1">
 <metadata>
  <rdf:RDF xmlns:dc="http://purl.org/dc/elements/1.1/" xmlns:cc="http://creativecommons.org/ns#" xmlns:rdf="http://www.w3.org/1999/02/22-rdf-syntax-ns#">
   <cc:Work>
    <dc:type rdf:resource="http://purl.org/dc/dcmitype/StillImage"/>
    <dc:date>2026-06-01T17:59:28.356499</dc:date>
    <dc:format>image/svg+xml</dc:format>
    <dc:creator>
     <cc:Agent>
      <dc:title>Matplotlib v3.10.8, https://matplotlib.org/</dc:title>
     </cc:Agent>
    </dc:creator>
   </cc:Work>
  </rdf:RDF>
 </metadata>
 <defs>
  <style type="text/css">*{stroke-linejoin: round; stroke-linecap: butt}</style>
 </defs>
 <g id="figure_1">
  <g id="patch_1">
   <path d="M 0 42.519685 
L 212.598425 42.519685 
L 212.598425 0 
L 0 0 
z
" style="fill: #ffffff"/>
  </g>
  <g id="axes_1">
   <g id="patch_2">
    <path d="M 8.503937 30.614173 
L 208.346457 30.614173 
L 208.346457 3.401575 
L 8.503937 3.401575 
z
" style="fill: #eaeaf2"/>
   </g>
   <g id="matplotlib.axis_1">
    <g id="xtick_1">
     <g id="line2d_1">
      <path d="M 9.493256 30.614173 
L 9.493256 3.401575 
" clip-path="url(#p107c912644)" style="fill: none; stroke: #ffffff; stroke-width: 0.9; stroke-linecap: square"/>
     </g>
     <g id="line2d_2">
      <defs>
       <path id="m733b8acdfe" d="M 0 0 
L 0 2 
" style="stroke: #000000; stroke-width: 0.4"/>
      </defs>
      <g>
       <use xlink:href="#m733b8acdfe" x="9.493256" y="30.614173" style="stroke: #000000; stroke-width: 0.4"/>
      </g>
     </g>
     <g id="text_1">
      <text style="font-size: 8px; font-family: 'DejaVu Sans', 'Bitstream Vera Sans', 'Computer Modern Sans Serif', 'Lucida Grande', 'Verdana', 'Geneva', 'Lucid', 'Arial', 'Helvetica', 'Avant Garde', sans-serif; text-anchor: middle" x="9.493256" y="42.192923" transform="rotate(-0 9.493256 42.192923)">0</text>
     </g>
    </g>
    <g id="xtick_2">
     <g id="line2d_3">
      <path d="M 52.119252 30.614173 
L 52.119252 3.401575 
" clip-path="url(#p107c912644)" style="fill: none; stroke: #ffffff; stroke-width: 0.9; stroke-linecap: square"/>
     </g>
     <g id="line2d_4">
      <g>
       <use xlink:href="#m733b8acdfe" x="52.119252" y="30.614173" style="stroke: #000000; stroke-width: 0.4"/>
      </g>
     </g>
     <g id="text_2">
      <text style="font-size: 8px; font-family: 'DejaVu Sans', 'Bitstream Vera Sans', 'Computer Modern Sans Serif', 'Lucida Grande', 'Verdana', 'Geneva', 'Lucid', 'Arial', 'Helvetica', 'Avant Garde', sans-serif; text-anchor: middle" x="52.119252" y="42.192923" transform="rotate(-0 52.119252 42.192923)">60</text>
     </g>
    </g>
    <g id="xtick_3">
     <g id="line2d_5">
      <path d="M 94.745248 30.614173 
L 94.745248 3.401575 
" clip-path="url(#p107c912644)" style="fill: none; stroke: #ffffff; stroke-width: 0.9; stroke-linecap: square"/>
     </g>
     <g id="line2d_6">
      <g>
       <use xlink:href="#m733b8acdfe" x="94.745248" y="30.614173" style="stroke: #000000; stroke-width: 0.4"/>
      </g>
     </g>
     <g id="text_3">
      <text style="font-size: 8px; font-family: 'DejaVu Sans', 'Bitstream Vera Sans', 'Computer Modern Sans Serif', 'Lucida Grande', 'Verdana', 'Geneva', 'Lucid', 'Arial', 'Helvetica', 'Avant Garde', sans-serif; text-anchor: middle" x="94.745248" y="42.192923" transform="rotate(-0 94.745248 42.192923)">120</text>
     </g>
    </g>
    <g id="xtick_4">
     <g id="line2d_7">
      <path d="M 137.371243 30.614173 
L 137.371243 3.401575 
" clip-path="url(#p107c912644)" style="fill: none; stroke: #ffffff; stroke-width: 0.9; stroke-linecap: square"/>
     </g>
     <g id="line2d_8">
      <g>
       <use xlink:href="#m733b8acdfe" x="137.371243" y="30.614173" style="stroke: #000000; stroke-width: 0.4"/>
      </g>
     </g>
     <g id="text_4">
      <text style="font-size: 8px; font-family: 'DejaVu Sans', 'Bitstream Vera Sans', 'Computer Modern Sans Serif', 'Lucida Grande', 'Verdana', 'Geneva', 'Lucid', 'Arial', 'Helvetica', 'Avant Garde', sans-serif; text-anchor: middle" x="137.371243" y="42.192923" transform="rotate(-0 137.371243 42.192923)">180</text>
     </g>
    </g>
    <g id="xtick_5">
     <g id="line2d_9">
      <path d="M 179.997239 30.614173 
L 179.997239 3.401575 
" clip-path="url(#p107c912644)" style="fill: none; stroke: #ffffff; stroke-width: 0.9; stroke-linecap: square"/>
     </g>
     <g id="line2d_10">
      <g>
       <use xlink:href="#m733b8acdfe" x="179.997239" y="30.614173" style="stroke: #000000; stroke-width: 0.4"/>
      </g>
     </g>
     <g id="text_5">
      <text style="font-size: 8px; font-family: 'DejaVu Sans', 'Bitstream Vera Sans', 'Computer Modern Sans Serif', 'Lucida Grande', 'Verdana', 'Geneva', 'Lucid', 'Arial', 'Helvetica', 'Avant Garde', sans-serif; text-anchor: middle" x="179.997239" y="42.192923" transform="rotate(-0 179.997239 42.192923)">240</text>
     </g>
    </g>
    <g id="xtick_6">
     <g id="line2d_11">
      <path d="M 30.806254 30.614173 
L 30.806254 3.401575 
" clip-path="url(#p107c912644)" style="fill: none; stroke: #ffffff; stroke-opacity: 0.9; stroke-width: 0.55; stroke-linecap: square"/>
     </g>
     <g id="line2d_12">
      <defs>
       <path id="m5847c69fd0" d="M 0 0 
L 0 2 
" style="stroke: #000000; stroke-width: 0.6"/>
      </defs>
      <g>
       <use xlink:href="#m5847c69fd0" x="30.806254" y="30.614173" style="stroke: #000000; stroke-width: 0.6"/>
      </g>
     </g>
    </g>
    <g id="xtick_7">
     <g id="line2d_13">
      <path d="M 73.43225 30.614173 
L 73.43225 3.401575 
" clip-path="url(#p107c912644)" style="fill: none; stroke: #ffffff; stroke-opacity: 0.9; stroke-width: 0.55; stroke-linecap: square"/>
     </g>
     <g id="line2d_14">
      <g>
       <use xlink:href="#m5847c69fd0" x="73.43225" y="30.614173" style="stroke: #000000; stroke-width: 0.6"/>
      </g>
     </g>
    </g>
    <g id="xtick_8">
     <g id="line2d_15">
      <path d="M 116.058246 30.614173 
L 116.058246 3.401575 
" clip-path="url(#p107c912644)" style="fill: none; stroke: #ffffff; stroke-opacity: 0.9; stroke-width: 0.55; stroke-linecap: square"/>
     </g>
     <g id="line2d_16">
      <g>
       <use xlink:href="#m5847c69fd0" x="116.058246" y="30.614173" style="stroke: #000000; stroke-width: 0.6"/>
      </g>
     </g>
    </g>
    <g id="xtick_9">
     <g id="line2d_17">
      <path d="M 158.684241 30.614173 
L 158.684241 3.401575 
" clip-path="url(#p107c912644)" style="fill: none; stroke: #ffffff; stroke-opacity: 0.9; stroke-width: 0.55; stroke-linecap: square"/>
     </g>
     <g id="line2d_18">
      <g>
       <use xlink:href="#m5847c69fd0" x="158.684241" y="30.614173" style="stroke: #000000; stroke-width: 0.6"/>
      </g>
     </g>
    </g>
    <g id="xtick_10">
     <g id="line2d_19">
      <path d="M 201.310237 30.614173 
L 201.310237 3.401575 
" clip-path="url(#p107c912644)" style="fill: none; stroke: #ffffff; stroke-opacity: 0.9; stroke-width: 0.55; stroke-linecap: square"/>
     </g>
     <g id="line2d_20">
      <g>
       <use xlink:href="#m5847c69fd0" x="201.310237" y="30.614173" style="stroke: #000000; stroke-width: 0.6"/>
      </g>
     </g>
    </g>
    <g id="text_6">
     <text style="font-size: 8px; font-family: 'DejaVu Sans', 'Bitstream Vera Sans', 'Computer Modern Sans Serif', 'Lucida Grande', 'Verdana', 'Geneva', 'Lucid', 'Arial', 'Helvetica', 'Avant Garde', sans-serif; text-anchor: middle" x="108.425197" y="53.935423" transform="rotate(-0 108.425197 53.935423)">time</text>
    </g>
   </g>
   <g id="matplotlib.axis_2">
    <g id="ytick_1">
     <g id="line2d_21">
      <path d="M 8.503937 29.277791 
L 208.346457 29.277791 
" clip-path="url(#p107c912644)" style="fill: none; stroke: #ffffff; stroke-width: 0.9; stroke-linecap: square"/>
     </g>
    </g>
    <g id="ytick_2">
     <g id="line2d_22">
      <path d="M 8.503937 21.725539 
L 208.346457 21.725539 
" clip-path="url(#p107c912644)" style="fill: none; stroke: #ffffff; stroke-width: 0.9; stroke-linecap: square"/>
     </g>
    </g>
    <g id="ytick_3">
     <g id="line2d_23">
      <path d="M 8.503937 14.173287 
L 208.346457 14.173287 
" clip-path="url(#p107c912644)" style="fill: none; stroke: #ffffff; stroke-width: 0.9; stroke-linecap: square"/>
     </g>
    </g>
    <g id="ytick_4">
     <g id="line2d_24">
      <path d="M 8.503937 6.621035 
L 208.346457 6.621035 
" clip-path="url(#p107c912644)" style="fill: none; stroke: #ffffff; stroke-width: 0.9; stroke-linecap: square"/>
     </g>
    </g>
    <g id="ytick_5">
     <g id="line2d_25">
      <path d="M 8.503937 25.501665 
L 208.346457 25.501665 
" clip-path="url(#p107c912644)" style="fill: none; stroke: #ffffff; stroke-opacity: 0.9; stroke-width: 0.55; stroke-linecap: square"/>
     </g>
     <g id="line2d_26">
      <defs>
       <path id="m8e7119f56d" d="M 0 0 
L -2 0 
" style="stroke: #000000; stroke-width: 0.6"/>
      </defs>
      <g>
       <use xlink:href="#m8e7119f56d" x="8.503937" y="25.501665" style="stroke: #000000; stroke-width: 0.6"/>
      </g>
     </g>
    </g>
    <g id="ytick_6">
     <g id="line2d_27">
      <path d="M 8.503937 17.949413 
L 208.346457 17.949413 
" clip-path="url(#p107c912644)" style="fill: none; stroke: #ffffff; stroke-opacity: 0.9; stroke-width: 0.55; stroke-linecap: square"/>
     </g>
     <g id="line2d_28">
      <g>
       <use xlink:href="#m8e7119f56d" x="8.503937" y="17.949413" style="stroke: #000000; stroke-width: 0.6"/>
      </g>
     </g>
    </g>
    <g id="ytick_7">
     <g id="line2d_29">
      <path d="M 8.503937 10.397161 
L 208.346457 10.397161 
" clip-path="url(#p107c912644)" style="fill: none; stroke: #ffffff; stroke-opacity: 0.9; stroke-width: 0.55; stroke-linecap: square"/>
     </g>
     <g id="line2d_30">
      <g>
       <use xlink:href="#m8e7119f56d" x="8.503937" y="10.397161" style="stroke: #000000; stroke-width: 0.6"/>
      </g>
     </g>
    </g>
   </g>
   <g id="line2d_31">
    <path d="M 9.493256 12.274987 
L 9.682894 12.166962 
L 9.730305 12.109654 
L 10.275514 8.902936 
L 10.441448 8.839035 
L 10.631086 8.902936 
L 10.79702 9.783827 
L 11.152592 15.947615 
L 11.389639 15.947615 
L 11.508164 20.466472 
L 11.626687 20.466472 
L 11.863736 10.755836 
L 12.219307 10.755836 
L 12.337831 13.330249 
L 12.527469 13.330249 
L 12.645994 17.766918 
L 12.764517 18.360203 
L 12.883041 18.567109 
L 13.048975 21.629971 
L 13.120089 21.730553 
L 13.167499 22.605915 
L 13.238613 22.583587 
L 13.594185 22.583587 
L 13.712709 23.133493 
L 13.997167 23.318708 
L 14.234214 23.357835 
L 14.305329 22.211136 
L 14.471262 15.471817 
L 14.542377 15.251089 
L 14.70831 13.7851 
L 15.419454 13.7851 
L 15.609092 14.162124 
L 15.89355 14.162124 
L 16.130598 15.506904 
L 16.249122 16.325808 
L 16.48617 20.112734 
L 16.604693 20.112734 
L 16.841741 10.581253 
L 17.908457 10.581253 
L 18.026981 9.338012 
L 19.21222 9.338012 
L 19.449268 17.617001 
L 19.757431 23.622687 
L 19.994478 25.76734 
L 20.041888 25.76734 
L 20.39746 24.699851 
L 20.990079 25.042745 
L 21.179718 24.790439 
L 21.582699 24.759711 
L 21.630109 24.483483 
L 21.819747 19.53965 
L 22.056795 9.052746 
L 22.222729 9.122281 
L 22.341252 9.653686 
L 25.375466 9.653686 
L 25.49399 10.379238 
L 25.541399 10.379238 
L 25.659923 14.899584 
L 25.896971 21.099416 
L 26.252543 24.211187 
L 26.371067 24.468916 
L 26.608114 24.518887 
L 26.797753 25.328329 
L 26.963686 25.328329 
L 27.153325 24.100931 
L 27.271849 23.540393 
L 27.390372 17.104628 
L 27.67483 9.370228 
L 27.745944 9.294207 
L 27.911878 8.876674 
L 28.220041 8.876674 
L 28.338564 9.013513 
L 28.623022 9.013513 
L 28.86007 12.902722 
L 29.049708 12.981401 
L 29.40528 12.960561 
L 29.571214 15.182405 
L 29.926785 20.640949 
L 30.400881 21.295584 
L 30.637929 21.476546 
L 30.827567 21.809765 
L 30.993501 21.809765 
L 31.112025 18.072173 
L 31.230548 17.837198 
L 31.301663 17.837198 
L 31.420187 18.484176 
L 31.58612 21.720772 
L 31.657235 21.865584 
L 31.894283 23.112865 
L 32.012807 23.217701 
L 32.297264 23.92741 
L 32.534312 25.108771 
L 32.889884 25.00181 
L 33.126932 24.8251 
L 33.292865 24.634142 
L 33.529913 24.606924 
L 33.9566 23.732732 
L 34.122533 23.732732 
L 34.359581 24.111562 
L 34.596629 23.920073 
L 34.952201 24.004069 
L 35.070724 23.745172 
L 35.663344 23.675105 
L 35.852982 23.608439 
L 35.900393 23.608439 
L 36.327079 27.67691 
L 36.493012 27.67691 
L 36.611536 26.794319 
L 36.801174 25.099628 
L 36.848584 25.099628 
L 36.919698 24.977036 
L 37.038222 24.372799 
L 37.085632 24.372799 
L 37.204155 15.237161 
L 37.27527 15.237161 
L 37.393794 14.432292 
L 37.678252 15.732416 
L 37.86789 15.732416 
L 38.223462 14.463338 
L 38.46051 13.578727 
L 38.697557 12.758547 
L 38.934605 12.597998 
L 38.982015 12.597998 
L 39.456111 13.535028 
L 39.645749 13.591698 
L 39.811683 13.488352 
L 39.930207 13.162257 
L 40.04873 12.563975 
L 40.404302 12.61618 
L 40.475416 12.268927 
L 40.64135 11.251516 
L 40.759874 11.174007 
L 40.949513 10.853548 
L 41.115446 10.575406 
L 41.23397 10.575406 
L 41.305085 10.862479 
L 41.589542 14.305129 
L 41.708066 14.305129 
L 41.897704 12.46403 
L 42.016228 12.46403 
L 42.134752 13.590635 
L 42.300686 13.590635 
L 42.419209 13.355022 
L 42.537733 13.355022 
L 42.727372 14.578274 
L 43.011829 14.60964 
L 43.248877 14.992936 
L 43.319991 14.992936 
L 43.557039 14.302365 
L 43.794088 14.042829 
L 43.841497 14.042829 
L 43.960021 13.499835 
L 44.315592 13.584362 
L 44.505231 13.230411 
L 44.742279 13.042325 
L 44.979327 12.507942 
L 45.026736 12.487209 
L 45.19267 11.976005 
L 45.311194 11.976005 
L 45.429718 15.046629 
L 45.548242 20.457222 
L 45.666765 20.457222 
L 45.78529 19.770478 
L 45.903814 19.770478 
L 46.140862 24.029481 
L 46.211976 24.122514 
L 46.3305 25.646875 
L 46.567548 27.340822 
L 46.686072 27.340822 
L 46.804595 26.39199 
L 46.92312 24.626807 
L 47.160167 8.6518 
L 47.326101 8.6518 
L 47.444625 9.166087 
L 47.681673 13.331205 
L 48.037245 14.733294 
L 48.155768 16.65169 
L 48.274293 16.65169 
L 48.51134 15.90785 
L 48.819503 14.874492 
L 48.866912 14.874492 
L 49.056551 15.152421 
L 49.341008 15.077144 
L 49.459532 14.887144 
L 49.530646 14.736909 
L 49.69658 13.871223 
L 49.815104 13.871223 
L 49.886218 14.092163 
L 49.933628 13.871223 
L 50.24179 14.653445 
L 50.526248 14.709159 
L 50.881819 15.228762 
L 51.545554 15.228762 
L 51.664078 15.480961 
L 51.782601 15.480961 
L 51.901126 15.175281 
L 55.030158 15.175281 
L 55.267205 14.276635 
L 55.504253 13.74693 
L 55.859825 13.334714 
L 56.049463 13.611049 
L 56.215397 13.525459 
L 56.286512 12.937383 
L 56.405035 10.347448 
L 56.52356 10.347448 
L 56.689493 20.152499 
L 56.879132 20.152499 
L 57.092475 18.116297 
L 57.282113 14.394972 
L 59.652592 14.394972 
L 59.771116 5.083156 
L 59.889639 5.083156 
L 60.008164 5.567672 
L 60.529669 5.540773 
L 60.648193 7.578889 
L 61.003765 14.524794 
L 61.193403 17.57107 
L 61.359337 18.701289 
L 61.430451 18.731697 
L 61.596384 19.096068 
L 61.904547 19.341994 
L 61.951956 19.140299 
L 62.189004 15.619288 
L 62.307528 15.203989 
L 62.426052 15.203989 
L 62.544576 17.872497 
L 62.734214 19.803758 
L 63.089786 20.077328 
L 63.25572 20.277642 
L 63.611292 20.312091 
L 64.39355 20.094021 
L 64.630598 15.64874 
L 64.98617 15.637257 
L 65.270627 14.931588 
L 65.389151 14.931588 
L 65.578789 15.079484 
L 65.697313 14.97114 
L 65.744723 14.957956 
L 65.863246 13.923959 
L 66.218818 10.213586 
L 66.455866 9.611476 
L 66.57439 9.487397 
L 66.645504 9.393832 
L 66.811438 8.847117 
L 66.929962 8.847117 
L 67.285534 10.966782 
L 67.404058 13.589253 
L 67.522582 13.589253 
L 67.641106 12.459246 
L 67.75963 12.459246 
L 67.878154 13.235408 
L 68.115202 16.43564 
L 68.233726 16.43564 
L 68.352249 15.6363 
L 68.470774 11.929968 
L 79.422387 11.929968 
L 79.54091 11.310526 
L 79.967597 11.310526 
L 80.13353 18.097903 
L 80.252054 18.097903 
L 80.323168 17.86952 
L 80.892083 6.572004 
L 81.010607 6.47929 
L 81.081721 6.298966 
L 81.247655 5.26029 
L 81.555818 5.363319 
L 81.603227 5.425092 
L 81.674341 5.363319 
L 81.792865 5.275708 
L 81.958799 4.968964 
L 82.266961 4.968964 
L 82.432894 5.202451 
L 82.669943 5.202451 
L 82.788466 5.906844 
L 82.978105 5.821891 
L 83.144038 5.676761 
L 83.618134 5.420946 
L 83.689249 5.420946 
L 83.855182 5.963514 
L 84.210754 5.952032 
L 84.518916 5.832312 
L 84.63744 5.894191 
L 84.803374 5.993816 
L 85.633041 6.021035 
L 85.82268 5.60159 
L 86.533824 5.604779 
L 86.652347 4.909317 
L 86.818281 4.754935 
L 86.936805 4.667324 
L 87.007919 4.754935 
L 87.055328 4.667324 
L 87.244967 4.638511 
L 87.4109 5.094745 
L 88.074635 5.094745 
L 88.193158 5.495585 
L 91.085143 5.495585 
L 91.274781 5.292188 
L 93.337098 5.292188 
L 93.455622 5.146099 
L 93.69267 5.146099 
L 93.858604 5.468153 
L 95.87351 5.539816 
L 96.110558 12.677635 
L 96.46613 15.091285 
L 96.584654 15.091285 
L 96.703178 17.307068 
L 96.821702 17.307068 
L 97.295798 11.399306 
L 97.60396 11.41887 
L 97.722484 11.986956 
L 97.888418 11.879251 
L 98.599561 11.756447 
L 98.836609 11.477667 
L 99.144771 11.558154 
L 99.429229 16.139104 
L 99.737391 16.120604 
L 99.855915 15.350396 
L 100.140372 13.083258 
L 100.330011 11.606956 
L 100.495944 11.353481 
L 100.732992 8.734414 
L 100.851516 8.734414 
L 101.041155 9.053703 
L 101.207088 10.995277 
L 101.444136 10.965187 
L 101.633774 10.498959 
L 101.681184 10.498959 
L 101.799708 10.654404 
L 102.226394 13.588615 
L 102.273804 13.732152 
L 102.392328 14.406137 
L 102.510852 14.406137 
L 102.70049 14.211352 
L 102.984947 14.117787 
L 103.174586 11.628859 
L 103.29311 11.216323 
L 103.814615 11.168265 
L 104.051663 9.262629 
L 104.241302 9.262629 
L 104.288711 9.582025 
L 104.525759 13.34003 
L 104.691692 14.071749 
L 104.881331 14.20763 
L 104.92874 14.104709 
L 104.999855 14.071749 
L 105.165788 11.132115 
L 105.284312 10.831964 
L 105.355426 10.831964 
L 105.52136 11.249071 
L 105.829522 11.777074 
L 106.303618 6.300986 
L 106.351028 6.300986 
L 106.706599 24.578536 
L 106.777714 24.823718 
L 106.943648 27.335611 
L 107.062171 27.413653 
L 107.133286 27.335611 
L 107.536267 25.782225 
L 107.773315 25.782225 
L 107.962953 24.707186 
L 108.128887 23.043542 
L 108.318525 14.687043 
L 108.437049 14.687043 
L 108.484459 14.923507 
L 108.911145 24.800114 
L 109.029669 24.800114 
L 109.077079 24.667422 
L 109.38524 22.414958 
L 109.503765 22.333514 
L 109.551174 22.183704 
L 109.622289 22.333514 
L 109.906746 20.951308 
L 110.380842 15.86362 
L 110.57048 15.917632 
L 110.689004 16.531119 
L 110.854938 16.543665 
L 111.21051 18.083018 
L 111.281624 18.10811 
L 111.400148 18.518838 
L 111.518672 18.518838 
L 111.637196 19.026107 
L 111.684605 19.026107 
L 111.75572 18.754451 
L 111.874243 19.583668 
L 111.992768 18.706711 
L 112.111292 18.665564 
L 112.277225 17.26507 
L 112.395749 17.26507 
L 112.466863 17.418389 
L 112.632797 18.473863 
L 112.751321 22.428461 
L 112.869845 22.428461 
L 112.988369 20.094127 
L 113.178007 20.160155 
L 113.343941 22.519793 
L 113.462465 22.519793 
L 113.580988 20.333143 
L 113.699513 15.183255 
L 113.93656 15.183255 
L 114.173608 16.762798 
L 114.244723 16.906016 
L 114.363246 17.330247 
L 114.718818 17.330247 
L 114.955866 16.892513 
L 115.240324 16.892513 
L 115.358848 14.248565 
L 115.477372 14.248565 
L 115.595896 15.643636 
L 115.951468 15.643636 
L 116.188516 13.083365 
L 116.354449 13.083365 
L 116.662611 13.727154 
L 116.899659 13.657406 
L 117.018183 13.502599 
L 117.184117 14.277698 
L 117.658212 21.040938 
L 117.966375 23.778026 
L 118.084899 23.778026 
L 118.250832 20.350474 
L 118.369356 20.350474 
L 118.48788 21.212119 
L 118.606404 21.212119 
L 118.796042 18.044741 
L 119.03309 13.469001 
L 119.270138 11.033553 
L 119.436072 11.06343 
L 119.507186 11.301276 
L 119.791643 14.6157 
L 119.910167 14.89363 
L 120.147215 15.485852 
L 120.502787 15.448639 
L 120.573902 15.448639 
L 120.621311 15.323496 
L 120.858359 12.065955 
L 120.976883 12.065955 
L 121.047997 12.233946 
L 121.285045 13.990943 
L 121.332455 13.990943 
L 121.450979 14.400608 
L 121.569503 14.400608 
L 121.688026 14.594754 
L 122.043598 14.539785 
L 122.162123 15.197928 
L 122.39917 15.197928 
L 122.517695 15.858941 
L 122.636218 15.858941 
L 122.825856 14.848762 
L 122.873266 14.754133 
L 123.110314 13.089213 
L 123.465886 11.975474 
L 123.58441 11.975474 
L 123.774048 12.147824 
L 123.821457 12.147824 
L 124.011096 11.983129 
L 124.058506 11.983129 
L 124.12962 12.130069 
L 124.295554 13.277299 
L 124.414077 13.277299 
L 124.72224 11.788238 
L 124.840764 12.643824 
L 124.888173 12.656901 
L 125.006697 13.293567 
L 125.788956 13.327378 
L 125.954889 12.768647 
L 126.31046 12.64999 
L 126.381575 12.374506 
L 126.666032 9.488779 
L 126.784557 9.488779 
L 127.211243 11.596749 
L 127.377176 14.200081 
L 127.566815 14.376579 
L 127.614224 14.376579 
L 127.732748 12.883052 
L 127.922387 11.954528 
L 128.254253 11.832362 
L 128.325368 11.924226 
L 128.491302 11.802166 
L 128.799463 11.873829 
L 128.846873 11.998971 
L 129.036511 13.473785 
L 129.202445 14.359035 
L 129.320969 14.359035 
L 129.510607 12.026509 
L 129.629131 12.026509 
L 129.747655 11.718596 
L 129.795065 11.718596 
L 129.984703 10.887465 
L 130.103227 10.887465 
L 139.276981 13.649432 
L 139.395504 13.531412 
L 139.632553 9.264755 
L 139.822191 8.595023 
L 139.91701 8.230652 
L 140.106648 8.230652 
L 140.272582 8.408106 
L 140.391106 8.408106 
L 140.580744 8.900597 
L 140.746677 9.702064 
L 140.817792 9.75278 
L 140.936316 10.88098 
L 141.339297 14.77476 
L 141.528935 14.674284 
L 141.694869 14.643344 
L 141.884507 14.830261 
L 142.003032 17.797326 
L 142.287489 17.797326 
L 142.358604 17.003089 
L 142.524537 14.330647 
L 142.761585 12.381949 
L 143.069747 11.003571 
L 143.188271 10.712138 
L 143.306795 10.076748 
L 143.425319 10.076748 
L 143.591252 11.636408 
L 143.8283 11.936241 
L 144.017938 12.550684 
L 144.302396 14.928185 
L 144.610558 15.070127 
L 144.776492 14.780714 
L 144.847607 14.745415 
L 144.895016 14.544463 
L 145.203178 11.141897 
L 145.60616 10.480884 
L 145.677274 10.544572 
L 145.961731 16.200346 
L 146.080255 19.396857 
L 146.435827 19.477132 
L 146.625466 15.411 
L 146.791399 15.411 
L 147.028447 21.683346 
L 147.146971 21.683346 
L 147.265495 21.045191 
L 147.336609 21.045191 
L 147.502543 20.610328 
L 147.573657 20.610328 
L 147.621067 19.553153 
L 147.810705 12.909101 
L 148.047753 10.289501 
L 148.403325 10.380515 
L 148.450734 10.534471 
L 148.521849 11.528064 
L 148.758897 22.871724 
L 149.043354 22.871724 
L 149.161878 23.23333 
L 149.351516 25.022649 
L 149.754498 25.022649 
L 149.873022 25.782756 
L 149.991545 25.782756 
L 150.536756 12.839672 
L 150.65528 12.839672 
L 150.773804 13.599991 
L 150.821214 13.229241 
L 150.939737 13.560014 
L 151.010852 13.560014 
L 151.176785 12.885284 
L 151.295309 13.327059 
L 151.484947 13.187456 
L 151.532357 13.187456 
L 151.769405 9.71461 
L 151.887929 9.71461 
L 152.053862 11.428333 
L 152.527958 16.709211 
L 152.646482 13.999662 
L 152.765006 13.999662 
L 152.83612 14.136819 
L 153.002054 15.083843 
L 153.120578 15.083843 
L 153.357626 10.197532 
L 153.547264 10.197532 
L 153.784312 11.524343 
L 153.902836 13.666018 
L 153.950246 13.666018 
L 154.02136 13.955644 
L 154.139884 15.169433 
L 154.258408 15.169433 
L 154.732504 11.222703 
L 154.851028 7.593774 
L 154.969551 7.593774 
L 155.088076 11.209412 
L 155.443648 11.209412 
L 155.562171 21.822735 
L 155.609581 21.822735 
L 155.799219 22.260045 
L 156.083677 25.018503 
L 156.557772 25.018503 
L 156.747411 12.890281 
L 156.865935 12.890281 
L 156.913344 13.127702 
L 157.031868 14.599964 
L 157.150392 14.599964 
L 157.38744 13.351726 
L 157.505964 13.232005 
L 157.624488 12.673701 
L 158.051174 12.76599 
L 158.169698 14.829517 
L 158.52527 14.829517 
L 158.691204 17.369267 
L 158.880842 19.040674 
L 158.999366 19.040674 
L 159.236413 17.516313 
L 159.354938 17.149497 
L 159.473462 17.149497 
L 159.639395 27.607055 
L 159.757919 29.377237 
L 159.876443 29.377237 
L 160.232015 14.799321 
L 160.587586 10.256541 
L 160.777225 10.082596 
L 160.824635 10.256541 
L 161.29873 20.003327 
L 161.606893 20.67997 
L 161.962465 25.042106 
L 162.009874 25.042106 
L 162.128398 25.565005 
L 162.246922 25.565005 
L 162.43656 25.376174 
L 162.48397 25.360864 
L 162.673608 24.057444 
L 162.839542 24.057444 
L 162.958066 16.553979 
L 163.02918 16.507515 
L 163.669209 12.25957 
L 163.835143 12.335698 
L 164.072191 13.933528 
L 164.143305 13.933528 
L 164.427762 10.3954 
L 164.546287 9.967873 
L 164.735925 10.014548 
L 164.783334 10.169888 
L 165.020382 12.329637 
L 165.138906 12.792039 
L 165.565592 12.779811 
L 165.731526 13.193091 
L 165.921164 13.084215 
L 166.324146 11.420465 
L 166.44267 11.420465 
L 166.798242 12.99214 
L 167.106404 13.077836 
L 167.153814 13.228922 
L 167.343452 14.036981 
L 167.461976 14.036981 
L 167.627909 13.805621 
L 167.746433 13.89185 
L 167.936072 14.125017 
L 168.102005 14.103859 
L 168.220529 12.795229 
L 168.410167 12.865402 
L 168.457577 12.924093 
L 168.694625 14.187642 
L 168.813149 14.187642 
L 169.002787 12.862425 
L 169.121311 12.681994 
L 169.287245 12.354092 
L 169.358359 12.272329 
L 169.76134 10.570196 
L 169.998388 10.570196 
L 170.116912 11.255238 
L 170.425075 15.367195 
L 170.94658 15.367195 
L 171.065104 18.17201 
L 171.183628 18.17201 
L 171.302152 16.677208 
L 171.420676 16.677208 
L 171.539199 26.632919 
L 171.657724 26.632919 
L 172.013296 13.622957 
L 172.08441 13.332162 
L 172.202934 12.620964 
L 172.250343 12.620964 
L 172.558506 7.339873 
L 172.724439 7.339873 
L 172.914077 9.453798 
L 173.080011 10.433676 
L 173.269649 10.468656 
L 173.625221 9.257419 
L 173.67263 9.257419 
L 173.791155 9.912265 
L 174.028202 14.077278 
L 174.217841 15.92752 
L 174.383774 15.92752 
L 174.573413 15.233546 
L 174.739346 12.002799 
L 175.047509 11.39197 
L 175.213442 11.529234 
L 175.331966 11.907533 
L 175.4979 12.00365 
L 175.616423 12.213107 
L 175.734947 12.655944 
L 175.924586 12.599699 
L 176.090519 12.216934 
L 176.209043 12.128367 
L 176.398682 12.046073 
L 176.517205 12.12858 
L 176.564615 12.187271 
L 176.683139 12.509218 
L 176.920187 12.417035 
L 177.038711 12.173555 
L 177.394283 11.688719 
L 177.820969 11.672558 
L 178.650636 11.615462 
L 178.698046 11.460762 
L 178.887684 10.474717 
L 179.053618 10.209121 
L 179.290666 10.209121 
L 179.527714 10.90033 
L 179.883286 12.642335 
L 180.309972 12.336974 
L 180.712953 10.784438 
L 180.784067 10.790073 
L 180.902592 11.454488 
L 181.068525 12.5644 
L 181.187049 12.5644 
L 181.424097 11.032596 
L 181.542621 10.909155 
L 181.613736 10.696934 
L 181.732259 10.909155 
L 181.969307 10.010934 
L 182.13524 10.010934 
L 182.324879 12.514428 
L 182.443403 12.857853 
L 182.490812 12.857853 
L 182.609337 13.68505 
L 182.72786 13.68505 
L 182.964909 12.59534 
L 183.036023 12.59534 
L 183.510118 15.135303 
L 183.794576 15.272142 
L 183.9131 14.930524 
L 184.102738 14.132247 
L 184.221262 13.752991 
L 184.50572 11.60079 
L 184.742768 11.568361 
L 184.932406 11.354438 
L 184.979815 11.354438 
L 185.287978 8.506775 
L 185.335387 8.506775 
L 185.572435 11.543906 
L 185.690959 11.44343 
L 185.762073 10.868114 
L 185.928007 7.147428 
L 186.117645 7.008038 
L 186.165055 7.102347 
L 186.23617 7.147428 
L 186.591741 13.878027 
L 186.876199 15.327855 
L 187.065837 15.327855 
L 187.113246 15.247368 
L 187.27918 14.688107 
L 187.468818 14.700015 
L 187.587343 14.939243 
L 187.705866 14.939243 
L 187.753276 14.747541 
L 188.061438 12.400237 
L 188.227372 12.178126 
L 188.41701 12.481893 
L 188.582944 13.457411 
L 188.819991 14.32969 
L 189.057039 14.374984 
L 189.412611 14.368711 
L 189.602249 13.023611 
L 189.720774 12.759291 
L 189.886707 11.349547 
L 190.005231 11.349547 
L 190.360803 13.466236 
L 190.550441 13.62923 
L 190.668965 13.62923 
L 191.024537 15.276395 
L 191.071947 15.276395 
L 191.427519 14.625907 
L 191.78309 10.844936 
L 191.901614 10.844936 
L 192.020138 11.937198 
L 192.138662 13.006812 
L 192.257186 13.006812 
L 192.446824 11.476816 
L 192.565348 11.476816 
L 192.683872 12.518468 
L 192.802396 12.518468 
L 192.849806 12.644887 
L 192.92092 12.550047 
L 193.205378 12.550047 
L 193.323901 12.327511 
L 193.51354 12.433303 
L 193.56095 12.450846 
L 194.272093 25.649852 
L 194.343208 25.669628 
L 194.509141 25.928101 
L 194.935827 25.861648 
L 195.054351 24.607667 
L 195.172875 19.124882 
L 195.338809 17.954259 
L 195.457333 17.558417 
L 195.528447 17.664422 
L 195.575856 17.558417 
L 195.694381 17.456665 
L 195.812904 16.738769 
L 196.239591 16.726967 
L 196.713686 14.510865 
L 196.832211 14.57955 
L 196.998144 15.324984 
L 197.116668 16.021404 
L 197.235192 16.021404 
L 197.42483 15.609932 
L 197.827812 11.754002 
L 197.946335 11.754002 
L 198.183384 15.262573 
L 198.301907 15.262573 
L 198.420431 13.972868 
L 198.61007 13.972868 
L 198.728594 14.251011 
L 198.776003 14.252712 
L 198.894527 14.393059 
L 199.297509 14.300025 
L 199.487147 14.533937 
L 199.605671 14.298962 
L 199.724195 14.533937 
L 199.771604 14.740205 
L 199.890128 14.462701 
L 200.127176 16.071163 
L 200.601272 16.255103 
L 200.719796 16.490291 
L 200.909434 16.46456 
L 201.027958 16.038841 
L 201.265006 16.147716 
L 201.502054 16.308796 
L 201.97615 16.33038 
L 202.094674 16.488483 
L 202.497655 16.583643 
L 202.734703 16.755993 
L 202.971751 16.603525 
L 203.327323 16.501136 
L 203.516961 16.373228 
L 203.635485 16.401404 
L 203.754009 16.654029 
L 204.346629 16.654029 
L 204.512563 14.109281 
L 204.702201 13.923109 
L 204.74961 13.923109 
L 205.176296 17.100269 
L 205.34223 18.027836 
L 205.93485 17.957981 
L 206.243012 17.85591 
L 206.48006 17.789884 
L 206.645994 17.420409 
L 206.717108 17.420409 
L 206.835632 17.230196 
L 206.954155 17.548423 
L 207.07268 17.175333 
L 207.191204 16.217996 
L 207.238613 16.217996 
L 207.357137 12.62745 
L 207.357137 12.62745 
" clip-path="url(#p107c912644)" style="fill: none; stroke: #5c80b5; stroke-width: 0.5; stroke-linecap: square"/>
   </g>
   <g id="patch_3">
    <path d="M 8.503937 30.614173 
L 208.346457 30.614173 
" style="fill: none; stroke: #000000; stroke-width: 0.4; stroke-linejoin: miter; stroke-linecap: square"/>
   </g>
   <g id="patch_4">
    <path d="M 8.503937 3.401575 
L 208.346457 3.401575 
" style="fill: none; stroke: #000000; stroke-width: 0.4; stroke-linejoin: miter; stroke-linecap: square"/>
   </g>
  </g>
 </g>
 <defs>
  <clipPath id="p107c912644">
   <rect x="8.503937" y="3.401575" width="199.84252" height="27.212598"/>
  </clipPath>
 </defs>
</svg>
