<?xml version="1.0" encoding="utf-8" standalone="no"?>
<!DOCTYPE svg PUBLIC "-//W3C//DTD SVG 1.1//EN"
  "http://www.w3.org/Graphics/SVG/1.1/DTD/svg11.dtd">
<svg xmlns:xlink="http://www.w3.org/1999/xlink" width="212.598425pt" height="42.519685pt" viewBox="0 0 212.598425 42.519685" xmlns="http://www.w3.org/2000/svg" version="1.1">
 <metadata>
  <rdf:RDF xmlns:dc="http://purl.org/dc/elements/1.1/" xmlns:cc="http://creativecommons.org/ns#" xmlns:rdf="http://www.w3.org/1999/02/22-rdf-syntax-ns#">
   <cc:Work>
    <dc:type rdf:resource="http://purl.org/dc/dcmitype/StillImage"/>
    <dc:date>2026-06-01T17:59:27.777486</dc:date>
    <dc:format>image/svg+xml</dc:format>
    <dc:creator>
     <cc:Agent>
      <dc:title>Matplotlib v3.10.8, https://matplotlib.org/</dc:title>
     </cc:Agent>
    </dc:creator>
   </cc:Work>
  </rdf:RDF>
 </metadata>
 <defs>
  <style type="text/css">*{stroke-linejoin: round; stroke-linecap: butt}</style>
 </defs>
 <g id="figure_1">
  <g id="patch_1">
   <path d="M 0 42.519685 
L 212.598425 42.519685 
L 212.598425 0 
L 0 0 
z
" style="fill: #ffffff"/>
  </g>
  <g id="axes_1">
   <g id="patch_2">
    <path d="M 8.503937 30.614173 
L 208.346457 30.614173 
L 208.346457 3.401575 
L 8.503937 3.401575 
z
" style="fill: #eaeaf2"/>
   </g>
   <g id="matplotlib.axis_1">
    <g id="xtick_1">
     <g id="line2d_1">
      <path d="M 9.493256 30.614173 
L 9.493256 3.401575 
" clip-path="url(#p3214d17e4b)" style="fill: none; stroke: #ffffff; stroke-width: 0.9; stroke-linecap: square"/>
     </g>
     <g id="line2d_2">
      <defs>
       <path id="mccd25bea2b" d="M 0 0 
L 0 2 
" style="stroke: #000000; stroke-width: 0.4"/>
      </defs>
      <g>
       <use xlink:href="#mccd25bea2b" x="9.493256" y="30.614173" style="stroke: #000000; stroke-width: 0.4"/>
      </g>
     </g>
     <g id="text_1">
      <text style="font-size: 8px; font-family: 'DejaVu Sans', 'Bitstream Vera Sans', 'Computer Modern Sans Serif', 'Lucida Grande', 'Verdana', 'Geneva', 'Lucid', 'Arial', 'Helvetica', 'Avant Garde', sans-serif; text-anchor: middle" x="9.493256" y="42.192923" transform="rotate(-0 9.493256 42.192923)">0</text>
     </g>
    </g>
    <g id="xtick_2">
     <g id="line2d_3">
      <path d="M 52.119252 30.614173 
L 52.119252 3.401575 
" clip-path="url(#p3214d17e4b)" style="fill: none; stroke: #ffffff; stroke-width: 0.9; stroke-linecap: square"/>
     </g>
     <g id="line2d_4">
      <g>
       <use xlink:href="#mccd25bea2b" x="52.119252" y="30.614173" style="stroke: #000000; stroke-width: 0.4"/>
      </g>
     </g>
     <g id="text_2">
      <text style="font-size: 8px; font-family: 'DejaVu Sans', 'Bitstream Vera Sans', 'Computer Modern Sans Serif', 'Lucida Grande', 'Verdana', 'Geneva', 'Lucid', 'Arial', 'Helvetica', 'Avant Garde', sans-serif; text-anchor: middle" x="52.119252" y="42.192923" transform="rotate(-0 52.119252 42.192923)">60</text>
     </g>
    </g>
    <g id="xtick_3">
     <g id="line2d_5">
      <path d="M 94.745248 30.614173 
L 94.745248 3.401575 
" clip-path="url(#p3214d17e4b)" style="fill: none; stroke: #ffffff; stroke-width: 0.9; stroke-linecap: square"/>
     </g>
     <g id="line2d_6">
      <g>
       <use xlink:href="#mccd25bea2b" x="94.745248" y="30.614173" style="stroke: #000000; stroke-width: 0.4"/>
      </g>
     </g>
     <g id="text_3">
      <text style="font-size: 8px; font-family: 'DejaVu Sans', 'Bitstream Vera Sans', 'Computer Modern Sans Serif', 'Lucida Grande', 'Verdana', 'Geneva', 'Lucid', 'Arial', 'Helvetica', 'Avant Garde', sans-serif; text-anchor: middle" x="94.745248" y="42.192923" transform="rotate(-0 94.745248 42.192923)">120</text>
     </g>
    </g>
    <g id="xtick_4">
     <g id="line2d_7">
      <path d="M 137.371243 30.614173 
L 137.371243 3.401575 
" clip-path="url(#p3214d17e4b)" style="fill: none; stroke: #ffffff; stroke-width: 0.9; stroke-linecap: square"/>
     </g>
     <g id="line2d_8">
      <g>
       <use xlink:href="#mccd25bea2b" x="137.371243" y="30.614173" style="stroke: #000000; stroke-width: 0.4"/>
      </g>
     </g>
     <g id="text_4">
      <text style="font-size: 8px; font-family: 'DejaVu Sans', 'Bitstream Vera Sans', 'Computer Modern Sans Serif', 'Lucida Grande', 'Verdana', 'Geneva', 'Lucid', 'Arial', 'Helvetica', 'Avant Garde', sans-serif; text-anchor: middle" x="137.371243" y="42.192923" transform="rotate(-0 137.371243 42.192923)">180</text>
     </g>
    </g>
    <g id="xtick_5">
     <g id="line2d_9">
      <path d="M 179.997239 30.614173 
L 179.997239 3.401575 
" clip-path="url(#p3214d17e4b)" style="fill: none; stroke: #ffffff; stroke-width: 0.9; stroke-linecap: square"/>
     </g>
     <g id="line2d_10">
      <g>
       <use xlink:href="#mccd25bea2b" x="179.997239" y="30.614173" style="stroke: #000000; stroke-width: 0.4"/>
      </g>
     </g>
     <g id="text_5">
      <text style="font-size: 8px; font-family: 'DejaVu Sans', 'Bitstream Vera Sans', 'Computer Modern Sans Serif', 'Lucida Grande', 'Verdana', 'Geneva', 'Lucid', 'Arial', 'Helvetica', 'Avant Garde', sans-serif; text-anchor: middle" x="179.997239" y="42.192923" transform="rotate(-0 179.997239 42.192923)">240</text>
     </g>
    </g>
    <g id="xtick_6">
     <g id="line2d_11">
      <path d="M 30.806254 30.614173 
L 30.806254 3.401575 
" clip-path="url(#p3214d17e4b)" style="fill: none; stroke: #ffffff; stroke-opacity: 0.9; stroke-width: 0.55; stroke-linecap: square"/>
     </g>
     <g id="line2d_12">
      <defs>
       <path id="m60d4ca8681" d="M 0 0 
L 0 2 
" style="stroke: #000000; stroke-width: 0.6"/>
      </defs>
      <g>
       <use xlink:href="#m60d4ca8681" x="30.806254" y="30.614173" style="stroke: #000000; stroke-width: 0.6"/>
      </g>
     </g>
    </g>
    <g id="xtick_7">
     <g id="line2d_13">
      <path d="M 73.43225 30.614173 
L 73.43225 3.401575 
" clip-path="url(#p3214d17e4b)" style="fill: none; stroke: #ffffff; stroke-opacity: 0.9; stroke-width: 0.55; stroke-linecap: square"/>
     </g>
     <g id="line2d_14">
      <g>
       <use xlink:href="#m60d4ca8681" x="73.43225" y="30.614173" style="stroke: #000000; stroke-width: 0.6"/>
      </g>
     </g>
    </g>
    <g id="xtick_8">
     <g id="line2d_15">
      <path d="M 116.058246 30.614173 
L 116.058246 3.401575 
" clip-path="url(#p3214d17e4b)" style="fill: none; stroke: #ffffff; stroke-opacity: 0.9; stroke-width: 0.55; stroke-linecap: square"/>
     </g>
     <g id="line2d_16">
      <g>
       <use xlink:href="#m60d4ca8681" x="116.058246" y="30.614173" style="stroke: #000000; stroke-width: 0.6"/>
      </g>
     </g>
    </g>
    <g id="xtick_9">
     <g id="line2d_17">
      <path d="M 158.684241 30.614173 
L 158.684241 3.401575 
" clip-path="url(#p3214d17e4b)" style="fill: none; stroke: #ffffff; stroke-opacity: 0.9; stroke-width: 0.55; stroke-linecap: square"/>
     </g>
     <g id="line2d_18">
      <g>
       <use xlink:href="#m60d4ca8681" x="158.684241" y="30.614173" style="stroke: #000000; stroke-width: 0.6"/>
      </g>
     </g>
    </g>
    <g id="xtick_10">
     <g id="line2d_19">
      <path d="M 201.310237 30.614173 
L 201.310237 3.401575 
" clip-path="url(#p3214d17e4b)" style="fill: none; stroke: #ffffff; stroke-opacity: 0.9; stroke-width: 0.55; stroke-linecap: square"/>
     </g>
     <g id="line2d_20">
      <g>
       <use xlink:href="#m60d4ca8681" x="201.310237" y="30.614173" style="stroke: #000000; stroke-width: 0.6"/>
      </g>
     </g>
    </g>
    <g id="text_6">
     <text style="font-size: 8px; font-family: 'DejaVu Sans', 'Bitstream Vera Sans', 'Computer Modern Sans Serif', 'Lucida Grande', 'Verdana', 'Geneva', 'Lucid', 'Arial', 'Helvetica', 'Avant Garde', sans-serif; text-anchor: middle" x="108.425197" y="53.935423" transform="rotate(-0 108.425197 53.935423)">time</text>
    </g>
   </g>
   <g id="matplotlib.axis_2">
    <g id="ytick_1">
     <g id="line2d_21">
      <path d="M 8.503937 22.776413 
L 208.346457 22.776413 
" clip-path="url(#p3214d17e4b)" style="fill: none; stroke: #ffffff; stroke-width: 0.9; stroke-linecap: square"/>
     </g>
    </g>
    <g id="ytick_2">
     <g id="line2d_22">
      <path d="M 8.503937 13.786289 
L 208.346457 13.786289 
" clip-path="url(#p3214d17e4b)" style="fill: none; stroke: #ffffff; stroke-width: 0.9; stroke-linecap: square"/>
     </g>
    </g>
    <g id="ytick_3">
     <g id="line2d_23">
      <path d="M 8.503937 4.796166 
L 208.346457 4.796166 
" clip-path="url(#p3214d17e4b)" style="fill: none; stroke: #ffffff; stroke-width: 0.9; stroke-linecap: square"/>
     </g>
    </g>
    <g id="ytick_4">
     <g id="line2d_24">
      <path d="M 8.503937 27.271475 
L 208.346457 27.271475 
" clip-path="url(#p3214d17e4b)" style="fill: none; stroke: #ffffff; stroke-opacity: 0.9; stroke-width: 0.55; stroke-linecap: square"/>
     </g>
     <g id="line2d_25">
      <defs>
       <path id="mab51738b14" d="M 0 0 
L -2 0 
" style="stroke: #000000; stroke-width: 0.6"/>
      </defs>
      <g>
       <use xlink:href="#mab51738b14" x="8.503937" y="27.271475" style="stroke: #000000; stroke-width: 0.6"/>
      </g>
     </g>
    </g>
    <g id="ytick_5">
     <g id="line2d_26">
      <path d="M 8.503937 18.281351 
L 208.346457 18.281351 
" clip-path="url(#p3214d17e4b)" style="fill: none; stroke: #ffffff; stroke-opacity: 0.9; stroke-width: 0.55; stroke-linecap: square"/>
     </g>
     <g id="line2d_27">
      <g>
       <use xlink:href="#mab51738b14" x="8.503937" y="18.281351" style="stroke: #000000; stroke-width: 0.6"/>
      </g>
     </g>
    </g>
    <g id="ytick_6">
     <g id="line2d_28">
      <path d="M 8.503937 9.291227 
L 208.346457 9.291227 
" clip-path="url(#p3214d17e4b)" style="fill: none; stroke: #ffffff; stroke-opacity: 0.9; stroke-width: 0.55; stroke-linecap: square"/>
     </g>
     <g id="line2d_29">
      <g>
       <use xlink:href="#mab51738b14" x="8.503937" y="9.291227" style="stroke: #000000; stroke-width: 0.6"/>
      </g>
     </g>
    </g>
   </g>
   <g id="line2d_30">
    <path d="M 9.493256 12.90609 
L 9.564371 13.178451 
L 9.61178 12.977249 
L 9.730305 12.776047 
L 9.801419 12.776047 
L 9.967352 9.426537 
L 10.322924 9.419482 
L 10.559972 10.042559 
L 10.74961 10.064758 
L 10.79702 9.990636 
L 10.915544 9.553052 
L 11.034068 9.553052 
L 11.152592 9.904003 
L 11.389639 11.267455 
L 11.508164 11.479475 
L 11.626687 11.479475 
L 11.745211 10.818678 
L 11.93485 10.818678 
L 12.100783 11.088452 
L 12.290422 11.226538 
L 12.456355 13.907632 
L 12.693403 13.939708 
L 12.883041 13.496856 
L 12.930451 13.496669 
L 13.048975 13.058238 
L 13.238613 13.058238 
L 13.404547 13.643878 
L 13.641595 14.147682 
L 13.997167 14.05804 
L 14.234214 13.834545 
L 14.70831 11.145643 
L 14.945358 11.170006 
L 15.964664 11.283164 
L 16.130598 11.500169 
L 16.249122 11.705133 
L 16.557284 12.846595 
L 16.841741 10.547399 
L 16.912856 10.547399 
L 17.078789 10.815668 
L 17.315837 11.139529 
L 17.505475 11.074155 
L 17.624 10.866181 
L 18.216619 10.964006 
L 18.572191 11.049887 
L 18.975173 10.804098 
L 19.093696 10.531972 
L 19.330744 10.564518 
L 19.638906 13.208457 
L 19.80484 14.120969 
L 20.113002 16.397214 
L 20.160412 16.397214 
L 20.39746 14.097358 
L 20.634507 13.712074 
L 20.990079 13.638893 
L 21.227127 13.660621 
L 21.393061 13.744714 
L 21.511585 13.744714 
L 21.748633 11.588306 
L 21.98568 7.15697 
L 22.104205 7.15697 
L 22.341252 9.434438 
L 22.696824 9.47291 
L 22.933872 10.003805 
L 23.12351 10.703356 
L 23.289444 10.796855 
L 23.526492 10.201809 
L 23.645016 10.201809 
L 23.834654 10.749823 
L 24.000588 10.851601 
L 24.35616 10.87474 
L 24.427274 10.788484 
L 24.593208 10.153084 
L 24.782846 10.079526 
L 24.830255 10.079526 
L 24.94878 10.693291 
L 25.185827 10.698464 
L 25.304351 10.203408 
L 25.541399 10.263985 
L 25.659923 10.580885 
L 25.896971 12.246375 
L 26.08661 12.377688 
L 26.205133 12.664206 
L 26.560705 12.664206 
L 26.845163 13.858437 
L 26.963686 13.858437 
L 27.153325 12.629214 
L 27.319258 11.802866 
L 27.556306 7.98078 
L 27.627421 7.9139 
L 27.793354 7.589381 
L 27.864469 7.589381 
L 27.982992 7.249811 
L 28.101516 7.249811 
L 28.504498 8.967789 
L 28.623022 9.001181 
L 28.978594 12.144128 
L 29.097117 12.144128 
L 29.168232 11.914613 
L 29.215642 12.076402 
L 29.926785 12.09164 
L 30.163833 13.109409 
L 30.353472 13.242885 
L 30.519405 13.155688 
L 30.709044 13.086457 
L 30.874977 13.155688 
L 30.993501 13.142989 
L 31.183139 10.237365 
L 31.230548 10.237365 
L 31.420187 10.865052 
L 31.58612 11.839456 
L 31.775759 11.839456 
L 31.941692 12.388788 
L 32.17874 12.926267 
L 32.534312 16.32168 
L 32.605426 16.331181 
L 32.77136 16.722862 
L 32.889884 16.722862 
L 32.960998 16.43578 
L 33.198046 13.839812 
L 33.292865 13.568157 
L 33.766961 11.967382 
L 33.9566 11.71849 
L 34.241057 11.796939 
L 34.478105 11.816411 
L 34.549219 11.835317 
L 34.715153 12.192195 
L 34.904791 12.192195 
L 35.141839 11.725733 
L 35.307773 11.66732 
L 35.852982 11.83654 
L 36.255964 18.254969 
L 36.564126 25.804608 
L 36.611536 25.804608 
L 36.967108 23.295743 
L 37.085632 22.350122 
L 37.32268 14.662869 
L 37.512318 14.662869 
L 37.559727 14.377668 
L 37.678252 14.721847 
L 37.749366 14.721847 
L 37.915299 14.041015 
L 37.986414 13.999344 
L 38.152347 13.402135 
L 38.341985 12.821292 
L 38.507919 12.760056 
L 38.697557 12.859858 
L 38.863491 13.150138 
L 39.100539 13.182026 
L 39.290177 12.819599 
L 39.456111 12.760056 
L 39.693158 12.781597 
L 40.04873 12.544275 
L 40.285778 12.848194 
L 40.404302 13.00735 
L 40.522827 14.488193 
L 40.64135 14.488193 
L 40.949513 12.39556 
L 41.115446 12.39556 
L 41.305085 13.412858 
L 41.352494 13.490366 
L 41.542132 14.016652 
L 41.77918 14.272317 
L 41.897704 14.272317 
L 41.945114 14.149094 
L 42.063638 13.501278 
L 42.300686 13.57286 
L 42.490324 14.63211 
L 42.727372 14.866046 
L 42.845896 15.612441 
L 42.893305 15.653076 
L 42.964419 15.875913 
L 43.130353 15.605668 
L 43.201468 15.379728 
L 43.367401 14.759378 
L 43.675563 14.637566 
L 43.841497 14.359326 
L 44.268183 14.209482 
L 44.434117 13.689028 
L 44.742279 13.529967 
L 44.789689 13.529967 
L 44.979327 13.384074 
L 45.074146 13.268752 
L 45.311194 12.189467 
L 45.429718 12.189467 
L 45.500832 12.48097 
L 45.666765 13.428002 
L 45.78529 13.428002 
L 45.903814 12.713119 
L 46.022337 12.713119 
L 46.211976 13.478985 
L 46.259385 13.812534 
L 46.449024 17.234379 
L 46.567548 17.412536 
L 46.733481 17.412536 
L 47.089053 12.891275 
L 47.207577 12.908113 
L 47.871311 15.569642 
L 47.918721 15.645645 
L 47.989835 15.973175 
L 48.037245 16.855021 
L 48.155768 20.711252 
L 48.274293 20.711252 
L 48.582455 18.693964 
L 48.629865 18.693964 
L 48.819503 17.328913 
L 48.985436 17.225443 
L 49.341008 17.163455 
L 49.578056 14.654215 
L 49.64917 14.654215 
L 49.767695 15.272119 
L 49.886218 15.32376 
L 49.933628 15.430428 
L 50.004742 15.32376 
L 50.123266 15.272119 
L 50.289199 15.154445 
L 50.478838 15.191412 
L 50.763296 17.278025 
L 50.881819 17.510832 
L 51.071458 19.476103 
L 51.118868 19.580702 
L 51.237391 20.10473 
L 51.355915 20.10473 
L 51.474439 17.531526 
L 51.545554 17.531526 
L 51.664078 17.068545 
L 51.782601 18.157426 
L 51.901126 18.981047 
L 51.948535 18.981047 
L 52.185583 22.940841 
L 52.422631 22.862486 
L 52.612269 22.797958 
L 52.896727 23.073941 
L 53.204889 23.137904 
L 53.370822 23.706519 
L 53.56046 23.879784 
L 53.844918 23.106864 
L 53.916032 23.106864 
L 54.20049 23.638229 
L 54.390129 23.638229 
L 54.627176 22.330745 
L 54.911633 19.063916 
L 54.982748 18.903726 
L 55.148682 15.589207 
L 55.267205 15.589207 
L 55.33832 15.261207 
L 55.38573 15.4166 
L 55.456844 15.276728 
L 55.504253 15.4166 
L 55.622777 15.365806 
L 55.812416 14.966506 
L 55.978349 13.321804 
L 56.049463 13.270069 
L 56.215397 8.908811 
L 56.333921 8.908811 
L 56.570969 11.325493 
L 56.689493 11.325493 
L 56.926541 12.278545 
L 57.092475 12.249009 
L 57.210998 11.383624 
L 57.400636 11.386352 
L 57.56657 11.636279 
L 57.922142 11.856482 
L 58.040666 11.573256 
L 58.514762 10.244514 
L 58.870334 5.907806 
L 59.344429 5.947031 
L 59.462953 6.008454 
L 59.534067 5.947031 
L 59.581478 5.713189 
L 59.652592 5.911098 
L 59.700001 5.911098 
L 59.818525 5.476995 
L 59.937049 5.517631 
L 60.126687 5.928312 
L 60.363736 6.945327 
L 60.529669 7.185848 
L 60.648193 8.282818 
L 60.885241 11.49904 
L 60.956355 11.841055 
L 61.074879 11.507882 
L 61.359337 11.572315 
L 61.667499 13.717248 
L 61.833432 13.819495 
L 61.904547 13.819495 
L 61.951956 13.413516 
L 62.141595 10.068615 
L 62.260119 9.938148 
L 62.426052 9.98123 
L 62.781624 14.392718 
L 63.25572 14.490827 
L 63.84834 14.505124 
L 64.203912 14.403536 
L 64.39355 14.35434 
L 64.630598 9.989601 
L 65.033579 10.032682 
L 65.270627 9.642789 
L 65.744723 9.597074 
L 66.408457 8.042297 
L 66.57439 7.940238 
L 66.692914 7.738754 
L 66.882553 7.629828 
L 66.929962 7.629828 
L 67.285534 9.627175 
L 67.404058 12.294347 
L 67.522582 12.294347 
L 67.71222 11.377322 
L 67.878154 11.463766 
L 67.996677 12.125598 
L 68.115202 12.125598 
L 68.233726 11.943303 
L 68.470774 10.286467 
L 68.589297 10.286467 
L 68.873755 10.662626 
L 69.466375 10.748883 
L 69.703422 11.220329 
L 70.130109 11.361707 
L 70.296042 11.066912 
L 71.0783 10.689623 
L 71.552396 10.833258 
L 72.073902 11.226162 
L 72.145016 11.226162 
L 72.26354 10.996646 
L 72.382064 10.996646 
L 72.500588 11.302353 
L 73.259141 11.225503 
L 74.088809 10.889037 
L 74.752543 11.071239 
L 74.989591 11.042173 
L 75.748144 11.323611 
L 75.937783 11.259366 
L 77.407479 11.160976 
L 77.597117 10.883582 
L 77.715642 10.860725 
L 77.881575 10.650398 
L 78.000099 10.650398 
L 78.355671 9.956868 
L 78.474195 10.217235 
L 78.711243 10.597064 
L 79.256453 10.660745 
L 79.422387 10.716525 
L 79.493501 10.716525 
L 79.777958 9.961665 
L 79.849073 9.961665 
L 80.015006 10.761111 
L 80.13353 10.761111 
L 80.489102 10.021207 
L 80.560217 10.021207 
L 80.77356 8.856605 
L 80.892083 8.065718 
L 81.31877 7.882201 
L 81.366179 7.729629 
L 81.555818 7.906281 
L 81.792865 6.653918 
L 82.077323 5.608684 
L 82.314371 5.553092 
L 82.906991 5.905925 
L 83.381086 5.777527 
L 83.618134 5.684781 
L 83.689249 5.684781 
L 83.855182 6.255935 
L 84.210754 6.302121 
L 84.447802 6.432588 
L 84.63744 6.354326 
L 84.803374 6.183506 
L 85.82268 6.072135 
L 85.988613 5.970359 
L 86.178252 5.953239 
L 86.462709 5.020975 
L 86.533824 5.020975 
L 86.699757 5.303071 
L 86.889395 5.373807 
L 86.936805 5.499005 
L 87.007919 5.303071 
L 87.173853 5.560335 
L 87.482015 5.597021 
L 87.837587 6.325918 
L 88.074635 6.246341 
L 88.240568 6.197333 
L 88.430207 6.130924 
L 88.59614 6.060094 
L 88.667255 6.060094 
L 88.833188 6.360534 
L 89.378398 6.41622 
L 89.544331 6.650532 
L 89.78138 6.649215 
L 89.971018 6.274371 
L 90.136951 6.274371 
L 90.255475 6.346894 
L 90.611047 6.080319 
L 90.729571 6.096874 
L 90.966619 6.291774 
L 91.274781 6.214735 
L 91.393305 6.471247 
L 91.511829 6.471247 
L 91.796287 5.708203 
L 93.69267 5.761537 
L 94.214175 6.538784 
L 95.826101 6.560043 
L 95.944625 8.935995 
L 96.110558 12.114592 
L 96.229082 12.114592 
L 96.347607 11.77982 
L 96.46613 10.471489 
L 96.584654 10.471489 
L 96.774293 12.428482 
L 96.821702 12.464226 
L 96.892816 12.774354 
L 97.01134 12.428482 
L 97.05875 12.428482 
L 97.532846 10.723768 
L 97.60396 10.68887 
L 97.722484 10.380436 
L 97.888418 10.444493 
L 98.006941 10.54166 
L 98.24399 10.926099 
L 98.433628 10.921584 
L 98.552152 10.731011 
L 99.073657 10.737689 
L 99.310705 10.282704 
L 99.429229 10.282704 
L 99.618868 11.542121 
L 99.784801 11.480698 
L 100.140372 10.855834 
L 100.258897 10.855834 
L 100.448535 11.314957 
L 100.495944 11.330008 
L 100.732992 14.631546 
L 100.851516 14.631546 
L 101.088564 13.815826 
L 101.325612 14.543126 
L 101.444136 14.543126 
L 101.681184 14.092373 
L 101.918232 14.175902 
L 102.15528 14.909221 
L 102.344918 16.657581 
L 102.463442 16.657581 
L 102.629375 16.250756 
L 102.866424 16.194507 
L 102.937538 16.164124 
L 103.056062 15.085308 
L 103.174586 14.700777 
L 103.340519 14.725703 
L 103.577567 14.993408 
L 104.33612 15.000839 
L 104.407235 15.116161 
L 104.525759 16.993765 
L 104.881331 17.665661 
L 104.999855 17.594643 
L 105.047264 17.554102 
L 105.355426 14.674721 
L 105.47395 14.674721 
L 105.639884 13.437408 
L 105.758408 13.378148 
L 105.829522 13.2062 
L 106.113979 10.895434 
L 106.303618 8.062239 
L 106.825123 14.184744 
L 107.014762 17.166371 
L 107.133286 17.833564 
L 107.251809 17.833564 
L 107.299219 17.48139 
L 107.417743 15.036019 
L 107.654791 14.667572 
L 107.844429 13.439854 
L 107.891839 13.403828 
L 107.962953 12.944139 
L 108.200001 9.104463 
L 108.318525 9.104463 
L 108.437049 8.803553 
L 108.484459 8.987072 
L 108.602982 9.225429 
L 108.721507 10.143019 
L 108.840031 10.895999 
L 108.958554 10.895999 
L 109.503765 8.130152 
L 109.788222 8.210953 
L 109.906746 7.781082 
L 109.97786 7.772334 
L 110.214909 6.682231 
L 110.61789 6.741021 
L 110.736414 7.042213 
L 110.926052 7.589098 
L 111.1631 7.854076 
L 111.281624 8.06111 
L 111.447557 8.055654 
L 112.040177 5.501264 
L 112.158701 5.501264 
L 112.277225 4.638511 
L 112.395749 4.638511 
L 112.585387 5.385282 
L 112.632797 6.014285 
L 112.751321 9.533675 
L 112.822435 9.533675 
L 112.988369 10.869472 
L 113.106893 10.869472 
L 113.178007 11.2715 
L 113.343941 13.792405 
L 113.533579 13.863328 
L 113.580988 13.713109 
L 113.699513 12.322285 
L 113.889151 12.322285 
L 114.007674 12.799375 
L 114.173608 14.095477 
L 114.363246 14.591757 
L 114.481771 14.643962 
L 114.766228 14.215973 
L 115.003276 13.554141 
L 115.1218 13.379653 
L 115.192914 13.262074 
L 115.477372 11.305363 
L 115.714419 14.371178 
L 115.951468 14.284639 
L 116.141106 10.918855 
L 116.235925 10.85414 
L 116.425563 11.151945 
L 116.662611 11.722723 
L 116.899659 11.722723 
L 117.018183 11.549176 
L 117.184117 11.80898 
L 117.373755 13.755814 
L 117.492279 13.755814 
L 117.658212 12.85365 
L 117.966375 12.909806 
L 118.084899 13.219651 
L 118.203422 13.219651 
L 118.321947 11.54024 
L 118.44047 11.54024 
L 118.606404 13.382757 
L 118.724928 13.382757 
L 119.151614 10.311958 
L 119.317548 10.311958 
L 119.507186 11.556137 
L 119.67312 13.017603 
L 119.910167 14.722411 
L 119.981282 14.727585 
L 120.147215 15.198091 
L 120.265739 15.273906 
L 120.384263 15.217374 
L 120.621311 15.273059 
L 120.739835 15.273059 
L 120.929473 14.192363 
L 121.166521 14.24692 
L 121.332455 14.966224 
L 121.569503 15.129518 
L 122.114713 16.839406 
L 122.280646 22.008012 
L 122.39917 22.008012 
L 122.707333 14.995478 
L 122.873266 14.176654 
L 122.99179 13.182966 
L 123.110314 13.182966 
L 123.228838 13.52564 
L 123.418476 13.471553 
L 123.537 13.214289 
L 123.702934 13.214289 
L 123.892572 13.392822 
L 124.12962 13.411635 
L 124.295554 14.115325 
L 124.485192 14.245415 
L 124.532601 14.245415 
L 124.840764 13.163307 
L 125.006697 13.766913 
L 125.125221 13.855333 
L 125.480793 14.145519 
L 125.836365 14.159817 
L 126.026003 13.929173 
L 126.263051 13.545675 
L 126.381575 13.545675 
L 126.500099 14.078546 
L 126.784557 14.096418 
L 126.855671 13.855803 
L 126.974195 12.944327 
L 127.092718 12.944327 
L 127.329767 14.194808 
L 127.566815 14.81591 
L 127.614224 14.81591 
L 127.732748 14.359137 
L 127.922387 13.276277 
L 128.372777 12.720738 
L 128.965397 10.95761 
L 129.083921 10.95761 
L 129.392083 10.45738 
L 129.510607 10.45738 
L 129.676541 14.757873 
L 129.795065 16.986616 
L 129.913589 16.986616 
L 130.032113 16.613654 
L 130.103227 16.613654 
L 139.276981 16.220656 
L 139.395504 16.767354 
L 139.514029 16.767354 
L 139.703667 14.839426 
L 139.91701 14.180699 
L 140.106648 14.180699 
L 140.272582 14.332706 
L 140.391106 14.332706 
L 140.580744 13.699658 
L 141.102249 13.598257 
L 141.220774 14.076382 
L 141.410412 15.070258 
L 141.765984 15.926331 
L 141.931917 17.402095 
L 142.121555 23.323209 
L 142.287489 23.323209 
L 142.477127 19.152054 
L 142.524537 18.844748 
L 142.714175 16.703861 
L 143.23568 15.394684 
L 143.709777 16.140232 
L 143.946824 16.102324 
L 144.183872 16.387525 
L 144.42092 17.975224 
L 144.610558 17.975224 
L 144.776492 17.590128 
L 144.847607 17.579028 
L 145.084654 16.014657 
L 145.250588 15.130083 
L 145.369111 15.130083 
L 145.60616 15.585821 
L 145.724683 15.70895 
L 146.032846 21.57579 
L 146.19878 24.812895 
L 146.317303 24.812895 
L 146.554351 19.46679 
L 146.791399 19.516926 
L 147.218085 25.706781 
L 147.336609 25.706781 
L 147.455133 25.506896 
L 147.502543 25.506896 
L 148.047753 14.889092 
L 148.332211 14.94901 
L 148.403325 15.017582 
L 148.521849 16.712138 
L 148.569258 17.907499 
L 148.687782 23.262726 
L 148.92483 23.355756 
L 149.114469 24.153698 
L 149.280402 24.891908 
L 149.470041 25.370786 
L 149.588564 24.891908 
L 149.707088 25.666709 
L 149.825612 26.100155 
L 150.06266 26.100155 
L 150.181184 24.676596 
L 150.347117 15.671983 
L 150.65528 13.945352 
L 150.773804 14.337691 
L 150.892328 13.945352 
L 151.129375 15.637462 
L 151.532357 16.720228 
L 151.603472 16.720228 
L 151.816815 15.261396 
L 151.887929 15.23882 
L 151.935338 15.09114 
L 152.172387 15.83349 
L 152.29091 19.930618 
L 152.409434 23.681875 
L 152.527958 23.681875 
L 152.646482 20.392847 
L 152.765006 20.392847 
L 152.88353 21.256068 
L 153.073168 21.256068 
L 153.239102 14.414541 
L 153.594674 14.52469 
L 153.713198 14.605114 
L 153.784312 14.769349 
L 153.950246 19.984141 
L 154.06877 19.984141 
L 154.258408 19.627828 
L 154.424341 17.01333 
L 154.542865 16.607069 
L 154.898437 12.924197 
L 154.969551 12.924197 
L 155.206599 24.000844 
L 155.325123 26.513659 
L 155.443648 26.513659 
L 155.728105 22.880077 
L 155.846629 23.807919 
L 155.965152 25.934133 
L 156.083677 27.797815 
L 156.202201 27.797815 
L 156.391839 25.97251 
L 156.865935 15.681578 
L 156.913344 15.681578 
L 157.102982 16.459766 
L 157.268916 16.452711 
L 157.458554 16.214542 
L 157.743012 16.189897 
L 157.861536 16.374638 
L 157.98006 17.648071 
L 158.169698 19.923563 
L 158.335632 23.097834 
L 158.52527 23.097834 
L 158.691204 21.507124 
L 158.880842 21.111492 
L 158.999366 21.111492 
L 159.236413 19.499337 
L 159.354938 19.525674 
L 159.402347 19.843704 
L 159.71051 29.377237 
L 159.829033 29.377237 
L 159.947557 26.941742 
L 160.232015 16.789082 
L 160.658701 12.885725 
L 160.706111 12.824772 
L 160.895749 12.038682 
L 161.014273 12.012533 
L 161.132797 11.883007 
L 161.369845 11.883007 
L 161.535778 12.559701 
L 161.654302 12.641536 
L 161.89135 18.923291 
L 162.128398 24.127171 
L 162.246922 24.850051 
L 162.365446 24.850051 
L 162.602494 24.052955 
L 162.721018 22.877348 
L 163.195114 18.281213 
L 163.432161 16.041183 
L 163.598095 13.087586 
L 163.716619 13.087586 
L 163.953667 15.231483 
L 164.024781 15.231483 
L 164.143305 14.938851 
L 164.309239 14.858991 
L 164.427762 14.597118 
L 164.546287 14.597118 
L 164.664811 14.968387 
L 165.020382 14.978076 
L 165.210021 15.111928 
L 165.257431 15.111928 
L 165.375954 14.909974 
L 165.731526 14.80293 
L 165.968574 13.994735 
L 166.205622 14.080145 
L 166.44267 14.166119 
L 166.561194 14.277208 
L 166.679718 15.207873 
L 166.98788 15.221889 
L 167.272337 16.639709 
L 167.390862 16.629268 
L 167.5805 16.384609 
L 167.627909 16.407278 
L 167.746433 16.749952 
L 167.936072 17.625496 
L 168.054595 17.625496 
L 168.102005 17.506129 
L 168.220529 15.752125 
L 168.339053 15.752125 
L 168.576101 17.167594 
L 168.694625 17.445082 
L 168.765739 17.445082 
L 169.287245 14.837545 
L 169.405768 14.361583 
L 169.476883 14.429873 
L 169.642816 14.740095 
L 169.713931 14.740095 
L 169.832455 15.100547 
L 170.116912 15.349533 
L 170.188026 15.496366 
L 170.35396 17.147276 
L 170.472484 18.629154 
L 170.543598 18.629154 
L 170.828056 23.596276 
L 171.065104 22.497708 
L 171.136218 22.488584 
L 171.254742 21.874254 
L 171.302152 21.874254 
L 171.420676 22.472781 
L 171.539199 25.506331 
L 171.657724 25.506331 
L 172.013296 15.420645 
L 172.202934 14.231399 
L 172.250343 14.231399 
L 172.439982 12.843491 
L 172.605915 12.758175 
L 172.795554 12.667121 
L 173.032601 12.742843 
L 173.151126 12.931534 
L 173.269649 12.742843 
L 173.67263 14.052584 
L 173.743745 14.052584 
L 173.862269 14.689018 
L 174.028202 17.912672 
L 174.26525 18.132781 
L 174.454889 17.809484 
L 174.573413 17.455805 
L 174.81046 14.9064 
L 174.85787 14.9064 
L 175.047509 15.123686 
L 175.213442 15.123686 
L 175.45049 14.795781 
L 175.734947 14.866046 
L 176.04311 14.991715 
L 176.280158 14.887211 
L 176.517205 14.469286 
L 176.683139 14.469286 
L 176.801663 15.25547 
L 176.991302 15.155386 
L 177.157235 15.089165 
L 177.346873 14.899627 
L 177.939493 14.781201 
L 178.176541 14.867175 
L 178.413589 14.906682 
L 178.579522 14.866516 
L 178.81657 14.228295 
L 179.646238 14.216725 
L 179.835876 14.84253 
L 180.001809 14.851749 
L 180.191448 14.713005 
L 180.309972 14.610852 
L 180.428496 14.31013 
L 180.54702 14.31013 
L 180.665544 14.455929 
L 181.021116 14.382465 
L 181.187049 14.989834 
L 181.542621 14.938193 
L 181.661145 14.876864 
L 181.898193 13.402887 
L 181.969307 13.402887 
L 182.087831 13.620927 
L 182.13524 13.620927 
L 182.253765 14.868868 
L 182.372289 14.868868 
L 182.609337 13.318324 
L 182.846384 13.291798 
L 183.154547 13.022023 
L 183.27307 13.114958 
L 183.557528 14.677354 
L 183.676052 14.746491 
L 183.794576 15.013632 
L 183.9131 15.013632 
L 184.031624 14.476153 
L 184.150148 14.476153 
L 184.339786 16.066486 
L 184.50572 15.974774 
L 184.742768 14.860685 
L 185.05093 14.806974 
L 185.216863 13.503723 
L 185.335387 13.503723 
L 185.572435 14.043554 
L 185.690959 14.043554 
L 185.809483 13.378337 
L 185.999121 11.960892 
L 186.283579 11.911791 
L 186.473217 12.188526 
L 186.876199 16.332874 
L 186.994723 16.959243 
L 187.113246 16.959243 
L 187.27918 15.238068 
L 187.468818 15.238068 
L 187.587343 16.339834 
L 187.705866 16.379906 
L 187.82439 16.952941 
L 187.942914 16.952941 
L 188.061438 16.516016 
L 188.345896 16.587222 
L 188.535534 16.63717 
L 188.701467 16.587222 
L 188.891106 15.360821 
L 189.128154 15.375777 
L 189.365202 16.857372 
L 189.531135 16.857372 
L 189.839297 14.868586 
L 189.957821 14.79738 
L 190.076346 14.486594 
L 190.194869 14.486594 
L 190.360803 16.837713 
L 190.479327 16.837713 
L 190.59785 16.440671 
L 190.787489 16.445374 
L 191.143061 15.40456 
L 191.261585 15.303912 
L 191.308994 15.40456 
L 191.427519 16.103359 
L 191.546042 15.755982 
L 191.617157 15.755982 
L 191.78309 14.927752 
L 191.972728 14.81243 
L 192.257186 15.801415 
L 192.37571 15.707539 
L 192.731281 14.435423 
L 192.96833 14.261782 
L 193.442425 13.935945 
L 193.56095 14.309754 
L 193.750588 17.702722 
L 193.797997 17.796785 
L 193.916521 20.113572 
L 194.10616 24.721465 
L 194.153569 24.783641 
L 194.272093 25.15237 
L 194.343208 25.157073 
L 194.509141 25.404743 
L 194.627665 25.4181 
L 194.864713 25.810909 
L 194.983237 25.810909 
L 195.054351 25.529096 
L 195.220284 20.775592 
L 195.528447 20.20773 
L 195.646971 19.862516 
L 195.694381 19.862516 
L 195.931428 20.593954 
L 196.002542 20.593954 
L 196.476639 16.444245 
L 196.761096 16.485351 
L 196.87962 16.714866 
L 196.998144 17.567647 
L 197.116668 17.567647 
L 197.306306 16.551007 
L 197.353716 16.551007 
L 197.898926 14.129434 
L 198.064859 11.589999 
L 198.254498 11.589999 
L 198.301907 11.741441 
L 198.657479 14.14138 
L 198.776003 13.925316 
L 198.847117 13.925316 
L 198.965642 14.889562 
L 199.131575 15.654205 
L 199.178985 15.655334 
L 199.297509 16.005439 
L 199.416032 16.056327 
L 199.890128 17.768849 
L 199.961243 17.768849 
L 200.19829 18.393525 
L 200.719796 19.199839 
L 200.956844 19.009736 
L 201.075368 18.388916 
L 201.786511 18.49803 
L 201.97615 18.740432 
L 202.094674 18.740432 
L 202.260607 18.330503 
L 202.450246 18.181788 
L 202.853227 18.605639 
L 202.924341 18.605639 
L 203.042865 18.758398 
L 203.208799 18.387129 
L 203.279913 18.764511 
L 203.445847 18.232112 
L 203.682894 18.657562 
L 203.872533 20.349483 
L 204.156991 20.349483 
L 204.346629 19.124117 
L 204.512563 15.396847 
L 204.631086 15.396847 
L 204.74961 15.553745 
L 205.057772 19.803068 
L 205.223706 19.803068 
L 205.413344 19.154123 
L 205.531868 19.194194 
L 205.697802 19.6251 
L 205.816325 20.536482 
L 206.053374 20.450884 
L 206.243012 20.081966 
L 206.835632 20.185248 
L 206.883041 20.22419 
L 207.001565 20.959485 
L 207.07268 20.93945 
L 207.238613 20.93945 
L 207.357137 17.082373 
L 207.357137 17.082373 
" clip-path="url(#p3214d17e4b)" style="fill: none; stroke: #5c80b5; stroke-width: 0.5; stroke-linecap: square"/>
   </g>
   <g id="patch_3">
    <path d="M 8.503937 30.614173 
L 208.346457 30.614173 
" style="fill: none; stroke: #000000; stroke-width: 0.4; stroke-linejoin: miter; stroke-linecap: square"/>
   </g>
   <g id="patch_4">
    <path d="M 8.503937 3.401575 
L 208.346457 3.401575 
" style="fill: none; stroke: #000000; stroke-width: 0.4; stroke-linejoin: miter; stroke-linecap: square"/>
   </g>
  </g>
 </g>
 <defs>
  <clipPath id="p3214d17e4b">
   <rect x="8.503937" y="3.401575" width="199.84252" height="27.212598"/>
  </clipPath>
 </defs>
</svg>
