<?xml version="1.0" encoding="utf-8" standalone="no"?>
<!DOCTYPE svg PUBLIC "-//W3C//DTD SVG 1.1//EN"
  "http://www.w3.org/Graphics/SVG/1.1/DTD/svg11.dtd">
<svg xmlns:xlink="http://www.w3.org/1999/xlink" width="212.598425pt" height="42.519685pt" viewBox="0 0 212.598425 42.519685" xmlns="http://www.w3.org/2000/svg" version="1.1">
 <metadata>
  <rdf:RDF xmlns:dc="http://purl.org/dc/elements/1.1/" xmlns:cc="http://creativecommons.org/ns#" xmlns:rdf="http://www.w3.org/1999/02/22-rdf-syntax-ns#">
   <cc:Work>
    <dc:type rdf:resource="http://purl.org/dc/dcmitype/StillImage"/>
    <dc:date>2026-06-01T17:59:28.634221</dc:date>
    <dc:format>image/svg+xml</dc:format>
    <dc:creator>
     <cc:Agent>
      <dc:title>Matplotlib v3.10.8, https://matplotlib.org/</dc:title>
     </cc:Agent>
    </dc:creator>
   </cc:Work>
  </rdf:RDF>
 </metadata>
 <defs>
  <style type="text/css">*{stroke-linejoin: round; stroke-linecap: butt}</style>
 </defs>
 <g id="figure_1">
  <g id="patch_1">
   <path d="M 0 42.519685 
L 212.598425 42.519685 
L 212.598425 0 
L 0 0 
z
" style="fill: #ffffff"/>
  </g>
  <g id="axes_1">
   <g id="patch_2">
    <path d="M 8.503937 30.614173 
L 208.346457 30.614173 
L 208.346457 3.401575 
L 8.503937 3.401575 
z
" style="fill: #eaeaf2"/>
   </g>
   <g id="matplotlib.axis_1">
    <g id="xtick_1">
     <g id="line2d_1">
      <path d="M 9.493256 30.614173 
L 9.493256 3.401575 
" clip-path="url(#p9c9f214c6e)" style="fill: none; stroke: #ffffff; stroke-width: 0.9; stroke-linecap: square"/>
     </g>
     <g id="line2d_2">
      <defs>
       <path id="mada2c52e71" d="M 0 0 
L 0 2 
" style="stroke: #000000; stroke-width: 0.4"/>
      </defs>
      <g>
       <use xlink:href="#mada2c52e71" x="9.493256" y="30.614173" style="stroke: #000000; stroke-width: 0.4"/>
      </g>
     </g>
     <g id="text_1">
      <text style="font-size: 8px; font-family: 'DejaVu Sans', 'Bitstream Vera Sans', 'Computer Modern Sans Serif', 'Lucida Grande', 'Verdana', 'Geneva', 'Lucid', 'Arial', 'Helvetica', 'Avant Garde', sans-serif; text-anchor: middle" x="9.493256" y="42.192923" transform="rotate(-0 9.493256 42.192923)">0</text>
     </g>
    </g>
    <g id="xtick_2">
     <g id="line2d_3">
      <path d="M 52.119252 30.614173 
L 52.119252 3.401575 
" clip-path="url(#p9c9f214c6e)" style="fill: none; stroke: #ffffff; stroke-width: 0.9; stroke-linecap: square"/>
     </g>
     <g id="line2d_4">
      <g>
       <use xlink:href="#mada2c52e71" x="52.119252" y="30.614173" style="stroke: #000000; stroke-width: 0.4"/>
      </g>
     </g>
     <g id="text_2">
      <text style="font-size: 8px; font-family: 'DejaVu Sans', 'Bitstream Vera Sans', 'Computer Modern Sans Serif', 'Lucida Grande', 'Verdana', 'Geneva', 'Lucid', 'Arial', 'Helvetica', 'Avant Garde', sans-serif; text-anchor: middle" x="52.119252" y="42.192923" transform="rotate(-0 52.119252 42.192923)">60</text>
     </g>
    </g>
    <g id="xtick_3">
     <g id="line2d_5">
      <path d="M 94.745248 30.614173 
L 94.745248 3.401575 
" clip-path="url(#p9c9f214c6e)" style="fill: none; stroke: #ffffff; stroke-width: 0.9; stroke-linecap: square"/>
     </g>
     <g id="line2d_6">
      <g>
       <use xlink:href="#mada2c52e71" x="94.745248" y="30.614173" style="stroke: #000000; stroke-width: 0.4"/>
      </g>
     </g>
     <g id="text_3">
      <text style="font-size: 8px; font-family: 'DejaVu Sans', 'Bitstream Vera Sans', 'Computer Modern Sans Serif', 'Lucida Grande', 'Verdana', 'Geneva', 'Lucid', 'Arial', 'Helvetica', 'Avant Garde', sans-serif; text-anchor: middle" x="94.745248" y="42.192923" transform="rotate(-0 94.745248 42.192923)">120</text>
     </g>
    </g>
    <g id="xtick_4">
     <g id="line2d_7">
      <path d="M 137.371243 30.614173 
L 137.371243 3.401575 
" clip-path="url(#p9c9f214c6e)" style="fill: none; stroke: #ffffff; stroke-width: 0.9; stroke-linecap: square"/>
     </g>
     <g id="line2d_8">
      <g>
       <use xlink:href="#mada2c52e71" x="137.371243" y="30.614173" style="stroke: #000000; stroke-width: 0.4"/>
      </g>
     </g>
     <g id="text_4">
      <text style="font-size: 8px; font-family: 'DejaVu Sans', 'Bitstream Vera Sans', 'Computer Modern Sans Serif', 'Lucida Grande', 'Verdana', 'Geneva', 'Lucid', 'Arial', 'Helvetica', 'Avant Garde', sans-serif; text-anchor: middle" x="137.371243" y="42.192923" transform="rotate(-0 137.371243 42.192923)">180</text>
     </g>
    </g>
    <g id="xtick_5">
     <g id="line2d_9">
      <path d="M 179.997239 30.614173 
L 179.997239 3.401575 
" clip-path="url(#p9c9f214c6e)" style="fill: none; stroke: #ffffff; stroke-width: 0.9; stroke-linecap: square"/>
     </g>
     <g id="line2d_10">
      <g>
       <use xlink:href="#mada2c52e71" x="179.997239" y="30.614173" style="stroke: #000000; stroke-width: 0.4"/>
      </g>
     </g>
     <g id="text_5">
      <text style="font-size: 8px; font-family: 'DejaVu Sans', 'Bitstream Vera Sans', 'Computer Modern Sans Serif', 'Lucida Grande', 'Verdana', 'Geneva', 'Lucid', 'Arial', 'Helvetica', 'Avant Garde', sans-serif; text-anchor: middle" x="179.997239" y="42.192923" transform="rotate(-0 179.997239 42.192923)">240</text>
     </g>
    </g>
    <g id="xtick_6">
     <g id="line2d_11">
      <path d="M 30.806254 30.614173 
L 30.806254 3.401575 
" clip-path="url(#p9c9f214c6e)" style="fill: none; stroke: #ffffff; stroke-opacity: 0.9; stroke-width: 0.55; stroke-linecap: square"/>
     </g>
     <g id="line2d_12">
      <defs>
       <path id="md9a42582ca" d="M 0 0 
L 0 2 
" style="stroke: #000000; stroke-width: 0.6"/>
      </defs>
      <g>
       <use xlink:href="#md9a42582ca" x="30.806254" y="30.614173" style="stroke: #000000; stroke-width: 0.6"/>
      </g>
     </g>
    </g>
    <g id="xtick_7">
     <g id="line2d_13">
      <path d="M 73.43225 30.614173 
L 73.43225 3.401575 
" clip-path="url(#p9c9f214c6e)" style="fill: none; stroke: #ffffff; stroke-opacity: 0.9; stroke-width: 0.55; stroke-linecap: square"/>
     </g>
     <g id="line2d_14">
      <g>
       <use xlink:href="#md9a42582ca" x="73.43225" y="30.614173" style="stroke: #000000; stroke-width: 0.6"/>
      </g>
     </g>
    </g>
    <g id="xtick_8">
     <g id="line2d_15">
      <path d="M 116.058246 30.614173 
L 116.058246 3.401575 
" clip-path="url(#p9c9f214c6e)" style="fill: none; stroke: #ffffff; stroke-opacity: 0.9; stroke-width: 0.55; stroke-linecap: square"/>
     </g>
     <g id="line2d_16">
      <g>
       <use xlink:href="#md9a42582ca" x="116.058246" y="30.614173" style="stroke: #000000; stroke-width: 0.6"/>
      </g>
     </g>
    </g>
    <g id="xtick_9">
     <g id="line2d_17">
      <path d="M 158.684241 30.614173 
L 158.684241 3.401575 
" clip-path="url(#p9c9f214c6e)" style="fill: none; stroke: #ffffff; stroke-opacity: 0.9; stroke-width: 0.55; stroke-linecap: square"/>
     </g>
     <g id="line2d_18">
      <g>
       <use xlink:href="#md9a42582ca" x="158.684241" y="30.614173" style="stroke: #000000; stroke-width: 0.6"/>
      </g>
     </g>
    </g>
    <g id="xtick_10">
     <g id="line2d_19">
      <path d="M 201.310237 30.614173 
L 201.310237 3.401575 
" clip-path="url(#p9c9f214c6e)" style="fill: none; stroke: #ffffff; stroke-opacity: 0.9; stroke-width: 0.55; stroke-linecap: square"/>
     </g>
     <g id="line2d_20">
      <g>
       <use xlink:href="#md9a42582ca" x="201.310237" y="30.614173" style="stroke: #000000; stroke-width: 0.6"/>
      </g>
     </g>
    </g>
    <g id="text_6">
     <text style="font-size: 8px; font-family: 'DejaVu Sans', 'Bitstream Vera Sans', 'Computer Modern Sans Serif', 'Lucida Grande', 'Verdana', 'Geneva', 'Lucid', 'Arial', 'Helvetica', 'Avant Garde', sans-serif; text-anchor: middle" x="108.425197" y="53.935423" transform="rotate(-0 108.425197 53.935423)">time</text>
    </g>
   </g>
   <g id="matplotlib.axis_2">
    <g id="ytick_1">
     <g id="line2d_21">
      <path d="M 8.503937 27.667176 
L 208.346457 27.667176 
" clip-path="url(#p9c9f214c6e)" style="fill: none; stroke: #ffffff; stroke-width: 0.9; stroke-linecap: square"/>
     </g>
    </g>
    <g id="ytick_2">
     <g id="line2d_22">
      <path d="M 8.503937 20.501727 
L 208.346457 20.501727 
" clip-path="url(#p9c9f214c6e)" style="fill: none; stroke: #ffffff; stroke-width: 0.9; stroke-linecap: square"/>
     </g>
    </g>
    <g id="ytick_3">
     <g id="line2d_23">
      <path d="M 8.503937 13.336279 
L 208.346457 13.336279 
" clip-path="url(#p9c9f214c6e)" style="fill: none; stroke: #ffffff; stroke-width: 0.9; stroke-linecap: square"/>
     </g>
    </g>
    <g id="ytick_4">
     <g id="line2d_24">
      <path d="M 8.503937 6.17083 
L 208.346457 6.17083 
" clip-path="url(#p9c9f214c6e)" style="fill: none; stroke: #ffffff; stroke-width: 0.9; stroke-linecap: square"/>
     </g>
    </g>
    <g id="ytick_5">
     <g id="line2d_25">
      <path d="M 8.503937 24.084452 
L 208.346457 24.084452 
" clip-path="url(#p9c9f214c6e)" style="fill: none; stroke: #ffffff; stroke-opacity: 0.9; stroke-width: 0.55; stroke-linecap: square"/>
     </g>
     <g id="line2d_26">
      <defs>
       <path id="m1953f3bae5" d="M 0 0 
L -2 0 
" style="stroke: #000000; stroke-width: 0.6"/>
      </defs>
      <g>
       <use xlink:href="#m1953f3bae5" x="8.503937" y="24.084452" style="stroke: #000000; stroke-width: 0.6"/>
      </g>
     </g>
    </g>
    <g id="ytick_6">
     <g id="line2d_27">
      <path d="M 8.503937 16.919003 
L 208.346457 16.919003 
" clip-path="url(#p9c9f214c6e)" style="fill: none; stroke: #ffffff; stroke-opacity: 0.9; stroke-width: 0.55; stroke-linecap: square"/>
     </g>
     <g id="line2d_28">
      <g>
       <use xlink:href="#m1953f3bae5" x="8.503937" y="16.919003" style="stroke: #000000; stroke-width: 0.6"/>
      </g>
     </g>
    </g>
    <g id="ytick_7">
     <g id="line2d_29">
      <path d="M 8.503937 9.753554 
L 208.346457 9.753554 
" clip-path="url(#p9c9f214c6e)" style="fill: none; stroke: #ffffff; stroke-opacity: 0.9; stroke-width: 0.55; stroke-linecap: square"/>
     </g>
     <g id="line2d_30">
      <g>
       <use xlink:href="#m1953f3bae5" x="8.503937" y="9.753554" style="stroke: #000000; stroke-width: 0.6"/>
      </g>
     </g>
    </g>
   </g>
   <g id="line2d_31">
    <path d="M 9.493256 7.580652 
L 9.564371 7.555654 
L 9.730305 7.261946 
L 9.848828 7.032705 
L 9.919943 6.715523 
L 10.085876 5.130489 
L 10.559972 4.847712 
L 10.74961 5.413371 
L 10.915544 6.040271 
L 11.105182 6.092896 
L 11.223706 5.722529 
L 11.389639 5.722529 
L 11.508164 5.413546 
L 11.626687 5.413546 
L 11.745211 5.771685 
L 12.527469 5.855317 
L 12.693403 4.984668 
L 12.811927 4.984668 
L 13.048975 5.749788 
L 13.120089 5.828198 
L 13.167499 5.749788 
L 13.238613 5.749788 
L 13.286023 5.60733 
L 13.404547 5.828198 
L 13.52307 5.394907 
L 13.712709 5.555512 
L 13.949757 5.579406 
L 14.11569 5.900793 
L 14.423853 5.933727 
L 14.589786 5.59216 
L 14.779425 5.50993 
L 15.419454 5.50993 
L 15.609092 5.357593 
L 15.84614 5.399356 
L 16.130598 6.036243 
L 16.249122 6.036243 
L 16.43876 5.89813 
L 16.557284 5.89813 
L 16.675808 6.189771 
L 16.794331 6.189771 
L 16.912856 6.000891 
L 17.979571 5.924968 
L 18.145504 5.852548 
L 19.283334 5.898866 
L 19.330744 5.978888 
L 19.520383 8.116057 
L 19.638906 8.359312 
L 19.757431 8.359312 
L 20.231526 11.845722 
L 20.39746 11.792537 
L 20.587098 11.792537 
L 20.753032 11.911765 
L 20.824146 11.911765 
L 21.108604 11.333179 
L 21.511585 11.321792 
L 21.582699 11.100469 
L 21.748633 9.581057 
L 21.867157 9.459902 
L 21.98568 8.686095 
L 22.104205 4.688964 
L 25.375466 4.688964 
L 25.49399 5.153368 
L 25.541399 5.153368 
L 25.731038 5.735002 
L 25.896971 9.530185 
L 26.015495 9.654563 
L 26.08661 9.698743 
L 26.371067 12.002018 
L 26.489591 11.953143 
L 26.679229 11.86324 
L 26.726639 11.86324 
L 26.845163 12.170612 
L 27.034801 12.137363 
L 27.390372 9.965298 
L 27.508897 5.602321 
L 28.030402 4.814042 
L 28.148926 4.814042 
L 28.26745 5.029865 
L 29.097117 5.138442 
L 29.215642 5.401318 
L 29.334165 5.483057 
L 29.571214 5.869155 
L 29.642328 6.39214 
L 29.760852 8.854829 
L 29.879375 8.854829 
L 30.163833 7.834612 
L 30.590519 7.531234 
L 31.230548 7.528606 
L 31.467597 8.052676 
L 31.657235 8.89477 
L 31.823168 11.096334 
L 32.012807 11.096334 
L 32.060217 10.980645 
L 32.17874 10.477211 
L 32.368378 10.477211 
L 32.72395 12.510007 
L 32.77136 12.572477 
L 32.842475 12.510007 
L 33.008408 12.496098 
L 33.198046 11.996588 
L 33.292865 11.996588 
L 33.529913 12.828591 
L 33.766961 12.818325 
L 34.004009 12.586351 
L 34.122533 12.670157 
L 34.549219 12.959626 
L 34.904791 12.99764 
L 35.781868 12.007064 
L 35.900393 11.014525 
L 36.018916 10.134663 
L 36.13744 10.134663 
L 36.374488 13.277088 
L 36.611536 18.224189 
L 36.848584 18.225485 
L 37.038222 16.889312 
L 37.156746 16.889312 
L 37.27527 17.941272 
L 37.441204 17.925016 
L 37.749366 11.106144 
L 37.86789 11.106144 
L 38.104938 13.317064 
L 38.270871 13.411416 
L 38.389395 13.661364 
L 38.626443 14.290263 
L 38.934605 14.619637 
L 39.219063 13.688307 
L 39.408701 12.682455 
L 39.645749 12.784235 
L 39.882797 12.870914 
L 40.04873 12.870914 
L 40.238369 11.92098 
L 40.404302 11.926095 
L 40.522827 14.204389 
L 40.759874 21.276116 
L 40.878398 21.553146 
L 41.18656 21.46468 
L 41.589542 19.64669 
L 41.708066 19.64669 
L 41.77918 19.939522 
L 42.016228 21.98805 
L 42.134752 21.98805 
L 42.490324 14.056607 
L 42.656258 10.340255 
L 42.774781 10.340255 
L 43.319991 11.980296 
L 43.367401 11.990632 
L 43.557039 12.855428 
L 43.675563 12.929775 
L 43.794088 12.706139 
L 43.960021 12.199517 
L 44.268183 11.729963 
L 44.315592 11.729963 
L 44.386707 11.573036 
L 44.623755 10.011406 
L 44.671164 9.834333 
L 44.860803 6.806792 
L 45.026736 6.351638 
L 45.19267 5.936775 
L 45.382308 5.936775 
L 45.548242 6.438528 
L 45.73788 6.438528 
L 45.903814 7.507164 
L 46.140862 7.423743 
L 46.259385 7.332894 
L 46.496434 6.832649 
L 46.733481 7.060383 
L 47.041643 12.902272 
L 47.444625 24.204294 
L 47.681673 25.520566 
L 47.752787 25.299628 
L 47.800197 25.397379 
L 47.918721 25.520566 
L 48.037245 25.178649 
L 48.155768 22.977539 
L 48.226883 22.977539 
L 48.345407 22.040569 
L 48.700979 11.075102 
L 48.938026 11.110664 
L 49.10396 11.238126 
L 49.222484 11.25631 
L 49.341008 16.112316 
L 49.530646 24.786805 
L 49.64917 24.786805 
L 49.886218 22.305406 
L 49.933628 22.305406 
L 50.170676 25.67462 
L 50.526248 25.907085 
L 50.644771 24.977016 
L 50.881819 20.865037 
L 51.355915 20.865037 
L 51.545554 25.761404 
L 51.664078 25.761404 
L 51.711487 25.331512 
L 51.830011 15.299759 
L 54.982748 15.299759 
L 55.148682 25.66551 
L 55.267205 25.66551 
L 55.456844 25.125183 
L 55.693892 24.880071 
L 55.859825 24.710811 
L 55.978349 24.459007 
L 56.215397 24.40887 
L 56.286512 23.940367 
L 56.333921 22.171533 
L 56.52356 11.283778 
L 56.879132 11.289279 
L 56.926541 10.886188 
L 57.210998 4.638511 
L 59.652592 4.638511 
L 59.818525 7.391685 
L 60.363736 7.281006 
L 60.766717 6.949039 
L 60.956355 7.035928 
L 61.003765 7.562696 
L 61.122289 10.131965 
L 61.359337 10.268326 
L 61.951956 10.250983 
L 62.02307 10.400272 
L 62.189004 10.948167 
L 62.426052 10.948167 
L 62.61569 10.600468 
L 62.971262 10.481906 
L 63.137196 10.326381 
L 64.440959 10.319268 
L 64.678007 10.695766 
L 64.867645 10.812262 
L 65.152103 11.10681 
L 65.626199 11.169805 
L 65.981771 11.181087 
L 66.171409 7.297823 
L 66.408457 7.187915 
L 66.645504 7.286472 
L 67.119601 7.30921 
L 67.16701 7.30921 
L 67.285534 7.571491 
L 67.593696 7.524332 
L 67.830744 7.118438 
L 67.949268 7.118438 
L 67.996677 7.272842 
L 68.115202 9.932259 
L 68.233726 9.932259 
L 68.30484 8.800137 
L 68.470774 4.674564 
L 79.422387 4.674564 
L 79.54091 5.421393 
L 80.015006 5.421393 
L 80.252054 7.70214 
L 80.323168 7.70214 
L 80.489102 5.705396 
L 80.560217 5.705396 
L 80.72615 5.065076 
L 80.844674 5.570192 
L 81.081721 5.644819 
L 81.247655 5.812081 
L 81.721751 6.192329 
L 81.840275 6.001732 
L 81.958799 5.731534 
L 82.669943 5.732094 
L 82.859581 5.912285 
L 84.210754 5.810119 
L 84.400392 5.686302 
L 84.803374 5.689525 
L 85.988613 6.066128 
L 86.462709 6.017183 
L 87.292377 5.926684 
L 87.482015 5.845891 
L 88.074635 5.845891 
L 88.193158 5.495845 
L 91.085143 5.593632 
L 91.274781 5.784368 
L 93.337098 5.784368 
L 93.455622 5.449913 
L 93.69267 5.449913 
L 93.858604 5.644504 
L 95.87351 5.686197 
L 96.063149 5.067949 
L 96.181673 4.953031 
L 96.300197 5.067949 
L 96.46613 8.324452 
L 96.537245 8.324452 
L 96.655768 8.464071 
L 96.940226 8.368177 
L 97.05875 5.216643 
L 97.295798 5.216643 
L 97.414322 5.614513 
L 97.485436 5.614513 
L 97.65137 4.709179 
L 97.841008 4.66584 
L 98.006941 4.824728 
L 98.19658 5.10726 
L 98.599561 5.033019 
L 98.718085 5.256759 
L 99.192181 5.314218 
L 99.310705 6.341548 
L 99.618868 6.3536 
L 99.784801 6.164019 
L 100.211487 6.171517 
L 100.330011 5.625514 
L 100.495944 5.625514 
L 100.685583 9.563539 
L 101.207088 24.879966 
L 101.278202 25.021336 
L 101.396727 25.812348 
L 101.444136 25.378986 
L 101.51525 25.484024 
L 101.681184 26.059317 
L 102.036756 26.139094 
L 102.15528 24.337291 
L 102.273804 19.202152 
L 102.463442 12.750915 
L 102.629375 12.212235 
L 102.7479 12.212235 
L 102.937538 12.581306 
L 103.340519 25.238771 
L 103.88573 22.951892 
L 104.051663 22.972109 
L 104.170187 23.211966 
L 104.288711 23.211966 
L 104.33612 22.857751 
L 104.691692 13.034393 
L 104.881331 13.253824 
L 104.999855 13.39516 
L 105.047264 13.914255 
L 105.284312 24.398359 
L 105.47395 24.859645 
L 105.592475 24.859645 
L 105.710998 24.533949 
L 105.948046 24.388094 
L 106.113979 23.039553 
L 106.232504 19.565722 
L 106.422142 11.532815 
L 106.469551 11.532815 
L 106.588076 11.13067 
L 106.777714 11.028469 
L 106.943648 10.85914 
L 107.180695 10.98033 
L 107.370334 11.239667 
L 107.536267 11.239667 
L 108.010363 10.355811 
L 108.200001 9.305428 
L 108.318525 9.305428 
L 108.721507 12.438498 
L 108.840031 12.438498 
L 109.077079 11.628744 
L 109.195602 10.784268 
L 109.314126 10.784268 
L 109.622289 11.625415 
L 109.788222 11.625415 
L 109.906746 11.500231 
L 110.333432 10.470064 
L 110.736414 10.579587 
L 111.329033 10.9468 
L 111.518672 10.9468 
L 111.684605 11.785846 
L 111.803129 11.878096 
L 112.277225 11.368425 
L 112.585387 12.378657 
L 112.751321 12.969155 
L 113.059483 13.331604 
L 113.225416 13.251862 
L 113.533579 9.554815 
L 113.699513 5.067739 
L 113.818036 4.841055 
L 113.93656 4.841055 
L 114.126199 4.965924 
L 114.766228 4.941925 
L 115.003276 4.868839 
L 115.240324 4.868839 
L 115.429962 5.051272 
L 115.951468 5.051272 
L 116.188516 5.254797 
L 116.354449 5.254797 
L 116.544087 5.51077 
L 117.018183 5.703925 
L 117.136707 5.832157 
L 117.302641 5.819229 
L 117.421164 6.236404 
L 117.610803 9.545075 
L 117.776736 10.162307 
L 117.895261 10.571003 
L 118.132308 14.39411 
L 118.321947 14.39411 
L 118.724928 5.225857 
L 118.843452 6.226278 
L 119.03309 7.048051 
L 119.270138 6.937862 
L 119.388662 6.828795 
L 119.436072 6.901179 
L 119.507186 6.828795 
L 119.67312 6.901179 
L 119.910167 6.987718 
L 120.099806 7.40195 
L 120.384263 7.487684 
L 120.621311 7.552816 
L 120.739835 12.858616 
L 120.929473 19.880662 
L 121.047997 19.880662 
L 121.213931 20.137547 
L 121.285045 20.137547 
L 121.450979 20.609062 
L 121.569503 20.609062 
L 121.759141 20.153138 
L 121.877665 19.803792 
L 121.996189 14.194684 
L 122.162123 7.85721 
L 122.588809 7.899324 
L 122.873266 10.343303 
L 122.944381 10.372033 
L 123.110314 11.332128 
L 123.347362 12.210693 
L 123.655524 12.29979 
L 123.939982 12.589854 
L 124.011096 12.589294 
L 124.366668 11.990211 
L 124.485192 13.323651 
L 124.651126 16.350001 
L 124.769649 16.350001 
L 124.959287 11.87715 
L 125.125221 11.979525 
L 125.362269 12.040453 
L 125.717841 12.123559 
L 125.954889 12.352134 
L 126.31046 12.147453 
L 126.381575 12.209292 
L 126.428985 12.638379 
L 126.784557 22.493445 
L 126.90308 22.493445 
L 127.021604 21.641963 
L 127.140129 18.453781 
L 127.329767 10.913166 
L 127.566815 10.813488 
L 127.614224 10.913166 
L 127.732748 12.125135 
L 127.851272 12.125135 
L 128.13573 9.532287 
L 128.254253 7.347575 
L 128.325368 7.347575 
L 128.372777 7.011473 
L 128.443891 7.347575 
L 128.491302 7.253047 
L 128.562416 7.253047 
L 128.846873 6.236965 
L 128.965397 6.001592 
L 129.083921 6.001592 
L 129.202445 9.199128 
L 129.320969 9.387132 
L 129.629131 10.913095 
L 129.747655 12.061019 
L 130.103227 20.430729 
L 139.276981 10.822492 
L 139.395504 12.606251 
L 139.632553 20.380102 
L 140.225173 21.226049 
L 140.272582 21.396079 
L 140.46222 22.826499 
L 140.580744 22.826499 
L 140.746677 21.665962 
L 140.936316 21.760385 
L 140.983726 22.262662 
L 141.291888 28.876746 
L 141.410412 29.13237 
L 141.576346 29.089941 
L 141.884507 26.772862 
L 142.003032 21.817178 
L 142.240079 21.817178 
L 142.406013 24.709059 
L 142.832699 24.818057 
L 143.188271 26.032864 
L 143.543843 26.477333 
L 143.8283 26.482343 
L 143.946824 26.784109 
L 144.065348 26.784109 
L 144.302396 26.397871 
L 144.539444 26.28148 
L 144.729082 26.301241 
L 144.96613 26.745465 
L 145.01354 26.763193 
L 145.250588 27.413813 
L 145.321702 27.417667 
L 145.487636 27.657314 
L 145.724683 27.462093 
L 146.032846 26.662289 
L 146.981038 26.619334 
L 147.218085 25.716699 
L 147.265495 25.716699 
L 147.455133 24.970885 
L 147.621067 25.063345 
L 147.929229 27.263473 
L 148.095162 27.299211 
L 148.213686 27.143229 
L 148.403325 27.02225 
L 148.450734 27.02225 
L 148.640372 28.606023 
L 148.687782 28.606023 
L 148.758897 28.795077 
L 148.877421 28.446467 
L 148.92483 28.446467 
L 148.995944 28.309862 
L 149.114469 27.005011 
L 149.232992 27.005011 
L 149.398926 27.131842 
L 149.635974 27.131842 
L 149.754498 26.483814 
L 149.944136 22.573222 
L 150.11007 22.573222 
L 150.228594 22.81322 
L 150.347117 22.81322 
L 150.418232 22.093999 
L 150.65528 12.14395 
L 150.773804 12.05727 
L 150.892328 11.859877 
L 150.939737 11.844461 
L 151.058261 11.48979 
L 151.532357 9.604777 
L 151.769405 19.800849 
L 152.053862 22.093964 
L 152.172387 24.337257 
L 152.243501 24.337257 
L 152.362025 24.578374 
L 152.480548 24.578374 
L 152.599073 22.220829 
L 152.646482 22.220829 
L 152.83612 19.018948 
L 152.88353 19.018948 
L 153.002054 19.733125 
L 153.191692 25.639584 
L 153.310216 26.039732 
L 153.665788 25.95603 
L 153.713198 25.867074 
L 153.784312 24.165229 
L 153.902836 18.882938 
L 154.06877 18.882938 
L 154.187293 23.580861 
L 154.258408 23.614426 
L 154.424341 23.906523 
L 154.542865 23.953436 
L 154.66139 24.347172 
L 154.851028 24.332421 
L 155.016961 18.896497 
L 155.443648 18.896497 
L 155.609581 24.737404 
L 155.680695 24.737404 
L 155.799219 25.086329 
L 155.846629 24.737404 
L 156.036267 21.36304 
L 156.083677 20.947057 
L 156.202201 12.290085 
L 156.557772 12.290085 
L 156.747411 25.260563 
L 156.865935 25.408766 
L 156.984459 24.891177 
L 157.150392 22.679137 
L 157.505964 22.777519 
L 157.695602 21.81385 
L 158.051174 21.38259 
L 158.169698 17.142378 
L 158.52527 17.142378 
L 158.691204 25.778011 
L 158.762318 26.011071 
L 159.046775 28.686956 
L 159.283824 29.377237 
L 159.402347 28.634683 
L 159.591985 21.971688 
L 159.639395 21.971688 
L 159.829033 21.813044 
L 159.876443 21.03307 
L 160.066082 12.199867 
L 160.303129 11.143879 
L 160.350539 11.269448 
L 160.540177 12.006398 
L 160.706111 12.044517 
L 160.777225 12.044517 
L 161.014273 5.762821 
L 161.180206 5.567004 
L 161.29873 5.649549 
L 161.488369 6.476506 
L 161.654302 6.618473 
L 161.962465 8.362361 
L 162.009874 8.362361 
L 162.128398 9.281218 
L 162.365446 9.209499 
L 162.721018 8.917824 
L 162.839542 8.917824 
L 163.02918 15.823513 
L 163.266228 16.496873 
L 163.384752 16.874737 
L 163.598095 20.836587 
L 163.716619 20.836587 
L 163.787733 20.435879 
L 164.024781 14.249481 
L 164.143305 14.014458 
L 164.261829 14.014458 
L 164.617401 21.820051 
L 164.783334 21.820051 
L 165.020382 21.189471 
L 165.257431 21.117086 
L 165.447069 20.963909 
L 165.613002 20.854281 
L 165.80264 20.685581 
L 165.921164 20.762977 
L 166.087098 21.26578 
L 166.205622 21.715959 
L 166.44267 21.413212 
L 166.561194 20.212769 
L 166.750832 20.212769 
L 166.869356 20.613302 
L 167.03529 20.613302 
L 167.224928 18.816685 
L 167.390862 18.829123 
L 167.509385 19.156711 
L 167.5805 19.156711 
L 167.699023 18.327966 
L 167.864957 15.029069 
L 167.983481 15.029069 
L 168.054595 15.278351 
L 168.339053 18.561937 
L 168.457577 18.187296 
L 168.765739 15.562319 
L 168.813149 15.562319 
L 169.002787 19.474313 
L 169.168721 20.741289 
L 169.358359 22.305861 
L 169.524293 22.256986 
L 169.832455 17.998171 
L 169.950979 17.998171 
L 170.069503 18.506405 
L 170.306551 21.156782 
L 171.017694 21.069542 
L 171.254742 19.965484 
L 171.420676 19.965484 
L 171.610314 15.37859 
L 171.728838 15.112175 
L 171.847362 14.165114 
L 171.965886 14.165114 
L 172.202934 15.162031 
L 172.487391 20.458337 
L 172.605915 20.922251 
L 172.795554 20.819385 
L 172.961487 20.042073 
L 173.198535 20.042073 
L 173.388173 20.627947 
L 173.67263 20.539236 
L 173.791155 20.003884 
L 173.909679 17.351124 
L 174.099317 14.097038 
L 174.26525 13.94386 
L 174.454889 13.966529 
L 174.502299 14.055486 
L 174.85787 22.833646 
L 175.687538 23.289291 
L 176.161633 23.265887 
L 176.446091 23.209829 
L 176.63573 22.231481 
L 176.801663 20.103281 
L 177.038711 19.981251 
L 177.157235 19.709825 
L 177.512806 19.803022 
L 177.820969 19.834765 
L 178.176541 19.67528 
L 178.460998 19.658148 
L 178.579522 19.845521 
L 178.769161 21.295911 
L 178.935094 22.574799 
L 179.053618 23.109801 
L 179.40919 23.101217 
L 179.646238 22.361394 
L 179.835876 21.077916 
L 180.120334 20.848079 
L 180.309972 20.918992 
L 180.712953 23.108399 
L 180.902592 22.999156 
L 181.021116 22.271597 
L 181.187049 20.96093 
L 181.258164 20.93602 
L 181.424097 20.341702 
L 181.542621 19.697668 
L 181.661145 19.697668 
L 181.779669 20.585833 
L 181.898193 20.585833 
L 182.016717 19.9754 
L 182.253765 17.225764 
L 182.324879 17.225764 
L 182.490812 19.518388 
L 182.561927 19.577564 
L 182.680451 20.361813 
L 182.798975 20.361813 
L 182.917499 17.232736 
L 183.083432 13.909385 
L 183.201956 13.909385 
L 183.391595 14.548689 
L 183.510118 14.548689 
L 183.747167 13.820849 
L 183.9131 12.800597 
L 184.102738 12.856409 
L 184.695358 19.162982 
L 184.813882 19.162982 
L 184.932406 18.170934 
L 185.05093 18.170934 
L 185.335387 18.959702 
L 185.406501 18.959702 
L 185.572435 18.029178 
L 185.690959 17.382306 
L 185.809483 17.382306 
L 185.999121 18.223558 
L 186.117645 18.223558 
L 186.283579 15.869656 
L 186.473217 13.529068 
L 186.591741 13.529068 
L 186.757674 13.990774 
L 186.876199 15.105448 
L 186.994723 15.105448 
L 187.350294 12.416741 
L 187.634752 12.449395 
L 187.8718 15.321411 
L 188.108847 17.180007 
L 188.179962 17.20667 
L 188.298486 17.431111 
L 188.535534 17.431111 
L 188.582944 17.072446 
L 188.819991 13.364783 
L 189.057039 13.365169 
L 189.175563 13.647245 
L 189.412611 14.693108 
L 189.602249 16.689081 
L 190.005231 18.926137 
L 190.194869 18.926137 
L 190.313393 14.348528 
L 190.479327 12.673626 
L 190.668965 12.619635 
L 190.716375 12.673626 
L 190.834899 12.96411 
L 191.19047 12.894494 
L 191.427519 14.336721 
L 191.664566 18.301198 
L 192.020138 20.42204 
L 192.091252 20.42204 
L 192.257186 19.419411 
L 192.37571 19.419411 
L 192.446824 19.556157 
L 192.565348 21.703872 
L 192.731281 23.609976 
L 192.96833 23.65724 
L 193.157968 23.384239 
L 193.323901 23.295877 
L 193.51354 23.064604 
L 193.56095 22.44464 
L 193.750588 17.751201 
L 194.509141 13.133195 
L 194.69878 13.155688 
L 194.817303 13.86573 
L 194.983237 14.885071 
L 195.338809 21.342264 
L 195.575856 21.342264 
L 195.646971 21.330667 
L 195.884019 20.649529 
L 195.931428 20.649529 
L 196.121067 20.792827 
L 196.358114 20.823379 
L 196.405524 21.062605 
L 196.595162 23.043828 
L 196.713686 23.043828 
L 196.832211 21.665962 
L 196.87962 21.060118 
L 197.187782 12.698011 
L 197.306306 12.654881 
L 197.42483 12.866359 
L 198.064859 21.45056 
L 198.254498 21.45056 
L 198.373022 20.274118 
L 198.728594 11.665742 
L 198.847117 11.665742 
L 199.084165 12.892076 
L 199.605671 12.936957 
L 199.65308 13.037091 
L 200.008652 20.580964 
L 200.19829 20.626616 
L 200.316815 20.742235 
L 200.364224 20.636216 
L 200.435338 20.742235 
L 200.909434 20.801306 
L 201.193891 20.117997 
L 201.38353 20.668414 
L 201.667988 20.671322 
L 201.857626 21.039657 
L 202.260607 21.09207 
L 202.331721 21.067826 
L 202.497655 20.837358 
L 202.734703 20.775765 
L 202.924341 20.968288 
L 203.090275 20.874041 
L 203.327323 20.747665 
L 203.445847 20.874041 
L 203.635485 20.587795 
L 204.346629 20.587795 
L 204.465152 18.942079 
L 204.583677 18.942079 
L 204.820724 20.195777 
L 204.939249 20.243531 
L 205.105182 20.560503 
L 205.294821 21.234107 
L 205.650392 21.1304 
L 205.93485 21.131417 
L 206.124488 21.197599 
L 206.290422 21.290375 
L 206.527469 21.26669 
L 206.717108 21.055809 
L 206.883041 20.988188 
L 207.001565 20.962227 
L 207.191204 18.98181 
L 207.238613 18.951784 
L 207.357137 17.614034 
L 207.357137 17.614034 
" clip-path="url(#p9c9f214c6e)" style="fill: none; stroke: #5c80b5; stroke-width: 0.5; stroke-linecap: square"/>
   </g>
   <g id="patch_3">
    <path d="M 8.503937 30.614173 
L 208.346457 30.614173 
" style="fill: none; stroke: #000000; stroke-width: 0.4; stroke-linejoin: miter; stroke-linecap: square"/>
   </g>
   <g id="patch_4">
    <path d="M 8.503937 3.401575 
L 208.346457 3.401575 
" style="fill: none; stroke: #000000; stroke-width: 0.4; stroke-linejoin: miter; stroke-linecap: square"/>
   </g>
  </g>
 </g>
 <defs>
  <clipPath id="p9c9f214c6e">
   <rect x="8.503937" y="3.401575" width="199.84252" height="27.212598"/>
  </clipPath>
 </defs>
</svg>
