<?xml version="1.0" encoding="utf-8" standalone="no"?>
<!DOCTYPE svg PUBLIC "-//W3C//DTD SVG 1.1//EN"
  "http://www.w3.org/Graphics/SVG/1.1/DTD/svg11.dtd">
<svg xmlns:xlink="http://www.w3.org/1999/xlink" width="212.598425pt" height="42.519685pt" viewBox="0 0 212.598425 42.519685" xmlns="http://www.w3.org/2000/svg" version="1.1">
 <metadata>
  <rdf:RDF xmlns:dc="http://purl.org/dc/elements/1.1/" xmlns:cc="http://creativecommons.org/ns#" xmlns:rdf="http://www.w3.org/1999/02/22-rdf-syntax-ns#">
   <cc:Work>
    <dc:type rdf:resource="http://purl.org/dc/dcmitype/StillImage"/>
    <dc:date>2026-06-01T17:59:29.223551</dc:date>
    <dc:format>image/svg+xml</dc:format>
    <dc:creator>
     <cc:Agent>
      <dc:title>Matplotlib v3.10.8, https://matplotlib.org/</dc:title>
     </cc:Agent>
    </dc:creator>
   </cc:Work>
  </rdf:RDF>
 </metadata>
 <defs>
  <style type="text/css">*{stroke-linejoin: round; stroke-linecap: butt}</style>
 </defs>
 <g id="figure_1">
  <g id="patch_1">
   <path d="M 0 42.519685 
L 212.598425 42.519685 
L 212.598425 0 
L 0 0 
z
" style="fill: #ffffff"/>
  </g>
  <g id="axes_1">
   <g id="patch_2">
    <path d="M 8.503937 30.614173 
L 208.346457 30.614173 
L 208.346457 3.401575 
L 8.503937 3.401575 
z
" style="fill: #eaeaf2"/>
   </g>
   <g id="matplotlib.axis_1">
    <g id="xtick_1">
     <g id="line2d_1">
      <path d="M 9.493256 30.614173 
L 9.493256 3.401575 
" clip-path="url(#p75094f6933)" style="fill: none; stroke: #ffffff; stroke-width: 0.9; stroke-linecap: square"/>
     </g>
     <g id="line2d_2">
      <defs>
       <path id="md0d15c7740" d="M 0 0 
L 0 2 
" style="stroke: #000000; stroke-width: 0.4"/>
      </defs>
      <g>
       <use xlink:href="#md0d15c7740" x="9.493256" y="30.614173" style="stroke: #000000; stroke-width: 0.4"/>
      </g>
     </g>
     <g id="text_1">
      <text style="font-size: 8px; font-family: 'DejaVu Sans', 'Bitstream Vera Sans', 'Computer Modern Sans Serif', 'Lucida Grande', 'Verdana', 'Geneva', 'Lucid', 'Arial', 'Helvetica', 'Avant Garde', sans-serif; text-anchor: middle" x="9.493256" y="42.192923" transform="rotate(-0 9.493256 42.192923)">0</text>
     </g>
    </g>
    <g id="xtick_2">
     <g id="line2d_3">
      <path d="M 52.119252 30.614173 
L 52.119252 3.401575 
" clip-path="url(#p75094f6933)" style="fill: none; stroke: #ffffff; stroke-width: 0.9; stroke-linecap: square"/>
     </g>
     <g id="line2d_4">
      <g>
       <use xlink:href="#md0d15c7740" x="52.119252" y="30.614173" style="stroke: #000000; stroke-width: 0.4"/>
      </g>
     </g>
     <g id="text_2">
      <text style="font-size: 8px; font-family: 'DejaVu Sans', 'Bitstream Vera Sans', 'Computer Modern Sans Serif', 'Lucida Grande', 'Verdana', 'Geneva', 'Lucid', 'Arial', 'Helvetica', 'Avant Garde', sans-serif; text-anchor: middle" x="52.119252" y="42.192923" transform="rotate(-0 52.119252 42.192923)">60</text>
     </g>
    </g>
    <g id="xtick_3">
     <g id="line2d_5">
      <path d="M 94.745248 30.614173 
L 94.745248 3.401575 
" clip-path="url(#p75094f6933)" style="fill: none; stroke: #ffffff; stroke-width: 0.9; stroke-linecap: square"/>
     </g>
     <g id="line2d_6">
      <g>
       <use xlink:href="#md0d15c7740" x="94.745248" y="30.614173" style="stroke: #000000; stroke-width: 0.4"/>
      </g>
     </g>
     <g id="text_3">
      <text style="font-size: 8px; font-family: 'DejaVu Sans', 'Bitstream Vera Sans', 'Computer Modern Sans Serif', 'Lucida Grande', 'Verdana', 'Geneva', 'Lucid', 'Arial', 'Helvetica', 'Avant Garde', sans-serif; text-anchor: middle" x="94.745248" y="42.192923" transform="rotate(-0 94.745248 42.192923)">120</text>
     </g>
    </g>
    <g id="xtick_4">
     <g id="line2d_7">
      <path d="M 137.371243 30.614173 
L 137.371243 3.401575 
" clip-path="url(#p75094f6933)" style="fill: none; stroke: #ffffff; stroke-width: 0.9; stroke-linecap: square"/>
     </g>
     <g id="line2d_8">
      <g>
       <use xlink:href="#md0d15c7740" x="137.371243" y="30.614173" style="stroke: #000000; stroke-width: 0.4"/>
      </g>
     </g>
     <g id="text_4">
      <text style="font-size: 8px; font-family: 'DejaVu Sans', 'Bitstream Vera Sans', 'Computer Modern Sans Serif', 'Lucida Grande', 'Verdana', 'Geneva', 'Lucid', 'Arial', 'Helvetica', 'Avant Garde', sans-serif; text-anchor: middle" x="137.371243" y="42.192923" transform="rotate(-0 137.371243 42.192923)">180</text>
     </g>
    </g>
    <g id="xtick_5">
     <g id="line2d_9">
      <path d="M 179.997239 30.614173 
L 179.997239 3.401575 
" clip-path="url(#p75094f6933)" style="fill: none; stroke: #ffffff; stroke-width: 0.9; stroke-linecap: square"/>
     </g>
     <g id="line2d_10">
      <g>
       <use xlink:href="#md0d15c7740" x="179.997239" y="30.614173" style="stroke: #000000; stroke-width: 0.4"/>
      </g>
     </g>
     <g id="text_5">
      <text style="font-size: 8px; font-family: 'DejaVu Sans', 'Bitstream Vera Sans', 'Computer Modern Sans Serif', 'Lucida Grande', 'Verdana', 'Geneva', 'Lucid', 'Arial', 'Helvetica', 'Avant Garde', sans-serif; text-anchor: middle" x="179.997239" y="42.192923" transform="rotate(-0 179.997239 42.192923)">240</text>
     </g>
    </g>
    <g id="xtick_6">
     <g id="line2d_11">
      <path d="M 30.806254 30.614173 
L 30.806254 3.401575 
" clip-path="url(#p75094f6933)" style="fill: none; stroke: #ffffff; stroke-opacity: 0.9; stroke-width: 0.55; stroke-linecap: square"/>
     </g>
     <g id="line2d_12">
      <defs>
       <path id="me1b00776c7" d="M 0 0 
L 0 2 
" style="stroke: #000000; stroke-width: 0.6"/>
      </defs>
      <g>
       <use xlink:href="#me1b00776c7" x="30.806254" y="30.614173" style="stroke: #000000; stroke-width: 0.6"/>
      </g>
     </g>
    </g>
    <g id="xtick_7">
     <g id="line2d_13">
      <path d="M 73.43225 30.614173 
L 73.43225 3.401575 
" clip-path="url(#p75094f6933)" style="fill: none; stroke: #ffffff; stroke-opacity: 0.9; stroke-width: 0.55; stroke-linecap: square"/>
     </g>
     <g id="line2d_14">
      <g>
       <use xlink:href="#me1b00776c7" x="73.43225" y="30.614173" style="stroke: #000000; stroke-width: 0.6"/>
      </g>
     </g>
    </g>
    <g id="xtick_8">
     <g id="line2d_15">
      <path d="M 116.058246 30.614173 
L 116.058246 3.401575 
" clip-path="url(#p75094f6933)" style="fill: none; stroke: #ffffff; stroke-opacity: 0.9; stroke-width: 0.55; stroke-linecap: square"/>
     </g>
     <g id="line2d_16">
      <g>
       <use xlink:href="#me1b00776c7" x="116.058246" y="30.614173" style="stroke: #000000; stroke-width: 0.6"/>
      </g>
     </g>
    </g>
    <g id="xtick_9">
     <g id="line2d_17">
      <path d="M 158.684241 30.614173 
L 158.684241 3.401575 
" clip-path="url(#p75094f6933)" style="fill: none; stroke: #ffffff; stroke-opacity: 0.9; stroke-width: 0.55; stroke-linecap: square"/>
     </g>
     <g id="line2d_18">
      <g>
       <use xlink:href="#me1b00776c7" x="158.684241" y="30.614173" style="stroke: #000000; stroke-width: 0.6"/>
      </g>
     </g>
    </g>
    <g id="xtick_10">
     <g id="line2d_19">
      <path d="M 201.310237 30.614173 
L 201.310237 3.401575 
" clip-path="url(#p75094f6933)" style="fill: none; stroke: #ffffff; stroke-opacity: 0.9; stroke-width: 0.55; stroke-linecap: square"/>
     </g>
     <g id="line2d_20">
      <g>
       <use xlink:href="#me1b00776c7" x="201.310237" y="30.614173" style="stroke: #000000; stroke-width: 0.6"/>
      </g>
     </g>
    </g>
    <g id="text_6">
     <text style="font-size: 8px; font-family: 'DejaVu Sans', 'Bitstream Vera Sans', 'Computer Modern Sans Serif', 'Lucida Grande', 'Verdana', 'Geneva', 'Lucid', 'Arial', 'Helvetica', 'Avant Garde', sans-serif; text-anchor: middle" x="108.425197" y="53.935423" transform="rotate(-0 108.425197 53.935423)">time</text>
    </g>
   </g>
   <g id="matplotlib.axis_2">
    <g id="ytick_1">
     <g id="line2d_21">
      <path d="M 8.503937 28.57577 
L 208.346457 28.57577 
" clip-path="url(#p75094f6933)" style="fill: none; stroke: #ffffff; stroke-width: 0.9; stroke-linecap: square"/>
     </g>
    </g>
    <g id="ytick_2">
     <g id="line2d_22">
      <path d="M 8.503937 18.479489 
L 208.346457 18.479489 
" clip-path="url(#p75094f6933)" style="fill: none; stroke: #ffffff; stroke-width: 0.9; stroke-linecap: square"/>
     </g>
    </g>
    <g id="ytick_3">
     <g id="line2d_23">
      <path d="M 8.503937 8.383207 
L 208.346457 8.383207 
" clip-path="url(#p75094f6933)" style="fill: none; stroke: #ffffff; stroke-width: 0.9; stroke-linecap: square"/>
     </g>
    </g>
    <g id="ytick_4">
     <g id="line2d_24">
      <path d="M 8.503937 23.52763 
L 208.346457 23.52763 
" clip-path="url(#p75094f6933)" style="fill: none; stroke: #ffffff; stroke-opacity: 0.9; stroke-width: 0.55; stroke-linecap: square"/>
     </g>
     <g id="line2d_25">
      <defs>
       <path id="mceaf45d91a" d="M 0 0 
L -2 0 
" style="stroke: #000000; stroke-width: 0.6"/>
      </defs>
      <g>
       <use xlink:href="#mceaf45d91a" x="8.503937" y="23.52763" style="stroke: #000000; stroke-width: 0.6"/>
      </g>
     </g>
    </g>
    <g id="ytick_5">
     <g id="line2d_26">
      <path d="M 8.503937 13.431348 
L 208.346457 13.431348 
" clip-path="url(#p75094f6933)" style="fill: none; stroke: #ffffff; stroke-opacity: 0.9; stroke-width: 0.55; stroke-linecap: square"/>
     </g>
     <g id="line2d_27">
      <g>
       <use xlink:href="#mceaf45d91a" x="8.503937" y="13.431348" style="stroke: #000000; stroke-width: 0.6"/>
      </g>
     </g>
    </g>
   </g>
   <g id="line2d_28">
    <path d="M 9.493256 8.93796 
L 9.682894 9.139849 
L 9.848828 9.975696 
L 10.085876 10.14366 
L 10.2044 10.14366 
L 10.441448 10.369488 
L 10.868134 10.441947 
L 11.034068 10.913448 
L 11.152592 11.01228 
L 11.508164 11.803064 
L 11.697802 11.803064 
L 11.863736 10.370127 
L 12.171897 10.478818 
L 12.219307 10.537579 
L 12.574879 12.066403 
L 12.764517 12.340367 
L 12.930451 12.39388 
L 13.120089 12.39388 
L 13.286023 11.538061 
L 13.475661 11.441917 
L 13.878642 11.489926 
L 14.068281 11.844415 
L 14.234214 11.815866 
L 14.471262 10.452702 
L 14.826834 10.124712 
L 15.063882 10.486755 
L 15.372044 10.285123 
L 15.609092 10.337611 
L 15.775026 10.637692 
L 15.89355 10.807703 
L 16.012073 11.3299 
L 16.201712 11.383668 
L 16.43876 11.622555 
L 16.604693 11.520523 
L 16.723217 10.696325 
L 16.912856 9.864318 
L 17.434361 9.842298 
L 17.861047 10.587251 
L 18.026981 10.342091 
L 18.382553 9.454268 
L 18.738124 9.377583 
L 19.164811 9.169421 
L 19.330744 9.875712 
L 19.449268 14.948917 
L 19.567792 14.948917 
L 19.875954 14.128305 
L 19.994478 15.676971 
L 20.113002 26.114885 
L 20.634507 26.146377 
L 20.824146 25.606386 
L 21.179718 25.352009 
L 21.582699 25.576558 
L 21.630109 25.533286 
L 21.98568 23.784779 
L 22.104205 11.005239 
L 22.293843 10.225209 
L 22.459777 10.225209 
L 22.696824 11.047998 
L 22.767938 11.047998 
L 22.886463 10.809495 
L 22.933872 10.809495 
L 23.12351 10.059422 
L 23.407968 9.823479 
L 23.882064 10.149933 
L 24.190226 10.79887 
L 24.30875 10.739084 
L 24.593208 9.671135 
L 24.90137 10.172208 
L 25.067303 10.695301 
L 25.256941 10.591476 
L 25.422875 8.967916 
L 25.541399 8.967916 
L 25.731038 10.828442 
L 25.849561 25.35854 
L 26.134019 25.458138 
L 26.323657 25.749258 
L 26.371067 25.763852 
L 26.560705 26.164301 
L 26.679229 26.231768 
L 26.797753 26.441082 
L 26.963686 26.413045 
L 27.271849 25.916708 
L 27.390372 25.313219 
L 27.508897 10.329545 
L 27.67483 10.329545 
L 27.911878 10.654079 
L 28.385974 9.956236 
L 28.623022 9.744235 
L 28.741546 9.663453 
L 28.978594 9.473727 
L 29.049708 9.465149 
L 29.215642 9.320358 
L 29.334165 9.320358 
L 29.642328 10.662143 
L 29.760852 24.452408 
L 29.808261 24.459321 
L 29.9979 24.830069 
L 30.282357 25.475294 
L 30.471995 25.812628 
L 30.709044 25.798929 
L 30.874977 25.370701 
L 31.064615 25.370701 
L 31.301663 25.779214 
L 31.349073 25.779214 
L 31.420187 25.633912 
L 31.58612 24.771307 
L 31.775759 24.719715 
L 31.823168 24.771307 
L 31.941692 25.135655 
L 32.249855 25.135655 
L 32.486903 26.118085 
L 32.534312 26.118085 
L 32.652836 25.752074 
L 32.77136 26.223319 
L 32.842475 26.223319 
L 32.960998 26.57307 
L 33.079522 26.57307 
L 33.292865 26.04396 
L 33.648437 26.008116 
L 34.075123 25.308099 
L 35.070724 25.214131 
L 35.426296 25.030293 
L 35.734459 24.584013 
L 35.971507 24.603216 
L 36.090031 24.878845 
L 36.13744 24.878845 
L 36.255964 24.125443 
L 36.374488 13.136656 
L 36.445602 13.051394 
L 36.73006 9.478207 
L 36.801174 9.478207 
L 36.919698 10.257981 
L 36.967108 10.257981 
L 37.038222 9.293346 
L 37.085632 10.293828 
L 37.204155 9.293346 
L 37.27527 9.293346 
L 37.512318 12.923118 
L 37.630842 20.603848 
L 37.915299 23.719873 
L 38.223462 26.019766 
L 38.270871 25.849243 
L 38.507919 22.985419 
L 38.744967 22.719904 
L 38.863491 22.50406 
L 39.100539 22.567943 
L 39.764273 23.191147 
L 39.930207 22.69942 
L 40.119845 22.71107 
L 40.238369 23.345925 
L 40.356893 23.473562 
L 40.404302 23.571497 
L 40.475416 23.478299 
L 40.64135 23.478299 
L 40.830988 22.817967 
L 40.949513 22.626064 
L 40.996922 22.52736 
L 41.23397 18.21127 
L 41.305085 17.541849 
L 41.423608 14.502124 
L 41.542132 14.502124 
L 41.660656 20.358817 
L 41.826589 20.289302 
L 41.945114 19.233515 
L 42.063638 19.233515 
L 42.253276 21.224876 
L 42.774781 21.146401 
L 42.893305 20.64968 
L 43.082944 20.725724 
L 43.438516 26.222038 
L 43.485925 26.222038 
L 43.557039 26.096066 
L 43.841497 23.276537 
L 43.960021 23.209327 
L 44.078545 22.594443 
L 44.315592 22.594443 
L 44.434117 22.187082 
L 44.671164 18.645643 
L 44.860803 7.28995 
L 45.026736 7.28995 
L 45.19267 8.988017 
L 45.548242 10.477921 
L 45.666765 10.477921 
L 45.856404 10.297156 
L 46.022337 10.374097 
L 46.211976 10.71668 
L 46.259385 10.781971 
L 46.496434 11.470978 
L 46.614957 11.470978 
L 46.733481 11.021753 
L 47.207577 4.934752 
L 47.278692 4.934752 
L 47.397215 5.247763 
L 47.563149 22.264149 
L 47.752787 23.613231 
L 47.918721 23.344389 
L 47.989835 23.435155 
L 48.037245 23.705022 
L 48.155768 25.354058 
L 48.345407 25.447768 
L 48.51134 25.359434 
L 48.629865 25.359434 
L 48.748388 26.339945 
L 48.938026 26.263134 
L 49.10396 24.988687 
L 49.222484 24.988687 
L 49.459532 23.782475 
L 49.530646 23.70784 
L 49.933628 11.633437 
L 50.123266 23.135203 
L 50.289199 23.494556 
L 50.407724 23.872219 
L 50.526248 25.497697 
L 50.644771 25.497697 
L 50.881819 24.836085 
L 51.000343 24.67478 
L 51.118868 24.836085 
L 51.237391 25.998643 
L 51.355915 25.998643 
L 51.474439 24.381996 
L 51.545554 24.381996 
L 51.592963 24.233365 
L 51.711487 23.644086 
L 51.901126 24.288414 
L 51.948535 24.288414 
L 52.138173 25.271228 
L 52.304107 25.322693 
L 52.422631 25.130021 
L 52.612269 25.353034 
L 52.659679 25.359434 
L 52.849317 25.495137 
L 53.086365 25.463644 
L 53.370822 25.292479 
L 53.441937 25.173548 
L 53.489346 24.840055 
L 53.797509 25.903267 
L 54.034557 25.919269 
L 54.15308 25.71034 
L 54.319014 25.804435 
L 54.390129 25.804435 
L 54.556062 26.090817 
L 54.674586 26.103747 
L 54.864224 26.248282 
L 54.982748 26.248282 
L 55.38573 24.751592 
L 55.504253 24.749672 
L 55.693892 24.363049 
L 55.859825 23.002828 
L 56.215397 23.002828 
L 56.452445 24.228243 
L 56.760607 25.930791 
L 56.808017 25.930791 
L 56.926541 25.29312 
L 57.163589 11.344622 
L 57.210998 10.922026 
L 57.400636 11.432572 
L 57.637685 11.356912 
L 57.803618 11.272546 
L 58.15919 11.313513 
L 58.348828 12.25677 
L 58.514762 12.716236 
L 58.633286 12.710091 
L 58.7044 12.531374 
L 58.870334 11.735342 
L 58.988858 11.396598 
L 59.059972 11.396598 
L 59.178496 11.604888 
L 59.344429 11.510921 
L 59.652592 10.786964 
L 59.700001 10.775698 
L 59.771116 10.624378 
L 59.937049 9.959309 
L 60.126687 9.89133 
L 60.174097 9.89133 
L 60.600783 11.065153 
L 60.956355 11.467394 
L 61.003765 12.446752 
L 61.122289 24.710754 
L 61.193403 24.803825 
L 61.311927 25.25689 
L 61.430451 25.266747 
L 61.548975 25.996082 
L 61.714909 25.996082 
L 61.904547 26.044218 
L 62.02307 26.195666 
L 62.189004 27.60927 
L 62.378642 27.771858 
L 62.426052 27.60927 
L 62.61569 26.474238 
L 62.781624 26.129862 
L 62.852739 26.077247 
L 62.971262 25.890465 
L 63.445358 25.84028 
L 63.611292 25.603187 
L 64.085387 25.501665 
L 64.440959 25.389264 
L 65.152103 28.638941 
L 65.270627 28.696294 
L 65.697313 29.204409 
L 65.815837 29.204409 
L 65.981771 28.646238 
L 66.100295 15.623587 
L 66.289933 15.107407 
L 66.455866 15.100622 
L 66.692914 15.348214 
L 67.119601 15.427843 
L 67.404058 11.796535 
L 67.641106 11.100103 
L 67.75963 10.542444 
L 67.878154 10.542444 
L 67.996677 11.219417 
L 68.115202 24.983567 
L 68.233726 24.983567 
L 68.30484 24.857978 
L 68.470774 11.197142 
L 68.707821 10.027288 
L 68.826346 9.793651 
L 68.992279 9.796851 
L 69.063393 9.947403 
L 69.229327 10.724873 
L 69.466375 11.033916 
L 69.584899 10.925994 
L 70.058994 10.676226 
L 70.48568 10.737804 
L 70.604205 10.173872 
L 70.770138 9.584209 
L 71.0783 9.335208 
L 71.196824 9.335208 
L 71.362758 10.626681 
L 71.599806 10.519016 
L 72.145016 10.127017 
L 72.619111 10.170287 
L 72.785045 10.332489 
L 73.022093 10.209205 
L 73.377665 10.196404 
L 73.851761 10.42492 
L 74.088809 10.14097 
L 74.207333 9.829112 
L 74.278447 9.829112 
L 74.444381 10.242107 
L 74.752543 10.24646 
L 74.918476 10.123816 
L 75.155524 10.123816 
L 75.345163 9.956109 
L 75.511096 9.916294 
L 75.582211 9.830009 
L 75.62962 9.916294 
L 75.937783 9.985681 
L 76.103716 10.125353 
L 76.293354 10.125353 
L 76.577812 10.446813 
L 76.648926 10.446813 
L 76.76745 10.133929 
L 77.051907 10.22188 
L 77.123022 10.293956 
L 77.170431 10.22188 
L 77.288956 10.22188 
L 77.478594 9.383857 
L 77.834165 9.321894 
L 77.952689 9.351339 
L 78.000099 9.479616 
L 78.118623 10.003092 
L 78.426785 10.080033 
L 78.592719 10.59122 
L 78.900881 11.268322 
L 78.94829 11.268322 
L 79.137929 9.770351 
L 79.303862 9.770351 
L 79.422387 9.155723 
L 79.54091 9.285537 
L 79.777958 9.019381 
L 79.896482 9.055355 
L 80.015006 10.035609 
L 80.252054 12.432541 
L 80.323168 12.432541 
L 80.560217 10.431449 
L 80.72615 10.520425 
L 80.892083 11.007416 
L 81.081721 11.079619 
L 81.721751 11.172818 
L 81.840275 10.960047 
L 81.91139 10.960047 
L 82.029913 10.717192 
L 82.266961 10.797205 
L 82.432894 11.053118 
L 82.504009 10.912936 
L 82.551419 11.053118 
L 82.669943 11.053118 
L 82.906991 11.697831 
L 83.144038 11.840574 
L 83.215153 11.79948 
L 83.381086 11.41785 
L 83.452201 11.41785 
L 83.618134 11.605912 
L 83.973706 12.191095 
L 84.163344 12.086374 
L 84.400392 10.243899 
L 84.447802 10.243899 
L 84.566326 10.447196 
L 84.921897 11.872963 
L 85.040422 11.84928 
L 85.158946 10.470369 
L 85.277469 10.470369 
L 85.395994 11.546383 
L 85.585632 11.501191 
L 85.704155 11.337965 
L 85.941204 11.413881 
L 86.107137 11.456512 
L 86.178252 11.386228 
L 86.581233 8.47158 
L 86.770871 8.47158 
L 86.936805 10.264127 
L 87.173853 10.736908 
L 87.244967 10.681603 
L 87.4109 11.191637 
L 87.766472 11.640862 
L 87.884997 11.640862 
L 88.00352 11.837886 
L 88.122044 11.839422 
L 88.193158 11.694503 
L 88.240568 11.839422 
L 88.430207 11.839422 
L 88.54873 11.711401 
L 88.59614 11.748783 
L 89.14135 11.647775 
L 89.425808 11.544078 
L 89.971018 11.49223 
L 90.492523 8.79573 
L 90.729571 8.886496 
L 91.037733 12.045407 
L 91.274781 11.997784 
L 91.393305 11.771443 
L 91.914811 11.728556 
L 92.104449 12.014298 
L 92.270382 12.076389 
L 92.507431 11.742254 
L 92.791888 11.38098 
L 92.863002 11.390198 
L 92.910412 11.24899 
L 92.981526 11.274979 
L 93.455622 11.55496 
L 93.621555 11.647519 
L 93.740079 11.721131 
L 93.858604 12.129773 
L 93.929718 12.129773 
L 94.095651 11.665186 
L 94.28529 11.260896 
L 94.640862 11.260896 
L 94.759385 11.558544 
L 94.806795 11.558544 
L 94.996434 11.722667 
L 95.470529 11.687462 
L 95.636463 11.204951 
L 95.754987 10.140075 
L 95.87351 10.140075 
L 96.300197 13.553235 
L 96.46613 26.447484 
L 96.584654 26.447484 
L 96.892816 24.147335 
L 97.01134 11.136333 
L 97.129865 11.136333 
L 97.532846 12.088294 
L 97.65137 11.941583 
L 97.769894 11.179475 
L 98.078056 11.10868 
L 98.433628 11.452031 
L 98.599561 11.241437 
L 99.310705 11.011384 
L 99.547753 11.652895 
L 99.666277 11.652895 
L 99.737391 11.314153 
L 99.974439 8.250489 
L 100.140372 8.250489 
L 100.377421 10.404438 
L 100.495944 10.404438 
L 100.851516 9.05433 
L 101.088564 9.021174 
L 101.278202 17.616997 
L 101.325612 17.939481 
L 101.51525 20.217354 
L 101.752299 20.217354 
L 101.870822 19.909208 
L 102.036756 19.915994 
L 102.15528 23.682107 
L 102.226394 23.682107 
L 102.463442 24.782829 
L 102.629375 24.951945 
L 102.7479 24.888447 
L 102.866424 24.331428 
L 102.937538 24.331428 
L 103.221995 22.852662 
L 103.340519 22.852662 
L 103.577567 23.661495 
L 103.814615 24.168329 
L 104.004253 23.76993 
L 104.122777 23.62309 
L 104.241302 23.76993 
L 104.33612 23.624242 
L 104.525759 23.914593 
L 104.691692 23.684923 
L 104.810217 23.449238 
L 104.92874 23.449238 
L 105.118378 23.643317 
L 105.236903 23.643317 
L 105.355426 21.756035 
L 105.52136 20.005352 
L 105.639884 19.448718 
L 105.876932 19.958496 
L 105.995456 20.036461 
L 106.232504 24.773228 
L 106.422142 24.884477 
L 106.540666 24.884477 
L 106.65919 25.325638 
L 106.706599 25.325638 
L 107.062171 28.470466 
L 107.180695 28.431803 
L 107.299219 28.177938 
L 107.417743 28.177938 
L 107.488858 27.361551 
L 107.536267 27.618615 
L 107.607381 27.718985 
L 107.725906 28.340269 
L 107.773315 28.340269 
L 107.891839 27.718985 
L 107.962953 27.718985 
L 108.128887 26.143178 
L 108.247411 25.678463 
L 108.555573 25.69088 
L 108.602982 25.889568 
L 109.029669 24.982414 
L 109.195602 25.536232 
L 109.266717 25.550184 
L 109.432651 26.436089 
L 109.551174 26.436089 
L 109.859337 25.650682 
L 110.02527 25.422549 
L 110.262318 25.422549 
L 110.451956 26.266077 
L 110.61789 26.308196 
L 110.736414 26.581649 
L 110.973462 25.397969 
L 111.044576 25.328326 
L 111.1631 24.924036 
L 111.281624 24.924036 
L 111.400148 25.258811 
L 111.447557 25.274812 
L 111.637196 25.953194 
L 111.75572 26.534024 
L 111.874243 26.534024 
L 111.921653 26.16763 
L 112.040177 26.889026 
L 112.158701 26.451068 
L 112.34834 27.826265 
L 112.466863 28.808185 
L 112.585387 28.808185 
L 112.822435 27.03689 
L 112.869845 27.03689 
L 112.988369 27.745101 
L 113.106893 29.320396 
L 113.225416 29.320396 
L 113.415055 26.415349 
L 113.533579 26.079424 
L 113.652103 14.674825 
L 113.699513 14.674825 
L 113.889151 14.314062 
L 114.007674 14.424289 
L 114.173608 13.240481 
L 114.244723 13.369526 
L 114.410656 13.456195 
L 114.52918 13.480648 
L 114.718818 13.788409 
L 114.955866 13.732593 
L 115.240324 13.269286 
L 115.311438 13.256739 
L 115.429962 13.11118 
L 115.548486 13.044737 
L 115.832944 12.559155 
L 115.951468 11.906377 
L 116.141106 11.913674 
L 116.307039 14.144691 
L 116.472973 14.144691 
L 116.591497 13.700459 
L 116.710021 13.700459 
L 116.899659 14.038434 
L 117.065592 14.038434 
L 117.255231 14.447717 
L 117.421164 15.292269 
L 117.539689 24.54868 
L 117.895261 25.666685 
L 117.966375 25.642489 
L 118.013784 24.99944 
L 118.203422 13.803516 
L 118.321947 12.736592 
L 118.369356 13.024637 
L 118.48788 12.701386 
L 118.558994 12.68295 
L 118.677519 12.006489 
L 118.724928 12.006489 
L 118.843452 10.977459 
L 119.151614 8.337672 
L 119.436072 8.446872 
L 119.791643 10.368207 
L 119.981282 10.722569 
L 120.099806 11.011512 
L 120.692425 10.995253 
L 120.976883 8.253305 
L 121.166521 7.076282 
L 121.332455 4.638511 
L 121.522093 4.638511 
L 121.688026 6.957352 
L 121.877665 8.804434 
L 121.925075 8.804434 
L 122.114713 9.889154 
L 122.162123 9.889154 
L 122.233237 10.130089 
L 122.351761 10.99999 
L 122.588809 11.052095 
L 122.636218 11.748655 
L 122.944381 22.695068 
L 123.062904 23.758536 
L 123.181428 23.758536 
L 123.347362 22.722975 
L 123.537 22.722975 
L 123.655524 23.314048 
L 123.702934 23.333635 
L 124.177029 24.299806 
L 124.485192 24.390189 
L 124.651126 24.795759 
L 124.769649 24.795759 
L 125.006697 24.159752 
L 125.433384 24.226324 
L 125.599317 24.335396 
L 125.670431 24.335396 
L 125.954889 23.55255 
L 126.191937 23.374345 
L 126.547509 23.160166 
L 126.855671 22.473846 
L 126.90308 22.473846 
L 127.092718 23.163367 
L 127.44829 24.384173 
L 127.4957 24.384173 
L 127.685338 22.764455 
L 127.803862 22.764455 
L 127.922387 22.574088 
L 127.969796 22.574088 
L 128.325368 11.200983 
L 128.491302 8.350857 
L 128.609825 8.350857 
L 128.846873 10.859295 
L 129.036511 12.892009 
L 129.083921 15.499406 
L 129.202445 25.875486 
L 129.320969 25.875486 
L 129.795065 23.06415 
L 129.866179 23.06415 
L 130.032113 21.677046 
L 130.103227 21.677046 
L 139.348095 23.404814 
L 139.585143 22.473335 
L 139.822191 22.267095 
L 139.988124 22.030127 
L 140.106648 22.030127 
L 140.272582 21.271349 
L 140.391106 21.038607 
L 140.46222 21.038607 
L 140.746677 21.981095 
L 140.817792 21.981095 
L 141.05484 20.952705 
L 141.220774 13.397306 
L 141.528935 12.955891 
L 141.694869 12.983671 
L 141.884507 19.900759 
L 141.931917 19.927899 
L 142.003032 20.248335 
L 142.240079 25.501409 
L 142.358604 25.501409 
L 142.524537 23.55191 
L 142.595651 23.514527 
L 142.761585 22.452852 
L 142.998633 20.150015 
L 143.069747 19.441421 
L 143.23568 14.955702 
L 143.425319 15.015487 
L 143.591252 16.118643 
L 143.709777 16.118643 
L 143.8283 15.900751 
L 143.946824 15.900751 
L 144.183872 18.10834 
L 144.254987 18.10834 
L 144.37351 18.452844 
L 144.492035 18.50034 
L 144.610558 19.129818 
L 144.729082 19.129818 
L 144.895016 15.480459 
L 145.132064 15.410176 
L 145.369111 14.977082 
L 145.487636 14.977082 
L 145.724683 16.68155 
L 145.795798 16.77987 
L 146.080255 18.46219 
L 146.19878 18.46219 
L 146.317303 15.366265 
L 146.435827 15.366265 
L 146.625466 16.266762 
L 146.909923 16.640711 
L 147.146971 20.186629 
L 147.265495 20.186629 
L 147.739591 16.05348 
L 147.929229 13.327535 
L 148.095162 13.327535 
L 148.213686 14.252228 
L 148.403325 14.252228 
L 148.450734 14.059429 
L 148.687782 12.227069 
L 148.806306 11.91393 
L 148.92483 11.901512 
L 149.161878 12.179317 
L 149.280402 12.917741 
L 149.398926 12.926958 
L 149.51745 13.538897 
L 149.991545 21.367235 
L 150.06266 21.367235 
L 150.181184 18.275152 
L 150.299708 18.275152 
L 150.465642 21.80366 
L 150.65528 23.87913 
L 150.821214 25.854618 
L 150.939737 26.338665 
L 151.058261 26.338665 
L 151.295309 23.832659 
L 151.413833 10.367568 
L 151.603472 10.367568 
L 151.721995 21.088406 
L 151.769405 21.105434 
L 151.935338 22.245715 
L 152.053862 22.245715 
L 152.29091 19.32825 
L 152.362025 19.32825 
L 152.527958 22.327775 
L 152.599073 22.559365 
L 152.765006 24.283036 
L 153.002054 24.283036 
L 153.073168 23.87657 
L 153.191692 19.496341 
L 153.357626 14.84919 
L 153.47615 13.36991 
L 153.594674 13.36991 
L 153.665788 14.110766 
L 153.950246 22.209357 
L 154.187293 22.483578 
L 154.305818 22.483578 
L 154.542865 20.207368 
L 154.779913 16.312722 
L 154.851028 16.312722 
L 155.016961 22.874807 
L 155.135485 22.874807 
L 155.372533 22.041138 
L 155.609581 19.953247 
L 155.680695 19.953247 
L 155.799219 19.819466 
L 155.846629 19.953247 
L 156.320724 24.441527 
L 156.391839 24.165385 
L 156.747411 17.990306 
L 156.865935 17.083279 
L 156.984459 17.083279 
L 157.150392 19.300982 
L 157.268916 19.338748 
L 157.340031 19.420297 
L 157.458554 19.764032 
L 157.505964 19.764032 
L 157.577079 19.554718 
L 158.051174 21.772805 
L 158.217108 23.971306 
L 158.335632 24.301855 
L 158.454155 23.892701 
L 158.52527 22.795052 
L 158.691204 16.569403 
L 158.809727 15.289581 
L 159.046775 11.100999 
L 159.165299 10.600054 
L 159.283824 10.600054 
L 159.402347 11.838014 
L 159.639395 24.104319 
L 159.757919 24.332453 
L 159.947557 25.586673 
L 159.994967 25.643 
L 160.113491 26.236377 
L 160.232015 26.214101 
L 160.350539 24.684894 
L 160.469063 10.472928 
L 160.540177 10.472928 
L 160.658701 10.315463 
L 160.895749 10.771217 
L 161.180206 11.329388 
L 161.488369 10.646141 
L 161.654302 10.646141 
L 161.725416 10.784275 
L 161.89135 13.901068 
L 162.080988 13.810942 
L 162.246922 12.696137 
L 162.365446 12.267524 
L 162.555085 10.962352 
L 162.673608 11.06925 
L 162.721018 11.40108 
L 162.839542 19.182434 
L 162.958066 19.629995 
L 163.266228 23.799503 
L 163.384752 23.917026 
L 163.503276 24.716258 
L 163.598095 24.716258 
L 163.787733 23.399181 
L 163.906258 23.359238 
L 164.072191 22.753957 
L 164.143305 22.933313 
L 164.309239 22.554756 
L 164.380353 22.471158 
L 164.546287 18.426856 
L 164.617401 18.412262 
L 164.735925 17.755515 
L 164.854449 17.755515 
L 164.972973 18.591747 
L 165.210021 18.766879 
L 165.447069 19.724346 
L 165.494478 19.806536 
L 165.85005 24.295839 
L 165.968574 24.415539 
L 166.158212 24.288542 
L 166.324146 22.957894 
L 166.513784 22.969927 
L 166.750832 23.58302 
L 166.869356 23.759688 
L 167.03529 23.237619 
L 167.224928 23.14775 
L 167.272337 23.14775 
L 167.509385 24.337189 
L 167.699023 24.322596 
L 167.864957 22.841395 
L 167.983481 22.676121 
L 168.102005 22.888762 
L 168.291643 24.189453 
L 168.339053 24.189453 
L 168.647215 22.89414 
L 168.884263 22.89414 
L 169.002787 23.068887 
L 169.121311 22.844852 
L 169.358359 23.127265 
L 169.524293 23.127265 
L 169.713931 22.37156 
L 169.832455 22.37156 
L 169.998388 22.616974 
L 170.35396 22.527743 
L 170.425075 22.934466 
L 170.591008 27.764943 
L 170.709532 28.018168 
L 170.828056 28.01023 
L 170.94658 27.328136 
L 171.136218 24.529477 
L 171.254742 24.529477 
L 171.302152 24.959114 
L 171.420676 27.111397 
L 171.539199 27.111397 
L 171.847362 25.246008 
L 172.08441 25.206835 
L 172.250343 23.547814 
L 172.439982 23.547814 
L 172.605915 23.570984 
L 172.842963 25.031958 
L 172.961487 25.061914 
L 173.032601 25.168172 
L 173.080011 25.061914 
L 173.198535 24.716386 
L 173.317059 24.623573 
L 173.67263 22.871481 
L 173.909679 22.769959 
L 174.099317 22.58881 
L 174.383774 22.270423 
L 174.454889 22.270423 
L 174.573413 23.020368 
L 174.739346 22.932289 
L 174.928985 22.623249 
L 175.094918 22.783017 
L 175.213442 22.783017 
L 175.45049 22.864695 
L 175.4979 22.630032 
L 175.569014 22.667415 
L 176.446091 22.664727 
L 176.683139 23.505184 
L 176.872777 23.818322 
L 177.157235 23.715905 
L 177.275759 23.643317 
L 177.631331 23.993454 
L 177.939493 23.723457 
L 177.986903 23.723457 
L 178.176541 23.491357 
L 178.769161 23.43362 
L 178.81657 23.337731 
L 179.124733 21.345089 
L 179.243256 21.345089 
L 179.40919 21.68268 
L 179.480304 21.696377 
L 179.764762 22.771367 
L 180.001809 22.994892 
L 180.475906 23.026769 
L 180.784067 22.044337 
L 180.902592 22.214477 
L 181.068525 23.625906 
L 181.376687 23.887709 
L 181.613736 24.421427 
L 182.016717 24.465594 
L 182.206355 25.081629 
L 182.372289 25.323204 
L 182.443403 25.323204 
L 182.917499 23.315969 
L 183.083432 23.315969 
L 183.439004 26.80722 
L 183.557528 26.80722 
L 183.86569 25.537895 
L 184.102738 25.48643 
L 184.268672 24.986766 
L 184.861292 24.893823 
L 184.979815 24.834805 
L 185.09834 24.472123 
L 185.216863 24.472123 
L 185.335387 24.690398 
L 185.453911 26.166733 
L 185.64355 26.246363 
L 185.880598 25.987503 
L 185.928007 25.987503 
L 186.117645 27.148267 
L 186.23617 27.148267 
L 186.402103 26.044601 
L 186.520627 25.789712 
L 186.591741 25.789712 
L 186.757674 26.229847 
L 186.947313 26.148043 
L 187.350294 25.237047 
L 187.516228 25.237047 
L 187.753276 23.75559 
L 187.8718 23.422353 
L 188.179962 23.356167 
L 188.298486 23.856856 
L 188.345896 23.856856 
L 188.535534 24.360234 
L 188.582944 24.360234 
L 188.654058 24.205328 
L 188.772582 23.783755 
L 188.938516 23.788621 
L 189.175563 24.213138 
L 189.602249 23.362822 
L 189.957821 23.819729 
L 190.194869 24.386733 
L 190.242279 24.386733 
L 190.360803 23.1425 
L 190.479327 23.1425 
L 190.550441 23.547045 
L 190.716375 25.364298 
L 190.834899 25.399377 
L 190.953422 25.640312 
L 191.261585 25.697666 
L 191.380108 25.88035 
L 191.427519 25.88035 
L 191.546042 25.201585 
L 191.664566 24.190093 
L 191.901614 24.079484 
L 191.972728 24.078203 
L 192.020138 24.329637 
L 192.209777 23.870297 
L 192.446824 23.975274 
L 192.494234 23.870297 
L 192.612758 23.284859 
L 192.802396 18.885811 
L 192.96833 18.924601 
L 193.157968 19.508759 
L 193.205378 19.587749 
L 194.035045 26.583056 
L 194.224683 27.000147 
L 194.509141 29.377237 
L 194.580255 29.377237 
L 194.746189 28.997271 
L 195.101761 24.970379 
L 195.457333 24.952712 
L 195.646971 25.230646 
L 195.765495 25.230646 
L 196.049953 24.141574 
L 196.121067 24.141574 
L 196.287 23.812305 
L 196.358114 23.812305 
L 196.595162 23.018576 
L 196.761096 23.018576 
L 197.306306 25.898275 
L 197.42483 25.898275 
L 197.590764 25.129382 
L 197.898926 24.553288 
L 198.135974 24.637142 
L 198.183384 24.713826 
L 198.254498 24.637142 
L 198.420431 24.34935 
L 198.894527 25.384911 
L 199.178985 24.270747 
L 199.416032 23.924067 
L 199.605671 23.840853 
L 199.771604 23.840853 
L 200.553862 26.892866 
L 200.719796 26.652444 
L 200.83832 26.600211 
L 200.956844 26.383472 
L 201.075368 25.349064 
L 201.193891 25.349064 
L 201.38353 27.084129 
L 201.549463 27.113958 
L 202.687293 27.024857 
L 203.042865 26.76254 
L 203.161389 26.943819 
L 203.327323 26.896323 
L 203.682894 23.614256 
L 203.991057 23.614256 
L 204.228105 20.790247 
L 204.346629 20.335261 
L 204.465152 8.686783 
L 204.74961 7.004976 
L 204.939249 7.004976 
L 205.105182 7.475963 
L 205.223706 7.646999 
L 205.413344 8.412051 
L 205.531868 8.959083 
L 205.697802 8.957676 
L 205.88744 7.964235 
L 205.93485 7.964235 
L 206.124488 8.208626 
L 206.408945 8.538535 
L 206.645994 8.495776 
L 206.835632 8.390543 
L 206.883041 8.390543 
L 207.120089 9.737834 
L 207.191204 9.737834 
L 207.357137 8.972782 
L 207.357137 8.972782 
" clip-path="url(#p75094f6933)" style="fill: none; stroke: #5c80b5; stroke-width: 0.5; stroke-linecap: square"/>
   </g>
   <g id="patch_3">
    <path d="M 8.503937 30.614173 
L 208.346457 30.614173 
" style="fill: none; stroke: #000000; stroke-width: 0.4; stroke-linejoin: miter; stroke-linecap: square"/>
   </g>
   <g id="patch_4">
    <path d="M 8.503937 3.401575 
L 208.346457 3.401575 
" style="fill: none; stroke: #000000; stroke-width: 0.4; stroke-linejoin: miter; stroke-linecap: square"/>
   </g>
  </g>
 </g>
 <defs>
  <clipPath id="p75094f6933">
   <rect x="8.503937" y="3.401575" width="199.84252" height="27.212598"/>
  </clipPath>
 </defs>
</svg>
