<?xml version="1.0" encoding="utf-8" standalone="no"?>
<!DOCTYPE svg PUBLIC "-//W3C//DTD SVG 1.1//EN"
  "http://www.w3.org/Graphics/SVG/1.1/DTD/svg11.dtd">
<svg xmlns:xlink="http://www.w3.org/1999/xlink" width="212.598425pt" height="42.519685pt" viewBox="0 0 212.598425 42.519685" xmlns="http://www.w3.org/2000/svg" version="1.1">
 <metadata>
  <rdf:RDF xmlns:dc="http://purl.org/dc/elements/1.1/" xmlns:cc="http://creativecommons.org/ns#" xmlns:rdf="http://www.w3.org/1999/02/22-rdf-syntax-ns#">
   <cc:Work>
    <dc:type rdf:resource="http://purl.org/dc/dcmitype/StillImage"/>
    <dc:date>2026-06-01T17:59:28.046792</dc:date>
    <dc:format>image/svg+xml</dc:format>
    <dc:creator>
     <cc:Agent>
      <dc:title>Matplotlib v3.10.8, https://matplotlib.org/</dc:title>
     </cc:Agent>
    </dc:creator>
   </cc:Work>
  </rdf:RDF>
 </metadata>
 <defs>
  <style type="text/css">*{stroke-linejoin: round; stroke-linecap: butt}</style>
 </defs>
 <g id="figure_1">
  <g id="patch_1">
   <path d="M 0 42.519685 
L 212.598425 42.519685 
L 212.598425 0 
L 0 0 
z
" style="fill: #ffffff"/>
  </g>
  <g id="axes_1">
   <g id="patch_2">
    <path d="M 8.503937 30.614173 
L 208.346457 30.614173 
L 208.346457 3.401575 
L 8.503937 3.401575 
z
" style="fill: #eaeaf2"/>
   </g>
   <g id="matplotlib.axis_1">
    <g id="xtick_1">
     <g id="line2d_1">
      <path d="M 9.493256 30.614173 
L 9.493256 3.401575 
" clip-path="url(#pb389422585)" style="fill: none; stroke: #ffffff; stroke-width: 0.9; stroke-linecap: square"/>
     </g>
     <g id="line2d_2">
      <defs>
       <path id="mdf98c50f4f" d="M 0 0 
L 0 2 
" style="stroke: #000000; stroke-width: 0.4"/>
      </defs>
      <g>
       <use xlink:href="#mdf98c50f4f" x="9.493256" y="30.614173" style="stroke: #000000; stroke-width: 0.4"/>
      </g>
     </g>
     <g id="text_1">
      <text style="font-size: 8px; font-family: 'DejaVu Sans', 'Bitstream Vera Sans', 'Computer Modern Sans Serif', 'Lucida Grande', 'Verdana', 'Geneva', 'Lucid', 'Arial', 'Helvetica', 'Avant Garde', sans-serif; text-anchor: middle" x="9.493256" y="42.192923" transform="rotate(-0 9.493256 42.192923)">0</text>
     </g>
    </g>
    <g id="xtick_2">
     <g id="line2d_3">
      <path d="M 52.119252 30.614173 
L 52.119252 3.401575 
" clip-path="url(#pb389422585)" style="fill: none; stroke: #ffffff; stroke-width: 0.9; stroke-linecap: square"/>
     </g>
     <g id="line2d_4">
      <g>
       <use xlink:href="#mdf98c50f4f" x="52.119252" y="30.614173" style="stroke: #000000; stroke-width: 0.4"/>
      </g>
     </g>
     <g id="text_2">
      <text style="font-size: 8px; font-family: 'DejaVu Sans', 'Bitstream Vera Sans', 'Computer Modern Sans Serif', 'Lucida Grande', 'Verdana', 'Geneva', 'Lucid', 'Arial', 'Helvetica', 'Avant Garde', sans-serif; text-anchor: middle" x="52.119252" y="42.192923" transform="rotate(-0 52.119252 42.192923)">60</text>
     </g>
    </g>
    <g id="xtick_3">
     <g id="line2d_5">
      <path d="M 94.745248 30.614173 
L 94.745248 3.401575 
" clip-path="url(#pb389422585)" style="fill: none; stroke: #ffffff; stroke-width: 0.9; stroke-linecap: square"/>
     </g>
     <g id="line2d_6">
      <g>
       <use xlink:href="#mdf98c50f4f" x="94.745248" y="30.614173" style="stroke: #000000; stroke-width: 0.4"/>
      </g>
     </g>
     <g id="text_3">
      <text style="font-size: 8px; font-family: 'DejaVu Sans', 'Bitstream Vera Sans', 'Computer Modern Sans Serif', 'Lucida Grande', 'Verdana', 'Geneva', 'Lucid', 'Arial', 'Helvetica', 'Avant Garde', sans-serif; text-anchor: middle" x="94.745248" y="42.192923" transform="rotate(-0 94.745248 42.192923)">120</text>
     </g>
    </g>
    <g id="xtick_4">
     <g id="line2d_7">
      <path d="M 137.371243 30.614173 
L 137.371243 3.401575 
" clip-path="url(#pb389422585)" style="fill: none; stroke: #ffffff; stroke-width: 0.9; stroke-linecap: square"/>
     </g>
     <g id="line2d_8">
      <g>
       <use xlink:href="#mdf98c50f4f" x="137.371243" y="30.614173" style="stroke: #000000; stroke-width: 0.4"/>
      </g>
     </g>
     <g id="text_4">
      <text style="font-size: 8px; font-family: 'DejaVu Sans', 'Bitstream Vera Sans', 'Computer Modern Sans Serif', 'Lucida Grande', 'Verdana', 'Geneva', 'Lucid', 'Arial', 'Helvetica', 'Avant Garde', sans-serif; text-anchor: middle" x="137.371243" y="42.192923" transform="rotate(-0 137.371243 42.192923)">180</text>
     </g>
    </g>
    <g id="xtick_5">
     <g id="line2d_9">
      <path d="M 179.997239 30.614173 
L 179.997239 3.401575 
" clip-path="url(#pb389422585)" style="fill: none; stroke: #ffffff; stroke-width: 0.9; stroke-linecap: square"/>
     </g>
     <g id="line2d_10">
      <g>
       <use xlink:href="#mdf98c50f4f" x="179.997239" y="30.614173" style="stroke: #000000; stroke-width: 0.4"/>
      </g>
     </g>
     <g id="text_5">
      <text style="font-size: 8px; font-family: 'DejaVu Sans', 'Bitstream Vera Sans', 'Computer Modern Sans Serif', 'Lucida Grande', 'Verdana', 'Geneva', 'Lucid', 'Arial', 'Helvetica', 'Avant Garde', sans-serif; text-anchor: middle" x="179.997239" y="42.192923" transform="rotate(-0 179.997239 42.192923)">240</text>
     </g>
    </g>
    <g id="xtick_6">
     <g id="line2d_11">
      <path d="M 30.806254 30.614173 
L 30.806254 3.401575 
" clip-path="url(#pb389422585)" style="fill: none; stroke: #ffffff; stroke-opacity: 0.9; stroke-width: 0.55; stroke-linecap: square"/>
     </g>
     <g id="line2d_12">
      <defs>
       <path id="mb9ddfe473d" d="M 0 0 
L 0 2 
" style="stroke: #000000; stroke-width: 0.6"/>
      </defs>
      <g>
       <use xlink:href="#mb9ddfe473d" x="30.806254" y="30.614173" style="stroke: #000000; stroke-width: 0.6"/>
      </g>
     </g>
    </g>
    <g id="xtick_7">
     <g id="line2d_13">
      <path d="M 73.43225 30.614173 
L 73.43225 3.401575 
" clip-path="url(#pb389422585)" style="fill: none; stroke: #ffffff; stroke-opacity: 0.9; stroke-width: 0.55; stroke-linecap: square"/>
     </g>
     <g id="line2d_14">
      <g>
       <use xlink:href="#mb9ddfe473d" x="73.43225" y="30.614173" style="stroke: #000000; stroke-width: 0.6"/>
      </g>
     </g>
    </g>
    <g id="xtick_8">
     <g id="line2d_15">
      <path d="M 116.058246 30.614173 
L 116.058246 3.401575 
" clip-path="url(#pb389422585)" style="fill: none; stroke: #ffffff; stroke-opacity: 0.9; stroke-width: 0.55; stroke-linecap: square"/>
     </g>
     <g id="line2d_16">
      <g>
       <use xlink:href="#mb9ddfe473d" x="116.058246" y="30.614173" style="stroke: #000000; stroke-width: 0.6"/>
      </g>
     </g>
    </g>
    <g id="xtick_9">
     <g id="line2d_17">
      <path d="M 158.684241 30.614173 
L 158.684241 3.401575 
" clip-path="url(#pb389422585)" style="fill: none; stroke: #ffffff; stroke-opacity: 0.9; stroke-width: 0.55; stroke-linecap: square"/>
     </g>
     <g id="line2d_18">
      <g>
       <use xlink:href="#mb9ddfe473d" x="158.684241" y="30.614173" style="stroke: #000000; stroke-width: 0.6"/>
      </g>
     </g>
    </g>
    <g id="xtick_10">
     <g id="line2d_19">
      <path d="M 201.310237 30.614173 
L 201.310237 3.401575 
" clip-path="url(#pb389422585)" style="fill: none; stroke: #ffffff; stroke-opacity: 0.9; stroke-width: 0.55; stroke-linecap: square"/>
     </g>
     <g id="line2d_20">
      <g>
       <use xlink:href="#mb9ddfe473d" x="201.310237" y="30.614173" style="stroke: #000000; stroke-width: 0.6"/>
      </g>
     </g>
    </g>
    <g id="text_6">
     <text style="font-size: 8px; font-family: 'DejaVu Sans', 'Bitstream Vera Sans', 'Computer Modern Sans Serif', 'Lucida Grande', 'Verdana', 'Geneva', 'Lucid', 'Arial', 'Helvetica', 'Avant Garde', sans-serif; text-anchor: middle" x="108.425197" y="53.935423" transform="rotate(-0 108.425197 53.935423)">time</text>
    </g>
   </g>
   <g id="matplotlib.axis_2">
    <g id="ytick_1">
     <g id="line2d_21">
      <path d="M 8.503937 23.600307 
L 208.346457 23.600307 
" clip-path="url(#pb389422585)" style="fill: none; stroke: #ffffff; stroke-width: 0.9; stroke-linecap: square"/>
     </g>
    </g>
    <g id="ytick_2">
     <g id="line2d_22">
      <path d="M 8.503937 13.762654 
L 208.346457 13.762654 
" clip-path="url(#pb389422585)" style="fill: none; stroke: #ffffff; stroke-width: 0.9; stroke-linecap: square"/>
     </g>
    </g>
    <g id="ytick_3">
     <g id="line2d_23">
      <path d="M 8.503937 3.925001 
L 208.346457 3.925001 
" clip-path="url(#pb389422585)" style="fill: none; stroke: #ffffff; stroke-width: 0.9; stroke-linecap: square"/>
     </g>
    </g>
    <g id="ytick_4">
     <g id="line2d_24">
      <path d="M 8.503937 28.519134 
L 208.346457 28.519134 
" clip-path="url(#pb389422585)" style="fill: none; stroke: #ffffff; stroke-opacity: 0.9; stroke-width: 0.55; stroke-linecap: square"/>
     </g>
     <g id="line2d_25">
      <defs>
       <path id="m9d181f52dc" d="M 0 0 
L -2 0 
" style="stroke: #000000; stroke-width: 0.6"/>
      </defs>
      <g>
       <use xlink:href="#m9d181f52dc" x="8.503937" y="28.519134" style="stroke: #000000; stroke-width: 0.6"/>
      </g>
     </g>
    </g>
    <g id="ytick_5">
     <g id="line2d_26">
      <path d="M 8.503937 18.681481 
L 208.346457 18.681481 
" clip-path="url(#pb389422585)" style="fill: none; stroke: #ffffff; stroke-opacity: 0.9; stroke-width: 0.55; stroke-linecap: square"/>
     </g>
     <g id="line2d_27">
      <g>
       <use xlink:href="#m9d181f52dc" x="8.503937" y="18.681481" style="stroke: #000000; stroke-width: 0.6"/>
      </g>
     </g>
    </g>
    <g id="ytick_6">
     <g id="line2d_28">
      <path d="M 8.503937 8.843828 
L 208.346457 8.843828 
" clip-path="url(#pb389422585)" style="fill: none; stroke: #ffffff; stroke-opacity: 0.9; stroke-width: 0.55; stroke-linecap: square"/>
     </g>
     <g id="line2d_29">
      <g>
       <use xlink:href="#m9d181f52dc" x="8.503937" y="8.843828" style="stroke: #000000; stroke-width: 0.6"/>
      </g>
     </g>
    </g>
   </g>
   <g id="line2d_30">
    <path d="M 9.493256 9.768106 
L 9.564371 9.73676 
L 9.919943 8.191314 
L 10.085876 6.766862 
L 10.275514 6.672824 
L 10.915544 7.818768 
L 11.508164 4.999858 
L 11.626687 4.999858 
L 11.816326 6.825894 
L 11.93485 6.825894 
L 12.053374 6.237025 
L 12.290422 6.201965 
L 12.527469 5.880799 
L 12.930451 5.888452 
L 13.048975 5.162157 
L 13.167499 5.162157 
L 13.404547 6.345356 
L 13.594185 6.345356 
L 13.760119 5.892786 
L 14.352739 5.728741 
L 14.471262 7.265408 
L 14.589786 7.265408 
L 14.70831 6.57226 
L 15.419454 6.478336 
L 15.537978 6.697924 
L 15.727616 6.617336 
L 15.964664 6.529208 
L 16.083188 6.429375 
L 16.249122 6.287504 
L 16.48617 5.498293 
L 16.604693 5.535547 
L 16.794331 7.42692 
L 16.960265 7.472672 
L 17.315837 7.326693 
L 17.434361 7.413245 
L 17.671409 7.884442 
L 18.738124 7.990128 
L 18.975173 8.254962 
L 19.567792 7.382912 
L 19.80484 5.53414 
L 19.875954 5.53414 
L 19.994478 6.659712 
L 20.113002 11.567524 
L 20.231526 11.567524 
L 20.515984 9.212832 
L 20.871556 9.035395 
L 21.061194 8.865611 
L 21.108604 8.865611 
L 21.298242 9.073156 
L 21.701223 9.06871 
L 21.98568 10.257142 
L 22.104205 7.131247 
L 22.222729 6.921 
L 22.412367 5.868474 
L 22.530891 4.638511 
L 22.649415 4.638511 
L 22.815349 5.945629 
L 22.933872 5.98097 
L 23.407968 6.936139 
L 23.71613 6.911265 
L 23.834654 7.151168 
L 24.119111 7.20373 
L 24.30875 7.467551 
L 24.474683 7.467551 
L 24.664322 7.036422 
L 24.830255 7.036422 
L 24.94878 7.453426 
L 25.138418 7.453426 
L 25.256941 7.304858 
L 25.375466 7.262595 
L 25.49399 7.041544 
L 25.731038 7.041544 
L 25.849561 11.425034 
L 25.968085 11.425034 
L 26.205133 9.680034 
L 26.371067 9.709241 
L 26.608114 9.945881 
L 26.726639 9.977845 
L 26.845163 10.477124 
L 26.963686 10.477124 
L 27.082211 9.90283 
L 27.390372 9.90283 
L 27.556306 7.507057 
L 28.030402 7.609423 
L 28.220041 7.676109 
L 28.26745 7.676109 
L 28.457088 7.831824 
L 28.504498 7.831824 
L 28.623022 8.237854 
L 28.741546 8.237854 
L 28.81266 8.438365 
L 28.86007 8.385578 
L 28.978594 8.385578 
L 29.097117 8.683277 
L 29.215642 9.774577 
L 29.334165 9.774577 
L 29.452689 9.264944 
L 29.571214 9.264944 
L 29.642328 9.583183 
L 29.760852 12.032869 
L 29.879375 12.032869 
L 30.116424 10.35343 
L 30.282357 10.271774 
L 30.400881 10.219663 
L 30.756453 9.8093 
L 30.946091 9.73766 
L 30.993501 9.73766 
L 31.112025 10.58962 
L 31.230548 11.018329 
L 31.349073 11.018329 
L 31.467597 10.586693 
L 31.58612 10.586693 
L 31.704645 10.868072 
L 31.823168 10.868072 
L 32.012807 9.475021 
L 32.249855 9.484645 
L 32.415788 10.059896 
L 32.77136 10.866834 
L 32.889884 10.666492 
L 33.079522 10.605321 
L 33.198046 9.963101 
L 33.719551 10.052974 
L 34.241057 10.616126 
L 34.312171 10.616126 
L 34.549219 10.263276 
L 34.715153 10.191074 
L 35.141839 10.167213 
L 35.307773 9.945543 
L 35.734459 9.835862 
L 35.852982 9.82123 
L 35.971507 9.568439 
L 36.13744 9.467649 
L 36.208554 9.357742 
L 36.445602 11.936862 
L 36.611536 15.292926 
L 36.73006 15.814095 
L 36.848584 15.814095 
L 37.085632 13.772072 
L 37.156746 13.772072 
L 37.27527 14.202976 
L 37.32268 14.202976 
L 37.393794 14.340176 
L 37.441204 14.202976 
L 37.512318 13.959639 
L 37.678252 11.60703 
L 37.986414 12.692534 
L 38.152347 15.239857 
L 38.223462 15.25297 
L 38.626443 17.351044 
L 38.934605 17.574121 
L 39.053129 17.338382 
L 39.100539 17.326338 
L 39.456111 15.638121 
L 39.574635 15.638121 
L 39.764273 16.007516 
L 40.04873 16.004702 
L 40.238369 14.835347 
L 40.356893 14.751721 
L 40.522827 15.248299 
L 40.759874 19.867584 
L 41.115446 19.934609 
L 41.23397 20.254819 
L 41.352494 20.254819 
L 41.589542 17.003259 
L 41.660656 17.003259 
L 41.708066 17.141417 
L 41.77918 17.762982 
L 41.945114 20.624775 
L 42.063638 20.624775 
L 42.490324 14.947336 
L 42.656258 11.602134 
L 42.845896 11.661167 
L 43.130353 12.886122 
L 43.367401 14.046473 
L 43.557039 14.583119 
L 43.722973 14.989374 
L 43.960021 14.989374 
L 44.031135 14.940526 
L 44.197069 14.329934 
L 44.315592 14.110627 
L 44.434117 13.681299 
L 44.623755 12.020432 
L 44.671164 11.93236 
L 44.860803 7.177393 
L 44.979327 7.009579 
L 45.074146 6.741425 
L 45.145261 6.710641 
L 45.311194 6.345356 
L 45.548242 6.335902 
L 45.73788 6.163922 
L 45.78529 6.290093 
L 45.856404 6.163922 
L 46.022337 6.007701 
L 46.211976 6.007701 
L 46.496434 7.484828 
L 46.614957 7.495576 
L 46.733481 7.793275 
L 46.92312 9.116094 
L 46.970529 9.229265 
L 47.207577 16.186698 
L 47.515739 24.574098 
L 47.634263 25.365843 
L 47.752787 24.966341 
L 47.918721 25.537314 
L 48.108359 23.243569 
L 48.345407 17.344628 
L 48.463931 17.344628 
L 48.700979 12.090608 
L 49.222484 12.158645 
L 49.293598 12.467712 
L 49.578056 24.49233 
L 49.64917 24.49233 
L 49.933628 20.505527 
L 50.123266 25.095382 
L 50.289199 25.281767 
L 50.644771 25.309173 
L 50.83441 21.562668 
L 51.000343 18.530922 
L 51.071458 18.355285 
L 51.237391 16.012918 
L 51.355915 16.012918 
L 51.474439 24.910965 
L 51.592963 24.910965 
L 51.782601 14.370284 
L 51.901126 13.33132 
L 51.948535 13.33132 
L 52.067059 12.089538 
L 52.493745 12.193255 
L 52.541155 12.239007 
L 52.778202 12.652071 
L 53.133774 12.652071 
L 53.323413 12.47953 
L 53.441937 12.567826 
L 53.489346 12.47953 
L 53.56046 12.567826 
L 53.607871 12.789778 
L 53.678985 12.721741 
L 53.797509 12.626747 
L 54.15308 13.158947 
L 54.271604 13.193276 
L 54.319014 13.362384 
L 54.674586 12.588817 
L 54.911633 12.518585 
L 54.982748 13.129178 
L 55.101272 25.347328 
L 55.33832 25.347328 
L 55.504253 25.135843 
L 55.622777 24.83775 
L 55.93094 23.303335 
L 56.049463 23.303335 
L 56.215397 22.047484 
L 56.286512 21.542578 
L 56.452445 14.677099 
L 56.642083 12.306538 
L 56.760607 12.386337 
L 56.879132 12.035514 
L 56.926541 12.035514 
L 57.210998 5.099184 
L 57.56657 6.144451 
L 57.637685 6.144451 
L 57.803618 6.843509 
L 57.993256 6.843509 
L 58.040666 6.843509 
L 58.348828 6.193355 
L 58.467352 6.193355 
L 58.585876 6.365671 
L 58.751809 6.145464 
L 58.941448 6.627297 
L 58.988858 6.228864 
L 59.178496 6.646487 
L 59.344429 6.646487 
L 59.652592 7.055668 
L 59.937049 10.188655 
L 60.055573 10.188655 
L 60.363736 9.928604 
L 60.719307 9.130613 
L 60.885241 8.599539 
L 61.003765 8.695377 
L 61.122289 11.096777 
L 61.430451 11.096777 
L 61.596384 11.29076 
L 62.02307 11.533083 
L 62.189004 12.228258 
L 62.971262 12.118577 
L 63.137196 11.728473 
L 63.80093 11.823579 
L 64.085387 11.846427 
L 64.39355 11.644115 
L 64.512073 11.764546 
L 64.630598 12.094772 
L 64.749121 12.167481 
L 64.867645 12.299391 
L 64.915055 12.299391 
L 65.104693 12.745095 
L 65.270627 13.025574 
L 65.934361 12.98438 
L 65.981771 12.831478 
L 66.100295 9.167699 
L 66.289933 9.058749 
L 66.526981 9.081372 
L 66.764029 9.596127 
L 66.929962 9.596127 
L 67.16701 8.901571 
L 67.285534 8.884519 
L 67.71222 8.326488 
L 67.830744 8.610231 
L 67.996677 9.311822 
L 68.115202 12.165567 
L 68.233726 12.165567 
L 68.30484 11.276241 
L 68.470774 6.044506 
L 68.589297 6.044506 
L 68.826346 7.050098 
L 69.110803 6.119634 
L 69.229327 6.119634 
L 69.418965 6.833886 
L 69.703422 7.440989 
L 69.893061 8.100204 
L 70.177519 8.100204 
L 70.367157 7.949272 
L 70.414566 7.928337 
L 70.604205 7.650391 
L 70.770138 7.488598 
L 70.959777 7.159104 
L 71.0783 7.159104 
L 71.244234 7.591864 
L 72.429473 7.664741 
L 73.211731 8.077299 
L 73.496189 7.780163 
L 73.733237 7.685507 
L 74.088809 7.640824 
L 74.562904 7.724788 
L 75.155524 7.886412 
L 76.056306 7.886187 
L 76.22224 7.702277 
L 76.530402 7.621972 
L 76.648926 7.721355 
L 76.885974 7.881628 
L 77.051907 8.025188 
L 77.288956 8.031435 
L 77.407479 7.833906 
L 77.597117 7.179644 
L 77.952689 7.079417 
L 78.118623 6.500452 
L 78.308261 6.241245 
L 78.782357 5.816701 
L 79.066815 6.695109 
L 79.422387 6.994047 
L 79.659434 6.551663 
L 79.896482 5.70927 
L 80.015006 5.447475 
L 80.08612 5.447475 
L 80.13353 5.824467 
L 80.204645 5.447475 
L 80.370578 6.163134 
L 80.489102 6.10337 
L 80.560217 6.028411 
L 80.607626 6.10337 
L 81.081721 6.199039 
L 81.247655 6.199039 
L 81.437293 6.93884 
L 81.674341 8.080732 
L 81.958799 8.541349 
L 82.195847 8.648836 
L 82.314371 8.990656 
L 82.978105 9.026334 
L 83.144038 8.83117 
L 84.281868 8.805621 
L 84.447802 8.415967 
L 84.803374 8.437183 
L 85.158946 8.683952 
L 85.277469 8.759081 
L 85.633041 8.910519 
L 85.751566 8.910519 
L 85.941204 9.051715 
L 86.225661 9.127687 
L 86.344185 9.327917 
L 86.770871 9.973062 
L 86.818281 9.955448 
L 87.173853 9.132246 
L 87.363491 8.829763 
L 87.529425 7.184146 
L 87.766472 6.961407 
L 87.884997 7.015319 
L 88.00352 7.218418 
L 88.193158 7.2066 
L 88.359092 7.08994 
L 88.59614 7.249989 
L 88.951712 7.225903 
L 89.496922 6.374563 
L 89.662856 6.374563 
L 89.899903 6.522399 
L 90.136951 7.188198 
L 90.326589 7.282685 
L 90.445114 7.479144 
L 90.729571 7.468845 
L 90.966619 7.077729 
L 91.274781 7.077729 
L 91.393305 6.817565 
L 91.677762 6.904849 
L 91.914811 6.926122 
L 92.388906 6.866976 
L 92.55484 7.193826 
L 92.863002 7.311329 
L 93.265984 7.234851 
L 93.337098 7.188254 
L 93.455622 6.943961 
L 93.740079 7.054205 
L 94.451223 6.971199 
L 94.569747 6.904569 
L 94.925319 6.618406 
L 94.996434 6.666127 
L 95.043843 6.589593 
L 95.352005 6.762866 
L 95.399415 6.800739 
L 95.636463 7.34684 
L 95.707577 7.34684 
L 96.229082 6.045856 
L 96.300197 6.045856 
L 96.537245 11.48131 
L 96.584654 11.48131 
L 96.774293 10.832731 
L 96.892816 10.638355 
L 97.01134 6.365391 
L 97.129865 6.365391 
L 97.295798 7.32568 
L 97.414322 7.515892 
L 98.006941 6.213839 
L 98.24399 6.309565 
L 98.362513 6.650371 
L 98.599561 6.567645 
L 98.789199 6.509175 
L 98.907724 6.615367 
L 98.955133 6.567645 
L 99.026248 6.509175 
L 99.144771 6.678171 
L 99.310705 6.365333 
L 99.547753 6.57136 
L 99.737391 7.669356 
L 99.974439 9.138661 
L 100.092963 9.138661 
L 100.567059 8.107182 
L 100.732992 9.521956 
L 101.041155 18.763848 
L 101.207088 25.434443 
L 101.633774 26.827831 
L 101.681184 26.827831 
L 102.10787 25.721731 
L 102.15528 24.866226 
L 102.510852 12.593038 
L 102.7479 12.593038 
L 102.937538 12.896871 
L 103.056062 16.988966 
L 103.221995 25.395726 
L 103.530158 25.301801 
L 103.696091 22.59938 
L 103.88573 22.48863 
L 103.933139 22.48863 
L 104.122777 23.647405 
L 104.241302 23.647405 
L 104.691692 13.371501 
L 104.810217 13.485685 
L 105.047264 13.766051 
L 105.165788 19.079161 
L 105.355426 24.524576 
L 105.52136 24.524576 
L 105.710998 23.591298 
L 106.06657 22.429091 
L 106.588076 8.810798 
L 106.896238 8.328233 
L 107.014762 8.415629 
L 107.062171 8.485468 
L 107.251809 9.185876 
L 107.417743 9.142656 
L 107.654791 8.626664 
L 107.725906 8.582037 
L 108.010363 7.837677 
L 108.081478 7.837677 
L 108.484459 12.465911 
L 108.555573 12.465911 
L 108.958554 6.845028 
L 109.314126 6.40287 
L 109.432651 6.820154 
L 109.551174 6.891062 
L 109.669698 7.046271 
L 109.859337 7.588094 
L 110.02527 7.758666 
L 110.143794 8.109996 
L 110.262318 8.732913 
L 110.380842 8.732913 
L 110.57048 8.404431 
L 110.807528 8.32525 
L 110.854938 8.280849 
L 111.21051 7.511559 
L 111.281624 7.511559 
L 111.400148 7.929632 
L 111.518672 7.929632 
L 111.684605 6.939403 
L 111.803129 6.829609 
L 111.992768 6.729494 
L 112.111292 6.39319 
L 112.229815 6.39319 
L 112.514273 7.189211 
L 112.869845 9.76169 
L 113.059483 10.245719 
L 113.296531 10.245719 
L 113.343941 10.389165 
L 113.533579 10.202836 
L 113.699513 6.582895 
L 114.600294 6.396679 
L 114.837343 5.856713 
L 115.003276 5.856713 
L 115.1218 6.412437 
L 115.240324 6.412437 
L 115.477372 5.836735 
L 115.66701 6.00258 
L 116.022582 6.103539 
L 116.141106 6.222787 
L 116.307039 6.690046 
L 116.472973 6.763823 
L 116.591497 7.210596 
L 116.662611 7.21279 
L 116.899659 7.600643 
L 117.065592 7.600756 
L 117.184117 7.834863 
L 117.302641 7.610379 
L 117.421164 8.160194 
L 117.539689 12.734459 
L 117.776736 12.759614 
L 118.132308 8.995101 
L 118.321947 8.691269 
L 118.44047 6.531685 
L 118.558994 5.282025 
L 118.724928 5.292886 
L 118.961976 7.699238 
L 119.199023 7.758722 
L 119.67312 6.830903 
L 119.862758 7.093486 
L 120.099806 7.279027 
L 120.265739 7.542004 
L 120.692425 7.512516 
L 121.095407 17.993207 
L 121.213931 18.5917 
L 121.522093 18.5917 
L 121.640617 18.905831 
L 121.759141 17.683577 
L 121.806551 17.683577 
L 121.877665 17.406644 
L 121.925075 16.594585 
L 122.162123 7.721299 
L 122.280646 7.289382 
L 122.470284 7.476724 
L 122.588809 7.476724 
L 122.707333 9.448403 
L 122.873266 11.910525 
L 122.944381 12.001129 
L 123.110314 14.175907 
L 123.228838 14.301515 
L 123.418476 15.052966 
L 123.537 15.141825 
L 123.655524 15.480662 
L 124.011096 15.480662 
L 124.295554 14.941821 
L 124.414077 14.971928 
L 124.769649 15.607957 
L 124.959287 14.8968 
L 125.551907 14.94908 
L 125.717841 15.447571 
L 125.907479 15.447571 
L 126.073413 14.892411 
L 126.263051 14.892411 
L 126.428985 15.172833 
L 126.784557 22.421662 
L 126.855671 22.421662 
L 126.90308 22.181027 
L 127.092718 20.058303 
L 127.140129 20.023131 
L 127.329767 14.340233 
L 127.44829 14.114792 
L 127.4957 14.114792 
L 127.851272 14.950487 
L 127.969796 13.777981 
L 128.206844 7.791531 
L 128.254253 7.692823 
L 128.372777 7.043007 
L 128.491302 7.043007 
L 128.68094 7.2326 
L 128.728349 7.2326 
L 129.036511 6.726905 
L 129.083921 6.726905 
L 129.202445 12.027804 
L 129.320969 12.364952 
L 129.439493 13.790193 
L 129.629131 13.825534 
L 129.866179 14.113103 
L 130.103227 19.06301 
L 139.229571 12.724611 
L 139.395504 13.145723 
L 139.822191 20.496354 
L 140.225173 20.612732 
L 140.50963 21.835437 
L 140.817792 18.977977 
L 140.936316 18.991596 
L 140.983726 19.439494 
L 141.220774 25.632646 
L 141.457821 27.490422 
L 141.694869 27.529423 
L 141.884507 26.744318 
L 142.050441 17.737771 
L 142.240079 17.737771 
L 142.406013 26.38404 
L 142.524537 26.38404 
L 142.643061 25.277658 
L 142.832699 25.325999 
L 143.23568 27.429363 
L 143.425319 27.306682 
L 143.591252 26.004742 
L 143.8283 25.948916 
L 144.017938 26.656528 
L 144.136463 26.812355 
L 144.254987 26.907519 
L 144.42092 27.123897 
L 144.492035 27.14112 
L 144.657968 27.435103 
L 144.847607 27.435103 
L 144.96613 26.722032 
L 145.084654 26.725635 
L 145.132064 26.856025 
L 145.440226 28.46298 
L 145.60616 28.529104 
L 145.677274 28.529104 
L 145.843208 27.555364 
L 145.961731 25.480308 
L 146.080255 19.730103 
L 146.151369 19.730103 
L 146.317303 27.205386 
L 146.388418 27.205386 
L 146.554351 27.481363 
L 146.862513 27.439155 
L 147.265495 23.78725 
L 147.455133 23.78725 
L 148.047753 29.364631 
L 148.213686 29.161364 
L 148.332211 29.246789 
L 148.403325 29.377237 
L 148.521849 28.529162 
L 148.569258 28.529162 
L 148.758897 27.652722 
L 148.995944 27.254739 
L 149.114469 26.471943 
L 149.232992 26.471943 
L 149.351516 28.486393 
L 149.470041 28.486393 
L 149.51745 28.327469 
L 149.754498 24.237231 
L 149.873022 24.237231 
L 149.991545 21.388664 
L 150.11007 21.388664 
L 150.181184 21.855077 
L 150.299708 23.218808 
L 150.418232 23.218808 
L 150.65528 12.982523 
L 150.773804 12.016718 
L 150.821214 12.016718 
L 151.2479 12.607838 
L 151.295309 12.461071 
L 151.413833 8.233465 
L 151.532357 8.233465 
L 151.603472 10.56801 
L 151.721995 19.207469 
L 151.816815 19.207469 
L 151.935338 19.425763 
L 152.006453 19.425763 
L 152.053862 20.112497 
L 152.172387 24.057374 
L 152.243501 24.057374 
L 152.362025 24.635833 
L 152.409434 24.635833 
L 152.599073 19.771409 
L 152.717597 19.704159 
L 152.83612 17.636925 
L 153.002054 17.682114 
L 153.191692 26.266423 
L 153.310216 27.987508 
L 153.547264 28.508676 
L 153.665788 28.508676 
L 153.713198 28.360841 
L 154.06877 19.620534 
L 154.258408 23.144918 
L 154.424341 24.70387 
L 154.542865 25.019296 
L 154.66139 25.679861 
L 154.779913 25.679861 
L 154.851028 24.578207 
L 155.135485 11.944347 
L 155.325123 11.807372 
L 155.372533 11.944347 
L 155.680695 25.93344 
L 155.799219 26.229788 
L 155.846629 25.93344 
L 156.036267 22.655094 
L 156.083677 21.669085 
L 156.273315 11.775013 
L 156.510363 11.780978 
L 156.557772 12.38538 
L 156.747411 26.17115 
L 156.913344 26.399065 
L 157.031868 26.399065 
L 157.150392 25.779526 
L 157.458554 25.779526 
L 158.051174 22.356325 
L 158.288222 12.670417 
L 158.406746 12.670417 
L 158.52527 13.278365 
L 158.643794 25.900575 
L 158.809727 28.082726 
L 159.11789 29.312577 
L 159.354938 29.34094 
L 159.402347 28.626011 
L 159.639395 20.071978 
L 159.876443 18.343467 
L 160.066082 13.001206 
L 160.232015 12.307382 
L 160.303129 12.265457 
L 160.350539 11.872652 
L 160.469063 9.880882 
L 160.587586 9.880882 
L 160.706111 10.620459 
L 160.824635 10.620459 
L 161.061683 5.472969 
L 161.251321 5.472969 
L 161.488369 6.47873 
L 161.654302 6.47873 
L 161.89135 6.1023 
L 162.080988 6.742268 
L 162.246922 6.949926 
L 162.365446 6.985212 
L 162.555085 7.512178 
L 162.673608 7.620734 
L 162.721018 8.044659 
L 162.958066 14.537423 
L 163.313638 16.19739 
L 163.384752 16.49644 
L 163.669209 20.105913 
L 163.716619 20.105913 
L 163.835143 19.564089 
L 164.072191 15.358374 
L 164.261829 15.358374 
L 164.735925 21.150167 
L 164.783334 21.150167 
L 164.972973 19.267685 
L 165.138906 19.161493 
L 165.257431 19.100658 
L 165.447069 19.161493 
L 165.494478 19.120355 
L 165.613002 19.467633 
L 165.684117 19.467633 
L 165.921164 19.991448 
L 166.087098 21.007226 
L 166.158212 21.142063 
L 166.324146 22.010511 
L 166.44267 22.010511 
L 166.679718 19.701909 
L 166.798242 19.701909 
L 166.98788 19.870849 
L 167.03529 19.870849 
L 167.272337 17.809522 
L 167.343452 17.793034 
L 167.509385 17.141079 
L 167.699023 16.400602 
L 167.864957 14.934561 
L 167.983481 14.934561 
L 168.102005 15.228433 
L 168.220529 16.788624 
L 168.457577 16.788624 
L 168.694625 15.299228 
L 168.813149 15.299228 
L 169.050196 18.307226 
L 169.405768 22.317889 
L 169.524293 22.275401 
L 169.76134 18.554558 
L 169.998388 18.552757 
L 170.069503 18.707234 
L 170.306551 21.840333 
L 170.425075 21.840333 
L 170.543598 21.262661 
L 170.591008 21.262661 
L 170.780646 16.725932 
L 170.828056 16.725932 
L 171.136218 19.505731 
L 171.373266 19.505731 
L 171.420676 18.960362 
L 171.610314 15.354041 
L 171.847362 15.111999 
L 171.965886 15.111999 
L 172.321457 18.024102 
L 172.605915 21.322708 
L 172.724439 21.322708 
L 173.080011 18.35596 
L 173.317059 18.762103 
L 173.554107 20.712791 
L 173.67263 20.712791 
L 173.791155 19.494926 
L 174.217841 14.611932 
L 174.454889 14.597751 
L 174.502299 14.689255 
L 174.620822 17.640808 
L 174.85787 23.725797 
L 175.047509 23.99609 
L 176.04311 23.901828 
L 176.161633 23.858721 
L 176.327567 23.901828 
L 176.446091 23.823154 
L 176.63573 22.099258 
L 176.801663 19.365604 
L 177.157235 19.11664 
L 178.176541 19.012418 
L 178.460998 19.048659 
L 178.698046 19.818343 
L 179.006208 23.198268 
L 179.243256 23.410315 
L 179.40919 23.296582 
L 179.598828 22.49437 
L 179.717352 21.864701 
L 179.883286 20.829226 
L 180.120334 20.227525 
L 180.309972 20.301808 
L 180.357381 20.65961 
L 180.54702 23.061462 
L 180.831477 22.975866 
L 181.021116 22.533032 
L 181.187049 20.932661 
L 181.258164 20.845545 
L 181.424097 20.316778 
L 181.613736 20.316778 
L 181.732259 20.477389 
L 181.850783 20.477389 
L 181.969307 19.788236 
L 182.087831 18.958393 
L 182.206355 16.87028 
L 182.324879 16.87028 
L 182.798975 20.024144 
L 182.846384 20.024144 
L 182.917499 19.391548 
L 183.083432 16.657107 
L 183.27307 16.435043 
L 183.439004 16.079548 
L 183.628642 16.075159 
L 183.794576 14.771587 
L 183.9131 14.771587 
L 184.268672 15.498163 
L 184.50572 17.237423 
L 184.576834 17.295162 
L 184.695358 18.384718 
L 184.813882 18.444088 
L 184.932406 18.489728 
L 185.09834 18.518485 
L 185.216863 19.089178 
L 185.335387 19.089178 
L 185.572435 16.257267 
L 185.762073 16.257267 
L 185.928007 18.444595 
L 186.046531 18.444595 
L 186.283579 16.8328 
L 186.710265 14.667026 
L 186.947313 14.634836 
L 187.113246 14.620599 
L 187.634752 13.862339 
L 187.753276 13.992504 
L 187.8718 14.813737 
L 187.990324 15.925296 
L 188.535534 16.40139 
L 188.582944 16.315457 
L 188.772582 15.211213 
L 188.891106 15.04216 
L 189.412611 15.27306 
L 189.768183 18.108854 
L 189.839297 17.883075 
L 190.005231 18.53835 
L 190.076346 18.493611 
L 190.194869 17.477326 
L 190.479327 14.681883 
L 190.550441 14.681883 
L 190.716375 15.005694 
L 190.834899 15.005694 
L 191.071947 14.629547 
L 191.380108 14.678 
L 191.854205 21.878488 
L 192.020138 21.960369 
L 192.091252 21.960369 
L 192.209777 20.733782 
L 192.37571 20.768279 
L 192.494234 21.2908 
L 192.731281 24.149272 
L 192.96833 24.422379 
L 193.086853 24.912598 
L 193.205378 24.912598 
L 193.395016 24.248092 
L 193.442425 24.224794 
L 193.56095 23.45224 
L 193.750588 17.53529 
L 193.869111 17.116599 
L 194.035045 15.935764 
L 194.509141 14.219127 
L 194.627665 14.041014 
L 194.983237 15.204066 
L 195.291399 21.468519 
L 195.409923 21.655186 
L 195.528447 21.655186 
L 195.765495 20.884038 
L 195.931428 20.884038 
L 196.121067 21.400876 
L 196.358114 21.443926 
L 196.405524 21.696323 
L 196.595162 24.412136 
L 196.713686 24.412136 
L 196.950734 19.706917 
L 197.116668 15.292081 
L 197.187782 15.292081 
L 197.306306 15.172101 
L 197.543354 15.963564 
L 197.590764 16.243986 
L 197.709287 18.301767 
L 197.780402 18.406215 
L 197.946335 19.259862 
L 198.183384 20.481891 
L 198.254498 20.481891 
L 198.373022 18.670598 
L 198.728594 14.321549 
L 198.776003 14.321549 
L 199.084165 15.325847 
L 199.131575 15.325847 
L 199.297509 15.048801 
L 199.534557 15.098943 
L 199.771604 15.815446 
L 200.079767 20.570075 
L 200.19829 20.570075 
L 200.316815 20.778015 
L 200.435338 20.788482 
L 200.553862 20.96727 
L 200.672387 20.987586 
L 200.83832 21.102388 
L 200.956844 21.069354 
L 201.075368 19.61046 
L 201.193891 19.61046 
L 201.312416 20.836429 
L 201.667988 20.875991 
L 201.857626 21.321977 
L 202.142083 21.21117 
L 202.616179 20.977399 
L 202.734703 21.034745 
L 202.924341 21.152924 
L 203.208799 21.043355 
L 203.398437 20.971379 
L 203.919943 18.882308 
L 204.109581 18.919732 
L 204.228105 19.603989 
L 204.346629 19.603989 
L 204.465152 16.673539 
L 204.631086 16.741239 
L 204.986658 18.723779 
L 205.057772 18.925865 
L 205.105182 18.772964 
L 205.294821 18.723779 
L 205.413344 18.213076 
L 205.579278 18.15967 
L 205.768916 18.168675 
L 205.93485 18.428331 
L 206.005964 18.43621 
L 206.171897 18.705996 
L 206.527469 18.738861 
L 206.764517 18.324952 
L 207.001565 19.028287 
L 207.07268 19.028287 
L 207.120089 18.874148 
L 207.357137 16.863414 
L 207.357137 16.863414 
" clip-path="url(#pb389422585)" style="fill: none; stroke: #5c80b5; stroke-width: 0.5; stroke-linecap: square"/>
   </g>
   <g id="patch_3">
    <path d="M 8.503937 30.614173 
L 208.346457 30.614173 
" style="fill: none; stroke: #000000; stroke-width: 0.4; stroke-linejoin: miter; stroke-linecap: square"/>
   </g>
   <g id="patch_4">
    <path d="M 8.503937 3.401575 
L 208.346457 3.401575 
" style="fill: none; stroke: #000000; stroke-width: 0.4; stroke-linejoin: miter; stroke-linecap: square"/>
   </g>
  </g>
 </g>
 <defs>
  <clipPath id="pb389422585">
   <rect x="8.503937" y="3.401575" width="199.84252" height="27.212598"/>
  </clipPath>
 </defs>
</svg>
