<?xml version="1.0" encoding="utf-8" standalone="no"?>
<!DOCTYPE svg PUBLIC "-//W3C//DTD SVG 1.1//EN"
  "http://www.w3.org/Graphics/SVG/1.1/DTD/svg11.dtd">
<svg xmlns:xlink="http://www.w3.org/1999/xlink" width="212.598425pt" height="42.519685pt" viewBox="0 0 212.598425 42.519685" xmlns="http://www.w3.org/2000/svg" version="1.1">
 <metadata>
  <rdf:RDF xmlns:dc="http://purl.org/dc/elements/1.1/" xmlns:cc="http://creativecommons.org/ns#" xmlns:rdf="http://www.w3.org/1999/02/22-rdf-syntax-ns#">
   <cc:Work>
    <dc:type rdf:resource="http://purl.org/dc/dcmitype/StillImage"/>
    <dc:date>2026-06-01T17:59:29.499465</dc:date>
    <dc:format>image/svg+xml</dc:format>
    <dc:creator>
     <cc:Agent>
      <dc:title>Matplotlib v3.10.8, https://matplotlib.org/</dc:title>
     </cc:Agent>
    </dc:creator>
   </cc:Work>
  </rdf:RDF>
 </metadata>
 <defs>
  <style type="text/css">*{stroke-linejoin: round; stroke-linecap: butt}</style>
 </defs>
 <g id="figure_1">
  <g id="patch_1">
   <path d="M 0 42.519685 
L 212.598425 42.519685 
L 212.598425 0 
L 0 0 
z
" style="fill: #ffffff"/>
  </g>
  <g id="axes_1">
   <g id="patch_2">
    <path d="M 8.503937 30.614173 
L 208.346457 30.614173 
L 208.346457 3.401575 
L 8.503937 3.401575 
z
" style="fill: #eaeaf2"/>
   </g>
   <g id="matplotlib.axis_1">
    <g id="xtick_1">
     <g id="line2d_1">
      <path d="M 9.493256 30.614173 
L 9.493256 3.401575 
" clip-path="url(#p26f2e6a15d)" style="fill: none; stroke: #ffffff; stroke-width: 0.9; stroke-linecap: square"/>
     </g>
     <g id="line2d_2">
      <defs>
       <path id="md251efc338" d="M 0 0 
L 0 2 
" style="stroke: #000000; stroke-width: 0.4"/>
      </defs>
      <g>
       <use xlink:href="#md251efc338" x="9.493256" y="30.614173" style="stroke: #000000; stroke-width: 0.4"/>
      </g>
     </g>
     <g id="text_1">
      <text style="font-size: 8px; font-family: 'DejaVu Sans', 'Bitstream Vera Sans', 'Computer Modern Sans Serif', 'Lucida Grande', 'Verdana', 'Geneva', 'Lucid', 'Arial', 'Helvetica', 'Avant Garde', sans-serif; text-anchor: middle" x="9.493256" y="42.192923" transform="rotate(-0 9.493256 42.192923)">0</text>
     </g>
    </g>
    <g id="xtick_2">
     <g id="line2d_3">
      <path d="M 52.119252 30.614173 
L 52.119252 3.401575 
" clip-path="url(#p26f2e6a15d)" style="fill: none; stroke: #ffffff; stroke-width: 0.9; stroke-linecap: square"/>
     </g>
     <g id="line2d_4">
      <g>
       <use xlink:href="#md251efc338" x="52.119252" y="30.614173" style="stroke: #000000; stroke-width: 0.4"/>
      </g>
     </g>
     <g id="text_2">
      <text style="font-size: 8px; font-family: 'DejaVu Sans', 'Bitstream Vera Sans', 'Computer Modern Sans Serif', 'Lucida Grande', 'Verdana', 'Geneva', 'Lucid', 'Arial', 'Helvetica', 'Avant Garde', sans-serif; text-anchor: middle" x="52.119252" y="42.192923" transform="rotate(-0 52.119252 42.192923)">60</text>
     </g>
    </g>
    <g id="xtick_3">
     <g id="line2d_5">
      <path d="M 94.745248 30.614173 
L 94.745248 3.401575 
" clip-path="url(#p26f2e6a15d)" style="fill: none; stroke: #ffffff; stroke-width: 0.9; stroke-linecap: square"/>
     </g>
     <g id="line2d_6">
      <g>
       <use xlink:href="#md251efc338" x="94.745248" y="30.614173" style="stroke: #000000; stroke-width: 0.4"/>
      </g>
     </g>
     <g id="text_3">
      <text style="font-size: 8px; font-family: 'DejaVu Sans', 'Bitstream Vera Sans', 'Computer Modern Sans Serif', 'Lucida Grande', 'Verdana', 'Geneva', 'Lucid', 'Arial', 'Helvetica', 'Avant Garde', sans-serif; text-anchor: middle" x="94.745248" y="42.192923" transform="rotate(-0 94.745248 42.192923)">120</text>
     </g>
    </g>
    <g id="xtick_4">
     <g id="line2d_7">
      <path d="M 137.371243 30.614173 
L 137.371243 3.401575 
" clip-path="url(#p26f2e6a15d)" style="fill: none; stroke: #ffffff; stroke-width: 0.9; stroke-linecap: square"/>
     </g>
     <g id="line2d_8">
      <g>
       <use xlink:href="#md251efc338" x="137.371243" y="30.614173" style="stroke: #000000; stroke-width: 0.4"/>
      </g>
     </g>
     <g id="text_4">
      <text style="font-size: 8px; font-family: 'DejaVu Sans', 'Bitstream Vera Sans', 'Computer Modern Sans Serif', 'Lucida Grande', 'Verdana', 'Geneva', 'Lucid', 'Arial', 'Helvetica', 'Avant Garde', sans-serif; text-anchor: middle" x="137.371243" y="42.192923" transform="rotate(-0 137.371243 42.192923)">180</text>
     </g>
    </g>
    <g id="xtick_5">
     <g id="line2d_9">
      <path d="M 179.997239 30.614173 
L 179.997239 3.401575 
" clip-path="url(#p26f2e6a15d)" style="fill: none; stroke: #ffffff; stroke-width: 0.9; stroke-linecap: square"/>
     </g>
     <g id="line2d_10">
      <g>
       <use xlink:href="#md251efc338" x="179.997239" y="30.614173" style="stroke: #000000; stroke-width: 0.4"/>
      </g>
     </g>
     <g id="text_5">
      <text style="font-size: 8px; font-family: 'DejaVu Sans', 'Bitstream Vera Sans', 'Computer Modern Sans Serif', 'Lucida Grande', 'Verdana', 'Geneva', 'Lucid', 'Arial', 'Helvetica', 'Avant Garde', sans-serif; text-anchor: middle" x="179.997239" y="42.192923" transform="rotate(-0 179.997239 42.192923)">240</text>
     </g>
    </g>
    <g id="xtick_6">
     <g id="line2d_11">
      <path d="M 30.806254 30.614173 
L 30.806254 3.401575 
" clip-path="url(#p26f2e6a15d)" style="fill: none; stroke: #ffffff; stroke-opacity: 0.9; stroke-width: 0.55; stroke-linecap: square"/>
     </g>
     <g id="line2d_12">
      <defs>
       <path id="mc676103b7c" d="M 0 0 
L 0 2 
" style="stroke: #000000; stroke-width: 0.6"/>
      </defs>
      <g>
       <use xlink:href="#mc676103b7c" x="30.806254" y="30.614173" style="stroke: #000000; stroke-width: 0.6"/>
      </g>
     </g>
    </g>
    <g id="xtick_7">
     <g id="line2d_13">
      <path d="M 73.43225 30.614173 
L 73.43225 3.401575 
" clip-path="url(#p26f2e6a15d)" style="fill: none; stroke: #ffffff; stroke-opacity: 0.9; stroke-width: 0.55; stroke-linecap: square"/>
     </g>
     <g id="line2d_14">
      <g>
       <use xlink:href="#mc676103b7c" x="73.43225" y="30.614173" style="stroke: #000000; stroke-width: 0.6"/>
      </g>
     </g>
    </g>
    <g id="xtick_8">
     <g id="line2d_15">
      <path d="M 116.058246 30.614173 
L 116.058246 3.401575 
" clip-path="url(#p26f2e6a15d)" style="fill: none; stroke: #ffffff; stroke-opacity: 0.9; stroke-width: 0.55; stroke-linecap: square"/>
     </g>
     <g id="line2d_16">
      <g>
       <use xlink:href="#mc676103b7c" x="116.058246" y="30.614173" style="stroke: #000000; stroke-width: 0.6"/>
      </g>
     </g>
    </g>
    <g id="xtick_9">
     <g id="line2d_17">
      <path d="M 158.684241 30.614173 
L 158.684241 3.401575 
" clip-path="url(#p26f2e6a15d)" style="fill: none; stroke: #ffffff; stroke-opacity: 0.9; stroke-width: 0.55; stroke-linecap: square"/>
     </g>
     <g id="line2d_18">
      <g>
       <use xlink:href="#mc676103b7c" x="158.684241" y="30.614173" style="stroke: #000000; stroke-width: 0.6"/>
      </g>
     </g>
    </g>
    <g id="xtick_10">
     <g id="line2d_19">
      <path d="M 201.310237 30.614173 
L 201.310237 3.401575 
" clip-path="url(#p26f2e6a15d)" style="fill: none; stroke: #ffffff; stroke-opacity: 0.9; stroke-width: 0.55; stroke-linecap: square"/>
     </g>
     <g id="line2d_20">
      <g>
       <use xlink:href="#mc676103b7c" x="201.310237" y="30.614173" style="stroke: #000000; stroke-width: 0.6"/>
      </g>
     </g>
    </g>
    <g id="text_6">
     <text style="font-size: 8px; font-family: 'DejaVu Sans', 'Bitstream Vera Sans', 'Computer Modern Sans Serif', 'Lucida Grande', 'Verdana', 'Geneva', 'Lucid', 'Arial', 'Helvetica', 'Avant Garde', sans-serif; text-anchor: middle" x="108.425197" y="53.935423" transform="rotate(-0 108.425197 53.935423)">time</text>
    </g>
   </g>
   <g id="matplotlib.axis_2">
    <g id="ytick_1">
     <g id="line2d_21">
      <path d="M 8.503937 26.743025 
L 208.346457 26.743025 
" clip-path="url(#p26f2e6a15d)" style="fill: none; stroke: #ffffff; stroke-width: 0.9; stroke-linecap: square"/>
     </g>
    </g>
    <g id="ytick_2">
     <g id="line2d_22">
      <path d="M 8.503937 19.6397 
L 208.346457 19.6397 
" clip-path="url(#p26f2e6a15d)" style="fill: none; stroke: #ffffff; stroke-width: 0.9; stroke-linecap: square"/>
     </g>
    </g>
    <g id="ytick_3">
     <g id="line2d_23">
      <path d="M 8.503937 12.536376 
L 208.346457 12.536376 
" clip-path="url(#p26f2e6a15d)" style="fill: none; stroke: #ffffff; stroke-width: 0.9; stroke-linecap: square"/>
     </g>
    </g>
    <g id="ytick_4">
     <g id="line2d_24">
      <path d="M 8.503937 5.433051 
L 208.346457 5.433051 
" clip-path="url(#p26f2e6a15d)" style="fill: none; stroke: #ffffff; stroke-width: 0.9; stroke-linecap: square"/>
     </g>
    </g>
    <g id="ytick_5">
     <g id="line2d_25">
      <path d="M 8.503937 30.294687 
L 208.346457 30.294687 
" clip-path="url(#p26f2e6a15d)" style="fill: none; stroke: #ffffff; stroke-opacity: 0.9; stroke-width: 0.55; stroke-linecap: square"/>
     </g>
     <g id="line2d_26">
      <defs>
       <path id="m128c5ba403" d="M 0 0 
L -2 0 
" style="stroke: #000000; stroke-width: 0.6"/>
      </defs>
      <g>
       <use xlink:href="#m128c5ba403" x="8.503937" y="30.294687" style="stroke: #000000; stroke-width: 0.6"/>
      </g>
     </g>
    </g>
    <g id="ytick_6">
     <g id="line2d_27">
      <path d="M 8.503937 23.191363 
L 208.346457 23.191363 
" clip-path="url(#p26f2e6a15d)" style="fill: none; stroke: #ffffff; stroke-opacity: 0.9; stroke-width: 0.55; stroke-linecap: square"/>
     </g>
     <g id="line2d_28">
      <g>
       <use xlink:href="#m128c5ba403" x="8.503937" y="23.191363" style="stroke: #000000; stroke-width: 0.6"/>
      </g>
     </g>
    </g>
    <g id="ytick_7">
     <g id="line2d_29">
      <path d="M 8.503937 16.088038 
L 208.346457 16.088038 
" clip-path="url(#p26f2e6a15d)" style="fill: none; stroke: #ffffff; stroke-opacity: 0.9; stroke-width: 0.55; stroke-linecap: square"/>
     </g>
     <g id="line2d_30">
      <g>
       <use xlink:href="#m128c5ba403" x="8.503937" y="16.088038" style="stroke: #000000; stroke-width: 0.6"/>
      </g>
     </g>
    </g>
    <g id="ytick_8">
     <g id="line2d_31">
      <path d="M 8.503937 8.984714 
L 208.346457 8.984714 
" clip-path="url(#p26f2e6a15d)" style="fill: none; stroke: #ffffff; stroke-opacity: 0.9; stroke-width: 0.55; stroke-linecap: square"/>
     </g>
     <g id="line2d_32">
      <g>
       <use xlink:href="#m128c5ba403" x="8.503937" y="8.984714" style="stroke: #000000; stroke-width: 0.6"/>
      </g>
     </g>
    </g>
   </g>
   <g id="line2d_33">
    <path d="M 9.493256 23.741592 
L 9.848828 23.345229 
L 10.085876 21.823305 
L 10.2044 21.823305 
L 10.512563 23.967085 
L 10.678496 23.967085 
L 10.868134 23.526074 
L 11.034068 22.681933 
L 11.152592 22.640491 
L 11.34223 22.236054 
L 11.508164 22.129186 
L 11.745211 22.503344 
L 11.863736 22.948985 
L 11.982259 22.948985 
L 12.408946 20.788225 
L 12.527469 20.726241 
L 13.001566 21.173307 
L 13.167499 19.963082 
L 13.286023 19.963082 
L 13.475661 21.589619 
L 13.831233 22.248878 
L 14.234214 22.153053 
L 14.352739 22.033717 
L 14.471262 21.814755 
L 14.589786 21.814755 
L 14.779425 21.957009 
L 14.826834 21.957009 
L 15.063882 21.57062 
L 16.012073 21.568245 
L 16.249122 21.71228 
L 16.367645 21.762627 
L 16.557284 21.606005 
L 16.912856 22.420462 
L 17.149903 22.481139 
L 17.315837 23.249047 
L 17.434361 23.249047 
L 17.552885 22.864202 
L 17.908457 22.700813 
L 18.145504 22.365127 
L 18.216619 22.361209 
L 18.382553 22.05319 
L 18.619601 21.981113 
L 18.856648 21.977432 
L 19.164811 22.503937 
L 19.21222 22.724205 
L 19.330744 23.642561 
L 19.449268 23.642561 
L 19.567792 18.515134 
L 19.638906 18.362669 
L 19.686316 17.976636 
L 19.875954 15.785597 
L 19.994478 15.395646 
L 20.113002 13.416325 
L 20.231526 13.416325 
L 20.39746 14.259042 
L 20.587098 14.330287 
L 20.753032 14.826038 
L 20.94267 14.9354 
L 21.061194 14.905001 
L 21.227127 14.775334 
L 21.393061 14.775334 
L 21.582699 16.56348 
L 21.630109 16.582598 
L 21.748633 18.436526 
L 22.104205 18.329064 
L 22.412367 21.804187 
L 22.649415 21.89075 
L 23.004987 22.564258 
L 23.526492 22.476033 
L 23.71613 22.110662 
L 24.119111 22.061383 
L 24.35616 21.953446 
L 24.830255 22.043572 
L 25.256941 22.3016 
L 25.375466 22.654622 
L 25.49399 22.654622 
L 25.659923 21.915924 
L 25.896971 21.228879 
L 25.968085 21.091375 
L 26.371067 15.248049 
L 26.489591 15.463567 
L 26.608114 16.16213 
L 26.797753 18.292729 
L 26.916277 18.315884 
L 27.200734 21.186488 
L 27.319258 21.186488 
L 27.508897 20.21541 
L 27.67483 19.967594 
L 27.982992 19.528603 
L 28.030402 19.528603 
L 28.338564 20.973226 
L 28.575612 20.954702 
L 28.694136 21.092918 
L 28.741546 21.092918 
L 28.86007 21.98515 
L 29.049708 21.923404 
L 29.40528 19.988731 
L 29.523804 19.988731 
L 29.926785 21.572282 
L 30.637929 21.503412 
L 30.709044 21.402956 
L 30.874977 21.023098 
L 30.993501 20.90483 
L 31.230548 18.03387 
L 31.301663 18.038264 
L 31.467597 20.510367 
L 31.58612 21.346315 
L 31.704645 21.346315 
L 31.894283 16.809277 
L 32.012807 16.215089 
L 32.17874 16.215089 
L 32.297264 16.425501 
L 32.368378 16.425501 
L 32.534312 15.49254 
L 32.605426 15.49254 
L 32.77136 14.6256 
L 33.126932 17.332458 
L 33.292865 17.510453 
L 33.36398 17.510453 
L 33.529913 16.510996 
L 33.719551 16.510996 
L 33.885485 17.351813 
L 34.004009 17.427452 
L 34.193648 17.502378 
L 34.715153 17.59761 
L 34.833677 18.150832 
L 35.189249 18.327283 
L 35.663344 18.718778 
L 35.852982 18.686955 
L 36.090031 16.959368 
L 36.13744 16.959368 
L 36.327079 12.724886 
L 36.374488 12.724886 
L 36.493012 4.638511 
L 36.611536 4.638511 
L 36.73006 5.553542 
L 36.919698 8.948751 
L 37.085632 10.001404 
L 37.32268 17.892685 
L 37.678252 18.97075 
L 37.986414 19.005541 
L 38.270871 19.825222 
L 38.816082 21.583681 
L 38.934605 21.583681 
L 39.574635 20.229422 
L 39.764273 20.293662 
L 39.811683 20.409554 
L 40.04873 21.779132 
L 40.404302 21.779132 
L 40.593941 24.647955 
L 40.712465 24.647955 
L 40.830988 25.062129 
L 40.878398 24.993496 
L 40.949513 24.993496 
L 41.068036 25.41147 
L 41.305085 25.338324 
L 41.352494 24.950036 
L 41.542132 20.349233 
L 41.708066 20.413592 
L 41.897704 22.771464 
L 42.016228 22.771464 
L 42.253276 19.555795 
L 42.300686 19.555795 
L 42.419209 20.307198 
L 42.656258 20.307198 
L 42.774781 19.877469 
L 43.130353 19.774519 
L 43.248877 18.636727 
L 43.438516 18.636727 
L 43.841497 21.133766 
L 44.149659 21.151696 
L 44.552641 20.227285 
L 44.742279 20.656895 
L 44.979327 21.155615 
L 45.074146 21.177345 
L 45.311194 22.062452 
L 45.500832 22.062452 
L 45.666765 20.559645 
L 45.856404 20.495524 
L 45.903814 20.495524 
L 46.022337 18.11509 
L 46.211976 15.549418 
L 46.377909 15.219669 
L 46.733481 15.557374 
L 46.970529 21.028204 
L 47.207577 29.377237 
L 47.278692 29.377237 
L 47.515739 25.199514 
L 47.563149 25.197139 
L 48.226883 15.200908 
L 48.274293 15.200908 
L 48.345407 15.743799 
L 48.463931 17.129289 
L 48.985436 17.097941 
L 49.10396 16.825426 
L 49.222484 16.80049 
L 49.341008 16.264486 
L 49.412123 16.497103 
L 49.578056 18.423346 
L 49.767695 19.299192 
L 49.815104 19.299192 
L 49.886218 18.934177 
L 49.933628 19.271406 
L 50.123266 18.263044 
L 50.24179 16.268405 
L 50.360314 16.268405 
L 50.526248 16.101215 
L 50.597362 16.101215 
L 50.83441 13.803782 
L 50.952934 13.621394 
L 51.118868 13.360279 
L 51.355915 13.326674 
L 51.474439 15.040843 
L 51.592963 15.040843 
L 51.711487 13.784308 
L 51.948535 13.655116 
L 52.304107 11.69895 
L 52.422631 11.57427 
L 52.659679 11.402094 
L 52.778202 11.458852 
L 53.015251 11.552778 
L 53.323413 11.476783 
L 53.607871 11.476783 
L 54.034557 11.212343 
L 54.390129 11.280026 
L 54.437538 11.357089 
L 54.674586 12.901694 
L 54.982748 14.107882 
L 55.219796 16.846563 
L 55.267205 17.149119 
L 55.456844 19.241839 
L 55.575368 19.993836 
L 55.693892 20.931191 
L 55.741302 20.99733 
L 55.859825 22.011037 
L 55.93094 21.350233 
L 55.978349 21.350233 
L 56.096873 22.248522 
L 56.333921 29.154476 
L 56.452445 29.154476 
L 56.642083 22.430199 
L 56.760607 21.850377 
L 56.808017 21.821523 
L 57.045065 21.13994 
L 57.163589 21.13994 
L 57.400636 21.818318 
L 57.56657 22.648447 
L 57.756208 23.160109 
L 57.874733 23.160109 
L 58.040666 22.858503 
L 58.230305 22.811718 
L 58.633286 18.191085 
L 58.751809 18.191085 
L 58.941448 20.463464 
L 59.344429 20.484362 
L 59.415544 20.377019 
L 59.462953 20.495405 
L 59.652592 20.551571 
L 59.889639 22.389231 
L 60.174097 23.080314 
L 60.292621 23.080314 
L 60.529669 22.047372 
L 60.600783 22.047372 
L 60.885241 21.172595 
L 61.122289 20.530078 
L 61.311927 19.711585 
L 61.548975 19.565175 
L 61.714909 19.532402 
L 61.904547 19.32674 
L 62.189004 16.311746 
L 62.544576 16.407571 
L 62.6631 18.957807 
L 64.39355 18.957807 
L 64.512073 16.697066 
L 64.678007 16.697066 
L 64.867645 18.58733 
L 65.033579 18.536626 
L 65.270627 18.107016 
L 65.389151 18.08303 
L 65.507675 18.322296 
L 65.863246 18.31244 
L 66.171409 18.910428 
L 66.218818 18.689686 
L 66.289933 18.878843 
L 66.57439 18.878843 
L 66.764029 19.073937 
L 67.001076 19.095073 
L 67.16701 19.003641 
L 67.285534 19.003641 
L 67.404058 19.810023 
L 67.593696 19.787105 
L 67.71222 19.351676 
L 67.830744 19.453201 
L 68.30484 20.276563 
L 68.470774 21.678676 
L 68.873755 22.602256 
L 69.063393 22.58967 
L 69.466375 22.480427 
L 69.893061 22.264552 
L 70.414566 22.835586 
L 70.53309 22.835586 
L 70.651614 22.382701 
L 71.12571 22.272627 
L 71.362758 22.190338 
L 71.481282 22.295188 
L 71.71833 22.3979 
L 71.955378 22.484463 
L 72.145016 22.615793 
L 72.547997 22.516643 
L 72.903569 22.44136 
L 73.140617 22.521155 
L 73.685827 22.445516 
L 73.851761 22.352303 
L 74.396971 22.461783 
L 74.634019 22.256003 
L 75.155524 22.365602 
L 75.345163 22.481139 
L 75.511096 22.604631 
L 75.937783 22.669583 
L 76.103716 22.742966 
L 77.36007 22.675758 
L 78.118623 22.030391 
L 78.308261 22.125505 
L 78.782357 22.590975 
L 78.94829 22.606413 
L 79.137929 22.727886 
L 79.185338 22.727886 
L 79.422387 22.384007 
L 79.612025 22.430436 
L 79.849073 22.689651 
L 80.015006 22.644529 
L 80.252054 19.742458 
L 80.323168 19.742458 
L 80.441692 19.213697 
L 80.489102 19.213697 
L 80.655035 18.804748 
L 80.72615 18.804748 
L 80.844674 19.932328 
L 81.010607 21.766071 
L 81.484703 22.400156 
L 81.674341 22.250303 
L 81.840275 21.572757 
L 82.195847 21.215698 
L 82.314371 21.316036 
L 82.551419 21.165708 
L 82.669943 21.165708 
L 82.906991 21.429198 
L 82.978105 21.429198 
L 83.144038 21.224129 
L 83.333677 21.136497 
L 83.689249 21.204536 
L 83.926296 21.696606 
L 84.163344 21.693638 
L 84.400392 21.170695 
L 84.566326 21.131866 
L 84.63744 21.131866 
L 84.803374 21.54984 
L 85.040422 21.604224 
L 85.158946 21.295493 
L 85.277469 21.295493 
L 85.467108 21.619423 
L 85.704155 21.576438 
L 85.870089 21.431929 
L 86.225661 21.456271 
L 86.462709 22.502987 
L 86.581233 22.502987 
L 86.818281 21.816536 
L 87.007919 21.080926 
L 87.126443 21.157158 
L 87.292377 21.297631 
L 87.482015 21.2854 
L 87.647948 20.137871 
L 87.884997 19.800998 
L 88.074635 19.799098 
L 88.193158 19.728328 
L 88.311683 19.846714 
L 88.359092 19.799098 
L 88.430207 19.707548 
L 88.59614 19.871294 
L 88.667255 19.871294 
L 88.833188 20.367638 
L 88.904302 20.373575 
L 89.14135 20.753908 
L 89.425808 20.767326 
L 89.615446 21.112155 
L 89.78138 21.109661 
L 90.018428 20.061995 
L 90.089542 20.05487 
L 90.255475 19.528484 
L 90.445114 19.312135 
L 90.563638 19.424228 
L 90.729571 19.468163 
L 90.848095 19.776538 
L 91.037733 20.920742 
L 91.156258 20.920742 
L 91.274781 20.688481 
L 91.511829 20.63564 
L 91.630353 20.41656 
L 91.796287 19.792924 
L 91.914811 19.792924 
L 92.104449 20.776351 
L 92.388906 20.785731 
L 92.55484 19.849208 
L 92.981526 19.932209 
L 93.265984 20.015329 
L 93.69267 20.007492 
L 93.929718 20.815061 
L 94.166765 20.829429 
L 94.28529 20.96907 
L 94.332699 20.96907 
L 94.569747 20.621985 
L 94.925319 20.693706 
L 95.114957 20.934991 
L 95.280891 20.934991 
L 95.470529 20.578882 
L 95.826101 20.574488 
L 96.110558 17.675624 
L 96.229082 16.320058 
L 96.300197 16.320058 
L 96.418721 15.904339 
L 96.655768 17.279854 
L 96.774293 20.595387 
L 96.821702 20.631603 
L 97.177274 22.099144 
L 97.366912 23.604088 
L 97.485436 23.604088 
L 97.65137 23.248691 
L 97.841008 23.225299 
L 97.959532 23.225299 
L 98.315104 22.998975 
L 98.433628 22.998975 
L 98.552152 23.36874 
L 98.836609 23.268046 
L 99.429229 22.760065 
L 99.737391 22.251372 
L 99.903325 22.290676 
L 100.092963 22.896501 
L 100.140372 22.896501 
L 100.330011 22.72183 
L 100.377421 22.72183 
L 100.495944 23.247742 
L 100.804107 29.143076 
L 100.851516 29.143076 
L 101.444136 24.323906 
L 101.56266 25.751549 
L 101.752299 25.751549 
L 101.870822 24.822625 
L 102.036756 23.372896 
L 102.273804 22.343041 
L 102.344918 22.122299 
L 102.510852 20.037296 
L 102.866424 20.037296 
L 102.937538 20.175394 
L 103.221995 23.760591 
L 103.459044 25.195952 
L 103.530158 25.195952 
L 103.814615 23.293695 
L 104.170187 26.831988 
L 104.241302 26.831988 
L 104.454645 22.62173 
L 104.644283 22.432217 
L 104.762806 22.384482 
L 105.047264 22.870852 
L 105.402836 24.83818 
L 105.47395 24.837824 
L 105.639884 22.941029 
L 105.829522 22.970595 
L 106.232504 28.443682 
L 106.351028 28.443682 
L 106.540666 23.157972 
L 106.65919 20.185012 
L 106.825123 13.925493 
L 106.896238 13.480208 
L 107.062171 11.108799 
L 107.251809 10.371051 
L 107.417743 10.371051 
L 107.607381 13.052735 
L 107.844429 13.052735 
L 108.247411 24.961197 
L 108.437049 25.060586 
L 108.674097 25.048117 
L 108.721507 23.848342 
L 108.840031 18.19726 
L 109.029669 18.19726 
L 109.314126 18.997704 
L 109.38524 19.050426 
L 109.740812 21.85774 
L 109.906746 24.300395 
L 109.97786 24.320581 
L 110.096384 24.828087 
L 110.262318 26.368061 
L 110.380842 26.661592 
L 110.499366 26.661592 
L 110.689004 26.196003 
L 110.736414 26.043894 
L 110.807528 25.167098 
L 110.973462 19.323416 
L 111.21051 19.375543 
L 111.281624 19.436696 
L 111.400148 20.056414 
L 111.518672 20.056414 
L 111.566082 19.547008 
L 111.684605 16.944288 
L 111.803129 16.944288 
L 112.111292 18.495186 
L 112.34834 18.495186 
L 112.466863 19.891599 
L 112.632797 20.439715 
L 112.703912 20.229184 
L 112.869845 19.681899 
L 113.106893 18.929546 
L 113.343941 16.702409 
L 113.415055 16.702409 
L 113.580988 16.164624 
L 113.699513 16.702409 
L 113.818036 16.164624 
L 114.410656 18.719609 
L 114.481771 18.795011 
L 114.647704 19.236733 
L 114.766228 19.325078 
L 115.240324 20.592181 
L 115.477372 18.947595 
L 115.548486 18.947595 
L 115.66701 19.232696 
L 115.951468 19.232696 
L 116.069991 16.873042 
L 116.188516 16.873042 
L 116.307039 16.358768 
L 116.425563 16.269473 
L 116.544087 15.715657 
L 116.710021 15.788447 
L 116.828545 15.981997 
L 116.899659 15.981997 
L 117.018183 15.774198 
L 117.184117 15.774198 
L 117.373755 17.885442 
L 117.492279 17.954313 
L 117.84785 17.575049 
L 118.132308 17.624565 
L 118.369356 19.78948 
L 118.48788 19.791143 
L 118.724928 20.02376 
L 119.0805 23.354254 
L 119.270138 23.354254 
L 119.507186 21.947865 
L 119.744234 19.021097 
L 120.028692 18.748226 
L 120.147215 18.748226 
L 120.384263 17.817046 
L 120.573902 17.817046 
L 120.621311 18.041945 
L 120.739835 22.225486 
L 120.81095 22.336273 
L 120.929473 23.235274 
L 121.047997 23.235274 
L 121.332455 20.18145 
L 121.403569 20.18145 
L 121.522093 20.430334 
L 121.640617 20.430334 
L 121.759141 19.576337 
L 121.806551 19.576337 
L 122.043598 19.246708 
L 122.39917 11.5979 
L 122.588809 15.888072 
L 122.825856 18.872312 
L 122.873266 18.894517 
L 123.299953 21.169389 
L 123.418476 21.76417 
L 123.774048 21.698506 
L 123.939982 22.060196 
L 124.058506 22.060196 
L 124.248144 21.109186 
L 124.414077 21.109186 
L 124.532601 23.114987 
L 124.72224 23.013462 
L 124.840764 22.852091 
L 125.006697 20.522479 
L 125.125221 20.522479 
L 125.243745 20.925254 
L 125.362269 20.925254 
L 125.599317 20.549196 
L 125.836365 20.602512 
L 126.073413 21.359495 
L 126.191937 21.559577 
L 126.381575 22.130017 
L 126.547509 26.552112 
L 126.737147 26.893498 
L 126.855671 26.76763 
L 127.021604 23.793245 
L 127.211243 22.74831 
L 127.377176 19.688549 
L 127.4957 19.585481 
L 127.614224 19.769057 
L 127.922387 21.862964 
L 127.969796 21.862964 
L 128.08832 21.505312 
L 128.13573 21.505312 
L 128.254253 21.862964 
L 128.372777 21.656827 
L 128.491302 21.864627 
L 128.609825 21.920555 
L 128.799463 23.000044 
L 129.155035 23.905457 
L 129.320969 23.93633 
L 129.747655 22.931292 
L 129.913589 23.053359 
L 129.984703 23.053359 
L 130.103227 22.360972 
L 139.229571 21.151933 
L 139.348095 21.870208 
L 139.585143 26.510552 
L 139.751076 27.374761 
L 140.035534 27.477829 
L 140.272582 28.107165 
L 140.391106 28.074274 
L 140.46222 27.949594 
L 140.580744 26.427669 
L 140.746677 25.195002 
L 140.865202 25.050849 
L 141.291888 20.214579 
L 141.339297 20.214579 
L 141.576346 21.697794 
L 141.765984 21.697794 
L 141.813393 21.342278 
L 142.050441 13.583039 
L 142.168965 12.418411 
L 142.358604 12.506044 
L 142.595651 21.704205 
L 142.714175 22.067795 
L 142.880109 25.465379 
L 142.998633 26.794822 
L 143.069747 26.794822 
L 143.188271 27.223245 
L 143.354205 27.273711 
L 143.662367 27.295441 
L 143.946824 26.461155 
L 144.136463 22.360259 
L 144.302396 19.471131 
L 144.42092 18.725546 
L 144.539444 18.725546 
L 144.657968 19.398461 
L 145.132064 24.662441 
L 145.203178 24.662441 
L 145.487636 23.286452 
L 145.55875 23.266266 
L 145.724683 22.642154 
L 145.843208 20.818385 
L 146.032846 14.019419 
L 146.317303 12.965578 
L 146.791399 14.075228 
L 146.909923 14.073922 
L 146.981038 13.848904 
L 147.146971 7.052193 
L 147.265495 7.052193 
L 147.502543 12.229373 
L 147.692181 13.252579 
L 147.929229 19.069069 
L 148.095162 19.056126 
L 148.569258 15.394815 
L 148.758897 12.114787 
L 148.877421 11.793469 
L 148.995944 11.793469 
L 149.232992 12.567909 
L 149.351516 13.92775 
L 149.51745 13.876215 
L 149.707088 13.083133 
L 150.06266 13.034567 
L 150.181184 13.770415 
L 150.536756 20.82646 
L 150.702689 20.899962 
L 150.773804 20.899962 
L 150.939737 20.491012 
L 151.010852 20.491012 
L 151.058261 20.639322 
L 151.176785 22.506194 
L 151.295309 22.506194 
L 151.413833 21.932073 
L 151.532357 21.932073 
L 151.769405 27.7279 
L 151.887929 27.7279 
L 151.935338 27.601796 
L 152.409434 13.633505 
L 152.527958 13.633505 
L 152.646482 14.037705 
L 152.765006 13.633505 
L 152.88353 14.037705 
L 152.954645 14.037705 
L 153.002054 14.234462 
L 153.191692 15.881185 
L 153.357626 22.716961 
L 153.47615 23.688633 
L 153.594674 23.688633 
L 153.784312 19.509723 
L 153.950246 15.483872 
L 154.187293 14.94858 
L 154.258408 14.94858 
L 154.305818 15.396477 
L 154.495456 18.24072 
L 154.542865 18.339395 
L 154.851028 21.698388 
L 154.969551 21.587956 
L 155.016961 20.598593 
L 155.206599 12.338854 
L 155.443648 12.332204 
L 155.680695 11.472627 
L 155.846629 12.184488 
L 156.083677 11.476308 
L 156.202201 11.476308 
L 156.273315 11.77352 
L 156.439249 14.056466 
L 156.557772 14.400701 
L 156.794821 19.591774 
L 156.913344 19.908223 
L 156.984459 19.825459 
L 157.031868 19.908223 
L 157.38744 20.362176 
L 157.505964 20.601324 
L 157.932651 19.186505 
L 158.335632 11.474764 
L 158.52527 11.47322 
L 158.691204 11.061777 
L 158.880842 9.855589 
L 158.928252 9.832197 
L 159.165299 7.46613 
L 159.283824 7.46613 
L 159.473462 7.284335 
L 159.757919 7.238264 
L 160.184605 17.660187 
L 160.350539 21.734129 
L 160.658701 26.222363 
L 160.706111 26.222363 
L 161.132797 21.980163 
L 161.180206 21.977907 
L 161.535778 20.166726 
L 161.843941 14.977553 
L 161.89135 14.881966 
L 162.199513 4.906514 
L 162.365446 4.906514 
L 162.48397 7.545687 
L 162.673608 10.471626 
L 162.721018 10.606993 
L 162.839542 11.396987 
L 163.266228 21.307486 
L 163.432161 21.307486 
L 163.503276 21.17212 
L 163.598095 20.100942 
L 163.716619 20.100942 
L 163.906258 21.359615 
L 164.143305 21.649228 
L 164.261829 23.516931 
L 164.546287 26.313201 
L 164.735925 26.313201 
L 165.138906 22.541935 
L 165.257431 22.541935 
L 165.494478 23.06559 
L 165.85005 23.062978 
L 165.968574 22.175733 
L 166.087098 22.175733 
L 166.324146 24.765272 
L 166.44267 24.765272 
L 166.561194 23.693501 
L 166.916765 21.968883 
L 167.03529 22.331997 
L 167.224928 22.273458 
L 167.343452 21.007186 
L 167.509385 20.40528 
L 167.627909 20.40528 
L 167.983481 22.36204 
L 168.102005 22.36204 
L 168.220529 21.689838 
L 168.339053 21.689838 
L 168.528692 21.837197 
L 168.576101 21.837197 
L 168.765739 21.371013 
L 168.813149 21.371013 
L 168.931673 21.551502 
L 169.121311 22.25434 
L 169.358359 22.26669 
L 169.524293 23.105369 
L 169.76134 25.931206 
L 169.950979 26.086997 
L 169.998388 26.086997 
L 170.069503 25.848087 
L 170.116912 24.569941 
L 170.35396 10.578969 
L 170.591008 7.340739 
L 170.89917 7.340739 
L 171.136218 8.059131 
L 171.254742 8.059131 
L 171.420676 6.971448 
L 171.49179 6.971448 
L 171.657724 8.142251 
L 171.894771 14.819388 
L 172.605915 28.510534 
L 172.724439 28.510534 
L 173.198535 24.676334 
L 173.269649 24.676334 
L 173.435583 25.813295 
L 173.625221 28.079142 
L 173.743745 28.079142 
L 173.909679 25.909595 
L 174.146727 20.897943 
L 174.336365 19.925322 
L 174.454889 19.925322 
L 174.85787 24.146979 
L 175.213442 24.577777 
L 175.284557 24.577777 
L 175.4979 24.285077 
L 175.806062 23.91555 
L 175.924586 23.91555 
L 176.090519 24.208726 
L 176.446091 24.194596 
L 176.683139 22.47912 
L 176.754253 22.47912 
L 176.920187 22.810531 
L 177.038711 22.834992 
L 177.346873 23.663341 
L 178.342475 23.553028 
L 178.698046 23.618931 
L 178.81657 24.031205 
L 179.053618 26.422682 
L 179.290666 26.351793 
L 179.36178 26.263805 
L 179.527714 24.964166 
L 179.764762 23.01738 
L 179.883286 23.01738 
L 180.072924 23.32908 
L 180.309972 23.425024 
L 180.428496 23.850954 
L 180.594429 25.881216 
L 180.712953 25.881216 
L 180.950001 23.701932 
L 181.068525 23.024862 
L 181.187049 23.024862 
L 181.376687 25.449824 
L 181.542621 25.573435 
L 181.661145 25.449824 
L 181.779669 25.216851 
L 182.13524 25.275629 
L 182.324879 23.031629 
L 182.609337 20.76697 
L 182.72786 20.76697 
L 182.798975 21.164283 
L 182.917499 22.41203 
L 183.036023 22.41203 
L 183.439004 16.945 
L 183.557528 16.857605 
L 183.676052 17.028832 
L 184.102738 20.141315 
L 184.387196 24.460816 
L 184.742768 24.522681 
L 185.287978 28.29846 
L 185.335387 28.29846 
L 185.64355 23.454353 
L 185.690959 23.454353 
L 186.046531 26.418289 
L 186.165055 26.415321 
L 186.23617 26.199683 
L 186.283579 25.634706 
L 186.710265 14.148017 
L 186.876199 14.148017 
L 187.350294 18.444839 
L 187.468818 18.526415 
L 187.634752 19.832584 
L 187.753276 21.2778 
L 188.061438 24.437306 
L 188.108847 24.437306 
L 188.938516 20.644902 
L 189.057039 20.644902 
L 189.246677 20.221466 
L 189.365202 20.221466 
L 189.531135 22.541341 
L 189.602249 22.573045 
L 189.886707 25.428569 
L 189.957821 25.428569 
L 190.242279 21.531316 
L 190.360803 19.357851 
L 190.550441 17.440395 
L 190.59785 17.315952 
L 190.716375 16.331101 
L 190.906013 16.331101 
L 190.953422 16.514439 
L 191.19047 19.449877 
L 191.380108 19.839827 
L 191.427519 19.935415 
L 191.73568 25.554318 
L 191.901614 25.554318 
L 191.972728 25.41432 
L 192.138662 22.009611 
L 192.257186 22.009611 
L 192.446824 24.872378 
L 192.565348 24.872378 
L 192.731281 22.693213 
L 192.802396 22.693213 
L 192.92092 22.522936 
L 193.205378 22.620068 
L 193.323901 23.266503 
L 193.442425 23.266503 
L 193.56095 21.858571 
L 193.797997 12.572064 
L 193.987636 6.54255 
L 194.343208 5.732844 
L 194.390617 5.732844 
L 194.935827 4.693845 
L 194.983237 4.693845 
L 195.338809 6.266474 
L 195.457333 6.132057 
L 195.646971 6.040744 
L 195.694381 6.040744 
L 195.765495 6.220401 
L 195.812904 6.749993 
L 196.049953 13.23738 
L 196.239591 14.599358 
L 196.287 14.599358 
L 196.476639 15.202689 
L 196.524048 15.202689 
L 196.832211 19.304654 
L 196.998144 19.304654 
L 197.069258 19.059332 
L 197.235192 17.055075 
L 197.353716 17.055075 
L 197.42483 17.558662 
L 197.661878 24.152916 
L 197.827812 24.152916 
L 197.898926 23.789327 
L 198.064859 21.789107 
L 198.301907 20.540646 
L 198.61007 20.540646 
L 198.728594 19.226165 
L 198.847117 19.226165 
L 199.013051 20.088593 
L 199.178985 20.278938 
L 199.250099 20.245927 
L 199.724195 18.568331 
L 200.127176 9.686024 
L 200.316815 9.686024 
L 200.482748 9.832434 
L 200.79091 10.141165 
L 200.909434 10.031684 
L 201.027958 9.314716 
L 201.193891 9.35022 
L 201.43094 10.009598 
L 202.02356 10.10388 
L 202.142083 10.10388 
L 202.331721 10.403824 
L 202.497655 10.451084 
L 202.616179 10.44289 
L 202.805818 9.809398 
L 203.090275 9.868294 
L 203.161389 9.954739 
L 203.279913 10.201011 
L 203.398437 10.201011 
L 203.635485 9.454595 
L 203.682894 9.3843 
L 203.872533 8.118146 
L 204.109581 7.208341 
L 204.228105 7.208341 
L 204.346629 7.676067 
L 204.512563 9.815692 
L 204.631086 10.828448 
L 204.74961 10.828448 
L 204.820724 10.644159 
L 204.986658 9.646364 
L 205.057772 9.350458 
L 205.223706 7.516478 
L 205.460754 7.467674 
L 205.697802 7.39251 
L 206.005964 7.019777 
L 206.243012 7.115839 
L 206.408945 7.16488 
L 206.717108 7.070123 
L 206.883041 6.742989 
L 207.07268 6.742989 
L 207.357137 13.401126 
L 207.357137 13.401126 
" clip-path="url(#p26f2e6a15d)" style="fill: none; stroke: #5c80b5; stroke-width: 0.5; stroke-linecap: square"/>
   </g>
   <g id="patch_3">
    <path d="M 8.503937 30.614173 
L 208.346457 30.614173 
" style="fill: none; stroke: #000000; stroke-width: 0.4; stroke-linejoin: miter; stroke-linecap: square"/>
   </g>
   <g id="patch_4">
    <path d="M 8.503937 3.401575 
L 208.346457 3.401575 
" style="fill: none; stroke: #000000; stroke-width: 0.4; stroke-linejoin: miter; stroke-linecap: square"/>
   </g>
  </g>
 </g>
 <defs>
  <clipPath id="p26f2e6a15d">
   <rect x="8.503937" y="3.401575" width="199.84252" height="27.212598"/>
  </clipPath>
 </defs>
</svg>
