<?xml version="1.0" encoding="utf-8" standalone="no"?>
<!DOCTYPE svg PUBLIC "-//W3C//DTD SVG 1.1//EN"
  "http://www.w3.org/Graphics/SVG/1.1/DTD/svg11.dtd">
<svg xmlns:xlink="http://www.w3.org/1999/xlink" width="212.598425pt" height="42.519685pt" viewBox="0 0 212.598425 42.519685" xmlns="http://www.w3.org/2000/svg" version="1.1">
 <metadata>
  <rdf:RDF xmlns:dc="http://purl.org/dc/elements/1.1/" xmlns:cc="http://creativecommons.org/ns#" xmlns:rdf="http://www.w3.org/1999/02/22-rdf-syntax-ns#">
   <cc:Work>
    <dc:type rdf:resource="http://purl.org/dc/dcmitype/StillImage"/>
    <dc:date>2026-06-01T17:59:30.082575</dc:date>
    <dc:format>image/svg+xml</dc:format>
    <dc:creator>
     <cc:Agent>
      <dc:title>Matplotlib v3.10.8, https://matplotlib.org/</dc:title>
     </cc:Agent>
    </dc:creator>
   </cc:Work>
  </rdf:RDF>
 </metadata>
 <defs>
  <style type="text/css">*{stroke-linejoin: round; stroke-linecap: butt}</style>
 </defs>
 <g id="figure_1">
  <g id="patch_1">
   <path d="M 0 42.519685 
L 212.598425 42.519685 
L 212.598425 0 
L 0 0 
z
" style="fill: #ffffff"/>
  </g>
  <g id="axes_1">
   <g id="patch_2">
    <path d="M 8.503937 30.614173 
L 208.346457 30.614173 
L 208.346457 3.401575 
L 8.503937 3.401575 
z
" style="fill: #eaeaf2"/>
   </g>
   <g id="matplotlib.axis_1">
    <g id="xtick_1">
     <g id="line2d_1">
      <path d="M 9.493256 30.614173 
L 9.493256 3.401575 
" clip-path="url(#p234f1a3019)" style="fill: none; stroke: #ffffff; stroke-width: 0.9; stroke-linecap: square"/>
     </g>
     <g id="line2d_2">
      <defs>
       <path id="m587fdad480" d="M 0 0 
L 0 2 
" style="stroke: #000000; stroke-width: 0.4"/>
      </defs>
      <g>
       <use xlink:href="#m587fdad480" x="9.493256" y="30.614173" style="stroke: #000000; stroke-width: 0.4"/>
      </g>
     </g>
     <g id="text_1">
      <text style="font-size: 8px; font-family: 'DejaVu Sans', 'Bitstream Vera Sans', 'Computer Modern Sans Serif', 'Lucida Grande', 'Verdana', 'Geneva', 'Lucid', 'Arial', 'Helvetica', 'Avant Garde', sans-serif; text-anchor: middle" x="9.493256" y="42.192923" transform="rotate(-0 9.493256 42.192923)">0</text>
     </g>
    </g>
    <g id="xtick_2">
     <g id="line2d_3">
      <path d="M 52.119252 30.614173 
L 52.119252 3.401575 
" clip-path="url(#p234f1a3019)" style="fill: none; stroke: #ffffff; stroke-width: 0.9; stroke-linecap: square"/>
     </g>
     <g id="line2d_4">
      <g>
       <use xlink:href="#m587fdad480" x="52.119252" y="30.614173" style="stroke: #000000; stroke-width: 0.4"/>
      </g>
     </g>
     <g id="text_2">
      <text style="font-size: 8px; font-family: 'DejaVu Sans', 'Bitstream Vera Sans', 'Computer Modern Sans Serif', 'Lucida Grande', 'Verdana', 'Geneva', 'Lucid', 'Arial', 'Helvetica', 'Avant Garde', sans-serif; text-anchor: middle" x="52.119252" y="42.192923" transform="rotate(-0 52.119252 42.192923)">60</text>
     </g>
    </g>
    <g id="xtick_3">
     <g id="line2d_5">
      <path d="M 94.745248 30.614173 
L 94.745248 3.401575 
" clip-path="url(#p234f1a3019)" style="fill: none; stroke: #ffffff; stroke-width: 0.9; stroke-linecap: square"/>
     </g>
     <g id="line2d_6">
      <g>
       <use xlink:href="#m587fdad480" x="94.745248" y="30.614173" style="stroke: #000000; stroke-width: 0.4"/>
      </g>
     </g>
     <g id="text_3">
      <text style="font-size: 8px; font-family: 'DejaVu Sans', 'Bitstream Vera Sans', 'Computer Modern Sans Serif', 'Lucida Grande', 'Verdana', 'Geneva', 'Lucid', 'Arial', 'Helvetica', 'Avant Garde', sans-serif; text-anchor: middle" x="94.745248" y="42.192923" transform="rotate(-0 94.745248 42.192923)">120</text>
     </g>
    </g>
    <g id="xtick_4">
     <g id="line2d_7">
      <path d="M 137.371243 30.614173 
L 137.371243 3.401575 
" clip-path="url(#p234f1a3019)" style="fill: none; stroke: #ffffff; stroke-width: 0.9; stroke-linecap: square"/>
     </g>
     <g id="line2d_8">
      <g>
       <use xlink:href="#m587fdad480" x="137.371243" y="30.614173" style="stroke: #000000; stroke-width: 0.4"/>
      </g>
     </g>
     <g id="text_4">
      <text style="font-size: 8px; font-family: 'DejaVu Sans', 'Bitstream Vera Sans', 'Computer Modern Sans Serif', 'Lucida Grande', 'Verdana', 'Geneva', 'Lucid', 'Arial', 'Helvetica', 'Avant Garde', sans-serif; text-anchor: middle" x="137.371243" y="42.192923" transform="rotate(-0 137.371243 42.192923)">180</text>
     </g>
    </g>
    <g id="xtick_5">
     <g id="line2d_9">
      <path d="M 179.997239 30.614173 
L 179.997239 3.401575 
" clip-path="url(#p234f1a3019)" style="fill: none; stroke: #ffffff; stroke-width: 0.9; stroke-linecap: square"/>
     </g>
     <g id="line2d_10">
      <g>
       <use xlink:href="#m587fdad480" x="179.997239" y="30.614173" style="stroke: #000000; stroke-width: 0.4"/>
      </g>
     </g>
     <g id="text_5">
      <text style="font-size: 8px; font-family: 'DejaVu Sans', 'Bitstream Vera Sans', 'Computer Modern Sans Serif', 'Lucida Grande', 'Verdana', 'Geneva', 'Lucid', 'Arial', 'Helvetica', 'Avant Garde', sans-serif; text-anchor: middle" x="179.997239" y="42.192923" transform="rotate(-0 179.997239 42.192923)">240</text>
     </g>
    </g>
    <g id="xtick_6">
     <g id="line2d_11">
      <path d="M 30.806254 30.614173 
L 30.806254 3.401575 
" clip-path="url(#p234f1a3019)" style="fill: none; stroke: #ffffff; stroke-opacity: 0.9; stroke-width: 0.55; stroke-linecap: square"/>
     </g>
     <g id="line2d_12">
      <defs>
       <path id="mdc6347e5c4" d="M 0 0 
L 0 2 
" style="stroke: #000000; stroke-width: 0.6"/>
      </defs>
      <g>
       <use xlink:href="#mdc6347e5c4" x="30.806254" y="30.614173" style="stroke: #000000; stroke-width: 0.6"/>
      </g>
     </g>
    </g>
    <g id="xtick_7">
     <g id="line2d_13">
      <path d="M 73.43225 30.614173 
L 73.43225 3.401575 
" clip-path="url(#p234f1a3019)" style="fill: none; stroke: #ffffff; stroke-opacity: 0.9; stroke-width: 0.55; stroke-linecap: square"/>
     </g>
     <g id="line2d_14">
      <g>
       <use xlink:href="#mdc6347e5c4" x="73.43225" y="30.614173" style="stroke: #000000; stroke-width: 0.6"/>
      </g>
     </g>
    </g>
    <g id="xtick_8">
     <g id="line2d_15">
      <path d="M 116.058246 30.614173 
L 116.058246 3.401575 
" clip-path="url(#p234f1a3019)" style="fill: none; stroke: #ffffff; stroke-opacity: 0.9; stroke-width: 0.55; stroke-linecap: square"/>
     </g>
     <g id="line2d_16">
      <g>
       <use xlink:href="#mdc6347e5c4" x="116.058246" y="30.614173" style="stroke: #000000; stroke-width: 0.6"/>
      </g>
     </g>
    </g>
    <g id="xtick_9">
     <g id="line2d_17">
      <path d="M 158.684241 30.614173 
L 158.684241 3.401575 
" clip-path="url(#p234f1a3019)" style="fill: none; stroke: #ffffff; stroke-opacity: 0.9; stroke-width: 0.55; stroke-linecap: square"/>
     </g>
     <g id="line2d_18">
      <g>
       <use xlink:href="#mdc6347e5c4" x="158.684241" y="30.614173" style="stroke: #000000; stroke-width: 0.6"/>
      </g>
     </g>
    </g>
    <g id="xtick_10">
     <g id="line2d_19">
      <path d="M 201.310237 30.614173 
L 201.310237 3.401575 
" clip-path="url(#p234f1a3019)" style="fill: none; stroke: #ffffff; stroke-opacity: 0.9; stroke-width: 0.55; stroke-linecap: square"/>
     </g>
     <g id="line2d_20">
      <g>
       <use xlink:href="#mdc6347e5c4" x="201.310237" y="30.614173" style="stroke: #000000; stroke-width: 0.6"/>
      </g>
     </g>
    </g>
    <g id="text_6">
     <text style="font-size: 8px; font-family: 'DejaVu Sans', 'Bitstream Vera Sans', 'Computer Modern Sans Serif', 'Lucida Grande', 'Verdana', 'Geneva', 'Lucid', 'Arial', 'Helvetica', 'Avant Garde', sans-serif; text-anchor: middle" x="108.425197" y="53.935423" transform="rotate(-0 108.425197 53.935423)">time</text>
    </g>
   </g>
   <g id="matplotlib.axis_2">
    <g id="ytick_1">
     <g id="line2d_21">
      <path d="M 8.503937 28.096254 
L 208.346457 28.096254 
" clip-path="url(#p234f1a3019)" style="fill: none; stroke: #ffffff; stroke-width: 0.9; stroke-linecap: square"/>
     </g>
    </g>
    <g id="ytick_2">
     <g id="line2d_22">
      <path d="M 8.503937 20.2291 
L 208.346457 20.2291 
" clip-path="url(#p234f1a3019)" style="fill: none; stroke: #ffffff; stroke-width: 0.9; stroke-linecap: square"/>
     </g>
    </g>
    <g id="ytick_3">
     <g id="line2d_23">
      <path d="M 8.503937 12.361946 
L 208.346457 12.361946 
" clip-path="url(#p234f1a3019)" style="fill: none; stroke: #ffffff; stroke-width: 0.9; stroke-linecap: square"/>
     </g>
    </g>
    <g id="ytick_4">
     <g id="line2d_24">
      <path d="M 8.503937 4.494792 
L 208.346457 4.494792 
" clip-path="url(#p234f1a3019)" style="fill: none; stroke: #ffffff; stroke-width: 0.9; stroke-linecap: square"/>
     </g>
    </g>
    <g id="ytick_5">
     <g id="line2d_25">
      <path d="M 8.503937 24.162677 
L 208.346457 24.162677 
" clip-path="url(#p234f1a3019)" style="fill: none; stroke: #ffffff; stroke-opacity: 0.9; stroke-width: 0.55; stroke-linecap: square"/>
     </g>
     <g id="line2d_26">
      <defs>
       <path id="m8e4e9221bc" d="M 0 0 
L -2 0 
" style="stroke: #000000; stroke-width: 0.6"/>
      </defs>
      <g>
       <use xlink:href="#m8e4e9221bc" x="8.503937" y="24.162677" style="stroke: #000000; stroke-width: 0.6"/>
      </g>
     </g>
    </g>
    <g id="ytick_6">
     <g id="line2d_27">
      <path d="M 8.503937 16.295523 
L 208.346457 16.295523 
" clip-path="url(#p234f1a3019)" style="fill: none; stroke: #ffffff; stroke-opacity: 0.9; stroke-width: 0.55; stroke-linecap: square"/>
     </g>
     <g id="line2d_28">
      <g>
       <use xlink:href="#m8e4e9221bc" x="8.503937" y="16.295523" style="stroke: #000000; stroke-width: 0.6"/>
      </g>
     </g>
    </g>
    <g id="ytick_7">
     <g id="line2d_29">
      <path d="M 8.503937 8.428369 
L 208.346457 8.428369 
" clip-path="url(#p234f1a3019)" style="fill: none; stroke: #ffffff; stroke-opacity: 0.9; stroke-width: 0.55; stroke-linecap: square"/>
     </g>
     <g id="line2d_30">
      <g>
       <use xlink:href="#m8e4e9221bc" x="8.503937" y="8.428369" style="stroke: #000000; stroke-width: 0.6"/>
      </g>
     </g>
    </g>
   </g>
   <g id="line2d_31">
    <path d="M 9.493256 22.818601 
L 9.730305 23.703176 
L 9.848828 23.7535 
L 9.967352 23.962652 
L 10.085876 25.547123 
L 10.2044 25.547123 
L 10.322924 24.295547 
L 10.559972 24.238148 
L 10.74961 24.33034 
L 10.868134 24.797298 
L 11.105182 24.697341 
L 11.152592 24.619597 
L 11.34223 24.041969 
L 11.626687 23.853161 
L 11.697802 23.853161 
L 11.93485 24.623528 
L 12.100783 24.589128 
L 12.171897 24.483667 
L 12.408946 22.471356 
L 12.574879 17.049105 
L 12.693403 16.868357 
L 12.883041 17.523139 
L 13.167499 22.992076 
L 13.475661 23.064808 
L 13.594185 23.153659 
L 13.760119 23.421095 
L 14.11569 23.421095 
L 14.352739 23.426501 
L 14.779425 23.804608 
L 15.775026 23.700425 
L 16.367645 23.363991 
L 16.557284 23.744949 
L 16.723217 23.964028 
L 16.960265 24.898435 
L 17.434361 25.225236 
L 18.026981 25.076628 
L 18.216619 24.968316 
L 18.335143 24.954065 
L 18.501076 24.77656 
L 18.927763 24.828553 
L 19.093696 24.767124 
L 19.21222 23.775221 
L 19.449268 23.681751 
L 19.567792 20.98812 
L 19.757431 20.886 
L 19.875954 20.850617 
L 19.994478 20.389557 
L 20.278936 20.389557 
L 20.468574 19.732219 
L 20.587098 19.732219 
L 20.705622 19.988844 
L 20.824146 20.036513 
L 21.108604 20.731101 
L 21.464176 20.841968 
L 22.056795 24.717392 
L 22.104205 24.465582 
L 22.175319 24.637485 
L 22.341252 24.436391 
L 22.412367 24.436391 
L 22.696824 23.901813 
L 22.886463 23.985945 
L 22.933872 24.138781 
L 23.052396 25.194669 
L 23.242035 25.138155 
L 23.407968 24.521703 
L 23.526492 24.521703 
L 23.71613 24.955638 
L 23.953178 24.883594 
L 24.237636 24.736459 
L 24.427274 24.714738 
L 24.545798 23.537171 
L 24.830255 23.521151 
L 24.94878 24.827177 
L 25.138418 24.827177 
L 25.185827 24.756608 
L 25.304351 24.251417 
L 25.375466 24.251417 
L 25.49399 24.061331 
L 25.541399 24.061331 
L 25.612513 23.893066 
L 25.778447 22.729456 
L 25.849561 22.729456 
L 26.015495 21.407507 
L 26.08661 21.407507 
L 26.252543 21.128964 
L 26.371067 21.205234 
L 26.560705 21.522993 
L 26.963686 22.115757 
L 27.153325 22.254733 
L 27.556306 24.972247 
L 28.26745 25.743794 
L 28.385974 26.260582 
L 28.623022 26.156792 
L 28.694136 25.680694 
L 28.81266 23.837239 
L 28.931184 23.837239 
L 29.049708 22.06396 
L 30.282357 22.06396 
L 30.471995 23.297451 
L 31.112025 23.409301 
L 31.349073 24.051404 
L 31.657235 23.023135 
L 31.704645 23.023135 
L 31.894283 20.882069 
L 31.941692 20.771497 
L 32.131331 20.194459 
L 32.415788 20.583082 
L 32.534312 20.583082 
L 32.72395 19.718262 
L 32.889884 19.718262 
L 33.126932 20.971706 
L 33.292865 21.04719 
L 33.41139 21.413306 
L 33.719551 21.478273 
L 33.838076 21.788857 
L 33.9566 21.788857 
L 34.312171 21.108422 
L 34.430695 21.051219 
L 34.549219 20.678518 
L 34.715153 20.737687 
L 34.833677 21.006401 
L 35.023315 21.041096 
L 35.544821 21.770183 
L 35.900393 21.781977 
L 36.090031 21.160907 
L 36.208554 21.160907 
L 36.374488 20.185318 
L 36.445602 20.185318 
L 36.564126 9.075739 
L 36.682651 8.856265 
L 36.801174 8.856265 
L 36.848584 8.982761 
L 37.038222 10.815994 
L 37.085632 10.815994 
L 37.32268 14.378375 
L 37.393794 14.378375 
L 37.559727 20.202518 
L 37.630842 20.347097 
L 37.796775 21.021537 
L 38.033824 20.321444 
L 38.223462 19.181816 
L 38.341985 19.181816 
L 38.389395 19.381829 
L 38.579034 21.174667 
L 38.744967 21.174667 
L 38.934605 20.674193 
L 39.219063 20.484305 
L 39.574635 19.64042 
L 39.764273 19.73271 
L 39.882797 19.810553 
L 39.930207 20.031009 
L 40.119845 21.620591 
L 40.404302 21.620591 
L 40.522827 22.619768 
L 40.878398 22.619768 
L 41.068036 24.425088 
L 41.23397 24.357173 
L 41.542132 17.283124 
L 41.660656 17.283124 
L 41.897704 21.035494 
L 42.016228 20.948707 
L 42.253276 18.418133 
L 42.300686 18.418133 
L 42.419209 18.805774 
L 42.537733 18.805774 
L 42.727372 17.901541 
L 42.774781 17.901541 
L 43.082944 18.578045 
L 43.130353 18.578045 
L 43.319991 17.904588 
L 43.438516 17.983119 
L 43.485925 18.045629 
L 43.841497 20.389459 
L 43.960021 20.531187 
L 44.149659 20.435555 
L 44.315592 20.435555 
L 44.623755 19.616045 
L 44.789689 18.391301 
L 44.979327 19.087462 
L 45.026736 19.020922 
L 45.19267 19.194692 
L 45.311194 20.976227 
L 45.548242 20.976227 
L 45.73788 19.439425 
L 45.903814 19.489944 
L 46.140862 20.435653 
L 46.259385 20.435653 
L 46.496434 21.936384 
L 46.614957 22.036342 
L 46.733481 22.124013 
L 46.852005 21.907783 
L 46.970529 19.083629 
L 47.089053 19.083629 
L 47.207577 26.414892 
L 47.397215 26.414892 
L 47.800197 17.26042 
L 48.037245 15.708384 
L 48.226883 13.349614 
L 48.345407 13.349614 
L 48.51134 14.63559 
L 48.748388 14.560008 
L 49.10396 13.516996 
L 49.341008 13.437089 
L 49.530646 14.611215 
L 49.69658 17.398414 
L 50.052152 17.398414 
L 50.289199 14.037421 
L 50.597362 14.124699 
L 50.83441 12.272201 
L 51.237391 11.940682 
L 51.355915 12.035528 
L 51.474439 13.120903 
L 51.592963 13.120903 
L 51.782601 11.766912 
L 52.067059 11.31804 
L 52.849317 11.09149 
L 53.133774 11.173952 
L 53.489346 10.8902 
L 53.56046 10.955265 
L 53.607871 10.8902 
L 54.390129 10.874965 
L 54.508652 11.048833 
L 54.674586 11.60818 
L 54.79311 12.083787 
L 55.148682 13.270494 
L 55.267205 14.184948 
L 55.456844 15.326345 
L 55.504253 15.433084 
L 55.859825 19.16786 
L 55.978349 19.018367 
L 56.049463 19.16786 
L 56.167988 21.780699 
L 56.333921 27.330231 
L 56.452445 27.330231 
L 56.642083 24.039021 
L 56.760607 23.678605 
L 56.879132 22.696431 
L 57.163589 22.795504 
L 57.329522 23.387285 
L 57.874733 23.387285 
L 58.040666 23.746816 
L 58.277714 23.746816 
L 58.514762 22.955612 
L 58.585876 22.955612 
L 58.633286 23.137343 
L 58.941448 26.360736 
L 59.415544 26.443591 
L 59.581478 26.561928 
L 59.652592 26.579324 
L 59.937049 27.64337 
L 60.245211 27.837387 
L 60.411145 27.76839 
L 60.529669 27.584792 
L 60.885241 23.404092 
L 61.122289 23.404092 
L 61.359337 21.919282 
L 62.07048 21.924688 
L 62.260119 22.851723 
L 62.378642 22.851723 
L 62.497167 21.477978 
L 62.61569 20.70879 
L 64.440959 20.70879 
L 64.796531 23.853161 
L 64.915055 23.853161 
L 65.152103 23.630838 
L 65.389151 23.598993 
L 65.578789 23.287524 
L 65.744723 23.185503 
L 66.337343 23.891296 
L 66.645504 23.888151 
L 66.811438 24.123546 
L 66.882553 24.139666 
L 67.001076 24.304196 
L 67.119601 24.304196 
L 67.16701 24.143498 
L 67.356648 22.247853 
L 67.475173 22.247853 
L 67.641106 22.536421 
L 67.830744 22.482364 
L 67.949268 22.339358 
L 68.233726 22.339358 
L 68.423364 24.801328 
L 68.470774 24.801328 
L 68.589297 24.514431 
L 69.063393 24.464403 
L 69.300441 24.264784 
L 69.466375 24.264784 
L 69.656013 24.825408 
L 69.94047 24.907575 
L 70.130109 24.87229 
L 70.248633 24.274415 
L 70.53309 24.249844 
L 70.651614 24.23461 
L 70.770138 23.590639 
L 71.0783 23.700916 
L 71.196824 25.152406 
L 71.71833 25.078495 
L 71.955378 25.032693 
L 72.145016 25.032693 
L 72.26354 24.476492 
L 72.429473 24.496641 
L 72.547997 24.976375 
L 73.496189 25.083704 
L 74.207333 25.094319 
L 74.918476 25.042227 
L 75.748144 25.115647 
L 75.819258 25.067684 
L 75.937783 24.555907 
L 75.985192 24.555907 
L 76.17483 25.149851 
L 77.407479 25.129309 
L 77.526003 23.669268 
L 77.763051 23.762149 
L 77.881575 25.242633 
L 78.000099 25.242633 
L 78.118623 24.32523 
L 78.355671 24.32523 
L 78.474195 24.617238 
L 78.592719 25.153487 
L 79.303862 25.235359 
L 79.422387 24.063592 
L 79.612025 24.063592 
L 79.730548 24.41585 
L 79.849073 24.41585 
L 79.967597 23.447535 
L 80.015006 23.447535 
L 80.13353 22.88691 
L 80.252054 22.88691 
L 80.607626 23.531765 
L 81.081721 26.864157 
L 81.247655 26.771179 
L 81.721751 26.597212 
L 82.077323 26.861209 
L 82.148437 26.861209 
L 82.385485 26.501088 
L 82.669943 26.481628 
L 82.859581 26.298127 
L 83.570724 26.108828 
L 83.736658 26.200529 
L 83.973706 26.367223 
L 84.210754 26.428357 
L 84.400392 26.550428 
L 84.63744 26.442805 
L 84.874488 26.295474 
L 85.040422 26.334395 
L 85.23006 26.495978 
L 85.704155 26.454697 
L 85.870089 26.323092 
L 86.178252 26.37312 
L 86.415299 27.035274 
L 86.770871 26.962346 
L 86.889395 26.70808 
L 87.055328 26.496567 
L 87.244967 26.535588 
L 87.4109 26.812951 
L 87.529425 26.812951 
L 87.766472 26.153254 
L 87.837587 26.120033 
L 87.956111 25.584276 
L 88.074635 25.484318 
L 88.193158 25.433898 
L 88.359092 25.638037 
L 88.59614 25.638037 
L 88.785778 25.745759 
L 89.070236 26.032165 
L 89.259874 26.372727 
L 89.425808 26.506887 
L 89.852494 26.703361 
L 90.089542 26.499615 
L 90.326589 26.381377 
L 90.729571 26.353561 
L 90.848095 26.584632 
L 90.966619 26.353561 
L 91.322191 26.314247 
L 91.677762 25.990885 
L 91.914811 26.043173 
L 92.151859 26.549838 
L 92.388906 26.549838 
L 92.55484 26.1162 
L 93.740079 26.21311 
L 93.929718 26.406537 
L 94.095651 26.444181 
L 94.28529 26.547676 
L 94.403814 26.534703 
L 94.640862 26.152762 
L 94.925319 26.228345 
L 95.043843 26.600653 
L 95.280891 26.600653 
L 95.399415 26.200136 
L 95.826101 26.174287 
L 96.063149 21.677892 
L 96.229082 21.11599 
L 96.300197 21.11599 
L 96.655768 22.561485 
L 96.703178 22.541827 
L 96.774293 21.573315 
L 96.821702 22.252866 
L 96.892816 22.301124 
L 97.01134 22.541827 
L 97.129865 22.549002 
L 97.414322 23.319861 
L 97.60396 23.194447 
L 97.769894 23.506703 
L 98.006941 23.445077 
L 98.078056 23.393281 
L 98.24399 22.900178 
L 98.552152 22.873347 
L 98.599561 22.89094 
L 98.789199 23.244868 
L 98.836609 23.244868 
L 99.381819 24.244832 
L 99.737391 22.263775 
L 99.903325 21.224596 
L 100.021849 21.021733 
L 100.140372 20.351422 
L 100.330011 20.362037 
L 100.448535 20.475852 
L 100.495944 21.065864 
L 100.685583 25.180417 
L 100.804107 25.180417 
L 101.088564 22.944014 
L 101.159679 22.944014 
L 101.207088 22.354985 
L 101.278202 22.448062 
L 101.444136 22.448062 
L 101.633774 24.229106 
L 101.799708 24.229106 
L 101.870822 24.017791 
L 102.226394 19.711481 
L 102.344918 19.32728 
L 102.510852 17.424558 
L 102.7479 17.456796 
L 103.103472 18.702868 
L 103.411633 22.891431 
L 103.577567 22.891431 
L 103.696091 21.348732 
L 103.814615 21.348732 
L 104.122777 24.220064 
L 104.241302 24.220064 
L 104.691692 18.846562 
L 104.810217 18.956839 
L 104.92874 19.068394 
L 104.999855 19.407678 
L 105.165788 21.302144 
L 105.402836 22.229769 
L 105.47395 22.229769 
L 105.52136 22.048037 
L 105.710998 20.714 
L 105.829522 20.714 
L 105.995456 24.201389 
L 106.232504 29.049845 
L 106.351028 29.049845 
L 106.540666 24.245716 
L 106.588076 24.160699 
L 106.943648 20.400958 
L 107.488858 20.5018 
L 107.607381 20.632225 
L 107.891839 20.632225 
L 108.200001 24.336336 
L 108.365935 24.886541 
L 108.555573 24.813417 
L 108.721507 24.737344 
L 108.911145 23.121814 
L 109.077079 23.151889 
L 109.314126 24.942762 
L 109.432651 25.26799 
L 109.551174 25.26799 
L 109.740812 24.480325 
L 109.906746 24.480325 
L 110.262318 25.50486 
L 110.333432 25.494933 
L 110.57048 24.650852 
L 110.61789 24.650852 
L 110.689004 24.534579 
L 110.854938 23.860533 
L 110.973462 23.429155 
L 111.091985 23.203096 
L 111.1631 23.271798 
L 111.400148 23.267474 
L 111.518672 23.547491 
L 111.637196 23.046919 
L 111.684605 23.547491 
L 111.75572 23.340992 
L 111.874243 23.340992 
L 112.111292 25.065325 
L 112.277225 25.147492 
L 112.395749 25.747332 
L 112.514273 27.222706 
L 112.632797 27.222706 
L 112.751321 25.847977 
L 112.869845 25.782813 
L 112.988369 25.018737 
L 113.106893 25.018737 
L 113.296531 21.978746 
L 113.415055 19.769764 
L 113.580988 19.769764 
L 113.770627 21.517587 
L 113.818036 21.517587 
L 114.055085 20.182664 
L 114.363246 20.292155 
L 114.52918 20.408919 
L 114.718818 20.905658 
L 114.884752 21.990344 
L 115.07439 22.219448 
L 115.240324 22.343092 
L 115.358848 22.786167 
L 115.477372 22.786167 
L 115.785534 21.251526 
L 116.022582 21.251526 
L 116.235925 22.271639 
L 116.307039 22.271639 
L 116.662611 21.292315 
L 116.828545 21.537048 
L 116.899659 21.537048 
L 117.018183 21.412912 
L 117.065592 21.537244 
L 117.302641 20.948903 
L 117.610803 20.948903 
L 117.776736 20.30336 
L 117.84785 20.30336 
L 117.895261 20.456785 
L 118.084899 21.460483 
L 118.321947 22.199595 
L 118.369356 21.887536 
L 118.44047 22.089711 
L 118.558994 22.189176 
L 118.606404 22.089711 
L 118.961976 20.133816 
L 119.270138 20.199668 
L 119.317548 20.004668 
L 119.554595 17.582504 
L 119.862758 15.802836 
L 120.099806 15.706516 
L 120.147215 15.620516 
L 120.336853 14.908334 
L 120.573902 14.495434 
L 120.621311 14.495434 
L 120.81095 18.868186 
L 121.095407 18.87654 
L 121.213931 17.16754 
L 121.332455 17.16754 
L 121.450979 18.83752 
L 121.569503 18.83752 
L 121.877665 16.550598 
L 121.925075 16.550598 
L 122.043598 17.000749 
L 122.280646 17.000749 
L 122.39917 11.164319 
L 122.517695 11.164319 
L 122.944381 20.566669 
L 122.99179 20.566669 
L 123.110314 18.946912 
L 123.228838 18.946912 
L 123.347362 21.197666 
L 123.465886 22.098556 
L 123.655524 22.003121 
L 123.774048 21.743547 
L 123.892572 21.743547 
L 124.011096 21.877904 
L 124.177029 21.862866 
L 124.295554 21.338215 
L 124.414077 21.338215 
L 124.603716 22.303582 
L 124.72224 22.410124 
L 124.840764 22.213748 
L 125.006697 20.083199 
L 125.125221 20.083199 
L 125.243745 20.714982 
L 125.362269 20.714982 
L 125.717841 19.618699 
L 125.907479 19.691136 
L 126.191937 21.494686 
L 126.263051 21.537638 
L 126.381575 21.750427 
L 126.547509 25.194767 
L 126.666032 25.430359 
L 126.737147 25.430359 
L 126.855671 25.282537 
L 127.021604 22.858014 
L 127.092718 22.854771 
L 127.140129 22.660458 
L 127.4957 18.651661 
L 127.614224 19.040383 
L 127.851272 22.073592 
L 128.08832 22.097279 
L 128.443891 17.850924 
L 128.491302 17.850924 
L 128.609825 17.968081 
L 128.846873 21.496259 
L 128.917988 21.568696 
L 129.036511 21.829449 
L 129.155035 21.781387 
L 129.27356 21.601622 
L 129.747655 13.442888 
L 129.795065 13.116479 
L 129.984703 14.057569 
L 130.103227 16.733214 
L 139.229571 17.551348 
L 139.751076 23.768242 
L 140.225173 24.390197 
L 140.391106 24.433836 
L 140.46222 24.433836 
L 140.699268 21.697451 
L 140.865202 21.356103 
L 141.102249 17.124196 
L 141.339297 16.070863 
L 141.410412 16.070863 
L 141.694869 18.17173 
L 141.765984 18.17173 
L 141.813393 17.914613 
L 142.050441 11.353619 
L 142.287489 10.671414 
L 142.358604 10.671414 
L 142.524537 15.210368 
L 142.761585 20.525683 
L 142.998633 23.972677 
L 143.117157 23.972677 
L 143.306795 23.802741 
L 143.354205 23.802741 
L 143.472728 24.146643 
L 143.591252 24.934211 
L 143.709777 24.934211 
L 144.42092 15.780133 
L 144.539444 15.780133 
L 144.657968 16.468431 
L 145.01354 20.120843 
L 145.203178 20.20183 
L 145.321702 20.137748 
L 145.487636 19.507144 
L 145.677274 19.410529 
L 145.843208 17.632335 
L 146.032846 11.774677 
L 146.19878 10.552882 
L 146.269894 10.552882 
L 146.435827 11.467729 
L 146.506941 11.483553 
L 146.625466 11.918076 
L 146.791399 11.906676 
L 146.862513 11.665087 
L 147.146971 4.638511 
L 147.265495 4.644213 
L 147.384019 5.294767 
L 147.573657 10.272372 
L 147.739591 13.772146 
L 147.929229 16.843884 
L 148.047753 16.843884 
L 148.92483 8.800144 
L 148.995944 8.800144 
L 149.351516 10.606153 
L 149.470041 10.606153 
L 149.51745 10.494696 
L 149.635974 9.99609 
L 149.825612 9.99609 
L 149.944136 10.381274 
L 150.181184 10.381274 
L 150.299708 12.140105 
L 150.347117 12.140105 
L 150.465642 12.886096 
L 150.65528 12.45521 
L 150.821214 12.794592 
L 150.892328 12.794592 
L 151.058261 13.231966 
L 151.176785 14.789802 
L 151.295309 14.789802 
L 151.413833 14.256206 
L 151.532357 14.256206 
L 151.769405 19.536433 
L 151.935338 19.536433 
L 152.362025 9.941738 
L 152.480548 9.658871 
L 152.599073 9.658871 
L 152.717597 11.089425 
L 152.83612 11.09552 
L 152.88353 11.419372 
L 153.002054 11.09552 
L 153.073168 11.09552 
L 153.120578 11.419372 
L 153.191692 12.741419 
L 153.357626 20.092339 
L 153.47615 21.457731 
L 153.594674 21.457731 
L 153.713198 19.395785 
L 154.02136 12.258834 
L 154.187293 12.289303 
L 154.305818 13.66757 
L 154.424341 14.4343 
L 154.495456 14.450714 
L 154.66139 16.83779 
L 154.898437 20.688052 
L 154.969551 20.688052 
L 155.016961 18.90003 
L 155.206599 8.995243 
L 155.443648 9.10434 
L 155.491057 9.428488 
L 155.680695 11.426743 
L 155.728105 11.427923 
L 155.846629 11.939208 
L 155.965152 10.961261 
L 156.154791 8.335644 
L 156.273315 8.335644 
L 156.439249 10.465309 
L 156.557772 12.623968 
L 156.794821 17.708605 
L 156.913344 17.660642 
L 157.031868 17.318016 
L 157.102982 17.318016 
L 157.38744 18.764493 
L 157.505964 18.764493 
L 157.624488 18.146962 
L 157.98006 16.020835 
L 158.217108 11.018463 
L 158.406746 9.915594 
L 158.52527 9.915594 
L 158.643794 9.515864 
L 158.809727 9.515864 
L 158.928252 9.274572 
L 159.283824 5.42372 
L 159.520871 5.517386 
L 159.639395 5.782169 
L 159.757919 5.782169 
L 159.829033 6.200673 
L 160.066082 12.38641 
L 160.232015 15.417063 
L 160.303129 15.806276 
L 160.421653 17.262583 
L 160.824635 17.262583 
L 161.014273 22.736335 
L 161.132797 23.089281 
L 161.29873 23.089281 
L 161.488369 22.89782 
L 161.535778 22.89782 
L 161.654302 21.512673 
L 162.009874 21.512673 
L 162.128398 10.780906 
L 162.199513 10.780906 
L 162.365446 9.704672 
L 162.48397 9.744183 
L 162.673608 10.213106 
L 162.958066 12.480765 
L 163.266228 20.485877 
L 163.384752 20.857792 
L 163.503276 20.857792 
L 163.598095 19.741261 
L 163.716619 19.741261 
L 164.190715 22.985982 
L 164.427762 25.774361 
L 164.546287 25.774361 
L 164.664811 25.040458 
L 164.783334 23.646269 
L 164.972973 21.326715 
L 165.210021 19.26192 
L 165.375954 17.540339 
L 165.494478 17.540339 
L 165.684117 17.747232 
L 166.039689 17.728263 
L 166.276736 19.302119 
L 166.44267 19.302119 
L 166.513784 18.913397 
L 166.679718 17.812002 
L 166.798242 17.359001 
L 166.916765 17.359001 
L 167.03529 17.830578 
L 167.153814 17.830578 
L 167.627909 16.030566 
L 167.699023 16.030566 
L 167.936072 17.580538 
L 168.102005 17.580538 
L 168.339053 16.649277 
L 168.457577 16.732427 
L 168.576101 16.581656 
L 168.647215 16.649277 
L 168.765739 16.920252 
L 168.884263 16.965857 
L 169.121311 17.227494 
L 169.239835 17.227494 
L 169.405768 17.585355 
L 169.476883 17.585355 
L 169.832455 20.210971 
L 169.998388 20.145512 
L 170.116912 17.947539 
L 170.35396 9.113579 
L 170.543598 9.113579 
L 170.662123 9.289118 
L 170.780646 9.289118 
L 170.89917 9.06021 
L 171.302152 8.955142 
L 171.49179 8.274904 
L 171.728838 8.255246 
L 171.776248 9.413254 
L 172.013296 21.104589 
L 172.321457 21.104589 
L 172.368868 21.418515 
L 172.677029 29.377237 
L 172.724439 29.377237 
L 173.269649 22.513717 
L 173.317059 22.513717 
L 173.435583 24.010124 
L 173.625221 26.942098 
L 173.743745 26.942098 
L 173.909679 24.350391 
L 174.146727 18.244363 
L 174.26525 17.700448 
L 174.383774 17.700448 
L 174.454889 17.867632 
L 174.739346 22.639622 
L 174.928985 23.73797 
L 175.094918 23.650299 
L 175.331966 22.597949 
L 175.853472 22.145439 
L 175.971995 22.160969 
L 176.090519 22.498385 
L 176.280158 22.69653 
L 176.446091 22.629597 
L 176.63573 21.599066 
L 176.872777 21.647915 
L 177.157235 22.738694 
L 177.275759 23.15474 
L 177.394283 23.15474 
L 177.702445 22.630973 
L 177.749855 22.630973 
L 177.986903 22.948437 
L 178.769161 22.970355 
L 178.81657 23.121618 
L 179.053618 24.895585 
L 179.243256 24.895585 
L 179.40919 24.373193 
L 179.717352 22.3197 
L 179.883286 22.393808 
L 180.357381 22.622422 
L 180.712953 24.578906 
L 180.831477 24.038529 
L 181.021116 21.83053 
L 181.187049 21.859623 
L 181.424097 25.107981 
L 181.661145 25.03859 
L 181.779669 23.9656 
L 181.898193 23.9656 
L 182.016717 24.65557 
L 182.13524 24.65557 
L 182.443403 20.072387 
L 182.561927 18.931088 
L 182.680451 18.931088 
L 182.964909 22.411696 
L 183.036023 22.411696 
L 183.32048 15.403598 
L 183.510118 15.204176 
L 183.794576 15.212039 
L 184.221262 22.318324 
L 184.268672 22.433123 
L 184.50572 23.472303 
L 184.624243 23.514172 
L 184.742768 23.256466 
L 184.932406 23.550735 
L 185.216863 28.347394 
L 185.335387 28.347394 
L 185.64355 22.923767 
L 185.690959 22.923767 
L 185.809483 24.893029 
L 185.999121 27.797876 
L 186.117645 27.797876 
L 186.165055 27.672954 
L 186.639151 12.535903 
L 186.710265 12.531579 
L 186.947313 11.512744 
L 186.994723 11.512744 
L 187.065837 11.697424 
L 187.113246 12.152784 
L 187.27918 20.486663 
L 187.468818 20.429756 
L 187.516228 19.835125 
L 187.634752 17.528152 
L 187.753276 17.528152 
L 187.990324 22.899687 
L 188.179962 22.899687 
L 188.582944 19.628625 
L 188.654058 19.628625 
L 188.819991 20.096173 
L 189.00963 19.906874 
L 189.057039 19.906874 
L 189.246677 18.971583 
L 189.365202 18.971583 
L 189.412611 19.085201 
L 189.602249 20.784962 
L 189.720774 22.342601 
L 189.839297 23.811979 
L 189.957821 23.811979 
L 190.005231 23.543757 
L 190.479327 12.824963 
L 190.906013 12.051057 
L 190.953422 12.051057 
L 191.19047 14.475777 
L 191.261585 14.659179 
L 191.664566 23.442816 
L 191.78309 24.585492 
L 191.901614 24.585492 
L 191.972728 24.30341 
L 192.138662 20.711641 
L 192.3283 20.711641 
L 192.494234 22.329529 
L 192.612758 22.329529 
L 192.731281 21.277376 
L 192.92092 21.371927 
L 193.086853 21.55985 
L 193.276492 21.720744 
L 193.323901 21.720744 
L 193.51354 21.041882 
L 193.56095 19.632753 
L 193.750588 11.216706 
L 193.987636 8.46322 
L 194.035045 8.413684 
L 194.224683 7.818462 
L 194.272093 7.818462 
L 194.746189 8.530644 
L 194.864713 8.603277 
L 195.054351 8.67591 
L 195.220284 9.601176 
L 195.694381 10.029999 
L 195.812904 10.058994 
L 195.884019 10.174185 
L 196.239591 14.261415 
L 196.524048 14.251685 
L 196.595162 14.58743 
L 196.832211 17.573855 
L 196.950734 17.960316 
L 197.069258 17.960316 
L 197.235192 16.551286 
L 197.353716 16.090127 
L 197.47224 16.090127 
L 197.827812 24.130721 
L 197.898926 24.130721 
L 198.183384 19.071048 
L 198.373022 19.071048 
L 198.491545 19.858615 
L 198.61007 19.858615 
L 198.847117 18.492536 
L 198.894527 18.492536 
L 199.013051 18.810786 
L 199.131575 18.810786 
L 199.724195 13.540781 
L 199.890128 9.447949 
L 200.079767 9.472619 
L 200.553862 10.353459 
L 201.38353 10.315619 
L 201.549463 10.218708 
L 201.857626 10.146763 
L 202.02356 10.082582 
L 202.142083 10.082582 
L 202.379131 10.36201 
L 202.616179 10.27768 
L 202.805818 10.146763 
L 203.682894 10.197085 
L 203.919943 10.495188 
L 203.991057 10.572145 
L 204.275514 11.371212 
L 204.394038 11.371212 
L 204.631086 9.756764 
L 204.702201 9.7432 
L 204.820724 9.428488 
L 204.986658 9.452667 
L 205.223706 10.487914 
L 205.413344 10.487914 
L 205.579278 10.199936 
L 206.053374 10.097227 
L 206.243012 9.933187 
L 206.883041 9.880211 
L 207.07268 8.365229 
L 207.357137 8.291121 
L 207.357137 8.291121 
" clip-path="url(#p234f1a3019)" style="fill: none; stroke: #5c80b5; stroke-width: 0.5; stroke-linecap: square"/>
   </g>
   <g id="patch_3">
    <path d="M 8.503937 30.614173 
L 208.346457 30.614173 
" style="fill: none; stroke: #000000; stroke-width: 0.4; stroke-linejoin: miter; stroke-linecap: square"/>
   </g>
   <g id="patch_4">
    <path d="M 8.503937 3.401575 
L 208.346457 3.401575 
" style="fill: none; stroke: #000000; stroke-width: 0.4; stroke-linejoin: miter; stroke-linecap: square"/>
   </g>
  </g>
 </g>
 <defs>
  <clipPath id="p234f1a3019">
   <rect x="8.503937" y="3.401575" width="199.84252" height="27.212598"/>
  </clipPath>
 </defs>
</svg>
