<?xml version="1.0" encoding="utf-8" standalone="no"?>
<!DOCTYPE svg PUBLIC "-//W3C//DTD SVG 1.1//EN"
  "http://www.w3.org/Graphics/SVG/1.1/DTD/svg11.dtd">
<svg xmlns:xlink="http://www.w3.org/1999/xlink" width="212.598425pt" height="42.519685pt" viewBox="0 0 212.598425 42.519685" xmlns="http://www.w3.org/2000/svg" version="1.1">
 <metadata>
  <rdf:RDF xmlns:dc="http://purl.org/dc/elements/1.1/" xmlns:cc="http://creativecommons.org/ns#" xmlns:rdf="http://www.w3.org/1999/02/22-rdf-syntax-ns#">
   <cc:Work>
    <dc:type rdf:resource="http://purl.org/dc/dcmitype/StillImage"/>
    <dc:date>2026-06-01T17:59:27.499507</dc:date>
    <dc:format>image/svg+xml</dc:format>
    <dc:creator>
     <cc:Agent>
      <dc:title>Matplotlib v3.10.8, https://matplotlib.org/</dc:title>
     </cc:Agent>
    </dc:creator>
   </cc:Work>
  </rdf:RDF>
 </metadata>
 <defs>
  <style type="text/css">*{stroke-linejoin: round; stroke-linecap: butt}</style>
 </defs>
 <g id="figure_1">
  <g id="patch_1">
   <path d="M 0 42.519685 
L 212.598425 42.519685 
L 212.598425 0 
L 0 0 
z
" style="fill: #ffffff"/>
  </g>
  <g id="axes_1">
   <g id="patch_2">
    <path d="M 8.503937 30.614173 
L 208.346457 30.614173 
L 208.346457 3.401575 
L 8.503937 3.401575 
z
" style="fill: #eaeaf2"/>
   </g>
   <g id="matplotlib.axis_1">
    <g id="xtick_1">
     <g id="line2d_1">
      <path d="M 9.493256 30.614173 
L 9.493256 3.401575 
" clip-path="url(#p15d4310774)" style="fill: none; stroke: #ffffff; stroke-width: 0.9; stroke-linecap: square"/>
     </g>
     <g id="line2d_2">
      <defs>
       <path id="m7541a7bd87" d="M 0 0 
L 0 2 
" style="stroke: #000000; stroke-width: 0.4"/>
      </defs>
      <g>
       <use xlink:href="#m7541a7bd87" x="9.493256" y="30.614173" style="stroke: #000000; stroke-width: 0.4"/>
      </g>
     </g>
     <g id="text_1">
      <text style="font-size: 8px; font-family: 'DejaVu Sans', 'Bitstream Vera Sans', 'Computer Modern Sans Serif', 'Lucida Grande', 'Verdana', 'Geneva', 'Lucid', 'Arial', 'Helvetica', 'Avant Garde', sans-serif; text-anchor: middle" x="9.493256" y="42.192923" transform="rotate(-0 9.493256 42.192923)">0</text>
     </g>
    </g>
    <g id="xtick_2">
     <g id="line2d_3">
      <path d="M 52.119252 30.614173 
L 52.119252 3.401575 
" clip-path="url(#p15d4310774)" style="fill: none; stroke: #ffffff; stroke-width: 0.9; stroke-linecap: square"/>
     </g>
     <g id="line2d_4">
      <g>
       <use xlink:href="#m7541a7bd87" x="52.119252" y="30.614173" style="stroke: #000000; stroke-width: 0.4"/>
      </g>
     </g>
     <g id="text_2">
      <text style="font-size: 8px; font-family: 'DejaVu Sans', 'Bitstream Vera Sans', 'Computer Modern Sans Serif', 'Lucida Grande', 'Verdana', 'Geneva', 'Lucid', 'Arial', 'Helvetica', 'Avant Garde', sans-serif; text-anchor: middle" x="52.119252" y="42.192923" transform="rotate(-0 52.119252 42.192923)">60</text>
     </g>
    </g>
    <g id="xtick_3">
     <g id="line2d_5">
      <path d="M 94.745248 30.614173 
L 94.745248 3.401575 
" clip-path="url(#p15d4310774)" style="fill: none; stroke: #ffffff; stroke-width: 0.9; stroke-linecap: square"/>
     </g>
     <g id="line2d_6">
      <g>
       <use xlink:href="#m7541a7bd87" x="94.745248" y="30.614173" style="stroke: #000000; stroke-width: 0.4"/>
      </g>
     </g>
     <g id="text_3">
      <text style="font-size: 8px; font-family: 'DejaVu Sans', 'Bitstream Vera Sans', 'Computer Modern Sans Serif', 'Lucida Grande', 'Verdana', 'Geneva', 'Lucid', 'Arial', 'Helvetica', 'Avant Garde', sans-serif; text-anchor: middle" x="94.745248" y="42.192923" transform="rotate(-0 94.745248 42.192923)">120</text>
     </g>
    </g>
    <g id="xtick_4">
     <g id="line2d_7">
      <path d="M 137.371243 30.614173 
L 137.371243 3.401575 
" clip-path="url(#p15d4310774)" style="fill: none; stroke: #ffffff; stroke-width: 0.9; stroke-linecap: square"/>
     </g>
     <g id="line2d_8">
      <g>
       <use xlink:href="#m7541a7bd87" x="137.371243" y="30.614173" style="stroke: #000000; stroke-width: 0.4"/>
      </g>
     </g>
     <g id="text_4">
      <text style="font-size: 8px; font-family: 'DejaVu Sans', 'Bitstream Vera Sans', 'Computer Modern Sans Serif', 'Lucida Grande', 'Verdana', 'Geneva', 'Lucid', 'Arial', 'Helvetica', 'Avant Garde', sans-serif; text-anchor: middle" x="137.371243" y="42.192923" transform="rotate(-0 137.371243 42.192923)">180</text>
     </g>
    </g>
    <g id="xtick_5">
     <g id="line2d_9">
      <path d="M 179.997239 30.614173 
L 179.997239 3.401575 
" clip-path="url(#p15d4310774)" style="fill: none; stroke: #ffffff; stroke-width: 0.9; stroke-linecap: square"/>
     </g>
     <g id="line2d_10">
      <g>
       <use xlink:href="#m7541a7bd87" x="179.997239" y="30.614173" style="stroke: #000000; stroke-width: 0.4"/>
      </g>
     </g>
     <g id="text_5">
      <text style="font-size: 8px; font-family: 'DejaVu Sans', 'Bitstream Vera Sans', 'Computer Modern Sans Serif', 'Lucida Grande', 'Verdana', 'Geneva', 'Lucid', 'Arial', 'Helvetica', 'Avant Garde', sans-serif; text-anchor: middle" x="179.997239" y="42.192923" transform="rotate(-0 179.997239 42.192923)">240</text>
     </g>
    </g>
    <g id="xtick_6">
     <g id="line2d_11">
      <path d="M 30.806254 30.614173 
L 30.806254 3.401575 
" clip-path="url(#p15d4310774)" style="fill: none; stroke: #ffffff; stroke-opacity: 0.9; stroke-width: 0.55; stroke-linecap: square"/>
     </g>
     <g id="line2d_12">
      <defs>
       <path id="m31c3572e3b" d="M 0 0 
L 0 2 
" style="stroke: #000000; stroke-width: 0.6"/>
      </defs>
      <g>
       <use xlink:href="#m31c3572e3b" x="30.806254" y="30.614173" style="stroke: #000000; stroke-width: 0.6"/>
      </g>
     </g>
    </g>
    <g id="xtick_7">
     <g id="line2d_13">
      <path d="M 73.43225 30.614173 
L 73.43225 3.401575 
" clip-path="url(#p15d4310774)" style="fill: none; stroke: #ffffff; stroke-opacity: 0.9; stroke-width: 0.55; stroke-linecap: square"/>
     </g>
     <g id="line2d_14">
      <g>
       <use xlink:href="#m31c3572e3b" x="73.43225" y="30.614173" style="stroke: #000000; stroke-width: 0.6"/>
      </g>
     </g>
    </g>
    <g id="xtick_8">
     <g id="line2d_15">
      <path d="M 116.058246 30.614173 
L 116.058246 3.401575 
" clip-path="url(#p15d4310774)" style="fill: none; stroke: #ffffff; stroke-opacity: 0.9; stroke-width: 0.55; stroke-linecap: square"/>
     </g>
     <g id="line2d_16">
      <g>
       <use xlink:href="#m31c3572e3b" x="116.058246" y="30.614173" style="stroke: #000000; stroke-width: 0.6"/>
      </g>
     </g>
    </g>
    <g id="xtick_9">
     <g id="line2d_17">
      <path d="M 158.684241 30.614173 
L 158.684241 3.401575 
" clip-path="url(#p15d4310774)" style="fill: none; stroke: #ffffff; stroke-opacity: 0.9; stroke-width: 0.55; stroke-linecap: square"/>
     </g>
     <g id="line2d_18">
      <g>
       <use xlink:href="#m31c3572e3b" x="158.684241" y="30.614173" style="stroke: #000000; stroke-width: 0.6"/>
      </g>
     </g>
    </g>
    <g id="xtick_10">
     <g id="line2d_19">
      <path d="M 201.310237 30.614173 
L 201.310237 3.401575 
" clip-path="url(#p15d4310774)" style="fill: none; stroke: #ffffff; stroke-opacity: 0.9; stroke-width: 0.55; stroke-linecap: square"/>
     </g>
     <g id="line2d_20">
      <g>
       <use xlink:href="#m31c3572e3b" x="201.310237" y="30.614173" style="stroke: #000000; stroke-width: 0.6"/>
      </g>
     </g>
    </g>
    <g id="text_6">
     <text style="font-size: 8px; font-family: 'DejaVu Sans', 'Bitstream Vera Sans', 'Computer Modern Sans Serif', 'Lucida Grande', 'Verdana', 'Geneva', 'Lucid', 'Arial', 'Helvetica', 'Avant Garde', sans-serif; text-anchor: middle" x="108.425197" y="53.935423" transform="rotate(-0 108.425197 53.935423)">time</text>
    </g>
   </g>
   <g id="matplotlib.axis_2">
    <g id="ytick_1">
     <g id="line2d_21">
      <path d="M 8.503937 25.588026 
L 208.346457 25.588026 
" clip-path="url(#p15d4310774)" style="fill: none; stroke: #ffffff; stroke-width: 0.9; stroke-linecap: square"/>
     </g>
    </g>
    <g id="ytick_2">
     <g id="line2d_22">
      <path d="M 8.503937 15.396502 
L 208.346457 15.396502 
" clip-path="url(#p15d4310774)" style="fill: none; stroke: #ffffff; stroke-width: 0.9; stroke-linecap: square"/>
     </g>
    </g>
    <g id="ytick_3">
     <g id="line2d_23">
      <path d="M 8.503937 5.204978 
L 208.346457 5.204978 
" clip-path="url(#p15d4310774)" style="fill: none; stroke: #ffffff; stroke-width: 0.9; stroke-linecap: square"/>
     </g>
    </g>
    <g id="ytick_4">
     <g id="line2d_24">
      <path d="M 8.503937 20.492264 
L 208.346457 20.492264 
" clip-path="url(#p15d4310774)" style="fill: none; stroke: #ffffff; stroke-opacity: 0.9; stroke-width: 0.55; stroke-linecap: square"/>
     </g>
     <g id="line2d_25">
      <defs>
       <path id="m941f814bdc" d="M 0 0 
L -2 0 
" style="stroke: #000000; stroke-width: 0.6"/>
      </defs>
      <g>
       <use xlink:href="#m941f814bdc" x="8.503937" y="20.492264" style="stroke: #000000; stroke-width: 0.6"/>
      </g>
     </g>
    </g>
    <g id="ytick_5">
     <g id="line2d_26">
      <path d="M 8.503937 10.30074 
L 208.346457 10.30074 
" clip-path="url(#p15d4310774)" style="fill: none; stroke: #ffffff; stroke-opacity: 0.9; stroke-width: 0.55; stroke-linecap: square"/>
     </g>
     <g id="line2d_27">
      <g>
       <use xlink:href="#m941f814bdc" x="8.503937" y="10.30074" style="stroke: #000000; stroke-width: 0.6"/>
      </g>
     </g>
    </g>
   </g>
   <g id="line2d_28">
    <path d="M 9.493256 9.451378 
L 9.919943 8.366823 
L 10.085876 6.607758 
L 10.275514 6.666781 
L 10.322924 6.751118 
L 10.512563 7.556811 
L 10.631086 7.827215 
L 10.79702 8.433644 
L 10.868134 8.433644 
L 11.105182 7.527299 
L 11.223706 7.414291 
L 11.508164 6.827776 
L 11.626687 6.827776 
L 11.745211 7.318678 
L 11.863736 7.318678 
L 12.100783 6.667981 
L 12.456355 6.646267 
L 12.574879 6.250498 
L 12.693403 6.250498 
L 12.930451 6.690294 
L 13.120089 6.693773 
L 13.286023 7.23902 
L 13.404547 8.665179 
L 13.594185 8.647664 
L 13.641595 8.422368 
L 13.760119 7.511103 
L 13.949757 7.442363 
L 14.352739 7.48819 
L 14.542377 7.56029 
L 14.589786 7.48819 
L 14.70831 6.662702 
L 14.826834 6.662702 
L 15.063882 6.931907 
L 15.727616 7.090742 
L 15.89355 7.046355 
L 16.201712 7.155403 
L 16.320236 7.205549 
L 16.48617 7.171359 
L 16.723217 7.171359 
L 17.268428 7.280409 
L 17.386951 7.472354 
L 17.552885 7.984971 
L 17.671409 7.984971 
L 17.861047 7.432285 
L 18.026981 6.989611 
L 18.264029 6.500508 
L 18.572191 6.515983 
L 18.975173 7.13393 
L 19.093696 7.13393 
L 19.164811 6.888359 
L 19.330744 7.193793 
L 19.449268 9.664498 
L 19.638906 9.664498 
L 19.757431 8.620551 
L 19.923364 8.702608 
L 19.994478 9.949058 
L 20.113002 20.737867 
L 20.231526 20.737867 
L 20.39746 18.989716 
L 20.515984 18.645294 
L 20.587098 18.651172 
L 20.705622 19.009992 
L 20.824146 18.645294 
L 20.871556 18.645294 
L 21.061194 17.73715 
L 21.227127 17.689642 
L 21.938271 17.865633 
L 21.98568 17.865633 
L 22.104205 8.748796 
L 22.459777 7.024281 
L 22.5783 5.855209 
L 22.696824 5.855209 
L 23.004987 6.732163 
L 23.360558 7.659982 
L 23.645016 7.713486 
L 23.76354 7.434805 
L 23.882064 7.671018 
L 24.071702 7.702929 
L 24.237636 7.784987 
L 24.35616 7.781508 
L 24.593208 6.694493 
L 24.711731 6.694493 
L 24.90137 7.579604 
L 25.019894 8.185193 
L 25.138418 8.185193 
L 25.422875 6.905634 
L 25.731038 7.306081 
L 25.849561 19.892103 
L 25.968085 19.892103 
L 26.134019 19.382006 
L 26.252543 19.247764 
L 26.442181 19.440791 
L 26.797753 19.440791 
L 26.916277 19.26408 
L 26.963686 19.26408 
L 27.153325 18.136397 
L 27.200734 18.136397 
L 27.319258 17.850997 
L 27.390372 17.850997 
L 27.508897 8.014242 
L 27.627421 7.835493 
L 27.793354 7.891157 
L 28.030402 7.769151 
L 28.148926 7.812819 
L 28.457088 8.160961 
L 28.623022 8.576883 
L 28.81266 8.563688 
L 28.978594 8.452839 
L 29.097117 8.754914 
L 29.215642 10.966253 
L 29.334165 10.966253 
L 29.452689 10.378177 
L 29.571214 10.378177 
L 29.642328 10.626747 
L 29.760852 20.993874 
L 29.879375 20.993874 
L 30.045309 19.354055 
L 30.282357 18.956246 
L 30.519405 18.19422 
L 30.756453 18.256124 
L 30.946091 19.47966 
L 30.993501 19.507491 
L 31.112025 19.756781 
L 31.230548 19.756781 
L 31.467597 19.08629 
L 31.58612 19.200138 
L 31.704645 19.743826 
L 31.823168 19.743826 
L 31.941692 18.571154 
L 32.012807 18.547641 
L 32.131331 18.152112 
L 32.249855 18.152112 
L 32.415788 18.931293 
L 32.77136 18.862792 
L 32.889884 18.772578 
L 33.008408 18.879829 
L 33.126932 18.712835 
L 33.198046 18.772578 
L 33.41139 19.079091 
L 33.601028 19.106444 
L 33.719551 19.269718 
L 33.838076 19.234929 
L 33.9566 18.815885 
L 34.122533 18.817925 
L 34.312171 19.413077 
L 34.549219 19.343497 
L 34.667743 19.093729 
L 34.786267 18.743307 
L 35.023315 18.532645 
L 35.615935 17.918179 
L 35.734459 18.02051 
L 35.900393 18.12524 
L 36.090031 18.242207 
L 36.13744 18.238128 
L 36.255964 17.400404 
L 36.374488 10.08366 
L 36.493012 10.08366 
L 36.682651 10.480869 
L 36.801174 10.374338 
L 36.967108 8.583122 
L 37.204155 7.951739 
L 37.32268 8.148724 
L 37.393794 8.148724 
L 37.512318 9.947979 
L 37.630842 14.550245 
L 37.796775 14.795696 
L 37.986414 16.068779 
L 38.104938 19.54924 
L 38.697557 22.521285 
L 38.863491 22.521285 
L 39.219063 21.160866 
L 39.337587 20.873907 
L 39.574635 20.888303 
L 39.811683 21.198295 
L 40.04873 20.89718 
L 40.238369 20.091966 
L 40.522827 20.091966 
L 40.759874 20.348455 
L 40.878398 20.348455 
L 41.18656 18.134118 
L 41.23397 17.87463 
L 41.542132 13.774183 
L 41.708066 17.074096 
L 41.945114 18.520289 
L 42.063638 18.520289 
L 42.253276 17.683524 
L 42.300686 17.666729 
L 42.490324 16.935414 
L 42.608848 15.403085 
L 42.774781 15.366136 
L 42.845896 15.366136 
L 43.130353 16.381651 
L 43.319991 19.188981 
L 43.557039 19.498734 
L 44.031135 19.54828 
L 44.078545 19.54828 
L 44.268183 19.309787 
L 44.315592 19.309787 
L 44.434117 18.676844 
L 44.623755 15.337344 
L 44.671164 15.255646 
L 44.860803 5.595722 
L 44.979327 5.595722 
L 45.074146 5.878963 
L 45.263784 5.950102 
L 45.382308 6.148886 
L 45.548242 7.246218 
L 45.666765 7.787626 
L 45.78529 7.872922 
L 46.140862 8.633148 
L 46.211976 8.296042 
L 46.377909 8.830852 
L 46.614957 8.936543 
L 46.686072 9.030356 
L 46.733481 9.305319 
L 46.92312 8.763311 
L 47.041643 9.257932 
L 47.207577 9.257932 
L 47.278692 9.613992 
L 47.397215 11.385055 
L 47.515739 23.329377 
L 47.800197 25.63609 
L 47.871311 25.678916 
L 47.989835 26.249596 
L 48.108359 26.249596 
L 48.463931 22.32106 
L 48.629865 20.748542 
L 49.222484 19.694759 
L 49.293598 19.782455 
L 49.341008 20.08441 
L 49.530646 24.344892 
L 49.64917 24.344892 
L 49.69658 23.696834 
L 49.815104 14.617786 
L 49.933628 14.617786 
L 50.052152 24.42503 
L 50.170676 24.42503 
L 50.289199 24.225525 
L 50.407724 24.225525 
L 50.526248 25.616654 
L 50.644771 25.616654 
L 50.83441 23.600742 
L 51.118868 23.2508 
L 51.308506 23.2508 
L 51.545554 23.857948 
L 51.592963 23.857948 
L 51.782601 21.062734 
L 51.948535 20.972521 
L 52.185583 21.916175 
L 52.659679 22.012627 
L 52.896727 22.137752 
L 53.441937 21.681161 
L 53.489346 21.501811 
L 53.678985 21.771496 
L 53.797509 22.773933 
L 53.916032 22.773933 
L 54.081966 22.549597 
L 54.627176 22.634653 
L 54.7457 22.634653 
L 54.79311 22.394959 
L 54.982748 22.869427 
L 55.101272 25.806561 
L 55.267205 25.806561 
L 55.33832 25.683235 
L 55.504253 24.910293 
L 55.575368 24.876943 
L 55.93094 23.146548 
L 56.049463 23.146548 
L 56.096873 23.033179 
L 56.52356 20.231488 
L 56.642083 20.231488 
L 56.808017 20.931012 
L 56.926541 20.931012 
L 57.163589 6.675898 
L 57.210998 6.675898 
L 57.400636 7.463837 
L 57.56657 7.884918 
L 57.637685 7.884918 
L 57.803618 8.081423 
L 57.922142 8.041235 
L 58.277714 7.477513 
L 58.348828 7.495747 
L 58.467352 7.288446 
L 58.585876 7.31208 
L 58.751809 7.09734 
L 58.988858 7.359586 
L 59.225906 7.369784 
L 59.462953 6.77859 
L 59.652592 6.714168 
L 59.700001 6.714168 
L 59.889639 7.766152 
L 60.008164 7.823376 
L 60.126687 7.823376 
L 60.363736 7.927746 
L 60.648193 8.189992 
L 60.719307 8.189992 
L 60.885241 7.818457 
L 61.003765 7.818457 
L 61.122289 18.015951 
L 61.193403 18.015951 
L 61.311927 18.498696 
L 61.430451 18.498696 
L 61.596384 19.412359 
L 61.951956 19.383807 
L 62.07048 19.011551 
L 62.189004 18.517889 
L 62.378642 18.537083 
L 62.781624 20.08069 
L 62.852739 20.08069 
L 63.018672 19.773456 
L 63.137196 19.472942 
L 63.492768 19.391365 
L 63.729815 19.261201 
L 64.085387 19.287113 
L 64.322435 18.973161 
L 64.559483 18.912698 
L 64.915055 17.84092 
L 65.104693 17.848598 
L 65.270627 18.200818 
L 65.389151 18.200818 
L 65.578789 17.76786 
L 65.744723 17.793893 
L 65.863246 18.031906 
L 65.934361 18.031906 
L 65.981771 17.793893 
L 66.100295 5.113578 
L 66.289933 4.655787 
L 66.526981 4.655787 
L 66.811438 5.373904 
L 67.001076 5.397778 
L 67.16701 5.922871 
L 67.404058 5.819579 
L 67.593696 5.721687 
L 67.641106 5.721687 
L 67.996677 8.933784 
L 68.115202 19.684562 
L 68.30484 19.678204 
L 68.470774 8.331192 
L 68.589297 8.331192 
L 68.755231 8.677056 
L 68.826346 8.677056 
L 69.181917 7.91671 
L 69.418965 7.91671 
L 69.537489 7.570127 
L 69.656013 7.570127 
L 69.821947 7.897995 
L 70.011585 7.990609 
L 70.296042 8.685214 
L 70.414566 8.685214 
L 70.841252 6.223986 
L 70.888662 6.210309 
L 71.007186 6.069229 
L 71.196824 6.291646 
L 71.362758 7.440324 
L 71.955378 7.362945 
L 72.26354 7.159123 
L 72.382064 7.159123 
L 72.547997 7.422568 
L 72.785045 7.513263 
L 73.022093 7.811259 
L 73.259141 7.84341 
L 74.278447 7.346151 
L 75.155524 7.248618 
L 75.274048 7.402894 
L 75.463686 7.441404 
L 76.459287 7.550212 
L 76.648926 7.661661 
L 77.288956 7.812819 
L 77.407479 7.428927 
L 77.597117 6.097781 
L 77.834165 5.92107 
L 78.000099 5.541618 
L 78.071214 5.541618 
L 78.189737 5.31764 
L 78.355671 5.541618 
L 78.474195 5.747599 
L 78.592719 6.568048 
L 78.663833 6.572727 
L 78.829767 6.975335 
L 78.900881 6.975335 
L 79.185338 6.093702 
L 79.256453 6.093702 
L 79.54091 6.751118 
L 80.015006 5.588883 
L 80.252054 6.862686 
L 80.323168 6.862686 
L 80.441692 7.959297 
L 80.607626 6.862686 
L 80.72615 6.677698 
L 80.77356 6.672539 
L 80.963198 5.169482 
L 81.247655 5.169482 
L 81.603227 7.448002 
L 81.792865 8.333952 
L 81.958799 8.238699 
L 82.195847 8.05743 
L 82.385485 8.219504 
L 82.551419 8.207148 
L 82.669943 8.002486 
L 83.025514 8.003805 
L 83.215153 7.867163 
L 83.689249 7.964696 
L 84.163344 8.231381 
L 84.210754 8.185074 
L 84.400392 6.343231 
L 84.566326 6.343231 
L 84.63744 6.512025 
L 84.921897 8.056829 
L 85.040422 8.056829 
L 85.158946 7.726443 
L 85.277469 7.726443 
L 85.395994 8.450799 
L 85.585632 8.407012 
L 85.704155 8.208467 
L 85.988613 8.173797 
L 86.296775 7.563289 
L 86.415299 7.563289 
L 86.581233 8.030317 
L 87.007919 9.120571 
L 87.363491 7.936264 
L 87.529425 6.565289 
L 87.719063 6.487911 
L 87.837587 6.519103 
L 88.00352 6.731203 
L 88.359092 6.73972 
L 88.54873 7.406853 
L 88.904302 7.339311 
L 88.951712 7.281248 
L 89.307284 6.261895 
L 89.615446 6.228665 
L 89.662856 6.228665 
L 90.136951 6.909952 
L 90.374 7.139089 
L 90.445114 7.170759 
L 90.563638 7.639108 
L 90.682161 7.639108 
L 90.800686 7.102139 
L 90.966619 6.568409 
L 91.203667 6.605718 
L 91.393305 6.761675 
L 91.559239 6.586523 
L 91.914811 6.569368 
L 92.151859 6.298125 
L 92.388906 6.347191 
L 92.55484 6.550173 
L 93.265984 6.965737 
L 93.503032 6.738641 
L 93.858604 6.501588 
L 93.977127 6.508425 
L 94.095651 6.762873 
L 94.28529 6.720286 
L 94.451223 6.534698 
L 94.522337 6.512384 
L 94.688271 6.308442 
L 94.806795 6.254936 
L 95.043843 6.076427 
L 95.280891 6.119015 
L 95.399415 6.591802 
L 95.589053 6.771751 
L 95.636463 6.771751 
L 95.754987 5.759116 
L 95.87351 5.759116 
L 95.992035 6.155005 
L 96.300197 6.155005 
L 96.347607 8.225143 
L 96.46613 18.225532 
L 96.584654 18.225532 
L 96.821702 17.337182 
L 96.892816 17.010393 
L 97.01134 7.195233 
L 97.129865 7.195233 
L 97.366912 7.716006 
L 97.414322 7.716006 
L 97.485436 7.830574 
L 97.60396 7.601078 
L 97.65137 7.601078 
L 98.006941 6.315879 
L 98.19658 6.315879 
L 98.362513 7.249577 
L 98.481038 7.249577 
L 98.670676 6.467037 
L 98.836609 6.508546 
L 99.547753 7.652183 
L 99.974439 9.9439 
L 100.021849 9.9439 
L 100.495944 8.240978 
L 100.732992 8.223223 
L 100.970041 8.630149 
L 101.088564 14.373294 
L 101.278202 23.006909 
L 101.51525 23.866105 
L 101.799708 23.924891 
L 101.918232 23.237364 
L 101.989346 23.237364 
L 102.15528 22.676401 
L 102.226394 22.676401 
L 102.392328 21.115519 
L 102.581966 20.078171 
L 102.819014 19.975361 
L 102.937538 19.699078 
L 103.056062 19.699078 
L 103.221995 22.924491 
L 103.29311 23.389 
L 103.411633 25.104638 
L 103.530158 25.104638 
L 103.696091 23.743141 
L 103.814615 23.265796 
L 103.933139 23.265796 
L 104.051663 24.216168 
L 104.241302 24.216168 
L 104.454645 20.93641 
L 104.644283 20.54316 
L 104.92874 20.54316 
L 105.165788 21.249522 
L 105.284312 22.584626 
L 105.402836 22.584626 
L 105.52136 21.617459 
L 105.592475 21.617459 
L 105.639884 20.951046 
L 105.710998 21.237765 
L 105.876932 21.902979 
L 105.948046 21.902979 
L 106.06657 21.678882 
L 106.113979 21.678882 
L 106.422142 17.658571 
L 106.588076 17.739669 
L 106.777714 18.140476 
L 106.943648 18.570914 
L 107.180695 19.811606 
L 107.299219 19.811606 
L 107.370334 19.695599 
L 107.536267 18.881986 
L 107.844429 18.881986 
L 108.010363 16.684444 
L 108.128887 16.684444 
L 108.365935 20.337538 
L 108.555573 20.337538 
L 108.721507 19.47594 
L 108.958554 18.138317 
L 109.077079 17.62714 
L 109.266717 15.589152 
L 109.622289 15.658493 
L 109.788222 15.795254 
L 109.97786 15.837723 
L 110.096384 16.117604 
L 110.214909 16.117604 
L 110.380842 15.579796 
L 110.57048 15.406205 
L 110.61789 15.451191 
L 110.689004 15.451191 
L 110.854938 15.685726 
L 110.973462 15.81529 
L 111.044576 16.159113 
L 111.091985 15.965727 
L 111.1631 15.965727 
L 111.329033 16.180946 
L 111.400148 16.180946 
L 111.566082 16.617744 
L 111.75572 15.394447 
L 111.874243 15.294635 
L 111.992768 14.970007 
L 112.111292 14.970007 
L 112.514273 13.82049 
L 112.751321 16.332943 
L 113.178007 16.397606 
L 113.296531 17.016632 
L 113.415055 18.295232 
L 113.533579 18.295232 
L 113.699513 7.282088 
L 113.818036 5.524461 
L 113.93656 5.524461 
L 114.055085 5.03248 
L 114.126199 5.03248 
L 114.244723 4.888761 
L 114.647704 4.859729 
L 114.766228 4.638511 
L 115.003276 4.761836 
L 115.1218 5.392859 
L 115.240324 5.392859 
L 115.429962 4.979335 
L 115.595896 5.063432 
L 115.951468 6.074267 
L 116.069991 6.074267 
L 116.141106 5.929348 
L 116.235925 4.753799 
L 116.354449 4.753799 
L 116.472973 4.974297 
L 116.662611 6.09946 
L 116.828545 6.575367 
L 117.184117 7.033517 
L 117.302641 9.864362 
L 117.373755 9.945339 
L 117.421164 10.516859 
L 117.539689 20.6131 
L 117.658212 21.207893 
L 117.776736 21.267636 
L 117.84785 21.792729 
L 118.013784 20.740026 
L 118.203422 10.183353 
L 118.48788 6.24174 
L 118.677519 6.24174 
L 118.961976 8.063188 
L 119.0805 8.063188 
L 119.317548 5.865886 
L 119.554595 4.661064 
L 119.62571 4.661064 
L 119.744234 5.039798 
L 119.862758 5.039798 
L 120.028692 4.718409 
L 120.265739 4.803465 
L 120.455378 5.152207 
L 120.621311 5.201872 
L 120.692425 5.315121 
L 120.739835 5.645388 
L 120.976883 9.356065 
L 121.047997 9.356065 
L 121.213931 8.542333 
L 121.522093 8.51906 
L 121.688026 9.682733 
L 121.877665 9.735518 
L 121.996189 8.548691 
L 122.114713 7.562209 
L 122.39917 7.521301 
L 122.517695 6.927948 
L 122.636218 6.927948 
L 123.062904 18.528206 
L 123.347362 20.659888 
L 123.892572 20.567394 
L 124.058506 20.338497 
L 124.414077 20.256801 
L 124.603716 19.434672 
L 124.840764 19.531126 
L 124.959287 20.044221 
L 125.077812 20.116441 
L 125.243745 20.18842 
L 125.907479 20.208454 
L 126.026003 19.951367 
L 126.31046 20.038582 
L 126.500099 20.634094 
L 126.784557 22.245241 
L 126.90308 22.245241 
L 127.092718 21.205494 
L 127.140129 21.121877 
L 127.329767 20.063656 
L 127.44829 20.063656 
L 127.614224 20.426792 
L 127.732748 20.18662 
L 127.851272 20.094006 
L 127.969796 18.757942 
L 128.206844 7.63179 
L 128.491302 5.091504 
L 128.609825 6.182837 
L 129.036511 6.078586 
L 129.083921 8.160241 
L 129.202445 19.703157 
L 129.510607 20.861791 
L 129.558017 20.861791 
L 129.866179 19.378647 
L 130.032113 19.378647 
L 130.103227 19.815805 
L 139.229571 20.123518 
L 139.395504 19.715032 
L 139.514029 19.812326 
L 139.703667 21.225768 
L 139.822191 21.344894 
L 139.988124 21.411117 
L 140.154058 21.39912 
L 140.272582 21.39912 
L 140.46222 21.520885 
L 140.50963 21.520885 
L 140.580744 21.243644 
L 140.746677 19.809927 
L 140.936316 19.684201 
L 140.983726 19.840278 
L 141.102249 19.627578 
L 141.173364 19.840278 
L 141.291888 20.348455 
L 141.528935 20.348455 
L 141.64746 20.700195 
L 141.694869 20.700195 
L 142.003032 22.530162 
L 142.121555 22.530162 
L 142.240079 24.751097 
L 142.358604 26.20281 
L 142.477127 26.20281 
L 142.524537 26.011944 
L 142.714175 24.355329 
L 142.761585 24.355329 
L 142.951223 24.756136 
L 143.117157 24.756136 
L 143.306795 22.695595 
L 143.425319 22.454342 
L 143.591252 21.299788 
L 143.780891 21.168065 
L 143.8283 21.168065 
L 144.136463 24.193134 
L 144.183872 24.266794 
L 144.37351 25.649525 
L 144.539444 26.789684 
L 144.657968 26.789684 
L 144.729082 26.609735 
L 144.895016 22.757258 
L 144.96613 22.534122 
L 145.084654 21.654407 
L 145.132064 21.556155 
L 145.203178 21.654407 
L 145.250588 21.654407 
L 145.487636 22.646049 
L 145.795798 23.128793 
L 146.317303 23.158906 
L 146.554351 24.434027 
L 146.672875 24.476855 
L 146.909923 25.169899 
L 147.028447 26.322776 
L 147.146971 26.322776 
L 147.384019 24.005867 
L 147.502543 23.875823 
L 147.573657 24.005867 
L 147.692181 24.581945 
L 147.739591 24.583985 
L 147.858114 24.791765 
L 147.976639 24.791765 
L 148.047753 24.988272 
L 148.213686 24.643249 
L 148.284801 24.643249 
L 148.332211 24.988272 
L 148.569258 23.908934 
L 148.758897 22.336057 
L 149.114469 21.61134 
L 149.232992 21.891941 
L 149.398926 24.49461 
L 149.707088 24.49461 
L 149.825612 24.325337 
L 149.944136 24.64001 
L 150.11007 23.159265 
L 150.465642 23.111879 
L 150.892328 18.647093 
L 151.010852 18.668087 
L 151.129375 19.013471 
L 151.176785 19.013471 
L 151.295309 18.668087 
L 151.413833 7.538576 
L 151.532357 7.538576 
L 151.603472 8.524578 
L 151.721995 19.543841 
L 151.816815 19.543841 
L 151.935338 19.859472 
L 152.006453 19.859472 
L 152.527958 25.578866 
L 152.646482 25.578866 
L 152.83612 24.304103 
L 152.954645 24.304103 
L 153.120578 25.34973 
L 153.547264 25.431427 
L 153.713198 26.394636 
L 153.831721 26.394636 
L 153.950246 25.239601 
L 154.495456 25.138589 
L 154.613979 24.729623 
L 154.66139 24.698673 
L 154.851028 20.776134 
L 155.016961 20.699477 
L 155.135485 19.841837 
L 155.372533 20.628576 
L 155.680695 28.228081 
L 155.799219 29.377237 
L 155.846629 29.256671 
L 156.202201 22.350811 
L 156.320724 22.305465 
L 156.439249 21.903577 
L 156.557772 21.903577 
L 156.794821 24.217128 
L 156.913344 24.217128 
L 157.221507 27.040055 
L 157.340031 26.582023 
L 157.38744 26.582023 
L 157.814126 26.066168 
L 157.932651 25.983151 
L 158.335632 23.351331 
L 158.52527 24.202371 
L 158.643794 26.694671 
L 158.762318 26.694671 
L 159.283824 23.658565 
L 159.473462 23.658565 
L 159.520871 23.435548 
L 159.591985 23.474656 
L 159.71051 23.474656 
L 159.757919 23.309343 
L 159.876443 21.682119 
L 159.994967 21.376446 
L 160.350539 18.79909 
L 160.469063 9.464994 
L 160.587586 9.464994 
L 160.777225 9.615193 
L 160.824635 9.615193 
L 161.132797 5.688697 
L 161.180206 5.688697 
L 161.417255 7.45064 
L 161.843941 7.469716 
L 161.89135 6.759395 
L 161.962465 7.242858 
L 162.128398 6.637389 
L 162.602494 6.241501 
L 162.673608 6.502427 
L 162.721018 7.640067 
L 162.910656 16.247648 
L 163.147704 18.373929 
L 163.313638 19.029066 
L 163.432161 19.15311 
L 163.716619 20.466862 
L 163.906258 20.588148 
L 163.953667 20.588148 
L 164.309239 19.191619 
L 164.427762 18.959845 
L 164.546287 18.94497 
L 164.783334 18.48226 
L 164.972973 17.437233 
L 165.091497 17.345579 
L 165.210021 17.188903 
L 165.257431 17.216855 
L 165.375954 17.419238 
L 165.447069 17.419238 
L 165.494478 17.587671 
L 165.731526 19.73063 
L 165.80264 19.740946 
L 166.039689 21.170703 
L 166.205622 22.150468 
L 166.44267 22.058454 
L 166.513784 21.783132 
L 166.679718 20.270117 
L 167.03529 20.159269 
L 167.224928 20.022628 
L 167.272337 20.022628 
L 167.390862 20.32998 
L 167.509385 20.32998 
L 167.699023 19.246205 
L 167.864957 18.782655 
L 168.054595 18.65909 
L 168.220529 18.829802 
L 168.528692 18.748225 
L 168.694625 18.601746 
L 168.931673 18.79801 
L 169.050196 18.813847 
L 169.358359 21.236805 
L 169.524293 21.235966 
L 169.713931 19.750183 
L 169.879865 19.626979 
L 170.069503 19.661648 
L 170.35396 21.971599 
L 170.425075 21.971599 
L 170.591008 19.121201 
L 170.709532 17.907022 
L 170.828056 17.907022 
L 171.017694 20.092807 
L 171.136218 20.922733 
L 171.254742 20.922733 
L 171.610314 18.711035 
L 171.965886 20.228729 
L 172.202934 19.915857 
L 172.558506 21.191819 
L 172.724439 21.191819 
L 172.842963 20.833839 
L 172.961487 20.317984 
L 173.032601 20.317984 
L 173.151126 19.999594 
L 173.317059 20.399681 
L 173.506697 21.320541 
L 173.67263 21.288271 
L 173.743745 21.084448 
L 174.028202 19.241646 
L 174.383774 18.350297 
L 174.502299 18.458266 
L 174.85787 22.138592 
L 175.047509 22.316022 
L 175.213442 22.104761 
L 175.331966 22.104761 
L 175.4979 22.382244 
L 175.924586 22.475457 
L 176.090519 22.702433 
L 176.280158 22.702433 
L 176.63573 21.338537 
L 176.801663 20.565114 
L 177.346873 20.201736 
L 177.583921 20.324702 
L 177.749855 20.268077 
L 178.105426 19.995634 
L 178.342475 19.885864 
L 178.460998 19.896063 
L 178.698046 20.454265 
L 178.935094 21.545478 
L 179.124733 21.565753 
L 179.36178 21.923491 
L 179.40919 21.923491 
L 179.646238 21.372967 
L 180.001809 21.284912 
L 180.120334 21.065733 
L 180.309972 21.090206 
L 180.475906 21.895899 
L 180.665544 21.82404 
L 180.831477 21.773656 
L 181.021116 21.816601 
L 181.187049 21.410277 
L 181.424097 21.370087 
L 181.542621 21.43403 
L 181.661145 21.881625 
L 181.779669 21.881625 
L 181.898193 21.533962 
L 182.13524 19.229769 
L 182.324879 19.229769 
L 182.490812 20.427513 
L 182.609337 20.636854 
L 182.798975 21.559634 
L 182.846384 21.559634 
L 183.083432 21.33182 
L 183.391595 20.977678 
L 183.557528 20.078171 
L 183.628642 20.022747 
L 183.794576 19.137036 
L 183.9131 19.137036 
L 184.221262 19.709514 
L 184.50572 20.039542 
L 184.624243 20.504292 
L 184.861292 21.284191 
L 185.216863 20.515329 
L 185.335387 20.474899 
L 185.690959 19.009631 
L 185.809483 19.880707 
L 185.928007 20.393083 
L 186.046531 20.393083 
L 186.402103 19.521648 
L 186.473217 19.710955 
L 186.520627 19.521648 
L 186.639151 19.569633 
L 186.828789 20.006431 
L 186.876199 20.006431 
L 186.994723 20.177144 
L 187.753276 18.548841 
L 188.298486 18.561197 
L 188.772582 20.106364 
L 188.938516 20.301789 
L 189.128154 20.278875 
L 189.412611 19.736747 
L 189.483726 19.736747 
L 189.720774 20.477298 
L 189.839297 20.384565 
L 190.076346 19.965284 
L 190.242279 19.000634 
L 190.360803 18.786375 
L 190.479327 18.786375 
L 190.716375 20.210973 
L 190.906013 20.210973 
L 191.024537 19.960484 
L 191.19047 18.797891 
L 191.380108 18.797891 
L 191.498633 20.036303 
L 191.546042 20.174503 
L 191.78309 22.82228 
L 191.901614 23.371365 
L 192.020138 23.371365 
L 192.209777 21.944246 
L 192.37571 21.982036 
L 192.494234 22.370367 
L 192.612758 22.370367 
L 192.802396 21.634854 
L 192.96833 21.742463 
L 193.157968 22.063372 
L 193.276492 22.14843 
L 193.442425 22.206612 
L 193.56095 22.202535 
L 194.035045 17.032826 
L 194.343208 16.945852 
L 194.461731 16.533048 
L 194.627665 16.497778 
L 194.746189 16.533048 
L 194.983237 18.124041 
L 195.220284 22.218489 
L 195.409923 22.337016 
L 195.457333 22.337016 
L 195.575856 21.977837 
L 195.765495 21.977837 
L 196.002542 23.958961 
L 196.168476 23.958961 
L 196.287 23.685436 
L 196.358114 23.685436 
L 196.476639 23.337656 
L 196.524048 23.381803 
L 196.642572 23.668761 
L 196.87962 22.632493 
L 197.069258 20.50801 
L 197.116668 20.50801 
L 197.235192 20.165987 
L 197.590764 20.219371 
L 197.709287 21.075451 
L 197.827812 21.157748 
L 198.01745 21.701195 
L 198.064859 21.678521 
L 198.301907 21.666165 
L 198.538955 19.814125 
L 198.657479 19.814125 
L 198.776003 20.395001 
L 198.847117 20.407479 
L 198.965642 20.668045 
L 199.131575 20.666125 
L 199.297509 20.168865 
L 199.416032 20.168865 
L 199.605671 20.037383 
L 199.771604 20.156868 
L 199.890128 19.887185 
L 200.008652 20.156868 
L 200.19829 19.22749 
L 200.364224 19.664047 
L 200.482748 19.989876 
L 200.956844 20.029345 
L 201.146482 19.900382 
L 201.193891 19.900382 
L 201.43094 20.396081 
L 201.620578 20.356853 
L 201.739102 20.455225 
L 201.905035 20.850394 
L 202.02356 20.850394 
L 202.142083 20.600624 
L 202.450246 20.540281 
L 202.687293 20.281513 
L 202.971751 20.215773 
L 203.327323 20.29231 
L 204.109581 15.63618 
L 204.275514 15.52629 
L 204.346629 15.49078 
L 204.465152 7.208788 
L 204.512563 7.208788 
L 204.631086 6.577526 
L 204.820724 6.815419 
L 204.939249 6.763954 
L 205.105182 6.868084 
L 205.223706 7.793864 
L 205.413344 10.220182 
L 205.650392 10.182753 
L 205.697802 10.076943 
L 205.88744 9.158481 
L 206.005964 9.158481 
L 206.124488 9.632828 
L 206.290422 10.840407 
L 206.48006 10.840407 
L 206.598584 10.744674 
L 206.717108 10.361382 
L 206.883041 10.361382 
L 207.191204 13.32503 
L 207.357137 11.673453 
L 207.357137 11.673453 
" clip-path="url(#p15d4310774)" style="fill: none; stroke: #5c80b5; stroke-width: 0.5; stroke-linecap: square"/>
   </g>
   <g id="patch_3">
    <path d="M 8.503937 30.614173 
L 208.346457 30.614173 
" style="fill: none; stroke: #000000; stroke-width: 0.4; stroke-linejoin: miter; stroke-linecap: square"/>
   </g>
   <g id="patch_4">
    <path d="M 8.503937 3.401575 
L 208.346457 3.401575 
" style="fill: none; stroke: #000000; stroke-width: 0.4; stroke-linejoin: miter; stroke-linecap: square"/>
   </g>
  </g>
 </g>
 <defs>
  <clipPath id="p15d4310774">
   <rect x="8.503937" y="3.401575" width="199.84252" height="27.212598"/>
  </clipPath>
 </defs>
</svg>
