<?xml version="1.0" encoding="utf-8" standalone="no"?>
<!DOCTYPE svg PUBLIC "-//W3C//DTD SVG 1.1//EN"
  "http://www.w3.org/Graphics/SVG/1.1/DTD/svg11.dtd">
<svg xmlns:xlink="http://www.w3.org/1999/xlink" width="212.598425pt" height="42.519685pt" viewBox="0 0 212.598425 42.519685" xmlns="http://www.w3.org/2000/svg" version="1.1">
 <metadata>
  <rdf:RDF xmlns:dc="http://purl.org/dc/elements/1.1/" xmlns:cc="http://creativecommons.org/ns#" xmlns:rdf="http://www.w3.org/1999/02/22-rdf-syntax-ns#">
   <cc:Work>
    <dc:type rdf:resource="http://purl.org/dc/dcmitype/StillImage"/>
    <dc:date>2026-06-01T17:59:28.947921</dc:date>
    <dc:format>image/svg+xml</dc:format>
    <dc:creator>
     <cc:Agent>
      <dc:title>Matplotlib v3.10.8, https://matplotlib.org/</dc:title>
     </cc:Agent>
    </dc:creator>
   </cc:Work>
  </rdf:RDF>
 </metadata>
 <defs>
  <style type="text/css">*{stroke-linejoin: round; stroke-linecap: butt}</style>
 </defs>
 <g id="figure_1">
  <g id="patch_1">
   <path d="M 0 42.519685 
L 212.598425 42.519685 
L 212.598425 0 
L 0 0 
z
" style="fill: #ffffff"/>
  </g>
  <g id="axes_1">
   <g id="patch_2">
    <path d="M 8.503937 30.614173 
L 208.346457 30.614173 
L 208.346457 3.401575 
L 8.503937 3.401575 
z
" style="fill: #eaeaf2"/>
   </g>
   <g id="matplotlib.axis_1">
    <g id="xtick_1">
     <g id="line2d_1">
      <path d="M 9.493256 30.614173 
L 9.493256 3.401575 
" clip-path="url(#pd56a19e6cd)" style="fill: none; stroke: #ffffff; stroke-width: 0.9; stroke-linecap: square"/>
     </g>
     <g id="line2d_2">
      <defs>
       <path id="m1e3d51349b" d="M 0 0 
L 0 2 
" style="stroke: #000000; stroke-width: 0.4"/>
      </defs>
      <g>
       <use xlink:href="#m1e3d51349b" x="9.493256" y="30.614173" style="stroke: #000000; stroke-width: 0.4"/>
      </g>
     </g>
     <g id="text_1">
      <text style="font-size: 8px; font-family: 'DejaVu Sans', 'Bitstream Vera Sans', 'Computer Modern Sans Serif', 'Lucida Grande', 'Verdana', 'Geneva', 'Lucid', 'Arial', 'Helvetica', 'Avant Garde', sans-serif; text-anchor: middle" x="9.493256" y="42.192923" transform="rotate(-0 9.493256 42.192923)">0</text>
     </g>
    </g>
    <g id="xtick_2">
     <g id="line2d_3">
      <path d="M 52.119252 30.614173 
L 52.119252 3.401575 
" clip-path="url(#pd56a19e6cd)" style="fill: none; stroke: #ffffff; stroke-width: 0.9; stroke-linecap: square"/>
     </g>
     <g id="line2d_4">
      <g>
       <use xlink:href="#m1e3d51349b" x="52.119252" y="30.614173" style="stroke: #000000; stroke-width: 0.4"/>
      </g>
     </g>
     <g id="text_2">
      <text style="font-size: 8px; font-family: 'DejaVu Sans', 'Bitstream Vera Sans', 'Computer Modern Sans Serif', 'Lucida Grande', 'Verdana', 'Geneva', 'Lucid', 'Arial', 'Helvetica', 'Avant Garde', sans-serif; text-anchor: middle" x="52.119252" y="42.192923" transform="rotate(-0 52.119252 42.192923)">60</text>
     </g>
    </g>
    <g id="xtick_3">
     <g id="line2d_5">
      <path d="M 94.745248 30.614173 
L 94.745248 3.401575 
" clip-path="url(#pd56a19e6cd)" style="fill: none; stroke: #ffffff; stroke-width: 0.9; stroke-linecap: square"/>
     </g>
     <g id="line2d_6">
      <g>
       <use xlink:href="#m1e3d51349b" x="94.745248" y="30.614173" style="stroke: #000000; stroke-width: 0.4"/>
      </g>
     </g>
     <g id="text_3">
      <text style="font-size: 8px; font-family: 'DejaVu Sans', 'Bitstream Vera Sans', 'Computer Modern Sans Serif', 'Lucida Grande', 'Verdana', 'Geneva', 'Lucid', 'Arial', 'Helvetica', 'Avant Garde', sans-serif; text-anchor: middle" x="94.745248" y="42.192923" transform="rotate(-0 94.745248 42.192923)">120</text>
     </g>
    </g>
    <g id="xtick_4">
     <g id="line2d_7">
      <path d="M 137.371243 30.614173 
L 137.371243 3.401575 
" clip-path="url(#pd56a19e6cd)" style="fill: none; stroke: #ffffff; stroke-width: 0.9; stroke-linecap: square"/>
     </g>
     <g id="line2d_8">
      <g>
       <use xlink:href="#m1e3d51349b" x="137.371243" y="30.614173" style="stroke: #000000; stroke-width: 0.4"/>
      </g>
     </g>
     <g id="text_4">
      <text style="font-size: 8px; font-family: 'DejaVu Sans', 'Bitstream Vera Sans', 'Computer Modern Sans Serif', 'Lucida Grande', 'Verdana', 'Geneva', 'Lucid', 'Arial', 'Helvetica', 'Avant Garde', sans-serif; text-anchor: middle" x="137.371243" y="42.192923" transform="rotate(-0 137.371243 42.192923)">180</text>
     </g>
    </g>
    <g id="xtick_5">
     <g id="line2d_9">
      <path d="M 179.997239 30.614173 
L 179.997239 3.401575 
" clip-path="url(#pd56a19e6cd)" style="fill: none; stroke: #ffffff; stroke-width: 0.9; stroke-linecap: square"/>
     </g>
     <g id="line2d_10">
      <g>
       <use xlink:href="#m1e3d51349b" x="179.997239" y="30.614173" style="stroke: #000000; stroke-width: 0.4"/>
      </g>
     </g>
     <g id="text_5">
      <text style="font-size: 8px; font-family: 'DejaVu Sans', 'Bitstream Vera Sans', 'Computer Modern Sans Serif', 'Lucida Grande', 'Verdana', 'Geneva', 'Lucid', 'Arial', 'Helvetica', 'Avant Garde', sans-serif; text-anchor: middle" x="179.997239" y="42.192923" transform="rotate(-0 179.997239 42.192923)">240</text>
     </g>
    </g>
    <g id="xtick_6">
     <g id="line2d_11">
      <path d="M 30.806254 30.614173 
L 30.806254 3.401575 
" clip-path="url(#pd56a19e6cd)" style="fill: none; stroke: #ffffff; stroke-opacity: 0.9; stroke-width: 0.55; stroke-linecap: square"/>
     </g>
     <g id="line2d_12">
      <defs>
       <path id="mf0a00baa1b" d="M 0 0 
L 0 2 
" style="stroke: #000000; stroke-width: 0.6"/>
      </defs>
      <g>
       <use xlink:href="#mf0a00baa1b" x="30.806254" y="30.614173" style="stroke: #000000; stroke-width: 0.6"/>
      </g>
     </g>
    </g>
    <g id="xtick_7">
     <g id="line2d_13">
      <path d="M 73.43225 30.614173 
L 73.43225 3.401575 
" clip-path="url(#pd56a19e6cd)" style="fill: none; stroke: #ffffff; stroke-opacity: 0.9; stroke-width: 0.55; stroke-linecap: square"/>
     </g>
     <g id="line2d_14">
      <g>
       <use xlink:href="#mf0a00baa1b" x="73.43225" y="30.614173" style="stroke: #000000; stroke-width: 0.6"/>
      </g>
     </g>
    </g>
    <g id="xtick_8">
     <g id="line2d_15">
      <path d="M 116.058246 30.614173 
L 116.058246 3.401575 
" clip-path="url(#pd56a19e6cd)" style="fill: none; stroke: #ffffff; stroke-opacity: 0.9; stroke-width: 0.55; stroke-linecap: square"/>
     </g>
     <g id="line2d_16">
      <g>
       <use xlink:href="#mf0a00baa1b" x="116.058246" y="30.614173" style="stroke: #000000; stroke-width: 0.6"/>
      </g>
     </g>
    </g>
    <g id="xtick_9">
     <g id="line2d_17">
      <path d="M 158.684241 30.614173 
L 158.684241 3.401575 
" clip-path="url(#pd56a19e6cd)" style="fill: none; stroke: #ffffff; stroke-opacity: 0.9; stroke-width: 0.55; stroke-linecap: square"/>
     </g>
     <g id="line2d_18">
      <g>
       <use xlink:href="#mf0a00baa1b" x="158.684241" y="30.614173" style="stroke: #000000; stroke-width: 0.6"/>
      </g>
     </g>
    </g>
    <g id="xtick_10">
     <g id="line2d_19">
      <path d="M 201.310237 30.614173 
L 201.310237 3.401575 
" clip-path="url(#pd56a19e6cd)" style="fill: none; stroke: #ffffff; stroke-opacity: 0.9; stroke-width: 0.55; stroke-linecap: square"/>
     </g>
     <g id="line2d_20">
      <g>
       <use xlink:href="#mf0a00baa1b" x="201.310237" y="30.614173" style="stroke: #000000; stroke-width: 0.6"/>
      </g>
     </g>
    </g>
    <g id="text_6">
     <text style="font-size: 8px; font-family: 'DejaVu Sans', 'Bitstream Vera Sans', 'Computer Modern Sans Serif', 'Lucida Grande', 'Verdana', 'Geneva', 'Lucid', 'Arial', 'Helvetica', 'Avant Garde', sans-serif; text-anchor: middle" x="108.425197" y="53.935423" transform="rotate(-0 108.425197 53.935423)">time</text>
    </g>
   </g>
   <g id="matplotlib.axis_2">
    <g id="ytick_1">
     <g id="line2d_21">
      <path d="M 8.503937 26.910752 
L 208.346457 26.910752 
" clip-path="url(#pd56a19e6cd)" style="fill: none; stroke: #ffffff; stroke-width: 0.9; stroke-linecap: square"/>
     </g>
    </g>
    <g id="ytick_2">
     <g id="line2d_22">
      <path d="M 8.503937 18.518157 
L 208.346457 18.518157 
" clip-path="url(#pd56a19e6cd)" style="fill: none; stroke: #ffffff; stroke-width: 0.9; stroke-linecap: square"/>
     </g>
    </g>
    <g id="ytick_3">
     <g id="line2d_23">
      <path d="M 8.503937 10.125562 
L 208.346457 10.125562 
" clip-path="url(#pd56a19e6cd)" style="fill: none; stroke: #ffffff; stroke-width: 0.9; stroke-linecap: square"/>
     </g>
    </g>
    <g id="ytick_4">
     <g id="line2d_24">
      <path d="M 8.503937 22.714455 
L 208.346457 22.714455 
" clip-path="url(#pd56a19e6cd)" style="fill: none; stroke: #ffffff; stroke-opacity: 0.9; stroke-width: 0.55; stroke-linecap: square"/>
     </g>
     <g id="line2d_25">
      <defs>
       <path id="m4d1a46e47f" d="M 0 0 
L -2 0 
" style="stroke: #000000; stroke-width: 0.6"/>
      </defs>
      <g>
       <use xlink:href="#m4d1a46e47f" x="8.503937" y="22.714455" style="stroke: #000000; stroke-width: 0.6"/>
      </g>
     </g>
    </g>
    <g id="ytick_5">
     <g id="line2d_26">
      <path d="M 8.503937 14.321859 
L 208.346457 14.321859 
" clip-path="url(#pd56a19e6cd)" style="fill: none; stroke: #ffffff; stroke-opacity: 0.9; stroke-width: 0.55; stroke-linecap: square"/>
     </g>
     <g id="line2d_27">
      <g>
       <use xlink:href="#m4d1a46e47f" x="8.503937" y="14.321859" style="stroke: #000000; stroke-width: 0.6"/>
      </g>
     </g>
    </g>
    <g id="ytick_6">
     <g id="line2d_28">
      <path d="M 8.503937 5.929264 
L 208.346457 5.929264 
" clip-path="url(#pd56a19e6cd)" style="fill: none; stroke: #ffffff; stroke-opacity: 0.9; stroke-width: 0.55; stroke-linecap: square"/>
     </g>
     <g id="line2d_29">
      <g>
       <use xlink:href="#m4d1a46e47f" x="8.503937" y="5.929264" style="stroke: #000000; stroke-width: 0.6"/>
      </g>
     </g>
    </g>
   </g>
   <g id="line2d_30">
    <path d="M 9.493256 25.459476 
L 9.564371 25.416614 
L 9.801419 24.234721 
L 10.085876 19.01161 
L 10.275514 19.01161 
L 10.394038 20.557468 
L 10.559972 22.452912 
L 10.868134 22.350813 
L 11.271116 20.88669 
L 11.508164 20.694027 
L 11.697802 21.497145 
L 11.816326 21.885603 
L 11.93485 21.885603 
L 12.337831 19.915687 
L 12.408946 19.875816 
L 12.527469 19.635877 
L 12.574879 19.635877 
L 12.693403 19.376715 
L 13.001566 19.309361 
L 13.120089 18.837458 
L 13.238613 18.837458 
L 13.286023 18.977577 
L 13.52307 21.76243 
L 13.878642 21.67571 
L 14.11569 21.374398 
L 14.234214 21.344922 
L 14.352739 20.977539 
L 14.542377 20.849239 
L 14.897948 20.550348 
L 15.063882 20.312404 
L 15.964664 20.236933 
L 16.130598 20.384741 
L 16.367645 20.771348 
L 16.557284 20.955467 
L 16.723217 21.304766 
L 16.912856 21.481196 
L 17.078789 21.542996 
L 17.149903 21.542996 
L 17.386951 22.414749 
L 17.434361 22.414749 
L 17.624 21.940283 
L 18.453667 20.553766 
L 18.690715 20.553766 
L 18.927763 20.247898 
L 19.164811 20.247898 
L 19.21222 20.321375 
L 19.330744 21.431073 
L 19.449268 21.431073 
L 19.80484 14.923684 
L 20.113002 11.283739 
L 20.231526 11.283739 
L 20.515984 14.12014 
L 20.753032 14.12014 
L 21.298242 13.223325 
L 21.393061 13.223325 
L 21.511585 13.600107 
L 21.630109 15.311715 
L 21.748633 17.746699 
L 21.867157 17.746699 
L 21.98568 15.867205 
L 22.104205 15.867205 
L 22.530891 18.786765 
L 22.649415 18.786765 
L 22.886463 19.999558 
L 23.17092 21.314877 
L 23.289444 21.314877 
L 23.407968 20.841123 
L 23.645016 20.752409 
L 24.190226 20.329206 
L 24.427274 20.142809 
L 24.593208 19.251833 
L 24.711731 19.251833 
L 25.067303 20.417919 
L 25.304351 20.328637 
L 25.49399 20.206318 
L 25.612513 20.206318 
L 25.731038 21.781511 
L 25.849561 21.781511 
L 25.968085 20.96216 
L 26.134019 15.299469 
L 26.323657 12.635939 
L 26.489591 12.706994 
L 26.608114 13.710322 
L 26.845163 16.339962 
L 27.082211 18.125475 
L 27.200734 19.895893 
L 27.319258 19.895893 
L 27.982992 15.341476 
L 28.101516 15.341476 
L 28.457088 17.529829 
L 28.623022 17.819322 
L 28.978594 22.381428 
L 29.215642 22.359357 
L 29.40528 20.974264 
L 29.642328 21.070667 
L 29.760852 21.719853 
L 29.926785 21.665457 
L 30.163833 20.23437 
L 30.282357 20.23437 
L 30.471995 20.507487 
L 30.637929 20.48328 
L 30.946091 19.22791 
L 30.993501 19.072698 
L 31.112025 13.025251 
L 31.301663 13.025251 
L 31.420187 13.406732 
L 31.58612 20.945927 
L 31.704645 20.945927 
L 31.894283 14.334304 
L 32.060217 14.334304 
L 32.249855 15.534851 
L 32.368378 15.534851 
L 32.652836 13.531471 
L 32.77136 13.111259 
L 33.008408 15.135713 
L 33.198046 16.028825 
L 33.245456 16.028825 
L 33.529913 14.896202 
L 33.648437 15.003711 
L 34.122533 15.356286 
L 34.312171 15.781482 
L 34.478105 15.75044 
L 34.596629 15.206769 
L 34.715153 15.206769 
L 34.904791 16.653662 
L 35.070724 16.820978 
L 35.189249 16.912967 
L 35.426296 17.300998 
L 35.615935 17.418048 
L 35.781868 17.187507 
L 35.852982 17.139805 
L 36.13744 14.827282 
L 36.374488 4.638511 
L 36.564126 4.638511 
L 36.611536 4.928289 
L 36.848584 10.042324 
L 36.919698 10.136591 
L 37.085632 10.849999 
L 37.27527 17.489531 
L 37.393794 17.751826 
L 37.441204 18.41753 
L 37.86789 15.23354 
L 37.915299 15.23354 
L 38.270871 17.91843 
L 38.507919 19.994432 
L 38.863491 21.426373 
L 38.934605 21.426373 
L 39.219063 20.060361 
L 39.456111 19.293982 
L 39.764273 19.372301 
L 40.001321 20.632939 
L 40.167255 20.632939 
L 40.285778 20.235652 
L 40.404302 20.235652 
L 40.593941 24.28869 
L 41.068036 24.259784 
L 41.18656 25.17098 
L 41.352494 25.17098 
L 41.542132 20.187949 
L 41.660656 20.187949 
L 41.708066 20.324223 
L 41.826589 22.713213 
L 41.945114 22.713213 
L 42.016228 22.354516 
L 42.182161 19.212959 
L 42.300686 19.212959 
L 42.490324 18.702466 
L 42.656258 18.588692 
L 42.727372 18.588692 
L 42.845896 18.957926 
L 42.964419 18.957926 
L 43.082944 18.322552 
L 43.319991 15.988385 
L 43.367401 15.988385 
L 43.485925 16.792641 
L 43.722973 19.110148 
L 43.960021 20.748992 
L 44.149659 20.748992 
L 44.386707 19.234175 
L 44.505231 19.234175 
L 44.860803 20.522012 
L 45.074146 20.763944 
L 45.145261 20.763944 
L 45.311194 21.12378 
L 45.500832 21.996815 
L 45.548242 22.035689 
L 45.73788 22.39937 
L 45.903814 22.38869 
L 45.974928 22.181219 
L 46.140862 16.043065 
L 46.496434 14.676911 
L 46.614957 14.676911 
L 46.686072 14.803644 
L 46.733481 15.12959 
L 47.207577 29.258335 
L 47.278692 29.258335 
L 47.563149 23.331926 
L 47.871311 18.563772 
L 48.037245 15.020941 
L 48.155768 13.772549 
L 48.274293 13.772549 
L 48.51134 16.320881 
L 48.582455 16.320881 
L 48.700979 16.511977 
L 48.819503 16.511977 
L 48.985436 17.809781 
L 49.056551 17.809781 
L 49.222484 18.13231 
L 49.412123 17.721922 
L 49.578056 18.214188 
L 49.815104 18.214188 
L 50.123266 17.667242 
L 50.289199 15.899956 
L 50.478838 15.329088 
L 50.597362 15.031906 
L 50.83441 12.225266 
L 51.118868 11.446071 
L 51.189982 11.446071 
L 51.355915 12.044137 
L 51.474439 14.042534 
L 51.545554 14.042534 
L 51.711487 15.221009 
L 51.948535 15.190678 
L 52.541155 12.173291 
L 52.730793 12.209888 
L 52.896727 12.465775 
L 53.323413 12.392298 
L 53.370822 12.59564 
L 53.441937 12.4447 
L 53.678985 12.020073 
L 53.916032 11.539484 
L 54.319014 11.564688 
L 54.437538 11.564688 
L 54.627176 12.397139 
L 54.982748 13.647809 
L 55.101272 15.783476 
L 55.267205 18.120348 
L 55.622777 20.707982 
L 55.741302 20.707982 
L 55.93094 20.854651 
L 56.049463 20.864191 
L 56.096873 21.061838 
L 56.333921 26.161349 
L 56.452445 26.161349 
L 56.642083 21.306333 
L 56.760607 21.306333 
L 56.926541 22.21639 
L 57.045065 22.21639 
L 57.282113 20.935105 
L 57.329522 20.935105 
L 57.803618 23.858937 
L 57.874733 23.858937 
L 58.040666 22.874121 
L 58.11178 22.873979 
L 58.348828 20.151353 
L 58.7044 13.794193 
L 58.870334 13.794193 
L 59.059972 14.64715 
L 59.225906 14.64715 
L 59.534067 14.238329 
L 59.581478 14.238329 
L 59.700001 14.586346 
L 59.937049 16.101875 
L 60.174097 16.957822 
L 60.292621 16.957822 
L 60.529669 16.588302 
L 60.600783 16.588302 
L 60.956355 20.807659 
L 61.122289 20.709833 
L 61.240812 20.607165 
L 61.430451 18.701327 
L 61.786023 18.606633 
L 61.904547 18.329244 
L 61.951956 17.327768 
L 62.141595 10.985133 
L 62.189004 10.985133 
L 62.260119 10.848575 
L 62.307528 10.985133 
L 62.426052 11.060604 
L 62.6631 18.754441 
L 62.852739 18.809691 
L 63.137196 18.640951 
L 63.326834 18.73835 
L 63.492768 18.890145 
L 63.729815 19.057461 
L 63.966863 19.031545 
L 64.156502 18.844578 
L 64.39355 18.776798 
L 64.559483 11.937767 
L 64.749121 11.937767 
L 64.867645 12.372647 
L 65.033579 12.271118 
L 65.270627 11.242729 
L 65.341741 11.242729 
L 65.507675 11.940758 
L 65.626199 12.140967 
L 65.744723 12.140967 
L 66.171409 13.099724 
L 66.289933 12.797274 
L 66.645504 12.686205 
L 66.764029 12.399987 
L 66.882553 12.399987 
L 67.119601 12.992215 
L 67.16701 13.091465 
L 67.285534 14.350965 
L 67.404058 18.772383 
L 67.522582 18.772383 
L 67.593696 18.604355 
L 67.71222 17.840112 
L 67.830744 17.840112 
L 67.878154 18.013693 
L 68.186316 20.73048 
L 68.233726 20.73048 
L 68.423364 19.594297 
L 68.589297 19.609533 
L 68.755231 21.983003 
L 69.063393 21.937293 
L 69.34785 20.89922 
L 69.537489 19.621922 
L 69.703422 19.493053 
L 69.893061 19.592446 
L 70.011585 19.751218 
L 70.367157 20.601042 
L 70.414566 20.601042 
L 70.841252 19.381271 
L 71.196824 18.93856 
L 71.244234 18.93856 
L 71.481282 19.259522 
L 71.789444 19.328727 
L 71.836853 19.328727 
L 72.073902 19.630608 
L 72.619111 19.681871 
L 72.737636 19.520393 
L 72.974683 19.603695 
L 73.211731 19.67888 
L 73.496189 19.615087 
L 73.970284 19.34496 
L 74.752543 19.269063 
L 74.918476 19.257102 
L 75.226639 19.28971 
L 75.511096 19.923661 
L 77.407479 19.866559 
L 77.597117 18.860669 
L 77.715642 18.778648 
L 77.881575 18.512794 
L 78.237147 17.982793 
L 78.829767 19.538335 
L 78.900881 19.538335 
L 79.019405 19.756772 
L 79.137929 19.756772 
L 79.303862 19.113708 
L 79.659434 18.839737 
L 79.777958 18.839737 
L 79.967597 20.11433 
L 80.08612 20.11433 
L 80.370578 16.777547 
L 80.607626 17.34215 
L 80.892083 17.055933 
L 80.963198 17.055933 
L 81.010607 16.912539 
L 81.247655 17.301425 
L 81.437293 18.317853 
L 81.603227 18.317853 
L 81.840275 16.206537 
L 81.958799 14.749533 
L 82.195847 14.708523 
L 82.385485 14.864305 
L 82.551419 15.267288 
L 82.669943 15.267288 
L 82.859581 14.876266 
L 83.689249 14.811618 
L 83.807773 15.263158 
L 83.855182 15.279819 
L 83.973706 15.493414 
L 84.163344 15.394448 
L 84.329278 14.444946 
L 84.566326 14.379871 
L 84.63744 14.379871 
L 84.874488 15.031336 
L 85.040422 15.149526 
L 85.158946 15.542683 
L 85.277469 15.542683 
L 85.467108 15.253475 
L 85.751566 15.152801 
L 85.941204 14.754517 
L 86.225661 14.78855 
L 86.415299 15.625558 
L 86.581233 16.741094 
L 86.699757 16.741094 
L 86.770871 16.299664 
L 86.889395 14.95074 
L 87.173853 15.036035 
L 87.292377 15.528301 
L 87.4109 15.528301 
L 87.647948 13.93061 
L 87.837587 13.93061 
L 87.956111 14.080695 
L 88.074635 14.080695 
L 88.193158 13.900564 
L 88.430207 13.900564 
L 88.59614 14.223947 
L 88.833188 14.817029 
L 88.951712 14.817029 
L 89.070236 14.558294 
L 89.307284 14.619667 
L 89.662856 14.938209 
L 89.899903 14.161577 
L 90.136951 14.183364 
L 90.255475 14.408778 
L 90.374 14.837107 
L 90.563638 14.739423 
L 90.729571 14.539213 
L 91.203667 14.466164 
L 91.393305 14.718206 
L 91.559239 14.634476 
L 91.796287 13.697934 
L 91.914811 13.697934 
L 92.104449 13.856705 
L 92.863002 13.941432 
L 93.028936 14.029433 
L 93.69267 14.061188 
L 93.858604 14.452066 
L 94.048242 14.575667 
L 94.28529 14.831269 
L 94.332699 14.82543 
L 94.640862 14.46118 
L 94.996434 14.562424 
L 95.280891 14.562424 
L 95.707577 14.359509 
L 95.826101 14.604004 
L 96.110558 14.604004 
L 96.181673 14.297851 
L 96.418721 10.804289 
L 96.584654 10.804289 
L 96.774293 20.167444 
L 96.892816 20.445402 
L 97.05875 20.45893 
L 97.366912 21.870224 
L 97.485436 21.870224 
L 97.841008 20.622117 
L 97.888418 20.622117 
L 98.125466 21.101139 
L 98.670676 21.581301 
L 98.907724 21.209503 
L 99.263296 21.246241 
L 99.381819 21.812981 
L 99.500343 21.88902 
L 99.855915 22.669355 
L 99.974439 23.165464 
L 100.140372 23.086007 
L 100.330011 21.804864 
L 100.495944 21.804864 
L 100.804107 29.377237 
L 100.851516 29.377237 
L 101.088564 26.11151 
L 101.159679 25.833694 
L 101.325612 22.979922 
L 101.444136 22.979922 
L 101.633774 24.527917 
L 101.752299 24.527917 
L 102.10787 21.939287 
L 102.226394 21.939287 
L 102.344918 21.645522 
L 102.392328 21.645522 
L 102.510852 20.101087 
L 102.70049 20.125579 
L 102.937538 20.666829 
L 103.103472 22.822858 
L 103.340519 24.838341 
L 103.577567 24.807299 
L 103.696091 23.74032 
L 103.814615 23.74032 
L 104.051663 26.430194 
L 104.241302 26.430194 
L 104.525759 22.639593 
L 104.762806 23.52402 
L 105.118378 23.579697 
L 105.236903 24.907546 
L 105.402836 24.856426 
L 105.47395 24.839908 
L 105.639884 22.404069 
L 105.829522 22.404069 
L 106.185094 25.591762 
L 106.351028 24.83407 
L 106.540666 20.360534 
L 106.65919 19.240014 
L 106.896238 10.232994 
L 107.133286 9.169005 
L 107.299219 9.169005 
L 107.488858 11.229344 
L 107.607381 11.32717 
L 107.773315 12.458512 
L 107.891839 12.546514 
L 108.010363 14.01263 
L 108.247411 24.685407 
L 108.365935 25.145776 
L 108.437049 25.110603 
L 108.555573 24.75988 
L 108.602982 24.75988 
L 108.721507 21.715012 
L 108.840031 16.573065 
L 109.148193 16.573065 
L 109.266717 15.110367 
L 109.432651 13.714309 
L 109.551174 13.714309 
L 110.096384 17.063337 
L 110.214909 17.303846 
L 110.333432 17.303846 
L 110.380842 17.17996 
L 110.57048 16.320169 
L 110.807528 16.375561 
L 111.21051 18.203366 
L 111.447557 18.096426 
L 111.518672 17.741288 
L 111.75572 9.725349 
L 111.921653 9.725349 
L 112.040177 12.049691 
L 112.158701 12.049691 
L 112.395749 8.598706 
L 112.514273 8.598706 
L 112.585387 8.760754 
L 112.632797 9.232515 
L 112.751321 15.056398 
L 112.869845 15.056398 
L 112.988369 10.238974 
L 113.106893 10.002595 
L 113.178007 10.002595 
L 113.225416 10.278561 
L 113.580988 14.842518 
L 113.770627 11.740833 
L 113.93656 11.835954 
L 114.244723 15.626839 
L 114.410656 15.824344 
L 114.52918 15.913911 
L 114.718818 15.835593 
L 115.192914 15.736343 
L 115.429962 13.936875 
L 115.477372 13.936875 
L 115.714419 18.598089 
L 115.904058 18.59695 
L 115.951468 18.182433 
L 116.141106 12.845119 
L 116.307039 12.339326 
L 116.354449 12.339326 
L 116.544087 12.482435 
L 116.899659 12.727927 
L 117.018183 12.494539 
L 117.184117 13.243545 
L 117.421164 19.191314 
L 117.610803 19.157424 
L 117.84785 17.778312 
L 118.203422 17.866455 
L 118.321947 18.269723 
L 118.369356 18.100128 
L 118.677519 18.980852 
L 118.724928 18.980852 
L 119.03309 22.754222 
L 119.0805 22.754222 
L 119.554595 16.882494 
L 119.62571 16.878649 
L 119.791643 16.653804 
L 119.862758 16.641131 
L 119.981282 15.926157 
L 120.099806 15.59836 
L 120.265739 15.630542 
L 120.621311 16.455588 
L 120.81095 21.122214 
L 120.976883 21.49031 
L 121.095407 21.49031 
L 121.285045 19.490917 
L 121.403569 19.490917 
L 121.522093 19.915687 
L 121.640617 19.915687 
L 121.806551 19.075119 
L 122.043598 17.841678 
L 122.114713 15.976993 
L 122.233237 11.24814 
L 122.351761 11.24814 
L 122.636218 15.671552 
L 122.754742 15.228841 
L 122.873266 15.228841 
L 122.944381 15.502385 
L 123.228838 21.347343 
L 123.347362 22.006498 
L 123.465886 22.006498 
L 123.537 21.852424 
L 123.655524 20.872308 
L 123.774048 20.872308 
L 123.939982 21.53844 
L 124.058506 21.448302 
L 124.177029 20.315679 
L 124.366668 20.333906 
L 124.414077 20.478866 
L 124.532601 21.481481 
L 124.603716 21.481481 
L 124.651126 21.693652 
L 124.840764 21.194694 
L 124.959287 20.048685 
L 125.125221 20.048685 
L 125.314859 20.306708 
L 125.788956 20.352844 
L 126.073413 20.835 
L 126.31046 20.835 
L 126.381575 20.953474 
L 126.547509 26.708294 
L 126.737147 26.892557 
L 126.855671 26.660735 
L 127.021604 23.081593 
L 127.140129 22.955999 
L 127.211243 22.133516 
L 127.377176 19.447201 
L 127.4957 19.25525 
L 127.614224 19.479241 
L 127.803862 20.793562 
L 127.922387 20.793562 
L 128.017205 19.30039 
L 128.325368 19.264934 
L 128.728349 20.99363 
L 128.917988 20.99363 
L 128.965397 21.143574 
L 129.083921 21.854276 
L 129.510607 21.88603 
L 129.676541 23.726365 
L 129.913589 26.38534 
L 130.032113 26.357572 
L 130.103227 26.19581 
L 139.229571 21.897279 
L 139.395504 23.549651 
L 139.703667 27.474105 
L 139.91701 27.655803 
L 140.46222 27.884208 
L 140.50963 27.741526 
L 140.699268 25.617109 
L 140.817792 25.365921 
L 140.865202 25.234631 
L 140.983726 23.139263 
L 141.102249 20.822753 
L 141.220774 20.822753 
L 141.339297 21.213633 
L 141.528935 22.508731 
L 141.694869 22.508731 
L 141.813393 20.393997 
L 142.168965 12.720664 
L 142.240079 12.720664 
L 142.358604 14.340427 
L 142.643061 22.197451 
L 142.998633 26.454401 
L 143.188271 26.551089 
L 143.306795 26.685938 
L 143.543843 25.914291 
L 143.709777 25.072299 
L 143.780891 25.072299 
L 143.946824 24.794199 
L 144.42092 17.422462 
L 144.657968 17.522994 
L 144.847607 18.723541 
L 145.132064 23.935261 
L 145.203178 23.935261 
L 145.369111 22.775724 
L 145.724683 21.428936 
L 145.843208 18.922612 
L 145.961731 14.222808 
L 146.080255 14.222808 
L 146.19878 13.822103 
L 146.317303 13.822103 
L 146.554351 13.435496 
L 146.625466 13.435496 
L 146.791399 13.770413 
L 146.862513 13.813274 
L 146.981038 14.096929 
L 147.028447 14.096929 
L 147.146971 14.315793 
L 147.265495 14.315793 
L 147.384019 14.602722 
L 147.502543 14.602722 
L 147.692181 14.481543 
L 147.739591 14.481543 
L 147.858114 17.324778 
L 148.047753 17.324778 
L 148.806306 12.532274 
L 149.161878 12.494254 
L 149.635974 14.12256 
L 149.707088 14.10234 
L 149.873022 13.228594 
L 149.991545 13.228594 
L 150.228594 14.402228 
L 150.299708 14.53722 
L 150.465642 18.722544 
L 150.65528 18.688654 
L 151.010852 18.068516 
L 151.650881 27.644412 
L 151.769405 27.644412 
L 151.816815 27.269766 
L 152.29091 14.647435 
L 152.480548 13.638696 
L 152.527958 13.638696 
L 152.599073 13.501995 
L 152.717597 12.430175 
L 153.191692 15.717261 
L 153.357626 19.1869 
L 153.547264 19.359627 
L 153.594674 19.359627 
L 153.713198 17.466178 
L 154.02136 12.906635 
L 154.187293 12.906635 
L 154.305818 13.854712 
L 154.495456 15.973433 
L 154.542865 16.091053 
L 154.779913 17.601597 
L 154.969551 17.601597 
L 155.206599 15.738906 
L 155.372533 15.738906 
L 155.491057 12.066637 
L 155.609581 10.153537 
L 155.728105 10.153537 
L 155.965152 11.176372 
L 156.036267 11.430123 
L 156.154791 12.743733 
L 156.202201 12.743733 
L 156.320724 14.176244 
L 156.439249 14.176244 
L 156.557772 14.52597 
L 156.628887 14.52597 
L 157.031868 17.858338 
L 157.340031 17.780448 
L 157.505964 18.132737 
L 157.695602 18.132737 
L 157.932651 16.602257 
L 158.217108 10.654346 
L 158.406746 9.99334 
L 158.809727 7.227569 
L 158.999366 5.008458 
L 159.236413 5.008458 
L 159.639395 8.974634 
L 159.71051 9.108488 
L 159.876443 11.155582 
L 159.947557 11.168256 
L 160.184605 17.37305 
L 160.350539 21.079637 
L 160.587586 25.332742 
L 160.706111 25.332742 
L 160.824635 23.511631 
L 161.014273 20.681781 
L 161.061683 20.664693 
L 161.488369 19.372443 
L 161.606893 17.310396 
L 161.772826 14.450642 
L 161.843941 14.427289 
L 161.89135 14.011063 
L 162.128398 6.993895 
L 162.246922 6.474574 
L 162.365446 6.474574 
L 162.43656 6.934089 
L 162.721018 11.764043 
L 162.792132 11.846776 
L 163.076589 16.447757 
L 163.313638 19.937046 
L 163.432161 19.937046 
L 163.550686 19.703231 
L 163.669209 20.013798 
L 164.143305 19.934056 
L 164.190715 20.156764 
L 164.546287 26.054552 
L 164.664811 26.533716 
L 164.783334 26.533716 
L 164.972973 23.529715 
L 165.138906 23.293906 
L 165.210021 23.210462 
L 165.494478 21.277569 
L 165.684117 20.667541 
L 165.731526 20.667541 
L 165.921164 20.430451 
L 165.968574 20.509196 
L 166.158212 22.927947 
L 166.324146 24.812282 
L 166.44267 24.812282 
L 166.513784 24.332121 
L 166.679718 22.439669 
L 166.798242 22.176947 
L 166.916765 22.176947 
L 167.106404 22.342554 
L 167.224928 22.297699 
L 167.509385 20.655153 
L 167.746433 21.678416 
L 167.936072 22.514569 
L 168.054595 22.514569 
L 168.17312 21.730818 
L 168.339053 21.014277 
L 168.410167 21.141864 
L 168.528692 21.730818 
L 168.576101 21.5551 
L 168.694625 21.952244 
L 169.239835 21.926471 
L 169.358359 21.395758 
L 169.476883 21.395758 
L 169.524293 21.601094 
L 169.76134 24.520085 
L 169.998388 24.552266 
L 170.116912 23.888128 
L 170.35396 19.1073 
L 170.472484 18.128038 
L 170.591008 14.908448 
L 170.780646 14.834259 
L 170.828056 14.834259 
L 171.017694 16.39863 
L 171.183628 16.39863 
L 171.420676 14.890221 
L 171.539199 14.890221 
L 171.728838 15.042728 
L 171.776248 15.042728 
L 171.894771 13.826945 
L 172.013296 13.826945 
L 172.250343 22.669497 
L 172.487391 26.74546 
L 172.677029 26.74546 
L 173.080011 24.192999 
L 173.269649 24.192999 
L 173.435583 25.191201 
L 173.554107 27.367307 
L 173.67263 27.367307 
L 173.862269 25.858044 
L 174.26525 19.163404 
L 174.454889 19.163404 
L 174.85787 23.147807 
L 175.213442 23.610169 
L 175.45049 23.770508 
L 175.616423 23.717251 
L 175.853472 23.469054 
L 175.971995 23.474608 
L 176.161633 23.703439 
L 176.398682 23.666844 
L 176.446091 23.558479 
L 176.564615 22.435539 
L 176.754253 22.435539 
L 176.872777 22.935637 
L 177.275759 23.23766 
L 178.105426 23.218578 
L 178.295064 23.133568 
L 178.579522 23.15151 
L 178.698046 23.210889 
L 178.81657 23.695038 
L 179.053618 25.433133 
L 179.243256 25.687738 
L 179.36178 25.687738 
L 179.527714 24.225038 
L 179.764762 22.556149 
L 179.883286 22.556149 
L 180.475906 23.651749 
L 180.665544 24.779673 
L 180.831477 24.779673 
L 181.021116 23.087289 
L 181.187049 23.087289 
L 181.424097 24.115535 
L 181.732259 24.303214 
L 181.850783 24.784373 
L 182.016717 23.896957 
L 182.087831 23.856374 
L 182.324879 21.15881 
L 182.609337 20.826883 
L 182.72786 20.937525 
L 182.798975 21.126628 
L 182.917499 21.741782 
L 183.036023 21.741782 
L 183.201956 19.208402 
L 183.391595 18.853407 
L 183.794576 18.211625 
L 183.9131 16.965084 
L 184.102738 17.01236 
L 184.387196 23.524732 
L 184.50572 23.568162 
L 184.624243 23.881863 
L 184.695358 23.881863 
L 185.09834 26.697473 
L 185.287978 26.600785 
L 185.335387 26.585122 
L 185.572435 21.681976 
L 185.690959 21.681976 
L 185.999121 24.771699 
L 186.046531 24.771699 
L 186.354693 20.543941 
L 186.473217 17.804655 
L 186.591741 17.804655 
L 186.876199 18.740059 
L 186.947313 18.509946 
L 187.350294 14.72262 
L 187.397704 14.72262 
L 187.468818 15.035608 
L 187.634752 18.548251 
L 187.990324 23.341182 
L 188.108847 23.341182 
L 188.345896 22.300404 
L 188.582944 21.698066 
L 188.701467 21.630997 
L 188.819991 19.905292 
L 189.00963 19.719891 
L 189.294087 20.309841 
L 189.412611 22.009346 
L 189.649659 23.63751 
L 189.886707 24.827234 
L 189.957821 24.827234 
L 190.123755 22.862586 
L 190.194869 22.862586 
L 190.313393 22.598156 
L 190.431917 22.598156 
L 190.59785 22.305246 
L 191.143061 15.044437 
L 191.19047 15.044437 
L 191.427519 19.288571 
L 191.664566 23.479734 
L 191.901614 24.844321 
L 191.972728 24.844321 
L 192.138662 22.817874 
L 192.257186 22.817874 
L 192.37571 25.441961 
L 192.494234 25.441961 
L 192.731281 23.323525 
L 192.802396 23.323525 
L 192.92092 22.953721 
L 192.96833 22.953721 
L 193.086853 22.708514 
L 193.205378 22.708514 
L 193.323901 23.033605 
L 193.442425 23.033605 
L 193.632064 22.126681 
L 193.916521 18.162498 
L 194.10616 14.915141 
L 194.272093 13.354188 
L 194.343208 13.317307 
L 194.580255 12.25702 
L 194.69878 12.009963 
L 194.864713 11.331869 
L 194.983237 11.331869 
L 195.054351 11.851333 
L 195.220284 13.752044 
L 195.457333 14.093939 
L 195.575856 15.2989 
L 195.694381 15.2989 
L 195.931428 14.159726 
L 196.002542 14.159726 
L 196.595162 17.265256 
L 196.761096 19.528794 
L 196.950734 19.528794 
L 197.069258 17.908605 
L 197.187782 15.743605 
L 197.353716 15.743605 
L 197.42483 16.750065 
L 197.590764 23.094693 
L 197.709287 23.392588 
L 197.827812 23.392588 
L 198.135974 20.523578 
L 198.183384 20.493532 
L 198.301907 20.163884 
L 198.373022 20.163884 
L 198.61007 19.382268 
L 198.728594 17.400818 
L 198.847117 17.400818 
L 199.084165 20.028322 
L 199.605671 21.188286 
L 199.65308 21.188286 
L 199.842718 21.30733 
L 199.890128 21.30733 
L 200.19829 18.666725 
L 200.956844 18.617598 
L 201.075368 18.09016 
L 201.193891 18.09016 
L 201.38353 18.868501 
L 201.549463 18.980709 
L 201.739102 19.18989 
L 202.094674 19.18989 
L 202.260607 20.108064 
L 202.616179 20.108064 
L 202.805818 19.102031 
L 203.090275 19.102031 
L 203.327323 19.313633 
L 203.445847 19.23446 
L 203.682894 17.77646 
L 203.872533 15.040734 
L 204.109581 14.206717 
L 204.228105 14.206717 
L 204.346629 14.935503 
L 204.702201 20.460923 
L 204.820724 20.460923 
L 205.057772 18.788901 
L 205.223706 15.204918 
L 205.579278 15.176154 
L 205.697802 15.090004 
L 205.88744 13.746633 
L 206.053374 13.746633 
L 206.290422 14.599589 
L 206.48006 14.721054 
L 206.645994 14.634192 
L 206.835632 13.298795 
L 206.954155 13.298795 
L 207.001565 13.420544 
L 207.357137 21.544278 
L 207.357137 21.544278 
" clip-path="url(#pd56a19e6cd)" style="fill: none; stroke: #5c80b5; stroke-width: 0.5; stroke-linecap: square"/>
   </g>
   <g id="patch_3">
    <path d="M 8.503937 30.614173 
L 208.346457 30.614173 
" style="fill: none; stroke: #000000; stroke-width: 0.4; stroke-linejoin: miter; stroke-linecap: square"/>
   </g>
   <g id="patch_4">
    <path d="M 8.503937 3.401575 
L 208.346457 3.401575 
" style="fill: none; stroke: #000000; stroke-width: 0.4; stroke-linejoin: miter; stroke-linecap: square"/>
   </g>
  </g>
 </g>
 <defs>
  <clipPath id="pd56a19e6cd">
   <rect x="8.503937" y="3.401575" width="199.84252" height="27.212598"/>
  </clipPath>
 </defs>
</svg>
