<?xml version="1.0" encoding="utf-8" standalone="no"?>
<!DOCTYPE svg PUBLIC "-//W3C//DTD SVG 1.1//EN"
  "http://www.w3.org/Graphics/SVG/1.1/DTD/svg11.dtd">
<svg xmlns:xlink="http://www.w3.org/1999/xlink" width="212.598425pt" height="42.519685pt" viewBox="0 0 212.598425 42.519685" xmlns="http://www.w3.org/2000/svg" version="1.1">
 <metadata>
  <rdf:RDF xmlns:dc="http://purl.org/dc/elements/1.1/" xmlns:cc="http://creativecommons.org/ns#" xmlns:rdf="http://www.w3.org/1999/02/22-rdf-syntax-ns#">
   <cc:Work>
    <dc:type rdf:resource="http://purl.org/dc/dcmitype/StillImage"/>
    <dc:date>2026-06-01T17:59:27.165700</dc:date>
    <dc:format>image/svg+xml</dc:format>
    <dc:creator>
     <cc:Agent>
      <dc:title>Matplotlib v3.10.8, https://matplotlib.org/</dc:title>
     </cc:Agent>
    </dc:creator>
   </cc:Work>
  </rdf:RDF>
 </metadata>
 <defs>
  <style type="text/css">*{stroke-linejoin: round; stroke-linecap: butt}</style>
 </defs>
 <g id="figure_1">
  <g id="patch_1">
   <path d="M 0 42.519685 
L 212.598425 42.519685 
L 212.598425 0 
L 0 0 
z
" style="fill: #ffffff"/>
  </g>
  <g id="axes_1">
   <g id="patch_2">
    <path d="M 8.503937 30.614173 
L 208.346457 30.614173 
L 208.346457 3.401575 
L 8.503937 3.401575 
z
" style="fill: #eaeaf2"/>
   </g>
   <g id="matplotlib.axis_1">
    <g id="xtick_1">
     <g id="line2d_1">
      <path d="M 9.493256 30.614173 
L 9.493256 3.401575 
" clip-path="url(#pb57f71b901)" style="fill: none; stroke: #ffffff; stroke-width: 0.9; stroke-linecap: square"/>
     </g>
     <g id="line2d_2">
      <defs>
       <path id="m288cf1df6b" d="M 0 0 
L 0 2 
" style="stroke: #000000; stroke-width: 0.4"/>
      </defs>
      <g>
       <use xlink:href="#m288cf1df6b" x="9.493256" y="30.614173" style="stroke: #000000; stroke-width: 0.4"/>
      </g>
     </g>
     <g id="text_1">
      <text style="font-size: 8px; font-family: 'DejaVu Sans', 'Bitstream Vera Sans', 'Computer Modern Sans Serif', 'Lucida Grande', 'Verdana', 'Geneva', 'Lucid', 'Arial', 'Helvetica', 'Avant Garde', sans-serif; text-anchor: middle" x="9.493256" y="42.192923" transform="rotate(-0 9.493256 42.192923)">0</text>
     </g>
    </g>
    <g id="xtick_2">
     <g id="line2d_3">
      <path d="M 52.119252 30.614173 
L 52.119252 3.401575 
" clip-path="url(#pb57f71b901)" style="fill: none; stroke: #ffffff; stroke-width: 0.9; stroke-linecap: square"/>
     </g>
     <g id="line2d_4">
      <g>
       <use xlink:href="#m288cf1df6b" x="52.119252" y="30.614173" style="stroke: #000000; stroke-width: 0.4"/>
      </g>
     </g>
     <g id="text_2">
      <text style="font-size: 8px; font-family: 'DejaVu Sans', 'Bitstream Vera Sans', 'Computer Modern Sans Serif', 'Lucida Grande', 'Verdana', 'Geneva', 'Lucid', 'Arial', 'Helvetica', 'Avant Garde', sans-serif; text-anchor: middle" x="52.119252" y="42.192923" transform="rotate(-0 52.119252 42.192923)">60</text>
     </g>
    </g>
    <g id="xtick_3">
     <g id="line2d_5">
      <path d="M 94.745248 30.614173 
L 94.745248 3.401575 
" clip-path="url(#pb57f71b901)" style="fill: none; stroke: #ffffff; stroke-width: 0.9; stroke-linecap: square"/>
     </g>
     <g id="line2d_6">
      <g>
       <use xlink:href="#m288cf1df6b" x="94.745248" y="30.614173" style="stroke: #000000; stroke-width: 0.4"/>
      </g>
     </g>
     <g id="text_3">
      <text style="font-size: 8px; font-family: 'DejaVu Sans', 'Bitstream Vera Sans', 'Computer Modern Sans Serif', 'Lucida Grande', 'Verdana', 'Geneva', 'Lucid', 'Arial', 'Helvetica', 'Avant Garde', sans-serif; text-anchor: middle" x="94.745248" y="42.192923" transform="rotate(-0 94.745248 42.192923)">120</text>
     </g>
    </g>
    <g id="xtick_4">
     <g id="line2d_7">
      <path d="M 137.371243 30.614173 
L 137.371243 3.401575 
" clip-path="url(#pb57f71b901)" style="fill: none; stroke: #ffffff; stroke-width: 0.9; stroke-linecap: square"/>
     </g>
     <g id="line2d_8">
      <g>
       <use xlink:href="#m288cf1df6b" x="137.371243" y="30.614173" style="stroke: #000000; stroke-width: 0.4"/>
      </g>
     </g>
     <g id="text_4">
      <text style="font-size: 8px; font-family: 'DejaVu Sans', 'Bitstream Vera Sans', 'Computer Modern Sans Serif', 'Lucida Grande', 'Verdana', 'Geneva', 'Lucid', 'Arial', 'Helvetica', 'Avant Garde', sans-serif; text-anchor: middle" x="137.371243" y="42.192923" transform="rotate(-0 137.371243 42.192923)">180</text>
     </g>
    </g>
    <g id="xtick_5">
     <g id="line2d_9">
      <path d="M 179.997239 30.614173 
L 179.997239 3.401575 
" clip-path="url(#pb57f71b901)" style="fill: none; stroke: #ffffff; stroke-width: 0.9; stroke-linecap: square"/>
     </g>
     <g id="line2d_10">
      <g>
       <use xlink:href="#m288cf1df6b" x="179.997239" y="30.614173" style="stroke: #000000; stroke-width: 0.4"/>
      </g>
     </g>
     <g id="text_5">
      <text style="font-size: 8px; font-family: 'DejaVu Sans', 'Bitstream Vera Sans', 'Computer Modern Sans Serif', 'Lucida Grande', 'Verdana', 'Geneva', 'Lucid', 'Arial', 'Helvetica', 'Avant Garde', sans-serif; text-anchor: middle" x="179.997239" y="42.192923" transform="rotate(-0 179.997239 42.192923)">240</text>
     </g>
    </g>
    <g id="xtick_6">
     <g id="line2d_11">
      <path d="M 30.806254 30.614173 
L 30.806254 3.401575 
" clip-path="url(#pb57f71b901)" style="fill: none; stroke: #ffffff; stroke-opacity: 0.9; stroke-width: 0.55; stroke-linecap: square"/>
     </g>
     <g id="line2d_12">
      <defs>
       <path id="mc07f607c43" d="M 0 0 
L 0 2 
" style="stroke: #000000; stroke-width: 0.6"/>
      </defs>
      <g>
       <use xlink:href="#mc07f607c43" x="30.806254" y="30.614173" style="stroke: #000000; stroke-width: 0.6"/>
      </g>
     </g>
    </g>
    <g id="xtick_7">
     <g id="line2d_13">
      <path d="M 73.43225 30.614173 
L 73.43225 3.401575 
" clip-path="url(#pb57f71b901)" style="fill: none; stroke: #ffffff; stroke-opacity: 0.9; stroke-width: 0.55; stroke-linecap: square"/>
     </g>
     <g id="line2d_14">
      <g>
       <use xlink:href="#mc07f607c43" x="73.43225" y="30.614173" style="stroke: #000000; stroke-width: 0.6"/>
      </g>
     </g>
    </g>
    <g id="xtick_8">
     <g id="line2d_15">
      <path d="M 116.058246 30.614173 
L 116.058246 3.401575 
" clip-path="url(#pb57f71b901)" style="fill: none; stroke: #ffffff; stroke-opacity: 0.9; stroke-width: 0.55; stroke-linecap: square"/>
     </g>
     <g id="line2d_16">
      <g>
       <use xlink:href="#mc07f607c43" x="116.058246" y="30.614173" style="stroke: #000000; stroke-width: 0.6"/>
      </g>
     </g>
    </g>
    <g id="xtick_9">
     <g id="line2d_17">
      <path d="M 158.684241 30.614173 
L 158.684241 3.401575 
" clip-path="url(#pb57f71b901)" style="fill: none; stroke: #ffffff; stroke-opacity: 0.9; stroke-width: 0.55; stroke-linecap: square"/>
     </g>
     <g id="line2d_18">
      <g>
       <use xlink:href="#mc07f607c43" x="158.684241" y="30.614173" style="stroke: #000000; stroke-width: 0.6"/>
      </g>
     </g>
    </g>
    <g id="xtick_10">
     <g id="line2d_19">
      <path d="M 201.310237 30.614173 
L 201.310237 3.401575 
" clip-path="url(#pb57f71b901)" style="fill: none; stroke: #ffffff; stroke-opacity: 0.9; stroke-width: 0.55; stroke-linecap: square"/>
     </g>
     <g id="line2d_20">
      <g>
       <use xlink:href="#mc07f607c43" x="201.310237" y="30.614173" style="stroke: #000000; stroke-width: 0.6"/>
      </g>
     </g>
    </g>
    <g id="text_6">
     <text style="font-size: 8px; font-family: 'DejaVu Sans', 'Bitstream Vera Sans', 'Computer Modern Sans Serif', 'Lucida Grande', 'Verdana', 'Geneva', 'Lucid', 'Arial', 'Helvetica', 'Avant Garde', sans-serif; text-anchor: middle" x="108.425197" y="53.935423" transform="rotate(-0 108.425197 53.935423)">time</text>
    </g>
   </g>
   <g id="matplotlib.axis_2">
    <g id="ytick_1">
     <g id="line2d_21">
      <path d="M 8.503937 24.30991 
L 208.346457 24.30991 
" clip-path="url(#pb57f71b901)" style="fill: none; stroke: #ffffff; stroke-width: 0.9; stroke-linecap: square"/>
     </g>
    </g>
    <g id="ytick_2">
     <g id="line2d_22">
      <path d="M 8.503937 17.031973 
L 208.346457 17.031973 
" clip-path="url(#pb57f71b901)" style="fill: none; stroke: #ffffff; stroke-width: 0.9; stroke-linecap: square"/>
     </g>
    </g>
    <g id="ytick_3">
     <g id="line2d_23">
      <path d="M 8.503937 9.754036 
L 208.346457 9.754036 
" clip-path="url(#pb57f71b901)" style="fill: none; stroke: #ffffff; stroke-width: 0.9; stroke-linecap: square"/>
     </g>
    </g>
    <g id="ytick_4">
     <g id="line2d_24">
      <path d="M 8.503937 27.948878 
L 208.346457 27.948878 
" clip-path="url(#pb57f71b901)" style="fill: none; stroke: #ffffff; stroke-opacity: 0.9; stroke-width: 0.55; stroke-linecap: square"/>
     </g>
     <g id="line2d_25">
      <defs>
       <path id="m51b1d8f217" d="M 0 0 
L -2 0 
" style="stroke: #000000; stroke-width: 0.6"/>
      </defs>
      <g>
       <use xlink:href="#m51b1d8f217" x="8.503937" y="27.948878" style="stroke: #000000; stroke-width: 0.6"/>
      </g>
     </g>
    </g>
    <g id="ytick_5">
     <g id="line2d_26">
      <path d="M 8.503937 20.670941 
L 208.346457 20.670941 
" clip-path="url(#pb57f71b901)" style="fill: none; stroke: #ffffff; stroke-opacity: 0.9; stroke-width: 0.55; stroke-linecap: square"/>
     </g>
     <g id="line2d_27">
      <g>
       <use xlink:href="#m51b1d8f217" x="8.503937" y="20.670941" style="stroke: #000000; stroke-width: 0.6"/>
      </g>
     </g>
    </g>
    <g id="ytick_6">
     <g id="line2d_28">
      <path d="M 8.503937 13.393004 
L 208.346457 13.393004 
" clip-path="url(#pb57f71b901)" style="fill: none; stroke: #ffffff; stroke-opacity: 0.9; stroke-width: 0.55; stroke-linecap: square"/>
     </g>
     <g id="line2d_29">
      <g>
       <use xlink:href="#m51b1d8f217" x="8.503937" y="13.393004" style="stroke: #000000; stroke-width: 0.6"/>
      </g>
     </g>
    </g>
    <g id="ytick_7">
     <g id="line2d_30">
      <path d="M 8.503937 6.115068 
L 208.346457 6.115068 
" clip-path="url(#pb57f71b901)" style="fill: none; stroke: #ffffff; stroke-opacity: 0.9; stroke-width: 0.55; stroke-linecap: square"/>
     </g>
     <g id="line2d_31">
      <g>
       <use xlink:href="#m51b1d8f217" x="8.503937" y="6.115068" style="stroke: #000000; stroke-width: 0.6"/>
      </g>
     </g>
    </g>
   </g>
   <g id="line2d_32">
    <path d="M 9.493256 17.689154 
L 9.564371 17.666357 
L 9.801419 16.471376 
L 10.085876 12.146172 
L 10.275514 12.146172 
L 10.394038 13.537617 
L 10.559972 14.824892 
L 10.74961 14.824892 
L 11.034068 13.399932 
L 11.223706 13.098695 
L 11.389639 13.098695 
L 11.579278 13.481054 
L 11.697802 13.586431 
L 11.863736 14.530902 
L 11.982259 14.530902 
L 12.290422 14.001499 
L 12.337831 14.001499 
L 12.456355 14.645841 
L 12.574879 14.645841 
L 12.693403 14.347825 
L 12.811927 14.244763 
L 12.930451 14.109795 
L 13.167499 12.553692 
L 13.238613 12.553692 
L 13.286023 12.696208 
L 13.52307 14.858005 
L 13.760119 14.77638 
L 14.068281 14.602764 
L 14.186805 14.55546 
L 15.016472 13.541039 
L 15.182406 13.494741 
L 15.372044 13.410097 
L 16.083188 13.50068 
L 16.249122 13.576668 
L 16.320236 13.576668 
L 16.48617 13.409091 
L 16.604693 13.458911 
L 16.960265 14.758767 
L 17.03138 14.775474 
L 17.434361 15.618795 
L 17.671409 14.810197 
L 17.908457 14.677243 
L 18.145504 14.471218 
L 18.335143 14.513892 
L 18.501076 14.471419 
L 18.738124 14.411635 
L 19.093696 14.013778 
L 19.21222 14.079098 
L 19.449268 17.088744 
L 19.567792 17.088744 
L 19.686316 16.710714 
L 19.80484 16.156753 
L 19.923364 16.061541 
L 20.160412 15.647177 
L 20.39746 14.450787 
L 20.515984 14.246071 
L 20.824146 14.347523 
L 20.871556 14.374798 
L 20.990079 14.777286 
L 21.345651 14.716294 
L 21.393061 14.643627 
L 21.511585 13.568012 
L 21.630109 13.568012 
L 21.819747 13.253893 
L 21.867157 13.253893 
L 21.98568 11.194153 
L 22.104205 11.194153 
L 22.341252 12.413592 
L 22.412367 12.413592 
L 22.530891 11.922837 
L 22.649415 11.922837 
L 23.242035 14.811808 
L 23.289444 14.811808 
L 23.526492 14.084432 
L 24.474683 13.766891 
L 24.664322 13.351118 
L 24.830255 13.369939 
L 25.019894 13.661211 
L 25.067303 13.663728 
L 25.304351 14.486818 
L 25.541399 16.070297 
L 25.612513 16.13914 
L 25.731038 17.155674 
L 25.849561 17.155674 
L 26.015495 16.738795 
L 26.252543 12.604519 
L 26.442181 12.604519 
L 27.082211 14.249795 
L 27.319258 13.770212 
L 27.67483 11.539271 
L 27.793354 11.424131 
L 27.982992 10.044462 
L 28.101516 10.044462 
L 28.385974 11.63408 
L 28.623022 11.75224 
L 28.931184 15.597055 
L 29.049708 16.283971 
L 29.334165 17.798507 
L 29.523804 17.798507 
L 29.642328 17.747881 
L 29.808261 17.361699 
L 29.926785 17.241224 
L 30.116424 16.215129 
L 30.637929 14.192527 
L 30.756453 14.277674 
L 30.874977 14.608803 
L 30.993501 14.608803 
L 31.183139 11.546015 
L 31.230548 11.546015 
L 31.420187 12.105008 
L 31.58612 16.22932 
L 31.704645 16.22932 
L 31.894283 13.426201 
L 32.060217 13.495647 
L 32.415788 16.429305 
L 32.534312 16.429305 
L 32.72395 16.67579 
L 32.842475 16.308428 
L 32.960998 16.308428 
L 33.601028 12.817589 
L 33.719551 12.739184 
L 33.838076 12.548257 
L 34.122533 12.642463 
L 34.478105 12.914511 
L 34.596629 12.527222 
L 34.715153 12.527222 
L 34.833677 13.084202 
L 35.260363 13.1461 
L 35.663344 13.689694 
L 35.900393 13.796582 
L 36.018916 14.131837 
L 36.848584 24.018692 
L 36.919698 24.018692 
L 37.27527 21.624601 
L 37.441204 17.779484 
L 37.512318 17.526961 
L 37.796775 14.075978 
L 37.86789 14.009651 
L 37.986414 13.773332 
L 38.033824 13.773332 
L 38.863491 16.297156 
L 39.100539 16.199025 
L 39.337587 15.249723 
L 39.645749 15.049838 
L 39.930207 15.326718 
L 40.404302 15.421024 
L 40.593941 19.112151 
L 40.759874 19.112151 
L 40.996922 18.683797 
L 41.115446 18.683797 
L 41.23397 19.918736 
L 41.352494 19.918736 
L 41.589542 18.032712 
L 41.708066 18.032712 
L 41.826589 19.265436 
L 42.016228 19.162072 
L 42.182161 17.255214 
L 42.490324 17.255214 
L 42.608848 16.315474 
L 42.774781 16.315474 
L 43.011829 16.905466 
L 43.130353 16.905466 
L 43.319991 15.455546 
L 43.485925 15.465912 
L 43.960021 16.33671 
L 44.149659 16.33671 
L 44.434117 15.376639 
L 44.552641 15.376639 
L 44.742279 15.577027 
L 44.860803 15.908759 
L 44.979327 15.908759 
L 45.311194 14.490241 
L 45.429718 14.490241 
L 45.73788 15.777717 
L 45.903814 15.777717 
L 45.974928 15.444877 
L 46.140862 13.597099 
L 46.259385 13.597099 
L 46.496434 15.027595 
L 46.614957 15.386401 
L 46.686072 15.386401 
L 46.852005 15.741987 
L 46.92312 15.864475 
L 47.041643 18.067335 
L 47.207577 21.458534 
L 47.397215 21.458534 
L 47.444625 21.633559 
L 47.634263 20.841568 
L 47.681673 20.777053 
L 47.800197 20.482258 
L 47.871311 20.482258 
L 47.989835 21.37852 
L 48.155768 23.455169 
L 48.345407 23.391661 
L 48.866912 18.256752 
L 48.938026 18.256752 
L 49.222484 19.877269 
L 49.412123 19.943495 
L 49.530646 20.421769 
L 50.004742 20.338937 
L 50.123266 19.810239 
L 50.360314 19.810239 
L 50.644771 20.453977 
L 50.763296 20.138448 
L 50.881819 20.138448 
L 51.071458 21.419785 
L 51.118868 21.450281 
L 51.355915 21.894436 
L 51.545554 21.828412 
L 51.711487 21.377614 
L 51.782601 21.377614 
L 51.901126 21.871187 
L 52.185583 25.315327 
L 52.256697 25.315327 
L 52.493745 24.967289 
L 52.659679 24.999597 
L 52.849317 25.626527 
L 53.086365 25.730395 
L 53.133774 25.874722 
L 53.204889 25.780819 
L 53.370822 25.882271 
L 53.489346 25.956649 
L 53.607871 25.863248 
L 53.797509 25.079812 
L 53.916032 25.079812 
L 54.081966 25.500315 
L 54.271604 25.570467 
L 54.390129 25.478777 
L 54.627176 24.247865 
L 54.911633 21.416464 
L 54.982748 21.398649 
L 55.267205 20.539627 
L 55.33832 20.555228 
L 55.504253 20.910512 
L 55.741302 20.938592 
L 55.93094 18.940045 
L 56.333921 15.580449 
L 56.405035 15.436222 
L 56.452445 15.084561 
L 56.570969 13.497559 
L 56.689493 13.497559 
L 56.926541 15.614065 
L 57.092475 15.614065 
L 57.282113 14.456826 
L 57.400636 14.456826 
L 57.519161 15.050643 
L 57.874733 16.101901 
L 57.922142 16.101901 
L 57.993256 15.914194 
L 58.870334 8.373521 
L 59.059972 8.694987 
L 59.225906 8.694987 
L 59.652592 8.608934 
L 59.889639 11.005138 
L 59.937049 11.106791 
L 60.245211 13.408084 
L 60.529669 13.454885 
L 60.719307 16.487278 
L 60.837831 17.692727 
L 60.956355 17.692727 
L 61.240812 16.723496 
L 61.430451 15.740578 
L 61.548975 15.743295 
L 61.714909 16.072411 
L 61.904547 16.072411 
L 62.260119 11.642636 
L 62.378642 11.642636 
L 62.426052 11.935417 
L 62.781624 16.777141 
L 62.900148 16.744733 
L 63.137196 16.505495 
L 63.326834 16.609061 
L 63.492768 16.760031 
L 63.84834 16.749765 
L 64.39355 16.484661 
L 64.678007 11.26229 
L 65.104693 11.211263 
L 65.270627 10.942032 
L 65.389151 10.942032 
L 65.578789 11.207035 
L 65.744723 11.270745 
L 66.218818 11.608819 
L 66.337343 11.523167 
L 66.526981 11.123096 
L 66.645504 11.064822 
L 66.811438 10.692126 
L 67.001076 10.765094 
L 67.119601 11.196266 
L 67.285534 12.68101 
L 67.404058 15.277803 
L 67.75963 15.277803 
L 67.996677 16.773115 
L 68.115202 16.773115 
L 68.233726 16.222375 
L 68.423364 13.290831 
L 68.589297 13.290831 
L 68.755231 14.845826 
L 68.944869 14.988443 
L 69.110803 14.860923 
L 69.300441 14.409723 
L 69.703422 13.345381 
L 69.774537 13.345381 
L 70.058994 13.967279 
L 70.130109 14.037732 
L 70.296042 14.420895 
L 70.414566 14.420895 
L 70.604205 14.042563 
L 70.841252 13.910614 
L 71.007186 13.722808 
L 71.244234 12.984058 
L 71.481282 13.043641 
L 71.955378 13.527955 
L 72.26354 13.995561 
L 72.382064 13.995561 
L 72.547997 13.669968 
L 73.567303 13.39037 
L 73.733237 13.211319 
L 74.041399 13.218365 
L 74.325856 13.396208 
L 74.752543 13.360277 
L 75.226639 13.405669 
L 75.392572 13.672786 
L 76.293354 13.86482 
L 77.241545 13.745855 
L 77.407479 13.782591 
L 77.526003 13.782591 
L 77.881575 12.986877 
L 78.355671 11.626633 
L 78.592719 12.71362 
L 78.900881 12.873447 
L 79.185338 13.224504 
L 79.422387 13.15858 
L 79.493501 13.105238 
L 79.730548 12.123326 
L 79.849073 12.123326 
L 80.13353 13.960535 
L 80.441692 13.660205 
L 80.489102 13.660205 
L 80.655035 12.547955 
L 80.77356 12.09766 
L 80.963198 11.423527 
L 81.129131 11.24196 
L 81.31877 11.24196 
L 81.484703 12.064447 
L 81.674341 12.064447 
L 82.148437 8.756282 
L 82.195847 8.756282 
L 82.385485 9.49654 
L 82.669943 9.556224 
L 82.859581 9.79828 
L 82.978105 9.79828 
L 83.144038 9.584304 
L 83.689249 9.48255 
L 83.807773 9.974312 
L 84.09223 9.958107 
L 84.518916 9.5526 
L 85.111536 9.617216 
L 85.467108 9.847999 
L 85.751566 9.7392 
L 85.988613 9.75158 
L 86.178252 9.776037 
L 86.344185 10.972528 
L 86.652347 12.602002 
L 86.770871 12.602002 
L 87.292377 9.69562 
L 87.4109 9.423672 
L 87.600539 8.654426 
L 88.477616 8.738165 
L 88.59614 8.820695 
L 88.833188 9.41089 
L 88.951712 9.302392 
L 89.14135 8.94127 
L 89.73397 8.836598 
L 90.018428 8.396871 
L 90.255475 8.901817 
L 90.374 9.179401 
L 90.682161 9.086202 
L 91.037733 8.797346 
L 91.559239 8.761113 
L 91.748877 8.231508 
L 91.914811 8.231508 
L 92.033334 8.488862 
L 92.388906 8.483025 
L 92.55484 8.341415 
L 93.69267 8.309912 
L 93.858604 9.015045 
L 94.166765 9.190875 
L 94.332699 9.190875 
L 94.522337 8.923456 
L 94.759385 8.850889 
L 94.925319 8.788086 
L 95.352005 8.825728 
L 95.636463 9.280753 
L 95.754987 9.366907 
L 96.181673 15.248817 
L 96.300197 15.166991 
L 96.537245 12.434627 
L 96.584654 12.434627 
L 96.774293 14.136567 
L 96.821702 14.197056 
L 96.892816 14.58042 
L 96.940226 14.393821 
L 97.01134 14.393821 
L 97.177274 14.661743 
L 97.248388 14.661743 
L 97.414322 14.292771 
L 97.532846 14.255633 
L 97.722484 13.049881 
L 97.888418 12.977315 
L 98.006941 13.000565 
L 98.315104 13.765683 
L 98.552152 13.888774 
L 98.907724 13.797085 
L 99.073657 13.679831 
L 99.381819 13.99395 
L 99.547753 14.641312 
L 99.618868 14.67674 
L 99.784801 15.398982 
L 99.974439 15.506674 
L 100.021849 15.506674 
L 100.330011 14.835862 
L 100.448535 14.835862 
L 100.495944 15.114654 
L 100.732992 20.807348 
L 101.51525 20.817916 
L 101.56266 21.014077 
L 101.870822 20.18233 
L 102.226394 20.173474 
L 102.629375 17.330498 
L 102.70049 17.330498 
L 102.937538 18.050627 
L 103.103472 19.867104 
L 103.221995 21.10627 
L 103.29311 21.127305 
L 103.411633 21.510468 
L 103.530158 21.510468 
L 103.577567 21.393919 
L 103.696091 20.31921 
L 103.814615 20.31921 
L 104.170187 22.27619 
L 104.241302 22.207046 
L 104.407235 19.835098 
L 104.573168 19.74975 
L 104.762806 20.033574 
L 104.810217 20.033574 
L 104.92874 20.307334 
L 104.999855 20.18223 
L 105.047264 20.18223 
L 105.284312 21.477556 
L 105.402836 21.477556 
L 105.47395 21.153675 
L 105.639884 18.135473 
L 105.995456 18.160031 
L 106.06657 17.856177 
L 106.422142 13.714051 
L 106.540666 13.714051 
L 106.706599 14.343497 
L 106.777714 14.415561 
L 107.133286 18.948499 
L 107.251809 18.948499 
L 107.488858 16.40988 
L 107.654791 16.019471 
L 107.725906 16.019471 
L 108.010363 13.215245 
L 108.200001 12.612168 
L 108.437049 13.715259 
L 108.602982 13.758134 
L 108.674097 13.758134 
L 109.029669 10.839574 
L 109.077079 10.834239 
L 109.266717 9.738394 
L 109.432651 9.28025 
L 109.551174 9.28025 
L 109.788222 9.76104 
L 109.97786 9.694512 
L 110.214909 7.529496 
L 110.262318 7.501515 
L 110.451956 6.813996 
L 110.61789 6.712946 
L 110.807528 7.16938 
L 111.091985 8.473664 
L 111.400148 8.669121 
L 111.75572 7.22534 
L 111.803129 7.521846 
L 111.874243 7.504736 
L 112.040177 6.743041 
L 112.158701 6.743041 
L 112.395749 4.638511 
L 112.466863 4.638511 
L 112.632797 5.436643 
L 112.751321 8.696598 
L 112.822435 8.696598 
L 112.940959 9.470271 
L 113.106893 9.470271 
L 113.580988 14.380334 
L 113.699513 15.045007 
L 113.93656 15.062418 
L 114.173608 15.718436 
L 114.410656 16.022188 
L 114.481771 16.022188 
L 114.766228 15.057889 
L 115.240324 13.201355 
L 115.358848 12.011407 
L 115.477372 12.011407 
L 115.714419 15.472555 
L 115.951468 15.472555 
L 116.188516 12.8038 
L 116.354449 12.906862 
L 116.425563 12.967854 
L 116.591497 14.236308 
L 116.710021 14.299112 
L 116.899659 14.299112 
L 117.018183 14.17753 
L 117.184117 14.749004 
L 117.421164 18.335056 
L 117.539689 18.335056 
L 117.895261 14.275158 
L 118.132308 13.960837 
L 118.44047 13.375978 
L 118.558994 13.557545 
L 118.677519 13.89119 
L 118.724928 13.89119 
L 118.796042 14.108285 
L 118.914566 14.902793 
L 119.03309 14.902793 
L 119.0805 14.760579 
L 119.270138 13.066287 
L 119.436072 13.090342 
L 119.507186 13.20981 
L 119.910167 15.449205 
L 119.981282 15.464604 
L 120.265739 16.089118 
L 120.621311 16.269377 
L 120.739835 19.504574 
L 120.929473 19.590828 
L 121.403569 19.607938 
L 121.522093 19.933028 
L 121.806551 19.97379 
L 121.925075 19.513531 
L 122.043598 19.993013 
L 122.162123 19.993013 
L 122.280646 21.915069 
L 122.470284 21.915069 
L 122.517695 21.741956 
L 122.754742 14.462361 
L 122.873266 14.02968 
L 123.062904 14.05927 
L 123.347362 16.80341 
L 123.465886 16.80341 
L 123.655524 16.302389 
L 123.821457 16.398608 
L 124.011096 16.536394 
L 124.295554 15.935732 
L 124.414077 16.307422 
L 124.603716 16.820017 
L 124.651126 17.021814 
L 124.840764 16.379787 
L 124.959287 15.784963 
L 125.125221 15.79382 
L 125.314859 16.023396 
L 125.551907 16.128773 
L 125.788956 16.3973 
L 126.073413 16.413202 
L 126.31046 16.189463 
L 126.381575 16.189463 
L 126.547509 20.392381 
L 126.784557 20.695731 
L 126.855671 20.695731 
L 127.021604 17.683668 
L 127.377176 16.183827 
L 127.566815 16.183827 
L 127.614224 16.217745 
L 127.732748 16.486775 
L 127.851272 16.486775 
L 128.13573 14.080406 
L 128.325368 13.924605 
L 128.443891 14.003914 
L 128.562416 14.16344 
L 128.609825 14.16344 
L 128.799463 13.493231 
L 128.965397 12.96242 
L 129.27356 12.849292 
L 129.439493 13.186963 
L 129.510607 13.186963 
L 129.676541 17.158291 
L 129.866179 22.181482 
L 129.913589 22.285147 
L 130.103227 23.829475 
L 139.276981 18.040965 
L 139.703667 22.088383 
L 139.822191 22.088383 
L 139.91701 21.75816 
L 140.106648 21.789461 
L 140.391106 22.206543 
L 140.46222 22.206543 
L 140.936316 19.343539 
L 141.102249 18.880059 
L 141.220774 18.880059 
L 141.339297 19.491691 
L 141.528935 20.364904 
L 141.694869 20.915343 
L 141.765984 20.915343 
L 141.931917 22.679583 
L 142.003032 22.679583 
L 142.168965 25.529806 
L 142.477127 26.556505 
L 142.761585 23.6311 
L 142.832699 23.56578 
L 142.998633 23.11468 
L 143.354205 23.016952 
L 143.472728 23.036175 
L 143.8283 23.483451 
L 144.017938 23.384615 
L 144.254987 22.180978 
L 144.302396 22.180978 
L 144.42092 22.762516 
L 144.610558 22.762516 
L 144.776492 22.64496 
L 144.847607 22.64496 
L 144.96613 23.68867 
L 145.132064 23.651431 
L 145.369111 23.164802 
L 145.60616 23.224386 
L 145.795798 23.286384 
L 145.843208 23.286384 
L 145.961731 23.689777 
L 146.19878 25.825505 
L 146.317303 25.743277 
L 146.506941 23.811761 
L 146.791399 23.87235 
L 146.862513 24.081293 
L 147.218085 29.377237 
L 147.265495 29.377237 
L 148.213686 22.573099 
L 148.332211 22.573099 
L 148.450734 22.952336 
L 148.758897 25.130036 
L 149.280402 25.552551 
L 149.588564 26.272982 
L 149.754498 26.334679 
L 149.944136 26.350883 
L 150.06266 26.554693 
L 150.11007 26.554693 
L 150.181184 26.350883 
L 150.821214 14.132541 
L 151.010852 14.228961 
L 151.295309 18.329218 
L 151.366423 18.356896 
L 151.484947 19.801583 
L 151.650881 22.65271 
L 151.769405 22.65271 
L 152.124977 20.869347 
L 152.480548 26.860157 
L 152.527958 26.860157 
L 152.717597 24.704902 
L 152.83612 24.704902 
L 152.954645 25.085449 
L 153.002054 25.085449 
L 153.073168 24.704902 
L 153.310216 21.692236 
L 153.47615 21.595314 
L 153.665788 21.595314 
L 153.784312 21.4065 
L 153.902836 21.4065 
L 154.258408 24.097599 
L 154.495456 24.06831 
L 154.851028 21.332222 
L 154.969551 21.504027 
L 155.372533 28.281896 
L 155.443648 28.281896 
L 155.609581 25.32368 
L 155.728105 25.32368 
L 155.917743 26.800875 
L 156.083677 27.849416 
L 156.202201 27.983981 
L 156.391839 27.862098 
L 156.676296 21.451086 
L 156.913344 21.451086 
L 157.268916 22.132768 
L 157.38744 22.244486 
L 157.505964 22.419712 
L 157.624488 22.804788 
L 157.743012 22.804788 
L 157.98006 22.189332 
L 158.098584 22.100561 
L 158.217108 22.189332 
L 158.454155 23.872955 
L 158.52527 23.872955 
L 158.691204 21.965393 
L 158.880842 21.267808 
L 159.046775 20.545666 
L 159.11789 20.545666 
L 159.236413 20.917255 
L 159.283824 20.945134 
L 159.71051 27.329675 
L 159.757919 27.329675 
L 159.947557 25.934003 
L 160.232015 17.716479 
L 160.350539 16.656667 
L 160.469063 16.656667 
L 160.587586 16.910196 
L 160.706111 16.910196 
L 160.777225 16.673072 
L 161.014273 14.29418 
L 161.132797 14.398954 
L 161.606893 16.553 
L 161.725416 16.754596 
L 161.89135 20.603136 
L 162.080988 22.929389 
L 162.365446 23.735571 
L 162.555085 23.81609 
L 162.673608 23.46936 
L 162.839542 22.632984 
L 163.02918 21.797714 
L 163.195114 20.946342 
L 163.384752 19.971475 
L 163.432161 19.934739 
L 163.598095 18.01842 
L 163.669209 18.01842 
L 163.835143 17.570843 
L 163.906258 17.474725 
L 164.072191 16.593662 
L 164.190715 16.593662 
L 164.546287 21.089563 
L 164.664811 21.395429 
L 164.783334 21.395429 
L 164.901859 20.529965 
L 165.257431 20.606859 
L 165.447069 19.935745 
L 165.921164 18.795314 
L 166.087098 18.795314 
L 166.324146 20.331691 
L 166.513784 20.242618 
L 166.679718 19.880993 
L 166.750832 19.674164 
L 166.869356 19.880993 
L 166.916765 19.880993 
L 167.03529 20.657283 
L 167.153814 20.657283 
L 167.509385 19.349074 
L 167.746433 19.456263 
L 167.936072 20.202862 
L 168.054595 20.202862 
L 168.102005 20.079469 
L 168.220529 19.582374 
L 168.339053 19.582374 
L 168.528692 19.929807 
L 168.647215 20.22108 
L 168.694625 20.417341 
L 168.765739 20.286903 
L 168.884263 20.286903 
L 169.002787 20.482963 
L 169.121311 20.312668 
L 169.239835 20.52765 
L 169.476883 20.42489 
L 169.950979 21.242545 
L 170.069503 21.248585 
L 170.662123 26.465822 
L 170.828056 26.837511 
L 171.065104 27.069804 
L 171.136218 27.069804 
L 171.539199 25.539065 
L 171.776248 25.133357 
L 171.965886 16.910196 
L 172.202934 16.910196 
L 172.487391 19.673661 
L 172.677029 19.867003 
L 172.842963 19.556004 
L 173.032601 18.665882 
L 173.269649 18.590196 
L 173.625221 20.602129 
L 173.791155 20.558952 
L 174.26525 19.703855 
L 174.620822 19.597068 
L 174.739346 19.693991 
L 174.928985 21.011863 
L 175.094918 20.91192 
L 175.331966 20.308441 
L 175.616423 20.374365 
L 175.853472 20.487693 
L 175.924586 20.506313 
L 176.04311 20.705795 
L 176.280158 20.648024 
L 176.564615 19.27057 
L 176.683139 19.27057 
L 176.920187 19.796047 
L 177.275759 19.810943 
L 177.465397 19.685839 
L 178.579522 19.597874 
L 178.81657 19.553891 
L 179.053618 20.793761 
L 179.243256 20.738506 
L 179.9544 18.996005 
L 180.309972 18.918909 
L 180.428496 18.946386 
L 180.665544 20.26154 
L 180.784067 20.26154 
L 181.021116 19.313747 
L 181.139639 19.313747 
L 181.258164 20.01898 
L 181.424097 20.762258 
L 181.613736 20.762258 
L 181.661145 20.656277 
L 181.898193 19.554092 
L 182.087831 19.362561 
L 182.253765 18.079312 
L 182.324879 18.033215 
L 182.609337 17.199657 
L 182.846384 17.199657 
L 183.154547 15.689852 
L 183.32048 15.715014 
L 183.557528 16.409578 
L 183.747167 16.409578 
L 183.794576 16.379686 
L 184.031624 15.379859 
L 184.150148 15.379859 
L 184.45831 19.431202 
L 184.50572 19.431202 
L 184.695358 19.306601 
L 184.742768 19.306601 
L 184.932406 20.340447 
L 185.05093 20.339139 
L 185.287978 19.649908 
L 185.335387 19.635918 
L 185.406501 19.137112 
L 185.572435 17.403165 
L 185.690959 17.403165 
L 185.762073 17.66213 
L 185.928007 18.55044 
L 186.046531 18.55044 
L 186.473217 14.520032 
L 186.591741 14.520032 
L 186.876199 17.966185 
L 186.994723 17.966185 
L 187.113246 17.793575 
L 187.350294 15.217113 
L 187.468818 15.217113 
L 187.634752 16.778047 
L 187.705866 17.227134 
L 187.8718 19.643064 
L 188.061438 19.643064 
L 188.179962 19.828657 
L 188.345896 19.355415 
L 188.535534 19.306299 
L 188.701467 18.551648 
L 188.891106 16.693604 
L 189.128154 16.736581 
L 189.175563 16.953173 
L 189.483726 19.546342 
L 189.602249 19.615285 
L 189.720774 19.820102 
L 189.957821 19.820102 
L 190.076346 19.034955 
L 190.194869 19.034955 
L 190.313393 20.183437 
L 190.431917 20.183437 
L 190.716375 19.593646 
L 190.834899 19.465925 
L 190.906013 19.188744 
L 191.261585 15.363051 
L 191.380108 15.844546 
L 191.546042 19.868211 
L 191.972728 20.547679 
L 192.091252 20.169246 
L 192.209777 20.169246 
L 192.37571 21.111604 
L 192.494234 21.111604 
L 192.731281 19.453445 
L 192.92092 19.385508 
L 193.205378 19.375444 
L 193.395016 19.235846 
L 193.442425 19.235846 
L 193.56095 19.614078 
L 194.153569 25.57882 
L 194.390617 25.537152 
L 194.580255 25.28161 
L 194.69878 25.131243 
L 194.935827 25.474248 
L 195.172875 25.572177 
L 195.409923 25.601264 
L 195.457333 25.601264 
L 195.694381 24.735298 
L 195.931428 24.459626 
L 196.239591 21.920906 
L 196.405524 21.52325 
L 196.476639 21.52325 
L 196.595162 21.734408 
L 196.713686 21.649663 
L 196.761096 21.766313 
L 196.832211 21.649663 
L 196.87962 21.58706 
L 197.069258 19.99875 
L 197.306306 16.870743 
L 197.353716 16.870743 
L 197.42483 17.064488 
L 197.661878 19.458276 
L 197.709287 19.458276 
L 197.827812 19.115573 
L 198.064859 16.654755 
L 198.301907 16.600506 
L 198.491545 16.723094 
L 198.538955 16.723094 
L 198.776003 15.21671 
L 198.894527 15.276092 
L 199.084165 17.032986 
L 199.250099 17.456911 
L 199.416032 18.145034 
L 199.487147 18.171303 
L 199.65308 18.858923 
L 199.890128 22.911876 
L 200.316815 24.439999 
L 200.364224 24.439999 
L 200.672387 24.917368 
L 200.83832 24.833026 
L 200.909434 24.706513 
L 201.075368 23.769389 
L 201.146482 23.769389 
L 201.193891 23.972192 
L 201.265006 23.917139 
L 201.786511 23.852825 
L 201.97615 24.37307 
L 202.094674 24.37307 
L 202.260607 23.408771 
L 202.497655 23.229116 
L 202.616179 23.327549 
L 202.805818 23.944213 
L 202.924341 24.032983 
L 203.042865 24.032983 
L 203.208799 23.694609 
L 203.327323 23.901539 
L 203.445847 23.631704 
L 203.516961 23.694609 
L 203.801419 24.495456 
L 204.156991 24.398835 
L 204.275514 24.113602 
L 204.346629 23.834709 
L 204.465152 22.238951 
L 204.631086 22.238951 
L 204.74961 22.532437 
L 204.986658 26.149589 
L 205.223706 26.063536 
L 205.413344 24.146412 
L 205.531868 24.039827 
L 205.697802 24.218576 
L 205.88744 25.618676 
L 206.053374 25.571373 
L 206.243012 24.971919 
L 206.598584 24.960647 
L 206.717108 25.226757 
L 206.883041 26.163881 
L 207.001565 26.225275 
L 207.120089 26.749445 
L 207.238613 26.749445 
L 207.357137 24.55202 
L 207.357137 24.55202 
" clip-path="url(#pb57f71b901)" style="fill: none; stroke: #5c80b5; stroke-width: 0.5; stroke-linecap: square"/>
   </g>
   <g id="patch_3">
    <path d="M 8.503937 30.614173 
L 208.346457 30.614173 
" style="fill: none; stroke: #000000; stroke-width: 0.4; stroke-linejoin: miter; stroke-linecap: square"/>
   </g>
   <g id="patch_4">
    <path d="M 8.503937 3.401575 
L 208.346457 3.401575 
" style="fill: none; stroke: #000000; stroke-width: 0.4; stroke-linejoin: miter; stroke-linecap: square"/>
   </g>
  </g>
 </g>
 <defs>
  <clipPath id="pb57f71b901">
   <rect x="8.503937" y="3.401575" width="199.84252" height="27.212598"/>
  </clipPath>
 </defs>
</svg>
