<?xml version="1.0" encoding="utf-8" standalone="no"?>
<!DOCTYPE svg PUBLIC "-//W3C//DTD SVG 1.1//EN"
  "http://www.w3.org/Graphics/SVG/1.1/DTD/svg11.dtd">
<svg xmlns:xlink="http://www.w3.org/1999/xlink" width="212.598425pt" height="42.519685pt" viewBox="0 0 212.598425 42.519685" xmlns="http://www.w3.org/2000/svg" version="1.1">
 <metadata>
  <rdf:RDF xmlns:dc="http://purl.org/dc/elements/1.1/" xmlns:cc="http://creativecommons.org/ns#" xmlns:rdf="http://www.w3.org/1999/02/22-rdf-syntax-ns#">
   <cc:Work>
    <dc:type rdf:resource="http://purl.org/dc/dcmitype/StillImage"/>
    <dc:date>2026-06-01T17:59:29.811666</dc:date>
    <dc:format>image/svg+xml</dc:format>
    <dc:creator>
     <cc:Agent>
      <dc:title>Matplotlib v3.10.8, https://matplotlib.org/</dc:title>
     </cc:Agent>
    </dc:creator>
   </cc:Work>
  </rdf:RDF>
 </metadata>
 <defs>
  <style type="text/css">*{stroke-linejoin: round; stroke-linecap: butt}</style>
 </defs>
 <g id="figure_1">
  <g id="patch_1">
   <path d="M 0 42.519685 
L 212.598425 42.519685 
L 212.598425 0 
L 0 0 
z
" style="fill: #ffffff"/>
  </g>
  <g id="axes_1">
   <g id="patch_2">
    <path d="M 8.503937 30.614173 
L 208.346457 30.614173 
L 208.346457 3.401575 
L 8.503937 3.401575 
z
" style="fill: #eaeaf2"/>
   </g>
   <g id="matplotlib.axis_1">
    <g id="xtick_1">
     <g id="line2d_1">
      <path d="M 9.493256 30.614173 
L 9.493256 3.401575 
" clip-path="url(#p3249d64e71)" style="fill: none; stroke: #ffffff; stroke-width: 0.9; stroke-linecap: square"/>
     </g>
     <g id="line2d_2">
      <defs>
       <path id="mc0b1501cba" d="M 0 0 
L 0 2 
" style="stroke: #000000; stroke-width: 0.4"/>
      </defs>
      <g>
       <use xlink:href="#mc0b1501cba" x="9.493256" y="30.614173" style="stroke: #000000; stroke-width: 0.4"/>
      </g>
     </g>
     <g id="text_1">
      <text style="font-size: 8px; font-family: 'DejaVu Sans', 'Bitstream Vera Sans', 'Computer Modern Sans Serif', 'Lucida Grande', 'Verdana', 'Geneva', 'Lucid', 'Arial', 'Helvetica', 'Avant Garde', sans-serif; text-anchor: middle" x="9.493256" y="42.192923" transform="rotate(-0 9.493256 42.192923)">0</text>
     </g>
    </g>
    <g id="xtick_2">
     <g id="line2d_3">
      <path d="M 52.119252 30.614173 
L 52.119252 3.401575 
" clip-path="url(#p3249d64e71)" style="fill: none; stroke: #ffffff; stroke-width: 0.9; stroke-linecap: square"/>
     </g>
     <g id="line2d_4">
      <g>
       <use xlink:href="#mc0b1501cba" x="52.119252" y="30.614173" style="stroke: #000000; stroke-width: 0.4"/>
      </g>
     </g>
     <g id="text_2">
      <text style="font-size: 8px; font-family: 'DejaVu Sans', 'Bitstream Vera Sans', 'Computer Modern Sans Serif', 'Lucida Grande', 'Verdana', 'Geneva', 'Lucid', 'Arial', 'Helvetica', 'Avant Garde', sans-serif; text-anchor: middle" x="52.119252" y="42.192923" transform="rotate(-0 52.119252 42.192923)">60</text>
     </g>
    </g>
    <g id="xtick_3">
     <g id="line2d_5">
      <path d="M 94.745248 30.614173 
L 94.745248 3.401575 
" clip-path="url(#p3249d64e71)" style="fill: none; stroke: #ffffff; stroke-width: 0.9; stroke-linecap: square"/>
     </g>
     <g id="line2d_6">
      <g>
       <use xlink:href="#mc0b1501cba" x="94.745248" y="30.614173" style="stroke: #000000; stroke-width: 0.4"/>
      </g>
     </g>
     <g id="text_3">
      <text style="font-size: 8px; font-family: 'DejaVu Sans', 'Bitstream Vera Sans', 'Computer Modern Sans Serif', 'Lucida Grande', 'Verdana', 'Geneva', 'Lucid', 'Arial', 'Helvetica', 'Avant Garde', sans-serif; text-anchor: middle" x="94.745248" y="42.192923" transform="rotate(-0 94.745248 42.192923)">120</text>
     </g>
    </g>
    <g id="xtick_4">
     <g id="line2d_7">
      <path d="M 137.371243 30.614173 
L 137.371243 3.401575 
" clip-path="url(#p3249d64e71)" style="fill: none; stroke: #ffffff; stroke-width: 0.9; stroke-linecap: square"/>
     </g>
     <g id="line2d_8">
      <g>
       <use xlink:href="#mc0b1501cba" x="137.371243" y="30.614173" style="stroke: #000000; stroke-width: 0.4"/>
      </g>
     </g>
     <g id="text_4">
      <text style="font-size: 8px; font-family: 'DejaVu Sans', 'Bitstream Vera Sans', 'Computer Modern Sans Serif', 'Lucida Grande', 'Verdana', 'Geneva', 'Lucid', 'Arial', 'Helvetica', 'Avant Garde', sans-serif; text-anchor: middle" x="137.371243" y="42.192923" transform="rotate(-0 137.371243 42.192923)">180</text>
     </g>
    </g>
    <g id="xtick_5">
     <g id="line2d_9">
      <path d="M 179.997239 30.614173 
L 179.997239 3.401575 
" clip-path="url(#p3249d64e71)" style="fill: none; stroke: #ffffff; stroke-width: 0.9; stroke-linecap: square"/>
     </g>
     <g id="line2d_10">
      <g>
       <use xlink:href="#mc0b1501cba" x="179.997239" y="30.614173" style="stroke: #000000; stroke-width: 0.4"/>
      </g>
     </g>
     <g id="text_5">
      <text style="font-size: 8px; font-family: 'DejaVu Sans', 'Bitstream Vera Sans', 'Computer Modern Sans Serif', 'Lucida Grande', 'Verdana', 'Geneva', 'Lucid', 'Arial', 'Helvetica', 'Avant Garde', sans-serif; text-anchor: middle" x="179.997239" y="42.192923" transform="rotate(-0 179.997239 42.192923)">240</text>
     </g>
    </g>
    <g id="xtick_6">
     <g id="line2d_11">
      <path d="M 30.806254 30.614173 
L 30.806254 3.401575 
" clip-path="url(#p3249d64e71)" style="fill: none; stroke: #ffffff; stroke-opacity: 0.9; stroke-width: 0.55; stroke-linecap: square"/>
     </g>
     <g id="line2d_12">
      <defs>
       <path id="m4e04822d24" d="M 0 0 
L 0 2 
" style="stroke: #000000; stroke-width: 0.6"/>
      </defs>
      <g>
       <use xlink:href="#m4e04822d24" x="30.806254" y="30.614173" style="stroke: #000000; stroke-width: 0.6"/>
      </g>
     </g>
    </g>
    <g id="xtick_7">
     <g id="line2d_13">
      <path d="M 73.43225 30.614173 
L 73.43225 3.401575 
" clip-path="url(#p3249d64e71)" style="fill: none; stroke: #ffffff; stroke-opacity: 0.9; stroke-width: 0.55; stroke-linecap: square"/>
     </g>
     <g id="line2d_14">
      <g>
       <use xlink:href="#m4e04822d24" x="73.43225" y="30.614173" style="stroke: #000000; stroke-width: 0.6"/>
      </g>
     </g>
    </g>
    <g id="xtick_8">
     <g id="line2d_15">
      <path d="M 116.058246 30.614173 
L 116.058246 3.401575 
" clip-path="url(#p3249d64e71)" style="fill: none; stroke: #ffffff; stroke-opacity: 0.9; stroke-width: 0.55; stroke-linecap: square"/>
     </g>
     <g id="line2d_16">
      <g>
       <use xlink:href="#m4e04822d24" x="116.058246" y="30.614173" style="stroke: #000000; stroke-width: 0.6"/>
      </g>
     </g>
    </g>
    <g id="xtick_9">
     <g id="line2d_17">
      <path d="M 158.684241 30.614173 
L 158.684241 3.401575 
" clip-path="url(#p3249d64e71)" style="fill: none; stroke: #ffffff; stroke-opacity: 0.9; stroke-width: 0.55; stroke-linecap: square"/>
     </g>
     <g id="line2d_18">
      <g>
       <use xlink:href="#m4e04822d24" x="158.684241" y="30.614173" style="stroke: #000000; stroke-width: 0.6"/>
      </g>
     </g>
    </g>
    <g id="xtick_10">
     <g id="line2d_19">
      <path d="M 201.310237 30.614173 
L 201.310237 3.401575 
" clip-path="url(#p3249d64e71)" style="fill: none; stroke: #ffffff; stroke-opacity: 0.9; stroke-width: 0.55; stroke-linecap: square"/>
     </g>
     <g id="line2d_20">
      <g>
       <use xlink:href="#m4e04822d24" x="201.310237" y="30.614173" style="stroke: #000000; stroke-width: 0.6"/>
      </g>
     </g>
    </g>
    <g id="text_6">
     <text style="font-size: 8px; font-family: 'DejaVu Sans', 'Bitstream Vera Sans', 'Computer Modern Sans Serif', 'Lucida Grande', 'Verdana', 'Geneva', 'Lucid', 'Arial', 'Helvetica', 'Avant Garde', sans-serif; text-anchor: middle" x="108.425197" y="53.935423" transform="rotate(-0 108.425197 53.935423)">time</text>
    </g>
   </g>
   <g id="matplotlib.axis_2">
    <g id="ytick_1">
     <g id="line2d_21">
      <path d="M 8.503937 22.685652 
L 208.346457 22.685652 
" clip-path="url(#p3249d64e71)" style="fill: none; stroke: #ffffff; stroke-width: 0.9; stroke-linecap: square"/>
     </g>
    </g>
    <g id="ytick_2">
     <g id="line2d_22">
      <path d="M 8.503937 13.778835 
L 208.346457 13.778835 
" clip-path="url(#p3249d64e71)" style="fill: none; stroke: #ffffff; stroke-width: 0.9; stroke-linecap: square"/>
     </g>
    </g>
    <g id="ytick_3">
     <g id="line2d_23">
      <path d="M 8.503937 4.872019 
L 208.346457 4.872019 
" clip-path="url(#p3249d64e71)" style="fill: none; stroke: #ffffff; stroke-width: 0.9; stroke-linecap: square"/>
     </g>
    </g>
    <g id="ytick_4">
     <g id="line2d_24">
      <path d="M 8.503937 27.13906 
L 208.346457 27.13906 
" clip-path="url(#p3249d64e71)" style="fill: none; stroke: #ffffff; stroke-opacity: 0.9; stroke-width: 0.55; stroke-linecap: square"/>
     </g>
     <g id="line2d_25">
      <defs>
       <path id="m5aa08a9986" d="M 0 0 
L -2 0 
" style="stroke: #000000; stroke-width: 0.6"/>
      </defs>
      <g>
       <use xlink:href="#m5aa08a9986" x="8.503937" y="27.13906" style="stroke: #000000; stroke-width: 0.6"/>
      </g>
     </g>
    </g>
    <g id="ytick_5">
     <g id="line2d_26">
      <path d="M 8.503937 18.232244 
L 208.346457 18.232244 
" clip-path="url(#p3249d64e71)" style="fill: none; stroke: #ffffff; stroke-opacity: 0.9; stroke-width: 0.55; stroke-linecap: square"/>
     </g>
     <g id="line2d_27">
      <g>
       <use xlink:href="#m5aa08a9986" x="8.503937" y="18.232244" style="stroke: #000000; stroke-width: 0.6"/>
      </g>
     </g>
    </g>
    <g id="ytick_6">
     <g id="line2d_28">
      <path d="M 8.503937 9.325427 
L 208.346457 9.325427 
" clip-path="url(#p3249d64e71)" style="fill: none; stroke: #ffffff; stroke-opacity: 0.9; stroke-width: 0.55; stroke-linecap: square"/>
     </g>
     <g id="line2d_29">
      <g>
       <use xlink:href="#m5aa08a9986" x="8.503937" y="9.325427" style="stroke: #000000; stroke-width: 0.6"/>
      </g>
     </g>
    </g>
   </g>
   <g id="line2d_30">
    <path d="M 9.493256 8.30966 
L 9.730305 8.529502 
L 9.801419 8.574214 
L 9.967352 9.229769 
L 10.2044 9.229769 
L 10.394038 8.618802 
L 10.559972 8.56596 
L 10.79702 8.753815 
L 11.152592 9.469216 
L 11.389639 9.750561 
L 11.508164 9.94198 
L 11.579278 9.877632 
L 11.745211 9.778639 
L 11.93485 9.712414 
L 11.982259 9.712414 
L 12.100783 10.0446 
L 12.456355 10.121206 
L 12.693403 11.315312 
L 12.883041 11.315312 
L 12.930451 11.224386 
L 13.286023 9.379666 
L 13.52307 9.442325 
L 13.712709 9.780077 
L 14.068281 10.351522 
L 14.234214 10.351522 
L 14.779425 9.514678 
L 14.897948 9.611858 
L 15.063882 9.667201 
L 15.775026 9.757814 
L 16.43876 9.857183 
L 16.557284 9.97675 
L 16.723217 10.023901 
L 16.912856 9.957301 
L 17.078789 9.685899 
L 17.671409 9.736302 
L 18.026981 10.407929 
L 18.264029 10.312188 
L 18.335143 10.199937 
L 18.382553 10.290988 
L 18.572191 10.199937 
L 19.330744 9.010334 
L 19.449268 9.010334 
L 19.638906 10.121893 
L 19.923364 10.121893 
L 19.994478 10.803212 
L 20.113002 16.284719 
L 20.231526 16.284719 
L 20.515984 15.055218 
L 20.990079 14.729974 
L 21.179718 15.181476 
L 21.511585 15.306046 
L 21.938271 15.265023 
L 21.98568 15.023513 
L 22.104205 8.881511 
L 22.341252 8.243154 
L 22.459777 8.243154 
L 22.767938 9.404367 
L 23.17092 9.41381 
L 23.289444 9.337016 
L 23.407968 8.448582 
L 23.526492 8.448582 
L 23.882064 9.604416 
L 24.119111 9.76757 
L 24.35616 9.675894 
L 24.545798 9.131964 
L 24.711731 8.859249 
L 24.830255 8.859249 
L 25.019894 9.809156 
L 25.185827 9.809156 
L 25.304351 8.846179 
L 25.422875 8.072934 
L 25.541399 8.072934 
L 25.731038 9.207632 
L 25.849561 15.295665 
L 26.015495 15.295665 
L 26.205133 14.76318 
L 26.371067 14.76318 
L 26.560705 15.20624 
L 26.608114 15.218122 
L 26.845163 16.687882 
L 26.963686 16.687882 
L 27.153325 16.850473 
L 27.390372 16.850473 
L 27.508897 9.844613 
L 27.67483 9.686462 
L 27.793354 9.613234 
L 27.982992 9.2414 
L 28.26745 9.2414 
L 28.575612 8.934041 
L 28.81266 8.578279 
L 28.978594 7.923662 
L 29.097117 7.642505 
L 29.215642 6.314324 
L 29.452689 6.314324 
L 29.642328 8.184433 
L 29.760852 14.338192 
L 30.353472 14.338192 
L 30.519405 14.79082 
L 30.756453 14.853981 
L 30.874977 14.263713 
L 30.993501 14.263713 
L 31.112025 17.623281 
L 31.230548 20.427164 
L 31.349073 20.427164 
L 31.58612 14.823714 
L 31.775759 14.864299 
L 31.941692 15.501468 
L 32.131331 15.681319 
L 32.249855 15.815707 
L 32.486903 16.40241 
L 32.534312 16.40241 
L 32.652836 16.214492 
L 32.842475 16.542864 
L 32.960998 17.307729 
L 33.079522 17.307729 
L 33.245456 16.557184 
L 33.41139 16.003312 
L 33.482504 15.817583 
L 33.601028 15.123506 
L 33.719551 15.123506 
L 33.885485 15.598397 
L 34.122533 15.598397 
L 34.596629 15.124007 
L 34.667743 15.210743 
L 34.786267 15.641421 
L 35.141839 15.537988 
L 35.544821 15.363141 
L 35.734459 15.24201 
L 35.971507 15.185479 
L 36.13744 14.920143 
L 36.255964 13.867741 
L 36.327079 13.770561 
L 36.611536 8.806219 
L 36.801174 8.707101 
L 36.919698 8.806219 
L 37.085632 10.186742 
L 37.204155 10.287111 
L 37.393794 10.394922 
L 37.441204 10.394922 
L 37.512318 11.032966 
L 37.678252 15.552497 
L 37.86789 17.355443 
L 37.986414 17.726902 
L 38.104938 18.399465 
L 38.223462 18.399465 
L 38.626443 16.133572 
L 38.816082 15.956786 
L 38.982015 15.779937 
L 39.171654 15.86636 
L 39.337587 15.937337 
L 39.693158 16.003562 
L 39.882797 16.272087 
L 40.285778 16.363013 
L 40.522827 16.46557 
L 40.64135 16.424172 
L 40.759874 15.994807 
L 40.996922 15.892374 
L 41.423608 11.224511 
L 41.542132 11.224511 
L 41.660656 13.915955 
L 41.77918 13.915955 
L 41.945114 13.560444 
L 42.063638 13.560444 
L 42.182161 13.862425 
L 42.300686 15.09399 
L 42.419209 15.09399 
L 42.608848 14.236635 
L 42.656258 14.234133 
L 42.964419 13.765246 
L 43.011829 13.765246 
L 43.130353 15.107748 
L 43.319991 18.078911 
L 43.485925 18.078911 
L 43.604449 17.669807 
L 43.794088 16.217994 
L 44.031135 15.395784 
L 44.149659 15.499279 
L 44.315592 15.395784 
L 44.434117 15.256518 
L 44.671164 13.108816 
L 44.908212 7.749691 
L 45.074146 7.749691 
L 45.19267 8.388611 
L 45.666765 8.650632 
L 45.903814 7.941548 
L 46.093452 7.835301 
L 46.211976 7.835301 
L 46.259385 8.098823 
L 46.496434 10.113514 
L 46.567548 10.113514 
L 46.614957 10.239709 
L 46.686072 10.113514 
L 46.733481 10.098192 
L 46.804595 9.954613 
L 47.041643 5.615308 
L 47.278692 4.638511 
L 47.397215 5.300257 
L 47.563149 13.072546 
L 47.871311 12.984746 
L 47.989835 12.725977 
L 48.51134 12.776005 
L 48.629865 13.011511 
L 48.748388 14.828341 
L 48.938026 14.77675 
L 49.10396 13.053535 
L 49.293598 13.053535 
L 49.412123 12.456764 
L 49.530646 13.208122 
L 49.933628 9.286488 
L 50.052152 13.016764 
L 50.407724 13.75005 
L 50.526248 14.474393 
L 50.644771 14.474393 
L 50.881819 13.771687 
L 51.427029 13.827656 
L 51.711487 12.548502 
L 51.782601 12.6111 
L 51.830011 12.548502 
L 51.948535 12.548502 
L 52.256697 13.246268 
L 52.422631 13.307052 
L 53.015251 13.729351 
L 53.370822 13.639738 
L 53.56046 13.355391 
L 53.726394 13.231009 
L 53.797509 13.231009 
L 53.963442 13.742608 
L 54.20049 13.978115 
L 54.674586 13.986432 
L 54.864224 13.530177 
L 54.911633 13.530177 
L 54.982748 13.667566 
L 55.101272 14.003067 
L 55.219796 14.003067 
L 55.38573 13.69208 
L 55.504253 13.20931 
L 55.622777 13.00038 
L 55.693892 13.00038 
L 55.859825 13.20931 
L 55.93094 13.176479 
L 56.167988 14.295543 
L 56.215397 13.718282 
L 56.333921 14.3754 
L 56.452445 14.3754 
L 56.689493 16.143015 
L 56.808017 16.095988 
L 56.926541 15.537613 
L 57.092475 10.298305 
L 57.282113 8.686402 
L 57.329522 8.710791 
L 57.448046 9.041225 
L 57.519161 9.041225 
L 57.803618 9.473655 
L 57.922142 9.37904 
L 57.993256 9.359404 
L 58.040666 9.147035 
L 58.230305 9.456083 
L 58.277714 9.456083 
L 58.633286 11.093187 
L 58.822924 11.179048 
L 59.771116 11.283044 
L 59.889639 11.539312 
L 60.174097 11.359962 
L 60.482259 11.315499 
L 60.837831 10.023839 
L 60.956355 10.023839 
L 61.003765 10.139153 
L 61.122289 16.584324 
L 61.311927 16.649986 
L 61.596384 16.347692 
L 61.833432 16.418607 
L 61.951956 16.599833 
L 62.02307 17.275774 
L 62.189004 23.35943 
L 62.378642 23.35943 
L 62.6631 17.062405 
L 64.440959 17.062405 
L 64.512073 17.498961 
L 64.915055 25.827938 
L 65.033579 26.293949 
L 65.389151 26.226974 
L 65.697313 27.71318 
L 65.863246 27.73882 
L 65.981771 27.432023 
L 66.100295 21.296776 
L 66.455866 21.392892 
L 66.882553 21.484631 
L 67.048486 21.448985 
L 67.119601 20.594945 
L 67.404058 11.570455 
L 67.475173 11.468522 
L 67.830744 9.783454 
L 67.949268 9.783454 
L 68.067792 9.936102 
L 68.115202 9.936102 
L 68.233726 12.398606 
L 68.352249 12.398606 
L 68.541888 9.114142 
L 68.755231 7.786898 
L 68.826346 7.786898 
L 68.944869 8.166736 
L 68.992279 7.786898 
L 69.466375 9.89658 
L 69.584899 9.950047 
L 69.703422 10.516051 
L 69.94047 10.516051 
L 70.177519 9.918467 
L 70.770138 9.538817 
L 70.888662 9.28899 
L 71.0783 9.354401 
L 71.244234 9.882697 
L 71.481282 10.252529 
L 71.907968 10.159915 
L 72.192425 9.982878 
L 72.547997 9.997824 
L 72.85616 10.156663 
L 73.259141 10.067613 
L 73.685827 10.148658 
L 73.970284 10.231142 
L 74.562904 10.323256 
L 74.799953 10.344206 
L 75.037 10.241836 
L 75.226639 10.226327 
L 75.345163 10.068364 
L 75.463686 10.011019 
L 75.511096 9.914403 
L 75.582211 9.984317 
L 75.819258 9.995948 
L 76.340764 10.089 
L 76.459287 10.089 
L 76.648926 10.004453 
L 76.814859 9.944106 
L 77.123022 10.053605 
L 77.407479 10.067113 
L 77.597117 9.816848 
L 78.071214 9.727047 
L 78.118623 9.656258 
L 78.237147 8.753627 
L 78.355671 8.753627 
L 78.592719 9.262412 
L 78.663833 9.394611 
L 78.782357 10.051604 
L 78.94829 10.051604 
L 79.137929 9.774574 
L 79.303862 9.774574 
L 79.967597 8.164423 
L 80.08612 8.382795 
L 80.252054 11.493036 
L 80.370578 11.493036 
L 80.489102 10.885946 
L 80.655035 10.057858 
L 80.72615 10.057858 
L 80.963198 10.419498 
L 81.081721 10.367218 
L 81.247655 10.294115 
L 81.31877 10.294115 
L 81.484703 10.730985 
L 81.555818 10.730985 
L 81.91139 11.365778 
L 82.148437 11.387852 
L 82.314371 11.725354 
L 82.669943 11.802897 
L 82.859581 12.045346 
L 83.333677 12.115698 
L 83.452201 11.868934 
L 84.044821 12.243769 
L 84.447802 11.737173 
L 84.518916 11.737173 
L 84.68485 11.952731 
L 85.040422 11.957171 
L 85.158946 11.442445 
L 85.277469 11.442445 
L 85.467108 11.765376 
L 86.225661 11.724166 
L 86.652347 9.739742 
L 86.770871 9.739742 
L 86.936805 10.864372 
L 87.126443 11.144028 
L 87.4109 11.481968 
L 87.529425 12.175043 
L 87.837587 12.068171 
L 88.193158 11.679015 
L 88.359092 11.624735 
L 88.54873 11.524866 
L 88.59614 11.524866 
L 88.833188 11.779822 
L 89.070236 11.693023 
L 89.307284 11.665758 
L 89.544331 11.765064 
L 89.852494 11.507169 
L 90.374 9.872316 
L 90.611047 9.816347 
L 90.682161 9.816347 
L 91.203667 11.810401 
L 91.440715 11.680766 
L 91.559239 11.573206 
L 91.796287 11.614354 
L 92.104449 11.699527 
L 92.270382 11.745928 
L 93.384507 11.380911 
L 93.69267 11.555133 
L 93.858604 11.979246 
L 93.977127 11.979246 
L 94.048242 11.805023 
L 94.095651 11.892447 
L 94.451223 11.869059 
L 94.688271 11.384726 
L 94.877909 11.405237 
L 95.043843 11.551631 
L 95.280891 11.50842 
L 95.517938 11.270599 
L 95.636463 11.202749 
L 96.110558 10.856117 
L 96.229082 13.558318 
L 96.46613 20.119178 
L 96.537245 20.119178 
L 96.774293 16.10787 
L 96.892816 15.356262 
L 97.01134 8.808908 
L 97.129865 8.808908 
L 97.295798 10.364029 
L 97.485436 10.326758 
L 97.65137 9.942543 
L 97.888418 9.232708 
L 98.078056 9.139968 
L 98.24399 9.054045 
L 98.836609 8.967185 
L 99.192181 8.838988 
L 99.381819 8.867879 
L 99.547753 9.757502 
L 99.737391 9.757502 
L 100.021849 7.709855 
L 100.211487 7.786211 
L 100.330011 7.994202 
L 100.495944 7.994202 
L 100.614469 7.798405 
L 100.732992 7.798405 
L 100.851516 7.436452 
L 100.970041 7.914033 
L 101.041155 7.914033 
L 101.088564 8.235212 
L 101.278202 11.97218 
L 101.325612 11.97218 
L 101.51525 12.65994 
L 101.633774 12.474523 
L 101.752299 12.474523 
L 101.870822 12.313433 
L 102.036756 12.314434 
L 102.15528 13.505038 
L 102.226394 13.505038 
L 102.344918 13.697458 
L 102.463442 13.773375 
L 102.629375 13.915267 
L 102.7479 13.888565 
L 102.866424 13.578391 
L 102.937538 13.578391 
L 103.103472 12.889568 
L 103.459044 13.780192 
L 103.530158 13.78088 
L 103.696091 14.034209 
L 104.170187 14.143583 
L 104.407235 13.471394 
L 104.573168 12.493096 
L 104.762806 12.57583 
L 105.047264 12.947851 
L 105.165788 13.440251 
L 105.284312 13.440251 
L 105.52136 12.734919 
L 105.758408 12.734919 
L 105.876932 12.230199 
L 105.995456 12.230199 
L 106.303618 15.548057 
L 106.469551 15.548057 
L 106.588076 14.452943 
L 106.706599 14.452943 
L 106.943648 15.006566 
L 107.014762 16.154271 
L 107.062171 15.196798 
L 107.891839 15.123006 
L 108.081478 15.035144 
L 108.247411 14.403916 
L 108.318525 14.403916 
L 108.365935 14.541618 
L 108.555573 15.817645 
L 108.602982 15.817645 
L 108.840031 14.265276 
L 108.958554 13.319684 
L 109.077079 13.319684 
L 109.148193 13.797952 
L 109.38524 18.157393 
L 109.551174 19.700444 
L 109.859337 19.604452 
L 109.906746 19.497456 
L 110.02527 18.797251 
L 110.143794 18.797251 
L 110.380842 19.690689 
L 110.499366 19.96109 
L 110.61789 19.96109 
L 110.736414 19.377701 
L 110.854938 17.649483 
L 111.044576 14.231132 
L 111.21051 14.231132 
L 111.281624 14.231132 
L 111.518672 15.594207 
L 111.803129 19.986479 
L 111.992768 19.986479 
L 112.111292 19.438985 
L 112.229815 19.438985 
L 112.585387 25.013544 
L 112.822435 16.750355 
L 112.869845 16.750355 
L 113.059483 25.309335 
L 113.225416 25.309335 
L 113.462465 15.980049 
L 113.699513 15.980049 
L 114.007674 17.828146 
L 114.055085 17.667368 
L 114.410656 17.123189 
L 114.955866 17.061592 
L 115.1218 16.717274 
L 115.358848 16.449061 
L 115.595896 10.930284 
L 116.022582 10.930284 
L 116.069991 11.147968 
L 116.354449 17.25076 
L 116.425563 17.25076 
L 116.591497 16.419357 
L 116.710021 16.419357 
L 116.947069 16.761298 
L 117.018183 16.761298 
L 117.065592 16.415855 
L 117.373755 11.398358 
L 117.492279 11.398358 
L 117.610803 15.049778 
L 117.776736 15.049778 
L 117.895261 15.66556 
L 118.084899 14.571823 
L 118.203422 10.534187 
L 118.321947 10.276542 
L 118.48788 10.43288 
L 118.677519 10.43288 
L 118.724928 10.43288 
L 119.03309 8.50924 
L 119.0805 8.50924 
L 119.436072 9.313316 
L 119.791643 10.820722 
L 119.910167 10.875253 
L 120.147215 11.378222 
L 120.21833 11.378222 
L 120.384263 11.191117 
L 120.573902 11.141777 
L 120.621311 11.071488 
L 120.81095 10.402426 
L 120.976883 10.173235 
L 121.450979 8.185059 
L 121.806551 9.38248 
L 121.996189 8.924911 
L 122.162123 8.924911 
L 122.280646 8.584533 
L 122.517695 9.582591 
L 122.636218 10.537501 
L 122.944381 16.478077 
L 123.110314 16.478077 
L 123.418476 15.401475 
L 123.537 15.401475 
L 123.702934 16.575507 
L 123.939982 16.790502 
L 124.12962 16.790502 
L 124.295554 16.5857 
L 124.532601 16.542488 
L 124.651126 17.034139 
L 124.840764 16.993866 
L 125.006697 16.574757 
L 125.836365 16.605524 
L 125.954889 16.162526 
L 126.381575 16.211803 
L 126.666032 16.572443 
L 126.784557 16.462318 
L 126.90308 16.265083 
L 127.258652 16.320239 
L 127.329767 16.405537 
L 127.44829 16.107057 
L 127.4957 16.107057 
L 127.851272 15.749294 
L 127.969796 15.749294 
L 128.13573 14.780877 
L 128.325368 10.477968 
L 128.372777 10.349333 
L 128.491302 8.096259 
L 128.609825 8.096259 
L 128.799463 9.819349 
L 128.917988 9.851242 
L 129.036511 10.231455 
L 129.320969 16.055466 
L 129.558017 13.697395 
L 129.747655 12.249898 
L 129.913589 12.129893 
L 130.103227 11.453514 
L 139.276981 12.57214 
L 139.632553 12.857488 
L 139.703667 12.857488 
L 139.751076 12.712469 
L 139.822191 12.77738 
L 139.988124 12.703401 
L 140.272582 12.552379 
L 140.46222 12.231074 
L 140.50963 12.166788 
L 140.580744 12.27585 
L 140.699268 12.047784 
L 140.865202 12.050849 
L 141.05484 11.559073 
L 141.220774 8.597853 
L 141.457821 8.464903 
L 141.576346 8.182682 
L 141.694869 8.182682 
L 141.884507 9.377602 
L 142.050441 10.639934 
L 142.168965 12.217567 
L 142.358604 14.008882 
L 142.524537 14.36602 
L 142.595651 14.36602 
L 142.714175 14.006756 
L 142.761585 13.99031 
L 142.998633 12.499412 
L 143.069747 12.318061 
L 143.306795 9.753437 
L 143.946824 9.227393 
L 144.065348 9.373412 
L 144.183872 9.571523 
L 144.657968 10.593345 
L 144.729082 10.593345 
L 144.847607 9.673705 
L 145.01354 8.672457 
L 145.132064 8.672457 
L 145.321702 8.557705 
L 145.369111 8.557705 
L 145.440226 8.778141 
L 145.55875 10.921154 
L 145.677274 10.921154 
L 145.795798 9.230395 
L 145.961731 9.299683 
L 146.080255 10.194684 
L 146.19878 10.194684 
L 146.317303 8.196316 
L 146.435827 8.196316 
L 146.625466 8.614362 
L 146.909923 8.917219 
L 146.981038 9.363532 
L 147.099561 12.024897 
L 147.265495 12.024897 
L 147.573657 9.225641 
L 147.739591 8.813098 
L 147.810705 8.800778 
L 147.929229 8.472407 
L 148.047753 8.472407 
L 148.166277 7.877199 
L 148.213686 8.007897 
L 148.284801 7.877199 
L 148.569258 6.189629 
L 148.877421 5.156552 
L 149.043354 5.465099 
L 149.232992 6.116213 
L 149.51745 7.209638 
L 149.588564 7.066432 
L 149.635974 7.209638 
L 149.754498 7.557395 
L 149.873022 10.342517 
L 150.06266 10.342517 
L 150.181184 8.911216 
L 150.299708 8.911216 
L 150.418232 11.891509 
L 150.536756 12.219318 
L 150.702689 14.921393 
L 150.892328 16.988613 
L 151.010852 16.988613 
L 151.2479 15.086173 
L 151.295309 14.535802 
L 151.413833 6.720739 
L 151.532357 6.720739 
L 151.603472 7.27086 
L 151.721995 12.704277 
L 151.887929 13.682825 
L 152.006453 13.682825 
L 152.124977 12.358646 
L 152.243501 8.941045 
L 152.362025 8.941045 
L 152.480548 9.281298 
L 152.527958 9.281298 
L 152.646482 10.081245 
L 152.83612 10.143155 
L 152.954645 10.763565 
L 153.547264 7.086944 
L 153.713198 8.138721 
L 153.902836 9.908149 
L 154.139884 11.438318 
L 154.305818 11.52199 
L 154.495456 11.498102 
L 154.732504 9.655757 
L 154.851028 9.655757 
L 154.969551 10.678205 
L 155.088076 10.678205 
L 155.254009 10.099756 
L 155.372533 10.045913 
L 155.491057 9.958365 
L 155.609581 9.246466 
L 155.728105 9.246466 
L 155.846629 9.683523 
L 156.036267 10.032031 
L 156.202201 11.49166 
L 156.320724 11.49166 
L 156.913344 9.529812 
L 157.031868 9.529812 
L 157.221507 10.422812 
L 157.340031 10.774509 
L 157.505964 10.79083 
L 157.743012 10.473403 
L 157.932651 11.100441 
L 158.169698 11.506294 
L 158.335632 11.311122 
L 158.406746 11.311122 
L 158.52527 10.43607 
L 158.691204 8.511055 
L 158.809727 7.884328 
L 159.046775 5.308449 
L 159.165299 4.70486 
L 159.283824 4.70486 
L 159.402347 6.349281 
L 159.639395 11.459267 
L 159.71051 11.676577 
L 159.947557 14.351512 
L 160.184605 15.292851 
L 160.303129 15.255205 
L 160.350539 15.255205 
L 160.469063 7.356783 
L 160.658701 7.44996 
L 160.943158 9.579965 
L 161.180206 9.54457 
L 161.535778 8.304438 
L 161.725416 8.304438 
L 161.962465 9.914089 
L 162.009874 9.914089 
L 162.128398 10.869812 
L 162.199513 10.869812 
L 162.365446 10.518365 
L 162.48397 10.470777 
L 162.602494 9.901645 
L 162.721018 10.470777 
L 162.910656 13.771812 
L 163.02918 13.935779 
L 163.195114 15.772495 
L 163.384752 16.597707 
L 163.503276 17.710893 
L 163.669209 17.689068 
L 163.835143 16.637354 
L 164.024781 15.96529 
L 164.190715 15.971669 
L 164.380353 15.849413 
L 164.498877 14.197676 
L 164.617401 13.955102 
L 164.735925 13.24533 
L 164.854449 13.24533 
L 165.020382 13.8164 
L 165.138906 13.8164 
L 165.375954 14.211934 
L 165.85005 18.088604 
L 165.968574 18.025069 
L 166.087098 17.421981 
L 166.158212 17.383022 
L 166.324146 16.474388 
L 166.561194 16.474388 
L 166.632308 16.474388 
L 166.798242 17.204609 
L 166.916765 17.204609 
L 167.153814 16.2502 
L 167.343452 16.322177 
L 167.627909 16.606337 
L 167.699023 16.481704 
L 167.936072 15.231379 
L 168.102005 15.315614 
L 168.291643 15.868111 
L 168.576101 15.857918 
L 168.884263 15.850726 
L 169.050196 16.056404 
L 169.121311 16.056404 
L 169.287245 16.24132 
L 169.476883 16.222434 
L 169.524293 16.222434 
L 169.642816 15.892062 
L 169.76134 15.874302 
L 169.832455 15.758737 
L 169.879865 15.874302 
L 169.998388 15.979986 
L 170.116912 15.874302 
L 170.188026 15.982675 
L 170.235436 16.408163 
L 170.780646 28.042427 
L 170.828056 28.042427 
L 170.89917 27.31402 
L 171.065104 22.671108 
L 171.254742 22.671108 
L 171.49179 25.666786 
L 171.539199 25.666786 
L 171.657724 23.129802 
L 171.894771 17.816139 
L 171.965886 17.558307 
L 172.131819 16.227875 
L 172.321457 16.182662 
L 172.487391 16.367203 
L 172.677029 17.010188 
L 172.842963 17.010188 
L 172.961487 16.7421 
L 173.032601 16.7421 
L 173.151126 16.142577 
L 173.317059 16.171968 
L 173.625221 15.514038 
L 173.791155 15.391844 
L 174.099317 14.347259 
L 174.26525 14.385468 
L 174.502299 15.194171 
L 174.739346 16.696199 
L 174.81046 16.949967 
L 174.928985 16.696199 
L 175.166032 16.852975 
L 175.45049 16.436742 
L 175.734947 16.415292 
L 175.924586 16.731532 
L 176.327567 16.682754 
L 176.446091 16.632539 
L 176.872777 16.951467 
L 177.157235 16.857978 
L 177.583921 17.182972 
L 177.868378 17.147327 
L 178.058017 17.037141 
L 178.22395 17.019818 
L 178.532113 17.019818 
L 178.698046 17.324113 
L 178.81657 17.324113 
L 178.887684 17.131005 
L 179.053618 16.222559 
L 179.290666 16.065722 
L 179.598828 16.375582 
L 179.646238 16.508469 
L 179.764762 17.120875 
L 180.001809 17.120875 
L 180.238857 16.886619 
L 180.428496 16.849348 
L 180.665544 16.026074 
L 180.831477 16.026074 
L 180.950001 16.422609 
L 181.068525 16.919199 
L 181.424097 16.951718 
L 181.732259 17.328554 
L 181.898193 17.328554 
L 182.13524 17.304853 
L 182.324879 17.879988 
L 182.443403 17.304853 
L 182.490812 17.32305 
L 182.561927 17.426483 
L 182.609337 17.32305 
L 182.964909 16.225624 
L 183.083432 16.61628 
L 183.557528 22.121799 
L 183.628642 22.121799 
L 183.984214 18.319108 
L 184.031624 18.247944 
L 184.268672 17.090545 
L 184.576834 17.058152 
L 184.742768 17.282215 
L 185.09834 17.178219 
L 185.216863 17.096048 
L 185.406501 17.377956 
L 185.572435 17.378269 
L 185.809483 18.169212 
L 185.880598 18.248944 
L 186.046531 19.57331 
L 186.165055 19.943705 
L 186.591741 21.409213 
L 186.757674 20.494889 
L 187.113246 17.778743 
L 187.231771 17.778743 
L 187.634752 16.377521 
L 187.705866 16.353758 
L 187.8718 15.547619 
L 187.942914 15.547619 
L 188.061438 15.392094 
L 188.345896 15.291413 
L 188.582944 15.726031 
L 188.654058 15.726031 
L 188.819991 15.839407 
L 189.246677 15.991055 
L 189.365202 15.905632 
L 189.483726 15.642297 
L 189.602249 15.648738 
L 189.839297 16.380147 
L 190.005231 16.567064 
L 190.194869 16.380147 
L 190.313393 16.671498 
L 190.431917 16.671498 
L 190.550441 17.378456 
L 190.716375 18.328801 
L 190.953422 18.823516 
L 191.024537 18.84953 
L 191.143061 19.11618 
L 191.308994 19.104173 
L 191.380108 18.698321 
L 191.546042 17.350941 
L 191.78309 17.350941 
L 191.901614 17.66693 
L 192.091252 17.572815 
L 192.257186 17.090545 
L 192.37571 16.980234 
L 192.565348 16.845846 
L 192.802396 15.255017 
L 192.96833 14.845288 
L 193.157968 14.759803 
L 193.205378 14.759803 
L 193.395016 15.605151 
L 193.442425 15.682257 
L 193.679473 17.43824 
L 194.035045 26.802545 
L 194.343208 28.506313 
L 194.509141 29.377237 
L 194.627665 29.377237 
L 194.746189 28.511002 
L 195.220284 23.54666 
L 195.291399 23.54666 
L 195.457333 24.214597 
L 195.694381 24.176638 
L 195.812904 21.962336 
L 196.002542 16.994366 
L 196.168476 16.134135 
L 196.287 16.134135 
L 196.405524 16.250888 
L 196.595162 15.990242 
L 196.713686 16.17003 
L 196.761096 16.17003 
L 197.116668 17.142762 
L 197.235192 18.350063 
L 197.353716 18.350063 
L 197.590764 17.321174 
L 197.661878 17.321174 
L 197.780402 17.725651 
L 198.135974 17.633912 
L 198.301907 17.53642 
L 198.420431 17.307604 
L 198.657479 17.400907 
L 198.776003 17.67531 
L 198.894527 17.67531 
L 199.297509 16.231126 
L 199.416032 16.231126 
L 199.605671 16.08517 
L 199.771604 16.831838 
L 200.008652 25.261246 
L 200.079767 25.490061 
L 200.2457 26.70224 
L 200.364224 27.29701 
L 200.83832 27.2331 
L 200.909434 26.986774 
L 201.193891 24.35111 
L 201.38353 27.036864 
L 202.213198 27.525514 
L 203.090275 27.43784 
L 203.279913 27.231348 
L 203.327323 27.086392 
L 203.635485 24.95301 
L 203.919943 25.012544 
L 204.038466 25.245362 
L 204.346629 24.953697 
L 204.465152 18.036575 
L 204.583677 17.922386 
L 204.74961 17.287155 
L 204.939249 17.287155 
L 205.176296 18.62184 
L 205.413344 16.103931 
L 205.531868 16.049775 
L 205.768916 16.209552 
L 205.88744 16.73641 
L 206.053374 16.690947 
L 206.290422 15.929833 
L 206.645994 16.020258 
L 206.764517 16.457566 
L 206.883041 16.457566 
L 207.001565 15.666185 
L 207.357137 9.658384 
L 207.357137 9.658384 
" clip-path="url(#p3249d64e71)" style="fill: none; stroke: #5c80b5; stroke-width: 0.5; stroke-linecap: square"/>
   </g>
   <g id="patch_3">
    <path d="M 8.503937 30.614173 
L 208.346457 30.614173 
" style="fill: none; stroke: #000000; stroke-width: 0.4; stroke-linejoin: miter; stroke-linecap: square"/>
   </g>
   <g id="patch_4">
    <path d="M 8.503937 3.401575 
L 208.346457 3.401575 
" style="fill: none; stroke: #000000; stroke-width: 0.4; stroke-linejoin: miter; stroke-linecap: square"/>
   </g>
  </g>
 </g>
 <defs>
  <clipPath id="p3249d64e71">
   <rect x="8.503937" y="3.401575" width="199.84252" height="27.212598"/>
  </clipPath>
 </defs>
</svg>
