<?xml version="1.0" encoding="utf-8" standalone="no"?>
<!DOCTYPE svg PUBLIC "-//W3C//DTD SVG 1.1//EN"
  "http://www.w3.org/Graphics/SVG/1.1/DTD/svg11.dtd">
<svg xmlns:xlink="http://www.w3.org/1999/xlink" width="212.598425pt" height="42.519685pt" viewBox="0 0 212.598425 42.519685" xmlns="http://www.w3.org/2000/svg" version="1.1">
 <metadata>
  <rdf:RDF xmlns:dc="http://purl.org/dc/elements/1.1/" xmlns:cc="http://creativecommons.org/ns#" xmlns:rdf="http://www.w3.org/1999/02/22-rdf-syntax-ns#">
   <cc:Work>
    <dc:type rdf:resource="http://purl.org/dc/dcmitype/StillImage"/>
    <dc:date>2026-06-01T17:59:30.397893</dc:date>
    <dc:format>image/svg+xml</dc:format>
    <dc:creator>
     <cc:Agent>
      <dc:title>Matplotlib v3.10.8, https://matplotlib.org/</dc:title>
     </cc:Agent>
    </dc:creator>
   </cc:Work>
  </rdf:RDF>
 </metadata>
 <defs>
  <style type="text/css">*{stroke-linejoin: round; stroke-linecap: butt}</style>
 </defs>
 <g id="figure_1">
  <g id="patch_1">
   <path d="M 0 42.519685 
L 212.598425 42.519685 
L 212.598425 0 
L 0 0 
z
" style="fill: #ffffff"/>
  </g>
  <g id="axes_1">
   <g id="patch_2">
    <path d="M 8.503937 30.614173 
L 208.346457 30.614173 
L 208.346457 3.401575 
L 8.503937 3.401575 
z
" style="fill: #eaeaf2"/>
   </g>
   <g id="matplotlib.axis_1">
    <g id="xtick_1">
     <g id="line2d_1">
      <path d="M 9.493256 30.614173 
L 9.493256 3.401575 
" clip-path="url(#p4b207fa9f1)" style="fill: none; stroke: #ffffff; stroke-width: 0.9; stroke-linecap: square"/>
     </g>
     <g id="line2d_2">
      <defs>
       <path id="m7d13383851" d="M 0 0 
L 0 2 
" style="stroke: #000000; stroke-width: 0.4"/>
      </defs>
      <g>
       <use xlink:href="#m7d13383851" x="9.493256" y="30.614173" style="stroke: #000000; stroke-width: 0.4"/>
      </g>
     </g>
     <g id="text_1">
      <text style="font-size: 8px; font-family: 'DejaVu Sans', 'Bitstream Vera Sans', 'Computer Modern Sans Serif', 'Lucida Grande', 'Verdana', 'Geneva', 'Lucid', 'Arial', 'Helvetica', 'Avant Garde', sans-serif; text-anchor: middle" x="9.493256" y="42.192923" transform="rotate(-0 9.493256 42.192923)">0</text>
     </g>
    </g>
    <g id="xtick_2">
     <g id="line2d_3">
      <path d="M 52.119252 30.614173 
L 52.119252 3.401575 
" clip-path="url(#p4b207fa9f1)" style="fill: none; stroke: #ffffff; stroke-width: 0.9; stroke-linecap: square"/>
     </g>
     <g id="line2d_4">
      <g>
       <use xlink:href="#m7d13383851" x="52.119252" y="30.614173" style="stroke: #000000; stroke-width: 0.4"/>
      </g>
     </g>
     <g id="text_2">
      <text style="font-size: 8px; font-family: 'DejaVu Sans', 'Bitstream Vera Sans', 'Computer Modern Sans Serif', 'Lucida Grande', 'Verdana', 'Geneva', 'Lucid', 'Arial', 'Helvetica', 'Avant Garde', sans-serif; text-anchor: middle" x="52.119252" y="42.192923" transform="rotate(-0 52.119252 42.192923)">60</text>
     </g>
    </g>
    <g id="xtick_3">
     <g id="line2d_5">
      <path d="M 94.745248 30.614173 
L 94.745248 3.401575 
" clip-path="url(#p4b207fa9f1)" style="fill: none; stroke: #ffffff; stroke-width: 0.9; stroke-linecap: square"/>
     </g>
     <g id="line2d_6">
      <g>
       <use xlink:href="#m7d13383851" x="94.745248" y="30.614173" style="stroke: #000000; stroke-width: 0.4"/>
      </g>
     </g>
     <g id="text_3">
      <text style="font-size: 8px; font-family: 'DejaVu Sans', 'Bitstream Vera Sans', 'Computer Modern Sans Serif', 'Lucida Grande', 'Verdana', 'Geneva', 'Lucid', 'Arial', 'Helvetica', 'Avant Garde', sans-serif; text-anchor: middle" x="94.745248" y="42.192923" transform="rotate(-0 94.745248 42.192923)">120</text>
     </g>
    </g>
    <g id="xtick_4">
     <g id="line2d_7">
      <path d="M 137.371243 30.614173 
L 137.371243 3.401575 
" clip-path="url(#p4b207fa9f1)" style="fill: none; stroke: #ffffff; stroke-width: 0.9; stroke-linecap: square"/>
     </g>
     <g id="line2d_8">
      <g>
       <use xlink:href="#m7d13383851" x="137.371243" y="30.614173" style="stroke: #000000; stroke-width: 0.4"/>
      </g>
     </g>
     <g id="text_4">
      <text style="font-size: 8px; font-family: 'DejaVu Sans', 'Bitstream Vera Sans', 'Computer Modern Sans Serif', 'Lucida Grande', 'Verdana', 'Geneva', 'Lucid', 'Arial', 'Helvetica', 'Avant Garde', sans-serif; text-anchor: middle" x="137.371243" y="42.192923" transform="rotate(-0 137.371243 42.192923)">180</text>
     </g>
    </g>
    <g id="xtick_5">
     <g id="line2d_9">
      <path d="M 179.997239 30.614173 
L 179.997239 3.401575 
" clip-path="url(#p4b207fa9f1)" style="fill: none; stroke: #ffffff; stroke-width: 0.9; stroke-linecap: square"/>
     </g>
     <g id="line2d_10">
      <g>
       <use xlink:href="#m7d13383851" x="179.997239" y="30.614173" style="stroke: #000000; stroke-width: 0.4"/>
      </g>
     </g>
     <g id="text_5">
      <text style="font-size: 8px; font-family: 'DejaVu Sans', 'Bitstream Vera Sans', 'Computer Modern Sans Serif', 'Lucida Grande', 'Verdana', 'Geneva', 'Lucid', 'Arial', 'Helvetica', 'Avant Garde', sans-serif; text-anchor: middle" x="179.997239" y="42.192923" transform="rotate(-0 179.997239 42.192923)">240</text>
     </g>
    </g>
    <g id="xtick_6">
     <g id="line2d_11">
      <path d="M 30.806254 30.614173 
L 30.806254 3.401575 
" clip-path="url(#p4b207fa9f1)" style="fill: none; stroke: #ffffff; stroke-opacity: 0.9; stroke-width: 0.55; stroke-linecap: square"/>
     </g>
     <g id="line2d_12">
      <defs>
       <path id="m820ac93953" d="M 0 0 
L 0 2 
" style="stroke: #000000; stroke-width: 0.6"/>
      </defs>
      <g>
       <use xlink:href="#m820ac93953" x="30.806254" y="30.614173" style="stroke: #000000; stroke-width: 0.6"/>
      </g>
     </g>
    </g>
    <g id="xtick_7">
     <g id="line2d_13">
      <path d="M 73.43225 30.614173 
L 73.43225 3.401575 
" clip-path="url(#p4b207fa9f1)" style="fill: none; stroke: #ffffff; stroke-opacity: 0.9; stroke-width: 0.55; stroke-linecap: square"/>
     </g>
     <g id="line2d_14">
      <g>
       <use xlink:href="#m820ac93953" x="73.43225" y="30.614173" style="stroke: #000000; stroke-width: 0.6"/>
      </g>
     </g>
    </g>
    <g id="xtick_8">
     <g id="line2d_15">
      <path d="M 116.058246 30.614173 
L 116.058246 3.401575 
" clip-path="url(#p4b207fa9f1)" style="fill: none; stroke: #ffffff; stroke-opacity: 0.9; stroke-width: 0.55; stroke-linecap: square"/>
     </g>
     <g id="line2d_16">
      <g>
       <use xlink:href="#m820ac93953" x="116.058246" y="30.614173" style="stroke: #000000; stroke-width: 0.6"/>
      </g>
     </g>
    </g>
    <g id="xtick_9">
     <g id="line2d_17">
      <path d="M 158.684241 30.614173 
L 158.684241 3.401575 
" clip-path="url(#p4b207fa9f1)" style="fill: none; stroke: #ffffff; stroke-opacity: 0.9; stroke-width: 0.55; stroke-linecap: square"/>
     </g>
     <g id="line2d_18">
      <g>
       <use xlink:href="#m820ac93953" x="158.684241" y="30.614173" style="stroke: #000000; stroke-width: 0.6"/>
      </g>
     </g>
    </g>
    <g id="xtick_10">
     <g id="line2d_19">
      <path d="M 201.310237 30.614173 
L 201.310237 3.401575 
" clip-path="url(#p4b207fa9f1)" style="fill: none; stroke: #ffffff; stroke-opacity: 0.9; stroke-width: 0.55; stroke-linecap: square"/>
     </g>
     <g id="line2d_20">
      <g>
       <use xlink:href="#m820ac93953" x="201.310237" y="30.614173" style="stroke: #000000; stroke-width: 0.6"/>
      </g>
     </g>
    </g>
    <g id="text_6">
     <text style="font-size: 8px; font-family: 'DejaVu Sans', 'Bitstream Vera Sans', 'Computer Modern Sans Serif', 'Lucida Grande', 'Verdana', 'Geneva', 'Lucid', 'Arial', 'Helvetica', 'Avant Garde', sans-serif; text-anchor: middle" x="108.425197" y="53.935423" transform="rotate(-0 108.425197 53.935423)">time</text>
    </g>
   </g>
   <g id="matplotlib.axis_2">
    <g id="ytick_1">
     <g id="line2d_21">
      <path d="M 8.503937 29.344813 
L 208.346457 29.344813 
" clip-path="url(#p4b207fa9f1)" style="fill: none; stroke: #ffffff; stroke-width: 0.9; stroke-linecap: square"/>
     </g>
    </g>
    <g id="ytick_2">
     <g id="line2d_22">
      <path d="M 8.503937 21.663945 
L 208.346457 21.663945 
" clip-path="url(#p4b207fa9f1)" style="fill: none; stroke: #ffffff; stroke-width: 0.9; stroke-linecap: square"/>
     </g>
    </g>
    <g id="ytick_3">
     <g id="line2d_23">
      <path d="M 8.503937 13.983078 
L 208.346457 13.983078 
" clip-path="url(#p4b207fa9f1)" style="fill: none; stroke: #ffffff; stroke-width: 0.9; stroke-linecap: square"/>
     </g>
    </g>
    <g id="ytick_4">
     <g id="line2d_24">
      <path d="M 8.503937 6.30221 
L 208.346457 6.30221 
" clip-path="url(#p4b207fa9f1)" style="fill: none; stroke: #ffffff; stroke-width: 0.9; stroke-linecap: square"/>
     </g>
    </g>
    <g id="ytick_5">
     <g id="line2d_25">
      <path d="M 8.503937 25.504379 
L 208.346457 25.504379 
" clip-path="url(#p4b207fa9f1)" style="fill: none; stroke: #ffffff; stroke-opacity: 0.9; stroke-width: 0.55; stroke-linecap: square"/>
     </g>
     <g id="line2d_26">
      <defs>
       <path id="mf3e4e33423" d="M 0 0 
L -2 0 
" style="stroke: #000000; stroke-width: 0.6"/>
      </defs>
      <g>
       <use xlink:href="#mf3e4e33423" x="8.503937" y="25.504379" style="stroke: #000000; stroke-width: 0.6"/>
      </g>
     </g>
    </g>
    <g id="ytick_6">
     <g id="line2d_27">
      <path d="M 8.503937 17.823511 
L 208.346457 17.823511 
" clip-path="url(#p4b207fa9f1)" style="fill: none; stroke: #ffffff; stroke-opacity: 0.9; stroke-width: 0.55; stroke-linecap: square"/>
     </g>
     <g id="line2d_28">
      <g>
       <use xlink:href="#mf3e4e33423" x="8.503937" y="17.823511" style="stroke: #000000; stroke-width: 0.6"/>
      </g>
     </g>
    </g>
    <g id="ytick_7">
     <g id="line2d_29">
      <path d="M 8.503937 10.142644 
L 208.346457 10.142644 
" clip-path="url(#p4b207fa9f1)" style="fill: none; stroke: #ffffff; stroke-opacity: 0.9; stroke-width: 0.55; stroke-linecap: square"/>
     </g>
     <g id="line2d_30">
      <g>
       <use xlink:href="#mf3e4e33423" x="8.503937" y="10.142644" style="stroke: #000000; stroke-width: 0.6"/>
      </g>
     </g>
    </g>
   </g>
   <g id="line2d_31">
    <path d="M 9.493256 10.321277 
L 9.564371 10.119678 
L 9.682894 10.522877 
L 9.730305 10.435401 
L 9.848828 10.120779 
L 10.156991 10.013086 
L 10.322924 9.619287 
L 10.441448 9.290151 
L 10.631086 9.39513 
L 10.79702 9.51124 
L 10.986658 9.975838 
L 11.34223 10.029055 
L 11.982259 9.937882 
L 12.171897 10.311621 
L 12.290422 10.415498 
L 12.408946 10.483859 
L 12.764517 14.259325 
L 12.930451 14.259325 
L 13.120089 10.883322 
L 13.404547 9.95035 
L 13.594185 10.057139 
L 13.760119 10.193348 
L 14.186805 10.566182 
L 14.234214 10.566182 
L 14.6609 9.713214 
L 14.826834 9.713214 
L 15.063882 9.913928 
L 15.419454 9.895835 
L 16.083188 9.985278 
L 16.43876 10.11657 
L 16.604693 10.217458 
L 16.794331 10.321612 
L 17.03138 10.118025 
L 17.315837 10.053716 
L 17.789933 10.140406 
L 17.979571 10.476386 
L 18.335143 10.548483 
L 18.501076 10.634857 
L 18.690715 10.550921 
L 18.856648 10.594265 
L 19.046287 10.667818 
L 19.330744 10.100523 
L 19.449268 10.168883 
L 19.567792 12.794497 
L 19.638906 12.856486 
L 19.80484 13.685776 
L 19.994478 14.30853 
L 20.113002 18.24349 
L 20.278936 18.24349 
L 20.39746 17.302062 
L 21.061194 17.254234 
L 21.464176 17.339232 
L 21.511585 17.323145 
L 21.630109 16.104421 
L 21.748633 15.039489 
L 21.819747 15.039489 
L 21.867157 14.845185 
L 21.98568 13.996779 
L 22.175319 10.922969 
L 22.341252 10.152521 
L 22.649415 10.230438 
L 22.767938 10.419707 
L 22.886463 10.419707 
L 23.17092 9.894616 
L 23.360558 9.942956 
L 23.526492 10.074642 
L 24.119111 10.361338 
L 25.422875 10.371013 
L 25.612513 10.201214 
L 25.659923 10.201214 
L 26.08661 15.059116 
L 26.323657 17.186228 
L 26.608114 17.8091 
L 26.679229 17.849927 
L 26.797753 18.008045 
L 26.845163 18.009146 
L 27.034801 18.406524 
L 27.082211 18.304888 
L 27.271849 18.235938 
L 27.390372 16.616258 
L 27.556306 11.390831 
L 27.911878 10.782472 
L 28.26745 10.770476 
L 28.385974 10.477172 
L 28.741546 10.534598 
L 28.86007 8.97962 
L 30.282357 8.965736 
L 30.400881 12.988958 
L 30.756453 13.179525 
L 30.993501 13.179525 
L 31.112025 20.172208 
L 31.230548 22.948191 
L 31.349073 22.948191 
L 31.538711 14.148446 
L 31.704645 14.148446 
L 32.012807 17.235236 
L 32.368378 17.297146 
L 32.534312 18.17336 
L 32.652836 18.273186 
L 32.842475 19.022788 
L 32.960998 18.776527 
L 33.008408 18.776527 
L 33.245456 17.677926 
L 33.36398 17.677926 
L 33.529913 18.036522 
L 33.766961 18.036522 
L 34.241057 18.093554 
L 34.478105 18.093554 
L 34.715153 18.330376 
L 34.952201 18.143664 
L 35.189249 18.03896 
L 35.307773 17.912781 
L 35.426296 17.78613 
L 35.544821 17.27803 
L 35.900393 17.2798 
L 36.090031 16.471749 
L 36.208554 16.31375 
L 36.445602 16.31375 
L 36.801174 10.452943 
L 36.967108 11.409514 
L 37.085632 11.409514 
L 37.204155 12.222089 
L 37.512318 12.222089 
L 38.033824 16.055767 
L 38.223462 16.107804 
L 38.270871 16.055767 
L 38.507919 14.557191 
L 38.697557 14.557191 
L 38.863491 14.77891 
L 39.053129 14.77891 
L 39.219063 14.632867 
L 39.693158 14.64746 
L 39.882797 14.822726 
L 40.001321 14.778438 
L 40.167255 14.567733 
L 40.356893 14.567733 
L 40.404302 14.661817 
L 40.522827 15.070365 
L 40.64135 15.070365 
L 40.949513 14.250279 
L 41.068036 13.951901 
L 41.352494 12.359281 
L 41.542132 12.359281 
L 41.589542 11.769723 
L 41.660656 12.03219 
L 41.77918 12.03219 
L 41.945114 11.769723 
L 42.182161 12.215834 
L 42.3718 12.794576 
L 42.419209 12.794576 
L 42.490324 12.644364 
L 42.537733 12.794576 
L 42.656258 12.714888 
L 42.727372 12.568806 
L 42.774781 12.714888 
L 42.845896 12.736678 
L 43.485925 16.04672 
L 43.557039 16.04672 
L 43.604449 15.909292 
L 43.841497 14.582758 
L 44.031135 14.452449 
L 44.197069 14.120441 
L 44.505231 13.845938 
L 44.908212 10.405469 
L 45.026736 10.405469 
L 45.145261 9.881164 
L 45.500832 9.951412 
L 45.73788 10.171557 
L 45.856404 10.941574 
L 45.903814 10.941574 
L 46.093452 11.74046 
L 46.567548 11.823766 
L 46.733481 12.013074 
L 46.92312 12.013074 
L 47.041643 9.524417 
L 47.089053 9.524417 
L 47.326101 8.876686 
L 47.397215 8.876686 
L 47.515739 10.15433 
L 47.681673 10.15433 
L 47.752787 9.883603 
L 47.918721 9.016868 
L 48.037245 9.21416 
L 48.155768 9.267495 
L 48.392817 9.434384 
L 48.866912 11.964577 
L 48.938026 11.964577 
L 49.10396 11.079159 
L 49.222484 10.90523 
L 49.459532 10.32877 
L 49.530646 10.32877 
L 49.578056 10.161921 
L 49.767695 7.357146 
L 49.933628 7.357146 
L 50.24179 10.334985 
L 50.407724 10.38474 
L 50.597362 10.985666 
L 50.83441 10.995105 
L 50.881819 10.985666 
L 51.000343 10.705695 
L 51.308506 10.645201 
L 51.545554 10.294078 
L 51.664078 10.072793 
L 51.711487 10.072793 
L 51.948535 10.474144 
L 52.256697 10.502621 
L 52.422631 10.676432 
L 52.659679 10.676432 
L 52.849317 11.000533 
L 53.489346 10.96065 
L 53.797509 10.750849 
L 54.627176 10.677455 
L 54.79311 9.787238 
L 54.911633 9.787238 
L 55.219796 10.39713 
L 55.38573 10.237833 
L 55.456844 10.169827 
L 55.693892 9.320123 
L 55.859825 9.320123 
L 56.096873 10.216239 
L 56.286512 11.84768 
L 56.642083 13.806999 
L 56.760607 14.739341 
L 56.808017 14.739341 
L 56.926541 14.327489 
L 57.045065 12.598463 
L 57.092475 12.598463 
L 57.329522 9.927891 
L 58.230305 10.001168 
L 58.514762 12.05343 
L 58.585876 12.122695 
L 58.751809 12.527743 
L 59.107381 12.548864 
L 59.29702 12.391141 
L 59.652592 12.38941 
L 59.771116 12.10999 
L 60.292621 12.044541 
L 60.529669 11.867308 
L 61.074879 9.80769 
L 61.122289 9.80769 
L 61.240812 14.985603 
L 61.904547 14.925149 
L 62.07048 20.072381 
L 62.189004 24.396184 
L 62.378642 24.396184 
L 62.6631 15.999324 
L 64.440959 15.999324 
L 64.559483 19.121239 
L 64.796531 26.087882 
L 64.98617 26.99458 
L 65.152103 26.99458 
L 65.270627 26.343467 
L 65.389151 26.343467 
L 65.697313 27.623549 
L 65.981771 27.579732 
L 66.100295 23.48166 
L 66.811438 23.579402 
L 67.048486 23.598124 
L 67.119601 23.368972 
L 67.593696 11.033769 
L 67.996677 10.360511 
L 68.067792 10.360511 
L 68.186316 13.588663 
L 68.30484 13.588663 
L 68.470774 10.569172 
L 68.755231 9.900673 
L 69.181917 9.8932 
L 69.893061 10.920452 
L 70.296042 10.600126 
L 70.770138 10.557254 
L 71.007186 10.357916 
L 71.196824 10.454635 
L 71.67092 10.615112 
L 71.907968 10.503683 
L 72.073902 10.399215 
L 72.382064 10.71958 
L 72.429473 10.71958 
L 72.619111 10.528187 
L 74.088809 10.420966 
L 74.396971 10.367749 
L 74.562904 10.495738 
L 75.463686 10.51619 
L 75.62962 10.435204 
L 75.819258 10.425883 
L 75.937783 10.892329 
L 75.985192 10.892329 
L 76.103716 10.386471 
L 77.051907 10.471115 
L 77.407479 10.52386 
L 77.763051 10.60347 
L 77.952689 9.993065 
L 78.237147 9.901263 
L 78.711243 9.924902 
L 78.900881 10.326292 
L 79.303862 10.326292 
L 79.54091 9.699841 
L 79.612025 9.699841 
L 79.730548 9.461642 
L 80.015006 9.530789 
L 80.08612 9.594901 
L 80.13353 11.441335 
L 80.323168 20.023059 
L 80.441692 20.023059 
L 80.489102 19.752331 
L 81.081721 11.58309 
L 81.247655 11.522714 
L 81.366179 11.58309 
L 81.721751 11.812793 
L 81.91139 11.821839 
L 82.195847 11.906483 
L 82.622533 12.132056 
L 82.669943 12.132056 
L 82.788466 12.339811 
L 83.333677 12.274558 
L 83.452201 12.140473 
L 83.49961 12.170523 
L 83.689249 12.242777 
L 83.855182 12.485617 
L 84.09223 12.45187 
L 84.518916 11.93909 
L 85.870089 12.290016 
L 86.296775 12.096499 
L 86.770871 11.384735 
L 86.889395 11.930082 
L 87.007919 11.930082 
L 87.126443 11.745573 
L 87.363491 11.834268 
L 87.647948 12.305513 
L 87.884997 12.199748 
L 88.311683 12.234006 
L 88.477616 12.290645 
L 88.667255 12.359006 
L 88.833188 12.438654 
L 88.951712 12.438654 
L 89.14135 12.259809 
L 89.307284 12.3004 
L 89.615446 12.484949 
L 89.971018 12.595474 
L 90.136951 12.66938 
L 90.611047 12.690423 
L 90.848095 12.248284 
L 91.156258 12.156167 
L 91.322191 12.307598 
L 91.393305 12.308148 
L 91.440715 12.475116 
L 91.559239 12.308148 
L 91.748877 12.555512 
L 91.914811 12.518342 
L 92.104449 12.213829 
L 92.388906 12.202934 
L 92.55484 12.597007 
L 93.265984 12.531007 
L 93.455622 12.461192 
L 93.740079 12.553624 
L 93.858604 12.312475 
L 93.929718 12.312475 
L 94.048242 12.593153 
L 94.451223 12.509925 
L 94.925319 12.426343 
L 95.399415 12.370727 
L 95.754987 12.317982 
L 95.944625 12.042653 
L 96.063149 12.042653 
L 96.110558 12.373244 
L 96.347607 23.80879 
L 96.537245 23.80879 
L 96.774293 13.703554 
L 96.892816 13.014209 
L 97.01134 9.689378 
L 97.129865 9.689378 
L 97.295798 10.781293 
L 97.485436 10.751164 
L 97.769894 9.784524 
L 97.959532 9.849934 
L 98.125466 9.92207 
L 98.24399 9.833218 
L 98.433628 9.648905 
L 98.670676 9.61732 
L 98.836609 9.528075 
L 99.073657 9.474228 
L 99.192181 9.479931 
L 99.263296 9.607763 
L 99.429229 10.370463 
L 99.618868 10.615938 
L 99.737391 10.615938 
L 99.903325 10.276458 
L 99.974439 10.276458 
L 100.140372 9.767178 
L 100.495944 9.243464 
L 100.614469 9.271862 
L 100.804107 9.893711 
L 100.922631 9.893711 
L 101.088564 11.202781 
L 101.51525 11.202506 
L 101.681184 10.826918 
L 101.752299 10.826918 
L 101.918232 10.252229 
L 102.036756 10.252229 
L 102.226394 11.586354 
L 102.581966 11.904516 
L 102.7479 11.532272 
L 103.103472 11.138119 
L 103.648682 11.868488 
L 103.933139 11.751866 
L 104.051663 12.263466 
L 104.170187 12.263466 
L 104.407235 11.463125 
L 104.573168 11.513707 
L 104.881331 12.442391 
L 105.047264 12.338395 
L 105.402836 11.463715 
L 105.710998 9.709202 
L 105.758408 9.709202 
L 105.948046 10.936853 
L 106.185094 12.199905 
L 106.232504 12.261342 
L 106.469551 14.246306 
L 106.65919 14.993076 
L 106.706599 15.37421 
L 106.825123 19.890271 
L 106.943648 24.993373 
L 107.536267 24.949792 
L 107.607381 24.568776 
L 107.725906 16.167432 
L 107.891839 16.167432 
L 108.010363 16.013051 
L 108.081478 15.341053 
L 108.247411 12.616989 
L 108.365935 12.616989 
L 108.721507 17.101072 
L 109.077079 17.211479 
L 109.148193 17.357403 
L 109.38524 21.515026 
L 109.551174 24.447277 
L 109.859337 25.858141 
L 109.906746 25.858141 
L 110.143794 25.234403 
L 110.214909 25.166437 
L 110.262318 25.234403 
L 110.380842 25.589185 
L 110.57048 26.047332 
L 110.689004 26.047332 
L 110.736414 25.577189 
L 110.973462 19.666508 
L 111.21051 19.727355 
L 111.329033 19.94219 
L 111.566082 19.94219 
L 111.637196 20.167252 
L 111.921653 24.223867 
L 111.992768 24.223867 
L 112.158701 23.2435 
L 112.277225 23.2435 
L 112.395749 25.906324 
L 112.514273 25.906324 
L 112.585387 25.430713 
L 112.822435 15.667553 
L 112.869845 15.667553 
L 113.106893 25.098902 
L 113.225416 25.098902 
L 113.462465 15.423651 
L 113.652103 15.423651 
L 113.699513 16.580858 
L 113.889151 22.52033 
L 114.007674 22.827872 
L 114.52918 22.876055 
L 115.003276 23.514857 
L 115.07439 23.464393 
L 115.240324 22.924749 
L 115.785534 10.095056 
L 115.951468 10.095056 
L 116.069991 13.533047 
L 116.235925 20.883933 
L 116.425563 20.824619 
L 116.544087 20.203123 
L 116.710021 20.234118 
L 116.899659 20.434164 
L 117.065592 20.411547 
L 117.492279 12.270507 
L 117.610803 12.270507 
L 117.776736 15.243625 
L 117.966375 15.269467 
L 118.013784 15.073669 
L 118.203422 11.716349 
L 118.369356 11.295017 
L 118.48788 11.267798 
L 118.724928 10.835454 
L 119.151614 11.963791 
L 119.317548 11.795565 
L 119.910167 11.770982 
L 120.028692 12.18366 
L 120.147215 12.18366 
L 120.336853 11.832144 
L 120.81095 11.85417 
L 120.976883 10.951957 
L 121.047997 10.951957 
L 121.285045 9.885176 
L 121.450979 9.885176 
L 121.640617 10.046755 
L 121.688026 10.046755 
L 121.806551 10.666913 
L 121.925075 10.451331 
L 122.39917 10.483387 
L 122.707333 11.732986 
L 122.873266 14.886288 
L 122.944381 14.905522 
L 123.062904 15.541138 
L 123.181428 15.541138 
L 123.347362 14.332995 
L 123.537 14.403558 
L 123.821457 15.207164 
L 124.011096 15.207164 
L 124.248144 14.914883 
L 124.366668 14.983243 
L 124.532601 15.210075 
L 124.959287 15.118587 
L 125.006697 15.097898 
L 125.196336 14.858559 
L 125.314859 14.755349 
L 125.433384 14.734228 
L 125.551907 14.858559 
L 125.717841 14.808134 
L 125.788956 14.939584 
L 125.836365 14.898678 
L 126.191937 14.536935 
L 126.381575 14.574301 
L 126.547509 15.108754 
L 126.737147 15.054239 
L 127.140129 14.610605 
L 127.258652 14.679162 
L 127.44829 14.803768 
L 127.4957 14.803768 
L 127.732748 14.254408 
L 127.969796 14.254408 
L 128.206844 13.134607 
L 128.325368 12.326163 
L 128.491302 12.386302 
L 128.562416 12.516887 
L 128.609825 12.459225 
L 129.036511 12.35759 
L 129.320969 16.0267 
L 129.558017 14.98163 
L 129.913589 13.688883 
L 130.103227 8.889233 
L 139.395504 10.477762 
L 139.751076 10.125459 
L 139.988124 10.344818 
L 140.154058 10.456247 
L 140.343696 10.468008 
L 141.05484 7.928729 
L 141.220774 5.248797 
L 141.339297 5.248797 
L 141.457821 6.058421 
L 141.694869 6.085639 
L 141.931917 6.874968 
L 142.406013 10.48673 
L 142.477127 10.547656 
L 142.595651 10.847529 
L 142.761585 10.358545 
L 142.832699 10.342694 
L 143.117157 9.162084 
L 143.306795 7.975299 
L 143.472728 7.453354 
L 143.591252 7.417601 
L 143.8283 7.687226 
L 144.065348 8.536616 
L 144.136463 8.643247 
L 144.254987 8.384005 
L 144.42092 8.643247 
L 144.610558 8.465109 
L 144.657968 8.465109 
L 145.250588 7.111749 
L 145.440226 7.111749 
L 145.55875 8.929864 
L 145.677274 8.929864 
L 145.843208 7.533868 
L 145.914322 7.533868 
L 146.080255 8.001416 
L 146.19878 8.001416 
L 146.435827 6.412573 
L 146.672875 6.444667 
L 146.862513 6.729358 
L 146.909923 7.330912 
L 147.146971 17.793564 
L 147.265495 17.793564 
L 147.621067 7.144396 
L 147.929229 6.178111 
L 147.976639 6.178111 
L 148.095162 6.818564 
L 148.332211 6.781749 
L 148.450734 6.163204 
L 148.687782 6.178032 
L 148.92483 6.685344 
L 149.398926 6.811366 
L 149.635974 6.996073 
L 149.944136 8.449573 
L 150.06266 8.449573 
L 150.181184 7.737927 
L 150.299708 7.737927 
L 150.465642 12.076361 
L 150.773804 16.902953 
L 150.939737 16.902953 
L 151.058261 16.305569 
L 151.2479 15.854502 
L 151.295309 15.753062 
L 151.413833 11.414431 
L 151.532357 11.414431 
L 151.603472 12.174181 
L 151.769405 14.79539 
L 151.816815 14.79539 
L 151.935338 14.217986 
L 152.243501 7.189904 
L 152.527958 7.189904 
L 152.646482 6.997646 
L 152.83612 7.049369 
L 153.002054 8.269626 
L 153.120578 8.269626 
L 153.42874 4.638511 
L 153.665788 6.153134 
L 153.713198 6.154983 
L 153.784312 6.432868 
L 153.950246 7.520298 
L 154.06877 7.585709 
L 154.187293 8.476713 
L 154.305818 8.476713 
L 154.424341 8.072961 
L 154.613979 7.99882 
L 154.732504 7.059398 
L 154.779913 7.059398 
L 154.851028 6.643887 
L 155.016961 7.151516 
L 155.325123 7.929477 
L 155.443648 7.929477 
L 155.491057 7.817142 
L 155.609581 6.907731 
L 155.799219 6.971451 
L 155.965152 7.92161 
L 156.154791 8.392855 
L 156.202201 8.405205 
L 156.320724 8.754244 
L 156.439249 8.754244 
L 156.676296 6.442504 
L 156.747411 6.405807 
L 156.865935 6.223972 
L 156.913344 6.223972 
L 156.984459 6.405807 
L 157.150392 7.589052 
L 158.098584 7.610371 
L 158.288222 8.24347 
L 158.406746 8.24347 
L 158.57268 7.839955 
L 159.11789 4.91553 
L 159.354938 4.934214 
L 159.402347 5.287854 
L 159.639395 10.209907 
L 159.71051 10.359961 
L 159.876443 11.110586 
L 159.947557 11.274092 
L 160.113491 11.950811 
L 160.350539 13.824069 
L 160.824635 13.824069 
L 161.014273 10.695469 
L 161.535778 10.770122 
L 161.654302 10.529839 
L 162.009874 10.529839 
L 162.128398 13.393416 
L 162.199513 13.393416 
L 162.43656 14.221133 
L 162.721018 11.844691 
L 162.839542 13.776752 
L 162.958066 13.776752 
L 163.313638 14.681915 
L 163.669209 15.920423 
L 163.787733 15.920423 
L 163.953667 14.672908 
L 164.309239 14.456146 
L 164.380353 14.394079 
L 164.546287 13.05661 
L 164.854449 12.779944 
L 165.020382 13.041781 
L 165.138906 13.045479 
L 165.257431 13.284032 
L 165.494478 15.839752 
L 165.613002 15.96365 
L 165.80264 17.197201 
L 165.85005 17.197201 
L 166.205622 16.586601 
L 166.276736 16.60198 
L 166.44267 16.727884 
L 166.869356 16.887653 
L 167.153814 16.383408 
L 167.390862 15.799003 
L 167.509385 15.799003 
L 167.627909 16.164089 
L 167.746433 16.164089 
L 167.936072 15.395253 
L 168.291643 15.499367 
L 168.457577 15.816349 
L 168.813149 15.855839 
L 169.002787 16.013366 
L 169.050196 16.036219 
L 169.239835 16.375148 
L 169.476883 16.281379 
L 169.642816 16.006916 
L 169.879865 16.054901 
L 169.998388 16.357094 
L 170.069503 16.686466 
L 170.425075 23.981184 
L 170.591008 27.566202 
L 170.780646 27.732185 
L 170.828056 27.732185 
L 171.065104 25.86117 
L 171.183628 25.86117 
L 171.49179 27.285052 
L 171.610314 27.285052 
L 171.657724 26.863011 
L 171.965886 15.493585 
L 172.013296 15.162443 
L 172.131819 15.849742 
L 172.321457 14.753068 
L 172.487391 14.753068 
L 172.677029 14.378503 
L 172.842963 14.574655 
L 172.961487 14.661856 
L 173.198535 14.72231 
L 173.317059 14.687068 
L 173.506697 14.294056 
L 173.67263 14.013024 
L 174.454889 13.904151 
L 174.620822 14.558175 
L 174.691937 14.558175 
L 174.81046 14.78953 
L 174.928985 14.685967 
L 175.616423 14.989379 
L 175.734947 14.997521 
L 175.853472 15.293303 
L 176.398682 15.212435 
L 176.801663 15.045467 
L 176.991302 15.158549 
L 177.157235 15.054907 
L 177.394283 15.03764 
L 177.702445 15.381054 
L 177.820969 15.327247 
L 178.058017 15.141321 
L 178.887684 15.026391 
L 179.053618 14.846011 
L 179.36178 14.857064 
L 179.764762 15.164331 
L 180.120334 14.48301 
L 180.357381 14.48301 
L 180.475906 14.700166 
L 180.784067 14.759479 
L 181.021116 15.257589 
L 181.305573 15.35714 
L 181.424097 15.450437 
L 181.542621 15.279576 
L 181.732259 15.395961 
L 181.898193 15.395961 
L 181.969307 15.424595 
L 182.253765 15.952715 
L 182.324879 16.004909 
L 182.561927 16.607998 
L 182.609337 16.607998 
L 182.846384 14.973449 
L 183.036023 14.986626 
L 183.083432 15.20091 
L 183.201956 18.701362 
L 183.439004 25.930395 
L 183.557528 25.930395 
L 183.628642 25.730349 
L 183.676052 25.228504 
L 183.984214 16.235478 
L 184.031624 16.232764 
L 184.268672 15.716247 
L 184.576834 15.258454 
L 184.624243 15.258454 
L 184.742768 15.548651 
L 184.861292 15.548651 
L 185.05093 15.177153 
L 185.09834 15.177153 
L 185.216863 14.868824 
L 185.406501 15.279143 
L 185.64355 16.078619 
L 185.928007 16.154885 
L 186.23617 18.961312 
L 186.473217 24.496168 
L 186.639151 25.189524 
L 186.757674 25.287384 
L 186.828789 25.189524 
L 187.065837 19.627804 
L 187.231771 15.95948 
L 187.397704 15.473958 
L 187.516228 15.95948 
L 187.634752 15.473643 
L 187.753276 15.412953 
L 187.942914 14.470502 
L 188.179962 14.237889 
L 188.298486 14.237889 
L 188.464419 14.852501 
L 188.654058 14.852501 
L 188.819991 14.437424 
L 189.246677 14.539846 
L 189.365202 14.674914 
L 189.412611 14.60325 
L 190.005231 14.591686 
L 190.123755 14.740639 
L 190.313393 16.989013 
L 190.479327 19.263938 
L 190.716375 20.242692 
L 190.787489 20.242692 
L 190.906013 19.431219 
L 191.071947 17.980276 
L 191.143061 17.980276 
L 191.308994 17.736649 
L 191.380108 17.736649 
L 191.546042 15.808089 
L 191.73568 15.125588 
L 191.901614 15.08067 
L 192.091252 14.98226 
L 192.257186 15.027414 
L 192.37571 15.367445 
L 192.494234 15.367445 
L 192.683872 14.217436 
L 192.849806 13.613207 
L 192.92092 13.613207 
L 193.205378 14.013378 
L 193.276492 14.013378 
L 193.51354 14.680617 
L 193.632064 17.388044 
L 193.869111 28.259677 
L 194.035045 28.665118 
L 194.272093 28.906581 
L 194.69878 29.377237 
L 194.746189 29.282011 
L 194.817303 29.202481 
L 195.054351 27.654622 
L 195.172875 26.881734 
L 195.291399 26.881734 
L 195.457333 27.419058 
L 195.694381 27.396639 
L 195.765495 27.145853 
L 195.812904 26.169577 
L 196.121067 14.956025 
L 196.287 14.809865 
L 196.358114 14.809865 
L 196.405524 14.641324 
L 196.642572 15.016912 
L 196.713686 14.990677 
L 196.761096 14.829728 
L 196.998144 15.156425 
L 197.069258 15.156425 
L 197.235192 16.042905 
L 197.353716 16.286374 
L 197.47224 16.286374 
L 197.827812 15.458775 
L 198.01745 15.55223 
L 198.135974 15.55223 
L 198.254498 15.55223 
L 198.420431 15.378183 
L 198.538955 15.30526 
L 198.61007 15.378183 
L 198.728594 15.735087 
L 198.776003 15.735087 
L 198.965642 15.268405 
L 199.084165 14.763727 
L 199.250099 14.769273 
L 199.416032 15.746573 
L 199.534557 15.793261 
L 199.724195 16.985945 
L 200.008652 27.543075 
L 200.127176 27.779661 
L 200.435338 28.563168 
L 200.83832 28.528043 
L 200.956844 28.246028 
L 201.075368 27.404663 
L 201.193891 27.404663 
L 201.38353 28.348175 
L 201.549463 28.39447 
L 201.905035 28.679985 
L 201.97615 28.679985 
L 202.094674 28.816273 
L 202.497655 28.705276 
L 203.279913 28.523245 
L 203.398437 28.035009 
L 203.564371 27.323323 
L 203.635485 27.312664 
L 203.801419 26.359987 
L 203.991057 26.467404 
L 204.156991 27.559082 
L 204.346629 27.559082 
L 204.465152 24.929143 
L 204.74961 24.22965 
L 204.939249 24.23905 
L 205.105182 25.662972 
L 205.223706 25.730546 
L 205.294821 25.662972 
L 205.460754 24.86149 
L 206.361536 24.412704 
L 206.717108 24.689173 
L 206.883041 24.689173 
L 207.07268 21.252126 
L 207.357137 12.47661 
L 207.357137 12.47661 
" clip-path="url(#p4b207fa9f1)" style="fill: none; stroke: #5c80b5; stroke-width: 0.5; stroke-linecap: square"/>
   </g>
   <g id="patch_3">
    <path d="M 8.503937 30.614173 
L 208.346457 30.614173 
" style="fill: none; stroke: #000000; stroke-width: 0.4; stroke-linejoin: miter; stroke-linecap: square"/>
   </g>
   <g id="patch_4">
    <path d="M 8.503937 3.401575 
L 208.346457 3.401575 
" style="fill: none; stroke: #000000; stroke-width: 0.4; stroke-linejoin: miter; stroke-linecap: square"/>
   </g>
  </g>
 </g>
 <defs>
  <clipPath id="p4b207fa9f1">
   <rect x="8.503937" y="3.401575" width="199.84252" height="27.212598"/>
  </clipPath>
 </defs>
</svg>
