<?xml version="1.0" encoding="utf-8" standalone="no"?>
<!DOCTYPE svg PUBLIC "-//W3C//DTD SVG 1.1//EN"
  "http://www.w3.org/Graphics/SVG/1.1/DTD/svg11.dtd">
<svg xmlns:xlink="http://www.w3.org/1999/xlink" width="212.598425pt" height="42.519685pt" viewBox="0 0 212.598425 42.519685" xmlns="http://www.w3.org/2000/svg" version="1.1">
 <metadata>
  <rdf:RDF xmlns:dc="http://purl.org/dc/elements/1.1/" xmlns:cc="http://creativecommons.org/ns#" xmlns:rdf="http://www.w3.org/1999/02/22-rdf-syntax-ns#">
   <cc:Work>
    <dc:type rdf:resource="http://purl.org/dc/dcmitype/StillImage"/>
    <dc:date>2026-06-01T17:59:24.177094</dc:date>
    <dc:format>image/svg+xml</dc:format>
    <dc:creator>
     <cc:Agent>
      <dc:title>Matplotlib v3.10.8, https://matplotlib.org/</dc:title>
     </cc:Agent>
    </dc:creator>
   </cc:Work>
  </rdf:RDF>
 </metadata>
 <defs>
  <style type="text/css">*{stroke-linejoin: round; stroke-linecap: butt}</style>
 </defs>
 <g id="figure_1">
  <g id="patch_1">
   <path d="M 0 42.519685 
L 212.598425 42.519685 
L 212.598425 0 
L 0 0 
z
" style="fill: #ffffff"/>
  </g>
  <g id="axes_1">
   <g id="patch_2">
    <path d="M 59.527559 30.614173 
L 208.346457 30.614173 
L 208.346457 3.401575 
L 59.527559 3.401575 
z
" style="fill: #eaeaf2"/>
   </g>
   <g id="matplotlib.axis_1">
    <g id="xtick_1">
     <g id="line2d_1">
      <path d="M 60.264286 30.614173 
L 60.264286 3.401575 
" clip-path="url(#p89bdf3b41c)" style="fill: none; stroke: #ffffff; stroke-width: 0.9; stroke-linecap: square"/>
     </g>
     <g id="line2d_2">
      <defs>
       <path id="mc1ab10938d" d="M 0 0 
L 0 2 
" style="stroke: #000000; stroke-width: 0.4"/>
      </defs>
      <g>
       <use xlink:href="#mc1ab10938d" x="60.264286" y="30.614173" style="stroke: #000000; stroke-width: 0.4"/>
      </g>
     </g>
     <g id="text_1">
      <text style="font-size: 8px; font-family: 'DejaVu Sans', 'Bitstream Vera Sans', 'Computer Modern Sans Serif', 'Lucida Grande', 'Verdana', 'Geneva', 'Lucid', 'Arial', 'Helvetica', 'Avant Garde', sans-serif; text-anchor: middle" x="60.264286" y="42.192923" transform="rotate(-0 60.264286 42.192923)">0</text>
     </g>
    </g>
    <g id="xtick_2">
     <g id="line2d_3">
      <path d="M 92.007049 30.614173 
L 92.007049 3.401575 
" clip-path="url(#p89bdf3b41c)" style="fill: none; stroke: #ffffff; stroke-width: 0.9; stroke-linecap: square"/>
     </g>
     <g id="line2d_4">
      <g>
       <use xlink:href="#mc1ab10938d" x="92.007049" y="30.614173" style="stroke: #000000; stroke-width: 0.4"/>
      </g>
     </g>
     <g id="text_2">
      <text style="font-size: 8px; font-family: 'DejaVu Sans', 'Bitstream Vera Sans', 'Computer Modern Sans Serif', 'Lucida Grande', 'Verdana', 'Geneva', 'Lucid', 'Arial', 'Helvetica', 'Avant Garde', sans-serif; text-anchor: middle" x="92.007049" y="42.192923" transform="rotate(-0 92.007049 42.192923)">60</text>
     </g>
    </g>
    <g id="xtick_3">
     <g id="line2d_5">
      <path d="M 123.749812 30.614173 
L 123.749812 3.401575 
" clip-path="url(#p89bdf3b41c)" style="fill: none; stroke: #ffffff; stroke-width: 0.9; stroke-linecap: square"/>
     </g>
     <g id="line2d_6">
      <g>
       <use xlink:href="#mc1ab10938d" x="123.749812" y="30.614173" style="stroke: #000000; stroke-width: 0.4"/>
      </g>
     </g>
     <g id="text_3">
      <text style="font-size: 8px; font-family: 'DejaVu Sans', 'Bitstream Vera Sans', 'Computer Modern Sans Serif', 'Lucida Grande', 'Verdana', 'Geneva', 'Lucid', 'Arial', 'Helvetica', 'Avant Garde', sans-serif; text-anchor: middle" x="123.749812" y="42.192923" transform="rotate(-0 123.749812 42.192923)">120</text>
     </g>
    </g>
    <g id="xtick_4">
     <g id="line2d_7">
      <path d="M 155.492574 30.614173 
L 155.492574 3.401575 
" clip-path="url(#p89bdf3b41c)" style="fill: none; stroke: #ffffff; stroke-width: 0.9; stroke-linecap: square"/>
     </g>
     <g id="line2d_8">
      <g>
       <use xlink:href="#mc1ab10938d" x="155.492574" y="30.614173" style="stroke: #000000; stroke-width: 0.4"/>
      </g>
     </g>
     <g id="text_4">
      <text style="font-size: 8px; font-family: 'DejaVu Sans', 'Bitstream Vera Sans', 'Computer Modern Sans Serif', 'Lucida Grande', 'Verdana', 'Geneva', 'Lucid', 'Arial', 'Helvetica', 'Avant Garde', sans-serif; text-anchor: middle" x="155.492574" y="42.192923" transform="rotate(-0 155.492574 42.192923)">180</text>
     </g>
    </g>
    <g id="xtick_5">
     <g id="line2d_9">
      <path d="M 187.235337 30.614173 
L 187.235337 3.401575 
" clip-path="url(#p89bdf3b41c)" style="fill: none; stroke: #ffffff; stroke-width: 0.9; stroke-linecap: square"/>
     </g>
     <g id="line2d_10">
      <g>
       <use xlink:href="#mc1ab10938d" x="187.235337" y="30.614173" style="stroke: #000000; stroke-width: 0.4"/>
      </g>
     </g>
     <g id="text_5">
      <text style="font-size: 8px; font-family: 'DejaVu Sans', 'Bitstream Vera Sans', 'Computer Modern Sans Serif', 'Lucida Grande', 'Verdana', 'Geneva', 'Lucid', 'Arial', 'Helvetica', 'Avant Garde', sans-serif; text-anchor: middle" x="187.235337" y="42.192923" transform="rotate(-0 187.235337 42.192923)">240</text>
     </g>
    </g>
    <g id="xtick_6">
     <g id="line2d_11">
      <path d="M 76.135668 30.614173 
L 76.135668 3.401575 
" clip-path="url(#p89bdf3b41c)" style="fill: none; stroke: #ffffff; stroke-opacity: 0.9; stroke-width: 0.55; stroke-linecap: square"/>
     </g>
     <g id="line2d_12">
      <defs>
       <path id="m16e8d45e0d" d="M 0 0 
L 0 2 
" style="stroke: #000000; stroke-width: 0.6"/>
      </defs>
      <g>
       <use xlink:href="#m16e8d45e0d" x="76.135668" y="30.614173" style="stroke: #000000; stroke-width: 0.6"/>
      </g>
     </g>
    </g>
    <g id="xtick_7">
     <g id="line2d_13">
      <path d="M 107.87843 30.614173 
L 107.87843 3.401575 
" clip-path="url(#p89bdf3b41c)" style="fill: none; stroke: #ffffff; stroke-opacity: 0.9; stroke-width: 0.55; stroke-linecap: square"/>
     </g>
     <g id="line2d_14">
      <g>
       <use xlink:href="#m16e8d45e0d" x="107.87843" y="30.614173" style="stroke: #000000; stroke-width: 0.6"/>
      </g>
     </g>
    </g>
    <g id="xtick_8">
     <g id="line2d_15">
      <path d="M 139.621193 30.614173 
L 139.621193 3.401575 
" clip-path="url(#p89bdf3b41c)" style="fill: none; stroke: #ffffff; stroke-opacity: 0.9; stroke-width: 0.55; stroke-linecap: square"/>
     </g>
     <g id="line2d_16">
      <g>
       <use xlink:href="#m16e8d45e0d" x="139.621193" y="30.614173" style="stroke: #000000; stroke-width: 0.6"/>
      </g>
     </g>
    </g>
    <g id="xtick_9">
     <g id="line2d_17">
      <path d="M 171.363956 30.614173 
L 171.363956 3.401575 
" clip-path="url(#p89bdf3b41c)" style="fill: none; stroke: #ffffff; stroke-opacity: 0.9; stroke-width: 0.55; stroke-linecap: square"/>
     </g>
     <g id="line2d_18">
      <g>
       <use xlink:href="#m16e8d45e0d" x="171.363956" y="30.614173" style="stroke: #000000; stroke-width: 0.6"/>
      </g>
     </g>
    </g>
    <g id="xtick_10">
     <g id="line2d_19">
      <path d="M 203.106719 30.614173 
L 203.106719 3.401575 
" clip-path="url(#p89bdf3b41c)" style="fill: none; stroke: #ffffff; stroke-opacity: 0.9; stroke-width: 0.55; stroke-linecap: square"/>
     </g>
     <g id="line2d_20">
      <g>
       <use xlink:href="#m16e8d45e0d" x="203.106719" y="30.614173" style="stroke: #000000; stroke-width: 0.6"/>
      </g>
     </g>
    </g>
    <g id="text_6">
     <text style="font-size: 8px; font-family: 'DejaVu Sans', 'Bitstream Vera Sans', 'Computer Modern Sans Serif', 'Lucida Grande', 'Verdana', 'Geneva', 'Lucid', 'Arial', 'Helvetica', 'Avant Garde', sans-serif; text-anchor: middle" x="133.937008" y="53.935423" transform="rotate(-0 133.937008 53.935423)">time</text>
    </g>
   </g>
   <g id="matplotlib.axis_2">
    <g id="ytick_1">
     <g id="line2d_21">
      <path d="M 59.527559 28.096254 
L 208.346457 28.096254 
" clip-path="url(#p89bdf3b41c)" style="fill: none; stroke: #ffffff; stroke-width: 0.9; stroke-linecap: square"/>
     </g>
     <g id="line2d_22">
      <defs>
       <path id="m2a22bbd12b" d="M 0 0 
L -2 0 
" style="stroke: #000000; stroke-width: 0.4"/>
      </defs>
      <g>
       <use xlink:href="#m2a22bbd12b" x="59.527559" y="28.096254" style="stroke: #000000; stroke-width: 0.4"/>
      </g>
     </g>
     <g id="text_7">
      <text style="font-size: 8px; font-family: 'DejaVu Sans', 'Bitstream Vera Sans', 'Computer Modern Sans Serif', 'Lucida Grande', 'Verdana', 'Geneva', 'Lucid', 'Arial', 'Helvetica', 'Avant Garde', sans-serif; text-anchor: end" x="54.027559" y="31.135629" transform="rotate(-0 54.027559 31.135629)">−1.5</text>
     </g>
    </g>
    <g id="ytick_2">
     <g id="line2d_23">
      <path d="M 59.527559 20.2291 
L 208.346457 20.2291 
" clip-path="url(#p89bdf3b41c)" style="fill: none; stroke: #ffffff; stroke-width: 0.9; stroke-linecap: square"/>
     </g>
     <g id="line2d_24">
      <g>
       <use xlink:href="#m2a22bbd12b" x="59.527559" y="20.2291" style="stroke: #000000; stroke-width: 0.4"/>
      </g>
     </g>
     <g id="text_8">
      <text style="font-size: 8px; font-family: 'DejaVu Sans', 'Bitstream Vera Sans', 'Computer Modern Sans Serif', 'Lucida Grande', 'Verdana', 'Geneva', 'Lucid', 'Arial', 'Helvetica', 'Avant Garde', sans-serif; text-anchor: end" x="54.027559" y="23.268475" transform="rotate(-0 54.027559 23.268475)">0.0</text>
     </g>
    </g>
    <g id="ytick_3">
     <g id="line2d_25">
      <path d="M 59.527559 12.361946 
L 208.346457 12.361946 
" clip-path="url(#p89bdf3b41c)" style="fill: none; stroke: #ffffff; stroke-width: 0.9; stroke-linecap: square"/>
     </g>
     <g id="line2d_26">
      <g>
       <use xlink:href="#m2a22bbd12b" x="59.527559" y="12.361946" style="stroke: #000000; stroke-width: 0.4"/>
      </g>
     </g>
     <g id="text_9">
      <text style="font-size: 8px; font-family: 'DejaVu Sans', 'Bitstream Vera Sans', 'Computer Modern Sans Serif', 'Lucida Grande', 'Verdana', 'Geneva', 'Lucid', 'Arial', 'Helvetica', 'Avant Garde', sans-serif; text-anchor: end" x="54.027559" y="15.401321" transform="rotate(-0 54.027559 15.401321)">1.5</text>
     </g>
    </g>
    <g id="ytick_4">
     <g id="line2d_27">
      <path d="M 59.527559 4.494792 
L 208.346457 4.494792 
" clip-path="url(#p89bdf3b41c)" style="fill: none; stroke: #ffffff; stroke-width: 0.9; stroke-linecap: square"/>
     </g>
     <g id="line2d_28">
      <g>
       <use xlink:href="#m2a22bbd12b" x="59.527559" y="4.494792" style="stroke: #000000; stroke-width: 0.4"/>
      </g>
     </g>
     <g id="text_10">
      <text style="font-size: 8px; font-family: 'DejaVu Sans', 'Bitstream Vera Sans', 'Computer Modern Sans Serif', 'Lucida Grande', 'Verdana', 'Geneva', 'Lucid', 'Arial', 'Helvetica', 'Avant Garde', sans-serif; text-anchor: end" x="54.027559" y="7.534167" transform="rotate(-0 54.027559 7.534167)">3.0</text>
     </g>
    </g>
    <g id="ytick_5">
     <g id="line2d_29">
      <path d="M 59.527559 24.162677 
L 208.346457 24.162677 
" clip-path="url(#p89bdf3b41c)" style="fill: none; stroke: #ffffff; stroke-opacity: 0.9; stroke-width: 0.55; stroke-linecap: square"/>
     </g>
     <g id="line2d_30">
      <defs>
       <path id="m71c6519097" d="M 0 0 
L -2 0 
" style="stroke: #000000; stroke-width: 0.6"/>
      </defs>
      <g>
       <use xlink:href="#m71c6519097" x="59.527559" y="24.162677" style="stroke: #000000; stroke-width: 0.6"/>
      </g>
     </g>
    </g>
    <g id="ytick_6">
     <g id="line2d_31">
      <path d="M 59.527559 16.295523 
L 208.346457 16.295523 
" clip-path="url(#p89bdf3b41c)" style="fill: none; stroke: #ffffff; stroke-opacity: 0.9; stroke-width: 0.55; stroke-linecap: square"/>
     </g>
     <g id="line2d_32">
      <g>
       <use xlink:href="#m71c6519097" x="59.527559" y="16.295523" style="stroke: #000000; stroke-width: 0.6"/>
      </g>
     </g>
    </g>
    <g id="ytick_7">
     <g id="line2d_33">
      <path d="M 59.527559 8.428369 
L 208.346457 8.428369 
" clip-path="url(#p89bdf3b41c)" style="fill: none; stroke: #ffffff; stroke-opacity: 0.9; stroke-width: 0.55; stroke-linecap: square"/>
     </g>
     <g id="line2d_34">
      <g>
       <use xlink:href="#m71c6519097" x="59.527559" y="8.428369" style="stroke: #000000; stroke-width: 0.6"/>
      </g>
     </g>
    </g>
    <g id="text_11">
     <text style="font-size: 8px; font-family: 'DejaVu Sans', 'Bitstream Vera Sans', 'Computer Modern Sans Serif', 'Lucida Grande', 'Verdana', 'Geneva', 'Lucid', 'Arial', 'Helvetica', 'Avant Garde', sans-serif; text-anchor: middle" x="28.715059" y="17.007874" transform="rotate(-90 28.715059 17.007874)">right_wrist_dx</text>
    </g>
   </g>
   <g id="line2d_35">
    <path d="M 60.264286 22.818601 
L 60.493769 23.736889 
L 60.529074 23.7535 
L 60.617336 23.962652 
L 60.758557 25.547123 
L 60.793861 25.547123 
L 60.935081 24.238148 
L 61.199869 24.33034 
L 61.323436 24.797298 
L 61.499962 24.619597 
L 61.676486 23.995873 
L 61.729444 23.980737 
L 61.853012 23.853161 
L 61.905969 23.853161 
L 62.082494 24.623528 
L 62.206061 24.589128 
L 62.259019 24.483667 
L 62.435544 22.471356 
L 62.559112 17.049105 
L 62.647374 16.868357 
L 62.788594 17.523139 
L 63.000424 22.992076 
L 63.229907 23.064808 
L 63.318169 23.153659 
L 63.441737 23.421095 
L 63.706524 23.421095 
L 63.88305 23.426501 
L 64.236099 23.804608 
L 64.9422 23.700425 
L 65.383512 23.363991 
L 65.524732 23.744949 
L 65.6483 23.964028 
L 65.877782 24.966547 
L 66.00135 25.04262 
L 66.266137 25.225236 
L 66.442662 25.210886 
L 66.672145 24.971854 
L 66.84867 24.954065 
L 66.972237 24.77656 
L 67.289982 24.828553 
L 67.41355 24.767124 
L 67.55477 23.72706 
L 67.678338 23.681751 
L 67.819557 20.891996 
L 67.996083 20.850617 
L 68.11965 20.389557 
L 68.296175 20.389557 
L 68.4727 19.732219 
L 68.525658 19.732219 
L 68.649225 20.007322 
L 68.702183 20.036513 
L 68.914013 20.731101 
L 69.1788 20.841968 
L 69.620113 24.717392 
L 69.655418 24.465582 
L 69.708376 24.637485 
L 69.74368 24.465582 
L 69.8849 24.436391 
L 70.149688 23.901813 
L 70.237951 23.985945 
L 70.273256 24.138781 
L 70.414475 25.194669 
L 70.502738 25.138155 
L 70.626305 24.521703 
L 70.714568 24.521703 
L 70.891093 24.955638 
L 71.244143 24.736459 
L 71.385363 24.714738 
L 71.508931 23.521151 
L 71.685456 23.521151 
L 71.826676 24.842706 
L 71.950243 24.756608 
L 72.126768 24.061331 
L 72.215031 24.061331 
L 72.267988 23.893066 
L 72.391556 22.729456 
L 72.444513 22.729456 
L 72.568081 21.407507 
L 72.621039 21.407507 
L 72.744606 21.128964 
L 72.832869 21.205234 
L 73.009393 21.608207 
L 73.503664 22.726703 
L 73.715494 24.972247 
L 74.245069 25.743794 
L 74.386289 26.260582 
L 74.509856 26.156792 
L 74.562814 25.680694 
L 74.686381 23.837239 
L 74.739339 23.837239 
L 74.862906 22.06396 
L 75.745532 22.06396 
L 75.922056 23.29922 
L 76.363369 23.409301 
L 76.539894 24.051404 
L 76.804682 23.023135 
L 76.981206 20.771497 
L 77.122427 20.194459 
L 77.334257 20.583082 
L 77.422519 20.583082 
L 77.599044 19.718262 
L 77.687307 19.718262 
L 77.91679 20.986744 
L 78.481669 21.788857 
L 78.781762 21.090927 
L 78.834719 21.051219 
L 78.958287 20.678518 
L 79.046549 20.737687 
L 79.18777 21.006401 
L 79.364294 21.183119 
L 79.75265 21.845273 
L 79.893869 21.845273 
L 79.929175 21.781977 
L 80.1057 21.160907 
L 80.158657 21.160907 
L 80.282225 20.185318 
L 80.335182 20.185318 
L 80.45875 8.856265 
L 80.59997 8.856265 
L 80.635275 8.982761 
L 80.776495 10.815994 
L 80.8118 10.815994 
L 80.988325 14.378375 
L 81.041283 14.378375 
L 81.217807 20.347097 
L 81.341375 21.021537 
L 81.5179 20.321444 
L 81.694425 19.181816 
L 81.747382 19.181816 
L 81.782688 19.381829 
L 81.959212 21.174667 
L 82.047475 21.174667 
L 82.224 20.657092 
L 82.276957 20.64687 
L 82.630008 19.699981 
L 82.71827 19.64042 
L 82.753575 19.699981 
L 82.894795 19.810553 
L 82.983058 21.052104 
L 83.106625 21.620591 
L 83.28315 21.620591 
L 83.42437 22.619768 
L 83.6362 22.619768 
L 83.812725 24.425088 
L 83.900988 24.357173 
L 84.13047 17.283124 
L 84.218733 17.283124 
L 84.395258 21.035494 
L 84.483521 20.948707 
L 84.695351 18.418133 
L 84.836571 18.805774 
L 84.871875 18.805774 
L 85.048401 17.901541 
L 85.313188 18.578045 
L 85.454408 17.904588 
L 85.542671 17.983119 
L 85.577976 18.045629 
L 85.895721 20.531187 
L 86.195813 20.435555 
L 86.425296 19.616045 
L 86.548864 18.391301 
L 86.760694 19.087462 
L 86.848956 19.194692 
L 86.990176 20.976227 
L 87.113743 20.976227 
L 87.290269 19.439425 
L 87.378531 19.489944 
L 87.555056 20.435653 
L 87.643319 20.435653 
L 87.872801 21.936384 
L 87.996368 22.124013 
L 88.084631 21.907783 
L 88.225851 19.083629 
L 88.261156 19.083629 
L 88.402376 26.414892 
L 88.490639 26.414892 
L 88.878994 16.505386 
L 88.967256 15.708384 
L 89.108476 13.349614 
L 89.196739 13.349614 
L 89.320306 14.63559 
L 89.496831 14.560008 
L 89.761619 13.516996 
L 89.938144 13.437089 
L 90.079364 14.611215 
L 90.255889 17.398414 
L 90.467719 17.398414 
L 90.644244 14.037421 
L 90.873727 14.124699 
L 91.085557 12.224237 
L 91.315039 11.940682 
L 91.438606 12.035528 
L 91.579827 13.120903 
L 91.615132 13.120903 
L 91.791657 11.661058 
L 92.021139 11.287276 
L 92.285927 11.186729 
L 92.409494 11.080481 
L 92.550714 11.09149 
L 92.762544 11.173952 
L 93.115595 10.8902 
L 93.698127 10.874965 
L 93.78639 11.048833 
L 93.99822 12.083787 
L 94.263007 13.270494 
L 94.580752 16.438945 
L 94.757277 19.018367 
L 94.792582 19.16786 
L 94.84554 19.018367 
L 94.880845 19.018367 
L 94.933802 19.16786 
L 95.022065 21.780699 
L 95.19859 27.330231 
L 95.233895 27.330231 
L 95.41042 23.831637 
L 95.463377 23.678605 
L 95.586945 22.696431 
L 95.76347 22.795504 
L 95.887037 23.387285 
L 96.293045 23.387285 
L 96.416612 23.746816 
L 96.593138 23.746816 
L 96.769663 22.955612 
L 96.82262 22.955612 
L 96.857925 23.137343 
L 97.122713 26.360736 
L 97.299238 26.332135 
L 97.616983 26.579324 
L 97.88177 27.720133 
L 98.146558 27.837387 
L 98.270125 27.584792 
L 98.534913 23.404092 
L 98.711438 23.404092 
L 98.887963 21.919282 
L 99.417538 21.924688 
L 99.594063 22.851723 
L 99.64702 22.851723 
L 99.735283 21.477978 
L 99.85885 20.70879 
L 101.182788 20.70879 
L 101.500533 23.853161 
L 101.535839 23.853161 
L 101.712363 23.630838 
L 101.888888 23.598993 
L 102.065414 23.185503 
L 102.206634 23.287524 
L 102.418464 23.760969 
L 102.559683 23.891296 
L 102.824471 23.888151 
L 102.948039 24.123546 
L 103.000996 24.139666 
L 103.124564 24.304196 
L 103.177521 24.304196 
L 103.212826 24.143498 
L 103.389351 22.247853 
L 103.442309 22.247853 
L 103.618834 22.536421 
L 103.707096 22.482364 
L 103.830664 22.339358 
L 104.007189 22.339358 
L 104.148409 24.801328 
L 104.183714 24.801328 
L 104.324934 24.514431 
L 104.625026 24.464403 
L 104.836856 24.264784 
L 104.925119 24.264784 
L 105.101644 24.860988 
L 105.419389 24.87229 
L 105.542957 24.252203 
L 105.807744 24.23461 
L 105.948964 23.590639 
L 106.125489 23.700916 
L 106.249057 25.152406 
L 106.602107 25.078495 
L 106.778632 25.032693 
L 106.919852 25.032693 
L 107.04342 24.476492 
L 107.131682 24.496641 
L 107.272902 24.976375 
L 107.926045 25.083704 
L 108.508577 25.0782 
L 109.65599 25.067684 
L 109.779557 24.555907 
L 109.920777 25.149851 
L 110.838708 25.129309 
L 110.979927 23.669268 
L 111.103495 23.762149 
L 111.244715 25.242633 
L 111.28002 25.242633 
L 111.42124 24.32523 
L 111.544808 24.32523 
L 111.63307 24.617238 
L 111.77429 25.153487 
L 112.250908 25.235359 
L 112.392128 24.063592 
L 112.48039 24.063592 
L 112.603958 24.41585 
L 112.656916 24.41585 
L 112.780483 23.447535 
L 112.921703 22.88691 
L 112.957008 22.88691 
L 113.221795 23.531765 
L 113.610151 26.864157 
L 113.698413 26.771179 
L 114.051463 26.597212 
L 114.227988 26.943376 
L 114.31625 26.861209 
L 114.369208 26.861209 
L 114.581038 26.496272 
L 114.757563 26.481628 
L 114.934088 26.278864 
L 115.110613 26.203281 
L 115.375401 26.108828 
L 115.551926 26.200529 
L 115.728451 26.367223 
L 115.904976 26.428357 
L 116.046196 26.550428 
L 116.222721 26.442805 
L 116.399246 26.295474 
L 116.522814 26.334395 
L 116.664034 26.495978 
L 117.017083 26.454697 
L 117.193609 26.323092 
L 117.370134 26.37312 
L 117.581964 27.035274 
L 117.811446 26.962346 
L 117.899709 26.70808 
L 118.023276 26.496567 
L 118.164496 26.535588 
L 118.288064 26.812951 
L 118.376327 26.812951 
L 118.694072 25.584276 
L 118.782334 25.484318 
L 118.870596 25.433898 
L 118.994164 25.638037 
L 119.170689 25.638037 
L 119.311909 25.745759 
L 119.523739 26.032165 
L 119.700264 26.449489 
L 120.106272 26.703361 
L 120.141576 26.618541 
L 120.582889 26.370269 
L 120.671152 26.353561 
L 120.724109 26.274441 
L 120.759414 26.353561 
L 120.847677 26.584632 
L 120.988897 26.351498 
L 121.200727 26.314247 
L 121.518472 25.990885 
L 121.642039 26.043173 
L 121.818565 26.549838 
L 121.995089 26.549838 
L 122.171614 26.1162 
L 122.383445 26.141067 
L 123.001282 26.21311 
L 123.142502 26.406537 
L 123.26607 26.444181 
L 123.442595 26.547676 
L 123.530857 26.421477 
L 123.707382 26.152762 
L 123.883907 26.228345 
L 124.025127 26.603601 
L 124.148695 26.600653 
L 124.289915 26.200136 
L 124.554702 26.174287 
L 124.766532 21.275803 
L 124.907752 21.11599 
L 125.17254 22.561485 
L 125.207845 22.541827 
L 125.260803 21.573315 
L 125.296108 22.252866 
L 125.349065 22.301124 
L 125.472633 22.541827 
L 125.52559 22.549002 
L 125.73742 23.319861 
L 125.87864 23.194447 
L 126.055165 23.506703 
L 126.178733 23.445077 
L 126.23169 23.393281 
L 126.355258 22.900178 
L 126.58474 22.873347 
L 126.620045 22.89094 
L 126.79657 23.244868 
L 127.202578 24.244832 
L 127.467365 22.263775 
L 127.643891 21.085816 
L 127.679195 21.021733 
L 127.820415 20.351422 
L 127.908678 20.362037 
L 127.996941 20.475852 
L 128.085203 23.547295 
L 128.208771 25.180417 
L 128.261728 25.180417 
L 128.473558 22.944014 
L 128.526516 22.944014 
L 128.56182 22.354985 
L 128.650083 22.448062 
L 128.738346 22.448062 
L 128.914871 24.229106 
L 129.003133 24.229106 
L 129.056091 24.017791 
L 129.356183 19.548817 
L 129.409141 19.32728 
L 129.585666 17.424558 
L 129.709233 17.456796 
L 129.974021 18.702868 
L 130.238809 22.891431 
L 130.327071 22.891431 
L 130.468291 21.348732 
L 130.503596 21.348732 
L 130.768384 24.220064 
L 130.821341 24.220064 
L 131.209696 18.846562 
L 131.386221 19.407678 
L 131.509789 21.302144 
L 131.686313 22.229769 
L 131.739271 22.229769 
L 131.774576 22.048037 
L 131.951101 20.714 
L 132.004059 20.714 
L 132.127626 24.201389 
L 132.357109 29.049845 
L 132.392414 29.049845 
L 132.568939 24.160699 
L 132.833727 20.400958 
L 133.239734 20.5018 
L 133.363302 20.632225 
L 133.539826 20.632225 
L 133.804614 24.699307 
L 133.857571 24.699307 
L 133.981139 24.886541 
L 134.157664 24.737344 
L 134.334189 23.121814 
L 134.422452 23.151889 
L 134.651934 25.26799 
L 134.775502 25.26799 
L 134.952027 24.480325 
L 135.040289 24.480325 
L 135.358034 25.494933 
L 135.569864 24.650852 
L 135.711084 24.123252 
L 135.922914 23.203096 
L 136.011177 23.267474 
L 136.099439 23.203096 
L 136.152397 23.267474 
L 136.240659 23.547491 
L 136.328922 23.046919 
L 136.364227 23.547491 
L 136.452489 23.340992 
L 136.505447 23.340992 
L 136.717277 25.065325 
L 136.80554 25.147492 
L 137.070327 27.222706 
L 137.211547 25.847977 
L 137.246852 25.782813 
L 137.388072 25.018737 
L 137.423377 25.018737 
L 137.564597 21.978746 
L 137.688165 19.769764 
L 137.776427 19.769764 
L 137.952952 21.517587 
L 138.182435 20.182664 
L 138.306002 20.15426 
L 138.623747 20.905658 
L 138.800272 22.151533 
L 139.188628 22.786167 
L 139.453415 21.251526 
L 139.594635 21.251526 
L 139.753508 22.271639 
L 139.806465 22.271639 
L 140.071253 21.292315 
L 140.247778 21.537048 
L 140.33604 21.412912 
L 140.371345 21.537244 
L 140.600828 20.948903 
L 140.777353 20.948903 
L 140.90092 20.30336 
L 140.953878 20.30336 
L 141.04214 21.165035 
L 141.218665 21.887536 
L 141.25397 21.900805 
L 141.306928 22.199595 
L 141.39519 22.089711 
L 141.483453 22.189176 
L 141.571716 21.625112 
L 141.659978 20.755771 
L 141.783546 20.133816 
L 142.013028 20.199668 
L 142.048333 20.004668 
L 142.313121 16.434227 
L 142.366078 16.427543 
L 142.630866 15.706516 
L 142.666171 15.620516 
L 142.842696 14.765033 
L 142.983916 14.495434 
L 143.01922 14.495434 
L 143.160441 18.868186 
L 143.372271 18.87654 
L 143.513491 17.16754 
L 143.548796 17.16754 
L 143.690016 18.83752 
L 143.725321 18.83752 
L 143.954803 16.550598 
L 143.990108 16.550598 
L 144.131328 17.000749 
L 144.254896 17.000749 
L 144.396116 11.164319 
L 144.431421 11.164319 
L 144.784471 20.566669 
L 144.925691 18.946912 
L 144.960996 18.946912 
L 145.225784 22.098556 
L 145.278741 22.003121 
L 145.402308 21.743547 
L 145.455266 21.743547 
L 145.578834 21.877904 
L 145.667096 21.862866 
L 145.808316 21.338215 
L 145.843621 21.338215 
L 146.020146 22.410124 
L 146.108409 22.303582 
L 146.161366 22.213748 
L 146.337891 20.083199 
L 146.373196 20.083199 
L 146.514416 20.714982 
L 146.549721 20.714982 
L 146.814509 19.618699 
L 146.867466 19.691136 
L 146.955729 19.691136 
L 147.167559 21.494686 
L 147.220516 21.537638 
L 147.308779 21.750427 
L 147.485304 25.430359 
L 147.573566 25.430359 
L 147.661829 25.282537 
L 147.838354 22.854771 
L 147.873659 22.660458 
L 148.138447 18.651661 
L 148.226709 19.040383 
L 148.456192 22.097279 
L 148.579759 22.097279 
L 148.879852 17.850924 
L 148.968114 17.968081 
L 149.144639 21.496259 
L 149.197597 21.568696 
L 149.321164 21.829449 
L 149.462384 21.601622 
L 149.850739 13.116479 
L 149.991959 14.057569 
L 150.080222 16.733214 
L 156.876436 17.551348 
L 157.317748 23.892967 
L 157.706103 24.433836 
L 157.794365 24.433836 
L 158.006196 21.619117 
L 158.059153 21.600737 
L 158.094458 21.356103 
L 158.359246 16.070863 
L 158.500466 16.070863 
L 158.765253 18.17173 
L 158.800558 17.914613 
L 159.030041 10.971089 
L 159.153609 10.671414 
L 159.206566 10.671414 
L 159.383091 17.860752 
L 159.471354 18.367417 
L 159.647878 23.972677 
L 159.771446 23.972677 
L 159.912666 23.802741 
L 159.947971 23.802741 
L 160.036234 24.146643 
L 160.177453 24.934211 
L 160.212759 24.934211 
L 160.742334 15.780133 
L 160.830596 15.780133 
L 160.918859 16.468431 
L 161.183646 20.120843 
L 161.324866 20.20183 
L 161.501391 19.78264 
L 161.624959 19.437656 
L 161.677916 19.410529 
L 161.801484 17.632335 
L 161.978009 10.972072 
L 162.119229 10.552882 
L 162.331059 11.918076 
L 162.507584 11.906676 
L 162.560541 11.665087 
L 162.825329 4.638511 
L 162.860634 4.644213 
L 162.948897 5.294767 
L 163.125422 10.890887 
L 163.178379 11.307031 
L 163.354904 16.843884 
L 163.443167 16.843884 
L 164.149267 8.800144 
L 164.414054 10.606153 
L 164.502317 10.606153 
L 164.767105 9.99609 
L 164.890672 10.381274 
L 165.031892 10.381274 
L 165.155459 12.140105 
L 165.243722 12.886096 
L 165.29668 12.632617 
L 165.384942 12.45521 
L 165.561467 12.794592 
L 165.685034 13.231966 
L 165.826255 14.789802 
L 165.86156 14.789802 
L 166.002779 14.256206 
L 166.038085 14.256206 
L 166.249915 19.536433 
L 166.338177 19.536433 
L 166.691227 9.658871 
L 166.832447 9.658871 
L 166.956015 11.089425 
L 167.008972 11.09552 
L 167.044277 11.419372 
L 167.097235 11.09552 
L 167.185497 11.09552 
L 167.27376 12.741419 
L 167.397327 20.092339 
L 167.538547 21.457731 
L 167.573853 21.457731 
L 167.662115 19.395785 
L 167.926902 12.258834 
L 168.015165 12.289303 
L 168.33291 15.698457 
L 168.597697 20.688052 
L 168.89779 8.995243 
L 168.986053 9.428488 
L 169.127272 11.426743 
L 169.162578 11.427923 
L 169.25084 11.939208 
L 169.339102 10.961261 
L 169.480323 8.335644 
L 169.568585 8.335644 
L 169.74511 11.235773 
L 170.009898 17.708605 
L 170.045203 17.660642 
L 170.186423 17.318016 
L 170.398253 18.764493 
L 170.486516 18.764493 
L 170.574778 18.146962 
L 170.839565 16.020835 
L 171.069048 10.303529 
L 171.280878 9.54476 
L 171.457403 9.515864 
L 171.545666 9.274572 
L 171.810453 5.42372 
L 171.986978 5.517386 
L 172.128198 5.782169 
L 172.163503 5.782169 
L 172.216461 6.200673 
L 172.428291 13.797603 
L 172.693078 17.262583 
L 172.957866 17.262583 
L 173.134391 23.089281 
L 173.310916 23.089281 
L 173.452136 22.89782 
L 173.487441 22.89782 
L 173.628661 21.512673 
L 173.840491 21.512673 
L 173.981711 10.780906 
L 174.105278 9.704672 
L 174.193541 9.744183 
L 174.370066 10.673086 
L 174.511286 11.863921 
L 174.599549 14.936444 
L 174.811379 20.857792 
L 174.952598 20.857792 
L 175.076166 19.741261 
L 175.111471 19.741261 
L 175.464521 22.985982 
L 175.641046 25.774361 
L 175.729309 25.774361 
L 175.870529 24.369163 
L 176.311842 17.540339 
L 176.435409 17.540339 
L 176.611934 17.747232 
L 176.841417 17.728263 
L 177.053247 19.302119 
L 177.141509 19.302119 
L 177.494559 17.359001 
L 177.635779 17.830578 
L 177.671084 17.830578 
L 178.024134 16.030566 
L 178.077092 16.030566 
L 178.253617 17.580538 
L 178.377184 17.580538 
L 178.553709 16.649277 
L 178.641972 16.732427 
L 178.730234 16.581656 
L 178.783192 16.649277 
L 178.90676 16.920252 
L 179.047979 17.07122 
L 179.171547 17.227494 
L 179.224505 17.227494 
L 179.348072 17.585355 
L 179.401029 17.585355 
L 179.665817 20.210971 
L 179.789384 20.145512 
L 179.877647 17.947539 
L 180.054172 9.113579 
L 180.195392 9.113579 
L 180.31896 9.289118 
L 180.371917 9.289118 
L 180.495485 9.06021 
L 180.760272 8.955142 
L 180.936797 8.255246 
L 181.078017 8.255246 
L 181.16628 14.374641 
L 181.289847 21.104589 
L 181.51933 21.104589 
L 181.554635 21.418515 
L 181.819423 29.377237 
L 182.260735 22.513717 
L 182.348998 24.010124 
L 182.490217 26.942098 
L 182.57848 26.942098 
L 182.702047 24.350391 
L 182.878573 18.244363 
L 183.019793 17.700448 
L 183.055097 17.700448 
L 183.108055 17.867632 
L 183.372842 23.576584 
L 183.49641 23.73797 
L 183.584672 23.650299 
L 183.814155 22.519811 
L 184.06129 22.145439 
L 184.237815 22.160969 
L 184.55556 22.69653 
L 184.590865 22.629597 
L 184.76739 21.599066 
L 184.90861 21.647915 
L 185.296965 23.15474 
L 185.349923 22.981756 
L 185.561753 22.630973 
L 185.738278 22.948437 
L 186.320811 22.970355 
L 186.356116 23.121618 
L 186.585598 24.895585 
L 186.673861 24.895585 
L 186.850386 23.712219 
L 187.026911 22.3197 
L 187.150478 22.393808 
L 187.503528 22.622422 
L 187.768316 24.578906 
L 187.856579 24.038529 
L 188.033103 21.83053 
L 188.121366 21.859623 
L 188.350848 25.107981 
L 188.474416 25.03859 
L 188.615636 23.9656 
L 188.650941 23.9656 
L 188.792161 24.65557 
L 188.827466 24.65557 
L 189.233474 18.931088 
L 189.445304 22.411696 
L 189.498261 22.411696 
L 189.763049 15.265015 
L 189.939574 15.174788 
L 190.063141 15.212039 
L 190.416191 22.433123 
L 190.645674 23.514172 
L 190.680979 23.514172 
L 190.769242 23.256466 
L 190.945766 24.599153 
L 191.122291 28.347394 
L 191.210554 28.347394 
L 191.475341 22.923767 
L 191.616562 26.782383 
L 191.740129 27.797876 
L 191.793086 27.797876 
L 191.828392 27.672954 
L 192.234399 12.531579 
L 192.446229 11.512744 
L 192.534492 12.152784 
L 192.711017 20.486663 
L 192.799279 20.429756 
L 193.011109 17.528152 
L 193.240592 22.899687 
L 193.328854 22.899687 
L 193.681905 19.628625 
L 193.805472 20.096173 
L 193.946692 19.906874 
L 193.981997 19.906874 
L 194.158522 18.971583 
L 194.21148 18.971583 
L 194.246784 19.085201 
L 194.511572 23.811979 
L 194.652792 23.811979 
L 194.688097 23.543757 
L 195.041147 12.824963 
L 195.358892 12.051057 
L 195.394197 12.051057 
L 195.570722 14.475777 
L 195.62368 14.659179 
L 195.97673 24.585492 
L 196.100297 24.585492 
L 196.153255 24.30341 
L 196.32978 20.711641 
L 196.418042 20.711641 
L 196.594568 22.329529 
L 196.629872 22.329529 
L 196.771092 21.277376 
L 196.859355 21.371927 
L 196.982922 21.55985 
L 197.124143 21.720744 
L 197.159447 21.720744 
L 197.300667 21.041882 
L 197.689023 8.413684 
L 197.865548 7.818462 
L 198.218598 8.530644 
L 198.30686 8.603277 
L 198.44808 8.67591 
L 198.571648 9.601176 
L 198.977655 10.029999 
L 199.065918 10.174185 
L 199.36601 14.261415 
L 199.542535 14.251685 
L 199.595493 14.58743 
L 199.807323 17.960316 
L 199.948543 17.960316 
L 200.125068 16.090127 
L 200.248636 16.090127 
L 200.513423 24.130721 
L 200.566381 24.130721 
L 200.778211 19.071048 
L 200.919431 19.071048 
L 201.042998 19.858615 
L 201.095956 19.858615 
L 201.272481 18.492536 
L 201.307786 18.492536 
L 201.449006 18.810786 
L 201.484311 18.810786 
L 201.960928 11.043133 
L 202.102149 9.447949 
L 202.190411 9.472619 
L 202.543461 10.353459 
L 203.161299 10.315619 
L 203.284866 10.218708 
L 203.514349 10.146763 
L 203.637916 10.082582 
L 203.726179 10.082582 
L 203.902704 10.36201 
L 204.079229 10.27768 
L 204.255754 10.146763 
L 204.926549 10.348349 
L 205.403166 11.371212 
L 205.632649 9.7432 
L 205.756217 9.428488 
L 205.844479 9.452667 
L 206.021004 10.487914 
L 206.162224 10.487914 
L 206.285792 10.199936 
L 206.638842 10.097227 
L 206.815367 9.933187 
L 207.256679 9.880211 
L 207.433204 8.365229 
L 207.609729 8.291121 
L 207.609729 8.291121 
" clip-path="url(#p89bdf3b41c)" style="fill: none; stroke: #5c80b5; stroke-width: 0.5; stroke-linecap: square"/>
   </g>
   <g id="patch_3">
    <path d="M 59.527559 30.614173 
L 59.527559 3.401575 
" style="fill: none; stroke: #000000; stroke-width: 0.4; stroke-linejoin: miter; stroke-linecap: square"/>
   </g>
   <g id="patch_4">
    <path d="M 208.346457 30.614173 
L 208.346457 3.401575 
" style="fill: none; stroke: #000000; stroke-width: 0.4; stroke-linejoin: miter; stroke-linecap: square"/>
   </g>
   <g id="patch_5">
    <path d="M 59.527559 30.614173 
L 208.346457 30.614173 
" style="fill: none; stroke: #000000; stroke-width: 0.4; stroke-linejoin: miter; stroke-linecap: square"/>
   </g>
   <g id="patch_6">
    <path d="M 59.527559 3.401575 
L 208.346457 3.401575 
" style="fill: none; stroke: #000000; stroke-width: 0.4; stroke-linejoin: miter; stroke-linecap: square"/>
   </g>
  </g>
 </g>
 <defs>
  <clipPath id="p89bdf3b41c">
   <rect x="59.527559" y="3.401575" width="148.818898" height="27.212598"/>
  </clipPath>
 </defs>
</svg>
