<?xml version="1.0" encoding="utf-8" standalone="no"?>
<!DOCTYPE svg PUBLIC "-//W3C//DTD SVG 1.1//EN"
  "http://www.w3.org/Graphics/SVG/1.1/DTD/svg11.dtd">
<svg xmlns:xlink="http://www.w3.org/1999/xlink" width="212.598425pt" height="42.519685pt" viewBox="0 0 212.598425 42.519685" xmlns="http://www.w3.org/2000/svg" version="1.1">
 <metadata>
  <rdf:RDF xmlns:dc="http://purl.org/dc/elements/1.1/" xmlns:cc="http://creativecommons.org/ns#" xmlns:rdf="http://www.w3.org/1999/02/22-rdf-syntax-ns#">
   <cc:Work>
    <dc:type rdf:resource="http://purl.org/dc/dcmitype/StillImage"/>
    <dc:date>2026-06-01T17:59:22.278579</dc:date>
    <dc:format>image/svg+xml</dc:format>
    <dc:creator>
     <cc:Agent>
      <dc:title>Matplotlib v3.10.8, https://matplotlib.org/</dc:title>
     </cc:Agent>
    </dc:creator>
   </cc:Work>
  </rdf:RDF>
 </metadata>
 <defs>
  <style type="text/css">*{stroke-linejoin: round; stroke-linecap: butt}</style>
 </defs>
 <g id="figure_1">
  <g id="patch_1">
   <path d="M 0 42.519685 
L 212.598425 42.519685 
L 212.598425 0 
L 0 0 
z
" style="fill: #ffffff"/>
  </g>
  <g id="axes_1">
   <g id="patch_2">
    <path d="M 59.527559 30.614173 
L 208.346457 30.614173 
L 208.346457 3.401575 
L 59.527559 3.401575 
z
" style="fill: #eaeaf2"/>
   </g>
   <g id="matplotlib.axis_1">
    <g id="xtick_1">
     <g id="line2d_1">
      <path d="M 60.264286 30.614173 
L 60.264286 3.401575 
" clip-path="url(#p289d76438f)" style="fill: none; stroke: #ffffff; stroke-width: 0.9; stroke-linecap: square"/>
     </g>
     <g id="line2d_2">
      <defs>
       <path id="mabf86ff279" d="M 0 0 
L 0 2 
" style="stroke: #000000; stroke-width: 0.4"/>
      </defs>
      <g>
       <use xlink:href="#mabf86ff279" x="60.264286" y="30.614173" style="stroke: #000000; stroke-width: 0.4"/>
      </g>
     </g>
     <g id="text_1">
      <text style="font-size: 8px; font-family: 'DejaVu Sans', 'Bitstream Vera Sans', 'Computer Modern Sans Serif', 'Lucida Grande', 'Verdana', 'Geneva', 'Lucid', 'Arial', 'Helvetica', 'Avant Garde', sans-serif; text-anchor: middle" x="60.264286" y="42.192923" transform="rotate(-0 60.264286 42.192923)">0</text>
     </g>
    </g>
    <g id="xtick_2">
     <g id="line2d_3">
      <path d="M 92.007049 30.614173 
L 92.007049 3.401575 
" clip-path="url(#p289d76438f)" style="fill: none; stroke: #ffffff; stroke-width: 0.9; stroke-linecap: square"/>
     </g>
     <g id="line2d_4">
      <g>
       <use xlink:href="#mabf86ff279" x="92.007049" y="30.614173" style="stroke: #000000; stroke-width: 0.4"/>
      </g>
     </g>
     <g id="text_2">
      <text style="font-size: 8px; font-family: 'DejaVu Sans', 'Bitstream Vera Sans', 'Computer Modern Sans Serif', 'Lucida Grande', 'Verdana', 'Geneva', 'Lucid', 'Arial', 'Helvetica', 'Avant Garde', sans-serif; text-anchor: middle" x="92.007049" y="42.192923" transform="rotate(-0 92.007049 42.192923)">60</text>
     </g>
    </g>
    <g id="xtick_3">
     <g id="line2d_5">
      <path d="M 123.749812 30.614173 
L 123.749812 3.401575 
" clip-path="url(#p289d76438f)" style="fill: none; stroke: #ffffff; stroke-width: 0.9; stroke-linecap: square"/>
     </g>
     <g id="line2d_6">
      <g>
       <use xlink:href="#mabf86ff279" x="123.749812" y="30.614173" style="stroke: #000000; stroke-width: 0.4"/>
      </g>
     </g>
     <g id="text_3">
      <text style="font-size: 8px; font-family: 'DejaVu Sans', 'Bitstream Vera Sans', 'Computer Modern Sans Serif', 'Lucida Grande', 'Verdana', 'Geneva', 'Lucid', 'Arial', 'Helvetica', 'Avant Garde', sans-serif; text-anchor: middle" x="123.749812" y="42.192923" transform="rotate(-0 123.749812 42.192923)">120</text>
     </g>
    </g>
    <g id="xtick_4">
     <g id="line2d_7">
      <path d="M 155.492574 30.614173 
L 155.492574 3.401575 
" clip-path="url(#p289d76438f)" style="fill: none; stroke: #ffffff; stroke-width: 0.9; stroke-linecap: square"/>
     </g>
     <g id="line2d_8">
      <g>
       <use xlink:href="#mabf86ff279" x="155.492574" y="30.614173" style="stroke: #000000; stroke-width: 0.4"/>
      </g>
     </g>
     <g id="text_4">
      <text style="font-size: 8px; font-family: 'DejaVu Sans', 'Bitstream Vera Sans', 'Computer Modern Sans Serif', 'Lucida Grande', 'Verdana', 'Geneva', 'Lucid', 'Arial', 'Helvetica', 'Avant Garde', sans-serif; text-anchor: middle" x="155.492574" y="42.192923" transform="rotate(-0 155.492574 42.192923)">180</text>
     </g>
    </g>
    <g id="xtick_5">
     <g id="line2d_9">
      <path d="M 187.235337 30.614173 
L 187.235337 3.401575 
" clip-path="url(#p289d76438f)" style="fill: none; stroke: #ffffff; stroke-width: 0.9; stroke-linecap: square"/>
     </g>
     <g id="line2d_10">
      <g>
       <use xlink:href="#mabf86ff279" x="187.235337" y="30.614173" style="stroke: #000000; stroke-width: 0.4"/>
      </g>
     </g>
     <g id="text_5">
      <text style="font-size: 8px; font-family: 'DejaVu Sans', 'Bitstream Vera Sans', 'Computer Modern Sans Serif', 'Lucida Grande', 'Verdana', 'Geneva', 'Lucid', 'Arial', 'Helvetica', 'Avant Garde', sans-serif; text-anchor: middle" x="187.235337" y="42.192923" transform="rotate(-0 187.235337 42.192923)">240</text>
     </g>
    </g>
    <g id="xtick_6">
     <g id="line2d_11">
      <path d="M 76.135668 30.614173 
L 76.135668 3.401575 
" clip-path="url(#p289d76438f)" style="fill: none; stroke: #ffffff; stroke-opacity: 0.9; stroke-width: 0.55; stroke-linecap: square"/>
     </g>
     <g id="line2d_12">
      <defs>
       <path id="md5e5607857" d="M 0 0 
L 0 2 
" style="stroke: #000000; stroke-width: 0.6"/>
      </defs>
      <g>
       <use xlink:href="#md5e5607857" x="76.135668" y="30.614173" style="stroke: #000000; stroke-width: 0.6"/>
      </g>
     </g>
    </g>
    <g id="xtick_7">
     <g id="line2d_13">
      <path d="M 107.87843 30.614173 
L 107.87843 3.401575 
" clip-path="url(#p289d76438f)" style="fill: none; stroke: #ffffff; stroke-opacity: 0.9; stroke-width: 0.55; stroke-linecap: square"/>
     </g>
     <g id="line2d_14">
      <g>
       <use xlink:href="#md5e5607857" x="107.87843" y="30.614173" style="stroke: #000000; stroke-width: 0.6"/>
      </g>
     </g>
    </g>
    <g id="xtick_8">
     <g id="line2d_15">
      <path d="M 139.621193 30.614173 
L 139.621193 3.401575 
" clip-path="url(#p289d76438f)" style="fill: none; stroke: #ffffff; stroke-opacity: 0.9; stroke-width: 0.55; stroke-linecap: square"/>
     </g>
     <g id="line2d_16">
      <g>
       <use xlink:href="#md5e5607857" x="139.621193" y="30.614173" style="stroke: #000000; stroke-width: 0.6"/>
      </g>
     </g>
    </g>
    <g id="xtick_9">
     <g id="line2d_17">
      <path d="M 171.363956 30.614173 
L 171.363956 3.401575 
" clip-path="url(#p289d76438f)" style="fill: none; stroke: #ffffff; stroke-opacity: 0.9; stroke-width: 0.55; stroke-linecap: square"/>
     </g>
     <g id="line2d_18">
      <g>
       <use xlink:href="#md5e5607857" x="171.363956" y="30.614173" style="stroke: #000000; stroke-width: 0.6"/>
      </g>
     </g>
    </g>
    <g id="xtick_10">
     <g id="line2d_19">
      <path d="M 203.106719 30.614173 
L 203.106719 3.401575 
" clip-path="url(#p289d76438f)" style="fill: none; stroke: #ffffff; stroke-opacity: 0.9; stroke-width: 0.55; stroke-linecap: square"/>
     </g>
     <g id="line2d_20">
      <g>
       <use xlink:href="#md5e5607857" x="203.106719" y="30.614173" style="stroke: #000000; stroke-width: 0.6"/>
      </g>
     </g>
    </g>
    <g id="text_6">
     <text style="font-size: 8px; font-family: 'DejaVu Sans', 'Bitstream Vera Sans', 'Computer Modern Sans Serif', 'Lucida Grande', 'Verdana', 'Geneva', 'Lucid', 'Arial', 'Helvetica', 'Avant Garde', sans-serif; text-anchor: middle" x="133.937008" y="53.935423" transform="rotate(-0 133.937008 53.935423)">time</text>
    </g>
   </g>
   <g id="matplotlib.axis_2">
    <g id="ytick_1">
     <g id="line2d_21">
      <path d="M 59.527559 29.277791 
L 208.346457 29.277791 
" clip-path="url(#p289d76438f)" style="fill: none; stroke: #ffffff; stroke-width: 0.9; stroke-linecap: square"/>
     </g>
     <g id="line2d_22">
      <defs>
       <path id="m2cb5b7024c" d="M 0 0 
L -2 0 
" style="stroke: #000000; stroke-width: 0.4"/>
      </defs>
      <g>
       <use xlink:href="#m2cb5b7024c" x="59.527559" y="29.277791" style="stroke: #000000; stroke-width: 0.4"/>
      </g>
     </g>
     <g id="text_7">
      <text style="font-size: 8px; font-family: 'DejaVu Sans', 'Bitstream Vera Sans', 'Computer Modern Sans Serif', 'Lucida Grande', 'Verdana', 'Geneva', 'Lucid', 'Arial', 'Helvetica', 'Avant Garde', sans-serif; text-anchor: end" x="54.027559" y="32.317166" transform="rotate(-0 54.027559 32.317166)">−3.0</text>
     </g>
    </g>
    <g id="ytick_2">
     <g id="line2d_23">
      <path d="M 59.527559 21.725539 
L 208.346457 21.725539 
" clip-path="url(#p289d76438f)" style="fill: none; stroke: #ffffff; stroke-width: 0.9; stroke-linecap: square"/>
     </g>
     <g id="line2d_24">
      <g>
       <use xlink:href="#m2cb5b7024c" x="59.527559" y="21.725539" style="stroke: #000000; stroke-width: 0.4"/>
      </g>
     </g>
     <g id="text_8">
      <text style="font-size: 8px; font-family: 'DejaVu Sans', 'Bitstream Vera Sans', 'Computer Modern Sans Serif', 'Lucida Grande', 'Verdana', 'Geneva', 'Lucid', 'Arial', 'Helvetica', 'Avant Garde', sans-serif; text-anchor: end" x="54.027559" y="24.764914" transform="rotate(-0 54.027559 24.764914)">−1.5</text>
     </g>
    </g>
    <g id="ytick_3">
     <g id="line2d_25">
      <path d="M 59.527559 14.173287 
L 208.346457 14.173287 
" clip-path="url(#p289d76438f)" style="fill: none; stroke: #ffffff; stroke-width: 0.9; stroke-linecap: square"/>
     </g>
     <g id="line2d_26">
      <g>
       <use xlink:href="#m2cb5b7024c" x="59.527559" y="14.173287" style="stroke: #000000; stroke-width: 0.4"/>
      </g>
     </g>
     <g id="text_9">
      <text style="font-size: 8px; font-family: 'DejaVu Sans', 'Bitstream Vera Sans', 'Computer Modern Sans Serif', 'Lucida Grande', 'Verdana', 'Geneva', 'Lucid', 'Arial', 'Helvetica', 'Avant Garde', sans-serif; text-anchor: end" x="54.027559" y="17.212662" transform="rotate(-0 54.027559 17.212662)">0.0</text>
     </g>
    </g>
    <g id="ytick_4">
     <g id="line2d_27">
      <path d="M 59.527559 6.621035 
L 208.346457 6.621035 
" clip-path="url(#p289d76438f)" style="fill: none; stroke: #ffffff; stroke-width: 0.9; stroke-linecap: square"/>
     </g>
     <g id="line2d_28">
      <g>
       <use xlink:href="#m2cb5b7024c" x="59.527559" y="6.621035" style="stroke: #000000; stroke-width: 0.4"/>
      </g>
     </g>
     <g id="text_10">
      <text style="font-size: 8px; font-family: 'DejaVu Sans', 'Bitstream Vera Sans', 'Computer Modern Sans Serif', 'Lucida Grande', 'Verdana', 'Geneva', 'Lucid', 'Arial', 'Helvetica', 'Avant Garde', sans-serif; text-anchor: end" x="54.027559" y="9.66041" transform="rotate(-0 54.027559 9.66041)">1.5</text>
     </g>
    </g>
    <g id="ytick_5">
     <g id="line2d_29">
      <path d="M 59.527559 25.501665 
L 208.346457 25.501665 
" clip-path="url(#p289d76438f)" style="fill: none; stroke: #ffffff; stroke-opacity: 0.9; stroke-width: 0.55; stroke-linecap: square"/>
     </g>
     <g id="line2d_30">
      <defs>
       <path id="mfb1fbe9a2f" d="M 0 0 
L -2 0 
" style="stroke: #000000; stroke-width: 0.6"/>
      </defs>
      <g>
       <use xlink:href="#mfb1fbe9a2f" x="59.527559" y="25.501665" style="stroke: #000000; stroke-width: 0.6"/>
      </g>
     </g>
    </g>
    <g id="ytick_6">
     <g id="line2d_31">
      <path d="M 59.527559 17.949413 
L 208.346457 17.949413 
" clip-path="url(#p289d76438f)" style="fill: none; stroke: #ffffff; stroke-opacity: 0.9; stroke-width: 0.55; stroke-linecap: square"/>
     </g>
     <g id="line2d_32">
      <g>
       <use xlink:href="#mfb1fbe9a2f" x="59.527559" y="17.949413" style="stroke: #000000; stroke-width: 0.6"/>
      </g>
     </g>
    </g>
    <g id="ytick_7">
     <g id="line2d_33">
      <path d="M 59.527559 10.397161 
L 208.346457 10.397161 
" clip-path="url(#p289d76438f)" style="fill: none; stroke: #ffffff; stroke-opacity: 0.9; stroke-width: 0.55; stroke-linecap: square"/>
     </g>
     <g id="line2d_34">
      <g>
       <use xlink:href="#mfb1fbe9a2f" x="59.527559" y="10.397161" style="stroke: #000000; stroke-width: 0.6"/>
      </g>
     </g>
    </g>
    <g id="text_11">
     <text style="font-size: 8px; font-family: 'DejaVu Sans', 'Bitstream Vera Sans', 'Computer Modern Sans Serif', 'Lucida Grande', 'Verdana', 'Geneva', 'Lucid', 'Arial', 'Helvetica', 'Avant Garde', sans-serif; text-anchor: middle" x="28.715059" y="17.007874" transform="rotate(-90 28.715059 17.007874)">left_wrist_dx</text>
    </g>
   </g>
   <g id="line2d_35">
    <path d="M 60.264286 12.274987 
L 60.405506 12.166962 
L 60.440811 12.109654 
L 60.882124 8.839567 
L 61.111606 8.902936 
L 61.235174 9.783827 
L 61.499962 15.947615 
L 61.676486 15.947615 
L 61.817707 20.466472 
L 61.853012 20.466472 
L 62.082494 10.755836 
L 62.294324 10.755836 
L 62.435544 13.330249 
L 62.523806 13.330249 
L 62.647374 17.900566 
L 62.823899 19.834592 
L 63.000424 22.605915 
L 63.318169 22.583587 
L 63.441737 23.146357 
L 63.794787 23.357835 
L 63.88305 19.251939 
L 64.059574 14.66312 
L 64.200795 13.7851 
L 64.677412 13.7851 
L 64.853937 14.162124 
L 65.030462 14.162124 
L 65.259945 15.929115 
L 65.348207 18.12576 
L 65.471775 20.112734 
L 65.560037 20.112734 
L 65.78952 10.581253 
L 66.530925 10.581253 
L 66.672145 9.338012 
L 67.501812 9.338012 
L 67.7666 21.67133 
L 67.996083 25.516521 
L 68.031387 25.532577 
L 68.11965 25.76734 
L 68.384438 24.699851 
L 68.437395 24.757478 
L 68.61392 24.861144 
L 68.82575 25.042745 
L 69.002275 24.790439 
L 69.214105 24.835306 
L 69.267063 24.759711 
L 69.302368 24.483483 
L 69.443588 19.53965 
L 69.620113 9.052746 
L 69.74368 9.122281 
L 69.8849 9.653686 
L 72.091463 9.653686 
L 72.303294 14.899584 
L 72.532776 21.906307 
L 72.709301 24.05266 
L 72.885826 24.468916 
L 73.009393 24.518887 
L 73.150614 25.328329 
L 73.274181 25.328329 
L 73.450706 23.908272 
L 73.503664 23.540393 
L 73.627231 15.166562 
L 73.803756 9.370228 
L 73.856713 9.294207 
L 73.980281 8.876674 
L 74.209764 8.876674 
L 74.333331 9.013513 
L 74.509856 9.013513 
L 74.739339 12.979275 
L 75.092389 12.960561 
L 75.268914 16.461796 
L 75.480744 20.640949 
L 75.922056 21.384576 
L 76.010319 21.476546 
L 76.186844 21.809765 
L 76.275107 21.809765 
L 76.416327 17.837198 
L 76.504589 17.837198 
L 76.592852 18.484176 
L 76.716419 21.720772 
L 76.769376 21.865584 
L 76.981206 23.131366 
L 77.210689 23.63821 
L 77.475477 25.108771 
L 77.863832 24.8251 
L 78.040357 24.634142 
L 78.252187 24.410863 
L 78.569932 23.732732 
L 78.605237 23.732732 
L 78.781762 24.111562 
L 78.958287 23.920073 
L 79.223075 24.004069 
L 79.364294 23.745172 
L 79.75265 23.675105 
L 79.929175 23.608439 
L 80.282225 27.67691 
L 80.370487 27.67691 
L 80.45875 26.794319 
L 80.635275 25.099628 
L 80.688232 24.977036 
L 80.8118 24.372799 
L 80.95302 15.237161 
L 81.041283 14.432292 
L 81.076587 14.742757 
L 81.341375 15.732416 
L 81.394332 15.732416 
L 81.747382 13.88345 
L 81.959212 12.763438 
L 82.047475 12.69454 
L 82.224 12.597998 
L 82.630008 13.562672 
L 82.841838 13.488352 
L 82.9301 13.162257 
L 83.07132 12.563975 
L 83.28315 12.61618 
L 83.6362 11.00995 
L 83.865683 10.575406 
L 83.900988 10.575406 
L 83.98925 11.585373 
L 84.077513 13.078368 
L 84.218733 14.305129 
L 84.254038 14.305129 
L 84.430563 12.46403 
L 84.483521 12.46403 
L 84.607088 13.590635 
L 84.695351 13.590635 
L 84.836571 13.355022 
L 84.871875 13.355022 
L 85.013096 14.578274 
L 85.224926 14.60964 
L 85.40145 14.992936 
L 85.454408 14.992936 
L 85.666238 14.210714 
L 85.754501 14.172756 
L 85.842763 14.042829 
L 85.983983 13.499835 
L 86.195813 13.584362 
L 86.372338 13.193942 
L 86.725388 12.487209 
L 86.848956 11.976005 
L 86.937218 11.976005 
L 87.202006 20.457222 
L 87.254963 19.770478 
L 87.378531 19.770478 
L 87.608014 24.122514 
L 87.696276 25.646875 
L 87.872801 27.340822 
L 87.961064 27.340822 
L 88.049326 26.39199 
L 88.137589 24.626807 
L 88.314113 8.6518 
L 88.437681 8.6518 
L 88.525943 9.166087 
L 88.755426 13.621681 
L 88.967256 14.733294 
L 89.108476 16.65169 
L 89.143781 16.65169 
L 89.373264 15.601745 
L 89.549789 14.874492 
L 89.585094 14.874492 
L 89.726314 15.152421 
L 89.938144 15.077144 
L 90.026406 14.887144 
L 90.079364 14.736909 
L 90.202932 13.871223 
L 90.291194 13.871223 
L 90.555982 14.653445 
L 90.820769 14.709159 
L 91.138514 15.228762 
L 91.579827 15.228762 
L 91.703394 15.480961 
L 91.756352 15.480961 
L 91.879919 15.175281 
L 94.174745 15.175281 
L 94.439532 13.885045 
L 94.757277 13.315469 
L 94.792582 13.334714 
L 94.969107 13.611049 
L 95.05737 13.525459 
L 95.110327 12.937383 
L 95.233895 10.347448 
L 95.286853 10.347448 
L 95.463377 20.152499 
L 95.55164 20.152499 
L 95.710513 18.116297 
L 95.887037 14.394972 
L 97.616983 14.394972 
L 97.74055 5.083156 
L 97.793508 5.083156 
L 97.917075 5.567672 
L 98.270125 5.540773 
L 98.411346 9.405634 
L 98.58787 13.407546 
L 98.852658 18.405816 
L 99.029183 19.093517 
L 99.117445 19.185061 
L 99.241013 19.341994 
L 99.293971 19.341994 
L 99.329275 19.140299 
L 99.558758 15.203989 
L 99.682326 15.203989 
L 100.035376 19.984614 
L 100.264858 20.182801 
L 100.388426 20.304223 
L 101.059221 20.205342 
L 101.147483 20.094021 
L 101.359313 15.64874 
L 101.588796 15.637257 
L 101.800626 14.931588 
L 101.888888 14.931588 
L 102.030108 15.079484 
L 102.118371 14.97114 
L 102.153676 14.957956 
L 102.294896 12.918777 
L 102.559683 9.920347 
L 102.824471 9.393832 
L 102.948039 8.847117 
L 103.036301 8.847117 
L 103.301089 10.966782 
L 103.442309 13.589253 
L 103.477614 13.589253 
L 103.618834 12.459246 
L 103.654139 12.459246 
L 103.742401 13.235408 
L 103.971884 16.43564 
L 104.007189 16.43564 
L 104.095451 15.6363 
L 104.236672 11.929968 
L 112.33917 11.929968 
L 112.48039 11.310526 
L 112.745178 11.310526 
L 112.868746 18.097903 
L 112.957008 18.097903 
L 113.009965 17.86952 
L 113.486583 6.552122 
L 113.574845 6.298966 
L 113.751371 5.26029 
L 113.927896 5.363319 
L 113.963201 5.425092 
L 114.051463 5.363319 
L 114.404513 4.968964 
L 114.457471 4.968964 
L 114.581038 5.202451 
L 114.757563 5.202451 
L 114.898783 5.906844 
L 114.987046 5.821891 
L 115.110613 5.676761 
L 115.516621 5.420946 
L 115.640188 5.963514 
L 115.904976 5.952032 
L 116.169763 5.832312 
L 116.434551 5.99605 
L 116.964126 6.021035 
L 117.140651 5.606587 
L 117.405439 5.728008 
L 117.581964 5.733962 
L 117.634921 5.604779 
L 117.758489 4.889115 
L 117.935014 4.667324 
L 117.987971 4.754935 
L 118.023276 4.667324 
L 118.164496 4.638511 
L 118.341021 5.094745 
L 118.782334 5.094745 
L 118.905902 5.495585 
L 121.024202 5.495585 
L 121.200727 5.292188 
L 122.70119 5.292188 
L 122.824757 5.146099 
L 122.965977 5.146099 
L 123.142502 5.468153 
L 123.26607 5.539816 
L 124.590007 5.539816 
L 124.81949 13.282084 
L 124.996015 14.932757 
L 125.119582 15.091285 
L 125.260803 17.307068 
L 125.296108 17.307068 
L 125.702115 11.399306 
L 125.87864 11.41887 
L 126.002208 11.986956 
L 126.09047 11.879251 
L 126.620045 11.756447 
L 126.79657 11.477667 
L 127.026053 11.558154 
L 127.29084 16.139104 
L 127.379103 16.22714 
L 127.50267 15.942193 
L 127.996941 11.458528 
L 128.032245 11.353481 
L 128.208771 8.734414 
L 128.297033 8.734414 
L 128.438253 9.053703 
L 128.614778 10.995277 
L 128.738346 10.965187 
L 128.914871 10.498959 
L 129.003133 10.654404 
L 129.409141 14.406137 
L 129.532708 14.406137 
L 129.709233 14.211352 
L 129.885758 14.117787 
L 130.062283 11.25343 
L 130.291766 11.185277 
L 130.415333 11.210051 
L 130.503596 11.168265 
L 130.733078 9.262629 
L 130.821341 9.262629 
L 130.891951 10.818568 
L 131.156738 14.071749 
L 131.297959 14.20763 
L 131.333264 14.104709 
L 131.386221 14.071749 
L 131.562746 10.831964 
L 131.651009 10.831964 
L 131.862839 11.777074 
L 132.004059 11.777074 
L 132.392414 6.300986 
L 132.657201 24.578536 
L 132.710159 24.823718 
L 132.886684 27.413653 
L 132.974946 27.335611 
L 133.327996 25.782225 
L 133.451564 25.782225 
L 133.681047 23.555172 
L 133.716351 23.043542 
L 133.892877 14.687043 
L 133.945834 14.687043 
L 133.981139 14.923507 
L 134.334189 24.800114 
L 134.387146 24.800114 
L 134.422452 24.667422 
L 134.687239 22.409961 
L 134.952027 21.924806 
L 135.004984 21.69419 
L 135.358034 15.86362 
L 135.534559 15.917632 
L 135.658127 16.543665 
L 135.74639 16.543665 
L 136.011177 18.083018 
L 136.064135 18.10811 
L 136.187702 18.518838 
L 136.240659 18.518838 
L 136.364227 19.026107 
L 136.417184 18.754451 
L 136.505447 19.583668 
L 136.629015 18.665564 
L 136.681972 18.665564 
L 136.858497 17.26507 
L 136.893802 17.26507 
L 137.035022 18.011887 
L 137.070327 18.473863 
L 137.211547 22.428461 
L 137.246852 22.428461 
L 137.388072 20.094127 
L 137.476335 20.160155 
L 137.65286 22.519793 
L 137.688165 22.519793 
L 137.776427 20.333143 
L 137.917647 15.183255 
L 138.041215 15.183255 
L 138.306002 17.330247 
L 138.623747 17.330247 
L 138.835577 16.892513 
L 139.012102 16.892513 
L 139.153322 14.248565 
L 139.188628 14.248565 
L 139.329847 15.643636 
L 139.541678 15.643636 
L 139.753508 13.083365 
L 139.84177 13.083365 
L 140.106557 13.727154 
L 140.247778 13.657406 
L 140.33604 13.502599 
L 140.459608 14.277698 
L 140.90092 22.601237 
L 141.077445 23.778026 
L 141.130403 23.778026 
L 141.306928 20.350474 
L 141.342233 20.350474 
L 141.483453 21.212119 
L 141.518758 21.212119 
L 141.659978 18.044741 
L 141.924765 11.263957 
L 142.048333 11.033553 
L 142.136595 11.06343 
L 142.189553 11.301276 
L 142.454341 14.748817 
L 142.719128 15.501056 
L 142.983916 15.448639 
L 143.01922 15.323496 
L 143.248703 12.065955 
L 143.284008 12.065955 
L 143.336965 12.233946 
L 143.548796 13.990943 
L 143.690016 14.400608 
L 143.725321 14.400608 
L 143.866541 14.594754 
L 144.078371 14.539785 
L 144.219591 15.197928 
L 144.343158 15.197928 
L 144.484379 15.858941 
L 144.519683 15.858941 
L 144.837428 13.131529 
L 144.872733 13.089213 
L 145.190478 11.975474 
L 145.225784 11.975474 
L 145.367004 12.147824 
L 145.402308 12.147824 
L 145.543529 11.983129 
L 145.578834 11.983129 
L 145.631791 12.130069 
L 145.808316 13.277299 
L 145.843621 13.277299 
L 146.073104 11.788238 
L 146.249628 13.293567 
L 146.867466 13.327378 
L 146.991034 12.768647 
L 147.255821 12.64999 
L 147.344084 11.712536 
L 147.520609 9.488779 
L 147.608872 9.488779 
L 147.926617 11.596749 
L 148.050184 14.200081 
L 148.191404 14.376579 
L 148.226709 14.376579 
L 148.615064 11.711791 
L 148.756284 11.924226 
L 148.879852 11.802166 
L 149.109334 11.873829 
L 149.144639 11.998971 
L 149.321164 14.07143 
L 149.462384 14.359035 
L 149.497689 14.359035 
L 149.674214 12.026509 
L 149.727172 12.026509 
L 149.939002 10.948814 
L 150.080222 10.887465 
L 156.911741 13.649432 
L 157.000003 13.531412 
L 157.229486 9.074436 
L 157.529578 8.230652 
L 157.653146 8.408106 
L 157.741408 8.408106 
L 157.882628 8.900597 
L 158.006196 9.702064 
L 158.059153 9.75278 
L 158.182721 11.472563 
L 158.447508 14.77476 
L 158.588728 14.674284 
L 158.712296 14.643344 
L 158.853516 14.830261 
L 158.977083 17.797326 
L 159.153609 17.797326 
L 159.683184 11.086609 
L 159.824404 10.712138 
L 159.947971 10.076748 
L 160.000929 10.076748 
L 160.124496 11.636408 
L 160.301021 11.936241 
L 160.477546 13.120579 
L 160.742334 15.053222 
L 160.830596 14.971671 
L 160.883554 15.070127 
L 160.918859 14.928185 
L 161.095384 14.544463 
L 161.360171 11.040678 
L 161.589654 10.461427 
L 161.677916 10.544572 
L 161.889746 16.200346 
L 162.030966 19.396857 
L 162.242796 19.477132 
L 162.419321 15.411 
L 162.507584 15.411 
L 162.684109 21.683346 
L 162.772371 21.683346 
L 162.948897 20.81011 
L 163.001854 20.81011 
L 163.125422 19.553153 
L 163.301946 12.017897 
L 163.443167 10.289501 
L 163.707954 10.380515 
L 163.743259 10.534471 
L 163.796217 11.528064 
L 164.008047 22.871724 
L 164.061004 22.97911 
L 164.096309 22.871724 
L 164.184572 22.871724 
L 164.272834 23.23333 
L 164.449359 25.022649 
L 164.714147 25.022649 
L 164.855367 25.782756 
L 164.890672 25.782756 
L 165.331984 12.839672 
L 165.384942 12.839672 
L 165.473204 13.599991 
L 165.561467 13.560014 
L 165.64973 13.560014 
L 165.773297 12.885284 
L 165.86156 13.327059 
L 165.914517 13.187456 
L 166.038085 13.187456 
L 166.214609 9.71461 
L 166.302872 9.71461 
L 166.479397 12.378015 
L 166.655922 16.709211 
L 166.77949 16.709211 
L 166.92071 13.999662 
L 166.956015 13.999662 
L 167.008972 14.136819 
L 167.13254 15.083843 
L 167.220802 15.083843 
L 167.450285 10.151281 
L 167.538547 10.197532 
L 167.715072 11.524343 
L 167.83864 13.666018 
L 167.891598 13.955644 
L 168.015165 15.169433 
L 168.068122 15.169433 
L 168.421173 11.222703 
L 168.54474 7.593774 
L 168.597697 7.593774 
L 168.721265 11.209412 
L 168.950748 11.209412 
L 169.074315 21.822735 
L 169.25084 22.815692 
L 169.515628 25.018503 
L 169.780415 25.018503 
L 169.921635 12.890281 
L 170.009898 12.890281 
L 170.045203 13.127702 
L 170.186423 14.599964 
L 170.221728 14.599964 
L 170.45121 13.288889 
L 170.486516 13.232005 
L 170.627735 12.673701 
L 170.751303 12.620751 
L 170.892523 12.76599 
L 171.016091 14.829517 
L 171.245573 14.829517 
L 171.422098 18.33224 
L 171.545666 19.040674 
L 171.598623 19.040674 
L 171.810453 17.149497 
L 171.951673 17.149497 
L 172.128198 29.377237 
L 172.251765 29.377237 
L 172.516553 14.799321 
L 172.781341 10.256541 
L 172.922561 10.082596 
L 172.957866 10.256541 
L 173.310916 20.003327 
L 173.540398 20.67997 
L 173.840491 25.042106 
L 173.981711 25.569365 
L 174.017016 25.565005 
L 174.158236 25.376174 
L 174.193541 25.360864 
L 174.334761 24.057444 
L 174.458329 24.057444 
L 174.599549 16.507515 
L 175.111471 12.25957 
L 175.199734 12.335698 
L 175.429216 13.933528 
L 175.694004 9.967873 
L 175.870529 10.014548 
L 175.905834 10.169888 
L 176.082359 12.329637 
L 176.223579 12.792039 
L 176.488366 12.779811 
L 176.611934 13.193091 
L 176.753154 13.084215 
L 177.106204 11.420465 
L 177.141509 11.420465 
L 177.406297 12.99214 
L 177.635779 13.077836 
L 177.900567 14.036981 
L 177.935872 13.89185 
L 178.077092 13.805621 
L 178.288922 14.125017 
L 178.377184 14.103859 
L 178.518404 12.795229 
L 178.606667 12.865402 
L 178.641972 12.924093 
L 178.818497 14.187642 
L 178.90676 14.187642 
L 179.083284 12.823085 
L 179.401029 12.002161 
L 179.577554 10.663973 
L 179.701122 10.549994 
L 179.789384 10.570196 
L 179.877647 11.255238 
L 180.142434 15.367195 
L 180.495485 15.367195 
L 180.636705 18.17201 
L 180.672009 18.17201 
L 180.81323 16.677208 
L 180.848535 16.677208 
L 180.989755 26.632919 
L 181.02506 26.632919 
L 181.37811 12.620964 
L 181.466372 12.620964 
L 181.73116 7.339873 
L 181.819423 7.339873 
L 182.22543 10.468656 
L 182.525522 9.257419 
L 182.613785 9.912265 
L 183.055097 15.92752 
L 183.196318 15.233546 
L 183.372842 11.799615 
L 183.49641 11.39197 
L 183.63763 11.494998 
L 183.672935 11.529234 
L 183.814155 11.934114 
L 183.937723 12.145166 
L 183.973028 12.213107 
L 184.114248 12.655944 
L 184.20251 12.599699 
L 184.379035 12.202262 
L 184.55556 12.046073 
L 184.643823 12.12858 
L 184.679128 12.187271 
L 184.820348 12.509218 
L 184.943916 12.417035 
L 185.085135 12.043734 
L 185.349923 11.667242 
L 186.232548 11.615462 
L 186.267853 11.460762 
L 186.444378 10.355847 
L 186.620903 10.198063 
L 186.709166 10.209121 
L 186.885691 10.90033 
L 187.150478 12.642335 
L 187.468223 12.336974 
L 187.821273 10.790073 
L 187.909536 11.454488 
L 188.033103 12.5644 
L 188.121366 12.5644 
L 188.297891 11.032596 
L 188.386154 10.909155 
L 188.439111 10.696934 
L 188.474416 10.909155 
L 188.527373 10.909155 
L 188.739204 10.010934 
L 188.827466 10.010934 
L 189.003991 12.856471 
L 189.092253 12.857853 
L 189.233474 13.68505 
L 189.268779 13.68505 
L 189.445304 12.59534 
L 189.498261 12.59534 
L 189.886616 15.174431 
L 190.116099 15.174431 
L 190.733936 11.568361 
L 190.769242 11.568361 
L 190.910461 11.354438 
L 190.945766 11.354438 
L 191.210554 8.506775 
L 191.387079 11.543906 
L 191.475341 11.44343 
L 191.528299 10.868114 
L 191.704824 7.102347 
L 191.793086 7.008038 
L 191.881349 7.147428 
L 192.181442 14.178604 
L 192.357967 15.327855 
L 192.499187 15.327855 
L 192.587449 14.907027 
L 192.711017 14.688107 
L 192.799279 14.700015 
L 192.922847 14.939243 
L 192.975804 14.939243 
L 193.064067 13.920131 
L 193.275897 12.332296 
L 193.36416 12.178126 
L 193.505379 12.481893 
L 193.717209 14.32969 
L 194.246784 14.368711 
L 194.42331 12.935682 
L 194.476267 12.759291 
L 194.599834 11.349547 
L 194.688097 11.349547 
L 195.005842 13.587339 
L 195.182367 13.62923 
L 195.447155 15.276395 
L 195.48246 15.276395 
L 195.747247 14.625907 
L 196.012035 10.844936 
L 196.100297 10.844936 
L 196.18856 11.937198 
L 196.32978 13.006812 
L 196.365085 13.006812 
L 196.54161 11.476816 
L 196.594568 11.476816 
L 196.718135 12.518468 
L 196.771092 12.518468 
L 196.806398 12.644887 
L 196.89466 12.550047 
L 197.071185 12.550047 
L 197.212405 12.327511 
L 197.300667 12.433303 
L 197.335973 12.450846 
L 197.918505 25.669628 
L 198.042072 25.928101 
L 198.359818 25.861648 
L 198.44808 24.607667 
L 198.571648 18.359459 
L 198.889393 17.46145 
L 198.924698 17.456665 
L 199.065918 16.738769 
L 199.330705 16.726967 
L 199.719061 14.510865 
L 199.807323 14.749774 
L 200.036806 16.021404 
L 200.07211 16.021404 
L 200.248636 15.092349 
L 200.478118 11.754002 
L 200.601686 11.754002 
L 200.831168 15.262573 
L 200.866473 15.262573 
L 201.007693 13.972868 
L 201.095956 13.972868 
L 201.219523 14.252712 
L 201.360743 14.374877 
L 201.660836 14.434844 
L 201.749098 14.533937 
L 201.837361 14.298962 
L 201.872666 14.360524 
L 201.960928 14.740205 
L 202.013886 14.462701 
L 202.049191 14.462701 
L 202.225716 16.071163 
L 202.578766 16.255103 
L 202.667028 16.490291 
L 202.719986 16.46456 
L 202.808248 16.46456 
L 202.931816 16.038841 
L 203.073036 16.147716 
L 203.249561 16.308796 
L 203.602611 16.33038 
L 203.726179 16.488483 
L 203.779136 16.583643 
L 203.814441 16.488483 
L 203.990966 16.583643 
L 204.167491 16.755993 
L 204.396974 16.603525 
L 204.785329 16.373228 
L 204.838286 16.401404 
L 204.961854 16.654029 
L 205.367861 16.654029 
L 205.491429 14.109281 
L 205.632649 13.923109 
L 205.667954 13.923109 
L 205.985699 17.100269 
L 206.109267 18.027836 
L 206.550579 17.957981 
L 206.780061 17.85591 
L 206.956587 17.789884 
L 207.168417 17.230196 
L 207.221374 17.230196 
L 207.309637 17.548423 
L 207.344942 17.420409 
L 207.397899 17.175333 
L 207.609729 12.62745 
L 207.609729 12.62745 
" clip-path="url(#p289d76438f)" style="fill: none; stroke: #5c80b5; stroke-width: 0.5; stroke-linecap: square"/>
   </g>
   <g id="patch_3">
    <path d="M 59.527559 30.614173 
L 59.527559 3.401575 
" style="fill: none; stroke: #000000; stroke-width: 0.4; stroke-linejoin: miter; stroke-linecap: square"/>
   </g>
   <g id="patch_4">
    <path d="M 208.346457 30.614173 
L 208.346457 3.401575 
" style="fill: none; stroke: #000000; stroke-width: 0.4; stroke-linejoin: miter; stroke-linecap: square"/>
   </g>
   <g id="patch_5">
    <path d="M 59.527559 30.614173 
L 208.346457 30.614173 
" style="fill: none; stroke: #000000; stroke-width: 0.4; stroke-linejoin: miter; stroke-linecap: square"/>
   </g>
   <g id="patch_6">
    <path d="M 59.527559 3.401575 
L 208.346457 3.401575 
" style="fill: none; stroke: #000000; stroke-width: 0.4; stroke-linejoin: miter; stroke-linecap: square"/>
   </g>
  </g>
 </g>
 <defs>
  <clipPath id="p289d76438f">
   <rect x="59.527559" y="3.401575" width="148.818898" height="27.212598"/>
  </clipPath>
 </defs>
</svg>
