<?xml version="1.0" encoding="utf-8" standalone="no"?>
<!DOCTYPE svg PUBLIC "-//W3C//DTD SVG 1.1//EN"
  "http://www.w3.org/Graphics/SVG/1.1/DTD/svg11.dtd">
<svg xmlns:xlink="http://www.w3.org/1999/xlink" width="212.598425pt" height="42.519685pt" viewBox="0 0 212.598425 42.519685" xmlns="http://www.w3.org/2000/svg" version="1.1">
 <metadata>
  <rdf:RDF xmlns:dc="http://purl.org/dc/elements/1.1/" xmlns:cc="http://creativecommons.org/ns#" xmlns:rdf="http://www.w3.org/1999/02/22-rdf-syntax-ns#">
   <cc:Work>
    <dc:type rdf:resource="http://purl.org/dc/dcmitype/StillImage"/>
    <dc:date>2026-06-01T17:59:21.086915</dc:date>
    <dc:format>image/svg+xml</dc:format>
    <dc:creator>
     <cc:Agent>
      <dc:title>Matplotlib v3.10.8, https://matplotlib.org/</dc:title>
     </cc:Agent>
    </dc:creator>
   </cc:Work>
  </rdf:RDF>
 </metadata>
 <defs>
  <style type="text/css">*{stroke-linejoin: round; stroke-linecap: butt}</style>
 </defs>
 <g id="figure_1">
  <g id="patch_1">
   <path d="M 0 42.519685 
L 212.598425 42.519685 
L 212.598425 0 
L 0 0 
z
" style="fill: #ffffff"/>
  </g>
  <g id="axes_1">
   <g id="patch_2">
    <path d="M 59.527559 30.614173 
L 208.346457 30.614173 
L 208.346457 3.401575 
L 59.527559 3.401575 
z
" style="fill: #eaeaf2"/>
   </g>
   <g id="matplotlib.axis_1">
    <g id="xtick_1">
     <g id="line2d_1">
      <path d="M 60.264286 30.614173 
L 60.264286 3.401575 
" clip-path="url(#pf59ee5483b)" style="fill: none; stroke: #ffffff; stroke-width: 0.9; stroke-linecap: square"/>
     </g>
     <g id="line2d_2">
      <defs>
       <path id="mf553f8ade8" d="M 0 0 
L 0 2 
" style="stroke: #000000; stroke-width: 0.4"/>
      </defs>
      <g>
       <use xlink:href="#mf553f8ade8" x="60.264286" y="30.614173" style="stroke: #000000; stroke-width: 0.4"/>
      </g>
     </g>
     <g id="text_1">
      <text style="font-size: 8px; font-family: 'DejaVu Sans', 'Bitstream Vera Sans', 'Computer Modern Sans Serif', 'Lucida Grande', 'Verdana', 'Geneva', 'Lucid', 'Arial', 'Helvetica', 'Avant Garde', sans-serif; text-anchor: middle" x="60.264286" y="42.192923" transform="rotate(-0 60.264286 42.192923)">0</text>
     </g>
    </g>
    <g id="xtick_2">
     <g id="line2d_3">
      <path d="M 92.007049 30.614173 
L 92.007049 3.401575 
" clip-path="url(#pf59ee5483b)" style="fill: none; stroke: #ffffff; stroke-width: 0.9; stroke-linecap: square"/>
     </g>
     <g id="line2d_4">
      <g>
       <use xlink:href="#mf553f8ade8" x="92.007049" y="30.614173" style="stroke: #000000; stroke-width: 0.4"/>
      </g>
     </g>
     <g id="text_2">
      <text style="font-size: 8px; font-family: 'DejaVu Sans', 'Bitstream Vera Sans', 'Computer Modern Sans Serif', 'Lucida Grande', 'Verdana', 'Geneva', 'Lucid', 'Arial', 'Helvetica', 'Avant Garde', sans-serif; text-anchor: middle" x="92.007049" y="42.192923" transform="rotate(-0 92.007049 42.192923)">60</text>
     </g>
    </g>
    <g id="xtick_3">
     <g id="line2d_5">
      <path d="M 123.749812 30.614173 
L 123.749812 3.401575 
" clip-path="url(#pf59ee5483b)" style="fill: none; stroke: #ffffff; stroke-width: 0.9; stroke-linecap: square"/>
     </g>
     <g id="line2d_6">
      <g>
       <use xlink:href="#mf553f8ade8" x="123.749812" y="30.614173" style="stroke: #000000; stroke-width: 0.4"/>
      </g>
     </g>
     <g id="text_3">
      <text style="font-size: 8px; font-family: 'DejaVu Sans', 'Bitstream Vera Sans', 'Computer Modern Sans Serif', 'Lucida Grande', 'Verdana', 'Geneva', 'Lucid', 'Arial', 'Helvetica', 'Avant Garde', sans-serif; text-anchor: middle" x="123.749812" y="42.192923" transform="rotate(-0 123.749812 42.192923)">120</text>
     </g>
    </g>
    <g id="xtick_4">
     <g id="line2d_7">
      <path d="M 155.492574 30.614173 
L 155.492574 3.401575 
" clip-path="url(#pf59ee5483b)" style="fill: none; stroke: #ffffff; stroke-width: 0.9; stroke-linecap: square"/>
     </g>
     <g id="line2d_8">
      <g>
       <use xlink:href="#mf553f8ade8" x="155.492574" y="30.614173" style="stroke: #000000; stroke-width: 0.4"/>
      </g>
     </g>
     <g id="text_4">
      <text style="font-size: 8px; font-family: 'DejaVu Sans', 'Bitstream Vera Sans', 'Computer Modern Sans Serif', 'Lucida Grande', 'Verdana', 'Geneva', 'Lucid', 'Arial', 'Helvetica', 'Avant Garde', sans-serif; text-anchor: middle" x="155.492574" y="42.192923" transform="rotate(-0 155.492574 42.192923)">180</text>
     </g>
    </g>
    <g id="xtick_5">
     <g id="line2d_9">
      <path d="M 187.235337 30.614173 
L 187.235337 3.401575 
" clip-path="url(#pf59ee5483b)" style="fill: none; stroke: #ffffff; stroke-width: 0.9; stroke-linecap: square"/>
     </g>
     <g id="line2d_10">
      <g>
       <use xlink:href="#mf553f8ade8" x="187.235337" y="30.614173" style="stroke: #000000; stroke-width: 0.4"/>
      </g>
     </g>
     <g id="text_5">
      <text style="font-size: 8px; font-family: 'DejaVu Sans', 'Bitstream Vera Sans', 'Computer Modern Sans Serif', 'Lucida Grande', 'Verdana', 'Geneva', 'Lucid', 'Arial', 'Helvetica', 'Avant Garde', sans-serif; text-anchor: middle" x="187.235337" y="42.192923" transform="rotate(-0 187.235337 42.192923)">240</text>
     </g>
    </g>
    <g id="xtick_6">
     <g id="line2d_11">
      <path d="M 76.135668 30.614173 
L 76.135668 3.401575 
" clip-path="url(#pf59ee5483b)" style="fill: none; stroke: #ffffff; stroke-opacity: 0.9; stroke-width: 0.55; stroke-linecap: square"/>
     </g>
     <g id="line2d_12">
      <defs>
       <path id="m5749d08cdd" d="M 0 0 
L 0 2 
" style="stroke: #000000; stroke-width: 0.6"/>
      </defs>
      <g>
       <use xlink:href="#m5749d08cdd" x="76.135668" y="30.614173" style="stroke: #000000; stroke-width: 0.6"/>
      </g>
     </g>
    </g>
    <g id="xtick_7">
     <g id="line2d_13">
      <path d="M 107.87843 30.614173 
L 107.87843 3.401575 
" clip-path="url(#pf59ee5483b)" style="fill: none; stroke: #ffffff; stroke-opacity: 0.9; stroke-width: 0.55; stroke-linecap: square"/>
     </g>
     <g id="line2d_14">
      <g>
       <use xlink:href="#m5749d08cdd" x="107.87843" y="30.614173" style="stroke: #000000; stroke-width: 0.6"/>
      </g>
     </g>
    </g>
    <g id="xtick_8">
     <g id="line2d_15">
      <path d="M 139.621193 30.614173 
L 139.621193 3.401575 
" clip-path="url(#pf59ee5483b)" style="fill: none; stroke: #ffffff; stroke-opacity: 0.9; stroke-width: 0.55; stroke-linecap: square"/>
     </g>
     <g id="line2d_16">
      <g>
       <use xlink:href="#m5749d08cdd" x="139.621193" y="30.614173" style="stroke: #000000; stroke-width: 0.6"/>
      </g>
     </g>
    </g>
    <g id="xtick_9">
     <g id="line2d_17">
      <path d="M 171.363956 30.614173 
L 171.363956 3.401575 
" clip-path="url(#pf59ee5483b)" style="fill: none; stroke: #ffffff; stroke-opacity: 0.9; stroke-width: 0.55; stroke-linecap: square"/>
     </g>
     <g id="line2d_18">
      <g>
       <use xlink:href="#m5749d08cdd" x="171.363956" y="30.614173" style="stroke: #000000; stroke-width: 0.6"/>
      </g>
     </g>
    </g>
    <g id="xtick_10">
     <g id="line2d_19">
      <path d="M 203.106719 30.614173 
L 203.106719 3.401575 
" clip-path="url(#pf59ee5483b)" style="fill: none; stroke: #ffffff; stroke-opacity: 0.9; stroke-width: 0.55; stroke-linecap: square"/>
     </g>
     <g id="line2d_20">
      <g>
       <use xlink:href="#m5749d08cdd" x="203.106719" y="30.614173" style="stroke: #000000; stroke-width: 0.6"/>
      </g>
     </g>
    </g>
    <g id="text_6">
     <text style="font-size: 8px; font-family: 'DejaVu Sans', 'Bitstream Vera Sans', 'Computer Modern Sans Serif', 'Lucida Grande', 'Verdana', 'Geneva', 'Lucid', 'Arial', 'Helvetica', 'Avant Garde', sans-serif; text-anchor: middle" x="133.937008" y="53.935423" transform="rotate(-0 133.937008 53.935423)">time</text>
    </g>
   </g>
   <g id="matplotlib.axis_2">
    <g id="ytick_1">
     <g id="line2d_21">
      <path d="M 59.527559 24.30991 
L 208.346457 24.30991 
" clip-path="url(#pf59ee5483b)" style="fill: none; stroke: #ffffff; stroke-width: 0.9; stroke-linecap: square"/>
     </g>
     <g id="line2d_22">
      <defs>
       <path id="m81bd9eb5a6" d="M 0 0 
L -2 0 
" style="stroke: #000000; stroke-width: 0.4"/>
      </defs>
      <g>
       <use xlink:href="#m81bd9eb5a6" x="59.527559" y="24.30991" style="stroke: #000000; stroke-width: 0.4"/>
      </g>
     </g>
     <g id="text_7">
      <text style="font-size: 8px; font-family: 'DejaVu Sans', 'Bitstream Vera Sans', 'Computer Modern Sans Serif', 'Lucida Grande', 'Verdana', 'Geneva', 'Lucid', 'Arial', 'Helvetica', 'Avant Garde', sans-serif; text-anchor: end" x="54.027559" y="27.349285" transform="rotate(-0 54.027559 27.349285)">−1.5</text>
     </g>
    </g>
    <g id="ytick_2">
     <g id="line2d_23">
      <path d="M 59.527559 17.031973 
L 208.346457 17.031973 
" clip-path="url(#pf59ee5483b)" style="fill: none; stroke: #ffffff; stroke-width: 0.9; stroke-linecap: square"/>
     </g>
     <g id="line2d_24">
      <g>
       <use xlink:href="#m81bd9eb5a6" x="59.527559" y="17.031973" style="stroke: #000000; stroke-width: 0.4"/>
      </g>
     </g>
     <g id="text_8">
      <text style="font-size: 8px; font-family: 'DejaVu Sans', 'Bitstream Vera Sans', 'Computer Modern Sans Serif', 'Lucida Grande', 'Verdana', 'Geneva', 'Lucid', 'Arial', 'Helvetica', 'Avant Garde', sans-serif; text-anchor: end" x="54.027559" y="20.071348" transform="rotate(-0 54.027559 20.071348)">0.0</text>
     </g>
    </g>
    <g id="ytick_3">
     <g id="line2d_25">
      <path d="M 59.527559 9.754036 
L 208.346457 9.754036 
" clip-path="url(#pf59ee5483b)" style="fill: none; stroke: #ffffff; stroke-width: 0.9; stroke-linecap: square"/>
     </g>
     <g id="line2d_26">
      <g>
       <use xlink:href="#m81bd9eb5a6" x="59.527559" y="9.754036" style="stroke: #000000; stroke-width: 0.4"/>
      </g>
     </g>
     <g id="text_9">
      <text style="font-size: 8px; font-family: 'DejaVu Sans', 'Bitstream Vera Sans', 'Computer Modern Sans Serif', 'Lucida Grande', 'Verdana', 'Geneva', 'Lucid', 'Arial', 'Helvetica', 'Avant Garde', sans-serif; text-anchor: end" x="54.027559" y="12.793411" transform="rotate(-0 54.027559 12.793411)">1.5</text>
     </g>
    </g>
    <g id="ytick_4">
     <g id="line2d_27">
      <path d="M 59.527559 27.948878 
L 208.346457 27.948878 
" clip-path="url(#pf59ee5483b)" style="fill: none; stroke: #ffffff; stroke-opacity: 0.9; stroke-width: 0.55; stroke-linecap: square"/>
     </g>
     <g id="line2d_28">
      <defs>
       <path id="m9acc3f088a" d="M 0 0 
L -2 0 
" style="stroke: #000000; stroke-width: 0.6"/>
      </defs>
      <g>
       <use xlink:href="#m9acc3f088a" x="59.527559" y="27.948878" style="stroke: #000000; stroke-width: 0.6"/>
      </g>
     </g>
    </g>
    <g id="ytick_5">
     <g id="line2d_29">
      <path d="M 59.527559 20.670941 
L 208.346457 20.670941 
" clip-path="url(#pf59ee5483b)" style="fill: none; stroke: #ffffff; stroke-opacity: 0.9; stroke-width: 0.55; stroke-linecap: square"/>
     </g>
     <g id="line2d_30">
      <g>
       <use xlink:href="#m9acc3f088a" x="59.527559" y="20.670941" style="stroke: #000000; stroke-width: 0.6"/>
      </g>
     </g>
    </g>
    <g id="ytick_6">
     <g id="line2d_31">
      <path d="M 59.527559 13.393004 
L 208.346457 13.393004 
" clip-path="url(#pf59ee5483b)" style="fill: none; stroke: #ffffff; stroke-opacity: 0.9; stroke-width: 0.55; stroke-linecap: square"/>
     </g>
     <g id="line2d_32">
      <g>
       <use xlink:href="#m9acc3f088a" x="59.527559" y="13.393004" style="stroke: #000000; stroke-width: 0.6"/>
      </g>
     </g>
    </g>
    <g id="ytick_7">
     <g id="line2d_33">
      <path d="M 59.527559 6.115068 
L 208.346457 6.115068 
" clip-path="url(#pf59ee5483b)" style="fill: none; stroke: #ffffff; stroke-opacity: 0.9; stroke-width: 0.55; stroke-linecap: square"/>
     </g>
     <g id="line2d_34">
      <g>
       <use xlink:href="#m9acc3f088a" x="59.527559" y="6.115068" style="stroke: #000000; stroke-width: 0.6"/>
      </g>
     </g>
    </g>
    <g id="text_10">
     <text style="font-size: 8px; font-family: 'DejaVu Sans', 'Bitstream Vera Sans', 'Computer Modern Sans Serif', 'Lucida Grande', 'Verdana', 'Geneva', 'Lucid', 'Arial', 'Helvetica', 'Avant Garde', sans-serif; text-anchor: middle" x="28.715059" y="17.007874" transform="rotate(-90 28.715059 17.007874)">left_shoulder_dx</text>
    </g>
   </g>
   <g id="line2d_35">
    <path d="M 60.264286 17.689154 
L 60.317244 17.666357 
L 60.493769 16.471376 
L 60.705599 12.146172 
L 60.846819 12.146172 
L 61.199869 14.824892 
L 61.464656 13.181729 
L 61.676486 13.098695 
L 61.853012 13.586431 
L 61.905969 13.586431 
L 62.029537 14.530902 
L 62.117799 14.530902 
L 62.382587 14.001499 
L 62.523806 14.645841 
L 62.559112 14.645841 
L 62.735637 14.244763 
L 62.823899 14.109795 
L 63.053382 12.553692 
L 63.088687 12.696208 
L 63.265212 14.858005 
L 63.441737 14.77638 
L 64.677412 13.410097 
L 64.853937 13.447739 
L 65.08342 13.317099 
L 65.259945 13.576668 
L 65.348207 13.576668 
L 65.471775 13.409091 
L 65.560037 13.458911 
L 65.824825 14.758767 
L 65.913087 14.902289 
L 66.00135 15.25868 
L 66.14257 15.618795 
L 66.177875 15.618795 
L 66.407357 14.783727 
L 66.619187 14.554554 
L 66.84867 14.513892 
L 66.972237 14.471419 
L 67.148762 14.411635 
L 67.41355 14.013778 
L 67.501812 14.079098 
L 67.678338 17.088744 
L 67.7666 17.088744 
L 68.560963 14.246071 
L 68.61392 14.316725 
L 68.737488 14.374798 
L 68.878708 14.777286 
L 69.002275 14.77024 
L 69.125843 14.643627 
L 69.267063 13.568012 
L 69.302368 13.568012 
L 69.478893 13.253893 
L 69.620113 11.194153 
L 69.655418 11.194153 
L 69.8849 12.413592 
L 70.008468 11.922837 
L 70.061425 11.922837 
L 70.538043 14.811808 
L 70.714568 14.084432 
L 71.420668 13.766891 
L 71.597193 13.351118 
L 71.685456 13.369939 
L 72.126768 15.323497 
L 72.267988 16.13914 
L 72.391556 17.155674 
L 72.444513 17.155674 
L 72.568081 16.738795 
L 72.797563 12.604519 
L 72.885826 12.604519 
L 73.362444 14.249795 
L 73.538968 13.770212 
L 73.803756 11.539271 
L 73.892019 11.424131 
L 74.068543 10.044462 
L 74.121501 10.044462 
L 74.386289 11.672024 
L 74.509856 11.75224 
L 74.774644 15.75487 
L 75.092389 17.843597 
L 75.127694 17.881138 
L 75.180651 17.798507 
L 75.268914 17.747881 
L 75.445439 17.292756 
L 75.480744 17.241224 
L 75.657269 15.982734 
L 76.063277 14.192527 
L 76.098582 14.277674 
L 76.239801 14.608803 
L 76.275107 14.608803 
L 76.451631 11.546015 
L 76.592852 12.105008 
L 76.716419 16.22932 
L 76.804682 16.22932 
L 76.981206 13.426201 
L 77.069469 13.495647 
L 77.387214 16.429305 
L 77.422519 16.429305 
L 77.563739 16.67579 
L 77.687307 16.308428 
L 77.740264 16.308428 
L 78.252187 12.799472 
L 78.569932 12.605726 
L 78.870025 12.914511 
L 79.011245 12.527222 
L 79.046549 12.527222 
L 79.18777 13.084202 
L 79.452557 13.1461 
L 79.75265 13.689694 
L 79.929175 13.796582 
L 80.017437 14.131837 
L 80.688232 24.018692 
L 80.95302 21.624601 
L 81.16485 16.740002 
L 81.217807 16.30712 
L 81.341375 14.075978 
L 81.394332 14.009651 
L 81.5179 13.773332 
L 82.188695 16.297156 
L 82.312263 16.199025 
L 82.488787 15.249723 
L 82.71827 15.049838 
L 82.9301 15.326718 
L 83.28315 15.421024 
L 83.459675 19.112151 
L 83.547938 19.112151 
L 83.724463 18.683797 
L 83.812725 18.683797 
L 83.953946 19.918736 
L 83.98925 19.918736 
L 84.165776 18.032712 
L 84.254038 18.032712 
L 84.395258 19.265436 
L 84.483521 19.162072 
L 84.607088 17.255214 
L 84.836571 17.255214 
L 84.960138 16.315474 
L 85.048401 16.315474 
L 85.224926 16.905466 
L 85.313188 16.905466 
L 85.489713 15.455546 
L 85.577976 15.465912 
L 85.931026 16.33671 
L 86.072246 16.33671 
L 86.337033 15.326516 
L 86.513558 15.577027 
L 86.637126 15.908759 
L 86.690083 15.908759 
L 86.990176 14.490241 
L 87.025481 14.490241 
L 87.290269 15.777717 
L 87.378531 15.777717 
L 87.431488 15.444877 
L 87.555056 13.597099 
L 87.643319 13.597099 
L 87.872801 15.386401 
L 87.961064 15.386401 
L 88.084631 15.741987 
L 88.137589 15.864475 
L 88.225851 18.067335 
L 88.349419 21.458534 
L 88.490639 21.458534 
L 88.525943 21.633559 
L 88.702469 20.777053 
L 88.843689 20.482258 
L 88.967256 22.295917 
L 89.108476 23.455169 
L 89.196739 23.391661 
L 89.585094 18.256752 
L 89.638051 18.256752 
L 89.902839 19.877269 
L 89.991102 19.943495 
L 90.114669 20.421769 
L 90.432414 20.338937 
L 90.555982 19.810239 
L 90.697201 19.810239 
L 90.909031 20.453977 
L 91.050252 20.138448 
L 91.085557 20.138448 
L 91.262082 21.450281 
L 91.438606 21.894436 
L 91.579827 21.828412 
L 91.703394 21.377614 
L 91.756352 21.377614 
L 91.844614 21.871187 
L 92.056444 25.315327 
L 92.109402 25.315327 
L 92.285927 24.967289 
L 92.409494 24.999597 
L 92.58602 25.626527 
L 92.727239 25.730395 
L 92.850807 25.863248 
L 93.115595 25.863248 
L 93.292119 25.079812 
L 93.345077 25.079812 
L 93.521602 25.570467 
L 93.698127 25.478777 
L 93.874652 24.247865 
L 94.086482 21.416464 
L 94.139439 21.398649 
L 94.35127 20.539627 
L 94.404227 20.555228 
L 94.527795 20.910512 
L 94.70432 20.938592 
L 94.880845 18.464991 
L 94.933802 18.334251 
L 95.05737 15.695186 
L 95.110327 15.695186 
L 95.233895 15.084561 
L 95.375115 13.497559 
L 95.41042 13.497559 
L 95.62225 15.614065 
L 95.710513 15.614065 
L 95.887037 14.456826 
L 95.939995 14.456826 
L 96.063562 15.231807 
L 96.32835 16.101901 
L 96.416612 15.451419 
L 96.557833 13.931247 
L 96.946187 8.373521 
L 97.03445 8.373521 
L 97.210975 8.731422 
L 97.352195 8.663385 
L 97.52872 8.580954 
L 97.616983 8.608934 
L 97.917075 12.330054 
L 98.093601 13.408084 
L 98.270125 13.454885 
L 98.411346 16.487278 
L 98.534913 17.692727 
L 98.58787 17.692727 
L 99.029183 15.743295 
L 99.152751 16.072411 
L 99.293971 16.072411 
L 99.594063 11.642636 
L 99.64702 11.642636 
L 99.682326 11.935417 
L 99.947113 16.777141 
L 100.035376 16.744733 
L 100.264858 16.505495 
L 100.353121 16.609061 
L 100.529646 16.77533 
L 100.829738 16.66492 
L 101.006264 16.571821 
L 101.147483 16.484661 
L 101.359313 11.26229 
L 101.677058 11.211263 
L 101.853584 10.942032 
L 101.888888 10.942032 
L 102.065414 11.207035 
L 102.294896 11.443758 
L 102.418464 11.687524 
L 102.594989 11.523167 
L 102.771513 11.100148 
L 102.824471 11.064822 
L 102.948039 10.692126 
L 103.089259 10.765094 
L 103.177521 11.196266 
L 103.301089 12.68101 
L 103.442309 15.277803 
L 103.654139 15.277803 
L 103.830664 16.773115 
L 103.918927 16.773115 
L 104.007189 16.222375 
L 104.183714 13.290831 
L 104.271976 13.290831 
L 104.448502 14.988443 
L 104.536764 14.988443 
L 104.713289 14.750312 
L 104.748594 14.71106 
L 105.066339 13.345381 
L 105.154601 13.345381 
L 105.507652 14.420895 
L 105.631219 14.420895 
L 105.807744 14.031492 
L 106.125489 13.43707 
L 106.249057 12.984058 
L 106.425582 13.043641 
L 106.778632 13.527955 
L 107.04342 13.995561 
L 107.096377 13.995561 
L 107.219944 13.669968 
L 107.979002 13.39037 
L 108.10257 13.211319 
L 108.332052 13.218365 
L 108.543882 13.396208 
L 108.861627 13.360277 
L 109.214677 13.405669 
L 109.391202 13.695733 
L 109.51477 13.805841 
L 110.92697 13.782591 
L 111.244715 12.746632 
L 111.456545 11.626633 
L 111.544808 11.626633 
L 111.77429 12.730629 
L 112.12734 13.221787 
L 112.33917 13.15858 
L 112.392128 13.105238 
L 112.603958 12.123326 
L 112.656916 12.123326 
L 112.868746 13.960535 
L 113.133533 13.660205 
L 113.310058 12.329551 
L 113.574845 11.271349 
L 113.751371 11.24196 
L 113.874938 12.064447 
L 114.016158 12.064447 
L 114.404513 8.756282 
L 114.581038 9.49654 
L 114.757563 9.556224 
L 114.898783 9.79828 
L 114.987046 9.79828 
L 115.110613 9.584304 
L 115.516621 9.48255 
L 115.640188 9.974312 
L 115.816713 9.958107 
L 116.134458 9.5526 
L 116.575771 9.617216 
L 116.840559 9.847999 
L 117.052389 9.7392 
L 117.228913 9.75158 
L 117.370134 9.776037 
L 117.546659 11.503139 
L 117.723184 12.602002 
L 117.811446 12.602002 
L 118.199801 9.69562 
L 118.288064 9.423672 
L 118.464589 8.654426 
L 119.082426 8.738165 
L 119.223647 9.156756 
L 119.347214 9.41089 
L 119.435477 9.302392 
L 119.612001 8.94127 
L 120.018009 8.836598 
L 120.229839 8.396871 
L 120.582889 9.179401 
L 120.635847 9.119215 
L 120.847677 9.007999 
L 121.024202 8.801472 
L 121.377252 8.761113 
L 121.553777 8.231508 
L 121.642039 8.231508 
L 121.783259 8.494901 
L 121.995089 8.483025 
L 122.118657 8.341415 
L 122.965977 8.309912 
L 123.142502 9.083284 
L 123.442595 9.190875 
L 123.61912 8.922752 
L 124.201653 8.825728 
L 124.501745 9.366907 
L 124.854795 15.248817 
L 124.907752 15.166991 
L 125.084278 12.434627 
L 125.119582 12.434627 
L 125.296108 14.197056 
L 125.349065 14.58042 
L 125.38437 14.393821 
L 125.437327 14.393821 
L 125.560895 14.661743 
L 125.613853 14.661743 
L 125.73742 14.292771 
L 125.825683 14.255633 
L 125.966902 13.049881 
L 126.09047 12.977315 
L 126.178733 13.000565 
L 126.44352 13.821341 
L 126.708308 13.81822 
L 127.026053 13.76216 
L 127.202578 13.99395 
L 127.326146 14.641312 
L 127.379103 14.67674 
L 127.555628 15.506674 
L 127.679195 15.506674 
L 127.943983 14.835862 
L 127.996941 14.835862 
L 128.032245 15.114654 
L 128.261728 20.807348 
L 128.791303 20.817916 
L 128.826608 21.014077 
L 128.879565 20.734882 
L 128.914871 20.734882 
L 129.144353 20.154854 
L 129.320878 20.173474 
L 129.673928 17.330498 
L 129.850453 18.050627 
L 130.026979 21.104559 
L 130.115241 21.127305 
L 130.238809 21.510468 
L 130.291766 21.510468 
L 130.327071 21.393919 
L 130.468291 20.31921 
L 130.503596 20.31921 
L 130.768384 22.27619 
L 130.821341 22.207046 
L 130.980214 19.74975 
L 131.068476 19.74975 
L 131.209696 20.033574 
L 131.245001 20.033574 
L 131.333264 20.307334 
L 131.386221 20.18223 
L 131.421526 20.18223 
L 131.598051 21.477556 
L 131.686313 21.477556 
L 131.739271 21.153675 
L 131.915796 18.135473 
L 132.127626 18.160031 
L 132.215889 17.127997 
L 132.392414 13.714051 
L 132.533634 13.714051 
L 132.745464 15.161355 
L 132.921989 18.948499 
L 133.063209 18.948499 
L 133.275039 16.147293 
L 133.416259 16.019471 
L 133.628089 13.215245 
L 133.769309 12.612168 
L 133.981139 13.758134 
L 134.122359 13.758134 
L 134.387146 10.839574 
L 134.422452 10.834239 
L 134.563672 9.738394 
L 134.687239 9.28025 
L 134.775502 9.28025 
L 134.952027 9.76104 
L 135.093247 9.694512 
L 135.269772 7.529496 
L 135.305077 7.501515 
L 135.481602 6.712946 
L 135.569864 6.712946 
L 135.711084 7.16938 
L 136.011177 8.669121 
L 136.152397 8.669121 
L 136.417184 7.22534 
L 136.452489 7.521846 
L 136.505447 7.504736 
L 136.681972 6.743041 
L 136.717277 6.743041 
L 136.893802 4.638511 
L 136.94676 4.638511 
L 137.070327 5.436643 
L 137.211547 8.696598 
L 137.335115 9.470271 
L 137.423377 9.470271 
L 137.829385 15.045007 
L 138.041215 15.062418 
L 138.306002 16.022188 
L 138.447222 16.022188 
L 138.71201 14.768831 
L 138.92384 14.028674 
L 139.012102 13.201355 
L 139.153322 12.011407 
L 139.188628 12.011407 
L 139.41811 15.485035 
L 139.541678 15.472555 
L 139.718203 12.8038 
L 139.84177 12.906862 
L 139.894727 12.967854 
L 140.071253 14.236308 
L 140.159515 14.348831 
L 140.19482 14.299112 
L 140.247778 14.299112 
L 140.33604 14.17753 
L 140.459608 14.749004 
L 140.636133 18.335056 
L 140.724395 18.335056 
L 141.04214 14.220205 
L 141.306928 13.787423 
L 141.39519 13.375978 
L 141.430495 13.419256 
L 141.659978 14.108285 
L 141.783546 14.902793 
L 141.836503 14.902793 
L 141.871808 14.760579 
L 142.048333 13.066287 
L 142.136595 13.090342 
L 142.189553 13.20981 
L 142.489645 15.449205 
L 142.542603 15.464604 
L 142.754433 16.089118 
L 143.01922 16.269377 
L 143.160441 19.583582 
L 143.284008 19.583582 
L 143.372271 19.480318 
L 143.548796 19.606227 
L 143.601753 19.607938 
L 143.725321 19.933028 
L 143.901846 19.97379 
L 143.990108 19.513531 
L 144.131328 19.993013 
L 144.166633 19.993013 
L 144.307853 21.915069 
L 144.396116 21.915069 
L 144.431421 21.741956 
L 144.660903 14.02968 
L 144.837428 14.05927 
L 145.102216 16.80341 
L 145.137521 16.80341 
L 145.314046 16.302389 
L 145.402308 16.398608 
L 145.543529 16.536394 
L 145.755359 15.935732 
L 145.843621 16.307422 
L 146.020146 17.021814 
L 146.161366 16.379787 
L 146.284934 15.784963 
L 146.373196 15.79382 
L 146.549721 16.023698 
L 146.814509 16.288098 
L 146.991034 16.413202 
L 147.079296 16.413202 
L 147.255821 16.189463 
L 147.308779 16.189463 
L 147.485304 20.53389 
L 147.608872 20.695731 
L 147.661829 20.695731 
L 147.838354 17.247263 
L 147.926617 16.780865 
L 148.050184 16.183827 
L 148.191404 16.183827 
L 148.226709 16.217745 
L 148.367929 16.486775 
L 148.403234 16.486775 
L 148.615064 14.080406 
L 148.756284 13.924605 
L 148.844546 14.003914 
L 148.968114 14.16344 
L 149.109334 13.493231 
L 149.232902 12.96242 
L 149.462384 12.849292 
L 149.674214 14.151261 
L 150.027264 23.572825 
L 150.080222 23.829475 
L 156.911741 18.040965 
L 157.26479 22.088383 
L 157.317748 22.088383 
L 157.441316 21.75816 
L 157.529578 21.789461 
L 157.741408 22.206543 
L 157.794365 22.206543 
L 158.182721 19.058506 
L 158.323941 18.880059 
L 158.359246 18.880059 
L 158.765253 20.915343 
L 158.888821 22.679583 
L 158.941779 22.679583 
L 159.065346 25.529806 
L 159.294828 26.556505 
L 159.594921 23.368814 
L 159.771446 23.070596 
L 160.000929 23.016952 
L 160.089191 23.172753 
L 160.353979 23.483451 
L 160.442241 23.384615 
L 160.654071 22.180978 
L 160.795291 22.762516 
L 160.883554 22.762516 
L 161.007121 22.64496 
L 161.060079 22.64496 
L 161.183646 23.68867 
L 161.271909 23.651431 
L 161.501391 23.164802 
L 161.624959 23.224386 
L 161.766179 23.286384 
L 161.801484 23.286384 
L 161.889746 23.689777 
L 162.119229 25.825505 
L 162.154534 25.743277 
L 162.331059 23.811761 
L 162.507584 23.87235 
L 162.560541 24.081293 
L 162.860634 29.377237 
L 163.619692 22.573099 
L 163.654997 22.573099 
L 163.743259 22.952336 
L 164.008047 25.16647 
L 164.184572 25.247994 
L 164.590579 26.272982 
L 164.714147 26.334679 
L 164.855367 26.350883 
L 164.978935 26.554693 
L 165.031892 26.350883 
L 165.50851 14.132541 
L 165.64973 14.228961 
L 165.86156 18.329218 
L 165.914517 18.356896 
L 166.002779 19.801583 
L 166.179305 22.65271 
L 166.214609 22.65271 
L 166.479397 20.869347 
L 166.77949 26.860157 
L 166.956015 24.704902 
L 167.008972 24.704902 
L 167.13254 25.085449 
L 167.185497 24.704902 
L 167.362023 21.692236 
L 167.48559 21.595314 
L 167.62681 21.595314 
L 167.750377 21.4065 
L 167.803335 21.4065 
L 168.103428 24.097599 
L 168.244647 24.06831 
L 168.509435 21.332222 
L 168.54474 21.504027 
L 168.597697 21.504027 
L 168.950748 28.281896 
L 169.127272 25.32368 
L 169.162578 25.32368 
L 169.303798 26.800875 
L 169.427365 27.849416 
L 169.515628 27.983981 
L 169.656848 27.862098 
L 169.868678 21.451086 
L 170.045203 21.451086 
L 170.398253 22.244486 
L 170.66304 22.804788 
L 170.892523 22.100561 
L 171.016091 22.189332 
L 171.192615 23.872955 
L 171.245573 23.872955 
L 171.422098 21.802243 
L 171.457403 21.78926 
L 171.686886 20.545666 
L 171.863411 22.320777 
L 172.039935 27.329675 
L 172.163503 27.329675 
L 172.304723 25.934003 
L 172.569511 16.656667 
L 172.693078 16.656667 
L 172.834298 16.910196 
L 172.869603 16.910196 
L 172.922561 16.673072 
L 173.099086 14.29418 
L 173.187349 14.398954 
L 173.575703 16.664517 
L 173.628661 16.754596 
L 173.805186 22.043897 
L 174.069973 23.504487 
L 174.193541 23.81609 
L 174.246499 23.81609 
L 174.511286 22.335773 
L 174.864336 19.971475 
L 174.899641 19.934739 
L 175.111471 17.750699 
L 175.252691 17.474725 
L 175.376259 16.593662 
L 175.464521 16.593662 
L 175.782266 21.395429 
L 175.905834 21.395429 
L 176.047054 20.529965 
L 176.258884 20.606859 
L 176.435409 19.793229 
L 176.664891 18.904718 
L 176.788459 18.795314 
L 176.876721 18.795314 
L 177.106204 20.331691 
L 177.194467 20.242618 
L 177.370992 19.674164 
L 177.635779 20.657283 
L 177.671084 20.657283 
L 177.935872 19.349074 
L 178.112397 19.456263 
L 178.288922 20.202862 
L 178.341879 20.202862 
L 178.553709 19.582374 
L 178.730234 20.004085 
L 178.818497 20.417341 
L 178.90676 20.272611 
L 178.959717 20.286903 
L 179.047979 20.482963 
L 179.083284 20.417341 
L 179.136242 20.312668 
L 179.171547 20.482963 
L 179.224505 20.52765 
L 179.259809 20.482963 
L 179.401029 20.42489 
L 179.789384 21.242545 
L 179.842342 21.248585 
L 180.31896 26.738877 
L 180.407222 26.837511 
L 180.583747 27.069804 
L 180.636705 27.069804 
L 181.02506 25.133357 
L 181.113322 25.133357 
L 181.289847 16.891174 
L 181.431067 16.910196 
L 181.695855 19.751763 
L 181.784117 19.867003 
L 181.960642 18.930685 
L 182.08421 18.665882 
L 182.22543 18.590196 
L 182.490217 20.602129 
L 182.613785 20.558952 
L 182.966835 19.703855 
L 183.231623 19.597068 
L 183.319885 19.693991 
L 183.461105 21.011863 
L 183.584672 20.91192 
L 183.814155 20.308441 
L 183.973028 20.374365 
L 184.149553 20.487693 
L 184.20251 20.506313 
L 184.326078 20.705795 
L 184.467298 20.648024 
L 184.732086 19.27057 
L 184.76739 19.27057 
L 184.996873 19.810943 
L 185.208703 19.810943 
L 185.385228 19.685839 
L 186.356116 19.553891 
L 186.585598 20.793761 
L 186.673861 20.738506 
L 187.238741 18.971648 
L 187.503528 18.946386 
L 187.556486 18.946386 
L 187.768316 20.26154 
L 187.821273 20.26154 
L 188.033103 19.313747 
L 188.086061 19.313747 
L 188.174324 20.01898 
L 188.297891 20.762258 
L 188.439111 20.762258 
L 188.527373 20.206889 
L 188.650941 19.554092 
L 188.792161 19.362561 
L 188.968686 18.033215 
L 189.180516 17.199657 
L 189.357041 17.199657 
L 189.621829 15.689852 
L 189.710091 15.715014 
L 189.939574 16.444604 
L 190.063141 16.379686 
L 190.239666 15.379859 
L 190.327929 15.379859 
L 190.592716 19.431202 
L 190.733936 19.306601 
L 190.769242 19.306601 
L 190.945766 20.340447 
L 190.998724 20.339139 
L 191.263511 19.137112 
L 191.387079 17.403165 
L 191.475341 17.403165 
L 191.740129 18.55044 
L 192.093179 14.520032 
L 192.146137 14.520032 
L 192.410924 17.966185 
L 192.446229 17.966185 
L 192.534492 17.793575 
L 192.746322 15.217113 
L 192.799279 15.217113 
L 192.922847 16.778047 
L 192.975804 17.227134 
L 193.099372 19.643064 
L 193.240592 19.643064 
L 193.328854 19.828657 
L 193.452422 19.355415 
L 193.593642 19.306299 
L 193.717209 18.551648 
L 193.858429 16.693604 
L 194.034954 16.736581 
L 194.123217 17.879528 
L 194.335047 19.57714 
L 194.388004 19.615285 
L 194.511572 19.820102 
L 194.652792 19.820102 
L 194.77636 19.034955 
L 194.829317 19.034955 
L 194.952885 20.183437 
L 195.005842 20.183437 
L 195.27063 19.514839 
L 195.305935 19.465925 
L 195.394197 18.472741 
L 195.535417 15.363051 
L 195.62368 15.363051 
L 195.711942 15.844546 
L 195.888467 20.026328 
L 196.064992 20.547679 
L 196.153255 20.547679 
L 196.276823 20.169246 
L 196.32978 20.169246 
L 196.506305 21.111604 
L 196.54161 21.111604 
L 196.718135 19.453445 
L 196.89466 19.385508 
L 197.03588 19.375444 
L 197.071185 19.375444 
L 197.212405 19.235846 
L 197.24771 19.235846 
L 197.38893 20.4576 
L 197.60076 23.86762 
L 197.74198 25.57882 
L 197.95381 25.537152 
L 198.183293 25.131243 
L 198.271555 25.28161 
L 198.624605 25.644946 
L 198.748173 25.601264 
L 198.977655 24.650151 
L 199.01296 24.650151 
L 199.101223 24.459626 
L 199.36601 21.734408 
L 199.507231 21.52325 
L 199.595493 21.734408 
L 199.630798 21.649663 
L 199.683755 21.649663 
L 199.719061 21.766313 
L 199.772018 21.649663 
L 199.807323 21.58706 
L 199.948543 19.99875 
L 200.125068 16.870743 
L 200.160373 16.870743 
L 200.21333 17.064488 
L 200.389856 19.458276 
L 200.42516 19.458276 
L 200.513423 19.115573 
L 200.689948 16.654755 
L 200.866473 16.600506 
L 201.007693 16.723094 
L 201.042998 16.723094 
L 201.272481 15.21671 
L 201.307786 15.276092 
L 201.484311 17.106559 
L 201.519616 17.110887 
L 201.872666 18.858923 
L 202.049191 22.911876 
L 202.402241 24.439999 
L 202.667028 24.917368 
L 202.808248 24.706513 
L 202.931816 23.769389 
L 202.984773 23.769389 
L 203.020078 23.972192 
L 203.108341 23.917139 
L 203.461391 23.852825 
L 203.637916 24.37307 
L 203.690874 24.37307 
L 203.814441 23.408771 
L 203.955661 23.198418 
L 203.990966 23.229116 
L 204.079229 23.327549 
L 204.255754 23.944213 
L 204.344016 24.071229 
L 204.396974 24.032983 
L 204.520541 23.694609 
L 204.608804 23.901539 
L 204.697066 23.631704 
L 204.750024 23.694609 
L 204.961854 24.495456 
L 205.226642 24.398835 
L 205.314904 24.113602 
L 205.367861 23.834709 
L 205.491429 22.238951 
L 205.579691 22.238951 
L 205.667954 22.532437 
L 205.844479 26.149589 
L 206.021004 26.063536 
L 206.197529 24.039827 
L 206.338749 24.146412 
L 206.374054 24.218576 
L 206.550579 25.618676 
L 206.638842 25.571373 
L 206.780061 24.971919 
L 207.044849 24.960647 
L 207.133112 25.226757 
L 207.256679 26.163881 
L 207.344942 26.225275 
L 207.486162 26.749445 
L 207.521467 26.749445 
L 207.609729 24.55202 
L 207.609729 24.55202 
" clip-path="url(#pf59ee5483b)" style="fill: none; stroke: #5c80b5; stroke-width: 0.5; stroke-linecap: square"/>
   </g>
   <g id="patch_3">
    <path d="M 59.527559 30.614173 
L 59.527559 3.401575 
" style="fill: none; stroke: #000000; stroke-width: 0.4; stroke-linejoin: miter; stroke-linecap: square"/>
   </g>
   <g id="patch_4">
    <path d="M 208.346457 30.614173 
L 208.346457 3.401575 
" style="fill: none; stroke: #000000; stroke-width: 0.4; stroke-linejoin: miter; stroke-linecap: square"/>
   </g>
   <g id="patch_5">
    <path d="M 59.527559 30.614173 
L 208.346457 30.614173 
" style="fill: none; stroke: #000000; stroke-width: 0.4; stroke-linejoin: miter; stroke-linecap: square"/>
   </g>
   <g id="patch_6">
    <path d="M 59.527559 3.401575 
L 208.346457 3.401575 
" style="fill: none; stroke: #000000; stroke-width: 0.4; stroke-linejoin: miter; stroke-linecap: square"/>
   </g>
  </g>
 </g>
 <defs>
  <clipPath id="pf59ee5483b">
   <rect x="59.527559" y="3.401575" width="148.818898" height="27.212598"/>
  </clipPath>
 </defs>
</svg>
