<?xml version="1.0" encoding="utf-8" standalone="no"?>
<!DOCTYPE svg PUBLIC "-//W3C//DTD SVG 1.1//EN"
  "http://www.w3.org/Graphics/SVG/1.1/DTD/svg11.dtd">
<svg xmlns:xlink="http://www.w3.org/1999/xlink" width="212.598425pt" height="42.519685pt" viewBox="0 0 212.598425 42.519685" xmlns="http://www.w3.org/2000/svg" version="1.1">
 <metadata>
  <rdf:RDF xmlns:dc="http://purl.org/dc/elements/1.1/" xmlns:cc="http://creativecommons.org/ns#" xmlns:rdf="http://www.w3.org/1999/02/22-rdf-syntax-ns#">
   <cc:Work>
    <dc:type rdf:resource="http://purl.org/dc/dcmitype/StillImage"/>
    <dc:date>2026-06-01T17:59:22.635598</dc:date>
    <dc:format>image/svg+xml</dc:format>
    <dc:creator>
     <cc:Agent>
      <dc:title>Matplotlib v3.10.8, https://matplotlib.org/</dc:title>
     </cc:Agent>
    </dc:creator>
   </cc:Work>
  </rdf:RDF>
 </metadata>
 <defs>
  <style type="text/css">*{stroke-linejoin: round; stroke-linecap: butt}</style>
 </defs>
 <g id="figure_1">
  <g id="patch_1">
   <path d="M 0 42.519685 
L 212.598425 42.519685 
L 212.598425 0 
L 0 0 
z
" style="fill: #ffffff"/>
  </g>
  <g id="axes_1">
   <g id="patch_2">
    <path d="M 59.527559 30.614173 
L 208.346457 30.614173 
L 208.346457 3.401575 
L 59.527559 3.401575 
z
" style="fill: #eaeaf2"/>
   </g>
   <g id="matplotlib.axis_1">
    <g id="xtick_1">
     <g id="line2d_1">
      <path d="M 60.264286 30.614173 
L 60.264286 3.401575 
" clip-path="url(#p6e452efc0b)" style="fill: none; stroke: #ffffff; stroke-width: 0.9; stroke-linecap: square"/>
     </g>
     <g id="line2d_2">
      <defs>
       <path id="m5d7831ab8e" d="M 0 0 
L 0 2 
" style="stroke: #000000; stroke-width: 0.4"/>
      </defs>
      <g>
       <use xlink:href="#m5d7831ab8e" x="60.264286" y="30.614173" style="stroke: #000000; stroke-width: 0.4"/>
      </g>
     </g>
     <g id="text_1">
      <text style="font-size: 8px; font-family: 'DejaVu Sans', 'Bitstream Vera Sans', 'Computer Modern Sans Serif', 'Lucida Grande', 'Verdana', 'Geneva', 'Lucid', 'Arial', 'Helvetica', 'Avant Garde', sans-serif; text-anchor: middle" x="60.264286" y="42.192923" transform="rotate(-0 60.264286 42.192923)">0</text>
     </g>
    </g>
    <g id="xtick_2">
     <g id="line2d_3">
      <path d="M 92.007049 30.614173 
L 92.007049 3.401575 
" clip-path="url(#p6e452efc0b)" style="fill: none; stroke: #ffffff; stroke-width: 0.9; stroke-linecap: square"/>
     </g>
     <g id="line2d_4">
      <g>
       <use xlink:href="#m5d7831ab8e" x="92.007049" y="30.614173" style="stroke: #000000; stroke-width: 0.4"/>
      </g>
     </g>
     <g id="text_2">
      <text style="font-size: 8px; font-family: 'DejaVu Sans', 'Bitstream Vera Sans', 'Computer Modern Sans Serif', 'Lucida Grande', 'Verdana', 'Geneva', 'Lucid', 'Arial', 'Helvetica', 'Avant Garde', sans-serif; text-anchor: middle" x="92.007049" y="42.192923" transform="rotate(-0 92.007049 42.192923)">60</text>
     </g>
    </g>
    <g id="xtick_3">
     <g id="line2d_5">
      <path d="M 123.749812 30.614173 
L 123.749812 3.401575 
" clip-path="url(#p6e452efc0b)" style="fill: none; stroke: #ffffff; stroke-width: 0.9; stroke-linecap: square"/>
     </g>
     <g id="line2d_6">
      <g>
       <use xlink:href="#m5d7831ab8e" x="123.749812" y="30.614173" style="stroke: #000000; stroke-width: 0.4"/>
      </g>
     </g>
     <g id="text_3">
      <text style="font-size: 8px; font-family: 'DejaVu Sans', 'Bitstream Vera Sans', 'Computer Modern Sans Serif', 'Lucida Grande', 'Verdana', 'Geneva', 'Lucid', 'Arial', 'Helvetica', 'Avant Garde', sans-serif; text-anchor: middle" x="123.749812" y="42.192923" transform="rotate(-0 123.749812 42.192923)">120</text>
     </g>
    </g>
    <g id="xtick_4">
     <g id="line2d_7">
      <path d="M 155.492574 30.614173 
L 155.492574 3.401575 
" clip-path="url(#p6e452efc0b)" style="fill: none; stroke: #ffffff; stroke-width: 0.9; stroke-linecap: square"/>
     </g>
     <g id="line2d_8">
      <g>
       <use xlink:href="#m5d7831ab8e" x="155.492574" y="30.614173" style="stroke: #000000; stroke-width: 0.4"/>
      </g>
     </g>
     <g id="text_4">
      <text style="font-size: 8px; font-family: 'DejaVu Sans', 'Bitstream Vera Sans', 'Computer Modern Sans Serif', 'Lucida Grande', 'Verdana', 'Geneva', 'Lucid', 'Arial', 'Helvetica', 'Avant Garde', sans-serif; text-anchor: middle" x="155.492574" y="42.192923" transform="rotate(-0 155.492574 42.192923)">180</text>
     </g>
    </g>
    <g id="xtick_5">
     <g id="line2d_9">
      <path d="M 187.235337 30.614173 
L 187.235337 3.401575 
" clip-path="url(#p6e452efc0b)" style="fill: none; stroke: #ffffff; stroke-width: 0.9; stroke-linecap: square"/>
     </g>
     <g id="line2d_10">
      <g>
       <use xlink:href="#m5d7831ab8e" x="187.235337" y="30.614173" style="stroke: #000000; stroke-width: 0.4"/>
      </g>
     </g>
     <g id="text_5">
      <text style="font-size: 8px; font-family: 'DejaVu Sans', 'Bitstream Vera Sans', 'Computer Modern Sans Serif', 'Lucida Grande', 'Verdana', 'Geneva', 'Lucid', 'Arial', 'Helvetica', 'Avant Garde', sans-serif; text-anchor: middle" x="187.235337" y="42.192923" transform="rotate(-0 187.235337 42.192923)">240</text>
     </g>
    </g>
    <g id="xtick_6">
     <g id="line2d_11">
      <path d="M 76.135668 30.614173 
L 76.135668 3.401575 
" clip-path="url(#p6e452efc0b)" style="fill: none; stroke: #ffffff; stroke-opacity: 0.9; stroke-width: 0.55; stroke-linecap: square"/>
     </g>
     <g id="line2d_12">
      <defs>
       <path id="m9bec47a0cf" d="M 0 0 
L 0 2 
" style="stroke: #000000; stroke-width: 0.6"/>
      </defs>
      <g>
       <use xlink:href="#m9bec47a0cf" x="76.135668" y="30.614173" style="stroke: #000000; stroke-width: 0.6"/>
      </g>
     </g>
    </g>
    <g id="xtick_7">
     <g id="line2d_13">
      <path d="M 107.87843 30.614173 
L 107.87843 3.401575 
" clip-path="url(#p6e452efc0b)" style="fill: none; stroke: #ffffff; stroke-opacity: 0.9; stroke-width: 0.55; stroke-linecap: square"/>
     </g>
     <g id="line2d_14">
      <g>
       <use xlink:href="#m9bec47a0cf" x="107.87843" y="30.614173" style="stroke: #000000; stroke-width: 0.6"/>
      </g>
     </g>
    </g>
    <g id="xtick_8">
     <g id="line2d_15">
      <path d="M 139.621193 30.614173 
L 139.621193 3.401575 
" clip-path="url(#p6e452efc0b)" style="fill: none; stroke: #ffffff; stroke-opacity: 0.9; stroke-width: 0.55; stroke-linecap: square"/>
     </g>
     <g id="line2d_16">
      <g>
       <use xlink:href="#m9bec47a0cf" x="139.621193" y="30.614173" style="stroke: #000000; stroke-width: 0.6"/>
      </g>
     </g>
    </g>
    <g id="xtick_9">
     <g id="line2d_17">
      <path d="M 171.363956 30.614173 
L 171.363956 3.401575 
" clip-path="url(#p6e452efc0b)" style="fill: none; stroke: #ffffff; stroke-opacity: 0.9; stroke-width: 0.55; stroke-linecap: square"/>
     </g>
     <g id="line2d_18">
      <g>
       <use xlink:href="#m9bec47a0cf" x="171.363956" y="30.614173" style="stroke: #000000; stroke-width: 0.6"/>
      </g>
     </g>
    </g>
    <g id="xtick_10">
     <g id="line2d_19">
      <path d="M 203.106719 30.614173 
L 203.106719 3.401575 
" clip-path="url(#p6e452efc0b)" style="fill: none; stroke: #ffffff; stroke-opacity: 0.9; stroke-width: 0.55; stroke-linecap: square"/>
     </g>
     <g id="line2d_20">
      <g>
       <use xlink:href="#m9bec47a0cf" x="203.106719" y="30.614173" style="stroke: #000000; stroke-width: 0.6"/>
      </g>
     </g>
    </g>
    <g id="text_6">
     <text style="font-size: 8px; font-family: 'DejaVu Sans', 'Bitstream Vera Sans', 'Computer Modern Sans Serif', 'Lucida Grande', 'Verdana', 'Geneva', 'Lucid', 'Arial', 'Helvetica', 'Avant Garde', sans-serif; text-anchor: middle" x="133.937008" y="53.935423" transform="rotate(-0 133.937008 53.935423)">time</text>
    </g>
   </g>
   <g id="matplotlib.axis_2">
    <g id="ytick_1">
     <g id="line2d_21">
      <path d="M 59.527559 27.667176 
L 208.346457 27.667176 
" clip-path="url(#p6e452efc0b)" style="fill: none; stroke: #ffffff; stroke-width: 0.9; stroke-linecap: square"/>
     </g>
     <g id="line2d_22">
      <defs>
       <path id="m6de2095995" d="M 0 0 
L -2 0 
" style="stroke: #000000; stroke-width: 0.4"/>
      </defs>
      <g>
       <use xlink:href="#m6de2095995" x="59.527559" y="27.667176" style="stroke: #000000; stroke-width: 0.4"/>
      </g>
     </g>
     <g id="text_7">
      <text style="font-size: 8px; font-family: 'DejaVu Sans', 'Bitstream Vera Sans', 'Computer Modern Sans Serif', 'Lucida Grande', 'Verdana', 'Geneva', 'Lucid', 'Arial', 'Helvetica', 'Avant Garde', sans-serif; text-anchor: end" x="54.027559" y="30.706551" transform="rotate(-0 54.027559 30.706551)">−2</text>
     </g>
    </g>
    <g id="ytick_2">
     <g id="line2d_23">
      <path d="M 59.527559 20.501727 
L 208.346457 20.501727 
" clip-path="url(#p6e452efc0b)" style="fill: none; stroke: #ffffff; stroke-width: 0.9; stroke-linecap: square"/>
     </g>
     <g id="line2d_24">
      <g>
       <use xlink:href="#m6de2095995" x="59.527559" y="20.501727" style="stroke: #000000; stroke-width: 0.4"/>
      </g>
     </g>
     <g id="text_8">
      <text style="font-size: 8px; font-family: 'DejaVu Sans', 'Bitstream Vera Sans', 'Computer Modern Sans Serif', 'Lucida Grande', 'Verdana', 'Geneva', 'Lucid', 'Arial', 'Helvetica', 'Avant Garde', sans-serif; text-anchor: end" x="54.027559" y="23.541102" transform="rotate(-0 54.027559 23.541102)">−1</text>
     </g>
    </g>
    <g id="ytick_3">
     <g id="line2d_25">
      <path d="M 59.527559 13.336279 
L 208.346457 13.336279 
" clip-path="url(#p6e452efc0b)" style="fill: none; stroke: #ffffff; stroke-width: 0.9; stroke-linecap: square"/>
     </g>
     <g id="line2d_26">
      <g>
       <use xlink:href="#m6de2095995" x="59.527559" y="13.336279" style="stroke: #000000; stroke-width: 0.4"/>
      </g>
     </g>
     <g id="text_9">
      <text style="font-size: 8px; font-family: 'DejaVu Sans', 'Bitstream Vera Sans', 'Computer Modern Sans Serif', 'Lucida Grande', 'Verdana', 'Geneva', 'Lucid', 'Arial', 'Helvetica', 'Avant Garde', sans-serif; text-anchor: end" x="54.027559" y="16.375654" transform="rotate(-0 54.027559 16.375654)">0</text>
     </g>
    </g>
    <g id="ytick_4">
     <g id="line2d_27">
      <path d="M 59.527559 6.17083 
L 208.346457 6.17083 
" clip-path="url(#p6e452efc0b)" style="fill: none; stroke: #ffffff; stroke-width: 0.9; stroke-linecap: square"/>
     </g>
     <g id="line2d_28">
      <g>
       <use xlink:href="#m6de2095995" x="59.527559" y="6.17083" style="stroke: #000000; stroke-width: 0.4"/>
      </g>
     </g>
     <g id="text_10">
      <text style="font-size: 8px; font-family: 'DejaVu Sans', 'Bitstream Vera Sans', 'Computer Modern Sans Serif', 'Lucida Grande', 'Verdana', 'Geneva', 'Lucid', 'Arial', 'Helvetica', 'Avant Garde', sans-serif; text-anchor: end" x="54.027559" y="9.210205" transform="rotate(-0 54.027559 9.210205)">1</text>
     </g>
    </g>
    <g id="ytick_5">
     <g id="line2d_29">
      <path d="M 59.527559 24.084452 
L 208.346457 24.084452 
" clip-path="url(#p6e452efc0b)" style="fill: none; stroke: #ffffff; stroke-opacity: 0.9; stroke-width: 0.55; stroke-linecap: square"/>
     </g>
     <g id="line2d_30">
      <defs>
       <path id="m9e40bcafb4" d="M 0 0 
L -2 0 
" style="stroke: #000000; stroke-width: 0.6"/>
      </defs>
      <g>
       <use xlink:href="#m9e40bcafb4" x="59.527559" y="24.084452" style="stroke: #000000; stroke-width: 0.6"/>
      </g>
     </g>
    </g>
    <g id="ytick_6">
     <g id="line2d_31">
      <path d="M 59.527559 16.919003 
L 208.346457 16.919003 
" clip-path="url(#p6e452efc0b)" style="fill: none; stroke: #ffffff; stroke-opacity: 0.9; stroke-width: 0.55; stroke-linecap: square"/>
     </g>
     <g id="line2d_32">
      <g>
       <use xlink:href="#m9e40bcafb4" x="59.527559" y="16.919003" style="stroke: #000000; stroke-width: 0.6"/>
      </g>
     </g>
    </g>
    <g id="ytick_7">
     <g id="line2d_33">
      <path d="M 59.527559 9.753554 
L 208.346457 9.753554 
" clip-path="url(#p6e452efc0b)" style="fill: none; stroke: #ffffff; stroke-opacity: 0.9; stroke-width: 0.55; stroke-linecap: square"/>
     </g>
     <g id="line2d_34">
      <g>
       <use xlink:href="#m9e40bcafb4" x="59.527559" y="9.753554" style="stroke: #000000; stroke-width: 0.6"/>
      </g>
     </g>
    </g>
    <g id="text_11">
     <text style="font-size: 8px; font-family: 'DejaVu Sans', 'Bitstream Vera Sans', 'Computer Modern Sans Serif', 'Lucida Grande', 'Verdana', 'Geneva', 'Lucid', 'Arial', 'Helvetica', 'Avant Garde', sans-serif; text-anchor: middle" x="36.347559" y="17.007874" transform="rotate(-90 36.347559 17.007874)">left_wrist_dy</text>
    </g>
   </g>
   <g id="line2d_35">
    <path d="M 60.264286 7.580652 
L 60.317244 7.555654 
L 60.582031 6.715523 
L 60.705599 5.130489 
L 61.058649 4.847712 
L 61.199869 5.413371 
L 61.323436 6.040271 
L 61.464656 6.092896 
L 61.588224 5.722529 
L 61.676486 5.722529 
L 61.817707 5.413546 
L 61.853012 5.413546 
L 61.994231 5.771685 
L 62.523806 5.855317 
L 62.647374 4.984668 
L 62.735637 4.984668 
L 62.965119 5.828198 
L 63.088687 5.60733 
L 63.176949 5.828198 
L 63.265212 5.394907 
L 63.318169 5.51494 
L 63.582957 5.579406 
L 63.759482 5.900793 
L 63.936007 5.933727 
L 64.112532 5.50993 
L 64.677412 5.50993 
L 64.818632 5.357593 
L 64.995157 5.399356 
L 65.259945 6.036243 
L 65.29525 6.036243 
L 65.436469 5.89813 
L 65.524732 5.89813 
L 65.6483 6.189771 
L 65.701257 6.189771 
L 65.824825 6.000891 
L 66.583883 5.924968 
L 66.70745 5.852548 
L 67.55477 5.898866 
L 67.590075 5.978888 
L 67.7666 8.359312 
L 67.90782 8.359312 
L 68.26087 11.845722 
L 68.296175 11.792537 
L 68.525658 11.792537 
L 68.649225 11.911765 
L 68.702183 11.911765 
L 68.96697 11.333179 
L 69.214105 11.321792 
L 69.267063 11.100469 
L 69.443588 9.498442 
L 69.478893 9.459902 
L 69.567155 8.686095 
L 69.708376 4.688964 
L 72.091463 4.688964 
L 72.215031 5.153368 
L 72.356251 5.735002 
L 72.479818 9.530185 
L 72.568081 9.654563 
L 72.621039 9.698743 
L 72.832869 12.002018 
L 72.921131 11.953143 
L 73.097656 11.86324 
L 73.238876 12.170612 
L 73.327138 12.137363 
L 73.591926 9.965298 
L 73.715494 5.517043 
L 74.033239 4.814042 
L 74.156806 4.814042 
L 74.298026 5.029865 
L 74.862906 5.138442 
L 75.039431 5.483057 
L 75.215957 5.869155 
L 75.268914 6.39214 
L 75.392481 8.854829 
L 75.445439 8.854829 
L 75.710226 7.760615 
L 75.833794 7.599064 
L 76.363369 7.383136 
L 76.716419 8.632454 
L 76.769376 8.89477 
L 76.945902 11.096334 
L 77.034164 11.096334 
L 77.298952 10.477211 
L 77.563739 12.510007 
L 77.599044 12.572477 
L 77.652002 12.510007 
L 77.775569 12.496098 
L 77.952094 11.996588 
L 77.987399 11.996588 
L 78.216882 12.840503 
L 78.34045 12.818325 
L 78.569932 12.586351 
L 78.781762 12.923363 
L 78.958287 12.977179 
L 79.046549 13.082813 
L 79.311337 12.864152 
L 79.54082 12.62405 
L 79.75265 12.161573 
L 79.840912 12.007064 
L 79.929175 11.014525 
L 80.070395 10.134663 
L 80.1057 10.134663 
L 80.282225 13.277088 
L 80.45875 18.224189 
L 80.635275 18.225485 
L 80.776495 16.889312 
L 80.864757 16.889312 
L 80.988325 17.941272 
L 81.076587 17.925016 
L 81.341375 11.106144 
L 81.394332 11.106144 
L 81.606162 13.326979 
L 81.747382 13.522236 
L 82.135738 14.619637 
L 82.188695 14.619637 
L 82.400525 13.688307 
L 82.57705 12.682455 
L 82.71827 12.784235 
L 82.9301 12.870914 
L 83.018363 12.870914 
L 83.194888 11.92098 
L 83.28315 11.926095 
L 83.371413 14.204389 
L 83.547938 21.276116 
L 83.689158 21.553146 
L 83.865683 21.46468 
L 84.165776 19.64669 
L 84.254038 19.64669 
L 84.3423 20.628648 
L 84.518825 21.98805 
L 84.571783 21.98805 
L 84.836571 14.056607 
L 84.960138 10.340255 
L 85.048401 10.340255 
L 85.666238 12.929775 
L 85.754501 12.855428 
L 86.248771 11.573036 
L 86.690083 6.430715 
L 86.990176 5.936775 
L 87.113743 6.438528 
L 87.254963 6.438528 
L 87.431488 7.507164 
L 87.555056 7.423743 
L 87.643319 7.332894 
L 87.819844 6.832649 
L 87.996368 7.060383 
L 88.225851 12.902272 
L 88.578901 24.61863 
L 88.702469 25.520566 
L 88.755426 25.299628 
L 88.790731 25.397379 
L 88.878994 25.520566 
L 88.967256 25.178649 
L 89.108476 22.977539 
L 89.232044 20.045822 
L 89.496831 11.075102 
L 89.638051 11.110664 
L 89.761619 11.238126 
L 89.849881 11.25631 
L 89.938144 16.112316 
L 90.114669 24.786805 
L 90.167626 24.786805 
L 90.379456 22.305406 
L 90.608939 25.724582 
L 90.785464 25.907085 
L 90.820769 25.907085 
L 90.909031 24.977016 
L 91.085557 20.865037 
L 91.438606 20.865037 
L 91.579827 25.761404 
L 91.668089 25.761404 
L 91.703394 25.331512 
L 91.844614 15.299759 
L 94.139439 15.299759 
L 94.263007 25.66551 
L 94.35127 25.66551 
L 94.527795 25.033774 
L 94.757277 24.776259 
L 95.110327 23.940367 
L 95.19859 14.632671 
L 95.322157 11.283778 
L 95.55164 11.289279 
L 95.586945 10.886188 
L 95.798775 4.638511 
L 97.616983 4.638511 
L 97.74055 7.391685 
L 98.146558 7.281006 
L 98.499608 6.949039 
L 98.58787 7.035928 
L 98.623176 7.562696 
L 98.764395 10.208554 
L 98.887963 10.268326 
L 99.329275 10.250983 
L 99.682326 10.948167 
L 99.85885 10.589747 
L 100.088333 10.481906 
L 100.264858 10.326381 
L 101.182788 10.319268 
L 101.447576 10.812262 
L 101.535839 10.899046 
L 101.800626 11.139359 
L 102.330201 11.181087 
L 102.471421 7.297823 
L 102.683251 7.187915 
L 102.824471 7.286472 
L 103.177521 7.30921 
L 103.212826 7.30921 
L 103.354046 7.571491 
L 103.477614 7.549068 
L 103.565876 7.391195 
L 103.795359 7.118438 
L 103.830664 7.272842 
L 103.971884 9.932259 
L 104.007189 9.932259 
L 104.360239 4.674564 
L 112.33917 4.674564 
L 112.48039 5.421393 
L 112.780483 5.421393 
L 113.009965 7.70214 
L 113.186491 5.705396 
L 113.310058 5.065076 
L 113.433625 5.570192 
L 113.574845 5.644819 
L 113.698413 5.812081 
L 114.10442 6.151266 
L 114.31625 5.731534 
L 114.757563 5.732094 
L 114.898783 5.912285 
L 115.904976 5.810119 
L 116.081501 5.676561 
L 116.310984 5.593632 
L 116.487508 5.76706 
L 116.752296 5.860291 
L 116.875864 5.97048 
L 117.017083 5.991116 
L 117.228913 6.066128 
L 117.581964 6.017183 
L 118.199801 5.926684 
L 118.376327 5.845891 
L 118.782334 5.845891 
L 118.905902 5.495845 
L 121.024202 5.593632 
L 121.200727 5.784368 
L 122.70119 5.784368 
L 122.824757 5.449913 
L 122.965977 5.449913 
L 123.089545 5.644504 
L 124.590007 5.686197 
L 124.766532 4.953031 
L 124.81949 4.953031 
L 124.907752 5.067949 
L 125.084278 8.324452 
L 125.207845 8.464071 
L 125.38437 8.368177 
L 125.52559 5.216643 
L 125.613853 5.111324 
L 125.790378 5.614513 
L 125.913945 4.709179 
L 126.055165 4.66584 
L 126.23169 5.044825 
L 126.355258 5.10726 
L 126.620045 5.033019 
L 126.761265 5.263591 
L 127.061358 5.314218 
L 127.202578 6.341548 
L 127.379103 6.3536 
L 127.50267 6.164019 
L 127.820415 6.171517 
L 127.943983 5.625514 
L 128.032245 5.625514 
L 128.208771 11.1594 
L 128.650083 25.812348 
L 128.703041 25.812348 
L 128.738346 25.378986 
L 128.791303 25.484024 
L 128.914871 26.059317 
L 129.179658 26.139094 
L 129.320878 21.943414 
L 129.532708 12.370388 
L 129.673928 12.212235 
L 129.709233 12.212235 
L 129.850453 12.581306 
L 130.150546 25.238771 
L 130.591858 22.951892 
L 130.680121 22.972109 
L 130.821341 23.211966 
L 130.856646 23.211966 
L 130.891951 22.857751 
L 131.156738 13.034393 
L 131.209696 13.076576 
L 131.386221 13.39516 
L 131.421526 13.914255 
L 131.651009 24.744551 
L 131.774576 24.859645 
L 131.827534 24.859645 
L 131.951101 24.522948 
L 132.092321 24.388094 
L 132.268846 21.574308 
L 132.533634 11.13067 
L 132.710159 11.028469 
L 132.833727 10.85914 
L 133.010251 10.98033 
L 133.151472 11.239667 
L 133.275039 11.239667 
L 133.628089 10.355811 
L 133.804614 9.305428 
L 133.857571 9.305428 
L 134.157664 12.438498 
L 134.245927 12.438498 
L 134.598976 10.784268 
L 134.863764 11.637152 
L 135.040289 11.500231 
L 135.393339 10.470064 
L 135.658127 10.579587 
L 136.099439 10.9468 
L 136.240659 10.9468 
L 136.417184 11.878096 
L 136.505447 11.785846 
L 136.681972 11.368425 
L 136.80554 11.368425 
L 137.423377 13.331604 
L 137.511639 13.251862 
L 137.741122 9.554815 
L 137.86469 5.067739 
L 138.00591 4.841055 
L 138.041215 4.841055 
L 138.182435 4.965924 
L 138.659053 4.941925 
L 138.888535 4.868839 
L 139.012102 4.868839 
L 139.153322 5.051272 
L 139.541678 5.051272 
L 139.753508 5.254797 
L 139.84177 5.254797 
L 140.018295 5.526607 
L 140.283083 5.623166 
L 140.512565 5.819229 
L 140.54787 5.819229 
L 140.636133 6.236404 
L 140.812658 9.98187 
L 140.989183 10.571003 
L 141.218665 14.39411 
L 141.306928 14.39411 
L 141.60702 5.225857 
L 141.924765 7.048051 
L 141.96007 7.027239 
L 142.189553 6.828795 
L 142.313121 6.901179 
L 142.489645 6.987718 
L 142.666171 7.431311 
L 142.80739 7.53288 
L 142.930958 7.487684 
L 143.01922 7.552816 
L 143.107483 12.858616 
L 143.284008 19.880662 
L 143.336965 19.880662 
L 143.460533 20.137547 
L 143.513491 20.137547 
L 143.637058 20.609062 
L 143.725321 20.609062 
L 143.901846 19.960789 
L 143.954803 19.803792 
L 144.043066 14.194684 
L 144.219591 7.85721 
L 144.484379 7.899324 
L 144.696209 10.343303 
L 144.749166 10.372033 
L 144.925691 11.695698 
L 144.960996 11.718786 
L 145.190478 12.29979 
L 145.314046 12.364432 
L 145.543529 12.589294 
L 145.808316 11.990211 
L 145.896579 13.323651 
L 146.020146 16.350001 
L 146.108409 16.350001 
L 146.284934 11.87715 
L 146.373196 11.979525 
L 146.549721 12.040453 
L 146.814509 12.123559 
L 146.991034 12.352134 
L 147.255821 12.147453 
L 147.308779 12.209292 
L 147.344084 12.638379 
L 147.608872 22.493445 
L 147.697134 22.493445 
L 147.785396 21.641963 
L 147.873659 18.453781 
L 148.050184 10.871823 
L 148.191404 10.813488 
L 148.226709 10.913166 
L 148.367929 12.125135 
L 148.403234 12.125135 
L 148.615064 9.532287 
L 148.756284 7.347575 
L 148.791589 7.011473 
L 148.844546 7.347575 
L 149.144639 6.236965 
L 149.285859 6.001592 
L 149.321164 6.001592 
L 149.462384 9.343547 
L 149.497689 9.387132 
L 149.850739 13.674713 
L 150.080222 20.430729 
L 156.911741 10.822492 
L 157.000003 12.606251 
L 157.176528 20.380102 
L 157.617841 21.226049 
L 157.653146 21.396079 
L 157.829671 22.826499 
L 157.882628 22.826499 
L 158.006196 21.665962 
L 158.147416 21.760385 
L 158.235678 24.494288 
L 158.535771 29.13237 
L 158.624033 29.089941 
L 158.853516 26.772862 
L 158.977083 21.817178 
L 159.118303 21.817178 
L 159.294828 24.709059 
L 159.330133 24.818057 
L 159.418396 24.786138 
L 159.559616 24.818057 
L 159.859708 26.117127 
L 159.947971 26.131702 
L 160.177453 26.482343 
L 160.301021 26.482343 
L 160.442241 26.784109 
L 160.477546 26.784109 
L 160.654071 26.397871 
L 160.883554 26.283968 
L 160.971816 26.301241 
L 161.148341 26.745465 
L 161.183646 26.763193 
L 161.360171 27.413813 
L 161.413129 27.417667 
L 161.536696 27.657314 
L 161.713221 27.462093 
L 161.978009 26.662289 
L 162.648804 26.619334 
L 162.860634 25.716699 
L 163.037159 24.970885 
L 163.125422 25.063345 
L 163.354904 27.263473 
L 163.478472 27.299211 
L 163.566734 27.143229 
L 163.707954 27.02225 
L 163.743259 27.02225 
L 163.919784 28.606023 
L 163.972742 28.795077 
L 164.096309 28.446467 
L 164.149267 28.309862 
L 164.272834 27.005011 
L 164.325792 27.005011 
L 164.449359 27.131842 
L 164.625884 27.131842 
L 164.714147 26.483814 
L 164.890672 22.573222 
L 164.978935 22.573222 
L 165.120154 22.81322 
L 165.155459 22.81322 
L 165.208417 22.093999 
L 165.384942 12.14395 
L 165.473204 12.05727 
L 165.596772 11.844461 
L 165.737992 11.154915 
L 166.038085 9.604777 
L 166.249915 20.157272 
L 166.338177 20.230322 
L 166.426439 22.093964 
L 166.56766 24.337257 
L 166.691227 24.578374 
L 166.744185 24.578374 
L 166.92071 19.733125 
L 167.044277 19.018948 
L 167.13254 19.733125 
L 167.27376 25.639584 
L 167.397327 26.039732 
L 167.662115 25.867074 
L 167.715072 24.165229 
L 167.83864 18.882938 
L 167.926902 18.882938 
L 168.068122 23.614426 
L 168.244647 23.953436 
L 168.279952 23.953436 
L 168.421173 24.347172 
L 168.509435 24.332421 
L 168.68596 18.896497 
L 168.950748 18.896497 
L 169.127272 24.737404 
L 169.215535 25.086329 
L 169.25084 24.737404 
L 169.568585 12.290085 
L 169.780415 12.290085 
L 169.95694 25.408766 
L 170.009898 25.408766 
L 170.09816 24.891177 
L 170.274686 22.679137 
L 170.486516 22.777519 
L 170.66304 21.752501 
L 170.804261 21.662039 
L 170.839565 21.621572 
L 170.892523 21.38259 
L 171.016091 17.142378 
L 171.245573 17.142378 
L 171.369141 25.778011 
L 171.457403 26.618738 
L 171.775148 29.377237 
L 171.810453 29.377237 
L 171.898716 28.634683 
L 172.075241 21.971688 
L 172.216461 21.813044 
L 172.251765 21.03307 
L 172.392986 12.199867 
L 172.569511 11.143879 
L 172.922561 12.044517 
L 173.134391 5.649549 
L 173.275611 5.567004 
L 173.310916 5.649549 
L 173.487441 6.556249 
L 173.575703 6.618473 
L 173.893448 9.209499 
L 174.017016 9.281218 
L 174.158236 9.131999 
L 174.370066 8.917824 
L 174.458329 8.917824 
L 174.599549 15.823513 
L 174.899641 18.438961 
L 175.076166 20.836587 
L 175.111471 20.836587 
L 175.164429 20.435879 
L 175.376259 14.014458 
L 175.517479 14.014458 
L 175.817571 21.820051 
L 175.905834 21.820051 
L 176.135316 21.181903 
L 176.347146 20.993304 
L 176.523672 20.854281 
L 176.664891 20.685581 
L 176.753154 20.762977 
L 176.929679 21.543827 
L 176.964984 21.715959 
L 177.017941 21.543827 
L 177.141509 21.413212 
L 177.282729 20.212769 
L 177.370992 20.212769 
L 177.494559 20.613302 
L 177.582822 20.613302 
L 177.724042 18.816685 
L 177.847609 18.829123 
L 177.988829 19.156711 
L 178.077092 18.327966 
L 178.253617 15.029069 
L 178.288922 15.029069 
L 178.341879 15.278351 
L 178.553709 18.561937 
L 178.694929 17.389838 
L 178.818497 15.562319 
L 178.90676 15.562319 
L 179.083284 19.771524 
L 179.401029 22.305861 
L 179.436335 22.256986 
L 179.701122 17.998171 
L 179.75408 17.998171 
L 179.842342 18.506405 
L 180.054172 21.156782 
L 180.548442 21.069542 
L 180.724967 19.965484 
L 180.848535 19.965484 
L 181.02506 15.276039 
L 181.078017 15.112175 
L 181.201585 14.165114 
L 181.254542 14.165114 
L 181.431067 15.162031 
L 181.695855 20.922251 
L 181.87238 20.819385 
L 181.995947 20.042073 
L 182.172472 20.042073 
L 182.348998 20.627947 
L 182.525522 20.539236 
L 182.613785 20.003884 
L 182.966835 13.94386 
L 183.108055 13.966529 
L 183.14336 14.055486 
L 183.461105 22.883012 
L 183.584672 22.969761 
L 183.672935 22.979677 
L 183.84946 23.257548 
L 184.237815 23.275696 
L 184.590865 23.209829 
L 184.732086 22.231481 
L 184.855653 20.103281 
L 185.296965 19.774748 
L 185.702973 19.753761 
L 186.091328 19.658148 
L 186.232548 20.211298 
L 186.673861 23.204959 
L 186.938648 22.651773 
L 187.238741 20.956761 
L 187.415266 20.848079 
L 187.468223 20.918992 
L 187.768316 23.108399 
L 187.909536 22.999156 
L 188.474416 19.697668 
L 188.615636 20.585833 
L 188.650941 20.585833 
L 188.739204 19.9754 
L 188.968686 17.225764 
L 189.145211 19.577564 
L 189.268779 20.361813 
L 189.321736 20.361813 
L 189.445304 15.182458 
L 189.586524 13.909385 
L 189.621829 13.909385 
L 189.798354 14.548689 
L 189.851311 14.548689 
L 190.027836 13.820849 
L 190.151404 12.800597 
L 190.292624 12.856409 
L 190.769242 19.162982 
L 190.822199 19.162982 
L 190.945766 18.170934 
L 190.998724 18.170934 
L 191.210554 18.959702 
L 191.263511 18.959702 
L 191.440036 17.382306 
L 191.563604 17.382306 
L 191.704824 18.223558 
L 191.793086 18.223558 
L 191.916654 15.869656 
L 192.093179 13.529068 
L 192.146137 13.529068 
L 192.269704 13.990774 
L 192.410924 15.105448 
L 192.446229 15.105448 
L 192.746322 12.416741 
L 192.834584 12.3528 
L 192.922847 12.449395 
L 193.099372 15.321411 
L 193.275897 17.180007 
L 193.328854 17.20667 
L 193.452422 17.431111 
L 193.593642 17.431111 
L 193.628947 17.072446 
L 193.805472 13.364783 
L 193.981997 13.365169 
L 194.070259 13.647245 
L 194.246784 14.693108 
L 194.42331 16.992389 
L 194.599834 18.020664 
L 194.829317 18.926137 
L 195.129409 12.619635 
L 195.217672 12.673626 
L 195.358892 12.96411 
L 195.570722 12.894494 
L 195.747247 14.336721 
L 195.923772 18.301198 
L 196.241517 20.42204 
L 196.365085 19.419411 
L 196.453347 19.419411 
L 196.506305 19.556157 
L 196.594568 21.703872 
L 196.718135 23.609976 
L 196.89466 23.65724 
L 197.071185 23.376216 
L 197.300667 23.064604 
L 197.335973 22.44464 
L 197.512497 17.432372 
L 198.042072 13.133195 
L 198.183293 13.155688 
L 198.30686 14.187151 
L 198.395123 14.885071 
L 198.65991 21.342264 
L 198.836435 21.342264 
L 198.889393 21.330667 
L 199.065918 20.649529 
L 199.101223 20.649529 
L 199.277748 20.813183 
L 199.418968 20.823379 
L 199.454273 21.062605 
L 199.595493 23.043828 
L 199.683755 23.043828 
L 199.807323 21.060118 
L 200.07211 12.654881 
L 200.160373 12.698011 
L 200.21333 12.866359 
L 200.742905 21.45056 
L 200.831168 21.45056 
L 200.919431 20.274118 
L 201.219523 11.665742 
L 201.272481 11.665742 
L 201.484311 12.892076 
L 201.837361 12.936957 
L 201.872666 13.037091 
L 202.190411 20.580964 
L 202.366936 20.742235 
L 202.402241 20.636216 
L 202.455198 20.742235 
L 202.808248 20.801306 
L 203.020078 20.117997 
L 203.161299 20.668414 
L 203.373129 20.671322 
L 203.514349 21.039657 
L 203.814441 21.09207 
L 203.955661 20.916295 
L 204.132186 20.775765 
L 204.167491 20.775765 
L 204.344016 20.968288 
L 204.432279 20.874041 
L 204.608804 20.747665 
L 204.661761 20.835431 
L 204.697066 20.874041 
L 204.873591 20.587795 
L 205.367861 20.587795 
L 205.491429 18.942079 
L 205.544387 18.942079 
L 205.756217 20.195777 
L 205.897437 20.33 
L 206.109267 21.234107 
L 206.338749 21.1304 
L 206.550579 21.131417 
L 206.691799 21.197599 
L 206.815367 21.290375 
L 206.991892 21.26669 
L 207.168417 20.988188 
L 207.221374 21.055809 
L 207.256679 20.988188 
L 207.344942 20.962227 
L 207.486162 18.98181 
L 207.521467 18.951784 
L 207.609729 17.614034 
L 207.609729 17.614034 
" clip-path="url(#p6e452efc0b)" style="fill: none; stroke: #5c80b5; stroke-width: 0.5; stroke-linecap: square"/>
   </g>
   <g id="patch_3">
    <path d="M 59.527559 30.614173 
L 59.527559 3.401575 
" style="fill: none; stroke: #000000; stroke-width: 0.4; stroke-linejoin: miter; stroke-linecap: square"/>
   </g>
   <g id="patch_4">
    <path d="M 208.346457 30.614173 
L 208.346457 3.401575 
" style="fill: none; stroke: #000000; stroke-width: 0.4; stroke-linejoin: miter; stroke-linecap: square"/>
   </g>
   <g id="patch_5">
    <path d="M 59.527559 30.614173 
L 208.346457 30.614173 
" style="fill: none; stroke: #000000; stroke-width: 0.4; stroke-linejoin: miter; stroke-linecap: square"/>
   </g>
   <g id="patch_6">
    <path d="M 59.527559 3.401575 
L 208.346457 3.401575 
" style="fill: none; stroke: #000000; stroke-width: 0.4; stroke-linejoin: miter; stroke-linecap: square"/>
   </g>
  </g>
 </g>
 <defs>
  <clipPath id="p6e452efc0b">
   <rect x="59.527559" y="3.401575" width="148.818898" height="27.212598"/>
  </clipPath>
 </defs>
</svg>
