<?xml version="1.0" encoding="utf-8" standalone="no"?>
<!DOCTYPE svg PUBLIC "-//W3C//DTD SVG 1.1//EN"
  "http://www.w3.org/Graphics/SVG/1.1/DTD/svg11.dtd">
<svg xmlns:xlink="http://www.w3.org/1999/xlink" width="212.598425pt" height="42.519685pt" viewBox="0 0 212.598425 42.519685" xmlns="http://www.w3.org/2000/svg" version="1.1">
 <metadata>
  <rdf:RDF xmlns:dc="http://purl.org/dc/elements/1.1/" xmlns:cc="http://creativecommons.org/ns#" xmlns:rdf="http://www.w3.org/1999/02/22-rdf-syntax-ns#">
   <cc:Work>
    <dc:type rdf:resource="http://purl.org/dc/dcmitype/StillImage"/>
    <dc:date>2026-06-01T17:59:21.373946</dc:date>
    <dc:format>image/svg+xml</dc:format>
    <dc:creator>
     <cc:Agent>
      <dc:title>Matplotlib v3.10.8, https://matplotlib.org/</dc:title>
     </cc:Agent>
    </dc:creator>
   </cc:Work>
  </rdf:RDF>
 </metadata>
 <defs>
  <style type="text/css">*{stroke-linejoin: round; stroke-linecap: butt}</style>
 </defs>
 <g id="figure_1">
  <g id="patch_1">
   <path d="M 0 42.519685 
L 212.598425 42.519685 
L 212.598425 0 
L 0 0 
z
" style="fill: #ffffff"/>
  </g>
  <g id="axes_1">
   <g id="patch_2">
    <path d="M 59.527559 30.614173 
L 208.346457 30.614173 
L 208.346457 3.401575 
L 59.527559 3.401575 
z
" style="fill: #eaeaf2"/>
   </g>
   <g id="matplotlib.axis_1">
    <g id="xtick_1">
     <g id="line2d_1">
      <path d="M 60.264286 30.614173 
L 60.264286 3.401575 
" clip-path="url(#p4d5cac3d18)" style="fill: none; stroke: #ffffff; stroke-width: 0.9; stroke-linecap: square"/>
     </g>
     <g id="line2d_2">
      <defs>
       <path id="mb200795cd4" d="M 0 0 
L 0 2 
" style="stroke: #000000; stroke-width: 0.4"/>
      </defs>
      <g>
       <use xlink:href="#mb200795cd4" x="60.264286" y="30.614173" style="stroke: #000000; stroke-width: 0.4"/>
      </g>
     </g>
     <g id="text_1">
      <text style="font-size: 8px; font-family: 'DejaVu Sans', 'Bitstream Vera Sans', 'Computer Modern Sans Serif', 'Lucida Grande', 'Verdana', 'Geneva', 'Lucid', 'Arial', 'Helvetica', 'Avant Garde', sans-serif; text-anchor: middle" x="60.264286" y="42.192923" transform="rotate(-0 60.264286 42.192923)">0</text>
     </g>
    </g>
    <g id="xtick_2">
     <g id="line2d_3">
      <path d="M 92.007049 30.614173 
L 92.007049 3.401575 
" clip-path="url(#p4d5cac3d18)" style="fill: none; stroke: #ffffff; stroke-width: 0.9; stroke-linecap: square"/>
     </g>
     <g id="line2d_4">
      <g>
       <use xlink:href="#mb200795cd4" x="92.007049" y="30.614173" style="stroke: #000000; stroke-width: 0.4"/>
      </g>
     </g>
     <g id="text_2">
      <text style="font-size: 8px; font-family: 'DejaVu Sans', 'Bitstream Vera Sans', 'Computer Modern Sans Serif', 'Lucida Grande', 'Verdana', 'Geneva', 'Lucid', 'Arial', 'Helvetica', 'Avant Garde', sans-serif; text-anchor: middle" x="92.007049" y="42.192923" transform="rotate(-0 92.007049 42.192923)">60</text>
     </g>
    </g>
    <g id="xtick_3">
     <g id="line2d_5">
      <path d="M 123.749812 30.614173 
L 123.749812 3.401575 
" clip-path="url(#p4d5cac3d18)" style="fill: none; stroke: #ffffff; stroke-width: 0.9; stroke-linecap: square"/>
     </g>
     <g id="line2d_6">
      <g>
       <use xlink:href="#mb200795cd4" x="123.749812" y="30.614173" style="stroke: #000000; stroke-width: 0.4"/>
      </g>
     </g>
     <g id="text_3">
      <text style="font-size: 8px; font-family: 'DejaVu Sans', 'Bitstream Vera Sans', 'Computer Modern Sans Serif', 'Lucida Grande', 'Verdana', 'Geneva', 'Lucid', 'Arial', 'Helvetica', 'Avant Garde', sans-serif; text-anchor: middle" x="123.749812" y="42.192923" transform="rotate(-0 123.749812 42.192923)">120</text>
     </g>
    </g>
    <g id="xtick_4">
     <g id="line2d_7">
      <path d="M 155.492574 30.614173 
L 155.492574 3.401575 
" clip-path="url(#p4d5cac3d18)" style="fill: none; stroke: #ffffff; stroke-width: 0.9; stroke-linecap: square"/>
     </g>
     <g id="line2d_8">
      <g>
       <use xlink:href="#mb200795cd4" x="155.492574" y="30.614173" style="stroke: #000000; stroke-width: 0.4"/>
      </g>
     </g>
     <g id="text_4">
      <text style="font-size: 8px; font-family: 'DejaVu Sans', 'Bitstream Vera Sans', 'Computer Modern Sans Serif', 'Lucida Grande', 'Verdana', 'Geneva', 'Lucid', 'Arial', 'Helvetica', 'Avant Garde', sans-serif; text-anchor: middle" x="155.492574" y="42.192923" transform="rotate(-0 155.492574 42.192923)">180</text>
     </g>
    </g>
    <g id="xtick_5">
     <g id="line2d_9">
      <path d="M 187.235337 30.614173 
L 187.235337 3.401575 
" clip-path="url(#p4d5cac3d18)" style="fill: none; stroke: #ffffff; stroke-width: 0.9; stroke-linecap: square"/>
     </g>
     <g id="line2d_10">
      <g>
       <use xlink:href="#mb200795cd4" x="187.235337" y="30.614173" style="stroke: #000000; stroke-width: 0.4"/>
      </g>
     </g>
     <g id="text_5">
      <text style="font-size: 8px; font-family: 'DejaVu Sans', 'Bitstream Vera Sans', 'Computer Modern Sans Serif', 'Lucida Grande', 'Verdana', 'Geneva', 'Lucid', 'Arial', 'Helvetica', 'Avant Garde', sans-serif; text-anchor: middle" x="187.235337" y="42.192923" transform="rotate(-0 187.235337 42.192923)">240</text>
     </g>
    </g>
    <g id="xtick_6">
     <g id="line2d_11">
      <path d="M 76.135668 30.614173 
L 76.135668 3.401575 
" clip-path="url(#p4d5cac3d18)" style="fill: none; stroke: #ffffff; stroke-opacity: 0.9; stroke-width: 0.55; stroke-linecap: square"/>
     </g>
     <g id="line2d_12">
      <defs>
       <path id="m6b799a0fd9" d="M 0 0 
L 0 2 
" style="stroke: #000000; stroke-width: 0.6"/>
      </defs>
      <g>
       <use xlink:href="#m6b799a0fd9" x="76.135668" y="30.614173" style="stroke: #000000; stroke-width: 0.6"/>
      </g>
     </g>
    </g>
    <g id="xtick_7">
     <g id="line2d_13">
      <path d="M 107.87843 30.614173 
L 107.87843 3.401575 
" clip-path="url(#p4d5cac3d18)" style="fill: none; stroke: #ffffff; stroke-opacity: 0.9; stroke-width: 0.55; stroke-linecap: square"/>
     </g>
     <g id="line2d_14">
      <g>
       <use xlink:href="#m6b799a0fd9" x="107.87843" y="30.614173" style="stroke: #000000; stroke-width: 0.6"/>
      </g>
     </g>
    </g>
    <g id="xtick_8">
     <g id="line2d_15">
      <path d="M 139.621193 30.614173 
L 139.621193 3.401575 
" clip-path="url(#p4d5cac3d18)" style="fill: none; stroke: #ffffff; stroke-opacity: 0.9; stroke-width: 0.55; stroke-linecap: square"/>
     </g>
     <g id="line2d_16">
      <g>
       <use xlink:href="#m6b799a0fd9" x="139.621193" y="30.614173" style="stroke: #000000; stroke-width: 0.6"/>
      </g>
     </g>
    </g>
    <g id="xtick_9">
     <g id="line2d_17">
      <path d="M 171.363956 30.614173 
L 171.363956 3.401575 
" clip-path="url(#p4d5cac3d18)" style="fill: none; stroke: #ffffff; stroke-opacity: 0.9; stroke-width: 0.55; stroke-linecap: square"/>
     </g>
     <g id="line2d_18">
      <g>
       <use xlink:href="#m6b799a0fd9" x="171.363956" y="30.614173" style="stroke: #000000; stroke-width: 0.6"/>
      </g>
     </g>
    </g>
    <g id="xtick_10">
     <g id="line2d_19">
      <path d="M 203.106719 30.614173 
L 203.106719 3.401575 
" clip-path="url(#p4d5cac3d18)" style="fill: none; stroke: #ffffff; stroke-opacity: 0.9; stroke-width: 0.55; stroke-linecap: square"/>
     </g>
     <g id="line2d_20">
      <g>
       <use xlink:href="#m6b799a0fd9" x="203.106719" y="30.614173" style="stroke: #000000; stroke-width: 0.6"/>
      </g>
     </g>
    </g>
    <g id="text_6">
     <text style="font-size: 8px; font-family: 'DejaVu Sans', 'Bitstream Vera Sans', 'Computer Modern Sans Serif', 'Lucida Grande', 'Verdana', 'Geneva', 'Lucid', 'Arial', 'Helvetica', 'Avant Garde', sans-serif; text-anchor: middle" x="133.937008" y="53.935423" transform="rotate(-0 133.937008 53.935423)">time</text>
    </g>
   </g>
   <g id="matplotlib.axis_2">
    <g id="ytick_1">
     <g id="line2d_21">
      <path d="M 59.527559 25.588026 
L 208.346457 25.588026 
" clip-path="url(#p4d5cac3d18)" style="fill: none; stroke: #ffffff; stroke-width: 0.9; stroke-linecap: square"/>
     </g>
     <g id="line2d_22">
      <defs>
       <path id="m4c6cfaf14e" d="M 0 0 
L -2 0 
" style="stroke: #000000; stroke-width: 0.4"/>
      </defs>
      <g>
       <use xlink:href="#m4c6cfaf14e" x="59.527559" y="25.588026" style="stroke: #000000; stroke-width: 0.4"/>
      </g>
     </g>
     <g id="text_7">
      <text style="font-size: 8px; font-family: 'DejaVu Sans', 'Bitstream Vera Sans', 'Computer Modern Sans Serif', 'Lucida Grande', 'Verdana', 'Geneva', 'Lucid', 'Arial', 'Helvetica', 'Avant Garde', sans-serif; text-anchor: end" x="54.027559" y="28.627401" transform="rotate(-0 54.027559 28.627401)">−1.5</text>
     </g>
    </g>
    <g id="ytick_2">
     <g id="line2d_23">
      <path d="M 59.527559 15.396502 
L 208.346457 15.396502 
" clip-path="url(#p4d5cac3d18)" style="fill: none; stroke: #ffffff; stroke-width: 0.9; stroke-linecap: square"/>
     </g>
     <g id="line2d_24">
      <g>
       <use xlink:href="#m4c6cfaf14e" x="59.527559" y="15.396502" style="stroke: #000000; stroke-width: 0.4"/>
      </g>
     </g>
     <g id="text_8">
      <text style="font-size: 8px; font-family: 'DejaVu Sans', 'Bitstream Vera Sans', 'Computer Modern Sans Serif', 'Lucida Grande', 'Verdana', 'Geneva', 'Lucid', 'Arial', 'Helvetica', 'Avant Garde', sans-serif; text-anchor: end" x="54.027559" y="18.435877" transform="rotate(-0 54.027559 18.435877)">0.0</text>
     </g>
    </g>
    <g id="ytick_3">
     <g id="line2d_25">
      <path d="M 59.527559 5.204978 
L 208.346457 5.204978 
" clip-path="url(#p4d5cac3d18)" style="fill: none; stroke: #ffffff; stroke-width: 0.9; stroke-linecap: square"/>
     </g>
     <g id="line2d_26">
      <g>
       <use xlink:href="#m4c6cfaf14e" x="59.527559" y="5.204978" style="stroke: #000000; stroke-width: 0.4"/>
      </g>
     </g>
     <g id="text_9">
      <text style="font-size: 8px; font-family: 'DejaVu Sans', 'Bitstream Vera Sans', 'Computer Modern Sans Serif', 'Lucida Grande', 'Verdana', 'Geneva', 'Lucid', 'Arial', 'Helvetica', 'Avant Garde', sans-serif; text-anchor: end" x="54.027559" y="8.244353" transform="rotate(-0 54.027559 8.244353)">1.5</text>
     </g>
    </g>
    <g id="ytick_4">
     <g id="line2d_27">
      <path d="M 59.527559 20.492264 
L 208.346457 20.492264 
" clip-path="url(#p4d5cac3d18)" style="fill: none; stroke: #ffffff; stroke-opacity: 0.9; stroke-width: 0.55; stroke-linecap: square"/>
     </g>
     <g id="line2d_28">
      <defs>
       <path id="m7fdd20f04b" d="M 0 0 
L -2 0 
" style="stroke: #000000; stroke-width: 0.6"/>
      </defs>
      <g>
       <use xlink:href="#m7fdd20f04b" x="59.527559" y="20.492264" style="stroke: #000000; stroke-width: 0.6"/>
      </g>
     </g>
    </g>
    <g id="ytick_5">
     <g id="line2d_29">
      <path d="M 59.527559 10.30074 
L 208.346457 10.30074 
" clip-path="url(#p4d5cac3d18)" style="fill: none; stroke: #ffffff; stroke-opacity: 0.9; stroke-width: 0.55; stroke-linecap: square"/>
     </g>
     <g id="line2d_30">
      <g>
       <use xlink:href="#m7fdd20f04b" x="59.527559" y="10.30074" style="stroke: #000000; stroke-width: 0.6"/>
      </g>
     </g>
    </g>
    <g id="text_10">
     <text style="font-size: 8px; font-family: 'DejaVu Sans', 'Bitstream Vera Sans', 'Computer Modern Sans Serif', 'Lucida Grande', 'Verdana', 'Geneva', 'Lucid', 'Arial', 'Helvetica', 'Avant Garde', sans-serif; text-anchor: middle" x="28.715059" y="17.007874" transform="rotate(-90 28.715059 17.007874)">left_shoulder_dy</text>
    </g>
   </g>
   <g id="line2d_31">
    <path d="M 60.264286 9.451378 
L 60.582031 8.366823 
L 60.705599 6.607758 
L 60.846819 6.666781 
L 60.882124 6.751118 
L 61.023344 7.556811 
L 61.111606 7.827215 
L 61.288132 8.433644 
L 61.499962 7.500187 
L 61.676486 7.011204 
L 61.817707 6.827776 
L 61.853012 6.827776 
L 61.994231 7.318678 
L 62.029537 7.318678 
L 62.259019 6.667981 
L 62.382587 6.77787 
L 62.435544 6.77787 
L 62.647374 6.250498 
L 62.823899 6.690294 
L 62.965119 6.693773 
L 63.265212 8.665179 
L 63.318169 8.647664 
L 63.618262 7.442363 
L 63.706524 7.386578 
L 63.759482 7.445602 
L 64.059574 7.48819 
L 64.200795 6.662702 
L 64.236099 6.662702 
L 64.465582 6.960338 
L 64.995157 7.046355 
L 65.259945 7.155403 
L 65.348207 7.205549 
L 65.383512 7.155403 
L 65.966045 7.251497 
L 66.089612 7.319638 
L 66.3544 7.984971 
L 66.583883 7.192233 
L 66.795713 6.500508 
L 67.025195 6.515983 
L 67.325288 7.13393 
L 67.41355 7.13393 
L 67.466508 6.888359 
L 67.501812 7.13393 
L 67.590075 7.193793 
L 67.731295 9.664498 
L 67.819557 9.664498 
L 67.943125 8.620551 
L 68.031387 8.702608 
L 68.084345 9.949058 
L 68.207913 20.737867 
L 68.26087 20.737867 
L 68.384438 18.989716 
L 68.525658 18.651172 
L 68.61392 19.009992 
L 68.82575 17.865992 
L 69.002275 17.689642 
L 69.567155 17.865633 
L 69.708376 8.442522 
L 69.796638 8.050472 
L 69.920206 7.024281 
L 70.061425 5.855209 
L 70.09673 5.855209 
L 70.414475 7.182396 
L 70.502738 7.217546 
L 70.626305 7.659982 
L 70.802831 7.713486 
L 70.891093 7.434805 
L 71.032313 7.671018 
L 71.332406 7.781508 
L 71.561888 6.694493 
L 71.597193 6.694493 
L 71.738413 7.579604 
L 71.861981 8.185193 
L 71.914938 8.185193 
L 72.126768 6.905634 
L 72.356251 7.306081 
L 72.479818 19.892103 
L 72.532776 19.892103 
L 72.656343 19.382006 
L 72.744606 19.247764 
L 72.921131 19.440791 
L 73.150614 19.440791 
L 73.538968 17.850997 
L 73.591926 17.850997 
L 73.715494 7.835493 
L 74.245069 7.902193 
L 74.386289 8.160961 
L 74.509856 8.576883 
L 74.651076 8.563688 
L 74.774644 8.452839 
L 74.862906 8.754914 
L 75.004127 10.966253 
L 75.039431 10.966253 
L 75.180651 10.378177 
L 75.215957 10.378177 
L 75.268914 10.626747 
L 75.392481 20.993874 
L 75.445439 20.993874 
L 75.621964 19.26108 
L 75.745532 18.956246 
L 75.975014 18.19422 
L 76.098582 18.256124 
L 76.275107 19.507491 
L 76.416327 19.756781 
L 76.451631 19.756781 
L 76.628157 19.08629 
L 76.716419 19.200138 
L 76.857639 19.743826 
L 76.892944 19.743826 
L 77.069469 18.152112 
L 77.210689 18.152112 
L 77.334257 18.931293 
L 77.599044 18.862792 
L 77.687307 18.772578 
L 77.775569 18.879829 
L 77.863832 18.712835 
L 77.91679 18.772578 
L 78.12862 19.095167 
L 78.216882 19.106444 
L 78.34045 19.269718 
L 78.393407 19.234929 
L 78.516974 18.817925 
L 78.605237 18.817925 
L 78.781762 19.413077 
L 78.922982 19.343497 
L 79.011245 19.093729 
L 79.134812 18.722912 
L 79.364294 18.454187 
L 79.576124 17.862513 
L 79.629082 17.918179 
L 79.805607 18.02051 
L 79.982132 18.242207 
L 80.1057 18.238128 
L 80.193962 17.400404 
L 80.335182 10.08366 
L 80.370487 10.08366 
L 80.547012 10.480869 
L 80.59997 10.374338 
L 80.723537 8.583122 
L 80.900062 7.951739 
L 81.076587 9.006243 
L 81.129545 9.947979 
L 81.253113 14.629303 
L 81.394332 15.42192 
L 81.482595 16.068779 
L 81.606162 19.830201 
L 81.694425 19.994554 
L 82.047475 22.521285 
L 82.135738 22.521285 
L 82.453483 20.875107 
L 82.665313 20.888303 
L 82.841838 21.198295 
L 83.018363 20.89718 
L 83.194888 20.080091 
L 83.371413 20.091966 
L 83.600895 20.348455 
L 83.6362 20.348455 
L 84.13047 13.774183 
L 84.254038 17.074096 
L 84.430563 18.520289 
L 84.518825 18.520289 
L 84.660045 17.683524 
L 84.695351 17.666729 
L 84.836571 16.935414 
L 84.960138 15.366136 
L 85.101358 15.366136 
L 85.313188 16.381651 
L 85.489713 19.287834 
L 85.666238 19.51385 
L 85.807458 19.536044 
L 85.931026 19.661048 
L 86.284076 18.676844 
L 86.637126 5.595722 
L 86.690083 5.595722 
L 86.813651 5.878963 
L 86.990176 6.148886 
L 87.166701 7.787626 
L 87.290269 7.872922 
L 87.555056 8.633148 
L 87.608014 8.296042 
L 87.643319 8.633148 
L 87.996368 9.305319 
L 88.049326 9.030356 
L 88.137589 8.763311 
L 88.261156 9.257932 
L 88.349419 9.257932 
L 88.402376 9.613992 
L 88.490639 11.385055 
L 88.614206 23.88758 
L 88.931951 26.249596 
L 89.020214 26.249596 
L 89.585094 20.502492 
L 89.849881 19.694759 
L 89.902839 19.782455 
L 89.938144 20.08441 
L 90.114669 24.344892 
L 90.167626 24.344892 
L 90.202932 23.696834 
L 90.344151 14.617786 
L 90.379456 14.617786 
L 90.520677 24.42503 
L 90.555982 24.42503 
L 90.697201 24.225525 
L 90.732507 24.225525 
L 90.873727 25.616654 
L 90.909031 25.616654 
L 91.085557 23.512686 
L 91.350344 23.2508 
L 91.403302 23.2508 
L 91.579827 23.857948 
L 91.615132 23.857948 
L 91.791657 20.972521 
L 91.879919 20.972521 
L 92.056444 21.916175 
L 92.409494 22.012627 
L 92.58602 22.137752 
L 92.992027 21.681161 
L 93.027332 21.501811 
L 93.080289 21.681161 
L 93.168552 21.771496 
L 93.292119 22.773933 
L 93.345077 22.773933 
L 93.468645 22.549597 
L 93.874652 22.634653 
L 93.909957 22.685518 
L 93.962915 22.634653 
L 93.99822 22.394959 
L 94.051177 22.685518 
L 94.139439 22.869427 
L 94.263007 25.806561 
L 94.35127 25.806561 
L 94.404227 25.683235 
L 94.527795 24.910293 
L 94.580752 24.876943 
L 94.880845 23.146548 
L 94.933802 23.146548 
L 94.969107 23.033179 
L 95.322157 20.231488 
L 95.375115 20.231488 
L 95.498683 20.931012 
L 95.586945 20.931012 
L 95.798775 6.675898 
L 95.9753 7.751037 
L 96.11652 7.884918 
L 96.240088 8.081423 
L 96.32835 8.041235 
L 96.734357 7.288446 
L 96.82262 7.31208 
L 96.946187 7.09734 
L 97.122713 7.359586 
L 97.299238 7.369784 
L 97.52872 6.714168 
L 97.652288 6.714168 
L 97.828813 7.823376 
L 98.146558 7.927746 
L 98.411346 8.189992 
L 98.58787 7.818457 
L 98.623176 7.818457 
L 98.764395 18.015951 
L 98.887963 18.498696 
L 98.940921 18.498696 
L 99.064488 19.412359 
L 99.329275 19.383807 
L 99.417538 19.011551 
L 99.558758 18.517889 
L 99.64702 18.537083 
L 99.947113 20.08069 
L 100.000071 20.08069 
L 100.176596 19.4787 
L 100.529646 19.312067 
L 100.653213 19.261201 
L 100.918001 19.287113 
L 101.094526 18.973161 
L 101.271051 18.912698 
L 101.588796 17.84092 
L 101.677058 17.848598 
L 101.800626 18.200818 
L 101.888888 18.200818 
L 102.030108 17.76786 
L 102.153676 17.793893 
L 102.294896 18.031906 
L 102.330201 17.793893 
L 102.471421 4.759676 
L 102.736209 4.655787 
L 102.948039 5.373904 
L 103.089259 5.397778 
L 103.265784 5.922871 
L 103.442309 5.721687 
L 103.565876 5.721687 
L 103.830664 8.933784 
L 103.971884 19.684562 
L 104.060146 19.678204 
L 104.183714 8.331192 
L 104.271976 8.331192 
L 104.448502 8.677056 
L 104.748594 7.91671 
L 104.889814 7.91671 
L 105.013382 7.570127 
L 105.066339 7.570127 
L 105.189907 7.897995 
L 105.331127 7.990609 
L 105.542957 8.685214 
L 105.631219 8.685214 
L 105.984269 6.210309 
L 106.072532 6.069229 
L 106.213752 6.291646 
L 106.337319 7.440324 
L 106.778632 7.362945 
L 107.008114 7.159123 
L 107.096377 7.159123 
L 107.219944 7.422568 
L 107.396469 7.513263 
L 107.625952 7.84341 
L 107.89074 7.798423 
L 108.014307 7.63107 
L 108.80867 7.193793 
L 109.073457 7.259414 
L 109.16172 7.248618 
L 109.338245 7.441404 
L 110.132607 7.550212 
L 110.309132 7.672098 
L 110.36209 7.672698 
L 110.485658 7.80646 
L 110.750445 7.812819 
L 110.838708 7.428927 
L 111.015233 6.060711 
L 111.156453 5.92107 
L 111.368283 5.31764 
L 111.42124 5.31764 
L 111.897858 6.975335 
L 111.950815 6.975335 
L 112.162645 6.093702 
L 112.215603 6.093702 
L 112.427433 6.751118 
L 112.780483 5.588883 
L 113.098228 7.959297 
L 113.2571 6.677698 
L 113.345363 6.672539 
L 113.486583 5.169482 
L 113.698413 5.169482 
L 114.192683 8.333952 
L 114.227988 8.238699 
L 114.404513 8.05743 
L 114.457471 8.19827 
L 114.669301 8.207148 
L 114.810521 8.002486 
L 115.022351 8.003805 
L 115.163571 7.867163 
L 115.516621 7.964696 
L 115.816713 8.289325 
L 115.869671 8.231381 
L 115.904976 8.185074 
L 116.046196 6.343231 
L 116.169763 6.343231 
L 116.258026 6.913791 
L 116.434551 8.056829 
L 116.522814 8.056829 
L 116.664034 7.726443 
L 116.699338 7.726443 
L 116.840559 8.450799 
L 116.928821 8.407012 
L 117.052389 8.208467 
L 117.281871 7.953899 
L 117.493701 7.563289 
L 117.546659 7.563289 
L 117.758489 8.48067 
L 117.811446 8.533456 
L 117.935014 9.120571 
L 117.987971 9.120571 
L 118.252759 7.936264 
L 118.376327 6.565289 
L 118.552851 6.487911 
L 118.605809 6.519103 
L 118.729376 6.731203 
L 118.994164 6.73972 
L 119.170689 7.406853 
L 119.400171 7.339311 
L 119.488434 7.017442 
L 119.664959 6.269932 
L 119.965052 6.228665 
L 120.371059 7.019482 
L 120.547584 7.170759 
L 120.671152 7.639108 
L 120.724109 7.639108 
L 121.077159 6.568409 
L 121.253684 6.761675 
L 121.28899 6.633071 
L 121.995089 6.347191 
L 122.171614 6.60008 
L 122.295182 6.651545 
L 122.524664 6.966816 
L 122.648232 6.965737 
L 122.877715 6.664742 
L 122.965977 6.664742 
L 123.089545 6.501588 
L 123.177807 6.508425 
L 123.319027 6.762873 
L 123.40729 6.720286 
L 123.672077 6.308442 
L 123.795645 6.254936 
L 123.97217 6.076427 
L 124.148695 6.119015 
L 124.413483 6.771751 
L 124.554702 5.759116 
L 124.590007 5.759116 
L 124.731228 6.155005 
L 124.907752 6.155005 
L 124.943058 8.225143 
L 125.084278 18.225532 
L 125.119582 18.225532 
L 125.349065 17.010393 
L 125.472633 7.195233 
L 125.52559 7.195233 
L 125.73742 7.716006 
L 125.790378 7.830574 
L 125.966902 7.265773 
L 126.002208 7.189714 
L 126.178733 6.315879 
L 126.319953 6.315879 
L 126.44352 7.249577 
L 126.531783 7.249577 
L 126.708308 6.467037 
L 126.79657 6.508546 
L 127.326146 7.652183 
L 127.679195 9.9439 
L 128.032245 8.240978 
L 128.208771 8.223223 
L 128.385296 8.630149 
L 128.473558 14.373294 
L 128.650083 23.251998 
L 128.826608 23.866105 
L 129.003133 23.924891 
L 129.179658 22.826359 
L 129.320878 22.676401 
L 129.532708 20.08081 
L 129.762191 19.975361 
L 129.885758 19.699078 
L 129.938716 19.699078 
L 130.115241 23.389 
L 130.238809 25.104638 
L 130.291766 25.104638 
L 130.468291 23.265796 
L 130.591858 23.265796 
L 130.733078 24.216168 
L 130.821341 24.216168 
L 130.980214 20.93641 
L 131.156738 20.54316 
L 131.297959 20.588028 
L 131.333264 20.54316 
L 131.509789 21.249522 
L 131.651009 22.584626 
L 131.686313 22.584626 
L 131.862839 20.951046 
L 132.092321 21.902979 
L 132.268846 20.40388 
L 132.445371 17.658571 
L 132.568939 17.739669 
L 132.745464 18.225412 
L 133.098514 19.811606 
L 133.186776 19.357893 
L 133.327996 18.881986 
L 133.504521 18.881986 
L 133.628089 16.684444 
L 133.716351 16.684444 
L 133.945834 20.337538 
L 134.034097 20.337538 
L 134.245927 18.41268 
L 134.298884 18.394205 
L 134.422452 17.62714 
L 134.563672 15.589152 
L 134.828459 15.658493 
L 134.952027 15.795254 
L 135.093247 15.837723 
L 135.216814 16.117604 
L 135.269772 16.117604 
L 135.446297 15.48898 
L 135.534559 15.406205 
L 135.569864 15.451191 
L 135.622822 15.451191 
L 135.887609 16.159113 
L 135.975872 15.965727 
L 136.099439 16.180946 
L 136.152397 16.180946 
L 136.275965 16.617744 
L 136.452489 15.392768 
L 136.505447 15.294635 
L 136.59371 14.970007 
L 136.629015 15.005877 
L 136.681972 14.970007 
L 136.982064 13.82049 
L 137.15859 16.332943 
L 137.476335 16.397606 
L 137.564597 17.016632 
L 137.688165 18.295232 
L 137.741122 18.295232 
L 137.86469 7.282088 
L 138.00591 5.524461 
L 138.041215 5.524461 
L 138.21774 4.888761 
L 138.57079 4.859729 
L 138.71201 4.64223 
L 138.800272 4.64223 
L 138.835577 4.761836 
L 138.976798 5.392859 
L 139.012102 5.392859 
L 139.188628 4.979335 
L 139.27689 5.063432 
L 139.594635 6.074267 
L 139.62994 6.074267 
L 139.682897 5.929348 
L 139.806465 4.753799 
L 139.84177 4.753799 
L 139.930033 4.974297 
L 140.106557 6.435966 
L 140.33604 6.763474 
L 140.459608 7.033517 
L 140.812658 21.207893 
L 140.90092 21.267636 
L 140.953878 21.792729 
L 140.989183 21.267636 
L 141.077445 20.740026 
L 141.25397 9.175516 
L 141.306928 8.933543 
L 141.483453 6.24174 
L 141.571716 6.24174 
L 141.836503 8.063188 
L 141.871808 8.063188 
L 142.136595 4.661064 
L 142.277815 4.661064 
L 142.401383 5.039798 
L 142.454341 5.039798 
L 142.577908 4.718409 
L 142.754433 4.803465 
L 142.895653 5.152207 
L 143.01922 5.201872 
L 143.107483 5.645388 
L 143.284008 9.356065 
L 143.336965 9.356065 
L 143.513491 8.542333 
L 143.690016 8.51906 
L 143.866541 9.735518 
L 143.954803 9.735518 
L 144.043066 8.548691 
L 144.166633 7.562209 
L 144.343158 7.521301 
L 144.484379 6.927948 
L 144.519683 6.927948 
L 144.872733 19.030505 
L 144.960996 19.337859 
L 145.102216 20.659888 
L 145.278741 20.657729 
L 145.490571 20.428593 
L 145.755359 20.299869 
L 145.843621 20.256801 
L 145.984841 19.434672 
L 146.161366 19.531126 
L 146.284934 20.050699 
L 146.514416 20.194779 
L 146.955729 20.208454 
L 147.079296 19.951367 
L 147.255821 20.038582 
L 147.397042 20.634094 
L 147.608872 22.245241 
L 147.697134 22.245241 
L 147.926617 20.180622 
L 147.961921 20.180622 
L 148.103141 20.063656 
L 148.226709 20.426792 
L 148.491497 18.757942 
L 148.703327 7.040236 
L 148.844546 5.091504 
L 148.879852 5.091504 
L 149.021072 6.182837 
L 149.285859 6.078586 
L 149.321164 8.160241 
L 149.462384 20.052379 
L 149.497689 20.08369 
L 149.638909 20.861791 
L 149.674214 20.861791 
L 149.939002 19.378647 
L 150.027264 19.378647 
L 150.080222 19.815805 
L 156.876436 20.123518 
L 157.000003 19.715032 
L 157.088266 19.812326 
L 157.26479 21.240764 
L 157.441316 21.411117 
L 157.617841 21.39912 
L 157.653146 21.39912 
L 157.794365 21.520885 
L 157.829671 21.520885 
L 157.882628 21.243644 
L 158.006196 19.809927 
L 158.147416 19.684201 
L 158.182721 19.840278 
L 158.235678 19.627578 
L 158.270983 19.627578 
L 158.535771 20.348455 
L 158.588728 20.348455 
L 158.888821 22.530162 
L 159.030041 22.530162 
L 159.294828 26.20281 
L 159.330133 26.011944 
L 159.506658 24.355329 
L 159.683184 24.756136 
L 159.771446 24.756136 
L 159.947971 22.637171 
L 160.000929 22.454342 
L 160.124496 21.299788 
L 160.265716 21.168065 
L 160.301021 21.168065 
L 160.618766 25.509764 
L 160.795291 26.609735 
L 160.918859 26.789684 
L 160.971816 26.609735 
L 161.183646 21.654407 
L 161.360171 21.654407 
L 161.589654 22.806804 
L 161.624959 22.806804 
L 161.889746 23.158906 
L 162.154534 23.158906 
L 162.331059 24.434027 
L 162.472279 24.631372 
L 162.737067 26.322776 
L 162.772371 26.322776 
L 162.948897 24.005867 
L 163.037159 23.875823 
L 163.090116 24.005867 
L 163.213684 24.583985 
L 163.354904 24.791765 
L 163.390209 24.791765 
L 163.443167 24.988272 
L 163.478472 24.791765 
L 163.619692 24.643249 
L 163.654997 24.988272 
L 163.707954 24.643249 
L 163.796217 24.194095 
L 164.184572 21.61134 
L 164.272834 21.691358 
L 164.325792 21.891941 
L 164.449359 24.49461 
L 164.678842 24.49461 
L 164.767105 24.325337 
L 164.855367 24.64001 
L 164.978935 23.159265 
L 165.243722 23.111879 
L 165.596772 18.647093 
L 165.64973 18.668087 
L 165.773297 19.013471 
L 165.86156 18.668087 
L 166.002779 7.538576 
L 166.038085 7.538576 
L 166.091042 8.524578 
L 166.214609 19.543841 
L 166.249915 19.543841 
L 166.426439 20.443348 
L 166.602965 23.113679 
L 166.655922 23.113679 
L 166.691227 23.49673 
L 166.832447 25.578866 
L 166.867752 25.578866 
L 167.044277 24.304103 
L 167.097235 24.304103 
L 167.27376 25.357408 
L 167.538547 25.431427 
L 167.715072 26.394636 
L 167.750377 26.394636 
L 167.891598 25.239601 
L 167.926902 25.144107 
L 167.97986 25.222325 
L 168.103428 25.222325 
L 168.244647 25.138589 
L 168.456478 21.910297 
L 168.597697 20.776134 
L 168.633003 20.699477 
L 168.721265 19.841837 
L 168.774223 20.159028 
L 168.950748 23.204013 
L 169.127272 28.228081 
L 169.215535 29.377237 
L 169.25084 29.256671 
L 169.568585 22.347333 
L 169.60389 22.305465 
L 169.74511 21.903577 
L 169.780415 21.903577 
L 170.009898 24.217128 
L 170.045203 24.217128 
L 170.274686 27.040055 
L 170.398253 26.582023 
L 170.751303 26.066168 
L 170.804261 25.983151 
L 171.104353 23.351331 
L 171.245573 24.202371 
L 171.369141 26.694671 
L 171.422098 26.694671 
L 171.863411 23.658565 
L 171.951673 23.658565 
L 171.986978 23.435548 
L 172.075241 23.474656 
L 172.128198 23.474656 
L 172.163503 23.309343 
L 172.304723 21.543799 
L 172.428291 20.423194 
L 172.604816 18.79909 
L 172.746036 9.464994 
L 172.781341 9.464994 
L 172.922561 9.615193 
L 172.957866 9.615193 
L 173.187349 5.688697 
L 173.222653 5.688697 
L 173.452136 7.464797 
L 173.716924 7.469716 
L 173.840491 6.759395 
L 173.893448 6.756995 
L 174.017016 6.559891 
L 174.069973 6.559891 
L 174.246499 6.241501 
L 174.281804 6.241501 
L 174.334761 6.502427 
L 174.370066 7.640067 
L 174.511286 16.247648 
L 174.723116 18.776298 
L 174.776074 18.824283 
L 175.164429 20.588148 
L 175.287996 20.588148 
L 175.605741 18.959845 
L 175.729309 18.94497 
L 175.905834 18.48226 
L 176.047054 17.437233 
L 176.135316 17.345579 
L 176.223579 17.188903 
L 176.258884 17.216855 
L 176.488366 18.473742 
L 176.664891 19.740946 
L 176.841417 21.170703 
L 176.964984 22.150468 
L 177.141509 22.058454 
L 177.194467 21.783132 
L 177.318034 20.270117 
L 177.582822 20.159269 
L 177.724042 20.022628 
L 177.759346 20.022628 
L 177.900567 20.32998 
L 177.935872 20.32998 
L 178.112397 18.995474 
L 178.288922 18.6243 
L 178.606667 18.829802 
L 178.641972 18.748225 
L 178.730234 18.687881 
L 178.818497 18.601746 
L 179.047979 18.800409 
L 179.083284 18.813847 
L 179.348072 21.236805 
L 179.436335 21.235966 
L 179.612859 19.68828 
L 179.842342 19.661648 
L 180.054172 21.971599 
L 180.10713 21.971599 
L 180.283655 17.907022 
L 180.407222 17.907022 
L 180.548442 20.092807 
L 180.672009 20.922733 
L 180.724967 20.922733 
L 180.989755 18.711035 
L 181.02506 18.975802 
L 181.201585 20.228729 
L 181.289847 20.143432 
L 181.431067 19.915857 
L 181.73116 21.206574 
L 181.87238 21.075451 
L 182.137168 19.999594 
L 182.260735 20.399681 
L 182.43726 21.320541 
L 182.525522 21.288271 
L 182.613785 20.608661 
L 182.843267 18.998115 
L 183.019793 18.350297 
L 183.14336 18.458266 
L 183.461105 22.316022 
L 183.549368 22.316022 
L 183.672935 22.104761 
L 183.761198 22.104761 
L 183.937723 22.387642 
L 184.20251 22.475457 
L 184.379035 22.702433 
L 184.467298 22.702433 
L 184.732086 21.338537 
L 184.90861 20.498654 
L 185.208703 20.201736 
L 185.349923 20.268077 
L 185.473491 20.324702 
L 186.003066 19.885864 
L 186.091328 19.896063 
L 186.267853 20.454265 
L 186.444378 21.545478 
L 186.585598 21.565753 
L 186.762123 21.923491 
L 186.797428 21.923491 
L 186.973953 21.372967 
L 187.238741 21.284912 
L 187.379961 21.065733 
L 187.468223 21.090206 
L 187.644749 21.895899 
L 187.733011 21.82404 
L 187.856579 21.773656 
L 187.997798 21.816601 
L 188.174324 21.370087 
L 188.262586 21.334458 
L 188.297891 21.370087 
L 188.386154 21.43403 
L 188.527373 21.881625 
L 188.562678 21.881625 
L 188.650941 21.533962 
L 188.827466 19.229769 
L 188.968686 19.229769 
L 189.145211 20.594026 
L 189.180516 20.636854 
L 189.321736 21.559634 
L 189.357041 21.559634 
L 189.533566 21.33182 
L 189.763049 20.977678 
L 190.027836 19.137036 
L 190.151404 19.137036 
L 190.416191 19.751382 
L 190.592716 20.039542 
L 190.680979 20.504292 
L 190.857504 21.284191 
L 191.175249 20.474899 
L 191.210554 20.474899 
L 191.475341 19.009631 
L 191.740129 20.393083 
L 192.093179 19.521648 
L 192.181442 19.569633 
L 192.357967 20.006431 
L 192.446229 20.177144 
L 193.064067 18.548841 
L 193.099372 18.638576 
L 193.187634 18.561197 
L 193.417117 18.561197 
L 193.805472 20.278875 
L 194.034954 20.278875 
L 194.246784 19.736747 
L 194.299742 19.736747 
L 194.476267 20.477298 
L 194.56453 20.384565 
L 194.741055 19.965284 
L 194.917579 18.786375 
L 195.041147 18.786375 
L 195.27063 20.255601 
L 195.358892 20.210973 
L 195.48246 19.420037 
L 195.62368 18.797891 
L 195.711942 18.797891 
L 195.888467 21.557355 
L 196.100297 23.371365 
L 196.18856 23.371365 
L 196.32978 21.944246 
L 196.453347 21.982036 
L 196.594568 22.370367 
L 196.629872 22.370367 
L 196.771092 21.634854 
L 196.89466 21.742463 
L 197.071185 22.068052 
L 197.24771 22.206612 
L 197.335973 22.202535 
L 197.689023 17.032826 
L 197.918505 16.945852 
L 198.042072 16.497778 
L 198.218598 16.533048 
L 198.395123 18.124041 
L 198.571648 22.218489 
L 198.712868 22.337016 
L 198.748173 22.337016 
L 198.889393 21.977837 
L 198.977655 21.977837 
L 199.189486 23.958961 
L 199.277748 23.958961 
L 199.507231 23.337656 
L 199.542535 23.381803 
L 199.630798 23.668761 
L 199.807323 22.632493 
L 199.983848 20.50801 
L 200.125068 20.165987 
L 200.248636 20.188899 
L 200.336898 20.219371 
L 200.478118 21.075451 
L 200.831168 21.678521 
L 200.866473 21.666165 
L 201.042998 19.814125 
L 201.131261 19.814125 
L 201.307786 20.668045 
L 201.484311 20.666125 
L 201.607878 20.168865 
L 201.696141 20.168865 
L 201.837361 20.037383 
L 201.960928 20.156868 
L 202.049191 19.887185 
L 202.137453 20.156868 
L 202.278673 19.22749 
L 202.719986 20.152671 
L 202.931816 19.900382 
L 203.020078 19.900382 
L 203.196604 20.396081 
L 203.284866 20.272276 
L 203.373129 20.396081 
L 203.461391 20.652689 
L 203.602611 20.850394 
L 203.637916 20.850394 
L 203.779136 20.600624 
L 204.167491 20.252003 
L 204.344016 20.215773 
L 204.573499 20.369568 
L 204.608804 20.29231 
L 205.191336 15.63618 
L 205.314904 15.52629 
L 205.367861 15.49078 
L 205.491429 7.208788 
L 205.579691 6.577526 
L 205.632649 6.763954 
L 205.720911 6.815419 
L 205.756217 6.763954 
L 205.932741 6.868084 
L 206.021004 7.793864 
L 206.197529 10.220182 
L 206.338749 10.182753 
L 206.374054 10.076943 
L 206.550579 9.158481 
L 206.603537 9.158481 
L 206.691799 9.632828 
L 206.815367 10.840407 
L 206.956587 10.840407 
L 207.044849 10.744674 
L 207.168417 10.361382 
L 207.256679 10.361382 
L 207.486162 13.32503 
L 207.609729 11.673453 
L 207.609729 11.673453 
" clip-path="url(#p4d5cac3d18)" style="fill: none; stroke: #5c80b5; stroke-width: 0.5; stroke-linecap: square"/>
   </g>
   <g id="patch_3">
    <path d="M 59.527559 30.614173 
L 59.527559 3.401575 
" style="fill: none; stroke: #000000; stroke-width: 0.4; stroke-linejoin: miter; stroke-linecap: square"/>
   </g>
   <g id="patch_4">
    <path d="M 208.346457 30.614173 
L 208.346457 3.401575 
" style="fill: none; stroke: #000000; stroke-width: 0.4; stroke-linejoin: miter; stroke-linecap: square"/>
   </g>
   <g id="patch_5">
    <path d="M 59.527559 30.614173 
L 208.346457 30.614173 
" style="fill: none; stroke: #000000; stroke-width: 0.4; stroke-linejoin: miter; stroke-linecap: square"/>
   </g>
   <g id="patch_6">
    <path d="M 59.527559 3.401575 
L 208.346457 3.401575 
" style="fill: none; stroke: #000000; stroke-width: 0.4; stroke-linejoin: miter; stroke-linecap: square"/>
   </g>
  </g>
 </g>
 <defs>
  <clipPath id="p4d5cac3d18">
   <rect x="59.527559" y="3.401575" width="148.818898" height="27.212598"/>
  </clipPath>
 </defs>
</svg>
