<?xml version="1.0" encoding="utf-8" standalone="no"?>
<!DOCTYPE svg PUBLIC "-//W3C//DTD SVG 1.1//EN"
  "http://www.w3.org/Graphics/SVG/1.1/DTD/svg11.dtd">
<svg xmlns:xlink="http://www.w3.org/1999/xlink" width="212.598425pt" height="42.519685pt" viewBox="0 0 212.598425 42.519685" xmlns="http://www.w3.org/2000/svg" version="1.1">
 <metadata>
  <rdf:RDF xmlns:dc="http://purl.org/dc/elements/1.1/" xmlns:cc="http://creativecommons.org/ns#" xmlns:rdf="http://www.w3.org/1999/02/22-rdf-syntax-ns#">
   <cc:Work>
    <dc:type rdf:resource="http://purl.org/dc/dcmitype/StillImage"/>
    <dc:date>2026-06-01T17:59:22.951910</dc:date>
    <dc:format>image/svg+xml</dc:format>
    <dc:creator>
     <cc:Agent>
      <dc:title>Matplotlib v3.10.8, https://matplotlib.org/</dc:title>
     </cc:Agent>
    </dc:creator>
   </cc:Work>
  </rdf:RDF>
 </metadata>
 <defs>
  <style type="text/css">*{stroke-linejoin: round; stroke-linecap: butt}</style>
 </defs>
 <g id="figure_1">
  <g id="patch_1">
   <path d="M 0 42.519685 
L 212.598425 42.519685 
L 212.598425 0 
L 0 0 
z
" style="fill: #ffffff"/>
  </g>
  <g id="axes_1">
   <g id="patch_2">
    <path d="M 59.527559 30.614173 
L 208.346457 30.614173 
L 208.346457 3.401575 
L 59.527559 3.401575 
z
" style="fill: #eaeaf2"/>
   </g>
   <g id="matplotlib.axis_1">
    <g id="xtick_1">
     <g id="line2d_1">
      <path d="M 60.264286 30.614173 
L 60.264286 3.401575 
" clip-path="url(#p0a779c6842)" style="fill: none; stroke: #ffffff; stroke-width: 0.9; stroke-linecap: square"/>
     </g>
     <g id="line2d_2">
      <defs>
       <path id="mc550172516" d="M 0 0 
L 0 2 
" style="stroke: #000000; stroke-width: 0.4"/>
      </defs>
      <g>
       <use xlink:href="#mc550172516" x="60.264286" y="30.614173" style="stroke: #000000; stroke-width: 0.4"/>
      </g>
     </g>
     <g id="text_1">
      <text style="font-size: 8px; font-family: 'DejaVu Sans', 'Bitstream Vera Sans', 'Computer Modern Sans Serif', 'Lucida Grande', 'Verdana', 'Geneva', 'Lucid', 'Arial', 'Helvetica', 'Avant Garde', sans-serif; text-anchor: middle" x="60.264286" y="42.192923" transform="rotate(-0 60.264286 42.192923)">0</text>
     </g>
    </g>
    <g id="xtick_2">
     <g id="line2d_3">
      <path d="M 92.007049 30.614173 
L 92.007049 3.401575 
" clip-path="url(#p0a779c6842)" style="fill: none; stroke: #ffffff; stroke-width: 0.9; stroke-linecap: square"/>
     </g>
     <g id="line2d_4">
      <g>
       <use xlink:href="#mc550172516" x="92.007049" y="30.614173" style="stroke: #000000; stroke-width: 0.4"/>
      </g>
     </g>
     <g id="text_2">
      <text style="font-size: 8px; font-family: 'DejaVu Sans', 'Bitstream Vera Sans', 'Computer Modern Sans Serif', 'Lucida Grande', 'Verdana', 'Geneva', 'Lucid', 'Arial', 'Helvetica', 'Avant Garde', sans-serif; text-anchor: middle" x="92.007049" y="42.192923" transform="rotate(-0 92.007049 42.192923)">60</text>
     </g>
    </g>
    <g id="xtick_3">
     <g id="line2d_5">
      <path d="M 123.749812 30.614173 
L 123.749812 3.401575 
" clip-path="url(#p0a779c6842)" style="fill: none; stroke: #ffffff; stroke-width: 0.9; stroke-linecap: square"/>
     </g>
     <g id="line2d_6">
      <g>
       <use xlink:href="#mc550172516" x="123.749812" y="30.614173" style="stroke: #000000; stroke-width: 0.4"/>
      </g>
     </g>
     <g id="text_3">
      <text style="font-size: 8px; font-family: 'DejaVu Sans', 'Bitstream Vera Sans', 'Computer Modern Sans Serif', 'Lucida Grande', 'Verdana', 'Geneva', 'Lucid', 'Arial', 'Helvetica', 'Avant Garde', sans-serif; text-anchor: middle" x="123.749812" y="42.192923" transform="rotate(-0 123.749812 42.192923)">120</text>
     </g>
    </g>
    <g id="xtick_4">
     <g id="line2d_7">
      <path d="M 155.492574 30.614173 
L 155.492574 3.401575 
" clip-path="url(#p0a779c6842)" style="fill: none; stroke: #ffffff; stroke-width: 0.9; stroke-linecap: square"/>
     </g>
     <g id="line2d_8">
      <g>
       <use xlink:href="#mc550172516" x="155.492574" y="30.614173" style="stroke: #000000; stroke-width: 0.4"/>
      </g>
     </g>
     <g id="text_4">
      <text style="font-size: 8px; font-family: 'DejaVu Sans', 'Bitstream Vera Sans', 'Computer Modern Sans Serif', 'Lucida Grande', 'Verdana', 'Geneva', 'Lucid', 'Arial', 'Helvetica', 'Avant Garde', sans-serif; text-anchor: middle" x="155.492574" y="42.192923" transform="rotate(-0 155.492574 42.192923)">180</text>
     </g>
    </g>
    <g id="xtick_5">
     <g id="line2d_9">
      <path d="M 187.235337 30.614173 
L 187.235337 3.401575 
" clip-path="url(#p0a779c6842)" style="fill: none; stroke: #ffffff; stroke-width: 0.9; stroke-linecap: square"/>
     </g>
     <g id="line2d_10">
      <g>
       <use xlink:href="#mc550172516" x="187.235337" y="30.614173" style="stroke: #000000; stroke-width: 0.4"/>
      </g>
     </g>
     <g id="text_5">
      <text style="font-size: 8px; font-family: 'DejaVu Sans', 'Bitstream Vera Sans', 'Computer Modern Sans Serif', 'Lucida Grande', 'Verdana', 'Geneva', 'Lucid', 'Arial', 'Helvetica', 'Avant Garde', sans-serif; text-anchor: middle" x="187.235337" y="42.192923" transform="rotate(-0 187.235337 42.192923)">240</text>
     </g>
    </g>
    <g id="xtick_6">
     <g id="line2d_11">
      <path d="M 76.135668 30.614173 
L 76.135668 3.401575 
" clip-path="url(#p0a779c6842)" style="fill: none; stroke: #ffffff; stroke-opacity: 0.9; stroke-width: 0.55; stroke-linecap: square"/>
     </g>
     <g id="line2d_12">
      <defs>
       <path id="m7a61081602" d="M 0 0 
L 0 2 
" style="stroke: #000000; stroke-width: 0.6"/>
      </defs>
      <g>
       <use xlink:href="#m7a61081602" x="76.135668" y="30.614173" style="stroke: #000000; stroke-width: 0.6"/>
      </g>
     </g>
    </g>
    <g id="xtick_7">
     <g id="line2d_13">
      <path d="M 107.87843 30.614173 
L 107.87843 3.401575 
" clip-path="url(#p0a779c6842)" style="fill: none; stroke: #ffffff; stroke-opacity: 0.9; stroke-width: 0.55; stroke-linecap: square"/>
     </g>
     <g id="line2d_14">
      <g>
       <use xlink:href="#m7a61081602" x="107.87843" y="30.614173" style="stroke: #000000; stroke-width: 0.6"/>
      </g>
     </g>
    </g>
    <g id="xtick_8">
     <g id="line2d_15">
      <path d="M 139.621193 30.614173 
L 139.621193 3.401575 
" clip-path="url(#p0a779c6842)" style="fill: none; stroke: #ffffff; stroke-opacity: 0.9; stroke-width: 0.55; stroke-linecap: square"/>
     </g>
     <g id="line2d_16">
      <g>
       <use xlink:href="#m7a61081602" x="139.621193" y="30.614173" style="stroke: #000000; stroke-width: 0.6"/>
      </g>
     </g>
    </g>
    <g id="xtick_9">
     <g id="line2d_17">
      <path d="M 171.363956 30.614173 
L 171.363956 3.401575 
" clip-path="url(#p0a779c6842)" style="fill: none; stroke: #ffffff; stroke-opacity: 0.9; stroke-width: 0.55; stroke-linecap: square"/>
     </g>
     <g id="line2d_18">
      <g>
       <use xlink:href="#m7a61081602" x="171.363956" y="30.614173" style="stroke: #000000; stroke-width: 0.6"/>
      </g>
     </g>
    </g>
    <g id="xtick_10">
     <g id="line2d_19">
      <path d="M 203.106719 30.614173 
L 203.106719 3.401575 
" clip-path="url(#p0a779c6842)" style="fill: none; stroke: #ffffff; stroke-opacity: 0.9; stroke-width: 0.55; stroke-linecap: square"/>
     </g>
     <g id="line2d_20">
      <g>
       <use xlink:href="#m7a61081602" x="203.106719" y="30.614173" style="stroke: #000000; stroke-width: 0.6"/>
      </g>
     </g>
    </g>
    <g id="text_6">
     <text style="font-size: 8px; font-family: 'DejaVu Sans', 'Bitstream Vera Sans', 'Computer Modern Sans Serif', 'Lucida Grande', 'Verdana', 'Geneva', 'Lucid', 'Arial', 'Helvetica', 'Avant Garde', sans-serif; text-anchor: middle" x="133.937008" y="53.935423" transform="rotate(-0 133.937008 53.935423)">time</text>
    </g>
   </g>
   <g id="matplotlib.axis_2">
    <g id="ytick_1">
     <g id="line2d_21">
      <path d="M 59.527559 26.910752 
L 208.346457 26.910752 
" clip-path="url(#p0a779c6842)" style="fill: none; stroke: #ffffff; stroke-width: 0.9; stroke-linecap: square"/>
     </g>
     <g id="line2d_22">
      <defs>
       <path id="m10fd8bc94d" d="M 0 0 
L -2 0 
" style="stroke: #000000; stroke-width: 0.4"/>
      </defs>
      <g>
       <use xlink:href="#m10fd8bc94d" x="59.527559" y="26.910752" style="stroke: #000000; stroke-width: 0.4"/>
      </g>
     </g>
     <g id="text_7">
      <text style="font-size: 8px; font-family: 'DejaVu Sans', 'Bitstream Vera Sans', 'Computer Modern Sans Serif', 'Lucida Grande', 'Verdana', 'Geneva', 'Lucid', 'Arial', 'Helvetica', 'Avant Garde', sans-serif; text-anchor: end" x="54.027559" y="29.950127" transform="rotate(-0 54.027559 29.950127)">−2</text>
     </g>
    </g>
    <g id="ytick_2">
     <g id="line2d_23">
      <path d="M 59.527559 18.518157 
L 208.346457 18.518157 
" clip-path="url(#p0a779c6842)" style="fill: none; stroke: #ffffff; stroke-width: 0.9; stroke-linecap: square"/>
     </g>
     <g id="line2d_24">
      <g>
       <use xlink:href="#m10fd8bc94d" x="59.527559" y="18.518157" style="stroke: #000000; stroke-width: 0.4"/>
      </g>
     </g>
     <g id="text_8">
      <text style="font-size: 8px; font-family: 'DejaVu Sans', 'Bitstream Vera Sans', 'Computer Modern Sans Serif', 'Lucida Grande', 'Verdana', 'Geneva', 'Lucid', 'Arial', 'Helvetica', 'Avant Garde', sans-serif; text-anchor: end" x="54.027559" y="21.557532" transform="rotate(-0 54.027559 21.557532)">0</text>
     </g>
    </g>
    <g id="ytick_3">
     <g id="line2d_25">
      <path d="M 59.527559 10.125562 
L 208.346457 10.125562 
" clip-path="url(#p0a779c6842)" style="fill: none; stroke: #ffffff; stroke-width: 0.9; stroke-linecap: square"/>
     </g>
     <g id="line2d_26">
      <g>
       <use xlink:href="#m10fd8bc94d" x="59.527559" y="10.125562" style="stroke: #000000; stroke-width: 0.4"/>
      </g>
     </g>
     <g id="text_9">
      <text style="font-size: 8px; font-family: 'DejaVu Sans', 'Bitstream Vera Sans', 'Computer Modern Sans Serif', 'Lucida Grande', 'Verdana', 'Geneva', 'Lucid', 'Arial', 'Helvetica', 'Avant Garde', sans-serif; text-anchor: end" x="54.027559" y="13.164937" transform="rotate(-0 54.027559 13.164937)">2</text>
     </g>
    </g>
    <g id="ytick_4">
     <g id="line2d_27">
      <path d="M 59.527559 22.714455 
L 208.346457 22.714455 
" clip-path="url(#p0a779c6842)" style="fill: none; stroke: #ffffff; stroke-opacity: 0.9; stroke-width: 0.55; stroke-linecap: square"/>
     </g>
     <g id="line2d_28">
      <defs>
       <path id="m62f8beb993" d="M 0 0 
L -2 0 
" style="stroke: #000000; stroke-width: 0.6"/>
      </defs>
      <g>
       <use xlink:href="#m62f8beb993" x="59.527559" y="22.714455" style="stroke: #000000; stroke-width: 0.6"/>
      </g>
     </g>
    </g>
    <g id="ytick_5">
     <g id="line2d_29">
      <path d="M 59.527559 14.321859 
L 208.346457 14.321859 
" clip-path="url(#p0a779c6842)" style="fill: none; stroke: #ffffff; stroke-opacity: 0.9; stroke-width: 0.55; stroke-linecap: square"/>
     </g>
     <g id="line2d_30">
      <g>
       <use xlink:href="#m62f8beb993" x="59.527559" y="14.321859" style="stroke: #000000; stroke-width: 0.6"/>
      </g>
     </g>
    </g>
    <g id="ytick_6">
     <g id="line2d_31">
      <path d="M 59.527559 5.929264 
L 208.346457 5.929264 
" clip-path="url(#p0a779c6842)" style="fill: none; stroke: #ffffff; stroke-opacity: 0.9; stroke-width: 0.55; stroke-linecap: square"/>
     </g>
     <g id="line2d_32">
      <g>
       <use xlink:href="#m62f8beb993" x="59.527559" y="5.929264" style="stroke: #000000; stroke-width: 0.6"/>
      </g>
     </g>
    </g>
    <g id="text_10">
     <text style="font-size: 8px; font-family: 'DejaVu Sans', 'Bitstream Vera Sans', 'Computer Modern Sans Serif', 'Lucida Grande', 'Verdana', 'Geneva', 'Lucid', 'Arial', 'Helvetica', 'Avant Garde', sans-serif; text-anchor: middle" x="36.347559" y="17.007874" transform="rotate(-90 36.347559 17.007874)">right_shoulder_dx</text>
    </g>
   </g>
   <g id="line2d_33">
    <path d="M 60.264286 25.459476 
L 60.317244 25.416614 
L 60.529074 22.850768 
L 60.705599 19.01161 
L 60.846819 19.01161 
L 60.970387 21.402878 
L 61.111606 22.452912 
L 61.288132 22.350813 
L 61.588224 20.88669 
L 61.729444 20.663127 
L 61.764749 20.694027 
L 61.905969 21.497145 
L 62.029537 21.885603 
L 62.082494 21.885603 
L 62.382587 19.915687 
L 62.435544 19.875816 
L 62.612069 19.376715 
L 62.876857 19.309361 
L 63.000424 18.837458 
L 63.053382 18.837458 
L 63.088687 18.977577 
L 63.265212 21.76243 
L 63.529999 21.67571 
L 63.759482 21.374398 
L 63.847744 21.239691 
L 63.971312 20.849239 
L 64.147837 20.825175 
L 64.589149 20.157903 
L 65.08342 20.236933 
L 65.206987 20.384741 
L 65.436469 20.926561 
L 65.612995 21.070524 
L 65.736562 21.481196 
L 65.966045 21.542996 
L 66.177875 22.414749 
L 66.3544 21.851428 
L 66.442662 21.80401 
L 66.672145 20.846392 
L 66.84867 20.626673 
L 66.972237 20.553766 
L 67.113458 20.553766 
L 67.289982 20.247898 
L 67.466508 20.247898 
L 67.501812 20.321375 
L 67.643033 21.431073 
L 67.678338 21.431073 
L 68.031387 12.831734 
L 68.207913 11.283739 
L 68.26087 11.283739 
L 68.4727 14.12014 
L 68.649225 14.12014 
L 69.090538 13.223325 
L 69.125843 13.223325 
L 69.214105 13.600107 
L 69.302368 15.311715 
L 69.443588 17.746699 
L 69.478893 17.746699 
L 69.620113 15.867205 
L 69.655418 15.867205 
L 70.008468 18.786765 
L 70.061425 18.786765 
L 70.273256 20.336326 
L 70.449781 21.314877 
L 70.538043 21.314877 
L 70.679263 20.841123 
L 70.94405 20.59677 
L 71.032313 20.594064 
L 71.208838 20.329206 
L 71.385363 20.142809 
L 71.508931 19.251833 
L 71.597193 19.251833 
L 71.914938 20.417919 
L 72.038506 20.328637 
L 72.215031 20.206318 
L 72.267988 20.206318 
L 72.391556 21.781511 
L 72.444513 21.781511 
L 72.532776 20.96216 
L 72.885826 12.635939 
L 72.921131 12.706994 
L 73.362444 18.125475 
L 73.503664 19.895893 
L 73.538968 19.895893 
L 74.068543 15.341476 
L 74.121501 15.341476 
L 74.421594 17.673935 
L 74.509856 17.819322 
L 74.774644 22.381428 
L 74.951169 22.359357 
L 75.127694 20.974264 
L 75.268914 21.070667 
L 75.392481 21.719853 
L 75.480744 21.665457 
L 75.710226 20.23437 
L 75.745532 20.23437 
L 75.886751 20.507487 
L 76.010319 20.48328 
L 76.275107 19.072698 
L 76.416327 12.994921 
L 76.504589 13.025251 
L 76.592852 13.406732 
L 76.716419 20.945927 
L 76.804682 20.945927 
L 76.981206 14.334304 
L 77.069469 14.334304 
L 77.245994 15.534851 
L 77.298952 15.534851 
L 77.563739 13.111259 
L 77.599044 13.111259 
L 77.952094 16.028825 
L 77.987399 15.785327 
L 78.040357 15.636807 
L 78.163924 14.896202 
L 78.252187 15.003711 
L 78.605237 15.356286 
L 78.781762 15.781482 
L 78.870025 15.75044 
L 79.011245 15.206769 
L 79.046549 15.206769 
L 79.223075 16.733974 
L 79.717345 17.418048 
L 79.75265 17.300998 
L 79.805607 17.299716 
L 79.929175 16.74921 
L 80.1057 14.827282 
L 80.282225 4.638511 
L 80.423445 4.638511 
L 80.45875 4.928289 
L 80.635275 10.042324 
L 80.688232 10.136591 
L 80.8118 10.849999 
L 80.988325 17.562296 
L 81.041283 17.751826 
L 81.076587 18.41753 
L 81.129545 17.751826 
L 81.217807 17.489531 
L 81.341375 15.23354 
L 81.429637 15.23354 
L 81.782688 19.297115 
L 82.047475 21.426373 
L 82.188695 21.426373 
L 82.71827 19.283872 
L 82.806533 19.372301 
L 83.018363 20.632939 
L 83.106625 20.632939 
L 83.247845 20.235652 
L 83.28315 20.235652 
L 83.459675 24.28869 
L 83.77742 24.259784 
L 83.900988 25.17098 
L 83.98925 25.17098 
L 84.165776 20.187949 
L 84.218733 20.187949 
L 84.254038 20.324223 
L 84.395258 22.713213 
L 84.430563 22.713213 
L 84.483521 22.354516 
L 84.660045 19.212959 
L 84.695351 19.212959 
L 84.871875 18.588692 
L 85.013096 18.588692 
L 85.136663 18.957926 
L 85.18962 18.957926 
L 85.277883 18.322552 
L 85.489713 15.988385 
L 85.577976 16.792641 
L 85.807458 19.806611 
L 85.983983 20.748992 
L 86.072246 20.748992 
L 86.284076 19.234175 
L 86.337033 19.234175 
L 86.637126 20.609016 
L 86.901913 20.940231 
L 87.290269 22.39937 
L 87.378531 22.38869 
L 87.431488 22.181219 
L 87.608014 15.659306 
L 87.819844 14.676911 
L 87.908106 14.676911 
L 87.996368 15.12959 
L 88.402376 29.258335 
L 88.702469 21.097579 
L 88.843689 18.563772 
L 89.020214 13.772549 
L 89.143781 13.772549 
L 89.320306 16.320881 
L 89.373264 16.320881 
L 89.496831 16.511977 
L 89.549789 16.511977 
L 89.726314 17.809781 
L 89.849881 18.13231 
L 89.991102 17.721922 
L 90.114669 18.214188 
L 90.291194 18.214188 
L 90.520677 17.667242 
L 90.644244 15.899956 
L 90.820769 15.165474 
L 90.873727 15.031906 
L 91.085557 12.052966 
L 91.262082 11.446071 
L 91.315039 11.446071 
L 91.438606 12.044137 
L 91.615132 14.550747 
L 91.668089 14.574527 
L 91.703394 15.221009 
L 91.791657 15.190678 
L 91.879919 15.190678 
L 92.321232 12.173291 
L 92.462452 12.209888 
L 92.58602 12.465775 
L 92.903765 12.392298 
L 92.939069 12.59564 
L 92.992027 12.4447 
L 93.168552 12.020073 
L 93.345077 11.539484 
L 93.380382 11.555717 
L 93.468645 11.643718 
L 93.64517 11.564688 
L 93.733432 11.564688 
L 93.909957 12.538397 
L 94.139439 13.647809 
L 94.669015 20.707982 
L 94.70432 20.707982 
L 94.84554 20.854651 
L 94.933802 20.864191 
L 94.969107 21.061838 
L 95.19859 26.161349 
L 95.233895 26.161349 
L 95.41042 21.306333 
L 95.463377 21.306333 
L 95.62225 22.21639 
L 95.675207 22.21639 
L 95.887037 20.935105 
L 96.293045 23.858937 
L 96.769663 17.795542 
L 96.946187 13.794193 
L 97.03445 13.794193 
L 97.210975 14.663526 
L 97.299238 14.64715 
L 97.564025 14.238329 
L 97.652288 14.586346 
L 97.917075 16.746932 
L 98.058295 16.957822 
L 98.093601 16.957822 
L 98.270125 16.588302 
L 98.323083 16.588302 
L 98.58787 20.807659 
L 98.623176 20.709833 
L 98.7997 20.607165 
L 98.976225 18.701327 
L 99.205708 18.606633 
L 99.293971 18.329244 
L 99.382233 13.245966 
L 99.505801 10.985133 
L 99.558758 10.848575 
L 99.594063 10.985133 
L 99.682326 11.060604 
L 99.911808 18.809691 
L 100.035376 18.754441 
L 100.211901 18.640951 
L 100.353121 18.73835 
L 100.476688 18.890145 
L 100.653213 19.057461 
L 100.829738 19.031545 
L 101.006264 18.832759 
L 101.147483 18.776798 
L 101.324009 11.937767 
L 101.412271 11.937767 
L 101.535839 12.372647 
L 101.624101 12.271118 
L 101.800626 11.242729 
L 101.853584 11.242729 
L 102.030108 12.140967 
L 102.153676 12.140967 
L 102.471421 13.099724 
L 102.506726 12.828601 
L 102.824471 12.686205 
L 102.948039 12.399987 
L 103.000996 12.399987 
L 103.301089 14.350965 
L 103.442309 18.772383 
L 103.477614 18.772383 
L 103.530571 18.604355 
L 103.654139 17.840112 
L 103.707096 17.840112 
L 103.795359 18.822079 
L 103.971884 20.73048 
L 104.007189 20.73048 
L 104.183714 19.594297 
L 104.271976 19.609533 
L 104.448502 21.983003 
L 104.625026 21.937293 
L 104.836856 20.89922 
L 105.013382 19.531073 
L 105.189907 19.493053 
L 105.454694 20.08343 
L 105.595914 20.601042 
L 105.631219 20.601042 
L 105.984269 19.302811 
L 106.072532 19.288287 
L 106.213752 18.93856 
L 106.249057 18.93856 
L 106.478539 19.300532 
L 106.690369 19.328727 
L 106.866894 19.630608 
L 107.272902 19.681871 
L 107.396469 19.520393 
L 107.537689 19.603695 
L 107.749519 19.67888 
L 108.332052 19.34496 
L 108.632145 19.43467 
L 108.720407 19.385543 
L 108.896932 19.233606 
L 109.214677 19.28971 
L 109.426507 19.923661 
L 110.838708 19.866559 
L 111.015233 18.843866 
L 111.191757 18.512794 
L 111.456545 17.982793 
L 111.98612 19.756772 
L 112.12734 19.756772 
L 112.303865 19.02528 
L 112.603958 18.839737 
L 112.780483 20.11433 
L 112.83344 20.11433 
L 113.04527 16.777547 
L 113.098228 17.019479 
L 113.221795 17.34215 
L 113.2571 17.268246 
L 113.433625 17.055933 
L 113.486583 17.055933 
L 113.521888 16.912539 
L 113.574845 17.055933 
L 113.698413 17.301425 
L 113.874938 18.317853 
L 113.963201 18.317853 
L 114.139726 16.206537 
L 114.280946 14.708523 
L 114.369208 14.663383 
L 114.404513 14.708523 
L 114.545733 14.864305 
L 114.722258 15.267288 
L 114.757563 15.267288 
L 114.934088 14.876266 
L 115.516621 14.811618 
L 115.640188 15.279819 
L 115.781409 15.493414 
L 115.869671 15.394448 
L 116.046196 14.395535 
L 116.222721 14.379871 
L 116.434551 15.058819 
L 116.522814 15.149526 
L 116.664034 15.542683 
L 116.699338 15.542683 
L 116.875864 15.253475 
L 116.928821 15.323107 
L 117.140651 14.754517 
L 117.405439 14.78855 
L 117.546659 15.625558 
L 117.670226 16.741094 
L 117.758489 16.741094 
L 117.811446 16.299664 
L 117.935014 14.95074 
L 118.111539 15.036035 
L 118.252759 15.528301 
L 118.288064 15.528301 
L 118.517546 13.93061 
L 118.605809 13.93061 
L 118.729376 14.080695 
L 118.782334 14.080695 
L 118.905902 13.900564 
L 119.047121 13.900564 
L 119.258951 14.78499 
L 119.435477 14.817029 
L 119.576697 14.55089 
L 119.700264 14.619667 
L 119.965052 14.938209 
L 120.141576 14.161577 
L 120.318102 14.183364 
L 120.406364 14.408778 
L 120.547584 14.837107 
L 120.635847 14.739423 
L 120.759414 14.539213 
L 121.112464 14.466164 
L 121.28899 14.718206 
L 121.377252 14.634476 
L 121.553777 13.697934 
L 121.642039 13.697934 
L 121.818565 13.856705 
L 122.34814 13.941432 
L 122.524664 14.03342 
L 122.648232 14.03342 
L 123.054239 14.303974 
L 123.230765 14.575667 
L 123.40729 14.831269 
L 123.442595 14.82543 
L 123.672077 14.46118 
L 123.936865 14.562424 
L 124.148695 14.562424 
L 124.46644 14.359509 
L 124.590007 14.604004 
L 124.766532 14.604004 
L 124.81949 14.297851 
L 125.03132 10.804289 
L 125.119582 10.804289 
L 125.296108 20.434153 
L 125.472633 20.45893 
L 125.73742 21.870224 
L 125.790378 21.870224 
L 126.09047 20.622117 
L 126.319953 21.171056 
L 126.496478 21.249232 
L 126.620045 21.581301 
L 126.673003 21.581301 
L 126.884833 21.203523 
L 127.061358 21.147276 
L 127.114316 21.246241 
L 127.237883 21.812981 
L 127.467365 22.261815 
L 127.643891 23.165464 
L 127.767458 23.086007 
L 127.908678 21.804864 
L 128.032245 21.804864 
L 128.297033 29.377237 
L 128.650083 22.979922 
L 128.738346 22.979922 
L 128.914871 24.527917 
L 128.967828 24.527917 
L 129.267921 21.939287 
L 129.320878 21.939287 
L 129.620971 20.101087 
L 129.709233 20.238927 
L 129.938716 22.390827 
L 130.238809 24.838341 
L 130.327071 24.807299 
L 130.468291 23.74032 
L 130.503596 23.74032 
L 130.733078 26.430194 
L 130.821341 26.430194 
L 131.033171 22.639593 
L 131.245001 23.524162 
L 131.421526 23.579697 
L 131.474483 23.579697 
L 131.562746 24.907546 
L 131.598051 24.856426 
L 131.739271 24.839908 
L 131.862839 22.404069 
L 132.004059 22.404069 
L 132.268846 25.591762 
L 132.392414 24.83407 
L 132.568939 20.019067 
L 132.621896 19.240014 
L 132.833727 9.853365 
L 132.886684 9.795978 
L 133.098514 9.169005 
L 133.239734 11.229344 
L 133.327996 11.32717 
L 133.628089 14.01263 
L 133.857571 25.110603 
L 133.945834 25.110603 
L 134.122359 23.136416 
L 134.387146 16.573065 
L 134.475409 16.573065 
L 134.598976 14.411626 
L 134.740197 13.714309 
L 134.775502 13.714309 
L 135.216814 17.303846 
L 135.358034 17.303846 
L 135.658127 16.320169 
L 135.711084 16.375561 
L 136.011177 18.203366 
L 136.187702 18.096426 
L 136.240659 17.741288 
L 136.452489 9.725349 
L 136.540752 9.725349 
L 136.681972 12.049691 
L 136.717277 12.049691 
L 136.94676 8.550434 
L 137.035022 8.760754 
L 137.070327 9.232515 
L 137.211547 15.056398 
L 137.246852 15.056398 
L 137.388072 10.002595 
L 137.476335 10.002595 
L 137.564597 11.529231 
L 137.776427 14.842518 
L 137.952952 11.740833 
L 138.041215 11.835954 
L 138.306002 15.761832 
L 138.623747 15.835593 
L 138.976798 15.736343 
L 139.188628 13.936875 
L 139.365152 18.598089 
L 139.506373 18.59695 
L 139.541678 18.182433 
L 139.718203 12.474745 
L 139.84177 12.339326 
L 140.018295 12.531277 
L 140.106557 12.547367 
L 140.247778 12.727927 
L 140.33604 12.494539 
L 140.459608 13.243545 
L 140.636133 19.191314 
L 140.777353 19.157424 
L 140.989183 17.778312 
L 141.218665 17.866455 
L 141.306928 18.269723 
L 141.342233 18.100128 
L 141.659978 20.227535 
L 141.783546 22.754222 
L 141.871808 22.754222 
L 142.277815 16.878649 
L 142.401383 16.653804 
L 142.454341 16.641131 
L 142.542603 15.926157 
L 142.666171 15.59836 
L 142.754433 15.630542 
L 143.01922 16.455588 
L 143.160441 21.122214 
L 143.284008 21.49031 
L 143.372271 21.49031 
L 143.548796 19.490917 
L 143.601753 19.490917 
L 143.725321 19.915687 
L 143.778278 19.915687 
L 143.990108 18.365698 
L 144.043066 18.365698 
L 144.131328 15.976993 
L 144.254896 11.24814 
L 144.307853 11.24814 
L 144.519683 15.671552 
L 144.660903 15.228841 
L 144.696209 15.228841 
L 144.749166 15.502385 
L 144.960996 21.347343 
L 145.102216 22.006498 
L 145.137521 22.006498 
L 145.190478 21.852424 
L 145.314046 20.872308 
L 145.367004 20.872308 
L 145.490571 21.53844 
L 145.578834 21.448302 
L 145.720053 20.315679 
L 145.808316 20.333906 
L 145.843621 20.478866 
L 145.984841 21.481481 
L 146.020146 21.693652 
L 146.073104 21.481481 
L 146.161366 21.194694 
L 146.284934 20.048685 
L 146.373196 20.048685 
L 146.514416 20.306708 
L 146.867466 20.352844 
L 147.132254 20.835 
L 147.255821 20.835 
L 147.308779 20.953474 
L 147.485304 26.892557 
L 147.573566 26.892557 
L 147.661829 26.660735 
L 147.838354 23.007689 
L 147.873659 22.955999 
L 148.138447 19.25525 
L 148.191404 19.447201 
L 148.226709 19.479241 
L 148.403234 20.793562 
L 148.456192 20.793562 
L 148.579759 19.264934 
L 148.703327 19.220933 
L 148.756284 19.264934 
L 149.109334 20.99363 
L 149.197597 20.99363 
L 149.497689 21.883752 
L 149.638909 21.88603 
L 149.762477 23.726365 
L 149.939002 26.38534 
L 150.027264 26.357572 
L 150.080222 26.19581 
L 156.876436 21.897279 
L 157.000003 23.549651 
L 157.229486 27.474105 
L 157.388358 27.655803 
L 157.794365 27.884208 
L 157.829671 27.741526 
L 158.006196 25.570972 
L 158.147416 24.58516 
L 158.323941 20.822753 
L 158.359246 20.822753 
L 158.447508 21.213633 
L 158.624033 22.508731 
L 158.712296 22.508731 
L 158.853516 18.188984 
L 158.977083 12.720664 
L 159.118303 12.720664 
L 159.294828 16.969783 
L 159.559616 24.950123 
L 159.594921 25.100921 
L 159.771446 26.551089 
L 159.824404 26.551089 
L 159.912666 26.685938 
L 160.389283 24.794199 
L 160.742334 17.422462 
L 160.918859 17.522994 
L 161.060079 18.723541 
L 161.324866 23.935261 
L 161.501391 22.513572 
L 161.713221 21.428936 
L 161.801484 18.922612 
L 161.942704 14.222808 
L 161.978009 14.222808 
L 162.119229 13.822103 
L 162.154534 13.822103 
L 162.384017 13.435496 
L 162.507584 13.770413 
L 162.560541 13.813274 
L 162.684109 14.096929 
L 162.825329 14.315793 
L 162.860634 14.315793 
L 163.001854 14.602722 
L 163.037159 14.602722 
L 163.178379 14.481543 
L 163.213684 14.481543 
L 163.354904 17.324778 
L 163.443167 17.324778 
L 164.061004 12.532274 
L 164.272834 12.494254 
L 164.625884 14.12256 
L 164.678842 14.10234 
L 164.855367 13.228594 
L 164.890672 13.228594 
L 165.120154 14.53722 
L 165.243722 18.722544 
L 165.384942 18.688654 
L 165.64973 18.068516 
L 166.126347 27.644412 
L 166.214609 27.644412 
L 166.249915 27.269766 
L 166.655922 13.891593 
L 166.77949 13.638696 
L 166.832447 13.501995 
L 166.92071 12.430175 
L 166.956015 12.802827 
L 167.220802 15.52531 
L 167.27376 15.717261 
L 167.397327 19.1869 
L 167.538547 19.359627 
L 167.573853 19.359627 
L 167.715072 15.917044 
L 167.83864 12.947645 
L 168.015165 12.906635 
L 168.103428 13.854712 
L 168.279952 16.091053 
L 168.456478 17.601597 
L 168.597697 17.601597 
L 168.809527 15.738906 
L 168.89779 15.738906 
L 169.162578 10.153537 
L 169.215535 10.636404 
L 169.25084 10.695498 
L 169.780415 14.52597 
L 169.833373 14.52597 
L 170.186423 17.858338 
L 170.274686 17.878844 
L 170.362948 17.780448 
L 170.486516 18.132737 
L 170.627735 18.132737 
L 170.804261 16.602257 
L 171.069048 10.090454 
L 171.15731 9.99334 
L 171.457403 7.227569 
L 171.633928 4.98952 
L 171.775148 5.008458 
L 172.075241 8.974634 
L 172.128198 9.108488 
L 172.251765 11.155582 
L 172.304723 11.168256 
L 172.481248 17.37305 
L 172.657773 22.998006 
L 172.781341 25.332742 
L 172.869603 25.332742 
L 172.957866 23.511631 
L 173.134391 20.664693 
L 173.487441 18.881459 
L 173.981711 6.474574 
L 174.105278 6.474574 
L 174.193541 8.192591 
L 174.370066 11.764043 
L 174.423023 11.846776 
L 174.634853 16.447757 
L 174.811379 19.937046 
L 174.899641 19.937046 
L 174.987904 19.703231 
L 175.111471 20.013798 
L 175.429216 19.934056 
L 175.464521 20.156764 
L 175.782266 26.533716 
L 175.905834 26.533716 
L 176.082359 23.375927 
L 176.223579 23.210462 
L 176.523672 20.693172 
L 176.664891 20.509196 
L 176.753154 20.430451 
L 176.788459 20.509196 
L 176.964984 23.905215 
L 177.106204 24.812282 
L 177.141509 24.812282 
L 177.494559 22.176947 
L 177.635779 22.342554 
L 177.724042 22.297699 
L 177.935872 20.655153 
L 178.112397 21.678416 
L 178.288922 22.514569 
L 178.341879 22.514569 
L 178.430142 21.730818 
L 178.553709 21.014277 
L 178.606667 21.141864 
L 178.694929 21.730818 
L 178.730234 21.5551 
L 178.818497 21.952244 
L 178.871454 21.940283 
L 179.224505 21.926471 
L 179.348072 21.395758 
L 179.401029 21.395758 
L 179.436335 21.601094 
L 179.612859 24.520085 
L 179.789384 24.552266 
L 179.877647 23.888128 
L 180.10713 18.273994 
L 180.142434 18.128038 
L 180.283655 14.834259 
L 180.407222 14.834259 
L 180.583747 16.39863 
L 180.672009 16.39863 
L 180.901492 14.890221 
L 180.936797 14.890221 
L 181.078017 15.042728 
L 181.113322 15.042728 
L 181.254542 13.826945 
L 181.289847 13.826945 
L 181.466372 22.669497 
L 181.695855 26.74546 
L 181.784117 26.74546 
L 182.08421 24.192999 
L 182.22543 24.192999 
L 182.348998 25.191201 
L 182.490217 27.367307 
L 182.525522 27.367307 
L 182.666743 25.858044 
L 183.019793 19.163404 
L 183.108055 19.163404 
L 183.461105 23.285078 
L 183.63763 23.610169 
L 183.761198 23.711556 
L 183.937723 23.770508 
L 184.237815 23.474608 
L 184.41434 23.703439 
L 184.55556 23.666844 
L 184.590865 23.558479 
L 184.732086 22.435539 
L 184.820348 22.435539 
L 184.943916 22.987896 
L 185.032178 23.069062 
L 185.208703 23.23766 
L 185.826541 23.218578 
L 186.003066 23.122888 
L 186.267853 23.210889 
L 186.356116 23.695038 
L 186.532641 25.433133 
L 186.709166 25.687738 
L 186.762123 25.687738 
L 186.885691 24.225038 
L 187.062216 22.556149 
L 187.150478 22.556149 
L 187.591791 23.651749 
L 187.768316 24.779673 
L 187.856579 24.779673 
L 188.033103 23.087289 
L 188.121366 23.087289 
L 188.350848 24.180896 
L 188.527373 24.303214 
L 188.615636 24.784373 
L 188.968686 21.15881 
L 189.180516 20.826883 
L 189.233474 20.868463 
L 189.321736 21.126628 
L 189.445304 21.741782 
L 189.498261 21.741782 
L 189.674786 18.912074 
L 189.939574 18.665728 
L 190.063141 18.211625 
L 190.204361 16.965084 
L 190.292624 17.01236 
L 190.557412 23.524732 
L 190.592716 23.568162 
L 190.945766 25.573821 
L 191.086987 26.697473 
L 191.175249 26.600785 
L 191.210554 26.585122 
L 191.440036 21.681976 
L 191.475341 21.681976 
L 191.740129 24.771699 
L 191.969612 20.543941 
L 192.093179 17.804655 
L 192.146137 17.804655 
L 192.357967 18.740059 
L 192.446229 17.97311 
L 192.534492 16.816279 
L 192.711017 14.72262 
L 192.746322 14.72262 
L 192.799279 15.035608 
L 193.011109 21.191704 
L 193.187634 23.341182 
L 193.275897 23.341182 
L 193.505379 21.98343 
L 193.540684 21.98343 
L 193.717209 21.630997 
L 193.858429 19.80419 
L 193.946692 19.719891 
L 193.981997 19.793652 
L 194.070259 19.793652 
L 194.123217 19.905149 
L 194.652792 24.827234 
L 194.77636 22.862586 
L 194.829317 22.862586 
L 194.952885 22.598156 
L 195.005842 22.598156 
L 195.129409 22.305246 
L 195.570722 15.044437 
L 195.800205 21.400742 
L 196.012035 24.844321 
L 196.153255 24.844321 
L 196.276823 22.817874 
L 196.365085 22.817874 
L 196.506305 25.441961 
L 196.54161 25.441961 
L 196.806398 22.953721 
L 196.89466 22.953721 
L 197.03588 22.708514 
L 197.071185 22.708514 
L 197.212405 23.033605 
L 197.24771 23.033605 
L 197.38893 22.126681 
L 197.60076 18.162498 
L 197.777285 14.080269 
L 197.95381 12.923437 
L 198.09503 12.25702 
L 198.183293 12.009963 
L 198.359818 11.331869 
L 198.395123 11.331869 
L 198.889393 15.2989 
L 198.924698 15.2989 
L 199.15418 14.159726 
L 199.595493 17.265256 
L 199.772018 19.528794 
L 199.86028 19.528794 
L 199.948543 17.908605 
L 200.07211 15.743605 
L 200.160373 15.743605 
L 200.248636 19.337841 
L 200.42516 23.392588 
L 200.513423 23.392588 
L 200.778211 20.493532 
L 201.007693 19.70736 
L 201.095956 19.382268 
L 201.219523 17.400818 
L 201.272481 17.400818 
L 201.449006 20.028322 
L 201.872666 21.188286 
L 202.013886 21.30733 
L 202.049191 21.30733 
L 202.313979 18.666725 
L 202.490503 18.666725 
L 202.843554 18.617598 
L 202.984773 18.09016 
L 203.020078 18.09016 
L 203.161299 18.868501 
L 203.284866 18.980709 
L 203.426086 19.18989 
L 203.690874 19.18989 
L 203.867398 20.118175 
L 204.043924 20.108064 
L 204.079229 20.108064 
L 204.255754 19.102031 
L 204.432279 19.102031 
L 204.608804 19.313633 
L 204.697066 19.23446 
L 204.873591 17.77646 
L 205.050116 14.755087 
L 205.226642 14.206717 
L 205.279599 14.206717 
L 205.367861 14.935503 
L 205.667954 20.460923 
L 205.720911 20.460923 
L 205.897437 18.788901 
L 206.073962 15.176154 
L 206.374054 15.090004 
L 206.550579 13.746633 
L 206.638842 13.746633 
L 206.868324 14.699837 
L 207.044849 14.699837 
L 207.080154 14.634192 
L 207.256679 13.298795 
L 207.309637 13.298795 
L 207.344942 13.420544 
L 207.609729 21.544278 
L 207.609729 21.544278 
" clip-path="url(#p0a779c6842)" style="fill: none; stroke: #5c80b5; stroke-width: 0.5; stroke-linecap: square"/>
   </g>
   <g id="patch_3">
    <path d="M 59.527559 30.614173 
L 59.527559 3.401575 
" style="fill: none; stroke: #000000; stroke-width: 0.4; stroke-linejoin: miter; stroke-linecap: square"/>
   </g>
   <g id="patch_4">
    <path d="M 208.346457 30.614173 
L 208.346457 3.401575 
" style="fill: none; stroke: #000000; stroke-width: 0.4; stroke-linejoin: miter; stroke-linecap: square"/>
   </g>
   <g id="patch_5">
    <path d="M 59.527559 30.614173 
L 208.346457 30.614173 
" style="fill: none; stroke: #000000; stroke-width: 0.4; stroke-linejoin: miter; stroke-linecap: square"/>
   </g>
   <g id="patch_6">
    <path d="M 59.527559 3.401575 
L 208.346457 3.401575 
" style="fill: none; stroke: #000000; stroke-width: 0.4; stroke-linejoin: miter; stroke-linecap: square"/>
   </g>
  </g>
 </g>
 <defs>
  <clipPath id="p0a779c6842">
   <rect x="59.527559" y="3.401575" width="148.818898" height="27.212598"/>
  </clipPath>
 </defs>
</svg>
