<?xml version="1.0" encoding="utf-8" standalone="no"?>
<!DOCTYPE svg PUBLIC "-//W3C//DTD SVG 1.1//EN"
  "http://www.w3.org/Graphics/SVG/1.1/DTD/svg11.dtd">
<svg xmlns:xlink="http://www.w3.org/1999/xlink" width="212.598425pt" height="42.519685pt" viewBox="0 0 212.598425 42.519685" xmlns="http://www.w3.org/2000/svg" version="1.1">
 <metadata>
  <rdf:RDF xmlns:dc="http://purl.org/dc/elements/1.1/" xmlns:cc="http://creativecommons.org/ns#" xmlns:rdf="http://www.w3.org/1999/02/22-rdf-syntax-ns#">
   <cc:Work>
    <dc:type rdf:resource="http://purl.org/dc/dcmitype/StillImage"/>
    <dc:date>2026-06-01T17:59:24.458209</dc:date>
    <dc:format>image/svg+xml</dc:format>
    <dc:creator>
     <cc:Agent>
      <dc:title>Matplotlib v3.10.8, https://matplotlib.org/</dc:title>
     </cc:Agent>
    </dc:creator>
   </cc:Work>
  </rdf:RDF>
 </metadata>
 <defs>
  <style type="text/css">*{stroke-linejoin: round; stroke-linecap: butt}</style>
 </defs>
 <g id="figure_1">
  <g id="patch_1">
   <path d="M 0 42.519685 
L 212.598425 42.519685 
L 212.598425 0 
L 0 0 
z
" style="fill: #ffffff"/>
  </g>
  <g id="axes_1">
   <g id="patch_2">
    <path d="M 59.527559 30.614173 
L 208.346457 30.614173 
L 208.346457 3.401575 
L 59.527559 3.401575 
z
" style="fill: #eaeaf2"/>
   </g>
   <g id="matplotlib.axis_1">
    <g id="xtick_1">
     <g id="line2d_1">
      <path d="M 60.264286 30.614173 
L 60.264286 3.401575 
" clip-path="url(#pcd3f5c451b)" style="fill: none; stroke: #ffffff; stroke-width: 0.9; stroke-linecap: square"/>
     </g>
     <g id="line2d_2">
      <defs>
       <path id="m0951f996ba" d="M 0 0 
L 0 2 
" style="stroke: #000000; stroke-width: 0.4"/>
      </defs>
      <g>
       <use xlink:href="#m0951f996ba" x="60.264286" y="30.614173" style="stroke: #000000; stroke-width: 0.4"/>
      </g>
     </g>
     <g id="text_1">
      <text style="font-size: 8px; font-family: 'DejaVu Sans', 'Bitstream Vera Sans', 'Computer Modern Sans Serif', 'Lucida Grande', 'Verdana', 'Geneva', 'Lucid', 'Arial', 'Helvetica', 'Avant Garde', sans-serif; text-anchor: middle" x="60.264286" y="42.192923" transform="rotate(-0 60.264286 42.192923)">0</text>
     </g>
    </g>
    <g id="xtick_2">
     <g id="line2d_3">
      <path d="M 92.007049 30.614173 
L 92.007049 3.401575 
" clip-path="url(#pcd3f5c451b)" style="fill: none; stroke: #ffffff; stroke-width: 0.9; stroke-linecap: square"/>
     </g>
     <g id="line2d_4">
      <g>
       <use xlink:href="#m0951f996ba" x="92.007049" y="30.614173" style="stroke: #000000; stroke-width: 0.4"/>
      </g>
     </g>
     <g id="text_2">
      <text style="font-size: 8px; font-family: 'DejaVu Sans', 'Bitstream Vera Sans', 'Computer Modern Sans Serif', 'Lucida Grande', 'Verdana', 'Geneva', 'Lucid', 'Arial', 'Helvetica', 'Avant Garde', sans-serif; text-anchor: middle" x="92.007049" y="42.192923" transform="rotate(-0 92.007049 42.192923)">60</text>
     </g>
    </g>
    <g id="xtick_3">
     <g id="line2d_5">
      <path d="M 123.749812 30.614173 
L 123.749812 3.401575 
" clip-path="url(#pcd3f5c451b)" style="fill: none; stroke: #ffffff; stroke-width: 0.9; stroke-linecap: square"/>
     </g>
     <g id="line2d_6">
      <g>
       <use xlink:href="#m0951f996ba" x="123.749812" y="30.614173" style="stroke: #000000; stroke-width: 0.4"/>
      </g>
     </g>
     <g id="text_3">
      <text style="font-size: 8px; font-family: 'DejaVu Sans', 'Bitstream Vera Sans', 'Computer Modern Sans Serif', 'Lucida Grande', 'Verdana', 'Geneva', 'Lucid', 'Arial', 'Helvetica', 'Avant Garde', sans-serif; text-anchor: middle" x="123.749812" y="42.192923" transform="rotate(-0 123.749812 42.192923)">120</text>
     </g>
    </g>
    <g id="xtick_4">
     <g id="line2d_7">
      <path d="M 155.492574 30.614173 
L 155.492574 3.401575 
" clip-path="url(#pcd3f5c451b)" style="fill: none; stroke: #ffffff; stroke-width: 0.9; stroke-linecap: square"/>
     </g>
     <g id="line2d_8">
      <g>
       <use xlink:href="#m0951f996ba" x="155.492574" y="30.614173" style="stroke: #000000; stroke-width: 0.4"/>
      </g>
     </g>
     <g id="text_4">
      <text style="font-size: 8px; font-family: 'DejaVu Sans', 'Bitstream Vera Sans', 'Computer Modern Sans Serif', 'Lucida Grande', 'Verdana', 'Geneva', 'Lucid', 'Arial', 'Helvetica', 'Avant Garde', sans-serif; text-anchor: middle" x="155.492574" y="42.192923" transform="rotate(-0 155.492574 42.192923)">180</text>
     </g>
    </g>
    <g id="xtick_5">
     <g id="line2d_9">
      <path d="M 187.235337 30.614173 
L 187.235337 3.401575 
" clip-path="url(#pcd3f5c451b)" style="fill: none; stroke: #ffffff; stroke-width: 0.9; stroke-linecap: square"/>
     </g>
     <g id="line2d_10">
      <g>
       <use xlink:href="#m0951f996ba" x="187.235337" y="30.614173" style="stroke: #000000; stroke-width: 0.4"/>
      </g>
     </g>
     <g id="text_5">
      <text style="font-size: 8px; font-family: 'DejaVu Sans', 'Bitstream Vera Sans', 'Computer Modern Sans Serif', 'Lucida Grande', 'Verdana', 'Geneva', 'Lucid', 'Arial', 'Helvetica', 'Avant Garde', sans-serif; text-anchor: middle" x="187.235337" y="42.192923" transform="rotate(-0 187.235337 42.192923)">240</text>
     </g>
    </g>
    <g id="xtick_6">
     <g id="line2d_11">
      <path d="M 76.135668 30.614173 
L 76.135668 3.401575 
" clip-path="url(#pcd3f5c451b)" style="fill: none; stroke: #ffffff; stroke-opacity: 0.9; stroke-width: 0.55; stroke-linecap: square"/>
     </g>
     <g id="line2d_12">
      <defs>
       <path id="m246209b7c2" d="M 0 0 
L 0 2 
" style="stroke: #000000; stroke-width: 0.6"/>
      </defs>
      <g>
       <use xlink:href="#m246209b7c2" x="76.135668" y="30.614173" style="stroke: #000000; stroke-width: 0.6"/>
      </g>
     </g>
    </g>
    <g id="xtick_7">
     <g id="line2d_13">
      <path d="M 107.87843 30.614173 
L 107.87843 3.401575 
" clip-path="url(#pcd3f5c451b)" style="fill: none; stroke: #ffffff; stroke-opacity: 0.9; stroke-width: 0.55; stroke-linecap: square"/>
     </g>
     <g id="line2d_14">
      <g>
       <use xlink:href="#m246209b7c2" x="107.87843" y="30.614173" style="stroke: #000000; stroke-width: 0.6"/>
      </g>
     </g>
    </g>
    <g id="xtick_8">
     <g id="line2d_15">
      <path d="M 139.621193 30.614173 
L 139.621193 3.401575 
" clip-path="url(#pcd3f5c451b)" style="fill: none; stroke: #ffffff; stroke-opacity: 0.9; stroke-width: 0.55; stroke-linecap: square"/>
     </g>
     <g id="line2d_16">
      <g>
       <use xlink:href="#m246209b7c2" x="139.621193" y="30.614173" style="stroke: #000000; stroke-width: 0.6"/>
      </g>
     </g>
    </g>
    <g id="xtick_9">
     <g id="line2d_17">
      <path d="M 171.363956 30.614173 
L 171.363956 3.401575 
" clip-path="url(#pcd3f5c451b)" style="fill: none; stroke: #ffffff; stroke-opacity: 0.9; stroke-width: 0.55; stroke-linecap: square"/>
     </g>
     <g id="line2d_18">
      <g>
       <use xlink:href="#m246209b7c2" x="171.363956" y="30.614173" style="stroke: #000000; stroke-width: 0.6"/>
      </g>
     </g>
    </g>
    <g id="xtick_10">
     <g id="line2d_19">
      <path d="M 203.106719 30.614173 
L 203.106719 3.401575 
" clip-path="url(#pcd3f5c451b)" style="fill: none; stroke: #ffffff; stroke-opacity: 0.9; stroke-width: 0.55; stroke-linecap: square"/>
     </g>
     <g id="line2d_20">
      <g>
       <use xlink:href="#m246209b7c2" x="203.106719" y="30.614173" style="stroke: #000000; stroke-width: 0.6"/>
      </g>
     </g>
    </g>
    <g id="text_6">
     <text style="font-size: 8px; font-family: 'DejaVu Sans', 'Bitstream Vera Sans', 'Computer Modern Sans Serif', 'Lucida Grande', 'Verdana', 'Geneva', 'Lucid', 'Arial', 'Helvetica', 'Avant Garde', sans-serif; text-anchor: middle" x="133.937008" y="53.935423" transform="rotate(-0 133.937008 53.935423)">time</text>
    </g>
   </g>
   <g id="matplotlib.axis_2">
    <g id="ytick_1">
     <g id="line2d_21">
      <path d="M 59.527559 29.344813 
L 208.346457 29.344813 
" clip-path="url(#pcd3f5c451b)" style="fill: none; stroke: #ffffff; stroke-width: 0.9; stroke-linecap: square"/>
     </g>
     <g id="line2d_22">
      <defs>
       <path id="mefaf45bcfc" d="M 0 0 
L -2 0 
" style="stroke: #000000; stroke-width: 0.4"/>
      </defs>
      <g>
       <use xlink:href="#mefaf45bcfc" x="59.527559" y="29.344813" style="stroke: #000000; stroke-width: 0.4"/>
      </g>
     </g>
     <g id="text_7">
      <text style="font-size: 8px; font-family: 'DejaVu Sans', 'Bitstream Vera Sans', 'Computer Modern Sans Serif', 'Lucida Grande', 'Verdana', 'Geneva', 'Lucid', 'Arial', 'Helvetica', 'Avant Garde', sans-serif; text-anchor: end" x="54.027559" y="32.384188" transform="rotate(-0 54.027559 32.384188)">−3.0</text>
     </g>
    </g>
    <g id="ytick_2">
     <g id="line2d_23">
      <path d="M 59.527559 21.663945 
L 208.346457 21.663945 
" clip-path="url(#pcd3f5c451b)" style="fill: none; stroke: #ffffff; stroke-width: 0.9; stroke-linecap: square"/>
     </g>
     <g id="line2d_24">
      <g>
       <use xlink:href="#mefaf45bcfc" x="59.527559" y="21.663945" style="stroke: #000000; stroke-width: 0.4"/>
      </g>
     </g>
     <g id="text_8">
      <text style="font-size: 8px; font-family: 'DejaVu Sans', 'Bitstream Vera Sans', 'Computer Modern Sans Serif', 'Lucida Grande', 'Verdana', 'Geneva', 'Lucid', 'Arial', 'Helvetica', 'Avant Garde', sans-serif; text-anchor: end" x="54.027559" y="24.70332" transform="rotate(-0 54.027559 24.70332)">−1.5</text>
     </g>
    </g>
    <g id="ytick_3">
     <g id="line2d_25">
      <path d="M 59.527559 13.983078 
L 208.346457 13.983078 
" clip-path="url(#pcd3f5c451b)" style="fill: none; stroke: #ffffff; stroke-width: 0.9; stroke-linecap: square"/>
     </g>
     <g id="line2d_26">
      <g>
       <use xlink:href="#mefaf45bcfc" x="59.527559" y="13.983078" style="stroke: #000000; stroke-width: 0.4"/>
      </g>
     </g>
     <g id="text_9">
      <text style="font-size: 8px; font-family: 'DejaVu Sans', 'Bitstream Vera Sans', 'Computer Modern Sans Serif', 'Lucida Grande', 'Verdana', 'Geneva', 'Lucid', 'Arial', 'Helvetica', 'Avant Garde', sans-serif; text-anchor: end" x="54.027559" y="17.022453" transform="rotate(-0 54.027559 17.022453)">0.0</text>
     </g>
    </g>
    <g id="ytick_4">
     <g id="line2d_27">
      <path d="M 59.527559 6.30221 
L 208.346457 6.30221 
" clip-path="url(#pcd3f5c451b)" style="fill: none; stroke: #ffffff; stroke-width: 0.9; stroke-linecap: square"/>
     </g>
     <g id="line2d_28">
      <g>
       <use xlink:href="#mefaf45bcfc" x="59.527559" y="6.30221" style="stroke: #000000; stroke-width: 0.4"/>
      </g>
     </g>
     <g id="text_10">
      <text style="font-size: 8px; font-family: 'DejaVu Sans', 'Bitstream Vera Sans', 'Computer Modern Sans Serif', 'Lucida Grande', 'Verdana', 'Geneva', 'Lucid', 'Arial', 'Helvetica', 'Avant Garde', sans-serif; text-anchor: end" x="54.027559" y="9.341585" transform="rotate(-0 54.027559 9.341585)">1.5</text>
     </g>
    </g>
    <g id="ytick_5">
     <g id="line2d_29">
      <path d="M 59.527559 25.504379 
L 208.346457 25.504379 
" clip-path="url(#pcd3f5c451b)" style="fill: none; stroke: #ffffff; stroke-opacity: 0.9; stroke-width: 0.55; stroke-linecap: square"/>
     </g>
     <g id="line2d_30">
      <defs>
       <path id="m320b6bff90" d="M 0 0 
L -2 0 
" style="stroke: #000000; stroke-width: 0.6"/>
      </defs>
      <g>
       <use xlink:href="#m320b6bff90" x="59.527559" y="25.504379" style="stroke: #000000; stroke-width: 0.6"/>
      </g>
     </g>
    </g>
    <g id="ytick_6">
     <g id="line2d_31">
      <path d="M 59.527559 17.823511 
L 208.346457 17.823511 
" clip-path="url(#pcd3f5c451b)" style="fill: none; stroke: #ffffff; stroke-opacity: 0.9; stroke-width: 0.55; stroke-linecap: square"/>
     </g>
     <g id="line2d_32">
      <g>
       <use xlink:href="#m320b6bff90" x="59.527559" y="17.823511" style="stroke: #000000; stroke-width: 0.6"/>
      </g>
     </g>
    </g>
    <g id="ytick_7">
     <g id="line2d_33">
      <path d="M 59.527559 10.142644 
L 208.346457 10.142644 
" clip-path="url(#pcd3f5c451b)" style="fill: none; stroke: #ffffff; stroke-opacity: 0.9; stroke-width: 0.55; stroke-linecap: square"/>
     </g>
     <g id="line2d_34">
      <g>
       <use xlink:href="#m320b6bff90" x="59.527559" y="10.142644" style="stroke: #000000; stroke-width: 0.6"/>
      </g>
     </g>
    </g>
    <g id="text_11">
     <text style="font-size: 8px; font-family: 'DejaVu Sans', 'Bitstream Vera Sans', 'Computer Modern Sans Serif', 'Lucida Grande', 'Verdana', 'Geneva', 'Lucid', 'Arial', 'Helvetica', 'Avant Garde', sans-serif; text-anchor: middle" x="28.715059" y="17.007874" transform="rotate(-90 28.715059 17.007874)">right_wrist_dy</text>
    </g>
   </g>
   <g id="line2d_35">
    <path d="M 60.264286 10.321277 
L 60.317244 10.119678 
L 60.352549 10.321277 
L 60.405506 10.522877 
L 60.440811 10.435401 
L 60.582031 10.120779 
L 60.758557 10.013086 
L 60.882124 9.619287 
L 61.023344 9.290151 
L 61.111606 9.39513 
L 61.235174 9.51124 
L 61.411699 9.9981 
L 61.941274 10.12487 
L 62.082494 9.937882 
L 62.117799 9.937882 
L 62.294324 10.311621 
L 62.435544 10.483859 
L 62.735637 14.259325 
L 62.823899 14.259325 
L 63.000424 10.645005 
L 63.176949 9.95035 
L 63.318169 10.057139 
L 63.441737 10.193348 
L 63.794787 10.566182 
L 64.147837 9.713214 
L 64.236099 9.713214 
L 64.412625 9.913928 
L 64.677412 9.895835 
L 65.171682 9.985278 
L 65.701257 10.321612 
L 65.913087 10.08534 
L 66.230832 10.063943 
L 66.442662 10.140406 
L 66.583883 10.476386 
L 66.84867 10.548483 
L 66.972237 10.634857 
L 67.148762 10.550921 
L 67.237025 10.594265 
L 67.378245 10.667818 
L 67.590075 10.100523 
L 67.678338 10.168883 
L 67.854863 13.357663 
L 67.90782 13.357663 
L 68.084345 14.30853 
L 68.207913 18.24349 
L 68.296175 18.24349 
L 68.437395 17.287352 
L 69.214105 17.323145 
L 69.302368 16.104421 
L 69.478893 14.845185 
L 69.8849 10.152521 
L 70.061425 10.230438 
L 70.184993 10.419707 
L 70.237951 10.419707 
L 70.449781 9.894616 
L 70.591001 9.942956 
L 70.802831 10.19736 
L 71.067618 10.311346 
L 71.385363 10.400277 
L 72.126768 10.371013 
L 72.303294 10.201214 
L 72.744606 17.057177 
L 72.832869 17.327196 
L 72.974088 17.747859 
L 73.327138 18.406524 
L 73.415401 18.304888 
L 73.503664 18.235938 
L 73.591926 16.616258 
L 73.715494 11.390831 
L 73.980281 10.782472 
L 74.245069 10.770476 
L 74.386289 10.477172 
L 74.598119 10.534598 
L 74.739339 8.97962 
L 75.039431 8.965736 
L 75.745532 8.965736 
L 75.886751 13.051497 
L 76.275107 13.179525 
L 76.539894 22.948191 
L 76.716419 14.148446 
L 76.804682 14.148446 
L 77.069469 17.235236 
L 77.245994 17.27217 
L 77.298952 17.297146 
L 77.475477 18.17336 
L 77.510782 18.273186 
L 77.652002 19.022788 
L 77.952094 17.677926 
L 78.040357 17.677926 
L 78.163924 18.036522 
L 78.34045 18.036522 
L 78.693499 18.093554 
L 78.870025 18.093554 
L 79.046549 18.330376 
L 79.223075 18.143664 
L 79.3996 18.03896 
L 79.487862 17.912781 
L 79.576124 17.78613 
L 79.717345 17.27803 
L 79.929175 17.2798 
L 80.1057 16.31375 
L 80.335182 16.31375 
L 80.59997 10.452943 
L 80.723537 11.409514 
L 80.8118 11.409514 
L 80.95302 12.222089 
L 81.129545 12.222089 
L 81.5179 16.055767 
L 81.65912 16.107804 
L 81.694425 16.055767 
L 81.923908 14.557191 
L 82.01217 14.557191 
L 82.188695 14.82013 
L 82.276957 14.77891 
L 82.453483 14.632867 
L 82.630008 14.622051 
L 82.983058 14.778438 
L 83.106625 14.567733 
L 83.247845 14.567733 
L 83.459675 15.070365 
L 84.077513 12.359281 
L 84.13047 12.359281 
L 84.165776 11.769723 
L 84.254038 12.03219 
L 84.306995 12.03219 
L 84.430563 11.769723 
L 84.607088 12.215834 
L 84.783613 12.794576 
L 84.836571 12.644364 
L 84.871875 12.794576 
L 84.960138 12.714888 
L 85.013096 12.568806 
L 85.048401 12.714888 
L 85.101358 12.736678 
L 85.630933 16.04672 
L 85.666238 15.909292 
L 85.842763 14.582758 
L 85.983983 14.452449 
L 86.107551 14.120441 
L 86.337033 13.845938 
L 86.637126 10.405469 
L 86.725388 10.405469 
L 86.848956 9.881164 
L 87.025481 9.881164 
L 87.254963 10.171557 
L 87.431488 11.601025 
L 87.555056 11.74046 
L 87.872801 11.823766 
L 88.049326 12.013074 
L 88.137589 12.013074 
L 88.261156 9.524417 
L 88.490639 8.876686 
L 88.614206 10.15433 
L 88.702469 10.15433 
L 88.878994 9.016868 
L 88.967256 9.21416 
L 89.055519 9.267495 
L 89.232044 9.434384 
L 89.585094 11.964577 
L 89.638051 11.964577 
L 89.761619 11.079159 
L 89.849881 10.90523 
L 90.026406 10.32877 
L 90.079364 10.32877 
L 90.114669 10.161921 
L 90.291194 7.357146 
L 90.379456 7.357146 
L 90.644244 10.359017 
L 90.732507 10.38474 
L 90.873727 10.985666 
L 91.050252 10.995105 
L 91.085557 10.985666 
L 91.226776 10.705695 
L 91.438606 10.581011 
L 91.703394 10.072793 
L 91.879919 10.474144 
L 92.109402 10.502621 
L 92.232969 10.676432 
L 92.409494 10.676432 
L 92.58602 11.000533 
L 92.674282 10.938702 
L 92.727239 11.000533 
L 93.027332 10.96065 
L 93.292119 10.748843 
L 93.874652 10.677455 
L 94.051177 9.787238 
L 94.086482 9.787238 
L 94.315965 10.39713 
L 94.35127 10.28161 
L 94.49249 10.169827 
L 94.70432 9.316779 
L 94.792582 9.320123 
L 94.969107 10.216239 
L 95.145632 12.08997 
L 95.19859 12.08997 
L 95.498683 14.739341 
L 95.586945 14.327489 
L 95.710513 12.598463 
L 95.939995 9.927891 
L 96.557833 10.001168 
L 96.769663 12.05343 
L 96.82262 12.122695 
L 96.946187 12.527743 
L 97.210975 12.548864 
L 97.3875 12.391141 
L 97.564025 12.38941 
L 97.616983 12.38941 
L 97.74055 12.10999 
L 98.093601 12.044541 
L 98.270125 11.867308 
L 98.711438 9.80769 
L 98.852658 14.985603 
L 99.293971 14.925149 
L 99.417538 20.072381 
L 99.558758 24.396184 
L 99.64702 24.396184 
L 99.85885 15.999324 
L 101.182788 15.999324 
L 101.271051 19.121239 
L 101.500533 26.710362 
L 101.624101 26.99458 
L 101.712363 26.99458 
L 101.853584 26.343467 
L 101.888888 26.343467 
L 102.153676 27.623549 
L 102.330201 27.579732 
L 102.471421 23.48166 
L 102.948039 23.579402 
L 103.124564 23.598124 
L 103.177521 23.368972 
L 103.565876 10.928869 
L 103.654139 10.754586 
L 103.830664 10.360511 
L 103.883621 10.360511 
L 104.007189 13.588663 
L 104.060146 13.588663 
L 104.183714 10.569172 
L 104.448502 9.8932 
L 104.748594 9.973399 
L 105.154601 10.920452 
L 105.366431 10.811264 
L 105.595914 10.600126 
L 105.896007 10.557254 
L 106.072532 10.357916 
L 106.213752 10.454635 
L 106.602107 10.605515 
L 106.743327 10.503683 
L 106.866894 10.399215 
L 107.131682 10.71958 
L 107.272902 10.528187 
L 108.367357 10.420966 
L 108.596839 10.367749 
L 108.720407 10.495738 
L 109.391202 10.51619 
L 109.51477 10.435204 
L 109.65599 10.425883 
L 109.779557 10.892329 
L 109.920777 10.386117 
L 110.397395 10.336715 
L 110.71514 10.500969 
L 111.103495 10.60347 
L 111.28002 9.963055 
L 111.544808 9.901263 
L 111.809595 9.924902 
L 111.950815 10.326292 
L 112.250908 10.326292 
L 112.427433 9.699841 
L 112.48039 9.699841 
L 112.603958 9.461642 
L 112.780483 9.530789 
L 112.83344 9.594901 
L 113.098228 20.023059 
L 113.133533 19.752331 
L 113.574845 11.58309 
L 113.698413 11.522714 
L 113.786675 11.58309 
L 114.051463 11.812793 
L 114.280946 11.788603 
L 115.022351 12.339221 
L 115.428358 12.170523 
L 115.516621 12.242777 
L 115.640188 12.485617 
L 115.816713 12.45187 
L 116.134458 11.93909 
L 117.140651 12.290016 
L 117.458396 12.096499 
L 117.811446 11.384735 
L 117.935014 11.930082 
L 117.987971 11.930082 
L 118.111539 11.745573 
L 118.252759 11.834268 
L 118.464589 12.305513 
L 118.641114 12.199748 
L 118.958859 12.234006 
L 119.135384 12.290645 
L 119.223647 12.359006 
L 119.347214 12.438654 
L 119.435477 12.438654 
L 119.612001 12.259809 
L 119.700264 12.3004 
L 119.965052 12.484949 
L 120.194534 12.595474 
L 120.318102 12.66938 
L 120.671152 12.690423 
L 120.847677 12.248284 
L 121.077159 12.156167 
L 121.200727 12.307598 
L 121.253684 12.308148 
L 121.28899 12.475116 
L 121.341947 12.308148 
L 121.377252 12.308148 
L 121.518472 12.555512 
L 121.642039 12.518342 
L 121.818565 12.203799 
L 121.995089 12.202934 
L 122.118657 12.597007 
L 122.648232 12.531007 
L 122.824757 12.461192 
L 123.001282 12.553624 
L 123.142502 12.312475 
L 123.26607 12.593153 
L 123.530857 12.509925 
L 123.883907 12.426343 
L 124.236957 12.370727 
L 124.501745 12.317982 
L 124.67827 12.042653 
L 124.731228 12.042653 
L 124.766532 12.373244 
L 124.996015 23.80879 
L 125.084278 23.80879 
L 125.296108 13.177873 
L 125.349065 13.014209 
L 125.472633 9.689378 
L 125.52559 9.689378 
L 125.702115 10.781293 
L 125.790378 10.751164 
L 126.055165 9.784524 
L 126.319953 9.92207 
L 126.531783 9.648905 
L 126.673003 9.61732 
L 126.79657 9.528075 
L 126.973095 9.474228 
L 127.061358 9.479931 
L 127.114316 9.607763 
L 127.237883 10.370463 
L 127.414408 10.615938 
L 127.467365 10.615938 
L 127.590933 10.276458 
L 127.643891 10.276458 
L 127.767458 9.767178 
L 128.032245 9.243464 
L 128.120508 9.271862 
L 128.297033 9.893711 
L 128.34999 9.893711 
L 128.526516 11.202821 
L 128.791303 11.202506 
L 128.914871 10.826918 
L 128.967828 10.826918 
L 129.091396 10.252229 
L 129.179658 10.252229 
L 129.356183 11.623209 
L 129.497403 11.655776 
L 129.585666 11.904516 
L 129.762191 11.434963 
L 129.850453 11.434963 
L 129.974021 11.138119 
L 130.380028 11.868488 
L 130.591858 11.751866 
L 130.733078 12.263466 
L 130.768384 12.263466 
L 130.944908 11.463125 
L 131.068476 11.513707 
L 131.297959 12.442391 
L 131.421526 12.338395 
L 131.686313 11.463715 
L 131.915796 9.709202 
L 131.951101 9.709202 
L 132.127626 11.39032 
L 132.180584 11.426781 
L 132.480676 14.246306 
L 132.621896 14.993076 
L 132.710159 17.09651 
L 132.886684 24.993373 
L 133.275039 24.949792 
L 133.327996 24.568776 
L 133.451564 16.167432 
L 133.539826 16.167432 
L 133.628089 16.013051 
L 133.681047 15.341053 
L 133.804614 12.616989 
L 133.892877 12.616989 
L 134.157664 17.101072 
L 134.422452 17.211479 
L 134.475409 17.357403 
L 134.651934 21.515026 
L 134.828459 24.87498 
L 135.040289 25.858141 
L 135.216814 25.234403 
L 135.269772 25.166437 
L 135.305077 25.234403 
L 135.622822 26.047332 
L 135.658127 25.577189 
L 135.887609 19.666508 
L 136.011177 19.727355 
L 136.152397 19.94219 
L 136.275965 19.94219 
L 136.328922 20.167252 
L 136.59371 24.223867 
L 136.717277 23.2435 
L 136.80554 23.2435 
L 136.94676 25.906324 
L 136.982064 25.906324 
L 137.035022 25.430713 
L 137.246852 15.667553 
L 137.423377 25.098902 
L 137.511639 25.098902 
L 137.688165 15.423651 
L 137.829385 15.423651 
L 138.129477 22.827872 
L 138.306002 22.796956 
L 138.482527 22.876055 
L 138.835577 23.514857 
L 138.888535 23.464393 
L 139.012102 22.924749 
L 139.453415 10.095056 
L 139.541678 10.095056 
L 139.62994 13.533047 
L 139.806465 20.883933 
L 139.894727 20.824619 
L 140.018295 20.203123 
L 140.106557 20.234118 
L 140.283083 20.434164 
L 140.371345 20.411547 
L 140.68909 12.270507 
L 140.777353 12.270507 
L 140.90092 15.243625 
L 141.04214 15.269467 
L 141.077445 15.073669 
L 141.25397 11.469064 
L 141.483453 11.062797 
L 141.518758 11.056385 
L 141.60702 10.835454 
L 141.924765 11.963791 
L 141.96007 11.887525 
L 142.189553 11.85008 
L 142.489645 11.770982 
L 142.630866 12.18366 
L 142.666171 12.18366 
L 142.842696 11.832144 
L 143.160441 11.85417 
L 143.284008 10.951957 
L 143.336965 10.951957 
L 143.548796 9.885176 
L 143.637058 9.885176 
L 143.778278 10.046755 
L 143.813583 10.046755 
L 143.901846 10.666913 
L 143.954803 10.451331 
L 144.343158 10.483387 
L 144.572641 11.732986 
L 144.696209 14.886288 
L 144.749166 14.905522 
L 144.872733 15.541138 
L 144.925691 15.541138 
L 145.102216 14.332995 
L 145.190478 14.403558 
L 145.402308 15.207164 
L 145.543529 15.207164 
L 145.720053 14.914883 
L 145.808316 14.983243 
L 145.931883 15.210075 
L 146.249628 15.118587 
L 146.284934 15.097898 
L 146.426154 14.858559 
L 146.514416 14.755349 
L 146.602679 14.734228 
L 146.690941 14.858559 
L 146.726246 14.808134 
L 146.814509 14.808134 
L 146.867466 14.939584 
L 146.902771 14.898678 
L 147.220516 14.536935 
L 147.344084 14.812815 
L 147.520609 15.108754 
L 147.661829 14.878933 
L 147.838354 14.610605 
L 147.961921 14.679162 
L 148.103141 14.803768 
L 148.138447 14.803768 
L 148.314971 14.254408 
L 148.491497 14.254408 
L 148.791589 12.326163 
L 148.879852 12.386302 
L 148.932809 12.516887 
L 149.021072 12.459225 
L 149.285859 12.35759 
L 149.497689 16.0267 
L 149.727172 14.764514 
L 149.903697 14.059751 
L 150.027264 11.931656 
L 150.080222 8.889233 
L 157.000003 10.477762 
L 157.26479 10.125459 
L 157.441316 10.344818 
L 157.564883 10.456247 
L 157.706103 10.468008 
L 158.235678 7.928729 
L 158.359246 5.248797 
L 158.447508 5.248797 
L 158.588728 6.058421 
L 158.765253 6.303267 
L 159.330133 10.847529 
L 159.383091 10.847529 
L 159.506658 10.358545 
L 159.559616 10.342694 
L 160.124496 7.417601 
L 160.301021 7.687226 
L 160.477546 8.536616 
L 160.530504 8.643247 
L 160.618766 8.384005 
L 160.654071 8.465109 
L 160.742334 8.643247 
L 160.971816 8.279734 
L 161.007121 8.279734 
L 161.148341 7.719401 
L 161.324866 7.111749 
L 161.501391 7.111749 
L 161.624959 8.929864 
L 161.677916 8.929864 
L 161.801484 7.533868 
L 161.854442 7.533868 
L 161.978009 8.001416 
L 162.066272 8.001416 
L 162.295754 6.406908 
L 162.419321 6.444667 
L 162.560541 6.729358 
L 162.595847 7.330912 
L 162.825329 17.793564 
L 162.860634 17.793564 
L 163.178379 6.79764 
L 163.354904 6.178111 
L 163.390209 6.178111 
L 163.531429 6.818564 
L 163.654997 6.781749 
L 163.796217 6.163204 
L 163.919784 6.178032 
L 164.096309 6.685344 
L 164.449359 6.811366 
L 164.625884 6.996073 
L 164.890672 8.449573 
L 164.943629 8.449573 
L 165.067197 7.737927 
L 165.120154 7.737927 
L 165.596772 16.902953 
L 165.685034 16.305569 
L 165.86156 15.753062 
L 166.002779 11.414431 
L 166.038085 11.414431 
L 166.091042 12.174181 
L 166.214609 14.79539 
L 166.249915 14.79539 
L 166.338177 14.217986 
L 166.602965 7.189904 
L 166.77949 7.189904 
L 166.92071 6.997646 
L 167.008972 7.049369 
L 167.13254 8.269626 
L 167.220802 8.269626 
L 167.450285 4.638511 
L 167.662115 6.154983 
L 167.715072 6.432868 
L 167.83864 7.520298 
L 167.926902 7.585709 
L 168.068122 8.476713 
L 168.103428 8.476713 
L 168.244647 8.060611 
L 168.33291 7.99882 
L 168.456478 7.059398 
L 168.509435 6.643887 
L 168.54474 7.059398 
L 168.774223 7.461771 
L 168.89779 7.929477 
L 168.950748 7.929477 
L 168.986053 7.817142 
L 169.127272 6.907731 
L 169.215535 6.971451 
L 169.339102 7.92161 
L 169.568585 8.754244 
L 169.692153 8.754244 
L 169.921635 6.405807 
L 170.045203 6.223972 
L 170.09816 6.405807 
L 170.221728 7.589052 
L 170.927828 7.610371 
L 171.104353 8.24347 
L 171.15731 8.24347 
L 171.333836 7.364659 
L 171.72219 4.904085 
L 171.863411 4.934214 
L 171.898716 5.287854 
L 172.128198 10.359961 
L 172.251765 11.110586 
L 172.304723 11.274092 
L 172.569511 13.824069 
L 172.957866 13.824069 
L 173.099086 10.695469 
L 173.487441 10.770122 
L 173.628661 10.529839 
L 173.840491 10.529839 
L 173.981711 13.393416 
L 174.158236 14.221133 
L 174.370066 11.844691 
L 174.511286 13.776752 
L 174.546591 13.776752 
L 174.864336 15.005899 
L 175.023209 15.920423 
L 175.164429 15.920423 
L 175.287996 14.672908 
L 175.605741 14.394079 
L 175.729309 13.05661 
L 175.958791 12.779944 
L 176.082359 13.041781 
L 176.170621 13.045479 
L 176.258884 13.284032 
L 176.435409 15.839752 
L 176.523672 15.96365 
L 176.664891 17.197201 
L 176.700196 17.197201 
L 177.017941 16.60198 
L 177.141509 16.727884 
L 177.459254 16.887653 
L 177.671084 16.383408 
L 177.847609 15.799003 
L 177.935872 15.799003 
L 178.077092 16.164089 
L 178.112397 16.164089 
L 178.288922 15.395253 
L 178.518404 15.499367 
L 178.641972 15.816349 
L 178.90676 15.855839 
L 179.171547 16.344626 
L 179.348072 16.344626 
L 179.701122 16.054901 
L 179.789384 16.357094 
L 179.842342 16.686466 
L 180.31896 27.732185 
L 180.407222 27.732185 
L 180.636705 25.86117 
L 180.672009 25.86117 
L 180.936797 27.285052 
L 180.989755 27.285052 
L 181.02506 26.863011 
L 181.289847 15.162443 
L 181.37811 15.849742 
L 181.554635 14.753068 
L 181.642897 14.753068 
L 181.784117 14.378503 
L 181.819423 14.490168 
L 182.08421 14.72231 
L 182.260735 14.687068 
L 182.702047 13.929914 
L 182.755005 13.997566 
L 182.79031 13.929914 
L 183.108055 13.904151 
L 183.28458 14.558175 
L 183.372842 14.78953 
L 183.408148 14.685967 
L 183.584672 14.78953 
L 183.672935 14.934313 
L 183.84946 15.0164 
L 184.025985 14.989379 
L 184.06129 14.997521 
L 184.20251 15.293303 
L 184.55556 15.212435 
L 184.820348 15.005505 
L 184.855653 15.045467 
L 184.996873 15.158549 
L 185.12044 15.054907 
L 185.296965 15.03764 
L 185.526448 15.381054 
L 185.61471 15.327247 
L 185.826541 15.140181 
L 186.144286 15.17912 
L 186.320811 15.206417 
L 186.762123 14.857064 
L 187.062216 15.164331 
L 187.379961 14.451072 
L 187.503528 14.48301 
L 187.644749 14.700166 
L 187.856579 14.937578 
L 188.033103 15.259673 
L 188.297891 15.450437 
L 188.386154 15.279576 
L 188.439111 15.36359 
L 188.562678 15.36359 
L 188.703899 15.424595 
L 188.915729 15.952715 
L 188.968686 16.004909 
L 189.180516 16.607998 
L 189.357041 14.973449 
L 189.498261 14.986626 
L 189.533566 15.20091 
L 189.674786 22.506918 
L 189.798354 25.930395 
L 189.886616 25.930395 
L 189.974879 25.228504 
L 190.239666 16.232764 
L 190.504454 15.428764 
L 190.645674 15.258454 
L 190.680979 15.258454 
L 190.822199 15.548651 
L 190.857504 15.548651 
L 191.086987 14.868824 
L 191.122291 14.868824 
L 191.298817 15.504637 
L 191.475341 16.078619 
L 191.651867 16.154885 
L 191.916654 20.790281 
L 192.093179 25.097093 
L 192.269704 25.287384 
L 192.322661 25.189524 
L 192.499187 19.627804 
L 192.658059 15.80211 
L 192.746322 15.473958 
L 192.834584 15.95948 
L 192.975804 15.473643 
L 193.011109 15.412953 
L 193.187634 14.388218 
L 193.36416 14.237889 
L 193.417117 14.237889 
L 193.593642 14.852501 
L 193.681905 14.852501 
L 193.805472 14.437424 
L 194.123217 14.539846 
L 194.21148 14.674914 
L 194.246784 14.60325 
L 194.688097 14.591686 
L 194.77636 14.740639 
L 194.952885 18.142916 
L 195.129409 20.242692 
L 195.27063 20.242692 
L 195.658985 17.736649 
L 195.711942 17.736649 
L 195.83551 15.808089 
L 196.012035 15.125588 
L 196.32978 14.98226 
L 196.365085 15.027414 
L 196.506305 15.367445 
L 196.54161 15.367445 
L 196.68283 14.217436 
L 196.806398 13.613207 
L 196.859355 13.613207 
L 197.071185 14.013378 
L 197.124143 14.013378 
L 197.300667 14.680617 
L 197.38893 17.388044 
L 197.565455 28.259677 
L 197.74198 28.794248 
L 197.95381 28.987173 
L 198.006768 28.987173 
L 198.130335 29.377237 
L 198.218598 29.282011 
L 198.395123 28.887268 
L 198.571648 26.881734 
L 198.624605 26.881734 
L 198.748173 27.419058 
L 198.924698 27.396639 
L 198.977655 27.145853 
L 199.065918 22.212237 
L 199.277748 14.864852 
L 199.454273 14.641324 
L 199.630798 15.016912 
L 199.683755 14.990677 
L 199.719061 14.829728 
L 199.772018 14.990677 
L 199.807323 14.990677 
L 200.07211 16.042905 
L 200.21333 16.286374 
L 200.248636 16.286374 
L 200.513423 15.458775 
L 200.654643 15.55223 
L 200.778211 15.55223 
L 200.831168 15.55223 
L 201.007693 15.30526 
L 201.095956 15.378183 
L 201.219523 15.735087 
L 201.572573 14.769273 
L 201.749098 15.746573 
L 201.784403 15.793261 
L 201.925623 16.985945 
L 202.137453 27.543075 
L 202.225716 27.779661 
L 202.455198 28.563168 
L 202.755291 28.528043 
L 202.843554 28.246028 
L 202.984773 27.404663 
L 203.020078 27.404663 
L 203.196604 28.348412 
L 203.284866 28.39447 
L 203.549653 28.679985 
L 203.602611 28.679985 
L 203.726179 28.816273 
L 203.990966 28.705276 
L 204.573499 28.523245 
L 204.873591 26.805546 
L 205.050116 26.359987 
L 205.103074 26.467404 
L 205.226642 27.559082 
L 205.367861 27.559082 
L 205.491429 24.766974 
L 205.809174 24.23905 
L 205.932741 25.662972 
L 206.021004 25.730546 
L 206.073962 25.662972 
L 206.250486 24.820937 
L 206.427012 24.732794 
L 206.550579 24.628012 
L 206.780061 24.412704 
L 206.956587 24.495342 
L 207.256679 24.689173 
L 207.486162 19.15707 
L 207.609729 12.47661 
L 207.609729 12.47661 
" clip-path="url(#pcd3f5c451b)" style="fill: none; stroke: #5c80b5; stroke-width: 0.5; stroke-linecap: square"/>
   </g>
   <g id="patch_3">
    <path d="M 59.527559 30.614173 
L 59.527559 3.401575 
" style="fill: none; stroke: #000000; stroke-width: 0.4; stroke-linejoin: miter; stroke-linecap: square"/>
   </g>
   <g id="patch_4">
    <path d="M 208.346457 30.614173 
L 208.346457 3.401575 
" style="fill: none; stroke: #000000; stroke-width: 0.4; stroke-linejoin: miter; stroke-linecap: square"/>
   </g>
   <g id="patch_5">
    <path d="M 59.527559 30.614173 
L 208.346457 30.614173 
" style="fill: none; stroke: #000000; stroke-width: 0.4; stroke-linejoin: miter; stroke-linecap: square"/>
   </g>
   <g id="patch_6">
    <path d="M 59.527559 3.401575 
L 208.346457 3.401575 
" style="fill: none; stroke: #000000; stroke-width: 0.4; stroke-linejoin: miter; stroke-linecap: square"/>
   </g>
  </g>
 </g>
 <defs>
  <clipPath id="pcd3f5c451b">
   <rect x="59.527559" y="3.401575" width="148.818898" height="27.212598"/>
  </clipPath>
 </defs>
</svg>
