<?xml version="1.0" encoding="utf-8" standalone="no"?>
<!DOCTYPE svg PUBLIC "-//W3C//DTD SVG 1.1//EN"
  "http://www.w3.org/Graphics/SVG/1.1/DTD/svg11.dtd">
<svg xmlns:xlink="http://www.w3.org/1999/xlink" width="212.598425pt" height="42.519685pt" viewBox="0 0 212.598425 42.519685" xmlns="http://www.w3.org/2000/svg" version="1.1">
 <metadata>
  <rdf:RDF xmlns:dc="http://purl.org/dc/elements/1.1/" xmlns:cc="http://creativecommons.org/ns#" xmlns:rdf="http://www.w3.org/1999/02/22-rdf-syntax-ns#">
   <cc:Work>
    <dc:type rdf:resource="http://purl.org/dc/dcmitype/StillImage"/>
    <dc:date>2026-06-01T17:59:21.692129</dc:date>
    <dc:format>image/svg+xml</dc:format>
    <dc:creator>
     <cc:Agent>
      <dc:title>Matplotlib v3.10.8, https://matplotlib.org/</dc:title>
     </cc:Agent>
    </dc:creator>
   </cc:Work>
  </rdf:RDF>
 </metadata>
 <defs>
  <style type="text/css">*{stroke-linejoin: round; stroke-linecap: butt}</style>
 </defs>
 <g id="figure_1">
  <g id="patch_1">
   <path d="M 0 42.519685 
L 212.598425 42.519685 
L 212.598425 0 
L 0 0 
z
" style="fill: #ffffff"/>
  </g>
  <g id="axes_1">
   <g id="patch_2">
    <path d="M 59.527559 30.614173 
L 208.346457 30.614173 
L 208.346457 3.401575 
L 59.527559 3.401575 
z
" style="fill: #eaeaf2"/>
   </g>
   <g id="matplotlib.axis_1">
    <g id="xtick_1">
     <g id="line2d_1">
      <path d="M 60.264286 30.614173 
L 60.264286 3.401575 
" clip-path="url(#pebaec455c2)" style="fill: none; stroke: #ffffff; stroke-width: 0.9; stroke-linecap: square"/>
     </g>
     <g id="line2d_2">
      <defs>
       <path id="ma9590a7adc" d="M 0 0 
L 0 2 
" style="stroke: #000000; stroke-width: 0.4"/>
      </defs>
      <g>
       <use xlink:href="#ma9590a7adc" x="60.264286" y="30.614173" style="stroke: #000000; stroke-width: 0.4"/>
      </g>
     </g>
     <g id="text_1">
      <text style="font-size: 8px; font-family: 'DejaVu Sans', 'Bitstream Vera Sans', 'Computer Modern Sans Serif', 'Lucida Grande', 'Verdana', 'Geneva', 'Lucid', 'Arial', 'Helvetica', 'Avant Garde', sans-serif; text-anchor: middle" x="60.264286" y="42.192923" transform="rotate(-0 60.264286 42.192923)">0</text>
     </g>
    </g>
    <g id="xtick_2">
     <g id="line2d_3">
      <path d="M 92.007049 30.614173 
L 92.007049 3.401575 
" clip-path="url(#pebaec455c2)" style="fill: none; stroke: #ffffff; stroke-width: 0.9; stroke-linecap: square"/>
     </g>
     <g id="line2d_4">
      <g>
       <use xlink:href="#ma9590a7adc" x="92.007049" y="30.614173" style="stroke: #000000; stroke-width: 0.4"/>
      </g>
     </g>
     <g id="text_2">
      <text style="font-size: 8px; font-family: 'DejaVu Sans', 'Bitstream Vera Sans', 'Computer Modern Sans Serif', 'Lucida Grande', 'Verdana', 'Geneva', 'Lucid', 'Arial', 'Helvetica', 'Avant Garde', sans-serif; text-anchor: middle" x="92.007049" y="42.192923" transform="rotate(-0 92.007049 42.192923)">60</text>
     </g>
    </g>
    <g id="xtick_3">
     <g id="line2d_5">
      <path d="M 123.749812 30.614173 
L 123.749812 3.401575 
" clip-path="url(#pebaec455c2)" style="fill: none; stroke: #ffffff; stroke-width: 0.9; stroke-linecap: square"/>
     </g>
     <g id="line2d_6">
      <g>
       <use xlink:href="#ma9590a7adc" x="123.749812" y="30.614173" style="stroke: #000000; stroke-width: 0.4"/>
      </g>
     </g>
     <g id="text_3">
      <text style="font-size: 8px; font-family: 'DejaVu Sans', 'Bitstream Vera Sans', 'Computer Modern Sans Serif', 'Lucida Grande', 'Verdana', 'Geneva', 'Lucid', 'Arial', 'Helvetica', 'Avant Garde', sans-serif; text-anchor: middle" x="123.749812" y="42.192923" transform="rotate(-0 123.749812 42.192923)">120</text>
     </g>
    </g>
    <g id="xtick_4">
     <g id="line2d_7">
      <path d="M 155.492574 30.614173 
L 155.492574 3.401575 
" clip-path="url(#pebaec455c2)" style="fill: none; stroke: #ffffff; stroke-width: 0.9; stroke-linecap: square"/>
     </g>
     <g id="line2d_8">
      <g>
       <use xlink:href="#ma9590a7adc" x="155.492574" y="30.614173" style="stroke: #000000; stroke-width: 0.4"/>
      </g>
     </g>
     <g id="text_4">
      <text style="font-size: 8px; font-family: 'DejaVu Sans', 'Bitstream Vera Sans', 'Computer Modern Sans Serif', 'Lucida Grande', 'Verdana', 'Geneva', 'Lucid', 'Arial', 'Helvetica', 'Avant Garde', sans-serif; text-anchor: middle" x="155.492574" y="42.192923" transform="rotate(-0 155.492574 42.192923)">180</text>
     </g>
    </g>
    <g id="xtick_5">
     <g id="line2d_9">
      <path d="M 187.235337 30.614173 
L 187.235337 3.401575 
" clip-path="url(#pebaec455c2)" style="fill: none; stroke: #ffffff; stroke-width: 0.9; stroke-linecap: square"/>
     </g>
     <g id="line2d_10">
      <g>
       <use xlink:href="#ma9590a7adc" x="187.235337" y="30.614173" style="stroke: #000000; stroke-width: 0.4"/>
      </g>
     </g>
     <g id="text_5">
      <text style="font-size: 8px; font-family: 'DejaVu Sans', 'Bitstream Vera Sans', 'Computer Modern Sans Serif', 'Lucida Grande', 'Verdana', 'Geneva', 'Lucid', 'Arial', 'Helvetica', 'Avant Garde', sans-serif; text-anchor: middle" x="187.235337" y="42.192923" transform="rotate(-0 187.235337 42.192923)">240</text>
     </g>
    </g>
    <g id="xtick_6">
     <g id="line2d_11">
      <path d="M 76.135668 30.614173 
L 76.135668 3.401575 
" clip-path="url(#pebaec455c2)" style="fill: none; stroke: #ffffff; stroke-opacity: 0.9; stroke-width: 0.55; stroke-linecap: square"/>
     </g>
     <g id="line2d_12">
      <defs>
       <path id="m83a6865cb3" d="M 0 0 
L 0 2 
" style="stroke: #000000; stroke-width: 0.6"/>
      </defs>
      <g>
       <use xlink:href="#m83a6865cb3" x="76.135668" y="30.614173" style="stroke: #000000; stroke-width: 0.6"/>
      </g>
     </g>
    </g>
    <g id="xtick_7">
     <g id="line2d_13">
      <path d="M 107.87843 30.614173 
L 107.87843 3.401575 
" clip-path="url(#pebaec455c2)" style="fill: none; stroke: #ffffff; stroke-opacity: 0.9; stroke-width: 0.55; stroke-linecap: square"/>
     </g>
     <g id="line2d_14">
      <g>
       <use xlink:href="#m83a6865cb3" x="107.87843" y="30.614173" style="stroke: #000000; stroke-width: 0.6"/>
      </g>
     </g>
    </g>
    <g id="xtick_8">
     <g id="line2d_15">
      <path d="M 139.621193 30.614173 
L 139.621193 3.401575 
" clip-path="url(#pebaec455c2)" style="fill: none; stroke: #ffffff; stroke-opacity: 0.9; stroke-width: 0.55; stroke-linecap: square"/>
     </g>
     <g id="line2d_16">
      <g>
       <use xlink:href="#m83a6865cb3" x="139.621193" y="30.614173" style="stroke: #000000; stroke-width: 0.6"/>
      </g>
     </g>
    </g>
    <g id="xtick_9">
     <g id="line2d_17">
      <path d="M 171.363956 30.614173 
L 171.363956 3.401575 
" clip-path="url(#pebaec455c2)" style="fill: none; stroke: #ffffff; stroke-opacity: 0.9; stroke-width: 0.55; stroke-linecap: square"/>
     </g>
     <g id="line2d_18">
      <g>
       <use xlink:href="#m83a6865cb3" x="171.363956" y="30.614173" style="stroke: #000000; stroke-width: 0.6"/>
      </g>
     </g>
    </g>
    <g id="xtick_10">
     <g id="line2d_19">
      <path d="M 203.106719 30.614173 
L 203.106719 3.401575 
" clip-path="url(#pebaec455c2)" style="fill: none; stroke: #ffffff; stroke-opacity: 0.9; stroke-width: 0.55; stroke-linecap: square"/>
     </g>
     <g id="line2d_20">
      <g>
       <use xlink:href="#m83a6865cb3" x="203.106719" y="30.614173" style="stroke: #000000; stroke-width: 0.6"/>
      </g>
     </g>
    </g>
    <g id="text_6">
     <text style="font-size: 8px; font-family: 'DejaVu Sans', 'Bitstream Vera Sans', 'Computer Modern Sans Serif', 'Lucida Grande', 'Verdana', 'Geneva', 'Lucid', 'Arial', 'Helvetica', 'Avant Garde', sans-serif; text-anchor: middle" x="133.937008" y="53.935423" transform="rotate(-0 133.937008 53.935423)">time</text>
    </g>
   </g>
   <g id="matplotlib.axis_2">
    <g id="ytick_1">
     <g id="line2d_21">
      <path d="M 59.527559 22.776413 
L 208.346457 22.776413 
" clip-path="url(#pebaec455c2)" style="fill: none; stroke: #ffffff; stroke-width: 0.9; stroke-linecap: square"/>
     </g>
     <g id="line2d_22">
      <defs>
       <path id="mea6a8570be" d="M 0 0 
L -2 0 
" style="stroke: #000000; stroke-width: 0.4"/>
      </defs>
      <g>
       <use xlink:href="#mea6a8570be" x="59.527559" y="22.776413" style="stroke: #000000; stroke-width: 0.4"/>
      </g>
     </g>
     <g id="text_7">
      <text style="font-size: 8px; font-family: 'DejaVu Sans', 'Bitstream Vera Sans', 'Computer Modern Sans Serif', 'Lucida Grande', 'Verdana', 'Geneva', 'Lucid', 'Arial', 'Helvetica', 'Avant Garde', sans-serif; text-anchor: end" x="54.027559" y="25.815788" transform="rotate(-0 54.027559 25.815788)">−2</text>
     </g>
    </g>
    <g id="ytick_2">
     <g id="line2d_23">
      <path d="M 59.527559 13.786289 
L 208.346457 13.786289 
" clip-path="url(#pebaec455c2)" style="fill: none; stroke: #ffffff; stroke-width: 0.9; stroke-linecap: square"/>
     </g>
     <g id="line2d_24">
      <g>
       <use xlink:href="#mea6a8570be" x="59.527559" y="13.786289" style="stroke: #000000; stroke-width: 0.4"/>
      </g>
     </g>
     <g id="text_8">
      <text style="font-size: 8px; font-family: 'DejaVu Sans', 'Bitstream Vera Sans', 'Computer Modern Sans Serif', 'Lucida Grande', 'Verdana', 'Geneva', 'Lucid', 'Arial', 'Helvetica', 'Avant Garde', sans-serif; text-anchor: end" x="54.027559" y="16.825664" transform="rotate(-0 54.027559 16.825664)">0</text>
     </g>
    </g>
    <g id="ytick_3">
     <g id="line2d_25">
      <path d="M 59.527559 4.796166 
L 208.346457 4.796166 
" clip-path="url(#pebaec455c2)" style="fill: none; stroke: #ffffff; stroke-width: 0.9; stroke-linecap: square"/>
     </g>
     <g id="line2d_26">
      <g>
       <use xlink:href="#mea6a8570be" x="59.527559" y="4.796166" style="stroke: #000000; stroke-width: 0.4"/>
      </g>
     </g>
     <g id="text_9">
      <text style="font-size: 8px; font-family: 'DejaVu Sans', 'Bitstream Vera Sans', 'Computer Modern Sans Serif', 'Lucida Grande', 'Verdana', 'Geneva', 'Lucid', 'Arial', 'Helvetica', 'Avant Garde', sans-serif; text-anchor: end" x="54.027559" y="7.835541" transform="rotate(-0 54.027559 7.835541)">2</text>
     </g>
    </g>
    <g id="ytick_4">
     <g id="line2d_27">
      <path d="M 59.527559 27.271475 
L 208.346457 27.271475 
" clip-path="url(#pebaec455c2)" style="fill: none; stroke: #ffffff; stroke-opacity: 0.9; stroke-width: 0.55; stroke-linecap: square"/>
     </g>
     <g id="line2d_28">
      <defs>
       <path id="m0811ec3de6" d="M 0 0 
L -2 0 
" style="stroke: #000000; stroke-width: 0.6"/>
      </defs>
      <g>
       <use xlink:href="#m0811ec3de6" x="59.527559" y="27.271475" style="stroke: #000000; stroke-width: 0.6"/>
      </g>
     </g>
    </g>
    <g id="ytick_5">
     <g id="line2d_29">
      <path d="M 59.527559 18.281351 
L 208.346457 18.281351 
" clip-path="url(#pebaec455c2)" style="fill: none; stroke: #ffffff; stroke-opacity: 0.9; stroke-width: 0.55; stroke-linecap: square"/>
     </g>
     <g id="line2d_30">
      <g>
       <use xlink:href="#m0811ec3de6" x="59.527559" y="18.281351" style="stroke: #000000; stroke-width: 0.6"/>
      </g>
     </g>
    </g>
    <g id="ytick_6">
     <g id="line2d_31">
      <path d="M 59.527559 9.291227 
L 208.346457 9.291227 
" clip-path="url(#pebaec455c2)" style="fill: none; stroke: #ffffff; stroke-opacity: 0.9; stroke-width: 0.55; stroke-linecap: square"/>
     </g>
     <g id="line2d_32">
      <g>
       <use xlink:href="#m0811ec3de6" x="59.527559" y="9.291227" style="stroke: #000000; stroke-width: 0.6"/>
      </g>
     </g>
    </g>
    <g id="text_10">
     <text style="font-size: 8px; font-family: 'DejaVu Sans', 'Bitstream Vera Sans', 'Computer Modern Sans Serif', 'Lucida Grande', 'Verdana', 'Geneva', 'Lucid', 'Arial', 'Helvetica', 'Avant Garde', sans-serif; text-anchor: middle" x="36.347559" y="17.007874" transform="rotate(-90 36.347559 17.007874)">left_elbow_dx</text>
    </g>
   </g>
   <g id="line2d_33">
    <path d="M 60.264286 12.90609 
L 60.317244 13.178451 
L 60.352549 12.977249 
L 60.493769 12.776047 
L 60.670294 9.419482 
L 60.846819 9.316388 
L 61.199869 10.064758 
L 61.235174 9.990636 
L 61.376394 9.553052 
L 61.411699 9.553052 
L 61.499962 9.904003 
L 61.729444 11.479475 
L 61.853012 11.479475 
L 61.994231 10.818678 
L 62.082494 10.818678 
L 62.206061 11.088452 
L 62.347282 11.226538 
L 62.523806 13.939708 
L 62.647374 13.939708 
L 62.876857 13.085798 
L 63.053382 13.058238 
L 63.176949 13.643878 
L 63.406432 14.147682 
L 63.618262 14.05804 
L 63.794787 13.834545 
L 64.147837 11.145643 
L 64.324362 11.170006 
L 65.08342 11.283164 
L 65.259945 11.608718 
L 65.348207 12.096814 
L 65.471775 12.846595 
L 65.524732 12.846595 
L 65.78952 10.547399 
L 66.00135 11.113191 
L 66.177875 11.139529 
L 66.407357 10.866181 
L 66.442662 10.930144 
L 66.972237 11.059293 
L 67.148762 10.951966 
L 67.590075 10.564518 
L 67.854863 13.388213 
L 67.90782 13.437691 
L 68.11965 16.397214 
L 68.207913 16.397214 
L 68.437395 13.924564 
L 68.4727 13.913652 
L 68.649225 13.64322 
L 69.002275 13.660621 
L 69.1788 13.744714 
L 69.214105 13.744714 
L 69.390631 11.588306 
L 69.620113 7.15697 
L 69.655418 7.15697 
L 69.831943 9.434438 
L 70.09673 9.47291 
L 70.273256 10.003805 
L 70.449781 10.796855 
L 70.538043 10.796855 
L 70.714568 10.201809 
L 70.802831 10.201809 
L 70.979356 10.820559 
L 71.385363 10.788484 
L 71.561888 10.079526 
L 71.685456 10.079526 
L 71.826676 10.698464 
L 71.950243 10.698464 
L 72.091463 10.203408 
L 72.215031 10.263985 
L 72.303294 10.580885 
L 72.479818 12.246375 
L 72.621039 12.377688 
L 72.744606 12.662606 
L 72.974088 12.664206 
L 73.238876 13.858437 
L 73.274181 13.858437 
L 73.450706 12.467895 
L 73.538968 11.802866 
L 73.715494 7.98078 
L 73.944976 7.589381 
L 74.068543 7.249811 
L 74.121501 7.249811 
L 74.421594 8.967789 
L 74.509856 9.001181 
L 74.774644 12.144128 
L 74.862906 12.144128 
L 74.915864 11.914613 
L 74.951169 12.076402 
L 75.480744 12.09164 
L 75.710226 13.226518 
L 75.886751 13.242885 
L 76.063277 13.086457 
L 76.186844 13.155688 
L 76.275107 13.142989 
L 76.451631 10.237365 
L 76.592852 10.865052 
L 76.716419 11.839456 
L 76.857639 11.839456 
L 76.981206 12.388788 
L 77.157732 12.926267 
L 77.475477 16.331181 
L 77.652002 16.722862 
L 77.687307 16.722862 
L 77.775569 15.705093 
L 78.252187 12.122776 
L 78.393407 11.801643 
L 78.516974 11.71849 
L 78.693499 11.796939 
L 79.011245 12.009711 
L 79.134812 12.192195 
L 79.18777 12.192195 
L 79.3996 11.67729 
L 79.805607 11.712282 
L 79.893869 11.83654 
L 80.24692 20.951114 
L 80.423445 25.804608 
L 80.45875 25.804608 
L 80.8118 22.350122 
L 80.988325 14.662869 
L 81.129545 14.662869 
L 81.16485 14.377668 
L 81.217807 14.721847 
L 81.30607 14.721847 
L 81.5179 13.609168 
L 81.606162 13.402135 
L 81.782688 12.770403 
L 81.959212 12.827688 
L 82.100433 13.022682 
L 82.224 13.182026 
L 82.312263 13.182026 
L 82.488787 12.781597 
L 82.841838 12.70042 
L 82.983058 12.544275 
L 83.018363 12.544275 
L 83.28315 13.00735 
L 83.42437 14.488193 
L 83.459675 14.488193 
L 83.724463 12.39556 
L 83.812725 12.39556 
L 83.98925 13.490366 
L 84.165776 14.106483 
L 84.395258 14.272317 
L 84.430563 14.149094 
L 84.571783 13.501278 
L 84.695351 13.57286 
L 84.836571 14.63211 
L 85.013096 14.866046 
L 85.136663 15.653076 
L 85.18962 15.875913 
L 85.224926 15.653076 
L 85.313188 15.605668 
L 85.630933 14.717144 
L 85.719196 14.637566 
L 85.842763 14.359326 
L 86.160508 14.209482 
L 86.284076 13.689028 
L 86.637126 13.384074 
L 86.725388 13.297253 
L 86.760694 13.268752 
L 86.937218 12.189467 
L 87.025481 12.189467 
L 87.290269 13.428002 
L 87.431488 12.713119 
L 87.466793 12.713119 
L 87.643319 13.812534 
L 87.819844 17.404917 
L 87.996368 17.412536 
L 88.314113 12.891275 
L 88.349419 12.908113 
L 88.967256 16.855021 
L 89.108476 20.711252 
L 89.143781 20.711252 
L 89.496831 17.648729 
L 89.673357 17.225443 
L 89.938144 17.163455 
L 90.114669 14.654215 
L 90.167626 14.654215 
L 90.291194 15.272119 
L 90.379456 15.430428 
L 90.467719 15.323666 
L 90.697201 15.154445 
L 90.732507 15.191412 
L 90.785464 15.191412 
L 90.997294 17.278025 
L 91.085557 17.510832 
L 91.262082 19.580702 
L 91.403302 20.10473 
L 91.438606 20.10473 
L 91.579827 17.531526 
L 91.668089 17.068545 
L 91.703394 17.335968 
L 92.144707 22.940841 
L 92.37419 22.797958 
L 92.409494 22.862486 
L 92.58602 23.073941 
L 92.815502 23.137904 
L 92.992027 23.879784 
L 93.080289 23.879784 
L 93.345077 23.106864 
L 93.609864 23.638229 
L 93.698127 23.638229 
L 93.874652 22.330745 
L 94.086482 19.063916 
L 94.139439 18.903726 
L 94.315965 15.589207 
L 94.35127 15.589207 
L 94.404227 15.261207 
L 94.49249 15.276728 
L 94.580752 15.4166 
L 94.616057 15.365806 
L 94.757277 14.966506 
L 95.145632 8.908811 
L 95.375115 11.325493 
L 95.41042 11.325493 
L 95.62225 12.278545 
L 95.710513 12.249009 
L 95.851732 11.383624 
L 95.939995 11.386352 
L 96.11652 11.694881 
L 96.151825 11.710025 
L 96.293045 11.856482 
L 96.381308 11.780572 
L 96.646095 10.725367 
L 96.6814 10.689059 
L 96.769663 10.244514 
L 97.087408 5.896989 
L 97.3875 5.947031 
L 97.475763 6.008454 
L 97.52872 5.947031 
L 97.564025 5.713189 
L 97.616983 5.911098 
L 97.652288 5.911098 
L 97.793508 5.476995 
L 97.917075 5.613292 
L 98.358388 8.282818 
L 98.534913 11.49904 
L 98.58787 11.841055 
L 98.623176 11.507882 
L 98.887963 11.572315 
L 99.152751 13.819495 
L 99.293971 13.819495 
L 99.329275 13.413516 
L 99.505801 9.938148 
L 99.682326 9.98123 
L 99.947113 14.392718 
L 100.300163 14.490827 
L 100.741476 14.505124 
L 101.059221 14.375505 
L 101.147483 14.35434 
L 101.359313 9.989601 
L 101.624101 10.032682 
L 101.853584 9.642789 
L 102.030108 9.694242 
L 102.153676 9.597074 
L 102.647946 8.042297 
L 102.771513 7.940238 
L 102.859776 7.738754 
L 103.000996 7.629828 
L 103.036301 7.629828 
L 103.301089 9.627175 
L 103.442309 12.294347 
L 103.477614 12.294347 
L 103.618834 11.377322 
L 103.742401 11.463766 
L 103.883621 12.125598 
L 103.918927 12.125598 
L 104.007189 11.943303 
L 104.236672 10.286467 
L 104.271976 10.286467 
L 104.483806 10.662626 
L 104.925119 10.748883 
L 105.101644 11.220329 
L 105.419389 11.361707 
L 105.542957 11.066912 
L 106.160794 10.693197 
L 106.425582 10.76318 
L 106.866894 11.226162 
L 106.919852 11.226162 
L 107.04342 10.996646 
L 107.096377 10.996646 
L 107.219944 11.302353 
L 107.749519 11.225503 
L 108.367357 10.889037 
L 108.896932 11.042173 
L 109.214677 11.111686 
L 109.479465 11.345152 
L 110.36209 11.267738 
L 110.538615 11.231335 
L 110.838708 11.160976 
L 110.979927 10.883582 
L 111.06819 10.860725 
L 111.244715 10.650398 
L 111.28002 10.650398 
L 111.544808 9.956868 
L 111.63307 10.217235 
L 111.809595 10.597064 
L 112.215603 10.660745 
L 112.33917 10.716525 
L 112.392128 10.716525 
L 112.603958 9.961665 
L 112.656916 9.961665 
L 112.83344 10.761111 
L 112.868746 10.761111 
L 113.345363 8.856605 
L 113.486583 8.040603 
L 113.663108 8.032514 
L 113.786675 7.729629 
L 113.927896 7.906281 
L 114.492776 5.553092 
L 114.934088 5.905925 
L 115.287138 5.777527 
L 115.516621 5.684781 
L 115.640188 6.255935 
L 115.904976 6.302121 
L 116.134458 6.432588 
L 116.222721 6.354326 
L 116.399246 6.180966 
L 116.664034 6.087561 
L 116.752296 6.188491 
L 116.964126 6.188491 
L 117.105346 6.072135 
L 117.228913 5.970359 
L 117.370134 5.953239 
L 117.634921 5.020975 
L 117.758489 5.303071 
L 117.899709 5.373807 
L 117.987971 5.303071 
L 118.023276 5.499005 
L 118.199801 5.560335 
L 118.341021 5.597021 
L 118.605809 6.325918 
L 118.782334 6.246341 
L 118.905902 6.197333 
L 119.047121 6.130924 
L 119.170689 6.060094 
L 119.223647 6.060094 
L 119.347214 6.360534 
L 119.753222 6.41622 
L 119.929746 6.65326 
L 120.053314 6.649215 
L 120.229839 6.243895 
L 120.547584 6.274748 
L 120.671152 6.080319 
L 120.759414 6.096874 
L 120.935939 6.291774 
L 121.165422 6.214735 
L 121.28899 6.471247 
L 121.341947 6.471247 
L 121.553777 5.708203 
L 122.965977 5.761537 
L 123.40729 6.538784 
L 124.378177 6.524393 
L 124.554702 6.560043 
L 124.854795 12.114592 
L 124.943058 11.77982 
L 125.084278 10.471489 
L 125.119582 10.471489 
L 125.260803 12.428482 
L 125.296108 12.464226 
L 125.349065 12.774354 
L 125.38437 12.464226 
L 125.472633 12.428482 
L 125.913945 10.380436 
L 126.09047 10.444493 
L 126.23169 10.72405 
L 126.44352 10.926099 
L 126.496478 10.921584 
L 126.620045 10.731011 
L 126.973095 10.737689 
L 127.14962 10.282704 
L 127.237883 10.282704 
L 127.414408 11.542121 
L 127.50267 11.480698 
L 127.767458 10.855834 
L 127.855721 10.855834 
L 128.085203 13.083541 
L 128.261728 14.631546 
L 128.297033 14.631546 
L 128.473558 13.815826 
L 128.650083 14.543126 
L 128.738346 14.543126 
L 128.914871 14.092373 
L 129.091396 14.175902 
L 129.267921 14.909221 
L 129.444446 16.657581 
L 129.497403 16.657581 
L 129.620971 16.250756 
L 129.885758 15.933292 
L 130.062283 14.700777 
L 130.150546 14.725703 
L 130.380028 14.993408 
L 130.891951 15.000839 
L 130.944908 15.116161 
L 131.068476 17.111626 
L 131.333264 17.665661 
L 131.421526 17.554102 
L 131.686313 14.674721 
L 131.739271 14.674721 
L 131.862839 13.437408 
L 131.951101 13.378148 
L 132.092321 12.58792 
L 132.215889 10.895434 
L 132.357109 8.062239 
L 133.063209 17.833564 
L 133.098514 17.48139 
L 133.239734 14.899533 
L 133.363302 14.667572 
L 133.857571 9.104463 
L 133.945834 8.803553 
L 133.981139 8.987072 
L 134.122359 9.603094 
L 134.298884 10.895999 
L 134.334189 10.895999 
L 134.775502 8.130152 
L 134.952027 8.210953 
L 135.216814 6.719763 
L 135.446297 6.688063 
L 135.569864 6.741021 
L 135.658127 7.042213 
L 135.834652 7.631898 
L 135.887609 7.65071 
L 136.064135 8.06111 
L 136.187702 8.055654 
L 136.629015 5.501264 
L 136.717277 5.501264 
L 136.858497 4.638511 
L 136.893802 4.638511 
L 137.035022 5.385282 
L 137.070327 6.014285 
L 137.246852 10.470925 
L 137.388072 10.869472 
L 137.423377 10.869472 
L 137.511639 12.342414 
L 137.65286 13.863328 
L 137.741122 13.863328 
L 137.776427 13.713109 
L 137.917647 12.289927 
L 138.00591 12.322285 
L 138.094172 12.799375 
L 138.270697 14.439656 
L 138.394265 14.643962 
L 138.57079 14.565419 
L 138.71201 13.912429 
L 138.888535 13.502312 
L 139.012102 12.795989 
L 139.153322 11.305363 
L 139.188628 11.305363 
L 139.41811 14.371178 
L 139.541678 14.284639 
L 139.718203 10.85414 
L 139.806465 10.918855 
L 139.930033 11.340355 
L 140.071253 11.722723 
L 140.247778 11.722723 
L 140.33604 11.549176 
L 140.512565 12.961635 
L 140.636133 13.755814 
L 140.68909 13.755814 
L 140.865615 12.85365 
L 140.90092 12.772096 
L 140.953878 12.85365 
L 141.04214 12.909806 
L 141.165708 13.219651 
L 141.218665 13.219651 
L 141.342233 11.54024 
L 141.39519 11.54024 
L 141.518758 13.382757 
L 141.60702 13.382757 
L 141.96007 10.311958 
L 142.048333 10.311958 
L 142.189553 11.556137 
L 142.366078 13.639269 
L 142.630866 15.105438 
L 142.754433 15.273906 
L 142.842696 15.217374 
L 142.895653 15.273059 
L 143.107483 15.273059 
L 143.248703 14.192363 
L 143.425228 14.24692 
L 143.601753 14.996418 
L 143.901846 15.791726 
L 143.954803 15.791726 
L 144.131328 16.839406 
L 144.307853 22.008012 
L 144.343158 22.008012 
L 144.607946 14.752417 
L 144.872733 13.182966 
L 145.013954 13.52564 
L 145.102216 13.471553 
L 145.225784 13.214289 
L 145.314046 13.214289 
L 145.455266 13.392822 
L 145.631791 13.411635 
L 145.755359 14.115325 
L 145.896579 14.245415 
L 145.931883 14.245415 
L 146.161366 13.163307 
L 146.284934 13.766913 
L 146.373196 13.855333 
L 146.690941 14.159817 
L 146.902771 14.159817 
L 147.167559 13.545675 
L 147.308779 13.545675 
L 147.432346 14.096418 
L 147.573566 14.163297 
L 147.661829 13.855803 
L 147.785396 12.944327 
L 147.838354 12.944327 
L 148.050184 14.387262 
L 148.103141 14.387262 
L 148.226709 14.81591 
L 148.367929 13.711792 
L 148.526801 13.088433 
L 148.668022 13.070842 
L 149.550647 10.45738 
L 149.638909 10.45738 
L 149.939002 16.986616 
L 149.991959 16.613654 
L 150.080222 16.613654 
L 156.911741 16.220656 
L 157.05296 16.767354 
L 157.088266 16.767354 
L 157.26479 14.628348 
L 157.47662 14.172515 
L 157.564883 14.289813 
L 157.741408 14.332706 
L 157.917933 13.699658 
L 158.270983 13.598257 
L 158.359246 14.076382 
L 158.500466 15.070258 
L 158.765253 15.926331 
L 158.888821 17.402095 
L 159.065346 23.323209 
L 159.153609 23.323209 
L 159.330133 18.844748 
L 159.506658 16.557028 
L 159.859708 15.394684 
L 160.212759 16.140232 
L 160.265716 16.102324 
L 160.442241 16.15246 
L 160.565809 16.387525 
L 160.742334 17.975224 
L 160.883554 17.975224 
L 161.236604 16.014657 
L 161.360171 15.130083 
L 161.448434 15.130083 
L 161.624959 15.585821 
L 161.713221 15.70895 
L 161.942704 21.57579 
L 162.066272 24.812895 
L 162.154534 24.812895 
L 162.384017 19.46679 
L 162.507584 19.516926 
L 162.860634 25.714589 
L 162.913592 25.706781 
L 163.037159 25.506896 
L 163.478472 14.889092 
L 163.654997 14.94901 
L 163.707954 15.017582 
L 163.796217 16.712138 
L 164.096309 23.355756 
L 164.237529 24.153698 
L 164.449359 25.370786 
L 164.502317 25.370786 
L 164.590579 24.891908 
L 164.625884 25.085021 
L 164.802409 26.110783 
L 164.943629 26.100155 
L 165.067197 19.379876 
L 165.243722 14.886364 
L 165.29668 14.752417 
L 165.384942 13.945352 
L 165.420247 14.337691 
L 165.473204 14.337691 
L 165.561467 13.945352 
L 165.773297 15.806306 
L 165.86156 16.154435 
L 166.091042 16.720228 
L 166.249915 15.261396 
L 166.302872 15.23882 
L 166.338177 15.09114 
L 166.391135 15.23882 
L 166.479397 15.261396 
L 166.56766 17.359766 
L 166.744185 23.681875 
L 166.77949 23.681875 
L 166.92071 20.392847 
L 166.956015 20.392847 
L 167.097235 21.256068 
L 167.185497 21.256068 
L 167.362023 14.414541 
L 167.573853 14.52469 
L 167.662115 14.605114 
L 167.715072 14.769349 
L 167.83864 19.984141 
L 167.926902 19.984141 
L 168.068122 19.627828 
L 168.19169 17.01333 
L 168.279952 16.607069 
L 168.597697 12.924197 
L 168.809527 26.513659 
L 168.950748 26.513659 
L 169.162578 22.880077 
L 169.25084 23.807919 
L 169.515628 27.797815 
L 169.656848 25.97251 
L 170.009898 15.681578 
L 170.045203 15.681578 
L 170.186423 16.459766 
L 170.30999 16.452711 
L 170.45121 16.214542 
L 170.627735 16.132989 
L 170.66304 16.189897 
L 170.751303 16.374638 
L 170.892523 18.349033 
L 171.104353 23.097834 
L 171.245573 23.097834 
L 171.422098 21.218067 
L 171.545666 21.111492 
L 171.598623 21.111492 
L 171.810453 19.499337 
L 171.863411 19.525674 
L 171.898716 19.843704 
L 172.128198 29.377237 
L 172.216461 29.377237 
L 172.340028 24.178342 
L 172.516553 16.789082 
L 172.834298 12.885725 
L 172.869603 12.824772 
L 173.046128 12.038682 
L 173.363873 11.883007 
L 173.540398 12.579548 
L 173.575703 12.641536 
L 174.105278 24.850051 
L 174.423023 21.98365 
L 174.546591 19.121295 
L 174.811379 17.557205 
L 174.864336 17.184808 
L 175.076166 13.087586 
L 175.111471 13.087586 
L 175.287996 15.231483 
L 175.340954 15.231483 
L 175.464521 14.938851 
L 175.552784 14.858991 
L 175.694004 14.597118 
L 175.729309 14.597118 
L 175.870529 14.968387 
L 176.082359 14.978076 
L 176.223579 15.111928 
L 176.258884 15.111928 
L 176.400104 14.909974 
L 176.611934 14.80293 
L 176.788459 13.994735 
L 176.964984 14.080145 
L 177.141509 14.166119 
L 177.229771 14.277208 
L 177.370992 15.207873 
L 177.547516 15.221889 
L 177.812304 16.639709 
L 177.847609 16.629268 
L 177.988829 16.384609 
L 178.024134 16.407278 
L 178.341879 17.625496 
L 178.377184 17.506129 
L 178.518404 15.752125 
L 178.553709 15.752125 
L 178.783192 17.445082 
L 178.871454 17.445082 
L 179.348072 14.361583 
L 179.436335 14.655814 
L 179.930604 15.496366 
L 180.10713 18.629154 
L 180.195392 18.629154 
L 180.407222 23.596276 
L 180.583747 22.497708 
L 180.636705 22.488584 
L 180.760272 21.874254 
L 180.848535 22.472781 
L 180.989755 25.506331 
L 181.02506 25.506331 
L 181.289847 15.420645 
L 181.431067 14.231399 
L 181.466372 14.231399 
L 181.642897 12.758175 
L 182.048905 12.742843 
L 182.137168 12.931534 
L 182.22543 12.742843 
L 182.57848 14.052584 
L 182.666743 14.689018 
L 182.843267 18.016424 
L 182.966835 18.132781 
L 183.108055 17.809484 
L 183.196318 17.455805 
L 183.408148 14.9064 
L 183.584672 15.123686 
L 183.672935 15.123686 
L 183.84946 14.795781 
L 184.06129 14.866046 
L 184.326078 14.991715 
L 184.467298 14.887211 
L 184.679128 14.469286 
L 184.76739 14.469286 
L 184.90861 15.25547 
L 184.996873 15.155386 
L 185.12044 15.089165 
L 185.296965 14.881379 
L 185.473491 14.794746 
L 185.914803 14.897181 
L 186.17959 14.866516 
L 186.409073 14.228295 
L 186.620903 14.31869 
L 186.885691 14.125766 
L 186.973953 14.216725 
L 187.150478 14.851749 
L 187.291698 14.749313 
L 187.468223 14.610852 
L 187.591791 14.31013 
L 187.644749 14.31013 
L 187.768316 14.455929 
L 187.997798 14.382465 
L 188.121366 14.989834 
L 188.386154 14.938193 
L 188.474416 14.876864 
L 188.703899 13.402887 
L 189.003991 14.868868 
L 189.233474 13.318324 
L 189.357041 13.291798 
L 189.586524 13.022023 
L 189.674786 13.114958 
L 189.939574 14.717426 
L 189.974879 14.746491 
L 190.116099 15.013632 
L 190.151404 15.013632 
L 190.292624 14.476153 
L 190.327929 14.476153 
L 190.504454 16.066486 
L 190.592716 15.974774 
L 190.769242 14.860685 
L 190.998724 14.806974 
L 191.175249 13.503723 
L 191.210554 13.503723 
L 191.387079 14.043554 
L 191.475341 14.043554 
L 191.563604 13.378337 
L 191.740129 11.952708 
L 191.916654 11.911791 
L 192.057874 12.188526 
L 192.410924 16.959243 
L 192.534492 16.959243 
L 192.711017 15.238068 
L 192.799279 15.238068 
L 192.922847 16.352157 
L 192.975804 16.379906 
L 193.099372 16.952941 
L 193.152329 16.952941 
L 193.275897 16.516016 
L 193.452422 16.587222 
L 193.593642 16.63717 
L 193.717209 16.587222 
L 193.893735 15.360821 
L 194.034954 15.375777 
L 194.246784 16.857372 
L 194.335047 16.857372 
L 194.599834 14.835381 
L 194.652792 14.79738 
L 194.77636 14.486594 
L 194.829317 14.486594 
L 194.952885 16.837713 
L 195.041147 16.837713 
L 195.182367 16.440671 
L 195.27063 16.445374 
L 195.570722 15.303912 
L 195.658985 15.40456 
L 195.747247 16.103359 
L 196.012035 14.927752 
L 196.153255 14.81243 
L 196.418042 15.801415 
L 196.506305 15.342949 
L 196.718135 14.435423 
L 196.89466 14.261782 
L 197.24771 13.935945 
L 197.335973 14.309754 
L 197.512497 17.796785 
L 197.653718 23.320294 
L 197.777285 24.783641 
L 197.95381 25.304848 
L 198.30686 25.810909 
L 198.395123 25.810909 
L 198.44808 25.529096 
L 198.571648 20.775592 
L 198.80113 20.20773 
L 198.924698 19.862516 
L 199.101223 20.593954 
L 199.15418 20.593954 
L 199.542535 16.438601 
L 199.719061 16.485351 
L 199.807323 16.714866 
L 199.948543 17.567647 
L 199.983848 17.567647 
L 200.125068 16.551007 
L 200.160373 16.551007 
L 200.566381 14.129434 
L 200.689948 11.589999 
L 200.831168 11.589999 
L 200.919431 12.412492 
L 201.042998 13.925316 
L 201.095956 13.925316 
L 201.131261 14.14138 
L 201.184218 13.925316 
L 201.272481 13.925316 
L 201.784403 16.393827 
L 201.837361 16.393827 
L 202.049191 17.768849 
L 202.102149 17.768849 
L 202.313979 18.476959 
L 202.455198 18.773824 
L 202.808248 19.156098 
L 202.984773 18.388916 
L 203.073036 18.466236 
L 203.461391 18.49803 
L 203.637916 18.740432 
L 203.690874 18.740432 
L 203.814441 18.330503 
L 203.955661 18.181788 
L 203.990966 18.245187 
L 204.079229 18.257133 
L 204.255754 18.605639 
L 204.308711 18.605639 
L 204.396974 18.758398 
L 204.520541 18.387129 
L 204.573499 18.764511 
L 204.608804 18.397194 
L 204.661761 18.387129 
L 204.697066 18.232112 
L 204.750024 18.387129 
L 204.785329 18.397194 
L 204.873591 18.657562 
L 205.014812 20.349483 
L 205.226642 20.349483 
L 205.367861 19.124117 
L 205.491429 15.396847 
L 205.579691 15.396847 
L 205.667954 15.553745 
L 205.932741 19.803068 
L 206.021004 19.803068 
L 206.197529 19.154123 
L 206.338749 19.280733 
L 206.550579 20.536482 
L 206.638842 20.450884 
L 206.815367 20.081966 
L 206.991892 20.056005 
L 207.256679 20.22419 
L 207.344942 20.959485 
L 207.433204 20.93945 
L 207.521467 20.93945 
L 207.609729 17.082373 
L 207.609729 17.082373 
" clip-path="url(#pebaec455c2)" style="fill: none; stroke: #5c80b5; stroke-width: 0.5; stroke-linecap: square"/>
   </g>
   <g id="patch_3">
    <path d="M 59.527559 30.614173 
L 59.527559 3.401575 
" style="fill: none; stroke: #000000; stroke-width: 0.4; stroke-linejoin: miter; stroke-linecap: square"/>
   </g>
   <g id="patch_4">
    <path d="M 208.346457 30.614173 
L 208.346457 3.401575 
" style="fill: none; stroke: #000000; stroke-width: 0.4; stroke-linejoin: miter; stroke-linecap: square"/>
   </g>
   <g id="patch_5">
    <path d="M 59.527559 30.614173 
L 208.346457 30.614173 
" style="fill: none; stroke: #000000; stroke-width: 0.4; stroke-linejoin: miter; stroke-linecap: square"/>
   </g>
   <g id="patch_6">
    <path d="M 59.527559 3.401575 
L 208.346457 3.401575 
" style="fill: none; stroke: #000000; stroke-width: 0.4; stroke-linejoin: miter; stroke-linecap: square"/>
   </g>
  </g>
 </g>
 <defs>
  <clipPath id="pebaec455c2">
   <rect x="59.527559" y="3.401575" width="148.818898" height="27.212598"/>
  </clipPath>
 </defs>
</svg>
