<?xml version="1.0" encoding="utf-8" standalone="no"?>
<!DOCTYPE svg PUBLIC "-//W3C//DTD SVG 1.1//EN"
  "http://www.w3.org/Graphics/SVG/1.1/DTD/svg11.dtd">
<svg xmlns:xlink="http://www.w3.org/1999/xlink" width="212.598425pt" height="42.519685pt" viewBox="0 0 212.598425 42.519685" xmlns="http://www.w3.org/2000/svg" version="1.1">
 <metadata>
  <rdf:RDF xmlns:dc="http://purl.org/dc/elements/1.1/" xmlns:cc="http://creativecommons.org/ns#" xmlns:rdf="http://www.w3.org/1999/02/22-rdf-syntax-ns#">
   <cc:Work>
    <dc:type rdf:resource="http://purl.org/dc/dcmitype/StillImage"/>
    <dc:date>2026-06-01T17:59:23.567382</dc:date>
    <dc:format>image/svg+xml</dc:format>
    <dc:creator>
     <cc:Agent>
      <dc:title>Matplotlib v3.10.8, https://matplotlib.org/</dc:title>
     </cc:Agent>
    </dc:creator>
   </cc:Work>
  </rdf:RDF>
 </metadata>
 <defs>
  <style type="text/css">*{stroke-linejoin: round; stroke-linecap: butt}</style>
 </defs>
 <g id="figure_1">
  <g id="patch_1">
   <path d="M 0 42.519685 
L 212.598425 42.519685 
L 212.598425 0 
L 0 0 
z
" style="fill: #ffffff"/>
  </g>
  <g id="axes_1">
   <g id="patch_2">
    <path d="M 59.527559 30.614173 
L 208.346457 30.614173 
L 208.346457 3.401575 
L 59.527559 3.401575 
z
" style="fill: #eaeaf2"/>
   </g>
   <g id="matplotlib.axis_1">
    <g id="xtick_1">
     <g id="line2d_1">
      <path d="M 60.264286 30.614173 
L 60.264286 3.401575 
" clip-path="url(#pa371290b6e)" style="fill: none; stroke: #ffffff; stroke-width: 0.9; stroke-linecap: square"/>
     </g>
     <g id="line2d_2">
      <defs>
       <path id="mb10f5f26f6" d="M 0 0 
L 0 2 
" style="stroke: #000000; stroke-width: 0.4"/>
      </defs>
      <g>
       <use xlink:href="#mb10f5f26f6" x="60.264286" y="30.614173" style="stroke: #000000; stroke-width: 0.4"/>
      </g>
     </g>
     <g id="text_1">
      <text style="font-size: 8px; font-family: 'DejaVu Sans', 'Bitstream Vera Sans', 'Computer Modern Sans Serif', 'Lucida Grande', 'Verdana', 'Geneva', 'Lucid', 'Arial', 'Helvetica', 'Avant Garde', sans-serif; text-anchor: middle" x="60.264286" y="42.192923" transform="rotate(-0 60.264286 42.192923)">0</text>
     </g>
    </g>
    <g id="xtick_2">
     <g id="line2d_3">
      <path d="M 92.007049 30.614173 
L 92.007049 3.401575 
" clip-path="url(#pa371290b6e)" style="fill: none; stroke: #ffffff; stroke-width: 0.9; stroke-linecap: square"/>
     </g>
     <g id="line2d_4">
      <g>
       <use xlink:href="#mb10f5f26f6" x="92.007049" y="30.614173" style="stroke: #000000; stroke-width: 0.4"/>
      </g>
     </g>
     <g id="text_2">
      <text style="font-size: 8px; font-family: 'DejaVu Sans', 'Bitstream Vera Sans', 'Computer Modern Sans Serif', 'Lucida Grande', 'Verdana', 'Geneva', 'Lucid', 'Arial', 'Helvetica', 'Avant Garde', sans-serif; text-anchor: middle" x="92.007049" y="42.192923" transform="rotate(-0 92.007049 42.192923)">60</text>
     </g>
    </g>
    <g id="xtick_3">
     <g id="line2d_5">
      <path d="M 123.749812 30.614173 
L 123.749812 3.401575 
" clip-path="url(#pa371290b6e)" style="fill: none; stroke: #ffffff; stroke-width: 0.9; stroke-linecap: square"/>
     </g>
     <g id="line2d_6">
      <g>
       <use xlink:href="#mb10f5f26f6" x="123.749812" y="30.614173" style="stroke: #000000; stroke-width: 0.4"/>
      </g>
     </g>
     <g id="text_3">
      <text style="font-size: 8px; font-family: 'DejaVu Sans', 'Bitstream Vera Sans', 'Computer Modern Sans Serif', 'Lucida Grande', 'Verdana', 'Geneva', 'Lucid', 'Arial', 'Helvetica', 'Avant Garde', sans-serif; text-anchor: middle" x="123.749812" y="42.192923" transform="rotate(-0 123.749812 42.192923)">120</text>
     </g>
    </g>
    <g id="xtick_4">
     <g id="line2d_7">
      <path d="M 155.492574 30.614173 
L 155.492574 3.401575 
" clip-path="url(#pa371290b6e)" style="fill: none; stroke: #ffffff; stroke-width: 0.9; stroke-linecap: square"/>
     </g>
     <g id="line2d_8">
      <g>
       <use xlink:href="#mb10f5f26f6" x="155.492574" y="30.614173" style="stroke: #000000; stroke-width: 0.4"/>
      </g>
     </g>
     <g id="text_4">
      <text style="font-size: 8px; font-family: 'DejaVu Sans', 'Bitstream Vera Sans', 'Computer Modern Sans Serif', 'Lucida Grande', 'Verdana', 'Geneva', 'Lucid', 'Arial', 'Helvetica', 'Avant Garde', sans-serif; text-anchor: middle" x="155.492574" y="42.192923" transform="rotate(-0 155.492574 42.192923)">180</text>
     </g>
    </g>
    <g id="xtick_5">
     <g id="line2d_9">
      <path d="M 187.235337 30.614173 
L 187.235337 3.401575 
" clip-path="url(#pa371290b6e)" style="fill: none; stroke: #ffffff; stroke-width: 0.9; stroke-linecap: square"/>
     </g>
     <g id="line2d_10">
      <g>
       <use xlink:href="#mb10f5f26f6" x="187.235337" y="30.614173" style="stroke: #000000; stroke-width: 0.4"/>
      </g>
     </g>
     <g id="text_5">
      <text style="font-size: 8px; font-family: 'DejaVu Sans', 'Bitstream Vera Sans', 'Computer Modern Sans Serif', 'Lucida Grande', 'Verdana', 'Geneva', 'Lucid', 'Arial', 'Helvetica', 'Avant Garde', sans-serif; text-anchor: middle" x="187.235337" y="42.192923" transform="rotate(-0 187.235337 42.192923)">240</text>
     </g>
    </g>
    <g id="xtick_6">
     <g id="line2d_11">
      <path d="M 76.135668 30.614173 
L 76.135668 3.401575 
" clip-path="url(#pa371290b6e)" style="fill: none; stroke: #ffffff; stroke-opacity: 0.9; stroke-width: 0.55; stroke-linecap: square"/>
     </g>
     <g id="line2d_12">
      <defs>
       <path id="me795a307dc" d="M 0 0 
L 0 2 
" style="stroke: #000000; stroke-width: 0.6"/>
      </defs>
      <g>
       <use xlink:href="#me795a307dc" x="76.135668" y="30.614173" style="stroke: #000000; stroke-width: 0.6"/>
      </g>
     </g>
    </g>
    <g id="xtick_7">
     <g id="line2d_13">
      <path d="M 107.87843 30.614173 
L 107.87843 3.401575 
" clip-path="url(#pa371290b6e)" style="fill: none; stroke: #ffffff; stroke-opacity: 0.9; stroke-width: 0.55; stroke-linecap: square"/>
     </g>
     <g id="line2d_14">
      <g>
       <use xlink:href="#me795a307dc" x="107.87843" y="30.614173" style="stroke: #000000; stroke-width: 0.6"/>
      </g>
     </g>
    </g>
    <g id="xtick_8">
     <g id="line2d_15">
      <path d="M 139.621193 30.614173 
L 139.621193 3.401575 
" clip-path="url(#pa371290b6e)" style="fill: none; stroke: #ffffff; stroke-opacity: 0.9; stroke-width: 0.55; stroke-linecap: square"/>
     </g>
     <g id="line2d_16">
      <g>
       <use xlink:href="#me795a307dc" x="139.621193" y="30.614173" style="stroke: #000000; stroke-width: 0.6"/>
      </g>
     </g>
    </g>
    <g id="xtick_9">
     <g id="line2d_17">
      <path d="M 171.363956 30.614173 
L 171.363956 3.401575 
" clip-path="url(#pa371290b6e)" style="fill: none; stroke: #ffffff; stroke-opacity: 0.9; stroke-width: 0.55; stroke-linecap: square"/>
     </g>
     <g id="line2d_18">
      <g>
       <use xlink:href="#me795a307dc" x="171.363956" y="30.614173" style="stroke: #000000; stroke-width: 0.6"/>
      </g>
     </g>
    </g>
    <g id="xtick_10">
     <g id="line2d_19">
      <path d="M 203.106719 30.614173 
L 203.106719 3.401575 
" clip-path="url(#pa371290b6e)" style="fill: none; stroke: #ffffff; stroke-opacity: 0.9; stroke-width: 0.55; stroke-linecap: square"/>
     </g>
     <g id="line2d_20">
      <g>
       <use xlink:href="#me795a307dc" x="203.106719" y="30.614173" style="stroke: #000000; stroke-width: 0.6"/>
      </g>
     </g>
    </g>
    <g id="text_6">
     <text style="font-size: 8px; font-family: 'DejaVu Sans', 'Bitstream Vera Sans', 'Computer Modern Sans Serif', 'Lucida Grande', 'Verdana', 'Geneva', 'Lucid', 'Arial', 'Helvetica', 'Avant Garde', sans-serif; text-anchor: middle" x="133.937008" y="53.935423" transform="rotate(-0 133.937008 53.935423)">time</text>
    </g>
   </g>
   <g id="matplotlib.axis_2">
    <g id="ytick_1">
     <g id="line2d_21">
      <path d="M 59.527559 26.743025 
L 208.346457 26.743025 
" clip-path="url(#pa371290b6e)" style="fill: none; stroke: #ffffff; stroke-width: 0.9; stroke-linecap: square"/>
     </g>
     <g id="line2d_22">
      <defs>
       <path id="m50d3e44709" d="M 0 0 
L -2 0 
" style="stroke: #000000; stroke-width: 0.4"/>
      </defs>
      <g>
       <use xlink:href="#m50d3e44709" x="59.527559" y="26.743025" style="stroke: #000000; stroke-width: 0.4"/>
      </g>
     </g>
     <g id="text_7">
      <text style="font-size: 8px; font-family: 'DejaVu Sans', 'Bitstream Vera Sans', 'Computer Modern Sans Serif', 'Lucida Grande', 'Verdana', 'Geneva', 'Lucid', 'Arial', 'Helvetica', 'Avant Garde', sans-serif; text-anchor: end" x="54.027559" y="29.7824" transform="rotate(-0 54.027559 29.7824)">−1.5</text>
     </g>
    </g>
    <g id="ytick_2">
     <g id="line2d_23">
      <path d="M 59.527559 19.6397 
L 208.346457 19.6397 
" clip-path="url(#pa371290b6e)" style="fill: none; stroke: #ffffff; stroke-width: 0.9; stroke-linecap: square"/>
     </g>
     <g id="line2d_24">
      <g>
       <use xlink:href="#m50d3e44709" x="59.527559" y="19.6397" style="stroke: #000000; stroke-width: 0.4"/>
      </g>
     </g>
     <g id="text_8">
      <text style="font-size: 8px; font-family: 'DejaVu Sans', 'Bitstream Vera Sans', 'Computer Modern Sans Serif', 'Lucida Grande', 'Verdana', 'Geneva', 'Lucid', 'Arial', 'Helvetica', 'Avant Garde', sans-serif; text-anchor: end" x="54.027559" y="22.679075" transform="rotate(-0 54.027559 22.679075)">0.0</text>
     </g>
    </g>
    <g id="ytick_3">
     <g id="line2d_25">
      <path d="M 59.527559 12.536376 
L 208.346457 12.536376 
" clip-path="url(#pa371290b6e)" style="fill: none; stroke: #ffffff; stroke-width: 0.9; stroke-linecap: square"/>
     </g>
     <g id="line2d_26">
      <g>
       <use xlink:href="#m50d3e44709" x="59.527559" y="12.536376" style="stroke: #000000; stroke-width: 0.4"/>
      </g>
     </g>
     <g id="text_9">
      <text style="font-size: 8px; font-family: 'DejaVu Sans', 'Bitstream Vera Sans', 'Computer Modern Sans Serif', 'Lucida Grande', 'Verdana', 'Geneva', 'Lucid', 'Arial', 'Helvetica', 'Avant Garde', sans-serif; text-anchor: end" x="54.027559" y="15.575751" transform="rotate(-0 54.027559 15.575751)">1.5</text>
     </g>
    </g>
    <g id="ytick_4">
     <g id="line2d_27">
      <path d="M 59.527559 5.433051 
L 208.346457 5.433051 
" clip-path="url(#pa371290b6e)" style="fill: none; stroke: #ffffff; stroke-width: 0.9; stroke-linecap: square"/>
     </g>
     <g id="line2d_28">
      <g>
       <use xlink:href="#m50d3e44709" x="59.527559" y="5.433051" style="stroke: #000000; stroke-width: 0.4"/>
      </g>
     </g>
     <g id="text_10">
      <text style="font-size: 8px; font-family: 'DejaVu Sans', 'Bitstream Vera Sans', 'Computer Modern Sans Serif', 'Lucida Grande', 'Verdana', 'Geneva', 'Lucid', 'Arial', 'Helvetica', 'Avant Garde', sans-serif; text-anchor: end" x="54.027559" y="8.472426" transform="rotate(-0 54.027559 8.472426)">3.0</text>
     </g>
    </g>
    <g id="ytick_5">
     <g id="line2d_29">
      <path d="M 59.527559 30.294687 
L 208.346457 30.294687 
" clip-path="url(#pa371290b6e)" style="fill: none; stroke: #ffffff; stroke-opacity: 0.9; stroke-width: 0.55; stroke-linecap: square"/>
     </g>
     <g id="line2d_30">
      <defs>
       <path id="m38b69d87b6" d="M 0 0 
L -2 0 
" style="stroke: #000000; stroke-width: 0.6"/>
      </defs>
      <g>
       <use xlink:href="#m38b69d87b6" x="59.527559" y="30.294687" style="stroke: #000000; stroke-width: 0.6"/>
      </g>
     </g>
    </g>
    <g id="ytick_6">
     <g id="line2d_31">
      <path d="M 59.527559 23.191363 
L 208.346457 23.191363 
" clip-path="url(#pa371290b6e)" style="fill: none; stroke: #ffffff; stroke-opacity: 0.9; stroke-width: 0.55; stroke-linecap: square"/>
     </g>
     <g id="line2d_32">
      <g>
       <use xlink:href="#m38b69d87b6" x="59.527559" y="23.191363" style="stroke: #000000; stroke-width: 0.6"/>
      </g>
     </g>
    </g>
    <g id="ytick_7">
     <g id="line2d_33">
      <path d="M 59.527559 16.088038 
L 208.346457 16.088038 
" clip-path="url(#pa371290b6e)" style="fill: none; stroke: #ffffff; stroke-opacity: 0.9; stroke-width: 0.55; stroke-linecap: square"/>
     </g>
     <g id="line2d_34">
      <g>
       <use xlink:href="#m38b69d87b6" x="59.527559" y="16.088038" style="stroke: #000000; stroke-width: 0.6"/>
      </g>
     </g>
    </g>
    <g id="ytick_8">
     <g id="line2d_35">
      <path d="M 59.527559 8.984714 
L 208.346457 8.984714 
" clip-path="url(#pa371290b6e)" style="fill: none; stroke: #ffffff; stroke-opacity: 0.9; stroke-width: 0.55; stroke-linecap: square"/>
     </g>
     <g id="line2d_36">
      <g>
       <use xlink:href="#m38b69d87b6" x="59.527559" y="8.984714" style="stroke: #000000; stroke-width: 0.6"/>
      </g>
     </g>
    </g>
    <g id="text_11">
     <text style="font-size: 8px; font-family: 'DejaVu Sans', 'Bitstream Vera Sans', 'Computer Modern Sans Serif', 'Lucida Grande', 'Verdana', 'Geneva', 'Lucid', 'Arial', 'Helvetica', 'Avant Garde', sans-serif; text-anchor: middle" x="28.715059" y="17.007874" transform="rotate(-90 28.715059 17.007874)">right_elbow_dx</text>
    </g>
   </g>
   <g id="line2d_37">
    <path d="M 60.264286 23.741592 
L 60.529074 23.345229 
L 60.705599 21.823305 
L 60.793861 21.823305 
L 61.058649 23.967085 
L 61.146911 23.967085 
L 61.288132 23.526074 
L 61.411699 22.681933 
L 61.499962 22.640491 
L 61.676486 22.129186 
L 61.764749 22.129186 
L 61.941274 22.503344 
L 62.082494 22.948985 
L 62.117799 22.948985 
L 62.470849 20.726241 
L 62.647374 20.79998 
L 62.823899 21.173307 
L 62.876857 21.173307 
L 63.053382 19.963082 
L 63.088687 19.963082 
L 63.265212 21.720711 
L 63.318169 21.790057 
L 63.441737 22.248878 
L 63.794787 22.153053 
L 63.88305 22.033717 
L 64.024269 21.814755 
L 64.059574 21.814755 
L 64.200795 21.957009 
L 64.236099 21.957009 
L 64.412625 21.57062 
L 65.118724 21.568245 
L 65.348207 21.762627 
L 65.383512 21.762627 
L 65.524732 21.606005 
L 65.78952 22.420462 
L 65.966045 22.481139 
L 66.14257 23.249047 
L 66.177875 23.249047 
L 66.319095 22.852566 
L 66.530925 22.700813 
L 66.70745 22.365127 
L 66.760407 22.361209 
L 66.936932 21.998687 
L 67.237025 21.977432 
L 67.501812 22.724205 
L 67.643033 23.642561 
L 67.678338 23.642561 
L 67.819557 18.362669 
L 68.084345 15.395646 
L 68.207913 13.416325 
L 68.26087 13.416325 
L 68.384438 14.259042 
L 68.525658 14.330287 
L 68.649225 14.826038 
L 68.737488 14.981353 
L 68.790445 14.9354 
L 68.878708 14.905001 
L 69.002275 14.775334 
L 69.125843 14.775334 
L 69.355325 18.436526 
L 69.655418 18.329064 
L 69.920206 21.814398 
L 70.273256 22.457509 
L 70.414475 22.564258 
L 70.449781 22.476033 
L 70.502738 22.564258 
L 70.538043 22.602731 
L 70.591001 22.536354 
L 70.94405 22.112324 
L 71.032313 22.148184 
L 71.067618 22.112324 
L 71.15588 22.061383 
L 71.385363 21.953446 
L 71.738413 22.072307 
L 72.003201 22.3016 
L 72.126768 22.654622 
L 72.179726 22.654622 
L 72.356251 21.550671 
L 72.568081 20.175394 
L 72.744606 15.248049 
L 72.885826 15.350999 
L 72.974088 15.892346 
L 73.009393 16.16213 
L 73.185919 18.292729 
L 73.238876 18.315884 
L 73.503664 21.186488 
L 73.538968 21.186488 
L 73.715494 20.049527 
L 73.892019 19.831159 
L 74.033239 19.528603 
L 74.068543 19.528603 
L 74.333331 20.973226 
L 74.474551 20.954702 
L 74.774644 21.98515 
L 74.827601 21.923404 
L 75.127694 19.988731 
L 75.180651 19.988731 
L 75.533702 21.572282 
L 76.010319 21.503412 
L 76.275107 20.90483 
L 76.451631 18.03387 
L 76.504589 18.038264 
L 76.681114 21.346315 
L 76.804682 21.346315 
L 76.981206 16.215089 
L 77.157732 16.215089 
L 77.298952 16.425501 
L 77.475477 15.49254 
L 77.599044 14.6256 
L 77.91679 17.510453 
L 78.040357 17.510453 
L 78.163924 16.510996 
L 78.305144 16.510996 
L 78.481669 17.351813 
L 78.658195 17.502378 
L 79.046549 17.59761 
L 79.18777 18.167218 
L 79.364294 18.323246 
L 79.487862 18.44757 
L 79.840912 18.718778 
L 79.893869 18.686955 
L 80.282225 12.724886 
L 80.423445 4.638511 
L 80.45875 4.638511 
L 80.547012 5.553542 
L 80.723537 9.375037 
L 80.8118 10.001404 
L 80.988325 17.892685 
L 81.30607 18.97075 
L 81.482595 19.005541 
L 81.747382 20.101655 
L 81.782688 20.152239 
L 81.959212 21.374813 
L 82.135738 21.583681 
L 82.188695 21.583681 
L 82.71827 20.229422 
L 82.806533 20.293662 
L 82.841838 20.409554 
L 83.07132 21.779132 
L 83.28315 21.779132 
L 83.459675 24.647955 
L 83.512633 24.647955 
L 83.600895 25.062129 
L 83.6362 24.993496 
L 83.689158 24.993496 
L 83.812725 25.41147 
L 83.953946 25.338324 
L 83.98925 24.950036 
L 84.165776 20.349233 
L 84.254038 20.413592 
L 84.395258 22.771464 
L 84.483521 22.771464 
L 84.695351 19.555795 
L 84.836571 20.307198 
L 84.960138 20.307198 
L 85.101358 19.877469 
L 85.313188 19.774519 
L 85.454408 18.636727 
L 85.542671 18.636727 
L 85.842763 21.133766 
L 86.072246 21.151696 
L 86.372338 20.227285 
L 86.425296 20.33914 
L 86.460601 20.33914 
L 86.690083 21.155615 
L 86.760694 21.177345 
L 86.990176 22.062452 
L 87.078439 22.062452 
L 87.254963 20.495524 
L 87.378531 20.495524 
L 87.466793 18.11509 
L 87.643319 15.354917 
L 87.731581 15.219669 
L 87.784538 15.264435 
L 87.996368 15.557374 
L 88.172894 21.028204 
L 88.349419 29.377237 
L 88.402376 29.377237 
L 88.614206 25.197139 
L 89.143781 15.200908 
L 89.373264 17.129289 
L 89.408569 17.097941 
L 89.673357 17.097941 
L 89.814576 16.825426 
L 89.849881 16.80049 
L 89.938144 16.264486 
L 89.991102 16.497103 
L 90.167626 18.934177 
L 90.202932 18.934177 
L 90.291194 19.299192 
L 90.432414 18.934177 
L 90.467719 18.933465 
L 90.520677 18.263044 
L 90.644244 16.268405 
L 90.697201 16.268405 
L 90.820769 16.101215 
L 90.873727 16.101215 
L 91.050252 13.803782 
L 91.138514 13.621394 
L 91.315039 13.326674 
L 91.438606 13.326674 
L 91.579827 15.040843 
L 91.615132 15.040843 
L 91.756352 13.749517 
L 91.932877 13.197483 
L 92.109402 11.722699 
L 92.285927 11.485213 
L 92.409494 11.402094 
L 92.497757 11.458852 
L 92.674282 11.552778 
L 92.939069 11.484026 
L 93.115595 11.476783 
L 93.468645 11.212343 
L 93.698127 11.280026 
L 93.733432 11.357089 
L 93.99822 13.54433 
L 94.139439 14.107882 
L 94.439532 18.974906 
L 94.580752 19.993836 
L 94.70432 20.99733 
L 94.792582 22.011037 
L 94.84554 21.350233 
L 94.880845 21.350233 
L 94.969107 22.248522 
L 95.19859 29.154476 
L 95.233895 29.154476 
L 95.41042 21.850377 
L 95.498683 21.821523 
L 95.710513 21.13994 
L 95.76347 21.13994 
L 95.939995 21.818318 
L 96.063562 22.648447 
L 96.240088 23.160109 
L 96.293045 23.160109 
L 96.416612 22.858503 
L 96.557833 22.811718 
L 96.857925 18.191085 
L 96.946187 18.191085 
L 97.122713 20.467026 
L 97.616983 20.551571 
L 97.828813 22.530536 
L 97.88177 22.544666 
L 98.005338 23.080314 
L 98.093601 23.080314 
L 98.270125 22.047372 
L 98.323083 22.047372 
L 98.58787 21.033429 
L 98.623176 21.02761 
L 98.940921 19.622291 
L 99.064488 19.565175 
L 99.152751 19.532402 
L 99.293971 19.32674 
L 99.505801 16.311746 
L 99.770588 16.407571 
L 99.911808 18.957807 
L 101.147483 18.957807 
L 101.271051 16.697066 
L 101.359313 16.697066 
L 101.535839 18.58733 
L 101.624101 18.536626 
L 101.800626 18.107016 
L 101.888888 18.08303 
L 102.030108 18.322296 
L 102.241938 18.31244 
L 102.471421 18.910428 
L 102.506726 18.689686 
L 102.559683 18.878843 
L 102.771513 18.878843 
L 102.948039 19.095073 
L 103.301089 19.003641 
L 103.442309 19.810023 
L 103.530571 19.787105 
L 103.654139 19.351676 
L 104.060146 20.276563 
L 104.236672 21.891225 
L 104.395544 22.612824 
L 104.889814 22.512606 
L 105.242864 22.264552 
L 105.631219 22.835586 
L 105.719482 22.835586 
L 105.860702 22.382701 
L 106.160794 22.272627 
L 106.390277 22.190338 
L 106.566802 22.382227 
L 107.184639 22.548703 
L 107.449427 22.44136 
L 107.749519 22.535404 
L 107.926045 22.491351 
L 108.190832 22.352303 
L 108.596839 22.461783 
L 108.80867 22.256003 
L 109.16172 22.365602 
L 109.30294 22.481139 
L 109.426507 22.604631 
L 109.744253 22.669583 
L 109.86782 22.742966 
L 110.803403 22.675758 
L 111.42124 22.030391 
L 111.686028 22.574589 
L 111.77429 22.46404 
L 111.897858 22.590975 
L 111.98612 22.606413 
L 112.12734 22.727886 
L 112.162645 22.727886 
L 112.33917 22.384007 
L 112.48039 22.430436 
L 112.69222 22.689651 
L 112.780483 22.644529 
L 112.957008 19.742458 
L 113.009965 19.742458 
L 113.133533 19.213697 
L 113.2571 18.804748 
L 113.310058 18.804748 
L 113.398321 19.932328 
L 113.574845 21.87947 
L 113.786675 22.400156 
L 113.927896 22.303381 
L 114.016158 22.250303 
L 114.192683 21.470757 
L 114.31625 21.271983 
L 114.404513 21.215698 
L 114.492776 21.316036 
L 114.669301 21.165708 
L 114.757563 21.165708 
L 114.987046 21.429198 
L 115.163571 21.120942 
L 115.516621 21.204536 
L 115.728451 21.696606 
L 115.869671 21.693638 
L 116.081501 21.131866 
L 116.222721 21.131866 
L 116.399246 21.604224 
L 116.522814 21.604224 
L 116.664034 21.295493 
L 116.699338 21.295493 
L 116.875864 21.619423 
L 116.928821 21.721067 
L 116.964126 21.619423 
L 117.370134 21.431929 
L 117.405439 21.456271 
L 117.634921 22.502987 
L 117.670226 22.502987 
L 117.846751 21.816536 
L 117.987971 21.080926 
L 118.076234 21.157158 
L 118.252759 21.297631 
L 118.341021 21.2854 
L 118.517546 20.000842 
L 118.641114 19.800998 
L 118.694072 19.824866 
L 118.870596 19.728328 
L 118.905902 19.799098 
L 118.958859 19.846714 
L 118.994164 19.799098 
L 119.047121 19.707548 
L 119.082426 19.846714 
L 119.223647 19.871294 
L 119.347214 20.367638 
L 119.400171 20.373575 
L 119.612001 20.753908 
L 119.788527 20.767326 
L 119.965052 21.112155 
L 120.053314 21.109661 
L 120.318102 19.808123 
L 120.547584 19.312135 
L 120.635847 19.424228 
L 120.671152 19.403329 
L 120.759414 19.468163 
L 120.847677 19.776538 
L 121.024202 20.920742 
L 121.077159 20.920742 
L 121.200727 20.688481 
L 121.377252 20.563564 
L 121.465514 20.033615 
L 121.606735 19.792924 
L 121.642039 19.792924 
L 121.818565 20.779913 
L 121.995089 20.785731 
L 122.118657 19.849208 
L 122.436402 19.932209 
L 122.648232 20.015329 
L 122.965977 20.007492 
L 123.177807 20.816129 
L 123.319027 20.829429 
L 123.442595 20.96907 
L 123.672077 20.621985 
L 123.883907 20.693706 
L 124.025127 20.934991 
L 124.148695 20.934991 
L 124.289915 20.578882 
L 124.554702 20.574488 
L 124.996015 15.904339 
L 125.17254 17.279854 
L 125.296108 20.631603 
L 125.560895 22.099144 
L 125.702115 23.604088 
L 125.790378 23.604088 
L 125.966902 23.188014 
L 126.266995 23.17804 
L 126.44352 22.998975 
L 126.496478 22.998975 
L 126.620045 23.36874 
L 126.79657 23.268046 
L 127.237883 22.760065 
L 127.50267 22.251372 
L 127.590933 22.290676 
L 127.767458 22.896501 
L 127.943983 22.72183 
L 128.032245 23.247742 
L 128.261728 29.143076 
L 128.297033 29.143076 
L 128.738346 24.323906 
L 128.879565 25.751549 
L 128.967828 25.751549 
L 129.056091 24.822625 
L 129.232616 22.91538 
L 129.444446 21.130204 
L 129.585666 20.037296 
L 129.797496 20.037296 
L 129.850453 20.175394 
L 130.115241 24.419375 
L 130.238809 25.195952 
L 130.291766 25.195952 
L 130.503596 23.293695 
L 130.768384 26.831988 
L 130.821341 26.831988 
L 131.033171 22.432217 
L 131.245001 22.465583 
L 131.421526 22.870852 
L 131.686313 24.83818 
L 131.739271 24.837824 
L 131.862839 22.941029 
L 132.004059 22.970595 
L 132.304151 28.443682 
L 132.392414 28.443682 
L 132.568939 22.216342 
L 132.974946 10.566857 
L 133.098514 10.371051 
L 133.186776 10.371051 
L 133.363302 13.052735 
L 133.504521 13.052735 
L 133.857571 25.048117 
L 134.122359 25.048117 
L 134.387146 18.19726 
L 134.422452 18.380718 
L 134.598976 18.997704 
L 134.651934 19.050426 
L 134.916722 21.85774 
L 135.040289 24.300395 
L 135.093247 24.320581 
L 135.181509 24.828087 
L 135.358034 26.661592 
L 135.481602 26.661592 
L 135.711084 25.167098 
L 135.834652 19.323416 
L 136.011177 19.375543 
L 136.064135 19.436696 
L 136.187702 20.056414 
L 136.240659 20.056414 
L 136.275965 19.547008 
L 136.417184 16.944288 
L 136.452489 16.944288 
L 136.717277 18.495186 
L 136.858497 18.495186 
L 136.982064 20.003811 
L 137.070327 20.439715 
L 137.423377 18.929546 
L 137.599902 16.702409 
L 137.65286 16.702409 
L 137.776427 16.164624 
L 137.86469 16.702409 
L 137.952952 16.164624 
L 138.482527 19.0718 
L 138.747315 19.568857 
L 138.92384 20.592181 
L 139.012102 20.592181 
L 139.188628 18.947595 
L 139.241585 18.947595 
L 139.365152 19.232696 
L 139.541678 19.232696 
L 139.682897 16.873042 
L 139.718203 16.873042 
L 139.84177 16.358768 
L 139.894727 16.269473 
L 140.018295 15.715657 
L 140.106557 15.788447 
L 140.247778 15.981997 
L 140.371345 15.774198 
L 140.459608 15.774198 
L 140.636133 17.954313 
L 140.777353 17.885442 
L 140.989183 17.575049 
L 141.165708 17.624565 
L 141.342233 19.78948 
L 141.430495 19.791143 
L 141.60702 20.02376 
L 141.924765 23.354254 
L 142.013028 23.354254 
L 142.224858 21.060502 
L 142.401383 18.953651 
L 142.489645 18.92159 
L 142.630866 18.748226 
L 142.666171 18.748226 
L 142.842696 17.817046 
L 142.983916 17.817046 
L 143.01922 18.041945 
L 143.195746 23.235274 
L 143.336965 23.235274 
L 143.548796 20.18145 
L 143.601753 20.18145 
L 143.725321 20.430334 
L 143.778278 20.430334 
L 143.901846 19.576337 
L 144.078371 19.246708 
L 144.343158 11.5979 
L 144.519683 16.775079 
L 144.572641 16.916739 
L 144.749166 19.240771 
L 144.925691 20.404686 
L 145.137521 21.76417 
L 145.367004 21.698506 
L 145.543529 22.060196 
L 145.578834 22.060196 
L 145.755359 21.109186 
L 145.843621 21.109186 
L 145.984841 23.114987 
L 146.073104 23.013462 
L 146.161366 22.852091 
L 146.284934 20.522479 
L 146.373196 20.522479 
L 146.514416 20.925254 
L 146.549721 20.925254 
L 146.779204 20.549196 
L 146.902771 20.602512 
L 147.167559 21.559577 
L 147.308779 22.130017 
L 147.485304 26.76763 
L 147.573566 26.893498 
L 147.661829 26.76763 
L 147.838354 23.44711 
L 147.926617 22.74831 
L 148.050184 19.688549 
L 148.138447 19.585481 
L 148.226709 19.769057 
L 148.491497 21.862964 
L 148.615064 21.505312 
L 148.703327 21.862964 
L 148.756284 21.647328 
L 148.791589 21.656827 
L 149.462384 23.93633 
L 149.497689 23.93633 
L 149.815434 22.931292 
L 149.939002 23.053359 
L 149.991959 23.053359 
L 150.080222 22.360972 
L 156.876436 21.151933 
L 156.964698 21.870208 
L 157.176528 27.003334 
L 157.317748 27.393166 
L 157.47662 27.477829 
L 157.653146 28.107165 
L 157.741408 28.074274 
L 157.794365 27.949594 
L 158.182721 22.547397 
L 158.323941 20.214579 
L 158.447508 20.214579 
L 158.676991 21.697794 
L 158.765253 21.697794 
L 158.800558 21.342278 
L 159.030041 12.506044 
L 159.153609 12.418411 
L 159.206566 12.506044 
L 159.383091 21.704205 
L 159.471354 22.067795 
L 159.647878 26.794822 
L 159.736141 26.794822 
L 159.859708 27.273711 
L 160.000929 27.295441 
L 160.036234 27.390078 
L 160.089191 27.295441 
L 160.177453 27.295441 
L 160.389283 26.461155 
L 160.830596 18.725546 
L 161.060079 20.794162 
L 161.271909 24.662441 
L 161.324866 24.662441 
L 161.624959 23.133986 
L 161.677916 23.051935 
L 161.801484 20.818385 
L 161.978009 13.806632 
L 162.154534 12.965578 
L 162.560541 14.075228 
L 162.595847 14.073922 
L 162.648804 13.848904 
L 162.825329 7.052193 
L 162.860634 7.052193 
L 163.090116 12.582395 
L 163.178379 13.252579 
L 163.390209 19.069069 
L 163.478472 19.056126 
L 163.831522 15.394815 
L 164.008047 11.793469 
L 164.149267 11.793469 
L 164.325792 12.567909 
L 164.449359 13.92775 
L 164.537622 13.876215 
L 164.678842 13.083133 
L 164.943629 13.034567 
L 165.031892 13.770415 
L 165.331984 20.899962 
L 165.473204 20.899962 
L 165.596772 20.491012 
L 165.64973 20.491012 
L 165.685034 20.639322 
L 165.826255 22.506194 
L 165.86156 22.506194 
L 166.002779 21.932073 
L 166.038085 21.932073 
L 166.214609 27.7279 
L 166.302872 27.7279 
L 166.338177 27.601796 
L 166.691227 13.633505 
L 166.77949 13.633505 
L 166.867752 14.037705 
L 166.956015 13.633505 
L 167.27376 15.881185 
L 167.397327 22.716961 
L 167.538547 23.688633 
L 167.573853 23.688633 
L 167.715072 19.509723 
L 167.83864 15.483872 
L 168.015165 14.94858 
L 168.068122 14.94858 
L 168.33291 19.509841 
L 168.509435 21.698388 
L 168.597697 21.587956 
L 168.633003 20.598593 
L 168.809527 12.338854 
L 168.950748 12.332204 
L 169.127272 11.472627 
L 169.162578 11.88692 
L 169.25084 12.184488 
L 169.480323 11.476308 
L 169.515628 11.476308 
L 169.568585 11.77352 
L 169.692153 14.056466 
L 169.780415 14.400701 
L 169.95694 19.591774 
L 170.045203 19.908223 
L 170.09816 19.825459 
L 170.486516 20.601324 
L 170.804261 19.186505 
L 171.15731 11.474764 
L 171.245573 11.47322 
L 171.545666 9.832197 
L 171.775148 7.46613 
L 171.810453 7.46613 
L 171.951673 7.284335 
L 172.163503 7.238264 
L 172.481248 17.660187 
L 172.693078 24.6305 
L 172.834298 26.222363 
L 172.869603 26.222363 
L 173.222653 21.977907 
L 173.487441 20.166726 
L 173.716924 14.977553 
L 173.752228 14.881966 
L 174.017016 4.906514 
L 174.105278 4.906514 
L 174.599549 16.291916 
L 174.811379 21.307486 
L 174.899641 21.307486 
L 174.952598 21.17212 
L 175.076166 20.100942 
L 175.111471 20.100942 
L 175.287996 21.398681 
L 175.376259 21.398681 
L 175.464521 22.047728 
L 175.729309 26.313201 
L 175.870529 26.313201 
L 176.223579 22.541935 
L 176.258884 22.541935 
L 176.435409 23.06559 
L 176.700196 23.062978 
L 176.841417 22.175733 
L 176.876721 22.175733 
L 177.053247 24.765272 
L 177.141509 24.765272 
L 177.318034 22.973921 
L 177.459254 21.968883 
L 177.494559 21.968883 
L 177.635779 22.331997 
L 177.724042 22.273458 
L 178.024134 20.40528 
L 178.288922 22.36204 
L 178.377184 22.36204 
L 178.518404 21.689838 
L 178.553709 21.689838 
L 178.694929 21.837197 
L 178.730234 21.837197 
L 178.90676 21.371013 
L 178.995022 21.551502 
L 179.171547 22.25434 
L 179.312767 22.26669 
L 179.489292 24.34623 
L 179.665817 26.086997 
L 179.789384 26.086997 
L 179.842342 25.848087 
L 179.877647 24.569941 
L 180.054172 10.578969 
L 180.283655 7.340739 
L 180.407222 7.269255 
L 180.548442 7.621683 
L 180.672009 8.059131 
L 180.724967 8.059131 
L 180.848535 6.971448 
L 180.901492 6.971448 
L 181.02506 8.142251 
L 181.342805 21.219142 
L 181.466372 22.814449 
L 181.73116 28.510534 
L 181.819423 28.510534 
L 182.172472 24.676334 
L 182.22543 24.676334 
L 182.348998 25.813295 
L 182.490217 28.079142 
L 182.57848 28.079142 
L 182.755005 23.7201 
L 182.966835 19.925322 
L 183.108055 19.925322 
L 183.408148 24.146979 
L 183.725893 24.577777 
L 183.937723 24.164434 
L 184.20251 23.91555 
L 184.326078 24.208726 
L 184.590865 24.194596 
L 184.820348 22.47912 
L 184.943916 22.810531 
L 185.032178 22.834992 
L 185.296965 23.663341 
L 185.738278 23.564903 
L 186.267853 23.618931 
L 186.356116 24.031205 
L 186.585598 26.422682 
L 186.709166 26.351793 
L 186.797428 25.996397 
L 187.062216 23.01738 
L 187.150478 23.01738 
L 187.327003 23.32908 
L 187.468223 23.425024 
L 187.556486 23.850954 
L 187.733011 25.881216 
L 187.768316 25.881216 
L 188.121366 23.024862 
L 188.297891 25.557048 
L 188.439111 25.557048 
L 188.650941 25.216851 
L 188.827466 25.275629 
L 189.056949 21.573589 
L 189.180516 20.76697 
L 189.268779 20.76697 
L 189.321736 21.164283 
L 189.445304 22.41203 
L 189.498261 22.41203 
L 189.851311 16.857605 
L 189.939574 16.945 
L 189.974879 17.028832 
L 190.327929 21.01443 
L 190.592716 24.460816 
L 190.769242 24.522681 
L 191.175249 28.29846 
L 191.210554 28.29846 
L 191.475341 23.454353 
L 191.793086 26.418289 
L 191.828392 26.415321 
L 191.916654 25.634706 
L 192.269704 14.148017 
L 192.357967 14.148017 
L 192.746322 18.485211 
L 192.799279 18.526415 
L 193.152329 24.437306 
L 193.275897 24.437306 
L 193.893735 20.644902 
L 193.981997 20.644902 
L 194.158522 20.221466 
L 194.21148 20.221466 
L 194.511572 25.428569 
L 194.652792 25.428569 
L 195.041147 17.461056 
L 195.129409 17.315952 
L 195.27063 16.331101 
L 195.358892 16.331101 
L 195.394197 16.514439 
L 195.62368 19.539171 
L 195.711942 19.839827 
L 195.747247 19.935415 
L 196.012035 25.554318 
L 196.100297 25.554318 
L 196.153255 25.41432 
L 196.32978 22.009611 
L 196.365085 22.009611 
L 196.54161 24.872378 
L 196.594568 24.872378 
L 196.771092 22.693213 
L 196.859355 22.522936 
L 196.89466 22.538729 
L 197.071185 22.620068 
L 197.212405 23.266503 
L 197.24771 23.266503 
L 197.38893 19.567669 
L 197.689023 6.396734 
L 197.830242 5.919269 
L 197.865548 5.919269 
L 198.09503 5.509607 
L 198.183293 5.248136 
L 198.359818 4.693845 
L 198.395123 4.693845 
L 198.65991 6.266474 
L 198.712868 6.242843 
L 198.889393 6.040744 
L 198.924698 6.040744 
L 198.977655 6.220401 
L 199.01296 6.749993 
L 199.242443 14.137212 
L 199.507231 15.202689 
L 199.542535 15.202689 
L 199.772018 19.304654 
L 199.895585 19.304654 
L 199.948543 19.059332 
L 200.07211 17.055075 
L 200.160373 17.055075 
L 200.21333 17.558662 
L 200.389856 24.152916 
L 200.513423 24.152916 
L 200.566381 23.789327 
L 200.742905 21.312355 
L 200.919431 20.540646 
L 201.095956 20.540646 
L 201.219523 19.226165 
L 201.272481 19.226165 
L 201.449006 20.245927 
L 201.572573 20.245927 
L 201.925623 18.568331 
L 202.225716 9.686024 
L 202.366936 9.686024 
L 202.543461 9.931466 
L 202.719986 10.141165 
L 202.808248 10.031684 
L 202.931816 9.314716 
L 203.020078 9.35022 
L 203.249561 10.032753 
L 203.373129 10.04997 
L 203.514349 10.21063 
L 203.549653 10.07372 
L 203.637916 10.10388 
L 203.726179 10.10388 
L 203.902704 10.44289 
L 204.079229 10.44289 
L 204.220449 9.809398 
L 204.432279 9.868294 
L 204.661761 10.201011 
L 205.226642 7.208341 
L 205.279599 7.208341 
L 205.367861 7.676067 
L 205.491429 9.815692 
L 205.632649 10.828448 
L 205.667954 10.828448 
L 205.720911 10.644159 
L 205.844479 9.646364 
L 205.897437 9.350458 
L 206.021004 7.516478 
L 206.197529 7.467674 
L 206.374054 7.39251 
L 206.638842 7.019777 
L 206.780061 7.115839 
L 206.903629 7.16488 
L 207.133112 7.070123 
L 207.256679 6.742989 
L 207.397899 6.742989 
L 207.609729 13.401126 
L 207.609729 13.401126 
" clip-path="url(#pa371290b6e)" style="fill: none; stroke: #5c80b5; stroke-width: 0.5; stroke-linecap: square"/>
   </g>
   <g id="patch_3">
    <path d="M 59.527559 30.614173 
L 59.527559 3.401575 
" style="fill: none; stroke: #000000; stroke-width: 0.4; stroke-linejoin: miter; stroke-linecap: square"/>
   </g>
   <g id="patch_4">
    <path d="M 208.346457 30.614173 
L 208.346457 3.401575 
" style="fill: none; stroke: #000000; stroke-width: 0.4; stroke-linejoin: miter; stroke-linecap: square"/>
   </g>
   <g id="patch_5">
    <path d="M 59.527559 30.614173 
L 208.346457 30.614173 
" style="fill: none; stroke: #000000; stroke-width: 0.4; stroke-linejoin: miter; stroke-linecap: square"/>
   </g>
   <g id="patch_6">
    <path d="M 59.527559 3.401575 
L 208.346457 3.401575 
" style="fill: none; stroke: #000000; stroke-width: 0.4; stroke-linejoin: miter; stroke-linecap: square"/>
   </g>
  </g>
 </g>
 <defs>
  <clipPath id="pa371290b6e">
   <rect x="59.527559" y="3.401575" width="148.818898" height="27.212598"/>
  </clipPath>
 </defs>
</svg>
