<?xml version="1.0" encoding="utf-8" standalone="no"?>
<!DOCTYPE svg PUBLIC "-//W3C//DTD SVG 1.1//EN"
  "http://www.w3.org/Graphics/SVG/1.1/DTD/svg11.dtd">
<svg xmlns:xlink="http://www.w3.org/1999/xlink" width="212.598425pt" height="42.519685pt" viewBox="0 0 212.598425 42.519685" xmlns="http://www.w3.org/2000/svg" version="1.1">
 <metadata>
  <rdf:RDF xmlns:dc="http://purl.org/dc/elements/1.1/" xmlns:cc="http://creativecommons.org/ns#" xmlns:rdf="http://www.w3.org/1999/02/22-rdf-syntax-ns#">
   <cc:Work>
    <dc:type rdf:resource="http://purl.org/dc/dcmitype/StillImage"/>
    <dc:date>2026-06-01T17:59:23.888466</dc:date>
    <dc:format>image/svg+xml</dc:format>
    <dc:creator>
     <cc:Agent>
      <dc:title>Matplotlib v3.10.8, https://matplotlib.org/</dc:title>
     </cc:Agent>
    </dc:creator>
   </cc:Work>
  </rdf:RDF>
 </metadata>
 <defs>
  <style type="text/css">*{stroke-linejoin: round; stroke-linecap: butt}</style>
 </defs>
 <g id="figure_1">
  <g id="patch_1">
   <path d="M 0 42.519685 
L 212.598425 42.519685 
L 212.598425 0 
L 0 0 
z
" style="fill: #ffffff"/>
  </g>
  <g id="axes_1">
   <g id="patch_2">
    <path d="M 59.527559 30.614173 
L 208.346457 30.614173 
L 208.346457 3.401575 
L 59.527559 3.401575 
z
" style="fill: #eaeaf2"/>
   </g>
   <g id="matplotlib.axis_1">
    <g id="xtick_1">
     <g id="line2d_1">
      <path d="M 60.264286 30.614173 
L 60.264286 3.401575 
" clip-path="url(#p56b25fddc8)" style="fill: none; stroke: #ffffff; stroke-width: 0.9; stroke-linecap: square"/>
     </g>
     <g id="line2d_2">
      <defs>
       <path id="m5aadece102" d="M 0 0 
L 0 2 
" style="stroke: #000000; stroke-width: 0.4"/>
      </defs>
      <g>
       <use xlink:href="#m5aadece102" x="60.264286" y="30.614173" style="stroke: #000000; stroke-width: 0.4"/>
      </g>
     </g>
     <g id="text_1">
      <text style="font-size: 8px; font-family: 'DejaVu Sans', 'Bitstream Vera Sans', 'Computer Modern Sans Serif', 'Lucida Grande', 'Verdana', 'Geneva', 'Lucid', 'Arial', 'Helvetica', 'Avant Garde', sans-serif; text-anchor: middle" x="60.264286" y="42.192923" transform="rotate(-0 60.264286 42.192923)">0</text>
     </g>
    </g>
    <g id="xtick_2">
     <g id="line2d_3">
      <path d="M 92.007049 30.614173 
L 92.007049 3.401575 
" clip-path="url(#p56b25fddc8)" style="fill: none; stroke: #ffffff; stroke-width: 0.9; stroke-linecap: square"/>
     </g>
     <g id="line2d_4">
      <g>
       <use xlink:href="#m5aadece102" x="92.007049" y="30.614173" style="stroke: #000000; stroke-width: 0.4"/>
      </g>
     </g>
     <g id="text_2">
      <text style="font-size: 8px; font-family: 'DejaVu Sans', 'Bitstream Vera Sans', 'Computer Modern Sans Serif', 'Lucida Grande', 'Verdana', 'Geneva', 'Lucid', 'Arial', 'Helvetica', 'Avant Garde', sans-serif; text-anchor: middle" x="92.007049" y="42.192923" transform="rotate(-0 92.007049 42.192923)">60</text>
     </g>
    </g>
    <g id="xtick_3">
     <g id="line2d_5">
      <path d="M 123.749812 30.614173 
L 123.749812 3.401575 
" clip-path="url(#p56b25fddc8)" style="fill: none; stroke: #ffffff; stroke-width: 0.9; stroke-linecap: square"/>
     </g>
     <g id="line2d_6">
      <g>
       <use xlink:href="#m5aadece102" x="123.749812" y="30.614173" style="stroke: #000000; stroke-width: 0.4"/>
      </g>
     </g>
     <g id="text_3">
      <text style="font-size: 8px; font-family: 'DejaVu Sans', 'Bitstream Vera Sans', 'Computer Modern Sans Serif', 'Lucida Grande', 'Verdana', 'Geneva', 'Lucid', 'Arial', 'Helvetica', 'Avant Garde', sans-serif; text-anchor: middle" x="123.749812" y="42.192923" transform="rotate(-0 123.749812 42.192923)">120</text>
     </g>
    </g>
    <g id="xtick_4">
     <g id="line2d_7">
      <path d="M 155.492574 30.614173 
L 155.492574 3.401575 
" clip-path="url(#p56b25fddc8)" style="fill: none; stroke: #ffffff; stroke-width: 0.9; stroke-linecap: square"/>
     </g>
     <g id="line2d_8">
      <g>
       <use xlink:href="#m5aadece102" x="155.492574" y="30.614173" style="stroke: #000000; stroke-width: 0.4"/>
      </g>
     </g>
     <g id="text_4">
      <text style="font-size: 8px; font-family: 'DejaVu Sans', 'Bitstream Vera Sans', 'Computer Modern Sans Serif', 'Lucida Grande', 'Verdana', 'Geneva', 'Lucid', 'Arial', 'Helvetica', 'Avant Garde', sans-serif; text-anchor: middle" x="155.492574" y="42.192923" transform="rotate(-0 155.492574 42.192923)">180</text>
     </g>
    </g>
    <g id="xtick_5">
     <g id="line2d_9">
      <path d="M 187.235337 30.614173 
L 187.235337 3.401575 
" clip-path="url(#p56b25fddc8)" style="fill: none; stroke: #ffffff; stroke-width: 0.9; stroke-linecap: square"/>
     </g>
     <g id="line2d_10">
      <g>
       <use xlink:href="#m5aadece102" x="187.235337" y="30.614173" style="stroke: #000000; stroke-width: 0.4"/>
      </g>
     </g>
     <g id="text_5">
      <text style="font-size: 8px; font-family: 'DejaVu Sans', 'Bitstream Vera Sans', 'Computer Modern Sans Serif', 'Lucida Grande', 'Verdana', 'Geneva', 'Lucid', 'Arial', 'Helvetica', 'Avant Garde', sans-serif; text-anchor: middle" x="187.235337" y="42.192923" transform="rotate(-0 187.235337 42.192923)">240</text>
     </g>
    </g>
    <g id="xtick_6">
     <g id="line2d_11">
      <path d="M 76.135668 30.614173 
L 76.135668 3.401575 
" clip-path="url(#p56b25fddc8)" style="fill: none; stroke: #ffffff; stroke-opacity: 0.9; stroke-width: 0.55; stroke-linecap: square"/>
     </g>
     <g id="line2d_12">
      <defs>
       <path id="m823a17a88c" d="M 0 0 
L 0 2 
" style="stroke: #000000; stroke-width: 0.6"/>
      </defs>
      <g>
       <use xlink:href="#m823a17a88c" x="76.135668" y="30.614173" style="stroke: #000000; stroke-width: 0.6"/>
      </g>
     </g>
    </g>
    <g id="xtick_7">
     <g id="line2d_13">
      <path d="M 107.87843 30.614173 
L 107.87843 3.401575 
" clip-path="url(#p56b25fddc8)" style="fill: none; stroke: #ffffff; stroke-opacity: 0.9; stroke-width: 0.55; stroke-linecap: square"/>
     </g>
     <g id="line2d_14">
      <g>
       <use xlink:href="#m823a17a88c" x="107.87843" y="30.614173" style="stroke: #000000; stroke-width: 0.6"/>
      </g>
     </g>
    </g>
    <g id="xtick_8">
     <g id="line2d_15">
      <path d="M 139.621193 30.614173 
L 139.621193 3.401575 
" clip-path="url(#p56b25fddc8)" style="fill: none; stroke: #ffffff; stroke-opacity: 0.9; stroke-width: 0.55; stroke-linecap: square"/>
     </g>
     <g id="line2d_16">
      <g>
       <use xlink:href="#m823a17a88c" x="139.621193" y="30.614173" style="stroke: #000000; stroke-width: 0.6"/>
      </g>
     </g>
    </g>
    <g id="xtick_9">
     <g id="line2d_17">
      <path d="M 171.363956 30.614173 
L 171.363956 3.401575 
" clip-path="url(#p56b25fddc8)" style="fill: none; stroke: #ffffff; stroke-opacity: 0.9; stroke-width: 0.55; stroke-linecap: square"/>
     </g>
     <g id="line2d_18">
      <g>
       <use xlink:href="#m823a17a88c" x="171.363956" y="30.614173" style="stroke: #000000; stroke-width: 0.6"/>
      </g>
     </g>
    </g>
    <g id="xtick_10">
     <g id="line2d_19">
      <path d="M 203.106719 30.614173 
L 203.106719 3.401575 
" clip-path="url(#p56b25fddc8)" style="fill: none; stroke: #ffffff; stroke-opacity: 0.9; stroke-width: 0.55; stroke-linecap: square"/>
     </g>
     <g id="line2d_20">
      <g>
       <use xlink:href="#m823a17a88c" x="203.106719" y="30.614173" style="stroke: #000000; stroke-width: 0.6"/>
      </g>
     </g>
    </g>
    <g id="text_6">
     <text style="font-size: 8px; font-family: 'DejaVu Sans', 'Bitstream Vera Sans', 'Computer Modern Sans Serif', 'Lucida Grande', 'Verdana', 'Geneva', 'Lucid', 'Arial', 'Helvetica', 'Avant Garde', sans-serif; text-anchor: middle" x="133.937008" y="53.935423" transform="rotate(-0 133.937008 53.935423)">time</text>
    </g>
   </g>
   <g id="matplotlib.axis_2">
    <g id="ytick_1">
     <g id="line2d_21">
      <path d="M 59.527559 22.685652 
L 208.346457 22.685652 
" clip-path="url(#p56b25fddc8)" style="fill: none; stroke: #ffffff; stroke-width: 0.9; stroke-linecap: square"/>
     </g>
     <g id="line2d_22">
      <defs>
       <path id="m0c63a6a422" d="M 0 0 
L -2 0 
" style="stroke: #000000; stroke-width: 0.4"/>
      </defs>
      <g>
       <use xlink:href="#m0c63a6a422" x="59.527559" y="22.685652" style="stroke: #000000; stroke-width: 0.4"/>
      </g>
     </g>
     <g id="text_7">
      <text style="font-size: 8px; font-family: 'DejaVu Sans', 'Bitstream Vera Sans', 'Computer Modern Sans Serif', 'Lucida Grande', 'Verdana', 'Geneva', 'Lucid', 'Arial', 'Helvetica', 'Avant Garde', sans-serif; text-anchor: end" x="54.027559" y="25.725027" transform="rotate(-0 54.027559 25.725027)">−2</text>
     </g>
    </g>
    <g id="ytick_2">
     <g id="line2d_23">
      <path d="M 59.527559 13.778835 
L 208.346457 13.778835 
" clip-path="url(#p56b25fddc8)" style="fill: none; stroke: #ffffff; stroke-width: 0.9; stroke-linecap: square"/>
     </g>
     <g id="line2d_24">
      <g>
       <use xlink:href="#m0c63a6a422" x="59.527559" y="13.778835" style="stroke: #000000; stroke-width: 0.4"/>
      </g>
     </g>
     <g id="text_8">
      <text style="font-size: 8px; font-family: 'DejaVu Sans', 'Bitstream Vera Sans', 'Computer Modern Sans Serif', 'Lucida Grande', 'Verdana', 'Geneva', 'Lucid', 'Arial', 'Helvetica', 'Avant Garde', sans-serif; text-anchor: end" x="54.027559" y="16.81821" transform="rotate(-0 54.027559 16.81821)">0</text>
     </g>
    </g>
    <g id="ytick_3">
     <g id="line2d_25">
      <path d="M 59.527559 4.872019 
L 208.346457 4.872019 
" clip-path="url(#p56b25fddc8)" style="fill: none; stroke: #ffffff; stroke-width: 0.9; stroke-linecap: square"/>
     </g>
     <g id="line2d_26">
      <g>
       <use xlink:href="#m0c63a6a422" x="59.527559" y="4.872019" style="stroke: #000000; stroke-width: 0.4"/>
      </g>
     </g>
     <g id="text_9">
      <text style="font-size: 8px; font-family: 'DejaVu Sans', 'Bitstream Vera Sans', 'Computer Modern Sans Serif', 'Lucida Grande', 'Verdana', 'Geneva', 'Lucid', 'Arial', 'Helvetica', 'Avant Garde', sans-serif; text-anchor: end" x="54.027559" y="7.911394" transform="rotate(-0 54.027559 7.911394)">2</text>
     </g>
    </g>
    <g id="ytick_4">
     <g id="line2d_27">
      <path d="M 59.527559 27.13906 
L 208.346457 27.13906 
" clip-path="url(#p56b25fddc8)" style="fill: none; stroke: #ffffff; stroke-opacity: 0.9; stroke-width: 0.55; stroke-linecap: square"/>
     </g>
     <g id="line2d_28">
      <defs>
       <path id="m11123800f6" d="M 0 0 
L -2 0 
" style="stroke: #000000; stroke-width: 0.6"/>
      </defs>
      <g>
       <use xlink:href="#m11123800f6" x="59.527559" y="27.13906" style="stroke: #000000; stroke-width: 0.6"/>
      </g>
     </g>
    </g>
    <g id="ytick_5">
     <g id="line2d_29">
      <path d="M 59.527559 18.232244 
L 208.346457 18.232244 
" clip-path="url(#p56b25fddc8)" style="fill: none; stroke: #ffffff; stroke-opacity: 0.9; stroke-width: 0.55; stroke-linecap: square"/>
     </g>
     <g id="line2d_30">
      <g>
       <use xlink:href="#m11123800f6" x="59.527559" y="18.232244" style="stroke: #000000; stroke-width: 0.6"/>
      </g>
     </g>
    </g>
    <g id="ytick_6">
     <g id="line2d_31">
      <path d="M 59.527559 9.325427 
L 208.346457 9.325427 
" clip-path="url(#p56b25fddc8)" style="fill: none; stroke: #ffffff; stroke-opacity: 0.9; stroke-width: 0.55; stroke-linecap: square"/>
     </g>
     <g id="line2d_32">
      <g>
       <use xlink:href="#m11123800f6" x="59.527559" y="9.325427" style="stroke: #000000; stroke-width: 0.6"/>
      </g>
     </g>
    </g>
    <g id="text_10">
     <text style="font-size: 8px; font-family: 'DejaVu Sans', 'Bitstream Vera Sans', 'Computer Modern Sans Serif', 'Lucida Grande', 'Verdana', 'Geneva', 'Lucid', 'Arial', 'Helvetica', 'Avant Garde', sans-serif; text-anchor: middle" x="36.347559" y="17.007874" transform="rotate(-90 36.347559 17.007874)">right_elbow_dy</text>
    </g>
   </g>
   <g id="line2d_33">
    <path d="M 60.264286 8.30966 
L 60.440811 8.529502 
L 60.493769 8.574214 
L 60.617336 9.229769 
L 60.793861 9.229769 
L 60.970387 8.582094 
L 61.146911 8.618802 
L 61.764749 9.94198 
L 62.082494 9.712414 
L 62.117799 9.712414 
L 62.259019 10.0446 
L 62.470849 10.121206 
L 62.700332 11.346016 
L 62.788594 11.315312 
L 62.823899 11.224386 
L 63.088687 9.379666 
L 63.265212 9.442325 
L 63.441737 9.893015 
L 63.794787 10.351522 
L 64.236099 9.514678 
L 64.412625 9.667201 
L 64.9422 9.757814 
L 65.701257 10.023901 
L 66.00135 9.685899 
L 66.14257 9.606542 
L 66.266137 9.701471 
L 66.3544 9.736302 
L 66.619187 10.407929 
L 66.795713 10.312188 
L 66.84867 10.199937 
L 66.883975 10.290988 
L 67.025195 10.199937 
L 67.590075 9.010334 
L 67.678338 9.010334 
L 67.854863 10.121893 
L 68.031387 10.121893 
L 68.084345 10.803212 
L 68.207913 16.284719 
L 68.26087 16.284719 
L 68.4727 15.055218 
L 68.82575 14.729974 
L 68.96697 15.181476 
L 69.267063 15.306046 
L 69.443588 15.265023 
L 69.53185 15.265023 
L 69.567155 15.023513 
L 69.708376 8.634811 
L 69.8849 8.243154 
L 69.920206 8.243154 
L 70.184993 9.41381 
L 70.538043 9.337016 
L 70.679263 8.448582 
L 70.714568 8.448582 
L 70.979356 9.604416 
L 71.15588 9.76757 
L 71.332406 9.675894 
L 71.473626 9.131964 
L 71.597193 8.859249 
L 71.685456 8.859249 
L 71.861981 9.809156 
L 71.950243 9.809156 
L 72.215031 8.072934 
L 72.356251 9.207632 
L 72.479818 15.295665 
L 72.568081 15.295665 
L 72.709301 14.76318 
L 72.832869 14.76318 
L 73.185919 16.687882 
L 73.274181 16.687882 
L 73.415401 16.850473 
L 73.591926 16.850473 
L 73.715494 9.747496 
L 73.856713 9.686462 
L 74.156806 9.2414 
L 74.245069 9.2414 
L 74.509856 8.89208 
L 74.562814 8.89208 
L 75.127694 6.314324 
L 75.268914 8.184433 
L 75.392481 14.338192 
L 75.798489 14.338192 
L 75.975014 14.853981 
L 76.098582 14.853981 
L 76.239801 14.263713 
L 76.275107 14.263713 
L 76.363369 17.623281 
L 76.504589 20.427164 
L 76.539894 20.427164 
L 76.716419 14.823714 
L 76.857639 14.864299 
L 77.034164 15.681319 
L 77.157732 15.718715 
L 77.334257 16.214492 
L 77.422519 16.40241 
L 77.510782 16.214492 
L 77.652002 16.542864 
L 77.775569 17.307729 
L 77.828527 17.307729 
L 77.987399 16.211929 
L 78.12862 15.817583 
L 78.252187 15.123506 
L 78.305144 15.123506 
L 78.481669 15.617033 
L 78.693499 15.513287 
L 78.870025 15.124007 
L 79.011245 15.210743 
L 79.134812 15.641421 
L 79.364294 15.537988 
L 79.664387 15.363141 
L 79.840912 15.24201 
L 79.982132 15.185479 
L 80.1057 14.920143 
L 80.335182 12.0097 
L 80.370487 12.0097 
L 80.547012 8.707101 
L 80.688232 8.806219 
L 80.8118 10.186742 
L 80.900062 10.287111 
L 81.076587 10.394922 
L 81.129545 11.032966 
L 81.253113 15.552497 
L 81.429637 17.439678 
L 81.65912 18.399465 
L 81.959212 16.133572 
L 82.100433 15.956786 
L 82.224 15.779937 
L 82.36522 15.86636 
L 82.541745 15.930145 
L 82.753575 16.003562 
L 82.9301 16.272087 
L 83.07132 16.270461 
L 83.194888 16.363013 
L 83.42437 16.46557 
L 83.459675 16.424172 
L 83.600895 15.994807 
L 83.724463 15.892374 
L 84.077513 11.224511 
L 84.13047 11.224511 
L 84.254038 13.915955 
L 84.306995 13.915955 
L 84.430563 13.560444 
L 84.518825 13.560444 
L 84.607088 13.862425 
L 84.748308 15.09399 
L 84.783613 15.09399 
L 84.960138 14.234133 
L 85.224926 13.765246 
L 85.313188 15.107748 
L 85.489713 18.078911 
L 85.577976 18.078911 
L 85.666238 17.669807 
L 85.842763 15.972044 
L 86.107551 15.395784 
L 86.195813 15.395784 
L 86.284076 15.256518 
L 86.460601 13.108816 
L 86.637126 7.749691 
L 86.760694 7.749691 
L 86.901913 8.448456 
L 87.202006 8.650632 
L 87.431488 7.835301 
L 87.608014 7.835301 
L 87.908106 10.239709 
L 87.996368 10.098192 
L 88.049326 9.954613 
L 88.261156 5.300257 
L 88.402376 4.638511 
L 88.490639 5.300257 
L 88.614206 13.072546 
L 88.843689 12.984746 
L 88.967256 12.725977 
L 89.143781 12.703026 
L 89.408569 13.011511 
L 89.549789 14.828341 
L 89.638051 14.77675 
L 89.814576 13.053535 
L 89.902839 13.053535 
L 89.991102 12.456764 
L 90.026406 12.654624 
L 90.079364 13.208122 
L 90.114669 12.654624 
L 90.202932 12.334507 
L 90.344151 9.286488 
L 90.379456 9.286488 
L 90.520677 13.186672 
L 90.909031 14.474393 
L 91.085557 13.771687 
L 91.491564 13.827656 
L 91.703394 12.548502 
L 91.844614 12.548502 
L 91.879919 12.548502 
L 92.144707 13.246268 
L 92.285927 13.374652 
L 92.58602 13.743922 
L 92.992027 13.576203 
L 93.203857 13.231009 
L 93.256814 13.231009 
L 93.380382 13.742608 
L 93.556907 13.978115 
L 93.909957 13.986432 
L 94.086482 13.530177 
L 94.315965 14.003067 
L 94.527795 13.20931 
L 94.669015 13.00038 
L 94.792582 13.20931 
L 94.84554 13.176479 
L 95.022065 14.295543 
L 95.05737 13.718282 
L 95.110327 14.333502 
L 95.233895 14.3754 
L 95.463377 16.143015 
L 95.498683 16.095988 
L 95.586945 15.537613 
L 95.76347 9.461274 
L 95.851732 8.686402 
L 95.887037 8.710791 
L 96.11652 9.473655 
L 96.32835 9.37904 
L 96.381308 9.359404 
L 96.416612 9.147035 
L 96.46957 9.359404 
L 96.593138 9.456083 
L 96.857925 11.093187 
L 97.03445 11.179048 
L 97.352195 11.17317 
L 97.475763 11.076803 
L 97.52872 11.076803 
L 97.74055 11.484719 
L 97.793508 11.539312 
L 97.828813 11.484719 
L 97.970033 11.359962 
L 98.23482 11.315499 
L 98.534913 10.023839 
L 98.58787 10.023839 
L 98.623176 10.139153 
L 98.764395 16.658303 
L 98.887963 16.584324 
L 99.064488 16.347692 
L 99.241013 16.418607 
L 99.329275 16.599833 
L 99.382233 17.275774 
L 99.558758 23.35943 
L 99.64702 23.35943 
L 99.85885 17.062405 
L 101.182788 17.062405 
L 101.235746 17.498961 
L 101.588796 26.293949 
L 101.888888 26.226974 
L 102.118371 27.71318 
L 102.241938 27.73882 
L 102.330201 27.432023 
L 102.471421 21.296776 
L 102.683251 21.392892 
L 103.000996 21.484631 
L 103.124564 21.448985 
L 103.212826 18.596826 
L 103.389351 11.570455 
L 103.442309 11.468522 
L 103.707096 9.783454 
L 103.795359 9.783454 
L 103.918927 9.936102 
L 104.060146 12.398606 
L 104.095451 12.398606 
L 104.271976 8.559268 
L 104.324934 8.482601 
L 104.448502 7.786898 
L 104.536764 8.166736 
L 104.572069 7.786898 
L 104.625026 8.1471 
L 104.660332 8.166736 
L 104.748594 8.808408 
L 104.925119 9.89658 
L 105.013382 9.950047 
L 105.154601 10.51699 
L 105.278169 10.516051 
L 105.507652 9.875631 
L 105.631219 9.712164 
L 105.684176 9.712164 
L 105.807744 9.576964 
L 105.896007 9.538817 
L 106.037227 9.28899 
L 106.125489 9.354401 
L 106.302014 10.080683 
L 106.425582 10.252529 
L 106.743327 10.159915 
L 107.008114 9.96812 
L 107.272902 10.070677 
L 107.396469 10.156663 
L 108.596839 10.158664 
L 108.720407 10.323256 
L 108.896932 10.344206 
L 109.073457 10.241836 
L 109.214677 10.226327 
L 109.338245 10.068364 
L 109.426507 9.914403 
L 109.51477 10.011019 
L 109.86782 10.034032 
L 110.838708 10.067113 
L 110.979927 9.816848 
L 111.332978 9.727047 
L 111.368283 9.656258 
L 111.509502 8.753627 
L 111.544808 8.753627 
L 111.897858 10.051604 
L 111.98612 10.051604 
L 112.162645 9.774574 
L 112.250908 9.774574 
L 112.745178 8.164423 
L 112.83344 8.382795 
L 112.957008 11.493036 
L 113.04527 11.493036 
L 113.310058 10.057858 
L 113.345363 10.191995 
L 113.486583 10.419498 
L 113.574845 10.367218 
L 113.698413 10.294115 
L 113.751371 10.294115 
L 113.874938 10.730985 
L 113.927896 10.730985 
L 114.192683 11.365778 
L 114.369208 11.387852 
L 114.545733 11.735547 
L 115.198876 12.115698 
L 115.251833 12.115698 
L 115.340096 11.868934 
L 115.375401 11.905767 
L 115.463664 11.905767 
L 115.693146 12.248772 
L 115.869671 12.149779 
L 115.904976 12.136897 
L 116.134458 11.737173 
L 116.258026 11.952731 
L 116.522814 11.957171 
L 116.664034 11.442445 
L 116.699338 11.442445 
L 116.840559 11.765376 
L 117.405439 11.724166 
L 117.723184 9.739742 
L 117.811446 9.739742 
L 117.987971 11.10188 
L 118.164496 11.188866 
L 118.288064 11.481968 
L 118.429284 12.175043 
L 118.517546 12.228823 
L 118.552851 12.175043 
L 118.905902 11.679015 
L 118.994164 11.624735 
L 119.170689 11.524866 
L 119.347214 11.779822 
L 119.523739 11.693023 
L 119.700264 11.665758 
L 119.876789 11.765064 
L 120.106272 11.507169 
L 120.547584 9.820975 
L 120.724109 9.816347 
L 121.112464 11.810401 
L 121.28899 11.680766 
L 121.377252 11.573206 
L 121.430209 11.614354 
L 121.783259 11.699527 
L 121.906827 11.745928 
L 122.736494 11.380911 
L 122.965977 11.555133 
L 123.089545 11.979246 
L 123.177807 11.979246 
L 123.230765 11.805023 
L 123.319027 11.869059 
L 123.354332 11.869059 
L 123.40729 11.738048 
L 123.442595 11.869059 
L 123.530857 11.869059 
L 123.707382 11.384726 
L 123.848602 11.405237 
L 124.025127 11.551631 
L 124.148695 11.50842 
L 124.32522 11.270599 
L 124.413483 11.202749 
L 124.766532 10.856117 
L 124.854795 13.558318 
L 125.03132 20.119178 
L 125.084278 20.119178 
L 125.296108 15.657931 
L 125.349065 15.356262 
L 125.472633 8.808908 
L 125.52559 8.808908 
L 125.702115 10.364029 
L 125.790378 10.326758 
L 125.913945 9.942543 
L 126.09047 9.232708 
L 126.23169 9.139968 
L 126.355258 9.054045 
L 126.79657 8.967185 
L 127.061358 8.838988 
L 127.202578 8.867879 
L 127.379103 9.757502 
L 127.467365 9.757502 
L 127.679195 7.709855 
L 127.820415 7.786211 
L 127.943983 7.994202 
L 128.032245 7.994202 
L 128.173466 7.798405 
L 128.208771 7.798405 
L 128.297033 7.436452 
L 128.473558 8.235212 
L 128.614778 11.97218 
L 128.650083 11.97218 
L 128.791303 12.65994 
L 128.914871 12.474523 
L 128.967828 12.474523 
L 129.091396 12.313433 
L 129.179658 12.314434 
L 129.320878 13.505038 
L 129.444446 13.697458 
L 129.673928 13.915267 
L 129.709233 13.888565 
L 129.974021 12.889568 
L 130.238809 13.780192 
L 130.291766 13.78088 
L 130.415333 14.034209 
L 130.768384 14.143583 
L 131.156738 12.493096 
L 131.209696 12.57583 
L 131.421526 12.947851 
L 131.562746 13.440251 
L 131.598051 13.440251 
L 131.774576 12.734919 
L 131.951101 12.734919 
L 132.092321 12.230199 
L 132.127626 12.230199 
L 132.357109 15.548057 
L 132.480676 15.548057 
L 132.621896 14.452943 
L 132.657201 14.452943 
L 132.833727 15.006566 
L 132.886684 16.154271 
L 132.921989 15.196798 
L 133.539826 15.123006 
L 133.681047 15.035144 
L 133.804614 14.403916 
L 133.857571 14.403916 
L 133.892877 14.541618 
L 134.069401 15.817645 
L 134.245927 14.265276 
L 134.387146 13.319684 
L 134.422452 13.319684 
L 134.475409 13.797952 
L 134.687239 19.129624 
L 134.863764 19.712013 
L 135.004984 19.604452 
L 135.040289 19.497456 
L 135.181509 18.797251 
L 135.216814 18.797251 
L 135.446297 19.96109 
L 135.569864 19.96109 
L 135.658127 19.377701 
L 135.74639 17.649483 
L 135.922914 14.196925 
L 136.099439 14.43856 
L 136.59371 19.986479 
L 136.717277 19.438985 
L 136.770234 19.438985 
L 137.035022 25.013544 
L 137.246852 16.750355 
L 137.423377 25.309335 
L 137.511639 25.309335 
L 137.688165 15.980049 
L 137.86469 15.980049 
L 138.094172 17.828146 
L 138.129477 17.667368 
L 138.394265 17.123189 
L 138.800272 17.061592 
L 138.92384 16.717274 
L 139.100365 16.449061 
L 139.329847 10.930284 
L 139.594635 10.930284 
L 139.62994 11.147968 
L 139.84177 17.25076 
L 139.894727 17.25076 
L 140.071253 16.419357 
L 140.106557 16.419357 
L 140.283083 16.761298 
L 140.33604 16.761298 
L 140.371345 16.415855 
L 140.636133 11.398358 
L 140.68909 11.398358 
L 140.812658 15.049778 
L 140.90092 15.049778 
L 140.989183 15.66556 
L 141.130403 14.571823 
L 141.25397 10.389731 
L 141.306928 10.276542 
L 141.342233 10.389731 
L 141.518758 10.43288 
L 141.60702 10.43288 
L 141.871808 8.50924 
L 142.136595 9.313316 
L 142.401383 10.820722 
L 142.489645 10.875253 
L 142.666171 11.378222 
L 142.719128 11.378222 
L 142.842696 11.191117 
L 142.983916 11.141777 
L 143.01922 11.071488 
L 143.195746 10.335451 
L 143.248703 10.335451 
L 143.336965 9.828479 
L 143.513491 8.185059 
L 143.637058 8.185059 
L 143.901846 9.38248 
L 144.078371 8.924911 
L 144.166633 8.924911 
L 144.254896 8.584533 
L 144.572641 12.620605 
L 144.696209 16.332683 
L 144.837428 16.478077 
L 144.872733 16.478077 
L 145.102216 15.401475 
L 145.190478 15.401475 
L 145.367004 16.691572 
L 145.490571 16.790502 
L 145.631791 16.790502 
L 145.755359 16.5857 
L 145.931883 16.542488 
L 146.073104 17.034139 
L 146.161366 16.993866 
L 146.284934 16.574757 
L 146.902771 16.605524 
L 147.043991 16.156897 
L 147.167559 16.162526 
L 147.308779 16.211803 
L 147.520609 16.572443 
L 147.608872 16.462318 
L 147.785396 16.177909 
L 147.926617 16.177909 
L 148.014879 16.405537 
L 148.138447 16.107057 
L 148.403234 15.749294 
L 148.491497 15.749294 
L 148.615064 14.780877 
L 148.791589 10.349333 
L 148.932809 8.096259 
L 148.968114 8.096259 
L 149.144639 9.831481 
L 149.197597 9.851242 
L 149.285859 10.231455 
L 149.497689 16.055466 
L 149.674214 13.697395 
L 149.850739 12.194492 
L 149.939002 12.129893 
L 150.080222 11.453514 
L 156.911741 12.57214 
L 157.229486 12.857488 
L 157.353053 12.712469 
L 157.617841 12.689269 
L 157.829671 12.166788 
L 157.882628 12.27585 
L 158.006196 12.047784 
L 158.094458 12.050849 
L 158.235678 11.559073 
L 158.412203 8.536318 
L 158.676991 8.182682 
L 158.712296 8.182682 
L 158.853516 9.377602 
L 159.065346 12.217567 
L 159.241871 14.179415 
L 159.383091 14.36602 
L 159.594921 12.937032 
L 159.647878 12.866993 
L 160.036234 9.662449 
L 160.124496 9.568959 
L 160.301021 9.227393 
L 160.442241 9.258223 
L 160.918859 10.593345 
L 160.971816 10.593345 
L 161.060079 9.673705 
L 161.183646 8.672457 
L 161.271909 8.672457 
L 161.413129 8.557705 
L 161.448434 8.557705 
L 161.501391 8.778141 
L 161.624959 10.921154 
L 161.677916 10.921154 
L 161.801484 9.230395 
L 161.889746 9.299683 
L 162.030966 10.194684 
L 162.066272 10.194684 
L 162.207491 8.196316 
L 162.242796 8.196316 
L 162.419321 8.645942 
L 162.560541 8.68215 
L 162.648804 9.363532 
L 162.772371 12.024897 
L 162.860634 12.024897 
L 163.125422 8.995388 
L 163.266642 8.800778 
L 163.390209 8.472407 
L 163.443167 8.472407 
L 163.531429 7.877199 
L 163.566734 8.007897 
L 163.619692 7.877199 
L 163.972742 5.156552 
L 164.061004 5.156552 
L 164.361097 6.411441 
L 164.414054 6.431702 
L 164.537622 7.209638 
L 164.590579 7.066432 
L 164.625884 7.209638 
L 164.714147 7.557395 
L 164.855367 10.342517 
L 164.943629 10.342517 
L 165.067197 8.911216 
L 165.120154 8.911216 
L 165.243722 12.006199 
L 165.331984 12.76381 
L 165.596772 16.988613 
L 165.64973 16.988613 
L 165.86156 14.535802 
L 166.002779 6.720739 
L 166.038085 6.720739 
L 166.091042 7.27086 
L 166.214609 13.516982 
L 166.338177 13.682825 
L 166.391135 13.682825 
L 166.479397 12.358646 
L 166.602965 8.941045 
L 166.655922 8.941045 
L 166.867752 10.081245 
L 167.008972 10.143155 
L 167.097235 10.763565 
L 167.13254 10.43363 
L 167.220802 10.123707 
L 167.397327 7.270547 
L 167.538547 7.086944 
L 167.662115 8.138721 
L 167.83864 10.461646 
L 167.926902 10.641122 
L 168.068122 11.51311 
L 168.244647 11.498102 
L 168.456478 9.655757 
L 168.509435 9.655757 
L 168.633003 10.678205 
L 168.68596 10.678205 
L 168.809527 10.099756 
L 168.89779 10.045913 
L 168.986053 9.958365 
L 169.127272 9.246466 
L 169.162578 9.246466 
L 169.39206 10.032031 
L 169.568585 11.49166 
L 169.60389 11.49166 
L 170.09816 9.529812 
L 170.133465 9.529812 
L 170.274686 10.422812 
L 170.398253 10.774509 
L 170.486516 10.79083 
L 170.66304 10.473403 
L 170.839565 11.199497 
L 170.892523 11.215631 
L 170.980785 11.506294 
L 171.016091 11.347955 
L 171.15731 11.311122 
L 171.245573 10.43607 
L 171.422098 8.218015 
L 171.810453 4.70486 
L 171.898716 6.349281 
L 172.128198 11.676577 
L 172.340028 14.518855 
L 172.481248 15.292851 
L 172.516553 15.255205 
L 172.604816 15.255205 
L 172.746036 7.356783 
L 172.834298 7.44996 
L 173.099086 9.579965 
L 173.222653 9.54457 
L 173.487441 8.304438 
L 173.628661 8.304438 
L 173.805186 9.914089 
L 173.840491 9.914089 
L 173.981711 10.869812 
L 174.158236 10.518365 
L 174.193541 10.470777 
L 174.281804 9.901645 
L 174.370066 10.470777 
L 174.546591 13.801454 
L 174.599549 13.935779 
L 174.776074 16.104306 
L 175.023209 17.710893 
L 175.076166 17.689068 
L 175.199734 16.637354 
L 175.376259 15.96529 
L 175.464521 15.971669 
L 175.605741 15.849413 
L 175.729309 14.157841 
L 175.782266 13.955102 
L 175.905834 13.24533 
L 175.958791 13.24533 
L 176.135316 13.8164 
L 176.170621 13.8164 
L 176.347146 14.211934 
L 176.700196 18.088604 
L 176.753154 18.025069 
L 176.788459 18.025069 
L 176.964984 16.890183 
L 177.017941 16.874424 
L 177.141509 16.41598 
L 177.282729 16.474388 
L 177.406297 17.204609 
L 177.494559 17.204609 
L 177.671084 16.2502 
L 177.812304 16.322177 
L 178.024134 16.606337 
L 178.077092 16.481704 
L 178.288922 15.231379 
L 178.377184 15.315614 
L 178.553709 15.886058 
L 178.995022 15.969855 
L 179.436335 16.222434 
L 179.577554 15.892062 
L 179.665817 15.758737 
L 179.701122 15.874302 
L 179.789384 15.979986 
L 179.877647 15.874302 
L 179.930604 15.982675 
L 180.018867 18.289654 
L 180.10713 21.791428 
L 180.283655 28.042427 
L 180.407222 28.042427 
L 180.495485 25.454666 
L 180.636705 22.671108 
L 180.724967 22.671108 
L 180.901492 25.666786 
L 180.936797 25.666786 
L 181.02506 23.129802 
L 181.201585 17.816139 
L 181.254542 17.558307 
L 181.37811 16.227875 
L 181.51933 16.182662 
L 181.642897 16.367203 
L 181.819423 17.010188 
L 181.907685 17.010188 
L 182.137168 16.142577 
L 182.172472 16.171968 
L 182.260735 16.171968 
L 182.525522 15.493339 
L 182.613785 15.391844 
L 182.878573 14.347259 
L 182.966835 14.385468 
L 183.14336 15.194171 
L 183.319885 16.696199 
L 183.372842 16.949967 
L 183.408148 16.696199 
L 183.49641 16.747353 
L 183.63763 16.852975 
L 183.884765 16.429738 
L 184.06129 16.415292 
L 184.237815 16.73297 
L 184.679128 16.756921 
L 184.820348 16.965475 
L 185.261661 17.035014 
L 185.473491 17.182972 
L 185.650015 17.147327 
L 185.826541 17.004435 
L 186.17959 17.164962 
L 186.320811 17.324113 
L 186.356116 17.324113 
L 186.409073 17.131005 
L 186.532641 16.222559 
L 186.709166 16.065722 
L 186.938648 16.375582 
L 187.203436 17.140761 
L 187.238741 17.120875 
L 187.468223 16.860229 
L 187.556486 16.849348 
L 187.768316 16.026074 
L 187.856579 16.026074 
L 187.944841 16.422609 
L 188.086061 16.919199 
L 188.297891 16.951718 
L 188.527373 17.328554 
L 188.615636 17.286092 
L 188.650941 17.328554 
L 188.827466 17.304853 
L 188.968686 17.879988 
L 189.056949 17.304853 
L 189.145211 17.426483 
L 189.268779 17.002934 
L 189.409998 16.225624 
L 189.445304 16.225624 
L 189.533566 16.61628 
L 189.939574 22.121799 
L 190.239666 18.247944 
L 190.469149 17.058152 
L 190.645674 17.058152 
L 190.769242 17.282215 
L 191.034029 17.178219 
L 191.122291 17.096048 
L 191.298817 17.377956 
L 191.387079 17.378269 
L 191.916654 20.242685 
L 191.969612 20.338551 
L 192.093179 21.409213 
L 192.146137 21.409213 
L 192.357967 19.877668 
L 192.658059 17.565624 
L 192.799279 17.031825 
L 192.834584 16.999244 
L 193.064067 15.547619 
L 193.152329 15.547619 
L 193.275897 15.392094 
L 193.452422 15.291413 
L 193.628947 15.726031 
L 193.681905 15.726031 
L 193.805472 15.839407 
L 194.123217 15.991055 
L 194.21148 15.905632 
L 194.335047 15.642297 
L 194.388004 15.648738 
L 194.599834 16.519225 
L 194.77636 16.525104 
L 194.829317 16.380147 
L 194.952885 16.671498 
L 195.005842 16.671498 
L 195.094105 17.378456 
L 195.217672 18.328801 
L 195.394197 18.823516 
L 195.447155 18.84953 
L 195.570722 19.11618 
L 195.658985 19.104173 
L 195.97673 17.349815 
L 196.012035 17.350941 
L 196.153255 17.66693 
L 196.241517 17.572815 
L 196.365085 17.090545 
L 196.453347 16.980234 
L 196.594568 16.845846 
L 196.806398 15.042711 
L 196.982922 14.759803 
L 197.071185 14.759803 
L 197.424235 17.43824 
L 197.689023 26.802545 
L 197.918505 28.506313 
L 198.09503 29.377237 
L 198.130335 29.377237 
L 198.271555 27.585046 
L 198.536343 23.54666 
L 198.624605 23.54666 
L 198.80113 24.214597 
L 198.924698 24.176638 
L 199.01296 21.962336 
L 199.189486 16.401284 
L 199.242443 16.401284 
L 199.330705 16.114999 
L 199.36601 16.134135 
L 199.454273 16.250888 
L 199.595493 15.990242 
L 199.630798 16.17003 
L 199.719061 16.17003 
L 199.983848 17.142762 
L 200.125068 18.350063 
L 200.160373 18.350063 
L 200.389856 17.321174 
L 200.513423 17.725651 
L 200.601686 17.674122 
L 200.654643 17.771051 
L 200.689948 17.674122 
L 200.866473 17.53642 
L 201.007693 17.305978 
L 201.131261 17.400907 
L 201.272481 17.67531 
L 201.307786 17.67531 
L 201.607878 16.231126 
L 201.696141 16.231126 
L 201.837361 16.08517 
L 201.960928 16.831838 
L 202.190411 25.490061 
L 202.366936 27.289444 
L 202.719986 27.252235 
L 202.755291 27.2331 
L 202.843554 26.311521 
L 202.984773 24.35111 
L 203.020078 24.35111 
L 203.196604 27.071321 
L 203.284866 27.137296 
L 203.461391 27.38606 
L 203.602611 27.389874 
L 203.726179 27.525514 
L 204.432279 27.43784 
L 204.573499 27.231348 
L 204.608804 27.086392 
L 204.873591 24.95301 
L 205.050116 25.012544 
L 205.138379 25.245362 
L 205.191336 25.17995 
L 205.314904 25.118478 
L 205.367861 24.953697 
L 205.491429 18.032135 
L 205.544387 17.922386 
L 205.667954 17.287155 
L 205.809174 17.287155 
L 205.985699 18.62184 
L 206.197529 16.049775 
L 206.374054 16.103931 
L 206.427012 16.209552 
L 206.550579 16.73641 
L 206.638842 16.690947 
L 206.868324 15.929833 
L 207.080154 16.020258 
L 207.221374 16.457566 
L 207.256679 16.457566 
L 207.344942 15.666185 
L 207.609729 9.658384 
L 207.609729 9.658384 
" clip-path="url(#p56b25fddc8)" style="fill: none; stroke: #5c80b5; stroke-width: 0.5; stroke-linecap: square"/>
   </g>
   <g id="patch_3">
    <path d="M 59.527559 30.614173 
L 59.527559 3.401575 
" style="fill: none; stroke: #000000; stroke-width: 0.4; stroke-linejoin: miter; stroke-linecap: square"/>
   </g>
   <g id="patch_4">
    <path d="M 208.346457 30.614173 
L 208.346457 3.401575 
" style="fill: none; stroke: #000000; stroke-width: 0.4; stroke-linejoin: miter; stroke-linecap: square"/>
   </g>
   <g id="patch_5">
    <path d="M 59.527559 30.614173 
L 208.346457 30.614173 
" style="fill: none; stroke: #000000; stroke-width: 0.4; stroke-linejoin: miter; stroke-linecap: square"/>
   </g>
   <g id="patch_6">
    <path d="M 59.527559 3.401575 
L 208.346457 3.401575 
" style="fill: none; stroke: #000000; stroke-width: 0.4; stroke-linejoin: miter; stroke-linecap: square"/>
   </g>
  </g>
 </g>
 <defs>
  <clipPath id="p56b25fddc8">
   <rect x="59.527559" y="3.401575" width="148.818898" height="27.212598"/>
  </clipPath>
 </defs>
</svg>
