<?xml version="1.0" encoding="utf-8" standalone="no"?>
<!DOCTYPE svg PUBLIC "-//W3C//DTD SVG 1.1//EN"
  "http://www.w3.org/Graphics/SVG/1.1/DTD/svg11.dtd">
<svg xmlns:xlink="http://www.w3.org/1999/xlink" width="212.598425pt" height="42.519685pt" viewBox="0 0 212.598425 42.519685" xmlns="http://www.w3.org/2000/svg" version="1.1">
 <metadata>
  <rdf:RDF xmlns:dc="http://purl.org/dc/elements/1.1/" xmlns:cc="http://creativecommons.org/ns#" xmlns:rdf="http://www.w3.org/1999/02/22-rdf-syntax-ns#">
   <cc:Work>
    <dc:type rdf:resource="http://purl.org/dc/dcmitype/StillImage"/>
    <dc:date>2026-06-01T17:59:21.978225</dc:date>
    <dc:format>image/svg+xml</dc:format>
    <dc:creator>
     <cc:Agent>
      <dc:title>Matplotlib v3.10.8, https://matplotlib.org/</dc:title>
     </cc:Agent>
    </dc:creator>
   </cc:Work>
  </rdf:RDF>
 </metadata>
 <defs>
  <style type="text/css">*{stroke-linejoin: round; stroke-linecap: butt}</style>
 </defs>
 <g id="figure_1">
  <g id="patch_1">
   <path d="M 0 42.519685 
L 212.598425 42.519685 
L 212.598425 0 
L 0 0 
z
" style="fill: #ffffff"/>
  </g>
  <g id="axes_1">
   <g id="patch_2">
    <path d="M 59.527559 30.614173 
L 208.346457 30.614173 
L 208.346457 3.401575 
L 59.527559 3.401575 
z
" style="fill: #eaeaf2"/>
   </g>
   <g id="matplotlib.axis_1">
    <g id="xtick_1">
     <g id="line2d_1">
      <path d="M 60.264286 30.614173 
L 60.264286 3.401575 
" clip-path="url(#p6a3d7697c8)" style="fill: none; stroke: #ffffff; stroke-width: 0.9; stroke-linecap: square"/>
     </g>
     <g id="line2d_2">
      <defs>
       <path id="md510a7fba8" d="M 0 0 
L 0 2 
" style="stroke: #000000; stroke-width: 0.4"/>
      </defs>
      <g>
       <use xlink:href="#md510a7fba8" x="60.264286" y="30.614173" style="stroke: #000000; stroke-width: 0.4"/>
      </g>
     </g>
     <g id="text_1">
      <text style="font-size: 8px; font-family: 'DejaVu Sans', 'Bitstream Vera Sans', 'Computer Modern Sans Serif', 'Lucida Grande', 'Verdana', 'Geneva', 'Lucid', 'Arial', 'Helvetica', 'Avant Garde', sans-serif; text-anchor: middle" x="60.264286" y="42.192923" transform="rotate(-0 60.264286 42.192923)">0</text>
     </g>
    </g>
    <g id="xtick_2">
     <g id="line2d_3">
      <path d="M 92.007049 30.614173 
L 92.007049 3.401575 
" clip-path="url(#p6a3d7697c8)" style="fill: none; stroke: #ffffff; stroke-width: 0.9; stroke-linecap: square"/>
     </g>
     <g id="line2d_4">
      <g>
       <use xlink:href="#md510a7fba8" x="92.007049" y="30.614173" style="stroke: #000000; stroke-width: 0.4"/>
      </g>
     </g>
     <g id="text_2">
      <text style="font-size: 8px; font-family: 'DejaVu Sans', 'Bitstream Vera Sans', 'Computer Modern Sans Serif', 'Lucida Grande', 'Verdana', 'Geneva', 'Lucid', 'Arial', 'Helvetica', 'Avant Garde', sans-serif; text-anchor: middle" x="92.007049" y="42.192923" transform="rotate(-0 92.007049 42.192923)">60</text>
     </g>
    </g>
    <g id="xtick_3">
     <g id="line2d_5">
      <path d="M 123.749812 30.614173 
L 123.749812 3.401575 
" clip-path="url(#p6a3d7697c8)" style="fill: none; stroke: #ffffff; stroke-width: 0.9; stroke-linecap: square"/>
     </g>
     <g id="line2d_6">
      <g>
       <use xlink:href="#md510a7fba8" x="123.749812" y="30.614173" style="stroke: #000000; stroke-width: 0.4"/>
      </g>
     </g>
     <g id="text_3">
      <text style="font-size: 8px; font-family: 'DejaVu Sans', 'Bitstream Vera Sans', 'Computer Modern Sans Serif', 'Lucida Grande', 'Verdana', 'Geneva', 'Lucid', 'Arial', 'Helvetica', 'Avant Garde', sans-serif; text-anchor: middle" x="123.749812" y="42.192923" transform="rotate(-0 123.749812 42.192923)">120</text>
     </g>
    </g>
    <g id="xtick_4">
     <g id="line2d_7">
      <path d="M 155.492574 30.614173 
L 155.492574 3.401575 
" clip-path="url(#p6a3d7697c8)" style="fill: none; stroke: #ffffff; stroke-width: 0.9; stroke-linecap: square"/>
     </g>
     <g id="line2d_8">
      <g>
       <use xlink:href="#md510a7fba8" x="155.492574" y="30.614173" style="stroke: #000000; stroke-width: 0.4"/>
      </g>
     </g>
     <g id="text_4">
      <text style="font-size: 8px; font-family: 'DejaVu Sans', 'Bitstream Vera Sans', 'Computer Modern Sans Serif', 'Lucida Grande', 'Verdana', 'Geneva', 'Lucid', 'Arial', 'Helvetica', 'Avant Garde', sans-serif; text-anchor: middle" x="155.492574" y="42.192923" transform="rotate(-0 155.492574 42.192923)">180</text>
     </g>
    </g>
    <g id="xtick_5">
     <g id="line2d_9">
      <path d="M 187.235337 30.614173 
L 187.235337 3.401575 
" clip-path="url(#p6a3d7697c8)" style="fill: none; stroke: #ffffff; stroke-width: 0.9; stroke-linecap: square"/>
     </g>
     <g id="line2d_10">
      <g>
       <use xlink:href="#md510a7fba8" x="187.235337" y="30.614173" style="stroke: #000000; stroke-width: 0.4"/>
      </g>
     </g>
     <g id="text_5">
      <text style="font-size: 8px; font-family: 'DejaVu Sans', 'Bitstream Vera Sans', 'Computer Modern Sans Serif', 'Lucida Grande', 'Verdana', 'Geneva', 'Lucid', 'Arial', 'Helvetica', 'Avant Garde', sans-serif; text-anchor: middle" x="187.235337" y="42.192923" transform="rotate(-0 187.235337 42.192923)">240</text>
     </g>
    </g>
    <g id="xtick_6">
     <g id="line2d_11">
      <path d="M 76.135668 30.614173 
L 76.135668 3.401575 
" clip-path="url(#p6a3d7697c8)" style="fill: none; stroke: #ffffff; stroke-opacity: 0.9; stroke-width: 0.55; stroke-linecap: square"/>
     </g>
     <g id="line2d_12">
      <defs>
       <path id="m08e1d9977f" d="M 0 0 
L 0 2 
" style="stroke: #000000; stroke-width: 0.6"/>
      </defs>
      <g>
       <use xlink:href="#m08e1d9977f" x="76.135668" y="30.614173" style="stroke: #000000; stroke-width: 0.6"/>
      </g>
     </g>
    </g>
    <g id="xtick_7">
     <g id="line2d_13">
      <path d="M 107.87843 30.614173 
L 107.87843 3.401575 
" clip-path="url(#p6a3d7697c8)" style="fill: none; stroke: #ffffff; stroke-opacity: 0.9; stroke-width: 0.55; stroke-linecap: square"/>
     </g>
     <g id="line2d_14">
      <g>
       <use xlink:href="#m08e1d9977f" x="107.87843" y="30.614173" style="stroke: #000000; stroke-width: 0.6"/>
      </g>
     </g>
    </g>
    <g id="xtick_8">
     <g id="line2d_15">
      <path d="M 139.621193 30.614173 
L 139.621193 3.401575 
" clip-path="url(#p6a3d7697c8)" style="fill: none; stroke: #ffffff; stroke-opacity: 0.9; stroke-width: 0.55; stroke-linecap: square"/>
     </g>
     <g id="line2d_16">
      <g>
       <use xlink:href="#m08e1d9977f" x="139.621193" y="30.614173" style="stroke: #000000; stroke-width: 0.6"/>
      </g>
     </g>
    </g>
    <g id="xtick_9">
     <g id="line2d_17">
      <path d="M 171.363956 30.614173 
L 171.363956 3.401575 
" clip-path="url(#p6a3d7697c8)" style="fill: none; stroke: #ffffff; stroke-opacity: 0.9; stroke-width: 0.55; stroke-linecap: square"/>
     </g>
     <g id="line2d_18">
      <g>
       <use xlink:href="#m08e1d9977f" x="171.363956" y="30.614173" style="stroke: #000000; stroke-width: 0.6"/>
      </g>
     </g>
    </g>
    <g id="xtick_10">
     <g id="line2d_19">
      <path d="M 203.106719 30.614173 
L 203.106719 3.401575 
" clip-path="url(#p6a3d7697c8)" style="fill: none; stroke: #ffffff; stroke-opacity: 0.9; stroke-width: 0.55; stroke-linecap: square"/>
     </g>
     <g id="line2d_20">
      <g>
       <use xlink:href="#m08e1d9977f" x="203.106719" y="30.614173" style="stroke: #000000; stroke-width: 0.6"/>
      </g>
     </g>
    </g>
    <g id="text_6">
     <text style="font-size: 8px; font-family: 'DejaVu Sans', 'Bitstream Vera Sans', 'Computer Modern Sans Serif', 'Lucida Grande', 'Verdana', 'Geneva', 'Lucid', 'Arial', 'Helvetica', 'Avant Garde', sans-serif; text-anchor: middle" x="133.937008" y="53.935423" transform="rotate(-0 133.937008 53.935423)">time</text>
    </g>
   </g>
   <g id="matplotlib.axis_2">
    <g id="ytick_1">
     <g id="line2d_21">
      <path d="M 59.527559 23.600307 
L 208.346457 23.600307 
" clip-path="url(#p6a3d7697c8)" style="fill: none; stroke: #ffffff; stroke-width: 0.9; stroke-linecap: square"/>
     </g>
     <g id="line2d_22">
      <defs>
       <path id="m20f14c2420" d="M 0 0 
L -2 0 
" style="stroke: #000000; stroke-width: 0.4"/>
      </defs>
      <g>
       <use xlink:href="#m20f14c2420" x="59.527559" y="23.600307" style="stroke: #000000; stroke-width: 0.4"/>
      </g>
     </g>
     <g id="text_7">
      <text style="font-size: 8px; font-family: 'DejaVu Sans', 'Bitstream Vera Sans', 'Computer Modern Sans Serif', 'Lucida Grande', 'Verdana', 'Geneva', 'Lucid', 'Arial', 'Helvetica', 'Avant Garde', sans-serif; text-anchor: end" x="54.027559" y="26.639682" transform="rotate(-0 54.027559 26.639682)">−1.5</text>
     </g>
    </g>
    <g id="ytick_2">
     <g id="line2d_23">
      <path d="M 59.527559 13.762654 
L 208.346457 13.762654 
" clip-path="url(#p6a3d7697c8)" style="fill: none; stroke: #ffffff; stroke-width: 0.9; stroke-linecap: square"/>
     </g>
     <g id="line2d_24">
      <g>
       <use xlink:href="#m20f14c2420" x="59.527559" y="13.762654" style="stroke: #000000; stroke-width: 0.4"/>
      </g>
     </g>
     <g id="text_8">
      <text style="font-size: 8px; font-family: 'DejaVu Sans', 'Bitstream Vera Sans', 'Computer Modern Sans Serif', 'Lucida Grande', 'Verdana', 'Geneva', 'Lucid', 'Arial', 'Helvetica', 'Avant Garde', sans-serif; text-anchor: end" x="54.027559" y="16.802029" transform="rotate(-0 54.027559 16.802029)">0.0</text>
     </g>
    </g>
    <g id="ytick_3">
     <g id="line2d_25">
      <path d="M 59.527559 3.925001 
L 208.346457 3.925001 
" clip-path="url(#p6a3d7697c8)" style="fill: none; stroke: #ffffff; stroke-width: 0.9; stroke-linecap: square"/>
     </g>
     <g id="line2d_26">
      <g>
       <use xlink:href="#m20f14c2420" x="59.527559" y="3.925001" style="stroke: #000000; stroke-width: 0.4"/>
      </g>
     </g>
     <g id="text_9">
      <text style="font-size: 8px; font-family: 'DejaVu Sans', 'Bitstream Vera Sans', 'Computer Modern Sans Serif', 'Lucida Grande', 'Verdana', 'Geneva', 'Lucid', 'Arial', 'Helvetica', 'Avant Garde', sans-serif; text-anchor: end" x="54.027559" y="6.964376" transform="rotate(-0 54.027559 6.964376)">1.5</text>
     </g>
    </g>
    <g id="ytick_4">
     <g id="line2d_27">
      <path d="M 59.527559 28.519134 
L 208.346457 28.519134 
" clip-path="url(#p6a3d7697c8)" style="fill: none; stroke: #ffffff; stroke-opacity: 0.9; stroke-width: 0.55; stroke-linecap: square"/>
     </g>
     <g id="line2d_28">
      <defs>
       <path id="mcc928823fb" d="M 0 0 
L -2 0 
" style="stroke: #000000; stroke-width: 0.6"/>
      </defs>
      <g>
       <use xlink:href="#mcc928823fb" x="59.527559" y="28.519134" style="stroke: #000000; stroke-width: 0.6"/>
      </g>
     </g>
    </g>
    <g id="ytick_5">
     <g id="line2d_29">
      <path d="M 59.527559 18.681481 
L 208.346457 18.681481 
" clip-path="url(#p6a3d7697c8)" style="fill: none; stroke: #ffffff; stroke-opacity: 0.9; stroke-width: 0.55; stroke-linecap: square"/>
     </g>
     <g id="line2d_30">
      <g>
       <use xlink:href="#mcc928823fb" x="59.527559" y="18.681481" style="stroke: #000000; stroke-width: 0.6"/>
      </g>
     </g>
    </g>
    <g id="ytick_6">
     <g id="line2d_31">
      <path d="M 59.527559 8.843828 
L 208.346457 8.843828 
" clip-path="url(#p6a3d7697c8)" style="fill: none; stroke: #ffffff; stroke-opacity: 0.9; stroke-width: 0.55; stroke-linecap: square"/>
     </g>
     <g id="line2d_32">
      <g>
       <use xlink:href="#mcc928823fb" x="59.527559" y="8.843828" style="stroke: #000000; stroke-width: 0.6"/>
      </g>
     </g>
    </g>
    <g id="text_10">
     <text style="font-size: 8px; font-family: 'DejaVu Sans', 'Bitstream Vera Sans', 'Computer Modern Sans Serif', 'Lucida Grande', 'Verdana', 'Geneva', 'Lucid', 'Arial', 'Helvetica', 'Avant Garde', sans-serif; text-anchor: middle" x="28.715059" y="17.007874" transform="rotate(-90 28.715059 17.007874)">left_elbow_dy</text>
    </g>
   </g>
   <g id="line2d_33">
    <path d="M 60.264286 9.768106 
L 60.317244 9.73676 
L 60.582031 8.191314 
L 60.705599 6.766862 
L 60.846819 6.672824 
L 61.323436 7.818768 
L 61.764749 4.999858 
L 61.853012 4.999858 
L 62.029537 6.825894 
L 62.082494 6.825894 
L 62.206061 6.237025 
L 62.347282 6.201965 
L 62.523806 5.880799 
L 62.823899 5.888452 
L 62.965119 5.162157 
L 63.000424 5.162157 
L 63.229907 6.345356 
L 63.318169 6.345356 
L 63.529999 5.784792 
L 63.582957 5.832627 
L 63.618262 5.755642 
L 63.88305 5.728741 
L 64.024269 7.265408 
L 64.059574 7.265408 
L 64.200795 6.57226 
L 64.677412 6.478336 
L 64.818632 6.697924 
L 64.906894 6.617336 
L 65.08342 6.529208 
L 65.171682 6.429375 
L 65.29525 6.287504 
L 65.471775 5.498293 
L 65.560037 5.535547 
L 65.736562 7.472672 
L 65.877782 7.42692 
L 66.054307 7.258543 
L 66.49562 7.902675 
L 66.795713 7.863282 
L 66.972237 7.914888 
L 67.148762 7.990128 
L 67.325288 8.254962 
L 67.7666 7.382912 
L 67.996083 5.53414 
L 68.084345 6.659712 
L 68.207913 11.567524 
L 68.26087 11.567524 
L 68.4727 9.212832 
L 68.737488 9.035395 
L 68.878708 8.865611 
L 68.914013 8.865611 
L 69.090538 9.073156 
L 69.355325 9.06871 
L 69.567155 10.257142 
L 69.708376 7.013068 
L 69.831943 6.456951 
L 70.061425 4.638511 
L 70.184993 5.945629 
L 70.273256 5.98097 
L 70.626305 6.936139 
L 70.855788 6.911265 
L 70.94405 7.151168 
L 70.979356 7.141602 
L 71.120576 7.151168 
L 71.420668 7.467551 
L 71.597193 7.036422 
L 71.685456 7.036422 
L 71.826676 7.453426 
L 71.914938 7.453426 
L 72.038506 7.304858 
L 72.091463 7.262595 
L 72.215031 7.041544 
L 72.356251 7.041544 
L 72.479818 11.425034 
L 72.532776 11.425034 
L 72.744606 9.680034 
L 73.097656 9.977845 
L 73.238876 10.477124 
L 73.274181 10.477124 
L 73.415401 9.90283 
L 73.591926 9.90283 
L 73.715494 7.507057 
L 74.068543 7.609423 
L 74.386289 7.831824 
L 74.421594 7.831824 
L 74.562814 8.237854 
L 74.598119 8.237854 
L 74.651076 8.438365 
L 74.739339 8.385578 
L 74.774644 8.385578 
L 74.862906 8.683277 
L 75.004127 9.774577 
L 75.039431 9.774577 
L 75.180651 9.264944 
L 75.215957 9.264944 
L 75.268914 9.583183 
L 75.392481 12.032869 
L 75.445439 12.032869 
L 75.621964 10.35343 
L 76.010319 9.919938 
L 76.275107 9.73766 
L 76.363369 10.58962 
L 76.504589 11.018329 
L 76.539894 11.018329 
L 76.681114 10.586693 
L 76.716419 10.586693 
L 76.857639 10.868072 
L 76.892944 10.868072 
L 77.069469 9.475021 
L 77.210689 9.484645 
L 77.387214 10.251234 
L 77.475477 10.251234 
L 77.599044 10.866834 
L 77.740264 10.666492 
L 77.828527 10.605321 
L 77.952094 9.963101 
L 78.305144 10.052974 
L 78.746457 10.616126 
L 78.958287 10.191074 
L 79.364294 10.167213 
L 79.487862 9.945543 
L 79.805607 9.835862 
L 79.893869 9.82123 
L 80.017437 9.568439 
L 80.1057 9.467649 
L 80.158657 9.357742 
L 80.635275 15.814095 
L 80.8118 13.772072 
L 80.864757 13.772072 
L 80.988325 14.202976 
L 81.041283 14.340176 
L 81.076587 14.202976 
L 81.129545 13.959639 
L 81.253113 11.60703 
L 81.5179 14.175457 
L 81.835645 16.632064 
L 81.87095 16.708205 
L 82.047475 17.574121 
L 82.188695 17.574121 
L 82.57705 15.638121 
L 82.665313 15.638121 
L 82.841838 16.007516 
L 82.9301 16.080561 
L 83.018363 16.004702 
L 83.194888 14.751721 
L 83.336108 14.84784 
L 83.371413 15.248299 
L 83.600895 19.867584 
L 83.812725 19.934609 
L 83.953946 20.254819 
L 83.98925 20.254819 
L 84.165776 17.003259 
L 84.218733 17.003259 
L 84.306995 17.762982 
L 84.483521 20.624775 
L 84.518825 20.624775 
L 85.048401 11.602134 
L 85.101358 11.661167 
L 85.313188 12.886122 
L 85.542671 14.494653 
L 85.807458 15.008564 
L 85.842763 14.989374 
L 85.983983 14.940526 
L 86.107551 14.329934 
L 86.195813 14.110627 
L 86.284076 13.681299 
L 86.637126 7.126126 
L 87.166701 6.163922 
L 87.254963 6.163922 
L 87.290269 6.290093 
L 87.343226 6.163922 
L 87.519751 6.007701 
L 87.608014 6.007701 
L 87.872801 7.484828 
L 87.908106 7.495576 
L 87.996368 7.793275 
L 88.349419 16.186698 
L 88.614206 25.186435 
L 88.667164 25.365843 
L 88.702469 25.186435 
L 88.755426 24.966341 
L 88.790731 25.186435 
L 88.878994 25.537314 
L 89.020214 23.243569 
L 89.232044 17.344628 
L 89.285001 17.344628 
L 89.461527 12.090608 
L 89.849881 12.158645 
L 89.902839 12.467712 
L 90.114669 24.49233 
L 90.167626 24.49233 
L 90.379456 20.505527 
L 90.555982 25.259819 
L 90.909031 25.309173 
L 91.085557 20.295449 
L 91.438606 16.012918 
L 91.579827 24.910965 
L 91.615132 24.910965 
L 91.791657 13.33132 
L 91.879919 13.33132 
L 92.021139 12.089538 
L 92.285927 12.193255 
L 92.37419 12.47559 
L 92.58602 12.723148 
L 92.903765 12.47953 
L 92.992027 12.567826 
L 93.027332 12.47953 
L 93.080289 12.567826 
L 93.115595 12.789778 
L 93.168552 12.721741 
L 93.256814 12.626747 
L 93.556907 13.158947 
L 93.609864 13.193276 
L 93.64517 13.362384 
L 93.698127 13.158947 
L 93.821694 12.962432 
L 93.962915 12.562762 
L 94.086482 12.518585 
L 94.139439 13.129178 
L 94.263007 25.347328 
L 94.404227 25.347328 
L 95.05737 22.047484 
L 95.110327 21.542578 
L 95.286853 13.170315 
L 95.41042 12.306538 
L 95.463377 12.386337 
L 95.62225 10.347184 
L 95.76347 5.099184 
L 95.798775 5.099184 
L 96.293045 6.891456 
L 96.416612 6.843509 
L 96.6814 6.145464 
L 96.857925 6.337308 
L 96.946187 6.145464 
L 97.087408 6.627297 
L 97.122713 6.228864 
L 97.17567 6.57935 
L 97.352195 6.646487 
L 97.3875 6.646487 
L 97.616983 7.055668 
L 97.88177 10.228442 
L 98.270125 9.658762 
L 98.411346 9.130613 
L 98.534913 8.599539 
L 98.623176 8.695377 
L 98.764395 11.096777 
L 98.940921 11.096777 
L 99.117445 11.328521 
L 99.382233 11.533083 
L 99.505801 12.228258 
L 100.088333 12.118577 
L 100.264858 11.728473 
L 100.653213 11.764489 
L 100.882696 11.855037 
L 100.970958 11.76584 
L 101.147483 11.644115 
L 101.235746 11.764546 
L 101.359313 12.094772 
L 101.624101 12.502321 
L 101.800626 13.025574 
L 102.294896 12.98438 
L 102.330201 12.831478 
L 102.471421 9.058749 
L 102.736209 9.081372 
L 102.948039 9.596127 
L 103.036301 9.596127 
L 103.212826 8.901571 
L 103.301089 8.884519 
L 103.618834 8.326488 
L 103.654139 8.385804 
L 103.830664 9.311822 
L 103.971884 12.165567 
L 104.007189 12.165567 
L 104.060146 11.276241 
L 104.183714 6.044506 
L 104.271976 6.044506 
L 104.448502 7.050098 
L 104.713289 6.119634 
L 104.748594 6.119634 
L 104.925119 6.931861 
L 105.066339 7.148861 
L 105.278169 8.100204 
L 105.454694 8.100204 
L 105.772439 7.650391 
L 105.896007 7.488598 
L 106.037227 7.159104 
L 106.125489 7.159104 
L 106.249057 7.591864 
L 107.131682 7.664741 
L 107.714214 8.077299 
L 107.926045 7.780163 
L 108.10257 7.685507 
L 108.367357 7.640824 
L 108.720407 7.724788 
L 109.30294 7.946627 
L 109.603032 7.886187 
L 109.744253 7.886187 
L 109.832515 7.886187 
L 110.00904 7.654837 
L 110.22087 7.621972 
L 110.538615 8.025188 
L 110.803403 7.952649 
L 111.103495 7.176324 
L 111.244715 7.079417 
L 111.368283 6.500452 
L 111.544808 6.207142 
L 111.721333 6.077821 
L 111.862553 5.816701 
L 111.897858 6.014791 
L 111.98612 6.074951 
L 112.162645 6.789821 
L 112.33917 6.994047 
L 112.603958 6.007645 
L 112.83344 5.447475 
L 113.009965 6.163134 
L 113.133533 6.10337 
L 113.186491 6.028411 
L 113.2571 6.120646 
L 113.433625 6.165949 
L 113.486583 6.315361 
L 113.521888 6.199039 
L 113.698413 6.199039 
L 113.839633 6.93884 
L 114.10442 8.541349 
L 114.404513 8.648836 
L 114.545733 8.990656 
L 114.987046 9.026334 
L 115.110613 8.83117 
L 115.957933 8.805621 
L 116.134458 8.407413 
L 116.310984 8.37663 
L 116.611076 8.683952 
L 116.699338 8.759081 
L 116.964126 8.910519 
L 117.052389 8.910519 
L 117.193609 9.051715 
L 117.405439 9.127687 
L 117.546659 9.470463 
L 117.811446 9.973062 
L 117.846751 9.955448 
L 118.199801 8.884744 
L 118.252759 8.829763 
L 118.429284 7.086789 
L 118.605809 6.961407 
L 118.870596 7.2066 
L 118.994164 7.08994 
L 119.170689 7.249989 
L 119.435477 7.225903 
L 119.876789 6.347156 
L 120.053314 6.440293 
L 120.229839 6.865456 
L 120.724109 7.485559 
L 120.759414 7.468845 
L 120.935939 7.077729 
L 121.165422 7.077729 
L 121.28899 6.817565 
L 121.341947 6.763091 
L 121.377252 6.817565 
L 121.518472 6.94942 
L 121.553777 6.904849 
L 121.730302 6.866976 
L 121.995089 6.866976 
L 122.171614 7.249032 
L 122.295182 7.330576 
L 122.70119 7.188254 
L 122.824757 6.943961 
L 123.001282 7.054205 
L 123.530857 6.971199 
L 123.61912 6.904569 
L 123.883907 6.618406 
L 124.289915 7.021172 
L 124.413483 7.34684 
L 124.46644 7.34684 
L 124.907752 6.045856 
L 125.119582 11.48131 
L 125.260803 10.832731 
L 125.349065 10.638355 
L 125.472633 6.365391 
L 125.52559 6.365391 
L 125.702115 7.515892 
L 125.73742 7.515892 
L 126.178733 6.213839 
L 126.355258 6.309565 
L 126.496478 6.650371 
L 126.620045 6.567645 
L 126.761265 6.509175 
L 126.849528 6.615367 
L 126.884833 6.567645 
L 126.93779 6.509175 
L 127.026053 6.678171 
L 127.14962 6.365333 
L 127.326146 6.57136 
L 127.555628 8.849797 
L 127.679195 9.138661 
L 127.732153 9.138661 
L 128.085203 8.107182 
L 128.208771 9.521956 
L 128.438253 18.763848 
L 128.56182 25.434443 
L 128.914871 26.827831 
L 129.232616 25.721731 
L 129.320878 21.460753 
L 129.532708 12.593038 
L 129.709233 12.593038 
L 129.850453 12.896871 
L 129.938716 16.988966 
L 130.115241 25.395726 
L 130.291766 25.301801 
L 130.468291 22.48863 
L 130.591858 22.48863 
L 130.768384 23.647405 
L 130.821341 23.647405 
L 131.156738 13.371501 
L 131.245001 13.485685 
L 131.421526 13.766051 
L 131.774576 24.524576 
L 131.951101 23.375537 
L 132.180584 22.429091 
L 132.621896 8.639438 
L 132.657201 8.639438 
L 132.833727 8.328233 
L 132.921989 8.485468 
L 133.098514 9.185876 
L 133.186776 9.142656 
L 133.451564 8.412816 
L 133.504521 8.305216 
L 133.628089 7.837677 
L 133.681047 7.837677 
L 133.981139 12.465911 
L 134.034097 12.465911 
L 134.334189 6.845028 
L 134.598976 6.40287 
L 134.740197 6.820154 
L 134.863764 7.046271 
L 135.040289 7.613362 
L 135.216814 8.109996 
L 135.358034 8.732913 
L 135.393339 8.732913 
L 135.534559 8.404431 
L 135.711084 8.32525 
L 135.799347 8.060417 
L 135.975872 7.511559 
L 136.064135 7.511559 
L 136.187702 7.929632 
L 136.240659 7.929632 
L 136.417184 6.939403 
L 136.681972 6.39319 
L 136.770234 6.39319 
L 136.982064 7.189211 
L 137.335115 10.245719 
L 137.564597 10.245719 
L 137.599902 10.389165 
L 137.65286 10.22045 
L 137.741122 10.202836 
L 137.86469 6.582895 
L 138.535485 6.396679 
L 138.747315 5.856713 
L 138.835577 5.856713 
L 138.976798 6.412437 
L 139.012102 6.412437 
L 139.188628 5.836735 
L 139.329847 6.00258 
L 139.594635 6.103539 
L 139.682897 6.222787 
L 139.84177 6.690046 
L 139.930033 6.763823 
L 140.106557 7.364228 
L 140.247778 7.600643 
L 140.371345 7.600756 
L 140.459608 7.834863 
L 140.54787 7.610379 
L 140.636133 8.160194 
L 140.777353 12.759614 
L 140.90092 12.759614 
L 141.25397 8.691269 
L 141.306928 8.691269 
L 141.39519 6.531685 
L 141.518758 5.282025 
L 141.60702 5.292886 
L 141.783546 7.699238 
L 141.96007 7.758722 
L 142.313121 6.830903 
L 142.489645 7.114196 
L 142.930958 7.512516 
L 143.072178 7.512516 
L 143.425228 18.5917 
L 143.690016 18.5917 
L 143.778278 18.905831 
L 143.901846 17.683577 
L 143.954803 17.406644 
L 144.043066 12.998786 
L 144.219591 7.289382 
L 144.254896 7.289382 
L 144.396116 7.476724 
L 144.484379 7.476724 
L 144.572641 9.448403 
L 144.696209 11.910525 
L 144.749166 12.001129 
L 144.925691 14.247884 
L 144.960996 14.301515 
L 145.102216 15.052966 
L 145.190478 15.141825 
L 145.314046 15.480662 
L 145.543529 15.480662 
L 145.755359 14.941821 
L 145.843621 14.971928 
L 146.108409 15.607957 
L 146.284934 14.8968 
L 146.426154 14.916272 
L 146.690941 14.94908 
L 146.867466 15.447571 
L 146.955729 15.447571 
L 147.079296 14.892411 
L 147.220516 14.892411 
L 147.344084 15.172833 
L 147.608872 22.421662 
L 147.661829 22.421662 
L 147.697134 22.181027 
L 148.050184 14.114792 
L 148.138447 14.114792 
L 148.403234 14.950487 
L 148.491497 13.777981 
L 148.703327 7.692823 
L 148.844546 7.043007 
L 148.879852 7.043007 
L 149.021072 7.2326 
L 149.056376 7.2326 
L 149.321164 6.726905 
L 149.462384 12.241089 
L 149.497689 12.364952 
L 149.638909 13.790193 
L 149.727172 13.825534 
L 149.903697 14.113103 
L 150.080222 19.06301 
L 156.876436 12.724611 
L 157.000003 13.145723 
L 157.353053 20.520834 
L 157.617841 20.612732 
L 157.829671 21.835437 
L 158.094458 18.977977 
L 158.147416 18.991596 
L 158.182721 19.439494 
L 158.447508 27.490422 
L 158.712296 27.529423 
L 158.853516 26.744318 
L 158.977083 17.737771 
L 159.118303 17.737771 
L 159.241871 26.38404 
L 159.330133 26.38404 
L 159.471354 25.277658 
L 159.559616 25.325999 
L 159.859708 27.429363 
L 160.000929 27.306682 
L 160.124496 26.004742 
L 160.301021 25.948916 
L 160.477546 26.812355 
L 160.618766 26.907519 
L 160.918859 27.435103 
L 161.060079 27.435103 
L 161.183646 26.722032 
L 161.236604 26.725635 
L 161.413129 27.469824 
L 161.536696 28.529104 
L 161.677916 28.529104 
L 161.889746 25.480308 
L 162.030966 19.730103 
L 162.154534 27.205386 
L 162.207491 27.205386 
L 162.331059 27.481363 
L 162.560541 27.439155 
L 162.913592 23.78725 
L 163.001854 23.78725 
L 163.443167 29.364631 
L 163.619692 29.161364 
L 163.707954 29.377237 
L 163.831522 28.529162 
L 164.008047 27.562793 
L 164.096309 27.562793 
L 164.325792 26.471943 
L 164.449359 28.486393 
L 164.502317 28.486393 
L 164.537622 28.327469 
L 164.767105 24.237231 
L 164.802409 24.237231 
L 164.943629 21.388664 
L 164.978935 21.388664 
L 165.031892 21.855077 
L 165.155459 23.218808 
L 165.208417 23.218808 
L 165.420247 12.016718 
L 165.50851 12.016718 
L 165.826255 12.607838 
L 165.86156 12.461071 
L 166.002779 8.233465 
L 166.038085 8.233465 
L 166.091042 10.56801 
L 166.214609 19.207469 
L 166.249915 19.207469 
L 166.426439 20.112497 
L 166.56766 24.057374 
L 166.691227 24.635833 
L 166.867752 19.771409 
L 166.92071 19.704159 
L 167.044277 17.636925 
L 167.13254 17.682114 
L 167.309065 27.917669 
L 167.450285 28.260725 
L 167.62681 28.508676 
L 167.662115 28.360841 
L 167.926902 19.620534 
L 168.103428 24.483438 
L 168.279952 25.019296 
L 168.421173 25.679861 
L 168.456478 25.679861 
L 168.509435 24.578207 
L 168.721265 11.944347 
L 168.862485 11.807372 
L 168.89779 11.944347 
L 169.162578 26.229788 
L 169.215535 26.229788 
L 169.25084 25.93344 
L 169.60389 11.775013 
L 169.74511 11.780978 
L 169.780415 12.38538 
L 169.95694 26.275935 
L 170.09816 26.399065 
L 170.133465 26.399065 
L 170.274686 25.779526 
L 170.45121 25.779526 
L 170.892523 22.356325 
L 171.104353 12.670417 
L 171.15731 12.670417 
L 171.245573 13.278365 
L 171.369141 27.178148 
L 171.545666 28.477556 
L 171.810453 29.34094 
L 171.863411 29.34094 
L 171.898716 28.626011 
L 172.075241 20.071978 
L 172.251765 18.343467 
L 172.428291 12.565069 
L 172.569511 12.265457 
L 172.604816 11.872652 
L 172.746036 9.880882 
L 172.781341 9.880882 
L 172.922561 10.620459 
L 172.957866 10.620459 
L 173.134391 5.472969 
L 173.275611 5.472969 
L 173.487441 6.47873 
L 173.575703 6.47873 
L 173.752228 6.1023 
L 173.928754 6.858253 
L 174.334761 7.620734 
L 174.370066 8.044659 
L 174.546591 14.537423 
L 174.952598 18.897559 
L 175.076166 20.105913 
L 175.111471 20.105913 
L 175.199734 19.564089 
L 175.376259 15.358374 
L 175.517479 15.358374 
L 175.905834 21.150167 
L 176.082359 19.267685 
L 176.258884 19.100658 
L 176.311842 19.161493 
L 176.435409 19.120355 
L 176.611934 19.580634 
L 176.700196 19.580634 
L 177.106204 22.010511 
L 177.141509 22.010511 
L 177.318034 19.701909 
L 177.406297 19.701909 
L 177.547516 19.870849 
L 177.582822 19.870849 
L 177.759346 17.809522 
L 177.812304 17.793034 
L 177.935872 17.141079 
L 178.112397 15.578807 
L 178.288922 14.934561 
L 178.377184 15.228433 
L 178.518404 16.80303 
L 178.641972 16.788624 
L 178.871454 15.299228 
L 178.90676 15.299228 
L 179.259809 22.275401 
L 179.436335 22.275401 
L 179.612859 18.554558 
L 179.789384 18.552757 
L 179.842342 18.707234 
L 180.054172 21.840333 
L 180.10713 21.840333 
L 180.407222 16.725932 
L 180.460179 17.654708 
L 180.495485 17.694664 
L 180.672009 19.505731 
L 180.81323 19.505731 
L 180.901492 16.695037 
L 181.02506 15.267151 
L 181.16628 15.111999 
L 181.254542 15.111999 
L 181.554635 18.905437 
L 181.73116 21.322708 
L 181.819423 21.322708 
L 182.08421 18.35596 
L 182.260735 18.762103 
L 182.43726 20.712791 
L 182.525522 20.712791 
L 182.613785 19.494926 
L 182.93153 14.611932 
L 183.108055 14.597751 
L 183.14336 14.689255 
L 183.231623 17.640808 
L 183.408148 23.725797 
L 183.584672 23.99609 
L 183.761198 23.904135 
L 183.973028 23.999466 
L 184.149553 24.053266 
L 184.20251 24.053266 
L 184.326078 23.858721 
L 184.590865 23.823154 
L 184.732086 22.099258 
L 184.855653 19.365604 
L 185.12044 19.11664 
L 185.879498 19.012418 
L 186.091328 19.048659 
L 186.267853 19.818343 
L 186.532641 23.2555 
L 186.673861 23.410315 
L 186.709166 23.353983 
L 186.797428 23.296582 
L 186.973953 22.330213 
L 187.291698 20.227525 
L 187.468223 20.301808 
L 187.556486 22.114903 
L 187.680053 23.061462 
L 187.856579 22.975866 
L 187.997798 22.533032 
L 188.121366 20.932661 
L 188.262586 20.594274 
L 188.386154 20.316778 
L 188.439111 20.316778 
L 188.562678 20.477389 
L 188.615636 20.477389 
L 188.703899 19.788236 
L 188.968686 16.87028 
L 189.003991 17.241644 
L 189.180516 18.513871 
L 189.321736 20.024144 
L 189.357041 20.024144 
L 189.409998 19.391548 
L 189.533566 16.657107 
L 189.674786 16.435043 
L 189.798354 16.079548 
L 189.939574 16.075159 
L 190.116099 14.771587 
L 190.151404 14.771587 
L 190.416191 15.498163 
L 190.592716 17.237423 
L 190.645674 17.295162 
L 190.769242 18.384718 
L 191.034029 18.518485 
L 191.175249 19.089178 
L 191.210554 19.089178 
L 191.387079 16.257267 
L 191.528299 16.257267 
L 191.704824 18.444595 
L 191.740129 18.444595 
L 192.004916 15.670142 
L 192.357967 14.634836 
L 192.534492 14.620599 
L 192.922847 13.862339 
L 193.011109 13.992504 
L 193.099372 14.813737 
L 193.240592 15.991871 
L 193.540684 16.40139 
L 193.628947 16.315457 
L 193.805472 15.060281 
L 193.946692 15.060281 
L 193.981997 15.211213 
L 194.034954 15.162928 
L 194.070259 15.060281 
L 194.123217 15.162928 
L 194.246784 15.27306 
L 194.511572 18.108854 
L 194.56453 17.883075 
L 194.599834 18.216847 
L 194.688097 18.53835 
L 194.741055 18.493611 
L 194.864622 16.796783 
L 195.041147 14.681883 
L 195.094105 14.681883 
L 195.217672 15.005694 
L 195.305935 15.005694 
L 195.48246 14.629547 
L 195.711942 14.678 
L 196.064992 21.878488 
L 196.18856 21.960369 
L 196.241517 21.960369 
L 196.365085 20.733782 
L 196.453347 20.768279 
L 196.54161 21.2908 
L 196.718135 24.149272 
L 196.89466 24.422379 
L 197.03588 24.912598 
L 197.071185 24.912598 
L 197.24771 24.224794 
L 197.335973 23.45224 
L 197.512497 17.373554 
L 197.653718 16.294691 
L 197.95381 14.361055 
L 198.042072 14.219127 
L 198.130335 14.041014 
L 198.395123 15.204066 
L 198.65991 21.655186 
L 198.80113 21.655186 
L 198.977655 20.884038 
L 199.101223 20.884038 
L 199.242443 21.400876 
L 199.418968 21.443926 
L 199.454273 21.696323 
L 199.595493 24.412136 
L 199.683755 24.412136 
L 199.86028 19.706917 
L 200.036806 15.292081 
L 200.125068 15.172101 
L 200.336898 16.243986 
L 200.513423 19.055413 
L 200.601686 19.259862 
L 200.778211 20.481891 
L 200.831168 20.481891 
L 200.919431 18.670598 
L 201.219523 14.321549 
L 201.449006 15.325847 
L 201.484311 15.325847 
L 201.607878 15.048801 
L 201.784403 15.098943 
L 201.960928 15.815446 
L 202.190411 20.570075 
L 202.278673 20.570075 
L 202.402241 20.778015 
L 202.455198 20.788482 
L 202.578766 20.96727 
L 202.843554 21.069354 
L 202.984773 19.61046 
L 203.020078 19.61046 
L 203.161299 20.836429 
L 203.373129 20.875991 
L 203.549653 21.321977 
L 203.726179 21.21117 
L 204.132186 20.977399 
L 204.344016 21.152924 
L 204.485236 21.091133 
L 204.750024 20.578291 
L 204.873591 19.957457 
L 205.014812 18.882308 
L 205.191336 18.919732 
L 205.314904 19.603989 
L 205.367861 19.603989 
L 205.491429 16.673539 
L 205.579691 16.741239 
L 205.897437 18.925865 
L 206.021004 18.723779 
L 206.073962 18.723779 
L 206.197529 18.168675 
L 206.427012 18.168675 
L 206.550579 18.428331 
L 206.603537 18.43621 
L 206.727104 18.705996 
L 206.991892 18.738861 
L 207.168417 18.324952 
L 207.397899 19.028287 
L 207.486162 18.23598 
L 207.609729 16.863414 
L 207.609729 16.863414 
" clip-path="url(#p6a3d7697c8)" style="fill: none; stroke: #5c80b5; stroke-width: 0.5; stroke-linecap: square"/>
   </g>
   <g id="patch_3">
    <path d="M 59.527559 30.614173 
L 59.527559 3.401575 
" style="fill: none; stroke: #000000; stroke-width: 0.4; stroke-linejoin: miter; stroke-linecap: square"/>
   </g>
   <g id="patch_4">
    <path d="M 208.346457 30.614173 
L 208.346457 3.401575 
" style="fill: none; stroke: #000000; stroke-width: 0.4; stroke-linejoin: miter; stroke-linecap: square"/>
   </g>
   <g id="patch_5">
    <path d="M 59.527559 30.614173 
L 208.346457 30.614173 
" style="fill: none; stroke: #000000; stroke-width: 0.4; stroke-linejoin: miter; stroke-linecap: square"/>
   </g>
   <g id="patch_6">
    <path d="M 59.527559 3.401575 
L 208.346457 3.401575 
" style="fill: none; stroke: #000000; stroke-width: 0.4; stroke-linejoin: miter; stroke-linecap: square"/>
   </g>
  </g>
 </g>
 <defs>
  <clipPath id="p6a3d7697c8">
   <rect x="59.527559" y="3.401575" width="148.818898" height="27.212598"/>
  </clipPath>
 </defs>
</svg>
