<?xml version="1.0" encoding="utf-8" standalone="no"?>
<!DOCTYPE svg PUBLIC "-//W3C//DTD SVG 1.1//EN"
  "http://www.w3.org/Graphics/SVG/1.1/DTD/svg11.dtd">
<svg xmlns:xlink="http://www.w3.org/1999/xlink" width="212.598425pt" height="42.519685pt" viewBox="0 0 212.598425 42.519685" xmlns="http://www.w3.org/2000/svg" version="1.1">
 <metadata>
  <rdf:RDF xmlns:dc="http://purl.org/dc/elements/1.1/" xmlns:cc="http://creativecommons.org/ns#" xmlns:rdf="http://www.w3.org/1999/02/22-rdf-syntax-ns#">
   <cc:Work>
    <dc:type rdf:resource="http://purl.org/dc/dcmitype/StillImage"/>
    <dc:date>2026-06-01T17:59:23.272827</dc:date>
    <dc:format>image/svg+xml</dc:format>
    <dc:creator>
     <cc:Agent>
      <dc:title>Matplotlib v3.10.8, https://matplotlib.org/</dc:title>
     </cc:Agent>
    </dc:creator>
   </cc:Work>
  </rdf:RDF>
 </metadata>
 <defs>
  <style type="text/css">*{stroke-linejoin: round; stroke-linecap: butt}</style>
 </defs>
 <g id="figure_1">
  <g id="patch_1">
   <path d="M 0 42.519685 
L 212.598425 42.519685 
L 212.598425 0 
L 0 0 
z
" style="fill: #ffffff"/>
  </g>
  <g id="axes_1">
   <g id="patch_2">
    <path d="M 59.527559 30.614173 
L 208.346457 30.614173 
L 208.346457 3.401575 
L 59.527559 3.401575 
z
" style="fill: #eaeaf2"/>
   </g>
   <g id="matplotlib.axis_1">
    <g id="xtick_1">
     <g id="line2d_1">
      <path d="M 60.264286 30.614173 
L 60.264286 3.401575 
" clip-path="url(#p303d78c20c)" style="fill: none; stroke: #ffffff; stroke-width: 0.9; stroke-linecap: square"/>
     </g>
     <g id="line2d_2">
      <defs>
       <path id="mcf78c693fc" d="M 0 0 
L 0 2 
" style="stroke: #000000; stroke-width: 0.4"/>
      </defs>
      <g>
       <use xlink:href="#mcf78c693fc" x="60.264286" y="30.614173" style="stroke: #000000; stroke-width: 0.4"/>
      </g>
     </g>
     <g id="text_1">
      <text style="font-size: 8px; font-family: 'DejaVu Sans', 'Bitstream Vera Sans', 'Computer Modern Sans Serif', 'Lucida Grande', 'Verdana', 'Geneva', 'Lucid', 'Arial', 'Helvetica', 'Avant Garde', sans-serif; text-anchor: middle" x="60.264286" y="42.192923" transform="rotate(-0 60.264286 42.192923)">0</text>
     </g>
    </g>
    <g id="xtick_2">
     <g id="line2d_3">
      <path d="M 92.007049 30.614173 
L 92.007049 3.401575 
" clip-path="url(#p303d78c20c)" style="fill: none; stroke: #ffffff; stroke-width: 0.9; stroke-linecap: square"/>
     </g>
     <g id="line2d_4">
      <g>
       <use xlink:href="#mcf78c693fc" x="92.007049" y="30.614173" style="stroke: #000000; stroke-width: 0.4"/>
      </g>
     </g>
     <g id="text_2">
      <text style="font-size: 8px; font-family: 'DejaVu Sans', 'Bitstream Vera Sans', 'Computer Modern Sans Serif', 'Lucida Grande', 'Verdana', 'Geneva', 'Lucid', 'Arial', 'Helvetica', 'Avant Garde', sans-serif; text-anchor: middle" x="92.007049" y="42.192923" transform="rotate(-0 92.007049 42.192923)">60</text>
     </g>
    </g>
    <g id="xtick_3">
     <g id="line2d_5">
      <path d="M 123.749812 30.614173 
L 123.749812 3.401575 
" clip-path="url(#p303d78c20c)" style="fill: none; stroke: #ffffff; stroke-width: 0.9; stroke-linecap: square"/>
     </g>
     <g id="line2d_6">
      <g>
       <use xlink:href="#mcf78c693fc" x="123.749812" y="30.614173" style="stroke: #000000; stroke-width: 0.4"/>
      </g>
     </g>
     <g id="text_3">
      <text style="font-size: 8px; font-family: 'DejaVu Sans', 'Bitstream Vera Sans', 'Computer Modern Sans Serif', 'Lucida Grande', 'Verdana', 'Geneva', 'Lucid', 'Arial', 'Helvetica', 'Avant Garde', sans-serif; text-anchor: middle" x="123.749812" y="42.192923" transform="rotate(-0 123.749812 42.192923)">120</text>
     </g>
    </g>
    <g id="xtick_4">
     <g id="line2d_7">
      <path d="M 155.492574 30.614173 
L 155.492574 3.401575 
" clip-path="url(#p303d78c20c)" style="fill: none; stroke: #ffffff; stroke-width: 0.9; stroke-linecap: square"/>
     </g>
     <g id="line2d_8">
      <g>
       <use xlink:href="#mcf78c693fc" x="155.492574" y="30.614173" style="stroke: #000000; stroke-width: 0.4"/>
      </g>
     </g>
     <g id="text_4">
      <text style="font-size: 8px; font-family: 'DejaVu Sans', 'Bitstream Vera Sans', 'Computer Modern Sans Serif', 'Lucida Grande', 'Verdana', 'Geneva', 'Lucid', 'Arial', 'Helvetica', 'Avant Garde', sans-serif; text-anchor: middle" x="155.492574" y="42.192923" transform="rotate(-0 155.492574 42.192923)">180</text>
     </g>
    </g>
    <g id="xtick_5">
     <g id="line2d_9">
      <path d="M 187.235337 30.614173 
L 187.235337 3.401575 
" clip-path="url(#p303d78c20c)" style="fill: none; stroke: #ffffff; stroke-width: 0.9; stroke-linecap: square"/>
     </g>
     <g id="line2d_10">
      <g>
       <use xlink:href="#mcf78c693fc" x="187.235337" y="30.614173" style="stroke: #000000; stroke-width: 0.4"/>
      </g>
     </g>
     <g id="text_5">
      <text style="font-size: 8px; font-family: 'DejaVu Sans', 'Bitstream Vera Sans', 'Computer Modern Sans Serif', 'Lucida Grande', 'Verdana', 'Geneva', 'Lucid', 'Arial', 'Helvetica', 'Avant Garde', sans-serif; text-anchor: middle" x="187.235337" y="42.192923" transform="rotate(-0 187.235337 42.192923)">240</text>
     </g>
    </g>
    <g id="xtick_6">
     <g id="line2d_11">
      <path d="M 76.135668 30.614173 
L 76.135668 3.401575 
" clip-path="url(#p303d78c20c)" style="fill: none; stroke: #ffffff; stroke-opacity: 0.9; stroke-width: 0.55; stroke-linecap: square"/>
     </g>
     <g id="line2d_12">
      <defs>
       <path id="mf44434a008" d="M 0 0 
L 0 2 
" style="stroke: #000000; stroke-width: 0.6"/>
      </defs>
      <g>
       <use xlink:href="#mf44434a008" x="76.135668" y="30.614173" style="stroke: #000000; stroke-width: 0.6"/>
      </g>
     </g>
    </g>
    <g id="xtick_7">
     <g id="line2d_13">
      <path d="M 107.87843 30.614173 
L 107.87843 3.401575 
" clip-path="url(#p303d78c20c)" style="fill: none; stroke: #ffffff; stroke-opacity: 0.9; stroke-width: 0.55; stroke-linecap: square"/>
     </g>
     <g id="line2d_14">
      <g>
       <use xlink:href="#mf44434a008" x="107.87843" y="30.614173" style="stroke: #000000; stroke-width: 0.6"/>
      </g>
     </g>
    </g>
    <g id="xtick_8">
     <g id="line2d_15">
      <path d="M 139.621193 30.614173 
L 139.621193 3.401575 
" clip-path="url(#p303d78c20c)" style="fill: none; stroke: #ffffff; stroke-opacity: 0.9; stroke-width: 0.55; stroke-linecap: square"/>
     </g>
     <g id="line2d_16">
      <g>
       <use xlink:href="#mf44434a008" x="139.621193" y="30.614173" style="stroke: #000000; stroke-width: 0.6"/>
      </g>
     </g>
    </g>
    <g id="xtick_9">
     <g id="line2d_17">
      <path d="M 171.363956 30.614173 
L 171.363956 3.401575 
" clip-path="url(#p303d78c20c)" style="fill: none; stroke: #ffffff; stroke-opacity: 0.9; stroke-width: 0.55; stroke-linecap: square"/>
     </g>
     <g id="line2d_18">
      <g>
       <use xlink:href="#mf44434a008" x="171.363956" y="30.614173" style="stroke: #000000; stroke-width: 0.6"/>
      </g>
     </g>
    </g>
    <g id="xtick_10">
     <g id="line2d_19">
      <path d="M 203.106719 30.614173 
L 203.106719 3.401575 
" clip-path="url(#p303d78c20c)" style="fill: none; stroke: #ffffff; stroke-opacity: 0.9; stroke-width: 0.55; stroke-linecap: square"/>
     </g>
     <g id="line2d_20">
      <g>
       <use xlink:href="#mf44434a008" x="203.106719" y="30.614173" style="stroke: #000000; stroke-width: 0.6"/>
      </g>
     </g>
    </g>
    <g id="text_6">
     <text style="font-size: 8px; font-family: 'DejaVu Sans', 'Bitstream Vera Sans', 'Computer Modern Sans Serif', 'Lucida Grande', 'Verdana', 'Geneva', 'Lucid', 'Arial', 'Helvetica', 'Avant Garde', sans-serif; text-anchor: middle" x="133.937008" y="53.935423" transform="rotate(-0 133.937008 53.935423)">time</text>
    </g>
   </g>
   <g id="matplotlib.axis_2">
    <g id="ytick_1">
     <g id="line2d_21">
      <path d="M 59.527559 28.57577 
L 208.346457 28.57577 
" clip-path="url(#p303d78c20c)" style="fill: none; stroke: #ffffff; stroke-width: 0.9; stroke-linecap: square"/>
     </g>
     <g id="line2d_22">
      <defs>
       <path id="ma0919fb64b" d="M 0 0 
L -2 0 
" style="stroke: #000000; stroke-width: 0.4"/>
      </defs>
      <g>
       <use xlink:href="#ma0919fb64b" x="59.527559" y="28.57577" style="stroke: #000000; stroke-width: 0.4"/>
      </g>
     </g>
     <g id="text_7">
      <text style="font-size: 8px; font-family: 'DejaVu Sans', 'Bitstream Vera Sans', 'Computer Modern Sans Serif', 'Lucida Grande', 'Verdana', 'Geneva', 'Lucid', 'Arial', 'Helvetica', 'Avant Garde', sans-serif; text-anchor: end" x="54.027559" y="31.615145" transform="rotate(-0 54.027559 31.615145)">−1.5</text>
     </g>
    </g>
    <g id="ytick_2">
     <g id="line2d_23">
      <path d="M 59.527559 18.479489 
L 208.346457 18.479489 
" clip-path="url(#p303d78c20c)" style="fill: none; stroke: #ffffff; stroke-width: 0.9; stroke-linecap: square"/>
     </g>
     <g id="line2d_24">
      <g>
       <use xlink:href="#ma0919fb64b" x="59.527559" y="18.479489" style="stroke: #000000; stroke-width: 0.4"/>
      </g>
     </g>
     <g id="text_8">
      <text style="font-size: 8px; font-family: 'DejaVu Sans', 'Bitstream Vera Sans', 'Computer Modern Sans Serif', 'Lucida Grande', 'Verdana', 'Geneva', 'Lucid', 'Arial', 'Helvetica', 'Avant Garde', sans-serif; text-anchor: end" x="54.027559" y="21.518864" transform="rotate(-0 54.027559 21.518864)">0.0</text>
     </g>
    </g>
    <g id="ytick_3">
     <g id="line2d_25">
      <path d="M 59.527559 8.383207 
L 208.346457 8.383207 
" clip-path="url(#p303d78c20c)" style="fill: none; stroke: #ffffff; stroke-width: 0.9; stroke-linecap: square"/>
     </g>
     <g id="line2d_26">
      <g>
       <use xlink:href="#ma0919fb64b" x="59.527559" y="8.383207" style="stroke: #000000; stroke-width: 0.4"/>
      </g>
     </g>
     <g id="text_9">
      <text style="font-size: 8px; font-family: 'DejaVu Sans', 'Bitstream Vera Sans', 'Computer Modern Sans Serif', 'Lucida Grande', 'Verdana', 'Geneva', 'Lucid', 'Arial', 'Helvetica', 'Avant Garde', sans-serif; text-anchor: end" x="54.027559" y="11.422582" transform="rotate(-0 54.027559 11.422582)">1.5</text>
     </g>
    </g>
    <g id="ytick_4">
     <g id="line2d_27">
      <path d="M 59.527559 23.52763 
L 208.346457 23.52763 
" clip-path="url(#p303d78c20c)" style="fill: none; stroke: #ffffff; stroke-opacity: 0.9; stroke-width: 0.55; stroke-linecap: square"/>
     </g>
     <g id="line2d_28">
      <defs>
       <path id="m61f92a204e" d="M 0 0 
L -2 0 
" style="stroke: #000000; stroke-width: 0.6"/>
      </defs>
      <g>
       <use xlink:href="#m61f92a204e" x="59.527559" y="23.52763" style="stroke: #000000; stroke-width: 0.6"/>
      </g>
     </g>
    </g>
    <g id="ytick_5">
     <g id="line2d_29">
      <path d="M 59.527559 13.431348 
L 208.346457 13.431348 
" clip-path="url(#p303d78c20c)" style="fill: none; stroke: #ffffff; stroke-opacity: 0.9; stroke-width: 0.55; stroke-linecap: square"/>
     </g>
     <g id="line2d_30">
      <g>
       <use xlink:href="#m61f92a204e" x="59.527559" y="13.431348" style="stroke: #000000; stroke-width: 0.6"/>
      </g>
     </g>
    </g>
    <g id="text_10">
     <text style="font-size: 8px; font-family: 'DejaVu Sans', 'Bitstream Vera Sans', 'Computer Modern Sans Serif', 'Lucida Grande', 'Verdana', 'Geneva', 'Lucid', 'Arial', 'Helvetica', 'Avant Garde', sans-serif; text-anchor: middle" x="28.715059" y="17.007874" transform="rotate(-90 28.715059 17.007874)">right_shoulder_dy</text>
    </g>
   </g>
   <g id="line2d_31">
    <path d="M 60.264286 8.93796 
L 60.405506 9.139849 
L 60.529074 9.975696 
L 60.758557 10.12548 
L 60.882124 10.304453 
L 61.058649 10.380497 
L 61.288132 10.441947 
L 61.464656 10.920873 
L 61.905969 11.803064 
L 62.082494 10.370127 
L 62.259019 10.478818 
L 62.294324 10.537579 
L 62.612069 12.294664 
L 62.965119 12.39388 
L 63.088687 11.538061 
L 63.265212 11.441917 
L 63.529999 11.489926 
L 63.67122 11.844415 
L 63.794787 11.815866 
L 63.971312 10.452702 
L 64.236099 10.124712 
L 64.412625 10.486755 
L 64.465582 10.41007 
L 64.642107 10.285123 
L 64.818632 10.337611 
L 65.118724 11.3299 
L 65.259945 11.383668 
L 65.471775 11.622555 
L 65.560037 11.520523 
L 65.6483 10.696325 
L 65.824825 9.856765 
L 66.230832 9.961102 
L 66.49562 10.587251 
L 66.583883 10.391251 
L 66.672145 10.125864 
L 66.795713 9.454268 
L 67.237025 9.344681 
L 67.466508 9.169421 
L 67.590075 9.875712 
L 67.731295 14.948917 
L 67.7666 14.948917 
L 67.996083 14.128305 
L 68.084345 15.676971 
L 68.207913 26.114885 
L 68.560963 26.146377 
L 68.737488 25.551978 
L 68.82575 25.465435 
L 68.96697 25.352009 
L 69.267063 25.576558 
L 69.302368 25.533286 
L 69.567155 23.784779 
L 69.708376 10.475746 
L 69.831943 10.225209 
L 69.920206 10.225209 
L 70.09673 11.047998 
L 70.149688 11.047998 
L 70.361518 10.16043 
L 70.626305 9.823479 
L 70.979356 10.149933 
L 71.208838 10.79887 
L 71.297101 10.739084 
L 71.508931 9.671135 
L 71.561888 9.782513 
L 71.597193 9.782513 
L 71.950243 10.695301 
L 72.003201 10.591476 
L 72.126768 8.967916 
L 72.215031 8.967916 
L 72.356251 10.828442 
L 72.479818 25.35854 
L 72.656343 25.458138 
L 72.885826 26.096706 
L 73.062351 26.231768 
L 73.185919 26.441082 
L 73.274181 26.413045 
L 73.503664 25.916708 
L 73.591926 25.313219 
L 73.715494 10.329545 
L 73.803756 10.329545 
L 73.980281 10.654079 
L 74.386289 9.857277 
L 74.562814 9.744235 
L 74.774644 9.473727 
L 74.827601 9.465149 
L 74.951169 9.320358 
L 75.039431 9.320358 
L 75.268914 10.662143 
L 75.392481 24.459321 
L 75.657269 25.394896 
L 75.745532 25.475294 
L 75.922056 25.812628 
L 76.063277 25.798929 
L 76.186844 25.370701 
L 76.328064 25.370701 
L 76.504589 25.779214 
L 76.539894 25.779214 
L 76.592852 25.633912 
L 76.716419 24.771307 
L 76.857639 24.719715 
L 76.892944 24.771307 
L 77.034164 25.135655 
L 77.210689 25.135655 
L 77.422519 26.118085 
L 77.510782 25.752074 
L 77.687307 26.57307 
L 77.828527 26.57307 
L 77.987399 26.04396 
L 78.252187 26.008116 
L 78.605237 25.308099 
L 78.781762 25.409747 
L 79.311337 25.214131 
L 79.576124 25.030293 
L 79.805607 24.584013 
L 79.982132 24.603216 
L 80.1057 24.878845 
L 80.193962 24.125443 
L 80.335182 13.051394 
L 80.59997 9.478207 
L 80.723537 10.257981 
L 80.8118 10.293828 
L 80.864757 9.293346 
L 80.95302 9.293346 
L 81.129545 12.923118 
L 81.253113 21.377477 
L 81.482595 24.457786 
L 81.606162 26.019766 
L 81.65912 26.019766 
L 81.694425 25.849243 
L 81.923908 22.938947 
L 82.188695 22.50406 
L 82.665313 23.219311 
L 82.806533 23.191147 
L 82.9301 22.69942 
L 83.07132 22.71107 
L 83.194888 23.354374 
L 83.28315 23.571497 
L 83.371413 23.478299 
L 83.459675 23.478299 
L 83.6362 22.786473 
L 83.724463 22.52736 
L 84.042208 14.502124 
L 84.13047 14.502124 
L 84.254038 20.358817 
L 84.3423 20.289302 
L 84.483521 19.233515 
L 84.518825 19.233515 
L 84.695351 21.224876 
L 85.048401 21.146401 
L 85.18962 20.64968 
L 85.277883 20.725724 
L 85.577976 26.222038 
L 85.630933 26.096066 
L 85.842763 23.276537 
L 85.931026 23.209327 
L 86.072246 22.594443 
L 86.195813 22.594443 
L 86.337033 20.805609 
L 86.513558 11.695527 
L 86.637126 7.28995 
L 86.725388 7.28995 
L 86.848956 8.988017 
L 87.166701 10.477921 
L 87.202006 10.477921 
L 87.378531 10.297156 
L 87.466793 10.374097 
L 87.731581 11.24771 
L 87.784538 11.24771 
L 87.908106 11.470978 
L 87.996368 11.021753 
L 88.402376 4.934752 
L 88.490639 5.247763 
L 88.614206 22.264149 
L 88.755426 23.613231 
L 88.790731 23.435155 
L 88.878994 23.344389 
L 88.967256 23.705022 
L 89.108476 25.447768 
L 89.408569 25.359434 
L 89.549789 26.339945 
L 89.638051 26.263134 
L 89.761619 24.988687 
L 89.849881 24.988687 
L 90.026406 23.782475 
L 90.079364 23.70784 
L 90.379456 11.633437 
L 90.555982 23.225969 
L 90.732507 23.872219 
L 90.873727 25.497697 
L 90.909031 25.497697 
L 91.138514 24.67478 
L 91.173819 24.67478 
L 91.262082 24.836085 
L 91.403302 25.998643 
L 91.438606 25.998643 
L 91.579827 24.381996 
L 91.703394 23.644086 
L 91.844614 24.288414 
L 91.879919 24.288414 
L 92.021139 25.271228 
L 92.144707 25.322693 
L 92.232969 25.130021 
L 92.409494 25.359434 
L 92.58602 25.508834 
L 92.903765 25.407186 
L 93.027332 24.840055 
L 93.080289 25.173548 
L 93.380382 25.927847 
L 93.43334 25.919269 
L 93.521602 25.71034 
L 93.556907 25.762444 
L 93.698127 25.804435 
L 93.821694 26.090817 
L 93.909957 26.103747 
L 94.051177 26.248282 
L 94.139439 26.248282 
L 94.439532 24.751592 
L 94.527795 24.749672 
L 94.669015 24.363049 
L 94.84554 23.002828 
L 95.05737 23.002828 
L 95.286853 24.82162 
L 95.41042 25.930791 
L 95.498683 25.930791 
L 95.586945 25.29312 
L 95.798775 10.922026 
L 95.939995 11.432572 
L 96.11652 11.356912 
L 96.240088 11.272546 
L 96.504875 11.313513 
L 96.646095 12.25677 
L 96.769663 12.716236 
L 96.857925 12.710091 
L 96.910883 12.531374 
L 97.087408 11.396598 
L 97.17567 11.396598 
L 97.299238 11.604888 
L 97.564025 10.976307 
L 97.917075 9.861629 
L 97.970033 9.89133 
L 98.005338 9.89133 
L 98.358388 11.109832 
L 98.44665 11.161424 
L 98.58787 11.467394 
L 98.623176 12.446752 
L 98.764395 24.803825 
L 98.887963 25.25689 
L 98.940921 25.266747 
L 99.064488 26.023734 
L 99.329275 26.132039 
L 99.382233 26.195666 
L 99.558758 27.771858 
L 99.64702 27.771858 
L 99.682326 27.60927 
L 99.85885 26.201684 
L 100.211901 25.902754 
L 100.388426 25.902754 
L 100.741476 25.588336 
L 100.882696 25.543657 
L 101.147483 25.389264 
L 101.182788 25.389264 
L 101.765321 28.645854 
L 102.206634 29.204409 
L 102.330201 28.646238 
L 102.471421 15.197789 
L 102.594989 15.100622 
L 102.683251 15.100622 
L 102.859776 15.348214 
L 103.177521 15.427843 
L 103.389351 11.796535 
L 103.565876 11.100103 
L 103.707096 10.542444 
L 103.742401 10.542444 
L 103.830664 11.219417 
L 103.971884 24.983567 
L 104.007189 24.983567 
L 104.060146 24.857978 
L 104.236672 10.615544 
L 104.483806 9.796851 
L 104.572069 9.796851 
L 104.625026 9.947403 
L 104.748594 10.724873 
L 104.978077 11.033916 
L 105.189907 10.676226 
L 105.719482 10.602486 
L 105.948964 9.488961 
L 106.213752 9.335208 
L 106.337319 10.626681 
L 106.513844 10.519016 
L 106.919852 10.127017 
L 107.272902 10.170287 
L 107.396469 10.332489 
L 107.625952 10.193843 
L 107.926045 10.265279 
L 108.155527 10.459614 
L 108.367357 10.14097 
L 108.508577 9.829112 
L 108.632145 10.242107 
L 108.861627 10.24646 
L 108.985195 10.123816 
L 109.16172 10.123816 
L 109.30294 9.956109 
L 109.426507 9.916294 
L 109.479465 9.830009 
L 109.51477 9.916294 
L 109.744253 9.985681 
L 109.86782 10.125353 
L 110.00904 10.125353 
L 110.273828 10.446813 
L 110.397395 10.133929 
L 110.57392 10.22188 
L 110.626877 10.293956 
L 110.662182 10.22188 
L 110.750445 10.22188 
L 110.92697 9.360941 
L 111.156453 9.321894 
L 111.244715 9.351339 
L 111.509502 10.003092 
L 111.597765 10.080033 
L 111.77429 10.834715 
L 111.809595 10.860063 
L 111.950815 11.268322 
L 111.98612 11.268322 
L 112.162645 9.770351 
L 112.250908 9.770351 
L 112.33917 9.155723 
L 112.392128 9.285537 
L 112.427433 9.285537 
L 112.603958 9.019381 
L 112.69222 9.055355 
L 112.780483 10.035609 
L 112.957008 12.432541 
L 113.009965 12.432541 
L 113.221795 10.431449 
L 113.574845 11.079619 
L 114.051463 11.172818 
L 114.227988 10.717192 
L 114.457471 10.797205 
L 114.581038 11.053118 
L 114.633996 10.912936 
L 114.669301 11.053118 
L 114.757563 11.053118 
L 114.987046 11.792695 
L 115.110613 11.840574 
L 115.163571 11.79948 
L 115.287138 11.41785 
L 115.340096 11.41785 
L 115.551926 11.893703 
L 115.604883 11.941583 
L 115.728451 12.191095 
L 115.869671 12.086374 
L 116.081501 10.243899 
L 116.222721 10.824986 
L 116.346288 11.867715 
L 116.522814 11.84928 
L 116.664034 10.470369 
L 116.699338 10.470369 
L 116.840559 11.546383 
L 116.928821 11.501191 
L 117.052389 11.337965 
L 117.193609 11.413881 
L 117.317176 11.456512 
L 117.370134 11.386228 
L 117.670226 8.47158 
L 117.811446 8.47158 
L 117.987971 10.446813 
L 118.111539 10.736908 
L 118.164496 10.681603 
L 118.288064 11.191637 
L 118.605809 11.640862 
L 118.641114 11.640862 
L 118.782334 11.837886 
L 118.817639 11.839422 
L 118.870596 11.694503 
L 118.905902 11.839422 
L 119.047121 11.839422 
L 119.135384 11.711401 
L 119.170689 11.748783 
L 119.576697 11.647775 
L 119.788527 11.544078 
L 120.194534 11.49223 
L 120.582889 8.79573 
L 120.759414 8.886496 
L 121.024202 12.045407 
L 121.165422 11.997784 
L 121.28899 11.771443 
L 121.465514 11.728556 
L 121.642039 11.728556 
L 121.818565 12.040158 
L 121.959784 12.014298 
L 121.995089 12.014298 
L 122.295182 11.38098 
L 122.34814 11.390198 
L 122.383445 11.24899 
L 122.471707 11.295078 
L 122.70119 11.310696 
L 122.824757 11.620634 
L 123.001282 11.721131 
L 123.142502 12.129773 
L 123.319027 11.413113 
L 123.61912 11.162576 
L 124.025127 11.731372 
L 124.289915 11.687462 
L 124.590007 10.140075 
L 124.907752 13.553235 
L 125.084278 26.447484 
L 125.119582 26.447484 
L 125.349065 24.147335 
L 125.472633 11.136333 
L 125.52559 11.136333 
L 125.825683 12.088294 
L 125.913945 11.941583 
L 126.055165 11.144909 
L 126.23169 11.10868 
L 126.496478 11.452031 
L 126.620045 11.241437 
L 127.14962 11.011384 
L 127.326146 11.652895 
L 127.414408 11.652895 
L 127.467365 11.314153 
L 127.679195 8.250489 
L 127.767458 8.250489 
L 127.943983 10.404438 
L 128.032245 10.404438 
L 128.297033 9.05433 
L 128.473558 9.021174 
L 128.650083 17.939481 
L 128.791303 20.217354 
L 128.967828 20.217354 
L 129.091396 19.909208 
L 129.179658 19.915994 
L 129.320878 23.682107 
L 129.532708 24.888447 
L 129.673928 24.951945 
L 129.709233 24.888447 
L 129.885758 24.031348 
L 129.974021 23.865944 
L 130.115241 22.852662 
L 130.150546 22.852662 
L 130.380028 23.846742 
L 130.468291 23.846742 
L 130.503596 24.168329 
L 130.556554 23.846742 
L 130.644816 23.76993 
L 130.733078 23.62309 
L 130.821341 23.76993 
L 130.891951 23.624242 
L 130.944908 23.721666 
L 131.033171 23.914593 
L 131.209696 23.449238 
L 131.333264 23.449238 
L 131.509789 23.643317 
L 131.562746 23.643317 
L 131.862839 19.448718 
L 131.915796 19.733564 
L 131.951101 19.753407 
L 132.127626 20.036461 
L 132.304151 24.773228 
L 132.480676 24.884477 
L 132.533634 24.884477 
L 132.921989 28.470466 
L 133.010251 28.431803 
L 133.151472 28.177938 
L 133.186776 28.177938 
L 133.239734 27.361551 
L 133.275039 27.618615 
L 133.327996 27.718985 
L 133.451564 28.340269 
L 133.769309 25.678463 
L 134.034097 25.69088 
L 134.069401 25.889568 
L 134.122359 25.69088 
L 134.157664 25.673341 
L 134.334189 24.982414 
L 134.387146 24.982414 
L 134.510714 25.536232 
L 134.563672 25.550184 
L 134.740197 26.436089 
L 134.775502 26.436089 
L 135.040289 25.528422 
L 135.305077 25.422549 
L 135.481602 26.266077 
L 135.569864 26.308196 
L 135.658127 26.581649 
L 135.922914 24.924036 
L 136.064135 24.924036 
L 136.187702 25.274812 
L 136.328922 25.953194 
L 136.452489 26.534024 
L 136.505447 26.534024 
L 136.540752 26.16763 
L 136.59371 26.602387 
L 136.629015 26.889026 
L 136.681972 26.451068 
L 136.717277 26.451068 
L 137.035022 28.808185 
L 137.246852 27.03689 
L 137.335115 27.745101 
L 137.476335 29.320396 
L 137.511639 29.320396 
L 137.688165 26.24841 
L 137.741122 26.079424 
L 137.86469 14.674825 
L 138.041215 14.314062 
L 138.094172 14.424289 
L 138.21774 13.240481 
L 138.306002 13.456195 
L 138.482527 13.480648 
L 138.659053 13.788409 
L 138.800272 13.732593 
L 139.012102 13.269286 
L 139.06506 13.256739 
L 139.188628 13.11118 
L 139.41811 12.702666 
L 139.682897 11.913674 
L 139.84177 14.144691 
L 139.930033 14.144691 
L 140.071253 13.700459 
L 140.106557 13.700459 
L 140.283083 14.038434 
L 140.371345 14.038434 
L 140.512565 14.447717 
L 140.636133 15.292269 
L 140.777353 24.82802 
L 140.989183 25.666685 
L 141.04214 25.642489 
L 141.077445 24.99944 
L 141.25397 13.024637 
L 141.39519 12.701386 
L 141.483453 12.68295 
L 141.60702 12.006489 
L 141.871808 8.951402 
L 142.013028 8.337672 
L 142.136595 8.446872 
L 142.489645 10.632059 
L 142.542603 10.722569 
L 142.666171 11.011512 
L 143.072178 10.995253 
L 143.336965 7.845303 
L 143.690016 4.638511 
L 143.866541 8.068572 
L 144.043066 9.5298 
L 144.166633 9.889154 
L 144.219591 10.130089 
L 144.343158 10.99999 
L 144.484379 11.052095 
L 144.519683 11.748655 
L 144.784471 23.758536 
L 144.925691 23.758536 
L 145.049258 22.722975 
L 145.190478 22.722975 
L 145.314046 23.333635 
L 145.667096 24.299806 
L 145.896579 24.390189 
L 146.020146 24.795759 
L 146.108409 24.795759 
L 146.337891 24.159752 
L 146.426154 24.119426 
L 146.461459 24.159752 
L 146.602679 24.226324 
L 146.726246 24.335396 
L 146.779204 24.335396 
L 146.991034 23.55255 
L 147.167559 23.374345 
L 147.432346 23.160166 
L 147.661829 22.473846 
L 147.697134 22.473846 
L 147.926617 23.58161 
L 148.103141 24.384173 
L 148.138447 24.384173 
L 148.314971 22.764455 
L 148.367929 22.764455 
L 148.579759 21.19748 
L 148.615064 20.411817 
L 148.791589 9.068925 
L 148.932809 8.350857 
L 148.968114 8.350857 
L 149.232902 12.181494 
L 149.285859 12.892009 
L 149.497689 25.875486 
L 149.550647 25.36366 
L 149.585952 25.308738 
L 149.850739 23.06415 
L 149.903697 23.06415 
L 150.080222 21.677046 
L 156.964698 23.404814 
L 157.176528 22.439537 
L 157.529578 22.030127 
L 157.653146 21.271349 
L 157.794365 21.038607 
L 158.006196 21.981095 
L 158.059153 21.981095 
L 158.235678 20.952705 
L 158.359246 13.397306 
L 158.624033 12.955891 
L 158.712296 12.983671 
L 158.888821 19.927899 
L 158.941779 20.248335 
L 159.153609 25.501409 
L 159.206566 25.501409 
L 159.330133 23.55191 
L 159.383091 23.514527 
L 159.506658 22.452852 
L 159.912666 14.955702 
L 160.000929 15.015487 
L 160.124496 16.118643 
L 160.212759 16.118643 
L 160.353979 15.900751 
L 160.389283 15.900751 
L 160.618766 18.10834 
L 160.742334 18.452844 
L 160.795291 18.50034 
L 160.918859 19.129818 
L 160.971816 19.129818 
L 161.148341 15.480459 
L 161.271909 15.410176 
L 161.448434 14.977082 
L 161.536696 14.977082 
L 161.854442 17.877135 
L 161.889746 17.9318 
L 162.030966 18.46219 
L 162.066272 18.46219 
L 162.207491 15.366265 
L 162.242796 15.366265 
L 162.419321 16.317075 
L 162.507584 16.317075 
L 162.595847 16.640711 
L 162.772371 20.186629 
L 162.860634 20.186629 
L 163.213684 16.05348 
L 163.390209 13.327535 
L 163.478472 13.327535 
L 163.619692 14.252228 
L 163.707954 14.252228 
L 163.796217 13.278887 
L 163.972742 11.91393 
L 164.096309 11.901512 
L 164.537622 13.538897 
L 164.943629 21.367235 
L 165.067197 18.275152 
L 165.120154 18.275152 
L 165.243722 21.80366 
L 165.384942 23.87913 
L 165.561467 26.338665 
L 165.685034 26.338665 
L 165.86156 23.832659 
L 166.002779 10.367568 
L 166.091042 10.367568 
L 166.214609 21.105434 
L 166.391135 22.245715 
L 166.426439 22.245715 
L 166.602965 19.32825 
L 166.655922 19.32825 
L 166.77949 22.327775 
L 166.832447 22.559365 
L 167.008972 24.283036 
L 167.13254 24.283036 
L 167.185497 23.87657 
L 167.573853 13.36991 
L 167.62681 14.110766 
L 167.83864 22.209357 
L 168.015165 22.483578 
L 168.103428 22.483578 
L 168.33291 18.689555 
L 168.456478 16.312722 
L 168.509435 16.312722 
L 168.633003 22.874807 
L 168.721265 22.874807 
L 168.950748 20.874869 
L 169.074315 19.953247 
L 169.127272 19.953247 
L 169.215535 19.819466 
L 169.25084 19.953247 
L 169.60389 24.441527 
L 169.656848 24.165385 
L 169.95694 17.083279 
L 170.09816 17.083279 
L 170.221728 19.300982 
L 170.30999 19.338748 
L 170.362948 19.420297 
L 170.486516 19.764032 
L 170.539473 19.554718 
L 170.574778 19.764032 
L 170.66304 20.094071 
L 170.751303 20.307992 
L 171.104353 24.301855 
L 171.245573 22.795052 
L 171.369141 16.569403 
L 171.457403 15.289581 
L 171.633928 11.100999 
L 171.775148 10.600054 
L 171.810453 10.600054 
L 171.898716 11.838014 
L 172.128198 24.332453 
L 172.163503 24.332453 
L 172.392986 26.214101 
L 172.516553 26.214101 
L 172.604816 24.684894 
L 172.746036 10.472928 
L 172.834298 10.315463 
L 172.869603 10.375377 
L 172.957866 10.472928 
L 173.222653 11.329388 
L 173.487441 10.646141 
L 173.575703 10.646141 
L 173.628661 10.784275 
L 173.752228 13.901068 
L 173.893448 13.810942 
L 174.069973 12.395545 
L 174.105278 12.267524 
L 174.281804 10.962352 
L 174.334761 11.06925 
L 174.370066 11.40108 
L 174.511286 19.568545 
L 174.546591 19.629995 
L 174.776074 23.799503 
L 174.864336 23.917026 
L 174.987904 24.716258 
L 175.023209 24.716258 
L 175.199734 23.359751 
L 175.252691 23.359238 
L 175.376259 22.753957 
L 175.429216 22.933313 
L 175.464521 22.685081 
L 175.605741 22.471158 
L 175.729309 18.426856 
L 175.782266 18.412262 
L 175.905834 17.755515 
L 175.958791 17.755515 
L 176.082359 18.631178 
L 176.435409 19.806536 
L 176.700196 24.295839 
L 176.788459 24.415539 
L 176.929679 24.288542 
L 177.106204 22.957894 
L 177.194467 22.969927 
L 177.406297 23.759688 
L 177.459254 23.759688 
L 177.635779 23.14775 
L 177.759346 23.14775 
L 177.988829 24.337189 
L 178.077092 24.322596 
L 178.200659 22.841395 
L 178.288922 22.676121 
L 178.377184 22.888762 
L 178.553709 24.189453 
L 178.818497 22.89414 
L 178.959717 22.89414 
L 179.047979 23.068887 
L 179.136242 22.844852 
L 179.171547 22.944836 
L 179.312767 23.127265 
L 179.436335 23.127265 
L 179.577554 22.37156 
L 179.665817 22.37156 
L 179.789384 22.616974 
L 180.054172 22.527743 
L 180.10713 22.934466 
L 180.283655 28.018168 
L 180.407222 28.01023 
L 180.495485 27.328136 
L 180.672009 24.529477 
L 180.724967 24.529477 
L 180.760272 24.959114 
L 180.901492 27.111397 
L 180.936797 27.111397 
L 181.201585 25.246008 
L 181.342805 25.206835 
L 181.466372 23.547814 
L 181.607592 23.547814 
L 181.73116 23.570984 
L 181.907685 25.031958 
L 181.995947 25.061914 
L 182.048905 25.168172 
L 182.08421 25.061914 
L 182.525522 22.871481 
L 182.755005 22.735777 
L 182.843267 22.58881 
L 183.055097 22.270423 
L 183.108055 22.270423 
L 183.231623 23.020368 
L 183.319885 22.932289 
L 183.461105 22.623249 
L 183.584672 22.783017 
L 183.63763 22.756773 
L 183.84946 22.864695 
L 183.884765 22.630032 
L 183.973028 22.667415 
L 184.590865 22.664727 
L 184.820348 23.761224 
L 184.996873 23.818322 
L 185.261661 23.715905 
L 185.438185 23.993454 
L 185.561753 23.895006 
L 185.96776 23.430674 
L 186.356116 23.337731 
L 186.620903 21.345089 
L 186.673861 21.345089 
L 186.797428 21.68268 
L 186.850386 21.696377 
L 187.062216 22.771367 
L 187.238741 22.994892 
L 187.591791 23.026769 
L 187.821273 22.044337 
L 187.909536 22.214477 
L 188.033103 23.625906 
L 188.262586 23.887709 
L 188.474416 24.431796 
L 188.739204 24.465594 
L 188.915729 25.295297 
L 189.056949 25.323204 
L 189.445304 23.315969 
L 189.533566 23.315969 
L 189.851311 26.80722 
L 189.886616 26.80722 
L 190.151404 25.537895 
L 190.292624 25.48643 
L 190.416191 24.986766 
L 190.857504 24.893823 
L 190.945766 24.834805 
L 191.086987 24.472123 
L 191.122291 24.472123 
L 191.210554 24.690398 
L 191.351774 26.246363 
L 191.475341 26.166733 
L 191.616562 25.987503 
L 191.651867 25.987503 
L 191.793086 27.148267 
L 191.881349 27.148267 
L 192.057874 25.789712 
L 192.146137 25.789712 
L 192.269704 26.229847 
L 192.410924 26.148043 
L 192.746322 25.237047 
L 192.834584 25.237047 
L 193.275897 23.356167 
L 193.328854 23.356167 
L 193.452422 23.856856 
L 193.628947 24.360234 
L 193.893735 23.788621 
L 194.070259 24.213138 
L 194.388004 23.362822 
L 194.42331 23.404814 
L 194.56453 23.531042 
L 194.864622 24.386733 
L 195.005842 23.1425 
L 195.041147 23.1425 
L 195.182367 24.821109 
L 195.305935 25.399377 
L 195.48246 25.697666 
L 195.62368 25.697666 
L 195.747247 25.88035 
L 195.83551 25.201585 
L 195.97673 24.190093 
L 196.100297 24.079484 
L 196.153255 24.078203 
L 196.18856 24.329637 
L 196.241517 23.975274 
L 196.32978 23.870297 
L 196.365085 23.920354 
L 196.506305 23.975274 
L 196.629872 23.284859 
L 196.806398 18.885811 
L 196.89466 18.924601 
L 197.38893 23.266553 
L 197.512497 25.442904 
L 197.865548 27.477536 
L 198.042072 29.377237 
L 198.09503 29.377237 
L 198.271555 28.042876 
L 198.483385 24.970379 
L 198.748173 24.952712 
L 198.924698 25.230646 
L 198.977655 25.230646 
L 199.189486 24.141574 
L 199.242443 24.141574 
L 199.36601 23.812305 
L 199.418968 23.812305 
L 199.630798 23.018576 
L 199.719061 23.018576 
L 200.160373 25.898275 
L 200.21333 25.898275 
L 200.336898 25.129382 
L 200.601686 24.553288 
L 200.778211 24.713826 
L 200.954735 24.34935 
L 201.007693 24.551496 
L 201.272481 25.384911 
L 201.307786 25.384911 
L 201.572573 24.092925 
L 201.784403 23.824338 
L 201.960928 23.840853 
L 202.543461 26.892866 
L 202.667028 26.652444 
L 202.755291 26.600211 
L 202.843554 26.383472 
L 202.984773 25.349064 
L 203.020078 25.349064 
L 203.196604 27.142122 
L 204.079229 27.109221 
L 204.396974 26.76254 
L 204.520541 26.943819 
L 204.608804 26.896323 
L 204.873591 23.614256 
L 205.103074 23.614256 
L 205.314904 20.617803 
L 205.367861 20.335261 
L 205.491429 8.279678 
L 205.667954 7.004976 
L 205.809174 7.004976 
L 205.932741 7.475963 
L 206.021004 7.646999 
L 206.162224 8.412051 
L 206.285792 8.959083 
L 206.374054 8.957676 
L 206.550579 7.964235 
L 206.727104 8.287871 
L 206.956587 8.538535 
L 207.256679 8.390543 
L 207.433204 9.737834 
L 207.486162 9.737834 
L 207.609729 8.972782 
L 207.609729 8.972782 
" clip-path="url(#p303d78c20c)" style="fill: none; stroke: #5c80b5; stroke-width: 0.5; stroke-linecap: square"/>
   </g>
   <g id="patch_3">
    <path d="M 59.527559 30.614173 
L 59.527559 3.401575 
" style="fill: none; stroke: #000000; stroke-width: 0.4; stroke-linejoin: miter; stroke-linecap: square"/>
   </g>
   <g id="patch_4">
    <path d="M 208.346457 30.614173 
L 208.346457 3.401575 
" style="fill: none; stroke: #000000; stroke-width: 0.4; stroke-linejoin: miter; stroke-linecap: square"/>
   </g>
   <g id="patch_5">
    <path d="M 59.527559 30.614173 
L 208.346457 30.614173 
" style="fill: none; stroke: #000000; stroke-width: 0.4; stroke-linejoin: miter; stroke-linecap: square"/>
   </g>
   <g id="patch_6">
    <path d="M 59.527559 3.401575 
L 208.346457 3.401575 
" style="fill: none; stroke: #000000; stroke-width: 0.4; stroke-linejoin: miter; stroke-linecap: square"/>
   </g>
  </g>
 </g>
 <defs>
  <clipPath id="p303d78c20c">
   <rect x="59.527559" y="3.401575" width="148.818898" height="27.212598"/>
  </clipPath>
 </defs>
</svg>
